<?xml version="1.0" encoding="UTF-8" ?> <!DOCTYPE svg PUBLIC "-//W3C//DTD SVG 1.1//EN" "http://www.w3.org/Graphics/SVG/1.1/DTD/svg11.dtd"> <svg class="crossover_sheet" xmlns="http://www.w3.org/2000/svg" version="1.1" xmlns:xlink="http://www.w3.org/1999/xlink" width="1881" height="2633.3999999999996"> <style>@import url("https://fonts.googleapis.com/css2?family=Cinzel");@import url("https://fonts.googleapis.com/css2?family=Trade+Winds");@import url("https://fonts.googleapis.com/css2?family=Imprima");@import url("https://fonts.googleapis.com/css2?family=Roboto");@import url("https://fonts.googleapis.com/css2?family=Philosopher");@import url("https://fonts.googleapis.com/css2?family=Ruda");@import url("https://fonts.googleapis.com/css2?family=Khand");@import url("https://fonts.googleapis.com/css2?family=Allura");@import url("https://fonts.googleapis.com/css2?family=Gochi+Hand");@import url("https://fonts.googleapis.com/css2?family=Reggae+One");@import url("https://fonts.googleapis.com/css2?family=Whisper");@import url("https://fonts.googleapis.com/css2?family=Licorice");@import url("https://fonts.googleapis.com/css2?family=Damion");@import url("https://fonts.googleapis.com/css2?family=Allison");@import url("https://fonts.googleapis.com/css2?family=Syne+Mono");@import url("https://fonts.googleapis.com/css2?family=Zilla+Slab");@import url("https://fonts.googleapis.com/css2?family=Spartan");@import url("https://fonts.googleapis.com/css2?family=Marcellus+SC");@import url("https://fonts.googleapis.com/css2?family=Atma");@import url("https://fonts.googleapis.com/css2?family=Splash");@import url("https://fonts.googleapis.com/css2?family=Trirong");@import url("https://fonts.googleapis.com/css2?family=Ubuntu+Mono");@import url("https://fonts.googleapis.com/css2?family=Inria+Sans");</style><g class="all" transform="translate(0,0)"><g class="page" transform="translate(0,0)"><rect x="0" y="0" width="1881" height="2633.3999999999996" style="fill: white; stroke: rgb(136, 136, 136); stroke-width: 0px;" opacity="1"></rect><g class="xover_sheet"><g class="background_notes"><g><text x="431.0625" y="256.025" dy="10" style="text-anchor: middle; font-family: Khand; font-size: 29.26px; fill: rgb(17, 17, 17); stroke: rgb(136, 136, 136); stroke-width: 0.5pt;">About Backgrounds</text></g><g class="background_note"><rect x="137.15625" y="292.59999999999997" rx="8pt" ry="8pt" width="587.8125" height="193.84749999999997" style="stroke: rgb(8, 8, 8); fill: none;"></rect><text x="431.0625" y="314.54499999999996" style="font-family: Khand; font-size: 24.871px; text-anchor: middle; fill: rgb(34, 34, 34); stroke: rgb(136, 136, 136); stroke-width: 0.05pt;">Fetish [1] </text><text x="156.75" y="347.4625" style="font-family: Gochi Hand; font-size: 24.871px; text-anchor: start; fill: rgb(17, 68, 51); stroke: rgb(68, 204, 136); stroke-width: 0.05pt;"><tspan x="156.75" y="347.4625" dy="0" style="font-size: 24.871px; stroke-width: 0.05pt;">One level 1 fetish.</tspan></text></g><g class="background_note"><rect x="137.15625" y="512.05" rx="8pt" ry="8pt" width="587.8125" height="193.84749999999997" style="stroke: rgb(8, 8, 8); fill: none;"></rect><text x="431.0625" y="533.9949999999999" style="font-family: Khand; font-size: 24.871px; text-anchor: middle; fill: rgb(34, 34, 34); stroke: rgb(136, 136, 136); stroke-width: 0.05pt;">Kinfolk [1] </text><text x="156.75" y="566.9124999999999" style="font-family: Gochi Hand; font-size: 24.871px; text-anchor: start; fill: rgb(17, 68, 51); stroke: rgb(68, 204, 136); stroke-width: 0.05pt;"><tspan x="156.75" y="566.9124999999999" dy="0" style="font-size: 24.871px; stroke-width: 0.05pt;">2 kinfolks</tspan></text></g><g class="background_note"><rect x="137.15625" y="731.5" rx="8pt" ry="8pt" width="587.8125" height="193.84749999999997" style="stroke: rgb(8, 8, 8); fill: none;"></rect><text x="431.0625" y="753.4449999999999" style="font-family: Khand; font-size: 24.871px; text-anchor: middle; fill: rgb(34, 34, 34); stroke: rgb(136, 136, 136); stroke-width: 0.05pt;">Mentor [1] </text><text x="156.75" y="786.3625" style="font-family: Gochi Hand; font-size: 24.871px; text-anchor: start; fill: rgb(17, 68, 51); stroke: rgb(68, 204, 136); stroke-width: 0.05pt;"><tspan x="156.75" y="786.3625" dy="0" style="font-size: 24.871px; stroke-width: 0.05pt;">Mentor is an ancilla of little influence or a rank 2</tspan><tspan x="156.75" y="786.3625" dy="27.358099999999997" style="font-size: 24.871px; stroke-width: 0.05pt;">garou.</tspan></text></g><g class="background_note"><rect x="137.15625" y="950.9499999999998" rx="8pt" ry="8pt" width="587.8125" height="193.84749999999997" style="stroke: rgb(8, 8, 8); fill: none;"></rect><text x="431.0625" y="972.895" style="font-family: Khand; font-size: 24.871px; text-anchor: middle; fill: rgb(34, 34, 34); stroke: rgb(136, 136, 136); stroke-width: 0.05pt;">Resources [1] </text><text x="156.75" y="1005.8124999999998" style="font-family: Gochi Hand; font-size: 24.871px; text-anchor: start; fill: rgb(17, 68, 51); stroke: rgb(68, 204, 136); stroke-width: 0.05pt;"><tspan x="156.75" y="1005.8124999999998" dy="0" style="font-size: 24.871px; stroke-width: 0.05pt;">Small savings: a small apartment and maybe a</tspan><tspan x="156.75" y="1005.8124999999998" dy="27.358099999999997" style="font-size: 24.871px; stroke-width: 0.05pt;">motorcycle. If liquidated, you would have about</tspan><tspan x="156.75" y="1005.8124999999998" dy="54.71619999999999" style="font-size: 24.871px; stroke-width: 0.05pt;">€2,000 in cash. Allowance of €1000 a month.</tspan></text></g><g class="background_note"><rect x="137.15625" y="1170.3999999999999" rx="8pt" ry="8pt" width="587.8125" height="193.84749999999997" style="stroke: rgb(8, 8, 8); fill: none;"></rect><text x="431.0625" y="1192.3449999999998" style="font-family: Khand; font-size: 24.871px; text-anchor: middle; fill: rgb(34, 34, 34); stroke: rgb(136, 136, 136); stroke-width: 0.05pt;">Totem [1] </text><text x="156.75" y="1225.2624999999998" style="font-family: Gochi Hand; font-size: 24.871px; text-anchor: start; fill: rgb(17, 68, 51); stroke: rgb(68, 204, 136); stroke-width: 0.05pt;"><tspan x="156.75" y="1225.2624999999998" dy="0" style="font-size: 24.871px; stroke-width: 0.05pt;">2 level of dedication to the totem.</tspan></text></g></g><g class="timeline"><g><text x="1234.40625" y="256.025" dy="10" style="text-anchor: middle; font-family: Khand; font-size: 29.26px; fill: rgb(17, 17, 17); stroke: rgb(136, 136, 136); stroke-width: 0.5pt;">Timeline</text></g></g><g class="form_group" transform="translate(117.5625,2121.35)"><g transform="translate(156.75,585.1999999999999)scale(2)"><path d="M36.2016-150.0788s-2.944.4567-2.7566.4567c.8335 0 1.5705-1.0722 1.7758-2.5834.1224-.9013.1042-1.6197-.0448-1.769-.138-.1382-.2509-.8642-.2509-1.6132-.099-1.9341-1.8361-5.4131-1.5822-7.6605-.6934-3.2277-2.3753-9.4612-3.8993-12.4898.5456-2.8447 3.2077-8.4179 3.3756-9.1879.0759-.348 3.237-11.5078 4.0716-11.5078.2818 0-.6871 13.5742-1.4904 18.459 1.2657 3.2114 1.2005 5.986 1.7444 7.0925.4485 3.5029.6048 8.9484.2794 9.7338-.1168.2818-.0823 1.5424.0766 2.8013.2 1.5842.2059 2.6783.0192 3.5536-.1992.934-.1857 1.4217.0517 1.8652.4251.7943-.0543 1.7913-1.37 2.8492Zm-4.1372 3.9071c-.0145.1935 1.6597-.0107 3.4512-.0107.2882 0 .9585-.3441 1.4895-.7647.866-.6855 1.1368-.7572 2.6268-.6915 0 0 1.1406.1343 3.3835-.6352.45-.1544.3666-1.9296.1188-4.325-.1378-1.3323-.1854-6.1189-.1058-10.6369.1522-8.6329.0212-6.5459-1.8063-13.2716.0946-3.4579.2968-5.5146.9144-9.3905.9093-5.7064 1.0211-7.3788.6812-10.1926-.156-1.291-.321-3.2402-.3667-4.3316-.0458-1.0914-.2199-2.5797-.387-3.3073-.2105-.9164-.3465-5.7742-.2371-7.7584.3066-5.5613.588-10.7188.656-13.0113.0414-1.3928.6018-6.3508.6192-6.0079.0858 1.7002 1.4958 5.6479 1.4885 9.7856-.0087 1.5355.0853 1.3867.2408 3.9188.1109 1.806.2633 4.1171.3386 5.1358.0753 1.0186.1325 2.2093.1271 2.6458-.013 1.0499-.3283 12.353-.3966 14.7182-.0691 2.3949.386 2.6271.7779.3969.1758-1.0003.3158-1.3878.3347-.9261.0581 1.4163.7118 3.1687 1.2192 3.2685.4367.0859.4621-.0808.311-2.0405-.0983-1.2753-.0617-2.1975.091-2.2919.1512-.0935.2555.3795.2555 1.159 0 .7243.0723 1.5052.1606 1.7354.1902.4957.8932.5637.9081.0878.0057-.1819.0776-1.2275.1599-2.3237.115-1.5323.0468-2.2356-.295-3.0427-.2649-.6255-.4944-2.0656-.5678-3.5633-.2244-4.1283-1.3547-6.3002-.5064-10.4244-.3585-1.1911-.0302-17.6969-.496-19.3514.1174-.692.7314-1.2199-.1684-3.9269-.711-2.1389-2.5862-.8389-4.1261-1.7116-1.627-.9221-1.2684-.593-2.3239-2.018.1332-.5746-.1071-3.1848-.1036-3.7477.3334-2.0201 2.8773-2.7128 3.2557-6.6875.1263-1.3267.2001-3.7187-2.0924-5.5677-1.3899-1.121-4.8259-1.6733-7.3082 1.2699-1.6888 2.0024-1.3554 6.296-.7455 9.5123.3294 1.7367 1.6675 1.2116 2.7572 1.2678.4445 1.1944.6323 4.0713-.1328 4.9625-2.6175 1.1142-1.1324.3663-2.5767.9708-.9234.3865-3.7718 1.007-4.2042 2.0418-.4975 1.1907-.8381 3.3353-.2923 3.6408-.0691 1.463.1131 4.5863-.5181 8.2441-.345 1.9995-.3776 2.7193-.1436 3.175.1664.3241.2632.7679.2151.9862s-.1594.6945-.2474 1.0583c-.7291 3.0147-.4606 5.1025-1.0073 6.936-.1057.3547-.4506.4321-.6192 3.5695-.2431 4.523-.4566 6.031-.854 6.031-.5054 0-.6158.2491-.6548 1.4774-.0204.6426-.1504 1.3895-.2889 1.6598-.1629.3179-.157.5862.0166.7599.1476.1476.2046.4348.1265.6382-.2854.7437.2186 3.7844.7277 4.3906.7806.9296 1.0545.1936.9773-2.6269-.0447-1.6341.0388-2.5383.2546-2.7553.252-.2535.2927-.1286.1888.5802-.0728.4968-.0066 1.0818.1469 1.3001.2425.3447.3307.3293.6711-.1167.2155-.2828.3918-.4075.3918-.2778 0 .1297.1228.113.2729-.0371.1501-.1501.3215-1.2376.3809-2.4167.0594-1.1791.3507-3.3126.6472-4.741s.5866-3.2519.6445-4.0523c.0579-.8004.1877-1.6513.2884-1.891.1007-.2397.15-.5969.1097-.7937-.0404-.1969.0543-.5961.2103-.8871.3531-.6588.9472-8.5411.8809-11.6869-.0677-3.2083.9747-8.3105 1.1026-7.5017.14.8854.3874 3.8694.4878 6.224.2414 5.662.4661 7.8922-.1691 10.8078-.2878 1.3211-.3556 2.4368-.3812 4.7953-.0319 2.9445-1.2958 5.6208-1.7536 7.505-1.0998 4.5274-6.187 21.3624-7.1703 25.2297 1.4258 4.2452 2.5513 8.682 3.3065 11.8168.7678 3.1874.9659 7.6435 2.6075 10.5754.3032 1.0999.2904 1.1542-.3274 1.3891-.3536.1344-.7244.245-.8241.2457-.5117.0035-3.3792 1.3434-3.6409 1.7013-.1666.2278-.4315.4142-.5888.4142-.4582 0-.6527.5218-.3364.9028.224.2699.579.2918 1.5441.0954.6893-.1403 2.4141-.333 3.833-.4283 2.3656-.1588 2.9954-.0644 2.3267.349-.1392.086-.1906.3191-.1143.518.0763.1989.0116.4402-.1438.5363-.4402.2721-.3356.8869.2963 1.7417Z" x="0" y="0" style="fill: rgba(96, 96, 96, 0.498); stroke: none;"></path></g><rect x="0" y="0" rx="5pt" ry="5pt" width="313.5" height="391.875" style="fill: none; stroke: rgb(16, 16, 16); stroke-width: 1pt;"></rect><g><text x="156.75" y="-18.287499999999998" dy="10" style="text-anchor: middle; font-family: Khand; font-size: 29.26px; fill: rgb(17, 17, 17); stroke: rgb(136, 136, 136); stroke-width: 0.5pt;">Homid</text></g><text x="10pt" y="182.87499999999997pt" style="fill: rgb(34, 34, 34); stroke: rgba(160, 160, 160, 0.498); stroke-width: 0.5pt; font-family: Syne Mono; text-anchor: start; font-size: 19.019pt;">STR 2</text><text x="10pt" y="201.89399999999998pt" style="fill: rgb(34, 34, 34); stroke: rgba(160, 160, 160, 0.498); stroke-width: 0.5pt; font-family: Syne Mono; text-anchor: start; font-size: 19.019pt;">DEX 3</text><text x="10pt" y="220.91299999999995pt" style="fill: rgb(34, 34, 34); stroke: rgba(160, 160, 160, 0.498); stroke-width: 0.5pt; font-family: Syne Mono; text-anchor: start; font-size: 19.019pt;">STA 2</text><text x="10pt" y="239.93199999999996pt" style="fill: rgb(34, 34, 34); stroke: rgba(160, 160, 160, 0.498); stroke-width: 0.5pt; font-family: Syne Mono; text-anchor: start; font-size: 19.019pt;">CHA 2</text><text x="10pt" y="258.95099999999996pt" style="fill: rgb(34, 34, 34); stroke: rgba(160, 160, 160, 0.498); stroke-width: 0.5pt; font-family: Syne Mono; text-anchor: start; font-size: 19.019pt;">MAN 4</text><text x="10pt" y="277.96999999999997pt" style="fill: rgb(34, 34, 34); stroke: rgba(160, 160, 160, 0.498); stroke-width: 0.5pt; font-family: Syne Mono; text-anchor: start; font-size: 19.019pt;">APP 2</text><text x="293.90625" y="274.31249999999994pt" style="fill: rgb(34, 34, 34); stroke: rgba(160, 160, 160, 0.498); stroke-width: 0.5pt; font-family: Gochi Hand; text-anchor: end; font-size: 19.019pt;">Diff.:6</text><text x="156.75" y="146.29999999999998" style="fill: rgb(34, 34, 34); stroke: rgba(160, 160, 160, 0.498); stroke-width: 1pt; font-family: Gochi Hand; text-anchor: middle; font-size: 19.019pt;"></text></g><g class="form_group" transform="translate(450.65625,2121.35)"><g transform="translate(78.375,585.1999999999999)scale(2)"><path d="M74.5169-215.1726c-.3679.8367-.7946 1.5214-.9481 1.5214-.6255 0-2.288-2.0642-2.7744-3.4447-.8252-2.3422-2.1047-4.9969-3.5596-7.3854-.7475-1.2271-1.4832-2.6922-1.635-3.2558-.2659-.9875-.2286-1.089 1.0278-2.796.717-.9742 1.4851-2.1287 1.7069-2.5656.2217-.4369.6591-1.026.9718-1.309.3128-.2831.8073-.9376 1.099-1.4546.574-1.0174 1.0619-1.8641 1.3569-1.5489.3453.369 3.1076 9.6129 3.399 12.7798.1607 1.7462.4476 4.0084.6377 5.0271.3175 1.7019.3067 1.895-.1337 2.3812-.2636.291-.7803 1.2138-1.1482 2.0505Zm23.6084 17.1979c.0193 1.4188-.0281 2.5797-.1054 2.5797-.3368 0-.3828-.818-.1639-2.9152l.2342-2.2441.0352 2.5797ZM91.673-143.7114c.6272.6273 4.4383.4527 6.0244-.276 1.4733-.6768 1.6028-1.2489.3969-1.7537-.9409-.3939-2.8443-2.3458-2.8443-2.9168 0-.1967-.4757-1.2977-1.0572-2.4466-.5815-1.1489-1.0577-2.2973-1.0583-2.552s-.134-.463-.2963-.463c-.4845 0-.045-10.2221.4735-11.0135.3387-.517.3518-.7617.0788-1.4836-.3502-.9261-1.0327-6.9934-1.1538-10.2571-.0405-1.0914-.2813-3.2345-.5351-4.7625-.2538-1.528-.4925-4.0094-.5304-5.5142-.0379-1.5048-.1899-2.8145-.3378-2.9104-.1518-.0984-.3615-2.2476-.4816-4.9368-.22-4.9243-.2314-6.3435-.1004-12.5016.075-3.5254-.2974-6.6403-.8841-7.3962-.136-.1752-.1726-1.0087-.0813-1.8521.0913-.8434.2161-4.1529.2773-7.3543.1498-7.8313 1.5437-12.8005 1.5715-13.5342.0285-.7454 2.1603 3.478 2.836 5.1226.1669.4063.375 1.2745.4623 1.9293.1222.9164.265 1.1822.6202 1.1539.3475-.0277.4628.1682.4673.7937.0116 1.6191.2716 5.6342.5593 8.6357.3184 3.322.0736 5.936-.7332 7.8291-.6601 1.5489-.6736 3.4845-.0275 3.937.5462.3826.4221.9339-.2102.9339-.206 0-.5537.3274-.7727.7276-.6042 1.1038-1.4235 1.9766-1.6969 1.8076-.2883-.1782-.5643.4429-.5643 1.2699 0 .3228-.1239.7108-.2752.8622-.3336.3336-.5457 4.6502-.2518 5.1257.3327.5383.9901.1058 1.1845-.7794.098-.4464.3358-.8116.5282-.8116.1925 0 .4719-.3499.621-.7775.2101-.6027.1862-.8479-.1064-1.0907-.4822-.4002-.491-.8778-.0128-.6943.2005.077.4748.0297.6095-.105.1501-.1501.4441-.0942.7598.1446.2895.2189.3701.3929.1842.3979-.2478.0063-.3307.9002-.3307 3.5631 0 3.7425.2286 4.912.96 4.912.3992 0 .4275-.3064.2808-3.0427-.0897-1.6735-.0629-3.0427.0594-3.0427.2737 0 .8518.6692.7067.8181-.0578.0594-.1701.5245-.2496 1.0337-.1666 1.0675.4411 2.2437 1.0405 2.0137.2616-.1004.3772.0488.3772.4868 0 .9246.2669 1.4685.7206 1.4685.2818 0 .3627-.1919.2747-.6522-.0686-.3587-.0281-.6861.09-.7276.2998-.1053.8394-3.7855.7134-4.8652-.0572-.4897-.0025-.9242.1216-.9655.3212-.1071.3152-1.7314-.011-2.9759-.1526-.5821-.4183-2.0263-.5905-3.2094-.2547-1.7498-.2472-2.268.0402-2.7781.4826-.8567.7058-17.1636.2349-17.1636-.1853 0-.1364-.1724.1222-.431.2483-.2485.357-.6126.2563-.8599-.6126-1.5042-1.448-5.1602-1.229-5.3792.335-.335-1.23-4.7-2.7311-7.6175-.6364-1.2369-1.3436-2.9257-1.5714-3.7529-.3914-1.421-1.3341-2.597-2.0819-2.597-1.1235-.364-1.4839.2602-2.279.1431-.1943-.0286-1.7883.0105-3.5702-.2192l-2.3453-.3024-1.5725-2.3663c-.3593-.5407-.2748-1.0016.0355-1.9987.511-1.6417 1.5217 1.0736 3.0373-6.7052.3321-1.7043.2185-2.1058.1074-3.5002-.15-1.8828-.6632-1.8089-1.1131-3.4357-.8163-1.7033-1.8878-1.6977-2.9576-2.1608-1.1925-.5167-2.6634-.2868-4.0423.2329-2.6581 1.0458-3.3724 2.8549-3.4791 5.437-.1442 3.4906.5457 4.6209 1.8282 8.2365.9578 2.7003 2.1519 1.4759 2.1698 2.5371l.0278 1.6503c.0163.9656-.4548 1.3154-1.2563 1.9973l-1.2747.6656c-.2811.1468-1.3632.2345-1.6841.0341-.3791-.2367-.9691-.2095-2.5945.1198-2.4774.5019-3.323 1.2522-3.8399 3.4066-.3518 1.4663-.6454 1.9781-3.2154 5.6048-.9771 1.3788-2.1345 3.2161-2.572 4.0829-.6552 1.2979-.8903 1.5512-1.3324 1.4356-.3479-.091-.5339-.0131-.5284.2212.0104.4474.6282 1.2876.9468 1.2876.1295 0 .2354.9838.2354 2.1861 0 2.1372.0296 2.2381 1.3229 4.5091.7276 1.2776 1.9424 3.1216 2.6996 4.0977 2.1528 2.7753 4.0563 5.5682 4.4701 6.5585.39.9335.7309 1.1282 1.0555.6029.1038-.1679.3976.3799.6617 1.2335.4266 1.3787.435 1.6129.0828 2.2941-.2158.4173-.3163.8817-.2233 1.0321.093.1504-.0067.4744-.2214.7198-.2147.2455-.4711 1.0068-.5696 1.6918-.1554 1.0803-.1071 1.2905.3645 1.585.299.1867.5437.5528.5437.8134 0 .2606.1786.5423.3969.6261.2705.1038.3969.5272.3969 1.3301 0 1.477.5088 4.8366.822 5.4283.1296.2447.2961 1.9239.3701 3.7314.074 1.8075.3027 4.4053.5083 5.7727.2056 1.3675.3243 3.3197.2638 4.3384-.0605 1.0187-.1135 2.7037-.1179 3.7446-.0059 1.418-.1057 1.9301-.3979 2.0422-.2703.1037-.39.5482-.39 1.4486 0 .7144-.1933 1.7599-.4296 2.3234-.3554.8477-.4022 1.6408-.2707 4.5964.3818 8.5867.7437 11.3326 1.7958 13.626.7163 1.5614.9086 3.9268.3806 4.6807-.2018.2882-.4337.4023-.5231.2577-.2372-.3839-2.6681.3247-3.8916 1.1343-1.4057.9303-1.4198 1.8236-.038 2.4139 1.1937.51 2.9766.7326 2.9766.3717 0-.1427.3274-.2627.7276-.2657.4002-.0035 1.6702-.2814 2.8222-.6176 1.6263-.4747 2.144-.7449 2.3156-1.2088.2574-.6959.0555-1.1631-.3936-.9109-.2107.1183-.2047.0594.0183-.1809.1819-.196.3307-.5277.3307-.7372s.2084-.5409.463-.7365c.4341-.3333.4279-.3655-.099-.5143-.5363-.1515-.5688-.3608-.7087-4.5684-.0807-2.4253-.1994-4.6477-.2639-4.9388-.0645-.291-.029-.6482.0787-.7937.8475-1.1443.9524-5.3785.2361-9.525-.4094-2.37-.6057-10.283-.2496-10.0629.1903.1176.2743-.2061.2505-.9655-.065-2.0763.9316-12.5419 1.2804-13.4456.0843-.2183.1763-.7541.2045-1.1906.0282-.4366.2164-1.4188.4182-2.1828.326-1.2339.4453-1.3891 1.0681-1.3891.5544 0 .7305.1523.8417.7276.0773.4002.2615 1.1443.4092 1.6536.6532 2.2514 1.0704 4.0466 1.6224 6.9822.3254 1.7302.7709 3.5749.99 4.0994.6602 1.5801 1.1042 5.1079 1.1446 9.095.021 2.0725.1409 3.8937.2663 4.047.2059.2517.007 3.0843-.4315 6.1465-.1101.7689-.048 1.2714.1932 1.5619.1955.2355.3706 1.0351.389 1.7768s.4002 2.404.8484 3.694c.451 1.2979.9546 3.4972 1.1275 4.9242l.3125 2.5787-.8302 1.7572c-.4566.9665-.8302 1.9117-.8302 2.1005 0 .1888-.1325.4758-.2944.6377-.4286.4286-.1385.7475 1.9024 2.0921 1.0074.6637 1.8316 1.3065 1.8316 1.4284 0 .122.1763.398.3917.6135Z" x="0" y="0" style="fill: rgba(96, 96, 96, 0.498); stroke: none;"></path></g><rect x="0" y="0" rx="5pt" ry="5pt" width="313.5" height="391.875" style="fill: none; stroke: rgb(16, 16, 16); stroke-width: 1pt;"></rect><g><text x="156.75" y="-18.287499999999998" dy="10" style="text-anchor: middle; font-family: Khand; font-size: 29.26px; fill: rgb(17, 17, 17); stroke: rgb(136, 136, 136); stroke-width: 0.5pt;">Glabro</text></g><text x="10pt" y="182.87499999999997pt" style="fill: rgb(34, 34, 34); stroke: rgba(160, 160, 160, 0.498); stroke-width: 0.5pt; font-family: Syne Mono; text-anchor: start; font-size: 19.019pt;">STR 4</text><text x="10pt" y="201.89399999999998pt" style="fill: rgb(34, 34, 34); stroke: rgba(160, 160, 160, 0.498); stroke-width: 0.5pt; font-family: Syne Mono; text-anchor: start; font-size: 19.019pt;">DEX 3</text><text x="10pt" y="220.91299999999995pt" style="fill: rgb(34, 34, 34); stroke: rgba(160, 160, 160, 0.498); stroke-width: 0.5pt; font-family: Syne Mono; text-anchor: start; font-size: 19.019pt;">STA 4</text><text x="10pt" y="239.93199999999996pt" style="fill: rgb(34, 34, 34); stroke: rgba(160, 160, 160, 0.498); stroke-width: 0.5pt; font-family: Syne Mono; text-anchor: start; font-size: 19.019pt;">CHA 2</text><text x="10pt" y="258.95099999999996pt" style="fill: rgb(34, 34, 34); stroke: rgba(160, 160, 160, 0.498); stroke-width: 0.5pt; font-family: Syne Mono; text-anchor: start; font-size: 19.019pt;">MAN 3</text><text x="10pt" y="277.96999999999997pt" style="fill: rgb(34, 34, 34); stroke: rgba(160, 160, 160, 0.498); stroke-width: 0.5pt; font-family: Syne Mono; text-anchor: start; font-size: 19.019pt;">APP 1</text><text x="293.90625" y="274.31249999999994pt" style="fill: rgb(34, 34, 34); stroke: rgba(160, 160, 160, 0.498); stroke-width: 0.5pt; font-family: Gochi Hand; text-anchor: end; font-size: 19.019pt;">Diff.:7</text><text x="156.75" y="146.29999999999998" style="fill: rgb(34, 34, 34); stroke: rgba(160, 160, 160, 0.498); stroke-width: 1pt; font-family: Gochi Hand; text-anchor: middle; font-size: 19.019pt;"></text></g><g class="form_group" transform="translate(783.75,2121.35)"><g transform="translate(0,-292.59999999999997)scale(2)"><path d="M109.8946 302.9398c-.0855-.2228-.0809-.7778.0102-1.2334l.1657-.8284-.5973.5058c-.3285.2782-.6949.6589-.8142.8461-.125.1961-.6297.3166-1.1906.2843-.5355-.0309-1.2337.0839-1.5516.255-.7493.4033-2.3781.4008-2.6283-.004-.1073-.1736-.0414-.3662.1467-.4289.1878-.0626.5363-.3484.7745-.6351.44-.5298 1.5773-1.1279 1.974-1.0383.12.0271.1427-.0727.0505-.2219-.2586-.4184-2.3292-.3206-2.9883.1411-.3237.2267-.7074.3388-.8526.249-.3678-.2273-.33-.8573.0666-1.111.1819-.1164.3307-.4497.3307-.7407 0-.4286.1634-.5217.8599-.4902.8189.0371.8602-.007.8673-.926.0106-1.3847.7-2.2271 4.4606-5.4508l.6316-.5414-.1366.7523c-.1119.6163-.0757.6881.2002.3969.4537-.4788.6887-3.2613.3076-3.6424-.2161-.2161-.1782-.5217.1428-1.1496.5015-.981.993-7.6372 1.128-15.275.045-2.5466.1139-4.7493.1531-4.8948.1629-.6046-.3532-1.7484-.7246-1.6058-.4501.1727-1.6217-1.0114-1.8328-1.8525-.2254-.8979-2.4852-1.1214-2.4852-.2459 0 .1871.1861.4117.4136.499.2275.0873.3319.2909.2321.4525-.2006.3247-3.3695.0899-4.1102-.3045-.3111-.1657-.6897.0497-1.4428.821-.5615.5751-1.1669 1.0456-1.3453 1.0456-.1784 0-.7607-.4115-1.2939-.9144-.5725-.5399-1.5314-1.0778-2.3413-1.3132-1.4801-.4303-2.5989-1.398-3.0762-2.6608-.1637-.4331-.4115-2.9334-.5508-5.5562-.1392-2.6228-.4261-5.6617-.6375-6.7531-.2114-1.0914-.4626-2.6591-.5582-3.4837-.134-1.1552-.2876-1.5291-.6692-1.6289-.3749-.098-.4953-.375-.4953-1.1394V242.108l-1.7859 1.7314c-2.1979 2.1307-5.461 4.4604-8.851 6.3188l-2.5671 1.4074 2.0811 1.0376c2.9012 1.4465 4.8978 3.475 3.9791 4.0428-.4656.2877-.2832.926.2646.926.291 0 .5292.1424.5292.3165s.309.7624.6867 1.3074c.4101.5918.6038 1.125.4809 1.3238-.3991.6457-.2879 1.697.3172 2.9991.5963 1.283.5994 1.3301.1231 1.8521-.2688.2946-.57.8034-.6693 1.1309-.0993.3274-.3412.5953-.5375.5953-.1963 0-.4184.1488-.4935.3307-.0823.1992-.2093.0908-.3196-.2727-.1764-.5815-.2212-.5623-1.2334.5292-.5777.6229-1.5614 2.2041-2.1861 3.5138-1.0959 2.2978-2.8162 6.8356-2.7374 7.2207.0211.1032-.0384.3662-.1323.5845-.0939.2183-.2667.8722-.3841 1.4531-.1262.6243-.4252 1.1669-.7312 1.3269-.2848.1489-1.0335.7749-1.6638 1.3912-.6303.6163-1.2852 1.1223-1.4552 1.1245-.1974.003-.1789.0866.0514.2324.2634.1669-.3752.7716-2.3706 2.2449-1.5021 1.1091-2.6282 2.0165-2.5026 2.0165s.9956-.429 1.9332-.9533c1.0855-.6071 1.7967-.8614 1.9579-.7001.2752.2752-2.308 1.9156-5.0836 3.2283-2.1341 1.0093-2.608 1.4633-2.4911 2.3866.0909.7184.0444.7504-1.3449.9239-.7915.0989-2.0641.1128-2.8281.0308-3.769-.4041-4.1161-.4039-4.272.002-.1942.506-1.5261 1.0507-3.1363 1.2827-1.0219.1472-1.2568.1068-1.2568-.2164 0-.2186.1191-.471.2646-.561.525-.3245.2491-.6236-.4571-.4956-.3969.072-.7729.1821-.8356.2448-.0626.0627-.2693-.015-.4592-.1726-.2811-.2333-.2622-.4172.1018-.9899.2459-.3868.5689-.7908.7178-.8977.316-.2269-.0411-.2709-1.6711-.2056-.9824.0393-1.1347-.0239-1.0559-.4385.0571-.3004.5436-.6403 1.2803-.8946 1.3999-.4832 2.8496-1.1799 4.4955-2.1604 1.2031-.7167 3.8354-1.5306 4.9504-1.5306.4295 0 .6059.154.6059.5292 0 .7547.5168.6565 1.7257-.3278.5789-.4713 1.1715-.9527 1.3171-1.0697.1455-.117.9009-.615 1.6786-1.1067.8264-.5224 2.7043-2.3222 4.5188-4.3307 3.6063-3.992 4.9421-6.3254 5.9716-10.4318.3561-1.4202.7766-2.8237.9346-3.1189.158-.2952.2162-.7603.1295-1.0336-.2006-.6319.283-.9555.5949-.3981.174.3109.3795-.0781.7964-1.5073.3091-1.0595.5263-1.962.4827-2.0056-.0436-.0436-.9007.0365-1.9046.178-1.004.1415-3.1946.2859-4.8681.3208-2.8312.0591-3.1457.0139-4.5252-.6503-1.6982-.8177-5.2644-4.3674-5.2644-5.24 0-.2937-.1139-.7469-.2532-1.0071-.2078-.3882-.3782-1.2785-.5217-2.7249-.0104-.1046-.1975-.1216-.4157-.0378-.6549.2513-.4633-.3758.8906-2.9143 1.1058-2.0735 1.3527-2.8246 1.75-5.3244.5854-3.6835 1.7876-6.261 2.56-5.4886.1698.1698.1207.5922-.1418 1.2205-.703 1.6825.0207 1.0353 1.3395-1.1978 2.6004-4.4035 5.9865-7.1426 10.26-8.2993 1.5592-.4221 1.7136-.5326 2.1603-1.5467.2646-.6007.8083-1.6567 1.2081-2.3468.6869-1.1854.7172-1.3752.5496-3.4396-.0976-1.2017-.2217-1.9766-.2759-1.7219-.0541.2547-.1949.463-.3127.463-.3017 0-.5301-.9844-.5526-2.3812-.0142-.8797-.3804-1.9162-1.4024-3.9688-.7608-1.528-1.5277-2.7484-1.7042-2.712-.1766.0364-.321-.1007-.321-.3046 0-.483-1.8389-1.5982-2.4842-1.5066-.3843.0546-.4675-.0527-.36-.464.1472-.5627-.2865-.8863-1.2568-.9379-.3717-.0198-.5062-.1856-.452-.5573.0632-.4334.029-.4573-.1888-.1323-.5636.8411-1.4336.3183-1.1763-.7069.1216-.4846.0551-.5555-.4079-.4344-.4489.1174-.5532.0237-.5532-.4971 0-.353-.1681-.8717-.3736-1.1527-.411-.562-.3047-.7033-1.2135 1.6121-.1453.3702-.4132.6538-.5953.6301-.7398-.0961-.9925.046-.9925.5582 0 1.0502-2.5196 4.0072-5.1295 6.0199-1.2249.9447-1.716 1.5505-2.299 2.8362-.4077.8993-1.1522 2.1732-1.6543 2.831-.5021.6578-.9931 1.4801-1.0911 1.8274-.098.3473-.316.9106-.4844 1.2519-.2776.5626-.1945.7232.8896 1.7198.6577.6046 1.5955 1.3128 2.084 1.5737.5798.3097.7983.5645.6291.7337-.4087.4087-2.0555-.4125-3.3887-1.6898-.6529-.6256-1.2334-1.0112-1.29-.857-.0566.1542.1952.526.5596.8263.5709.4704.6197.6261.353 1.1245-.1735.3243-.5639.5785-.8883.5785h-.5787l.6103.4275c1.0041.7033.2707.9745-1.0424.3855-.9255-.4151-1.5017-.492-2.7575-.368-.8731.0862-1.7287.2678-1.9013.4034-.4379.3441-1.2381-.1345-2.0881-1.2489-.387-.5074-.8447-.9225-1.0171-.9225-.1724 0-.5723-.4465-.8886-.9922-.4949-.8538-.5759-.9067-.5812-.3795-.0159 1.6002-1.1429 2.0274-1.4661.5558-.0932-.4244-.2791-.7716-.413-.7716-.134 0-.2436.0654-.2436.1454 0 .3545.7889 1.6203 1.2958 2.079.3059.2769.5563.604.5563.727 0 .4432-.6475.2092-1.3948-.504l-.7623-.7276.1958.7937c.1077.4366.3549 1.1769.5494 1.6452.4038.9724.4638 1.9267.1211 1.9267-.2156 0-.4138-.4236-1.0834-2.3151-.1417-.4002-.5701-2.0373-.9522-3.638s-.8615-3.1741-1.0654-3.4964c-.2039-.3223-.3707-.756-.3707-.9639s-.1857-.4491-.4127-.5362c-.3614-.1387-.3875.0797-.2104 1.7576.2771 2.6246.2701 3.3456-.0329 3.4307-.1425.04-.4152-.9988-.6058-2.3085-.3459-2.3761-.2576-4.101.2098-4.101.1419 0 .1253-.267-.039-.6276-.1573-.3452-.4821-.613-.7219-.5953-.313.0231-.5708-.4157-.9138-1.5553-1.9701-6.5458-3.2091-9.7702-4.0973-10.6626-.4888-.4912-1.1541-1.9399-1.6646-3.6249-.1763-.5821-1.1334-2.7432-2.1267-4.8024-1.9213-3.9829-2.4426-5.6448-2.1811-6.9526.0912-.4559.0329-.9672-.133-1.1671-.1624-.1957-.207-.444-.0991-.5519.1079-.1079.1961-2.4782.1961-5.2673v-5.0711l.9081-2.3151c.8447-2.1534 1.3263-2.7162 1.7449-2.0389.0939.1519.0364.438-.1277.6357-.2131.2568-.2158.3871-.0096.4558.1989.0663.1725.3729-.0846.9845-.3235.7695-.3217.992.0137 1.6643.213.4269.3267 1.0074.2528 1.2899-.1297.4958.1926.8923.742.9131.3089.0117.1961.9175-.1698 1.363-.2495.3037-.1987 1.0925.3419 5.3159.1853 1.4479.3931 2.1828.6171 2.1828.3164 0 .5629-3.3401.4428-5.9988-.0761-1.6861.9713-5.8244 1.8416-7.2759 1.6806-2.803 2.4941-2.6176 1.6512.3763-.1649.5857.5778.6315.8012.0494.0873-.2275.2651-.3479.3952-.2675.1301.0804.3836-.0311.5634-.2478.4324-.521 1.1604-.5188.9602.003-.0838.2183-.0265.3969.1272.3969.1809 0 .2145.3849.0952 1.0911-.1328.7863-.0857 1.152.1688 1.3093.2798.1729.2244.3925-.2667 1.0567-.7153.9674-2.0002 6.6956-1.6445 7.3311.148.2645.2718.0235.3956-.7699.0991-.6351.5225-2.1668.9408-3.4038.4183-1.2369.8315-2.6702.9182-3.185.1123-.6668.3861-1.071.952-1.4052.7472-.4414.8047-.4423.9684-.0157.0957.2495.0273.9414-.1521 1.5376-1.0393 3.4542-1.3884 8.7086-.6532 9.8306.2693.411.42 1.16.4012 1.9941-.0194.8608.1565 1.7017.4947 2.3646.2887.5658.5248 1.2659.5248 1.5558 0 .5445 2.2864 4.0393 2.77 4.2341.5458.2198 1.6729 1.6196 1.8399 2.285.1981.7893 3.6192 5.775 5.1649 7.527l1.0504 1.1906.0113-.8687c.0214-1.6453 1.683-4.1922 3.7804-5.7944.6171-.4714.8624-1.0948 1.6302-4.1431.4971-1.9735.983-3.7163 1.0797-3.8728.3982-.6443 1.1632-5.9768 1.0138-7.0667l-.158-1.1527L57.51 189.441c-.6346 1.2432-1.1538 2.4587-1.1538 2.7009 0 .2422-.2267.6862-.5038.9866-.6756.7324-1.187 2.5536-.6604 2.3516.5049-.1938.4687.2973-.054.7311-.2334.1937-.5281.625-.6549.9584-.2368.6228-.7727.8383-.7727.3107 0-.1628-.2319-.2348-.5165-.1604-.2841.0743-2.1574 1.7251-3.0052 1.8841-.5088.0954-.9924.3489-1.0746.5632-.1926.5019-.8039.4996-1.2224-.005-.2071-.2495-.559-.3362-.9584-.2359-.3726.0935-.6312.0417-.6312-.1266 0-.1567-.1542-.2258-.3426-.1535-.3995.1533-1.5094-1.0272-1.5094-1.6053 0-.5472.6938-.4966.9342.0682.1694.398.2232.3701.3836-.1984.1026-.3638.0948-.8461-.0175-1.0718-.2623-.5273.5092-2.897.9432-2.897.4108 0 .706-2.2868.4944-3.8305-.0902-.6581-.0413-1.1967.1176-1.2949.3243-.2004-.3546-3.424-.7501-3.5617-.381-.1326-.3047-.8379.0906-.8379.1892 0 .4868.1429.6615.3175.2469.2469.3172.1735.316-.3307-.0022-.9786-.4981-2.5652-.9398-3.0069-.2157-.2157-.3915-.7257-.3908-1.1334.0008-.4077-.0698-1.3247-.1569-2.0378-.1396-1.1441-.1056-1.2763.2894-1.1248.4033.1548.4411-.0705.3819-2.2754-.0362-1.3459-.3466-3.8759-.6899-5.6221-.5046-2.5666-.5638-3.2884-.3092-3.7669.242-.4547.2432-.8316.0052-1.6259-.1704-.5687-.2419-1.2111-.1588-1.4275.083-.2164-.0445-1.0921-.2834-1.9459-.7391-2.6412-.7513-2.7431-.3287-2.7431.2266 0 .8485.9412 1.4861 2.249 2.8073 5.7582 3.2828 6.6654 3.8793 7.4008l.6377.7862.7764-.7438c.427-.4091.9809-1.2987 1.231-1.9768s.9637-2.4832 1.586-4.0111c.6223-1.528 1.2653-3.552 1.4289-4.4979.6593-3.8114.8599-4.6353 1.2275-5.0415.2111-.2333.3838-.7422.3838-1.1309s.1357-.7068.3016-.7068c.1659 0 .4613-.2084.6564-.463.3102-.4048.3883-.4131.6204-.0661.1461.2183.2674.61.2696.8704.0022.2605.2287.9153.5034 1.4552.2746.5399.9442 2.2913 1.4879 3.8921s1.1504 3.228 1.3482 3.6161l.3597.7057.7946-.7422c.9292-.868 1.9387-1.1843 2.6183-.8206.3844.2057.8532-.009 2.3047-1.0536 1.0022-.7215 1.936-1.2739 2.0752-1.2275.5554.1851.378.6146-.4398 1.0649-1.2869.7084-2.9172 2.2185-2.604 2.412.2901.1793 1.0429-.2475 2.8872-1.6371 1.3162-.9917 2.0235-1.0876 2.4292-.3294.2245.4195.1983.5665-.123.6898-.8876.3406-.3201.5184 1.4438.4523 1.0309-.0386 1.8521.0411 1.8521.1798 0 .137-.4465.4848-.9922.7729l-.9922.5238.7938.005c.4366.003 1.2699-.105 1.8519-.2399 1.1876-.2753 1.7311.004 1.2161.6244-.2695.3247-.1999.403.4213.4742.4093.0469 1.6236-.005 2.6986-.1154 2.0002-.2054 2.6757-.013 2.6757.7623 0 .4174-.3072.4747-.6747.1259-.2869-.2723-3.5555.1552-3.9299.5139-.135.1293-.4603.1105-.7476-.0433-.4544-.2432-.478-.215-.2215.2643.2714.5072.3468.5155 1.3762.1523 1.3678-.4826 3.6772-.4973 4.3197-.0275.5871.4293.3097 1.0585-.3366.7638-.2458-.1121-1.1613-.1422-2.0345-.0669l-1.5875.137 1.8226.1919c1.4696.1547 1.904.3085 2.2427.7937.231.331.6908.8536 1.0217 1.1613.3309.3077.6016.6693.6016.8036s.2679.264.5953.2884c.3274.0244.8117.3109 1.0761.6368.4441.5472.5451.5651 1.3229.2351 1.2023-.5103 3.3636-.6189 4.1494-.2087.3638.19.907.8184 1.2072 1.3966.5408 1.0417.5624 1.0526 2.3812 1.2034 2.6666.2211 4.671.8963 6.0376 2.0339.6535.5439 1.1957 1.1002 1.2049 1.2362.009.136.266.7617.5704 1.3906.6436 1.3296 1.2909 3.6234 1.2954 4.5909.002.4461.408 1.0697 1.2055 1.8521.6613.6488 1.6873 1.9237 2.28 2.8332.5927.9095 1.2125 1.6576 1.3774 1.6625 1.1752.0345 4.6197 5.3536 5.0916 7.8625.0916.4872.3234.8599.5348.8599.2052 0 .5059.3274.6682.7276.1623.4002.4468 1.0753.6321 1.5003.2272.5208.2579.9808.0942 1.4113-.2043.5374-.1167.7493.5528 1.3368.4376.384.7956.8502.7956 1.0361 0 .5984.4564.36.7462-.3896.1547-.4002.437-1.3088.6274-2.0192.3635-1.3562.9403-1.7106.7848-.4822-.0498.3935-.3299 1.3702-.6225 2.1706-.8817 2.412-.8874 2.591-.0939 2.9525.5422.2471.6732.4568.562.9-.0798.3178.0337.9361.2521 1.374.6235 1.2499-.0125 2.1675-.9163 1.3219-.2907-.272-.3243-.2132-.1888.3307.0906.3638.1663.7508.1683.8599.002.1091.1616.1984.3547.1984.2325 0 .315.2458.2443.7276-.0587.4002.1459 1.9778.4547 3.5057s.6218 4.2069.6956 5.9531c.2008 4.7542.1997 4.7503 1.2972 4.8285 1.0722.0764 1.2309-.36.2645-.7274-.3638-.1383-.6615-.3665-.6615-.507 0-.5465.5528-.5429 1.7319.0113 1.0017.4709 1.2699.5114 1.4504.2193.4419-.7149 3.3542-1.083 5.9458-.7514 3.4065.4359 3.9383.5887 4.2183 1.212.2098.4669.531.5714 2.0136.6552 1.8398.104 1.7921.0813 5.1452 2.4433.7276.5125 1.5313.9361 1.7859.9412.5785.0117.6071.4998.0421.7166-.5156.1978-2.0045-.4883-3.3192-1.5295-1.3447-1.065-3.3338-1.9153-3.886-1.6612-.244.1123-.6126.2115-.8189.2205-.5742.0249-.658.6554-.1098.8269.2668.0835.6636.2429.8819.3543s.9566.2225 1.6408.2469c2.1228.0758 4.3378 1.2615 4.0945 2.1918-.072.2754-.0175.4265.1227.3399.6651-.411 5.0096 2.3762 7.8598 5.0424 1.4229 1.3311 2.1573 2.41 2.1573 3.1695 0 .6455-.7193.4782-.8913-.2073-.1675-.6673-2.2661-3.1926-2.4774-2.9812-.0707.0707.1042.4628.3887.8714.2845.4086.901 1.4712 1.37 2.3615.469.8903 1.1436 1.7743 1.4991 1.9646.4261.228.5977.4991.5036.7955-.1395.4395 1.1057 2.1775 3.3191 4.6325 1.2081 1.34 3.1219 4.586 3.3365 5.6593.0963.4817.0294.9651-.1662 1.2009-.4465.538-.7522.2867-.6027-.4954.1139-.5959-1.4696-3.9072-2.0358-4.2571-.1162-.0718.1176.8192.5196 1.9801.6438 1.8593.7243 2.4497.676 4.9569-.0354 1.8377-.1543 2.8263-.3355 2.7901-.1589-.0317-.4597 1.001-.6934 2.3813-.6484 3.8286-1.0627 5.0688-1.7262 5.1677-.3121.0465-.5674.2549-.5674.463 0 .2082-.1564.3785-.3476.3785-.2591 0-.361-.6446-.4005-2.5337-.031-1.4822-.2-2.8273-.4072-3.2411-.1948-.3891-.5562-1.5291-.8031-2.5333-.2469-1.0043-.6193-2.0692-.8276-2.3666-.3391-.4841-.3614-.3552-.2133 1.2306.1338 1.433.0935 1.7713-.2111 1.7713-.2712 0-.4598-.6111-.6743-2.184-.3431-2.5164-1.2675-4.8065-2.4321-6.025-.446-.4666-.88-1.0429-.9646-1.2807-.0846-.2377-.4942-.7003-.9102-1.0279l-.7564-.5957.3638 1.3894c.2085.7964.5936 1.5444.9022 1.7524.6705.4521.6933.8276.0502.8276-.7517 0-1.2751-.78-1.6423-2.4474-.3514-1.5958-.6202-1.8963-.8636-.9656-.086.3287-.2681.4799-.4458.3701-.1652-.1021-.2319-.3642-.1482-.5825.2228-.5805-.9199-2.4517-1.7636-2.888-.7236-.3742-.7256-.3727-.4201.2977.2291.5028.2307.7499.006.9742-.2243.2243-.3746.105-.5925-.4702-.1606-.4239-.552-1.0502-.8697-1.3918-.6234-.6702-2.5338-1.7443-2.7385-1.5397-.0688.0688.1213.6081.4225 1.1985.6304 1.2358.6824 1.6241.2169 1.6225-.1819-.0006-.7906-.897-1.3528-1.992-.7861-1.5312-1.1001-1.9261-1.3602-1.7103-.2542.2109-.5416.0236-1.158-.7545-.4509-.5693-1.0592-1.0978-1.3518-1.1743-.5427-.1419-.737.1825-.2789.4657.1392.086.1868.329.1059.5399-.1176.3063-.2617.3226-.716.0805-.5069-.27-.5306-.2567-.2178.1226.3997.4846.3258 1.5554-.1175 1.7011-.1626.0535-.3673-.2612-.4549-.6993-.0885-.4427-.729-1.3876-1.4417-2.127-1.1975-1.2424-1.3688-1.3307-2.5878-1.3345-.718-.002-1.4776-.113-1.688-.2461-.234-.1481-.569-.1423-.8626.0148-.3736.2-.618.1079-1.1029-.4153-.3426-.3697-.7582-.6722-.9234-.6722-.1652 0-.3185-.1488-.3407-.3307-.0222-.1819-.0589-.4498-.0817-.5953s-.2904-.6636-.5948-1.1512c-.5251-.8412-.5628-.8571-.7361-.3113-.1261.3973-.04.6796.2784.9124.3191.2333.368.3945.159.5237-.2095.1295-.1426.3577.2186.7454.3354.36.468.7683.3727 1.1478-.0813.324-.0243.6654.1266.7587.151.0933.2074.3444.1254.558-.0953.2484.0144.3884.3045.3884.2944 0 .4001.1392.3012.3969-.0957.2494.003.3969.265.3969.3102 0 .3757.1656.2553.6453-.0891.3549-.0376.7221.1144.816.152.0939.1987.4153.1039.7141-.2254.7102-.319 2.5865-.1291 2.5892.0812.001.2774.2819.4359.6239.2497.539.1704.7542-.5953 1.6147-.4859.546-.8799 1.0689-.8757 1.162.004.0931.3725-.2319.8183-.7223.7403-.8142.8653-.8622 1.4431-.553 1.1132.5958 1.1018 1.3177-.0363 2.3015l-1.0138.8764 1.0225.8428c.5624.4635 1.3894 1.2538 1.8379 1.7561.4485.5023 1.2637 1.3999 1.8115 1.9946.5479.5947 1.0699 1.379 1.16 1.7428.0901.3638.3205.8428.5119 1.0644.2191.2537.262.542.1158.7785-.155.2508-.0846.4878.2118.7131.2898.2203.327.3405.1071.346-.259.006-.2479.1459.0481.6037.5716.884 1.5037 3.3734 1.2631 3.3734-.1147 0-.1357.6619-.0466 1.4708.0965.877.055 1.5368-.1027 1.6343-.1455.09-.311.0245-.3676-.1455-.2085-.6254-.8774.4278-.7059 1.1112.2707 1.0787-.0739 1.7237-.8885 1.6631-.6746-.0502-.7395-.1751-1.1452-2.202-.4615-2.3058-1.5056-4.532-2.3824-5.0795-.478-.2985-.5235-.282-.3901.1418.9864 3.1349.9145 9.1819-.122 10.2546-.2734.283-.5738.4378-.6675.3441-.0937-.0937-.2025-1.429-.2417-2.9672-.0795-3.1167-.7947-5.6117-1.8457-6.4384-.3215-.2529-.7958-1.1121-1.054-1.9095-.2582-.7973-.6389-1.6283-.846-1.8466-.3101-.3269-.3046-.1927.0312.7609.4808 1.3653.5271 3.1401.1092 4.1828-.1642.4096-.2752 1.8462-.2467 3.1922.0347 1.6376-.0447 2.4474-.2398 2.4474-.1979 0-.2337.4363-.1114 1.3579.1458 1.0991.1097 1.3345-.1893 1.235-.2032-.0676-.429-.4108-.5018-.7626-.0728-.3518-.3305-1.0009-.5726-1.4425-.2421-.4416-.5233-1.2453-.6247-1.7859-.1014-.5407-.2815-.983-.4002-.983-.3187 0-1.0483-1.5762-1.0483-2.2648 0-.4482-.1206-.5645-.4863-.4689-.3967.1037-.5906-.1811-1.0526-1.5461l-.5663-1.6733.158 2.9104c.1638 3.0171.1992 3.1749.7125 3.1751.3951.0002.3337 13.4298-.0796 17.396-.54 5.182-1.1404 8.2049-1.6566 8.3399-.5759.1506-.5901.5299-.0593 1.5938.4238.8495.6345.9649 2.3026 1.2605.5457.0967.9922.2817.9922.411 0 .3187-1.3887.2976-2.2619-.0344-.6036-.2295-.6848-.2066-.5464.1539.0894.2329.1625.537.1625.6757 0 .1525.2024.1439.5118-.0216.6344-.3395 1.6049-.3579 1.6049-.0303 0 .134-.3593.3225-.7983.4189-.491.1078-.9364.447-1.157.8809-.3719.7316-.4062 3.1381-.0529 3.7097.4778.7731-1.0284 1.2762-2.0081.6706-.1193-.0738-.2196.0217-.2229.2122-.003.192-.2121.0783-.4686-.2549l-.4627-.6012-.4712.7978c-.2592.4388-.7329.9351-1.0527 1.1029-.3198.1678-.6767.4663-.7931.6634-.2812.4761-.6942.4543-.8865-.0468Zm22.1231-40.9047c-.3493-1.2974-1.9482-4.6425-2.5219-5.2765-.2085-.2304-.3791-.6062-.3791-.835s-.4222-.6651-.9382-.9696l-.9381-.5535.6081.8581c1.5504 2.1879 2.3498 3.794 2.4178 4.8578.0372.5821.3914 1.3324.9758 2.067.5045.6343.9549 1.1184 1.0009 1.0757.0459-.0427-.0554-.5935-.2252-1.2241Zm-17.8379-5.9682c-.219-.9438-.3027-1.0619-.4151-.5858-.271 1.148-.7876.8852-.7876-.4007 0-.667-.0893-1.2118-.1984-1.2108-.1091.001-.5137.4953-.8991 1.0983-.6842 1.0707-.6892 1.1087-.2104 1.6227.4362.4682.5801.489 1.3045.189.9633-.399 1.3014-.1812.8474.5457-.2939.4705-.2785.493.1532.2234.4199-.2622.4456-.4474.2056-1.4819Zm-4.2233-4.3703c.4244-.6248 1.0458-1.4337 1.3809-1.7975.4049-.4395.5707-.8834.4942-1.3229-.2671-1.5343-1.0858-4.3723-1.2849-4.4538-.1185-.0485-.2155-.3139-.2155-.5896 0-.4241-.0919-.4596-.5953-.23-.5778.2635-.5969.3963-.6495 4.5108-.0298 2.3316-.1319 4.484-.2268 4.7831-.25.7877.2031.416 1.0969-.8999Zm13.8685-10.5612c0-.4606-.4707-.2197-.6098.3121-.1168.4466-.0748.4883.2337.2322.2068-.1716.3761-.4166.3761-.5443Zm-.7938-1.3723c0-.2678-.483-.0001-1.2568.6964-.9543.8591-.6856 1.0674.3307.2565.5093-.4064.926-.8352.926-.9529Zm-50.1385-5.9179c2.6276-1.8547 2.9839-2.193 1.4552-1.3814-1.5826.8402-3.6798 2.3777-4.4979 3.2975l-.6615.7437.7938-.5829c.4366-.3206 1.7463-1.2552 2.9104-2.0769Zm5.0877-2.6268c-.0879-.0879-.3161-.0973-.5071-.0209-.2111.0845-.1484.1472.1599.1599.2789.0115.4352-.051.3473-.139Zm31.9761-3.6104c-.0989-.6185-.2878-3.982-.4198-7.4745s-.4713-8.1955-.754-10.451c-.2827-2.2556-.4596-4.1903-.3932-4.2995.0665-.1091.0246-.1989-.0932-.1994-.1177-.0006-.4249-.5138-.6826-1.1405-.3012-.7327-1.3786-2.0482-3.018-3.6849l-2.5495-2.5454-.8332 1.3708c-1.6423 2.7021-1.7824 3.0354-2.8001 6.6625-.9791 3.4895-1.3631 7.9788-1.0601 12.3937.1857 2.7059.268 3.046.9028 3.731.3841.4145.6985.8447.6985.956 0 .1113.5138.4511 1.1419.7551.8333.4034 1.6556.5528 3.0427.5528 1.4843 0 1.9008.0841 1.9008.3837 0 .2111-.1844.4869-.4098.6131-.3196.1788-.203.2928.5292.5175l.939.2882v-1.1376c0-.7412.1316-1.188.3775-1.2824.4397-.1687.6838.0967 1.4195 1.5435.296.5821.7927 1.3278 1.1038 1.6571.3111.3293.4895.722.3965.8726-.2282.3693.0516 1.0422.4334 1.0422.2138 0 .2529-.3431.1279-1.1245Zm-2.991.3201c-.1202-.4597-1.2868-1.3123-1.7956-1.3123-.3189 0 .6411 1.1315 1.2402 1.4618.3376.1861.6324.3501.6551.3643.0228.0143-.0221-.2169-.0998-.5138Zm-59.6051-1.1637c0-.0638-.3572-.507-.7938-.985-.4366-.478-.7938-.7597-.7938-.6261s.3199.5769.711.985c.6989.7295.8765.8564.8765.6261Zm55.7811-.6429c-.3385-.4174-.6655-.7146-.7267-.6604-.112.0991 1.0376 1.4193 1.2359 1.4193.0585 0-.1706-.3415-.5091-.7589Zm7.4755-4.5301c.001-1.6376-.0622-3.0423-.1415-3.1217-.0793-.0793-.1442 1.3242-.1442 3.119 0 1.7947.0637 3.1995.1415 3.1217.0778-.0778.1427-1.4814.1442-3.119Zm10.668-5.9294c-.0992-.968-.2375-1.7027-.3075-1.6328-.0699.0699-.0427.9158.0605 1.8798.1032.9639.2416 1.6987.3075 1.6328.0659-.0659.0386-.9118-.0605-1.8798Zm-1.2358-12.1311c-.3796-1.1289-.6762-.8574-.4335.3969.1196.6185.2346 1.2435.2554 1.3891.0208.1455.1245-.0331.2303-.3969.1058-.3638.0823-.9889-.0523-1.3891Zm-19.6398-4.1672c.0899-.1455.0374-.2646-.1167-.2646-.1541 0-.2802.1191-.2802.2646 0 .1455.0525.2646.1167.2646.0642 0 .1903-.1191.2802-.2646Zm.7978-1.3307c.437-.8451.2947-1.5874-.2081-1.0847-.2462.2462-.4978 1.8862-.2894 1.8862.0456 0 .2695-.3607.4974-.8015Zm16.0033-.9432c0-.5433-.8051-1.7191-1.0665-1.5575-.1181.073-.0166.5969.2257 1.1642.4266.9989.8408 1.1927.8408.3934Zm-2.9877-5.8616c-.639-1.3793-2.7983-4.8291-3.0225-4.8291-.07 0 .1269.387.4373.8599.3105.4729 1.1259 1.8912 1.8119 3.1516 1.3675 2.5124 1.7419 2.9083.7733.8175Zm-9.7067-14.734c-.3179-.9552-.6198-1.7367-.671-1.7367-.0512 0-.0843.387-.0737.8599.0176.783.9934 2.9427 1.2249 2.7112.0537-.0537-.1624-.8792-.4803-1.8344Zm-1.834-3.5444c-.1427-.2666-.4473-.6407-.6768-.8312-.3597-.2985-.3931-.2772-.2421.1541.1536.4385.8306 1.1619 1.0873 1.1619.0501 0-.0257-.2182-.1684-.4848Zm-2.1404-1.3673c.342-.221.335-.257-.0505-.2605-.2461-.002-.521.115-.6109.2605-.207.3348.1433.3348.6615 0Zm-1.5875-.5448c0-.1369-.3204-.249-.712-.249-.6779 0-.6875.0179-.2014.3734.5192.3797.9134.326.9134-.1244Zm-1.6592-.4088c-.0879-.0879-.3161-.0973-.5071-.0209-.2111.0845-.1484.1472.1599.1599.2789.0115.4352-.0511.3473-.139Zm-4.0808-2.2582c-.3903-.3903-.7164-.5036-1.051-.3652-.4235.1753-.3844.2456.3087.554 1.1529.5131 1.3851.454.7423-.1888Zm-7.3587-1.0185c.0927-.15-.0135-.1943-.249-.104-.4584.1759-.5422.3655-.1616.3655.1369 0 .3217-.1177.4106-.2616Zm-1.5856-1.0614c-.0899-.1455-.4612-.2646-.825-.2646-.3736 0-.5903.1151-.4979.2646.0899.1455.4612.2646.825.2646.3736 0 .5903-.1151.4979-.2646Zm-2.5852-.4244c-.0879-.0879-.3161-.0973-.5071-.0209-.2111.0845-.1484.1472.1599.1599.2789.0115.4352-.051.3473-.139Zm2.1222-.8163c-.2547-.0666-.6714-.0666-.926 0-.2547.0665-.0463.121.463.121.5093 0 .7177-.0545.463-.121Zm-3.1089-.4467c0-.0549-.2084-.2633-.463-.463-.4196-.3291-.429-.3197-.0999.0999.3456.4407.5629.5809.5629.3631Zm1.5158-.3245c-.0879-.0879-.3161-.0973-.5071-.0209-.2111.0845-.1484.1472.1599.1599.2789.0115.4352-.0511.3473-.139Zm-6.8792-1.8521c-.0879-.0879-.3161-.0973-.5071-.0209-.2111.0845-.1484.1472.1599.1599.2789.0115.4352-.051.3473-.139Zm-9.3465-3.4993c-.0335-.048-.5773.1901-1.2084.5292-.6311.339-1.1725.6216-1.2031.628-.0306.006.0096.261.0893.5659.1341.5127.2292.472 1.264-.5407.6155-.6023 1.0916-1.1344 1.0581-1.1824Zm7.6322 2.161c-.1819-.0734-.4796-.0734-.6615 0s-.0331.1335.3307.1335c.3638 0 .5126-.06.3307-.1335Zm-2.3494-1.7126c1.543-.8509 1.3089-1.002-.4105-.265-1.1427.4898-2.444 1.588-1.4129 1.1923.2564-.0984 1.0769-.5157 1.8234-.9273Z" x="0" y="0" style="fill: rgba(96, 96, 96, 0.498); stroke: none;"></path></g><rect x="0" y="0" rx="5pt" ry="5pt" width="313.5" height="391.875" style="fill: none; stroke: rgb(16, 16, 16); stroke-width: 1pt;"></rect><g><text x="156.75" y="-18.287499999999998" dy="10" style="text-anchor: middle; font-family: Khand; font-size: 29.26px; fill: rgb(17, 17, 17); stroke: rgb(136, 136, 136); stroke-width: 0.5pt;">Crinos</text></g><text x="10pt" y="182.87499999999997pt" style="fill: rgb(34, 34, 34); stroke: rgba(160, 160, 160, 0.498); stroke-width: 0.5pt; font-family: Syne Mono; text-anchor: start; font-size: 19.019pt;">STR 6</text><text x="10pt" y="201.89399999999998pt" style="fill: rgb(34, 34, 34); stroke: rgba(160, 160, 160, 0.498); stroke-width: 0.5pt; font-family: Syne Mono; text-anchor: start; font-size: 19.019pt;">DEX 4</text><text x="10pt" y="220.91299999999995pt" style="fill: rgb(34, 34, 34); stroke: rgba(160, 160, 160, 0.498); stroke-width: 0.5pt; font-family: Syne Mono; text-anchor: start; font-size: 19.019pt;">STA 5</text><text x="10pt" y="239.93199999999996pt" style="fill: rgb(34, 34, 34); stroke: rgba(160, 160, 160, 0.498); stroke-width: 0.5pt; font-family: Syne Mono; text-anchor: start; font-size: 19.019pt;">CHA 2</text><text x="10pt" y="258.95099999999996pt" style="fill: rgb(34, 34, 34); stroke: rgba(160, 160, 160, 0.498); stroke-width: 0.5pt; font-family: Syne Mono; text-anchor: start; font-size: 19.019pt;">MAN 1</text><text x="10pt" y="277.96999999999997pt" style="fill: rgb(34, 34, 34); stroke: rgba(160, 160, 160, 0.498); stroke-width: 0.5pt; font-family: Syne Mono; text-anchor: start; font-size: 19.019pt;">APP 0</text><text x="293.90625" y="274.31249999999994pt" style="fill: rgb(34, 34, 34); stroke: rgba(160, 160, 160, 0.498); stroke-width: 0.5pt; font-family: Gochi Hand; text-anchor: end; font-size: 19.019pt;">Diff.:6</text><text x="156.75" y="146.29999999999998" style="fill: rgb(34, 34, 34); stroke: rgba(160, 160, 160, 0.498); stroke-width: 1pt; font-family: Gochi Hand; text-anchor: middle; font-size: 19.019pt;">INCITE DELIRIUM IN HUMANS</text></g><g class="form_group" transform="translate(1116.84375,2121.35)"><g transform="translate(-78.375,219.45)scale(2)"><path d="M146.6598-1.9995c-.0783.2994-.2475.5443-.3761.5443-.3569 0-.2786-.4272.1423-.7765.3085-.2561.3505-.2144.2337.2322Zm-7.2244 3.4547c0 .1455-.1191.2646-.2646.2646s-.2646-.1191-.2646-.2646c0-.1455.1191-.2646.2646-.2646s.2646.1191.2646.2646Zm24.7272 6.3683c-.2268.367-.3856.2986-.3856-.1662 0-.2269.121-.3377.2689-.2463.1479.0914.2004.277.1167.4125Zm3.9871.562c.0815.0815-.0654.2294-.3263.3288-.3771.1436-.4075.1132-.1481-.1481.1795-.1808.3929-.2621.4744-.1807Zm-6.191 1.338c-.1997.2547-.4875.463-.6394.463-.1519 0-.2266-.0337-.166-.0749.0606-.0412.3484-.2495.6394-.463.4895-.359.5019-.3534.166.0749Zm-31.0632 7.4452c.1918.1918.8672-.546.8672-.9473 0-.3281.7363-.2541.8494.0854.1982.5946 1.7317.465 2.3556-.1991.5796-.617 1.059-.8242.9969-.431-.0845.5351.0666.8599.3999.8599.4283 0 .6898-.5641.6898-1.488 0-.6667.2156-1.0223 1.2568-2.073.7718-.7788.7891-2.1517.0374-2.9519-.5796-.6169-1.5376-3.6622-1.551-4.9303-.005-.4738.1307-.7276.3892-.7276.5112 0 .5033-.6997-.0245-2.1495-.9777-2.686-1.0785-4.4241-.5619-9.6935.3455-3.5241.432-5.7614.2992-7.7361-.3316-4.9306-.3387-4.845.8247-9.974.3566-1.5721.6498-3.0696.6508-3.3279.0016-.3093.2734-.5238.7962-.6284.9692-.1938 1.0686-.8864.1273-.8864-.5934 0-.6472-.0798-.4904-.7276.0968-.4002.2744-.9945.3945-1.3206.1202-.3262.1568-.7536.0815-.9499-.1013-.2639 2.0849-3.618 2.357-3.6162.0241.0002.0608 1.9349.0817 4.2995.039 4.4173.2385 7.1976.5531 7.7066.0983.159.1476.6495.1097 1.0898l-.069.8006 1.2716-.0965c.6994-.0531 1.4686-.2709 1.7093-.4842.3674-.3254.5295-.3316 1.0089-.0389.5073.3098.6364.2748 1.1542-.3127.7474-.848 1.8243-.9453 1.7113-.1547-.0434.3033-.179.5138-.3014.4678-.2925-.1101-.949.7666-.9597 1.2817-.0046.2223-.2594.6191-.5661.8817-.4967.4253-.5386.6557-.383 2.1093.1497 1.3991.0608 1.9715-.6235 4.0131-.439 1.3097-.9202 3.1625-1.0693 4.1174-.1491.9549-.5076 2.4432-.7967 3.3073-.289.8641-.528 1.7562-.532 1.9824-.0098.6188-1.5264 2.8886-2.0563 3.0774-.2551.0909-.7019.4508-.9929.7997-.4535.5437-.8855.7517-1.7675.8509-.099.0111-.2184.2881-.2654.6156-.0635.4426-.2401.5787-.6888.5307-.7944-.0851-.9242.3628-.4791 1.6521.2633.7626.5767 1.1323 1.1216 1.3229.4159.1455.9153.3672 1.1096.4926.1943.1254 1.1658.28 2.1588.3436 1.5888.1017 1.8506.0512 2.1815-.4213.3157-.4507.8347-.6761 1.824-.7922.0922-.0108.2375-.228.323-.4827.0855-.2547.2704-.6416.4108-.8599.1404-.2183.5784-1.8256.9733-3.5719.3949-1.7463 1.0441-4.1275 1.4428-5.2917.3986-1.1642.8134-2.5327.9217-3.0412.1083-.5085.5878-1.9373 1.0657-3.175.4778-1.2377 1.1324-3.5074 1.4546-5.0436.5295-2.5245.6595-2.8355 1.3522-3.233.7178-.4121.7632-.5365.7158-1.9693-.039-1.1783.0857-1.7553.5429-2.513.6093-1.0097.5601-1.5301-.1445-1.5301-.4458 0-1.1561-.6188-1.1561-1.0071 0-.1381.1956-.7122.4347-1.2757l.4347-1.0245.3359 1.0583c.1847.5821.4091 1.3897.4986 1.7948.1353.6123.2842.7238.883.6615.6187-.0644.7082.0118.6343.5398-.0604.4311.0684.6553.4308.75.9162.2396 1.4765 2.2644.8108 2.93-.4631.4631-.0572 1.129.6883 1.129.6136 0 .7794-.2002.6036-.7276-.0364-.1091-.1643-.1657-.2842-.1257-.12.04-.1447-.0461-.055-.1912.2635-.4263 2.2954-.8706 3.2635-.7135.7082.1149.8624.0655.7455-.2391-.1109-.2891.0742-.384.7487-.384.4929 0 1.0844-.0723 1.3146-.1606.3345-.1284.4185.0332.4185.8055 0 1.3996.8085 4.4045 1.2285 4.5656.1974.0758.359.3264.359.5569 0 .3384-.0728.3202-.378-.0944-.3442-.4677-.3935-.4737-.5513-.0667-.0953.2458-.0494 1.0792.102 1.8521.428 2.1845.7063 5.4851.9773 11.5922.1872 4.2195-.0842 6.0814-.8879 6.0895-.4979.005-1.6435 1.0883-1.6435 1.5541 0 .1614.1583.2934.3517.2934.1946 0 .3423.266.3307.5953-.015.4256-.3982.8137-1.3439 1.361-1.6789.9718-4.8163 3.7295-5.0382 4.4285-.1013.319-.0046.7137.2412.9854.3727.4118.3628.4827-.1084.777-.5725.3575-.6932.8485-.2087.8485.1704 0 .5574-.2052.8599-.456.3025-.2508.4012-.2865.2193-.0794-.5228.5954-.3917 1.0194.4499 1.4546 1.2345.6384 2.8064.508 4.3466-.3605.7453-.4203 1.6528-.8504 2.0166-.9558.3638-.1054.9591-.4608 1.3229-.7898.3638-.329 1.0099-.7621 1.4357-.9625.9741-.4583 1.141-.928.4118-1.1595-.3096-.0983-.5004-.3167-.424-.4855.0764-.1688.5712-1.3714 1.0995-2.6727.7019-1.7287 1.2433-2.6242 2.0104-3.3254l1.0498-.9596-.2761-1.7017c-.3392-2.0905-.3724-14.8607-.0396-15.2086.1406-.1469.1478-.856.0173-1.7066-.1227-.8004-.2874-3.1727-.3659-5.2718-.1479-3.9552-.2909-4.4053-1.3001-4.091-.8421.2622-1.7436-.1436-2.1759-.9795-.2309-.4464-.7645-.9301-1.1896-1.0783-1.2609-.4395-1.5985-2.5302-1.0366-6.4181.1456-1.0073.3859-1.9775.5341-2.156.1646-.1984.1999-1.0015.0908-2.0667-.1228-1.1982-.08-1.8608.1368-2.1222.2493-.3004.2266-.4296-.1083-.617-.237-.1326-.5966-.9872-.8163-1.9396-.216-.9364-.4562-1.9092-.5338-2.1618-.091-.2962.1403-.1779.6512.333.4358.4358.8303 1.0592.8766 1.3854.0507.3571.2973.6236.6197.6698.2945.0422.6663.3994.8263.7938.5575 1.3742.8553 2.3107 1.0271 3.2306.0951.5093.351 1.4618.5685 2.1167.4203 1.265 1.1489 4.6954 1.8217 8.5769.4751 2.7408.7878 3.4952 1.2795 3.0872.2624-.2178.3311.1208.3261 1.5968-.0053 1.4137.0926 1.9288.399 2.1003.2616.1464.4225.6652.4525 1.4595.0256.6778.1319 1.3674.236 1.5324.1042.1651.1513.9847.1047 1.8215-.0588 1.0549.0127 1.5214.2331 1.5214.3639 0 .2939.6282-.4363 3.9144-.4206 1.8931-.4353 2.2269-.1068 2.4299.2095.1295.4946.1651.6336.0792.1491-.0921.1859.0997.0897.4675-.0897.343-.0284 1.8577.1363 3.3659l.2994 2.7422.6819-.1682c.9348-.2306 1.3006-.6239.8432-.9066-.5421-.335-.1622-2.1691.4043-1.9517.5753.2207.8193-.2869 1.0335-2.15.1015-.8826.3941-2.1405.6504-2.7954.9021-2.3057 1.4012-5.2521 1.2503-7.3812-.1034-1.4585-.0716-1.8297.1156-1.35.224.574.3063.9786.4554 2.2395.0166.1403.2247.0606.4625-.1772.4-.4.3898-.587-.1368-2.5041-.313-1.1395-.6178-2.8457-.6773-3.7916-.0595-.9459-.5468-3.3867-1.0829-5.424-.5361-2.0373-1.2695-5.0139-1.6298-6.6146-.6983-3.1026-2.7512-9.3845-3.3808-10.3453-.2085-.3182-.4065-1.0972-.4401-1.7312-.0336-.634-.1582-1.3313-.277-1.5496-.1188-.2183-.4525-.9687-.7416-1.6676-.877-2.1199-2.7472-4.4471-4.9325-6.1376-1.1286-.8731-2.8391-2.3614-3.801-3.3073-2.9229-2.8741-5.9285-5.0271-7.0179-5.0271-.2357 0-.9262-.3424-1.5345-.7609-2.341-1.6104-4.7251-1.936-10.7177-1.4636-1.6579.1307-1.9882.0853-2.2799-.3138-.3205-.4383-.3804-.4276-.9873.1759-.3554.3534-1.3398 1.1645-2.1876 1.8025-1.3345 1.0043-1.5739 1.102-1.7834.7276-.3819-.6825-.8138-.5203-2.0788.7805-1.4601 1.5014-3.4902 2.5961-4.3047 2.3212-.3185-.1075-.6981-.2025-.8437-.2111-.4031-.0239-1.7276-.937-2.9463-2.0311-1.4346-1.288-2.4285-1.7814-4.2702-2.1197-.8331-.1531-2.2887-.6062-3.2346-1.0069-.9459-.4007-2.5532-.878-3.5719-1.0607-1.0186-.1827-2.4092-.49-3.0902-.6829-1.8327-.5192-5.3971-.7851-5.6231-.4195-.1306.2113-.2954.1864-.5676-.0858-.335-.3351-.5589-.3312-1.7691.0304-.762.2277-2.1594.4463-3.1053.4859-2.1096.0883-3.7676.6422-5.9858 1.9999-.933.5711-1.8338 1.0383-2.0017 1.0383-.1679 0-.5205.1948-.7836.4329-.6207.5617-.6346.5123-1.0159-3.6079-.1683-1.819-.4108-3.4148-.5389-3.5463-.1341-.1376-.1294-.4321.0109-.6943.1771-.3308.1059-.58-.2603-.9114-.6056-.5481-1.0699-.3421-.8785.3898.0983.3759.008.5289-.3122.5289-.3572 0-.4353.2055-.3774.9922.1058 1.4353-.2883 3.4476-.7065 3.6081-.1978.0759-.7366.8876-1.1974 1.8037-.4608.9162-.9242 1.7253-1.0298 1.798s-.3729.4815-.5939.9083l-.4019.776-1.1516-2.0989c-.6334-1.1544-1.8434-2.8133-2.6889-3.6864-.8455-.8731-1.5976-1.8852-1.6714-2.249-.2925-1.4423-.7494-1.9899-1.5781-1.8911-1.011.1205-1.2284.4691-1.0779 1.7288.0676.5656.0031 1.2204-.1432 1.4552-.1932.31-.053 1.0889.512 2.8448.6497 2.019.7432 2.6301.5667 3.7042-.2587 1.5743-.2988 3.6108-.0823 4.1751.1853.4828.8977.57.8977.1098 0-.1698.0608-.2479.1351-.1736.0743.0743-.0529.6597-.2826 1.3009-.2869.8007-.3988 1.9115-.3572 3.547.0333 1.3097-.0355 2.6016-.1528 2.871-.141.3237-.0881.569.1559.7236.2956.1872.2769.2347-.0938.2379-.3808.0033-.4564.2273-.4254 1.2608.0479 1.6002-1.1448 6.6749-2.0161 8.5779-1.1244 2.456-3.2044 6.0142-4.0749 6.9708-.4542.4991-.8258 1.0822-.8258 1.2958s-.1191.4619-.2646.5518c-.4381.2708-.2983.8555.2381.9958.2765.0723 1.1088-.0737 1.8495-.3245.7408-.2508 1.4097-.393 1.4866-.3161.0769.0769.5841.2941 1.127.4826.8397.2916 1.1176.2815 1.8595-.0673.5532-.2601 1.1646-.346 1.6714-.2347.5755.1264.9423.046 1.3105-.2873.932-.8434.3889-1.6646-.5581-.8438-.2099.1819-.0706-.0265.3095-.463.3801-.4366 1.223-1.597 1.8731-2.5787.65-.9817 1.2706-1.6963 1.379-1.5879s.358-.023.5547-.292c.1967-.269.4696-.4199.6065-.3353.246.1521 3.376-1.7085 3.8874-2.3108.2835-.3339 3.1784-2.4655 5.2027-3.8309 1.0262-.6922 1.427-.8137 2.3809-.7218.9143.0881 1.3176-.0196 1.9878-.5309.7131-.544 1.0493-.6215 2.2139-.5106 1.2659.1205 1.3625.09 1.2369-.3903-.1298-.4962-.1084-.5.4488-.0797.7824.5902.383 1.6298-.557 1.4501-.4867-.093-.6109.0002-.6109.4589 0 .3166.1046.511.2324.432.4743-.2931 1.7951.6603 2.254 1.6271l.4741.9988-.6375-.5953c-1.288-1.2028-1.707-.5954-.4888.7086.7118.762 1.3122 1.7436 3.3291 5.443.3967.7276 1.1607 1.8587 1.6979 2.5135 1.6806 2.0489 2.7681 3.7946 2.7823 4.4662.0178.8418.5323.9984 1.1004.3349.4151-.4848.4994-.4942 1.071-.1197.3412.2236.6204.5863.6204.806 0 .3068.1996.3628.8599.2413l.8599-.1582-.7542.4121c-.6324.3456-.7257.5259-.578 1.1173.7829 3.1344 1.1249 6.3839 1.0021 9.519-.1387 3.5383.2938 8.8522.7325 9.0015.4143.141.2925 3.7644-.1704 5.0712-.232.6548-.4678 2.1431-.5241 3.3073-.0563 1.1642-.2201 2.6524-.3641 3.3073-.144.6548-.2985 1.5113-.3433 1.9032-.1016.8882-1.253 1.8636-1.795 1.5206-.8764-.5546-3.1313.006-4.2621 1.0595-.4264.3973-1.5591.8031-2.2149.7936-.3217-.0047-1.4688 1.6126-1.3175 1.8574.1955.3163 1.4611.2581 1.4611-.0671 0-.1242.1871-.0387.4158.19.2287.2287.6481.4158.9321.4158.4895 0 .4939.0342.0843.6594-.2483.3794-.3553.8569-.2513 1.1245.1609.414.2482.3872.7949-.2448.3377-.3904.6651-.8629.7275-1.05.0915-.2746.3274-.2695 1.2245.0265 1.0543.3479 1.1075.4152 1.0391 1.3146-.0979 1.2873.6329 1.304.9525.0218.1923-.7716.4491-1.0239 1.5395-1.5127.9161-.4107 1.294-.7281 1.26-1.0583-.0271-.2594-.0349-.6108-.0181-.7809.0313-.3179 1.8215-1.5386 2.2604-1.5414.1351-.0009.332-.2992.4376-.663.1056-.3638.464-1.1972.7964-1.8521.5091-1.003.6409-1.8368.8365-5.2917.1277-2.2556.2565-5.1726.2862-6.4823.0463-2.0388.3029-3.1615.8715-3.8128.0521-.0597.3312.1053.6201.3667.9657.8743.9623-.2276-.007-2.1373-.4806-.9468-.8658-2.102-.8558-2.567.0324-1.5168.3675-4.2286.8881-7.1861.2808-1.5956.5106-3.2195.5106-3.6087s.2098-.9668.4663-1.2835c.3889-.4802.5807-.5323 1.1554-.3138.4056.1542 1.0852.1727 1.6518.0449 1.1318-.2553 1.4322.0357.9559.9258-.3985.7447-.1539 1.565.403 1.3513.2572-.0987.3947.0099.3947.3118 0 .2548.1814 1.1142.4032 1.9099.2217.7957.5824 2.804.8015 4.4629.2191 1.6589.5163 3.5423.6604 4.1853.1752.7813.1712 1.9006-.0119 3.3739-.3095 2.4907-.0126 5.0048 1.1883 10.0621.9372 3.9469 1.0144 4.9553.5455 7.1303-.2212 1.026-.4692 2.312-.5513 2.8577-.0821.5457-.2696.9922-.4167.9922-.3753 0-1.3708 2.3365-1.443 3.3869-.033.4804-.2516 1.0851-.4857 1.3438-.8942.9881-.3117 1.6252.7339.8027l.6926-.5448V15.944c0 .5684.086 1.1195.1912 1.2246Z" x="0" y="0" style="fill: rgba(96, 96, 96, 0.498); stroke: none;"></path></g><rect x="0" y="0" rx="5pt" ry="5pt" width="313.5" height="391.875" style="fill: none; stroke: rgb(16, 16, 16); stroke-width: 1pt;"></rect><g><text x="156.75" y="-18.287499999999998" dy="10" style="text-anchor: middle; font-family: Khand; font-size: 29.26px; fill: rgb(17, 17, 17); stroke: rgb(136, 136, 136); stroke-width: 0.5pt;">Hispo</text></g><text x="10pt" y="182.87499999999997pt" style="fill: rgb(34, 34, 34); stroke: rgba(160, 160, 160, 0.498); stroke-width: 0.5pt; font-family: Syne Mono; text-anchor: start; font-size: 19.019pt;">STR 5</text><text x="10pt" y="201.89399999999998pt" style="fill: rgb(34, 34, 34); stroke: rgba(160, 160, 160, 0.498); stroke-width: 0.5pt; font-family: Syne Mono; text-anchor: start; font-size: 19.019pt;">DEX 5</text><text x="10pt" y="220.91299999999995pt" style="fill: rgb(34, 34, 34); stroke: rgba(160, 160, 160, 0.498); stroke-width: 0.5pt; font-family: Syne Mono; text-anchor: start; font-size: 19.019pt;">STA 5</text><text x="10pt" y="239.93199999999996pt" style="fill: rgb(34, 34, 34); stroke: rgba(160, 160, 160, 0.498); stroke-width: 0.5pt; font-family: Syne Mono; text-anchor: start; font-size: 19.019pt;">CHA 2</text><text x="10pt" y="258.95099999999996pt" style="fill: rgb(34, 34, 34); stroke: rgba(160, 160, 160, 0.498); stroke-width: 0.5pt; font-family: Syne Mono; text-anchor: start; font-size: 19.019pt;">MAN 1</text><text x="10pt" y="277.96999999999997pt" style="fill: rgb(34, 34, 34); stroke: rgba(160, 160, 160, 0.498); stroke-width: 0.5pt; font-family: Syne Mono; text-anchor: start; font-size: 19.019pt;">APP 2</text><text x="293.90625" y="274.31249999999994pt" style="fill: rgb(34, 34, 34); stroke: rgba(160, 160, 160, 0.498); stroke-width: 0.5pt; font-family: Gochi Hand; text-anchor: end; font-size: 19.019pt;">Diff.:7</text><text x="156.75" y="146.29999999999998" style="fill: rgb(34, 34, 34); stroke: rgba(160, 160, 160, 0.498); stroke-width: 1pt; font-family: Gochi Hand; text-anchor: middle; font-size: 19.019pt;"></text></g><g class="form_group" transform="translate(1449.9375,2121.35)"><g transform="translate(274.3125,1024.1)scale(2)"><path d="M-73.7826-444.357c0 .3044-.2638.5535-.5861.5535-.3224 0-.4322-.2491-.2441-.5535.1881-.3044.4519-.5535.5861-.5535s.2441.2491.2441.5535Zm61.1174 44.2772c-.2036.761-.6009 1.7572-.8831 2.2139-.3565.577-.4001.4082-.1428-.5535.2036-.761.6009-1.7572.8831-2.2139.3565-.577.4001-.4082.1428.5535Zm-5.079 6.2186c3.4932.2265 5.4606-.0524 6.2868-.8911.3376-.3427 1.1913-2.9175 1.8971-5.7217 1.453-5.7723 1.5264-5.4476-2.5145-11.1257-2.1816-3.0655-2.4864-3.8471-2.4818-6.3648l.0052-2.8702 1.6227 2.8291c.8925 1.556 2.42 3.5 3.3945 4.32 2.4062 2.0247 7.0853 4.3397 8.0349 3.9753 1.5523-.5957.8522-3.4572-1.5781-6.4493-1.2937-1.5929-2.7642-3.4218-3.2677-4.0644-.5035-.6426-1.4457-3.4011-2.0939-6.1302-2.6778-11.275-5.5697-12.7995-25.7709-13.5857-6.6969-.2606-13.494-.7339-15.1046-1.0518-3.3824-.6676-7.3021-2.7536-10.078-5.3636-1.0654-1.0017-3.1202-2.3434-4.5661-2.9815-1.4459-.6381-2.629-1.3784-2.629-1.6452 0-.6703-2.7586-3.8908-3.3327-3.8908-.2568 0-.6238.4941-.8155 1.098-.3436 1.0826-.3713 1.0812-1.9676-.099-1.9731-1.4588-2.5647-1.035-1.6472 1.18.6302 1.5213.5506 1.8371-.9461 3.7536-.8988 1.1509-1.9226 2.9409-2.2753 3.9778-.3526 1.0369-1.6692 2.7652-2.9258 3.8408l-2.2847 1.9556 1.5571 1.3393c1.5755 1.3552 1.7814 1.3711 7.1045.5494.8129-.1255 1.5516.8473 3.3208 4.3734 1.2514 2.4941 2.9017 5.2338 3.6673 6.0881.7656.8543 1.8609 2.425 2.4339 3.4905 1.4719 2.7366 2.371 3.6685 4.5264 4.6912 1.0595.5028 1.8861 1.3086 1.8852 1.8379-.0039 2.2209-1.634 17.6683-1.952 18.4968-.192.5002-1.0762 1.163-1.965 1.4728-.8888.3098-1.616.9216-1.616 1.3595 0 .8574 2.5959 1.4677 4.0578.9539.975-.3427 3.6848-5.3162 3.6884-6.7698.0013-.5095.3055-2.2398.6761-3.8452.5757-2.4943.7287-2.7218 1.0518-1.5643.2079.745.4028 3.1603.4332 5.3672.0492 3.576-.0579 4.0126-.984 4.0126-1.1549 0-2.4763 1.2812-1.9079 1.8497.4921.4921 4.1771.4479 4.951-.0594.8876-.5818 1.2777-3.7809 1.5004-12.3061.1074-4.1095.3611-7.8454.5639-8.302.2866-.6454 1.1995-.7926 4.0999-.6615 2.2768.103 5.3938-.2275 7.9964-.8478 2.7098-.6459 5.2972-.9092 7.095-.7222 2.7008.2809 2.8867.408 4.0764 2.785.7682 1.5349 2.718 3.7225 5.0812 5.7011 4.4861 3.756 5.9472 6.0163 5.4379 8.4122-.4561 2.1455-1.8666 4.9024-2.291 4.478-.4536-.4536-2.3563 1.3394-2.3563 2.2205 0 .4702.996.7801 2.9057.9039Z" x="0" y="0" style="fill: rgba(96, 96, 96, 0.498); stroke: none;"></path></g><rect x="0" y="0" rx="5pt" ry="5pt" width="313.5" height="391.875" style="fill: none; stroke: rgb(16, 16, 16); stroke-width: 1pt;"></rect><g><text x="156.75" y="-18.287499999999998" dy="10" style="text-anchor: middle; font-family: Khand; font-size: 29.26px; fill: rgb(17, 17, 17); stroke: rgb(136, 136, 136); stroke-width: 0.5pt;">Lupus</text></g><text x="10pt" y="182.87499999999997pt" style="fill: rgb(34, 34, 34); stroke: rgba(160, 160, 160, 0.498); stroke-width: 0.5pt; font-family: Syne Mono; text-anchor: start; font-size: 19.019pt;">STR 3</text><text x="10pt" y="201.89399999999998pt" style="fill: rgb(34, 34, 34); stroke: rgba(160, 160, 160, 0.498); stroke-width: 0.5pt; font-family: Syne Mono; text-anchor: start; font-size: 19.019pt;">DEX 5</text><text x="10pt" y="220.91299999999995pt" style="fill: rgb(34, 34, 34); stroke: rgba(160, 160, 160, 0.498); stroke-width: 0.5pt; font-family: Syne Mono; text-anchor: start; font-size: 19.019pt;">STA 4</text><text x="10pt" y="239.93199999999996pt" style="fill: rgb(34, 34, 34); stroke: rgba(160, 160, 160, 0.498); stroke-width: 0.5pt; font-family: Syne Mono; text-anchor: start; font-size: 19.019pt;">CHA 2</text><text x="10pt" y="258.95099999999996pt" style="fill: rgb(34, 34, 34); stroke: rgba(160, 160, 160, 0.498); stroke-width: 0.5pt; font-family: Syne Mono; text-anchor: start; font-size: 19.019pt;">MAN 1</text><text x="10pt" y="277.96999999999997pt" style="fill: rgb(34, 34, 34); stroke: rgba(160, 160, 160, 0.498); stroke-width: 0.5pt; font-family: Syne Mono; text-anchor: start; font-size: 19.019pt;">APP 2</text><text x="293.90625" y="274.31249999999994pt" style="fill: rgb(34, 34, 34); stroke: rgba(160, 160, 160, 0.498); stroke-width: 0.5pt; font-family: Gochi Hand; text-anchor: end; font-size: 19.019pt;">Diff.:6</text><text x="156.75" y="146.29999999999998" style="fill: rgb(34, 34, 34); stroke: rgba(160, 160, 160, 0.498); stroke-width: 1pt; font-family: Gochi Hand; text-anchor: middle; font-size: 19.019pt;"></text></g></g><g></g><line x1="78.375" x2="78.375" y1="146.29999999999998" y2="2560.2499999999995" style="fill: none; stroke: rgb(34, 34, 34); stroke-width: 3pt;" marker-end="url(#arrowhead)" marker-start="url(#arrowhead)"></line><line x1="1802.625" x2="1802.625" y1="146.29999999999998" y2="2560.2499999999995" style="fill: none; stroke: rgb(34, 34, 34); stroke-width: 3pt;" marker-end="url(#arrowhead)" marker-start="url(#arrowhead)"></line><line x1="78.375" x2="1802.625" y1="182.87499999999997" y2="182.87499999999997" style="fill: none; stroke: rgb(34, 34, 34); stroke-width: 3pt;" marker-end="url(#arrowhead)" marker-start="url(#arrowhead)"></line><line x1="78.375" x2="1802.625" y1="2560.2499999999995" y2="2560.2499999999995" style="fill: none; stroke: rgb(34, 34, 34); stroke-width: 3pt;" marker-end="url(#arrowhead)" marker-start="url(#arrowhead)"></line><line x1="764.15625" x2="764.15625" y1="292.59999999999997" y2="1975.0499999999997" style="fill: none; stroke: rgb(34, 34, 34); stroke-width: 3pt;" marker-end="url(#arrowhead)" marker-start="url(#arrowhead)"></line><line x1="78.375" x2="1802.625" y1="2084.7749999999996" y2="2084.7749999999996" style="fill: none; stroke: rgb(34, 34, 34); stroke-width: 3pt;" marker-end="url(#arrowhead)" marker-start="url(#arrowhead)"></line><text x="117.5625" y="164.58749999999998" dy="0" style="text-anchor: start; font-family: Gochi Hand; font-size: 24.871px; fill: rgb(17, 68, 51); stroke: rgb(68, 204, 136); stroke-width: 0.5pt;" opacity="1">Agatha Lindner (p.2)</text><text x="1763.4375" y="164.58749999999998" dy="0" style="text-anchor: end; font-family: Khand; font-size: 24.871px; fill: rgb(34, 34, 34); stroke: rgb(136, 136, 136); stroke-width: 0.5pt;" opacity="1">The Weeping Tree (2024-2025)</text><text x="117.5625" y="2618.7699999999995" dy="-16" style="text-anchor: start; font-family: Khand; font-size: 19.019px; fill: rgb(34, 34, 34); stroke: rgb(136, 136, 136); stroke-width: 0.5pt;" opacity="1">[Attributes:7/5/3 Abilities:13/9/5 Traits:3 Backgrounds:5 Freebies:15]</text><text x="1763.4375" y="2611.455" dy="-16" style="text-anchor: end; font-family: Khand; font-size: 19.019px; fill: rgb(34, 34, 34); stroke: rgb(136, 136, 136); stroke-width: 0.5pt;" opacity="1">WaWWoD Cross+Over Sheet WW20-2025.03.06 ©2025, Red Fox Studios.</text><text x="1763.4375" y="2626.0849999999996" dy="-16" style="text-anchor: end; font-family: Khand; font-size: 9.5095px; fill: rgb(34, 34, 34); stroke: rgb(136, 136, 136); stroke-width: 0.5pt;" opacity="1">Red Fox Studios are a subsidiary of Pentex Inc.</text><text x="1763.4375" y="2545.6199999999994" dy="0" style="text-anchor: end; font-family: Khand; font-size: 19.019px; fill: rgb(34, 34, 34); stroke: rgb(136, 136, 136); stroke-width: 0.5pt;" opacity="1">Challenge:0</text><g class="do_not_print display" action="chronicle_map" opacity="0"><rect id="button1" x="1985.4999999999998" y="43.88999999999999" width="125.4" height="58.519999999999996" style="fill: rgb(204, 204, 204); stroke: rgb(17, 17, 17); stroke-width: 1pt; cursor: pointer;" opacity="1"></rect><text x="2048.2" y="73.14999999999999" dy="5" style="font-family: Khand; text-anchor: middle; font-size: 24.871px; fill: rgb(0, 0, 0); cursor: pointer; stroke: rgb(51, 51, 51); stroke-width: 0.5pt;" opacity="1">NPCs</text></g><g class="do_not_print " action="" opacity="0"><rect id="button2" x="1985.4999999999998" y="117.03999999999999" width="125.4" height="58.519999999999996" style="fill: rgb(204, 204, 204); stroke: rgb(170, 34, 34); stroke-width: 1pt; cursor: pointer;" opacity="1"></rect><text x="2048.2" y="146.29999999999998" dy="5" style="font-family: Khand; text-anchor: middle; font-size: 24.871px; fill: rgb(0, 0, 0); cursor: pointer; stroke: rgb(51, 51, 51); stroke-width: 0.5pt;" opacity="1">Save PDF</text></g><g class="do_not_print " action="" opacity="0"><rect id="button3" x="1985.4999999999998" y="190.19" width="125.4" height="58.519999999999996" style="fill: rgb(204, 204, 204); stroke: rgb(17, 17, 17); stroke-width: 1pt; cursor: pointer;" opacity="1"></rect><text x="2048.2" y="219.45" dy="5" style="font-family: Khand; text-anchor: middle; font-size: 24.871px; fill: rgb(0, 0, 0); cursor: pointer; stroke: rgb(51, 51, 51); stroke-width: 0.5pt;" opacity="1">Page 1</text></g><g class="do_not_print " action="" opacity="0"><rect id="button4" x="1985.4999999999998" y="263.34" width="125.4" height="58.519999999999996" style="fill: rgb(204, 204, 204); stroke: rgb(17, 17, 17); stroke-width: 1pt; cursor: pointer;" opacity="1"></rect><text x="2048.2" y="292.59999999999997" dy="5" style="font-family: Khand; text-anchor: middle; font-size: 24.871px; fill: rgb(0, 0, 0); cursor: pointer; stroke: rgb(51, 51, 51); stroke-width: 0.5pt;" opacity="1">Page 2</text></g><g class="do_not_print " action="" opacity="0"><rect id="button5" x="1985.4999999999998" y="336.48999999999995" width="125.4" height="58.519999999999996" style="fill: rgb(204, 204, 204); stroke: rgb(17, 17, 17); stroke-width: 1pt; cursor: pointer;" opacity="1"></rect><text x="2048.2" y="365.74999999999994" dy="5" style="font-family: Khand; text-anchor: middle; font-size: 24.871px; fill: rgb(0, 0, 0); cursor: pointer; stroke: rgb(51, 51, 51); stroke-width: 0.5pt;" opacity="1">Page 3</text></g><g class="do_not_print " action="" opacity="0"><rect id="button6" x="1985.4999999999998" y="409.63999999999993" width="125.4" height="58.519999999999996" style="fill: rgb(204, 204, 204); stroke: rgb(17, 17, 17); stroke-width: 1pt; cursor: pointer;" opacity="1"></rect><text x="2048.2" y="438.9" dy="5" style="font-family: Khand; text-anchor: middle; font-size: 24.871px; fill: rgb(0, 0, 0); cursor: pointer; stroke: rgb(51, 51, 51); stroke-width: 0.5pt;" opacity="1">Page 4</text></g></g><defs><marker id="arrowhead" viewBox="-0 -5 10 10" refX="0" refY="0" orient="auto-start-reverse" markerWidth="9" markerHeight="9" preserveAspectRatio="xMidYMid meet" xoverflow="visible"><path d="M 1,-1 l 3,1 -3,1 -1,-1 1,-1 M 5,-1 l  3,1 -3,1 -1,-1 1,-1   Z" style="fill: rgb(34, 34, 34); stroke: rgb(136, 136, 136); stroke-width: 0pt;"></path></marker></defs></g></svg>