<?xml version="1.0" encoding="UTF-8" standalone="no"?>
<!-- Created with Inkscape (http://www.inkscape.org/) -->

<svg
   width="12.958763mm"
   height="33.110706mm"
   viewBox="0 0 12.958763 33.110708"
   version="1.1"
   id="svg1"
   xml:space="preserve"
   xmlns="http://www.w3.org/2000/svg"
   xmlns:svg="http://www.w3.org/2000/svg"><defs
     id="defs1" /><g
     id="layer1"
     transform="translate(-702.38649,-98.709126)"><path
       style="fill:#aeaeae;fill-opacity:1;stroke-width:0.437564"
       d="m 704.48423,131.71728 c -0.185,-0.11717 -0.13521,-0.50562 0.16465,-1.28455 0.16338,-0.4244 0.21811,-1.13259 0.29526,-3.82047 0.0747,-2.60014 0.14203,-3.50111 0.31799,-4.25069 0.2387,-1.01683 0.25339,-1.99023 0.0818,-5.41626 -0.0782,-1.56225 -0.0616,-1.84699 0.16554,-2.83642 0.13889,-0.6049 0.27761,-1.3185 0.30825,-1.58576 l 0.0558,-0.48594 -0.3533,0.10132 c -0.30845,0.0885 -0.41376,0.0508 -0.82952,-0.29654 -1.10566,-0.92376 -2.30421,-2.48327 -2.30421,-2.99815 0,-0.37921 0.5797,-1.32021 1.32359,-2.14853 0.20222,-0.22518 0.53639,-0.70427 0.74257,-1.06464 0.3993,-0.69791 1.31607,-1.47814 1.7368,-1.47814 0.29034,0 0.46381,-0.29329 0.52568,-0.88877 0.12884,-1.24014 0.43764,-2.9761 0.60285,-3.388981 0.60611,-1.514826 2.27318,-1.563124 2.99078,-0.08665 0.21691,0.446311 0.34071,1.005651 0.47908,2.164731 0.10262,0.85961 0.24703,1.68615 0.3209,1.83675 0.0771,0.15715 0.32548,0.33846 0.58294,0.42549 0.54337,0.18368 1.14341,0.74017 1.55533,1.44246 0.16807,0.28654 0.59837,0.87102 0.95622,1.29886 0.35786,0.42784 0.77534,1.01291 0.92772,1.30017 0.27206,0.51282 0.27332,0.52926 0.0702,0.90639 -0.31953,0.59333 -1.58565,2.05423 -2.16003,2.49232 -0.43483,0.33165 -0.58497,0.38434 -0.95407,0.33484 l -0.43804,-0.0588 0.0657,0.48096 c 0.0362,0.26453 0.19279,1.03375 0.34804,1.70938 0.26584,1.15703 0.28051,1.40257 0.25219,4.22567 -0.0276,2.7506 -0.009,3.07824 0.22039,3.98132 0.28519,1.12058 0.38783,2.40386 0.39813,4.97819 0.005,1.33047 0.0694,2.10567 0.24787,2.99799 0.23383,1.1693 0.23458,1.20798 0.0263,1.36032 -0.25692,0.18787 -0.43646,0.19409 -1.00952,0.0349 -0.29072,-0.0807 -0.43415,-0.18761 -0.43415,-0.32351 0,-0.11162 -0.0455,-0.25244 -0.10103,-0.31294 -0.0555,-0.0605 -0.13051,-0.55642 -0.16654,-1.10206 -0.0561,-0.84913 -0.0339,-1.04018 0.15353,-1.32599 0.12352,-0.18831 0.1778,-0.38676 0.12444,-0.45507 -0.0521,-0.0666 -0.12737,-0.41355 -0.16742,-0.77093 -0.04,-0.35737 -0.20949,-1.11278 -0.37657,-1.67869 -0.16706,-0.56591 -0.37216,-1.4978 -0.45577,-2.07087 -0.0836,-0.57307 -0.21196,-1.25034 -0.28522,-1.50503 -0.12967,-0.45072 -0.27131,-1.16246 -0.63362,-3.18373 -0.097,-0.54123 -0.32108,-1.50504 -0.49793,-2.14178 -0.26819,-0.96561 -0.35937,-1.15772 -0.5495,-1.15772 -0.19397,0 -0.27469,0.18992 -0.54125,1.27349 -0.17231,0.70042 -0.36914,1.69027 -0.4374,2.19967 -0.28187,2.10313 -0.37797,2.66887 -0.47329,2.78603 -0.0552,0.0678 -0.15764,0.64088 -0.22771,1.27349 -0.07,0.63262 -0.27624,1.72329 -0.45815,2.42371 -0.51661,1.98914 -0.58852,2.69192 -0.32172,3.14411 0.18501,0.31357 0.20058,0.44345 0.0977,0.81415 -0.0674,0.24259 -0.12277,0.65941 -0.12313,0.92627 -2.5e-4,0.26685 -0.056,0.51937 -0.12356,0.56116 -0.0676,0.0418 -0.16766,0.19366 -0.22235,0.33751 -0.12925,0.33994 -1.1192,0.54274 -1.49316,0.30587 z m 1.43535,-20.73554 c 0.20721,-0.12806 0.40802,-0.34948 0.44622,-0.49203 0.13278,-0.4954 0.0643,-2.33813 -0.10436,-2.80615 -0.0918,-0.2547 -0.16762,-0.5559 -0.16857,-0.66933 -0.005,-0.62162 -0.71054,-0.22493 -1.79383,1.00897 l -0.66231,0.75438 0.40782,0.72648 c 0.44581,0.79417 1.18309,1.71054 1.37624,1.71054 0.0671,0 0.29157,-0.10479 0.49879,-0.23286 z m 6.87884,-0.42288 c 0.26142,-0.29698 0.63535,-0.81972 0.83098,-1.16164 0.34091,-0.59584 0.34777,-0.63377 0.16519,-0.91242 -0.33056,-0.50449 -1.64806,-1.78531 -1.83645,-1.78531 -0.23983,0 -0.28101,0.0809 -0.54338,1.06727 -0.13879,0.52177 -0.22527,1.2296 -0.22696,1.85768 l -0.003,1.0147 0.37625,0.22941 c 0.54532,0.33249 0.70758,0.29187 1.23709,-0.30969 z"
       id="path7" /></g></svg>
