<?xml version="1.0" encoding="UTF-8" standalone="no"?>
<!-- Created with Inkscape (http://www.inkscape.org/) -->

<svg
   width="12.452529mm"
   height="30.284157mm"
   viewBox="0 0 12.452529 30.284158"
   version="1.1"
   id="svg1"
   xml:space="preserve"
   xmlns="http://www.w3.org/2000/svg"
   xmlns:svg="http://www.w3.org/2000/svg"><defs
     id="defs1" /><g
     id="layer1"
     transform="translate(-664.10354,-101.56321)"><path
       style="fill:#aeaeae;fill-opacity:1;stroke-width:0.247956"
       d="m 668.67284,131.78501 c -0.26653,-0.0279 -0.44381,-0.20883 -0.44381,-0.45289 0,-0.0789 0.13285,-0.30649 0.29522,-0.50582 l 0.29523,-0.36242 v -0.74591 c 0,-0.49113 -0.0561,-1.08087 -0.16428,-1.72656 -0.26973,-1.61015 -0.32077,-2.40534 -0.2335,-3.63765 0.0871,-1.22948 0.0408,-1.94102 -0.22617,-3.47707 -0.0909,-0.52321 -0.17817,-0.98678 -0.19386,-1.03016 -0.0157,-0.0434 -0.1671,-0.14201 -0.33645,-0.21915 l -0.30791,-0.14027 0.0435,-1.06015 c 0.0395,-0.96403 0.12006,-1.82831 0.30633,-3.29073 0.11745,-0.92201 0.17781,-1.23952 0.29312,-1.54172 0.19567,-0.51279 0.19692,-0.75084 0.005,-1.07723 -0.2008,-0.34265 -0.42021,-0.50743 -0.8266,-0.6208 -1.02955,-0.28723 -1.92148,-0.63751 -2.57179,-1.01002 -0.46648,-0.2672 -0.5481,-0.39016 -0.4844,-0.72974 0.0897,-0.47817 0.96814,-1.42194 1.74409,-1.87382 0.19845,-0.11557 0.61177,-0.46928 0.91846,-0.78603 0.65959,-0.68116 0.98487,-0.90725 1.45571,-1.01181 l 0.34798,-0.0773 0.11655,-0.65457 c 0.0641,-0.36001 0.14419,-0.80218 0.17802,-0.9826 0.0339,-0.18041 0.11904,-0.65277 0.18941,-1.04968 0.16028,-0.90411 0.35229,-1.42055 0.65115,-1.75136 0.35234,-0.38999 0.51638,-0.45384 0.97355,-0.37897 0.21162,0.0347 0.39206,0.0632 0.40098,0.0634 0.009,2.1e-4 0.13688,0.10939 0.28437,0.24264 0.32377,0.29251 0.68206,0.98164 0.74382,1.43067 0.1265,0.91957 0.38546,2.35233 0.50395,2.78822 0.12987,0.47774 0.35039,0.78604 0.56288,0.78693 0.0426,1.8e-4 0.30831,0.25844 0.59044,0.57392 0.28214,0.31547 0.71686,0.76569 0.96604,1.00048 1.04076,0.98065 1.42683,1.41345 1.61784,1.8137 0.335,0.70191 0.29669,0.76794 -0.726,1.25149 -0.60877,0.28784 -1.1056,0.46608 -1.78635,0.64085 -0.54007,0.13865 -0.96599,0.47989 -1.09791,0.87963 -0.0814,0.24667 -0.0754,0.29289 0.0841,0.64833 0.11544,0.25723 0.25099,0.83334 0.41338,1.75692 0.22659,1.28867 0.24204,1.4636 0.24813,2.81096 0.006,1.35882 -2e-4,1.43778 -0.11689,1.45517 -0.19663,0.0293 -0.22624,0.0932 -0.3322,0.71689 -0.24553,1.44544 -0.25954,2.27121 -0.0679,4.00137 0.12178,1.09928 0.10364,1.67898 -0.10878,3.47707 -0.0953,0.80679 -0.11963,1.28768 -0.0879,1.73853 0.0422,0.59998 0.054,0.63672 0.31513,0.98408 0.22183,0.29499 0.27792,0.42901 0.30747,0.73454 0.0341,0.3526 0.0273,0.37593 -0.12009,0.41293 -0.32691,0.0904 -0.65664,0.0293 -0.86396,0.009 -0.2061,-0.0203 -0.24214,-0.12569 -0.32507,-0.18676 -0.0113,-0.12163 -0.15365,-0.11951 -0.22695,-0.17635 -0.0567,-0.10079 -0.0567,-0.17891 -0.0195,-0.22378 0.042,-0.12344 0.0602,-0.0247 0.0483,-1.75029 -0.007,-0.95032 -0.0441,-1.43435 -0.17279,-2.23057 -0.0904,-0.55928 -0.19024,-1.47448 -0.22182,-2.03376 -0.0353,-0.62624 -0.0976,-1.12856 -0.1619,-1.30759 -0.24217,-0.67368 -0.2929,-1.04563 -0.33168,-2.4319 -0.0217,-0.77578 -0.0613,-1.5286 -0.088,-1.67293 -0.0464,-0.25065 -0.0588,-0.2617 -0.27544,-0.24622 -0.54262,0.0387 -0.52211,0.009 -0.52204,0.7559 2e-5,0.36917 0.0329,0.99595 0.0732,1.39287 0.10257,1.01166 0.0941,1.44868 -0.0367,1.90254 -0.0785,0.27236 -0.13106,0.808 -0.17053,1.73854 -0.0314,0.7397 -0.10216,1.58108 -0.15731,1.86975 -0.14648,0.76672 -0.20098,1.84952 -0.11249,2.23526 0.0502,0.21886 0.0564,0.53533 0.019,0.97939 -0.0718,0.8527 0.0531,0.81372 -0.0471,0.88351 -0.0345,0.0855 -0.14986,0.11241 -0.25592,0.25295 -0.16556,0.21937 -0.27035,0.27877 -0.77091,0.22637 z m 4.45394,-20.02286 c 0.64295,-0.23023 0.82331,-0.32038 1.47625,-0.73788 0.51164,-0.32714 0.60603,-0.43499 0.53737,-0.61393 -0.0212,-0.0554 -0.41661,-0.40967 -0.87855,-0.78726 -0.9441,-0.77172 -1.09133,-0.82348 -1.43952,-0.50612 -0.16457,0.15 -0.21382,0.26892 -0.29209,0.70526 -0.14946,0.83312 -0.16193,2.1324 -0.0205,2.13184 0.0451,-1.8e-4 0.32277,-0.0865 0.61703,-0.19191 z m -4.72887,-0.85049 c -0.091,-1.24817 -0.14208,-1.61766 -0.25168,-1.82171 -0.14284,-0.26597 -0.41146,-0.47724 -0.55764,-0.43857 -0.0627,0.0166 -0.49781,0.30405 -0.96689,0.63881 -0.5591,0.399 -0.85985,0.65582 -0.87315,0.7456 -0.0163,0.10977 0.11398,0.22484 0.65605,0.5796 0.67448,0.44142 1.53039,0.87976 1.71785,0.87976 0.0544,0 0.11738,0.03 0.14004,0.0667 0.0227,0.0367 0.0727,0.0472 0.1113,0.0233 0.0471,-0.0291 0.055,-0.2498 0.0241,-0.67352 z"
       id="path6" /></g></svg>
