<?xml version="1.0" encoding="UTF-8" standalone="no"?>
<svg
   width="36.347576mm"
   height="23.967228mm"
   viewBox="0 0 36.347576 23.967229"
   version="1.1"
   id="svg1"
   xml:space="preserve"
   xmlns="http://www.w3.org/2000/svg"><defs
   id="defs1" /><g
   id="layer1"
   transform="translate(-767.76417,-112.73793)"><path
   style="fill:#7a7a7a;fill-opacity:1;stroke-width:0.191451"
   d="m -10,0 c -0.47967,-0.0486 -0.61294,-0.30745 -0.40929,-0.79484 0.0791,-0.18935 0.18935,-0.27697 0.59097,-0.46976 0.27154,-0.13035 0.62244,-0.26881 0.77977,-0.30772 0.17242,-0.0426 0.37368,-0.16132 0.50655,-0.29873 0.27141,-0.28064 0.64,-0.88306 0.77628,-1.26877 0.21583,-0.61081 0.33912,-4.91842 0.1595,-5.57296 -0.0686,-0.25003 -0.14375,-0.33059 -0.58768,-0.63015 -0.72422,-0.4887 -1.10458,-1.13179 -1.41511,-2.39262 l -0.0498,-0.20262 -0.062,0.29028 -0.062,0.29029 -0.1368,-0.1739 c -0.0752,-0.0956 -0.1605,-0.25666 -0.18949,-0.35782 l -0.0528,-0.18393 -0.076,0.18981 c -0.1004,0.25097 -0.18608,0.18613 -0.41907,-0.31712 l -0.19123,-0.413 -0.005,0.30393 c -0.005,0.28906 -0.0104,0.29732 -0.11162,0.16885 -0.0584,-0.0743 -0.15486,-0.24146 -0.21411,-0.37147 -0.10365,-0.22741 -0.10875,-0.22998 -0.13435,-0.0675 -0.0534,0.33912 -0.28319,0.46175 -0.28474,0.15196 -0.002,-0.2534 -0.0698,-0.48966 -0.14203,-0.48966 -0.0328,0 -0.0597,0.0575 -0.0597,0.12785 0,0.0704 -0.0455,0.14536 -0.10132,0.16674 -0.0731,0.028 -0.1013,-0.008 -0.1013,-0.12679 0,-0.0922 -0.0922,-0.26355 -0.20774,-0.38623 l -0.20775,-0.22058 0.0319,0.28239 c 0.0315,0.2794 0.0301,0.28158 -0.13502,0.20635 -0.17712,-0.0807 -0.35868,-0.36776 -0.36039,-0.56981 -0.002,-0.19607 -0.13131,0.0439 -0.13499,0.24992 l -0.003,0.16885 -0.19988,-0.21971 c -0.12114,-0.13317 -0.21748,-0.32984 -0.24458,-0.49929 l -0.0447,-0.27958 -0.1143,0.22105 c -0.14649,0.28327 -0.20306,0.1612 -0.20306,-0.43818 0,-0.60241 -0.0407,-0.6803 -0.23663,-0.45269 -0.2052,0.23841 -0.25716,0.17249 -0.17014,-0.21585 0.0807,-0.35993 0.029,-0.6735 -0.10251,-0.623 -0.1115,0.0428 -0.16611,-0.10118 -0.16611,-0.43792 0,-0.22371 -0.0277,-0.27684 -0.17325,-0.33217 -0.27789,-0.10565 -0.66359,-0.0776 -1.46249,0.10639 -0.69358,0.15973 -0.78168,0.16602 -1.21137,0.0866 -0.40431,-0.0748 -1.41832,0.26724 -1.78617,-0.0452 -0.23187,-0.19699 -0.45959,-0.38911 -0.50602,-0.42692 -0.21709,-0.17677 0.8117,-0.78527 1.56293,-1.48714 0.41038,-0.38343 0.63381,-0.81568 0.68714,-0.89701 0.0534,-0.0813 0.16421,-0.52686 0.27079,-0.85103 0.34372,-1.04546 0.59723,-1.57587 1.60453,-2.29504 0.64955,-0.46374 1.25407,-0.78105 1.79606,-0.94269 0.20396,-0.0608 0.30877,-0.14381 0.40326,-0.31926 0.16266,-0.30205 0.49796,-0.55889 0.7296,-0.55889 0.13355,0 0.22778,0.069 0.36509,0.2676 l 0.1851,0.26759 0.50654,0.003 c 0.27861,0.002 0.66613,0.0224 0.86117,0.0458 0.31311,0.0376 0.34078,0.0531 0.23638,0.13234 -0.10359,0.0786 -0.078,0.09 0.20703,0.0919 0.17889,7.7e-4 0.3905,-0.0328 0.47026,-0.0755 0.14058,-0.0753 0.14176,-0.0727 0.0388,0.0844 l -0.10619,0.16204 0.27757,-0.022 c 0.15266,-0.0121 0.36874,0.0131 0.48019,0.0561 l 0.20261,0.0781 -0.18573,0.0981 c -0.26683,0.14086 -0.22959,0.18318 0.11562,0.13142 0.18764,-0.0281 0.35744,-0.0152 0.44997,0.0343 0.14614,0.0782 0.14497,0.0811 -0.0697,0.17134 -0.12009,0.0505 -0.19921,0.12277 -0.17583,0.16061 0.0535,0.0866 0.53798,0.0893 0.83287,0.005 0.19282,-0.0553 0.22034,-0.0485 0.20135,0.0502 -0.0121,0.0628 -0.1128,0.15846 -0.22378,0.21256 l -0.2018,0.0984 0.49776,0.0847 c 0.27379,0.0466 0.5151,0.10203 0.53626,0.12319 0.0211,0.0211 -0.0357,0.091 -0.12632,0.15511 -0.16286,0.11529 -0.15857,0.11704 0.37022,0.15041 0.34238,0.0216 0.54501,0.0642 0.56282,0.1182 0.0174,0.0529 -0.0372,0.0844 -0.14663,0.0844 -0.30205,0 -0.18935,0.12036 0.15733,0.16805 0.19937,0.0274 0.38632,0.0164 0.46834,-0.0274 0.23365,-0.12505 0.30685,-0.0896 0.18832,0.0913 l -0.1077,0.16438 0.23124,-0.0376 c 0.28611,-0.0465 0.72936,0.0306 0.67568,0.11742 -0.0218,0.0353 -0.0968,0.0641 -0.16673,0.0641 -0.0699,0 -0.14471,0.0285 -0.16618,0.0632 -0.0238,0.0385 0.20575,0.0493 0.58696,0.0276 l 0.62609,-0.0356 -0.2364,0.15811 -0.23638,0.15811 0.43901,0.039 c 0.24147,0.0214 0.40102,0.0442 0.35458,0.0507 -0.0465,0.006 -0.0844,0.0441 -0.0844,0.0837 0,0.0396 0.0531,0.0571 0.1182,0.0386 0.065,-0.0184 0.28235,-0.0543 0.48298,-0.0798 0.31425,-0.0399 0.35916,-0.0318 0.32432,0.0591 -0.0317,0.0826 0.026,0.1154 0.26678,0.15151 0.19586,0.0294 0.27542,0.0657 0.21951,0.10027 -0.0602,0.0373 -0.0254,0.0671 0.11138,0.0952 0.1095,0.0225 0.39666,0.0996 0.63809,0.17127 0.64548,0.19155 0.91181,0.22508 1.07867,0.13579 0.13786,-0.0738 0.14222,-0.0694 0.0681,0.0691 l -0.0792,0.14795 0.69881,-0.0496 c 0.38436,-0.0273 0.91157,-0.10605 1.1716,-0.17501 0.26003,-0.069 0.56395,-0.12337 0.67541,-0.1209 l 0.2026,0.005 -0.22691,0.0653 c -0.38214,0.10996 -0.20245,0.12717 0.56964,0.0545 0.65824,-0.0619 0.96428,-0.11544 1.41278,-0.24708 0.11833,-0.0347 0.12343,-0.0261 0.0424,0.0716 -0.0843,0.10158 -0.0428,0.11106 0.4862,0.11106 0.51919,0 0.79648,0.0744 0.56989,0.15294 -0.16717,0.0579 0.34003,0.11052 1.53613,0.15927 0.66863,0.0273 1.1245,0.0681 1.01307,0.0908 l -0.20261,0.0412 0.16883,0.0472 c 0.0929,0.026 0.27833,0.0475 0.41213,0.0481 0.25543,7.7e-4 1.57498,0.31132 1.74914,0.41139 0.0738,0.0424 0.0469,0.0588 -0.0994,0.0603 -0.17033,0.002 -0.12932,0.0362 0.27069,0.22797 0.59871,0.28691 1.01347,0.73406 1.53958,1.65977 0.53686,0.94464 1.10829,1.81192 1.24725,1.89294 0.10749,0.0627 0.10729,0.0671 -0.003,0.0691 -0.095,0.002 -0.0714,0.0627 0.12202,0.31615 0.25242,0.33071 0.53304,0.83407 0.46493,0.83407 -0.0734,0 0.39082,0.77199 0.66238,1.10144 0.14721,0.17861 0.25036,0.34204 0.22921,0.36318 -0.0591,0.0591 0.32302,0.58127 0.61079,0.83463 0.14146,0.12457 0.24794,0.25593 0.23658,0.29191 -0.0111,0.036 0.16045,0.25032 0.3818,0.47628 0.39115,0.39937 0.91421,1.13916 0.85047,1.20291 -0.0174,0.0174 0.0425,0.19581 0.13302,0.39649 0.22178,0.49148 0.28186,1.14199 0.146,1.58057 -0.0576,0.18574 -0.10496,0.39653 -0.10535,0.46843 0,0.0719 -0.0668,0.20107 -0.14756,0.28705 -0.0808,0.086 -0.11119,0.15631 -0.0675,0.15631 0.18418,0 0.0565,0.13258 -0.23467,0.24382 -0.30753,0.11744 -0.31932,0.11698 -0.57409,-0.0226 -0.14307,-0.0784 -0.2601,-0.11254 -0.2601,-0.076 0,0.0881 -0.36613,-0.16589 -0.73582,-0.51036 -0.16322,-0.15211 -0.27173,-0.23258 -0.24108,-0.17885 0.13853,0.24291 -0.3951,-0.24244 -0.67295,-0.61207 -0.19818,-0.26363 -0.30898,-0.36606 -0.30926,-0.28592 0,0.17367 -0.20028,-0.13083 -0.54901,-0.83725 -0.15119,-0.30629 -0.29851,-0.54231 -0.32731,-0.5245 -0.0289,0.0178 -0.18335,-0.25627 -0.34335,-0.60908 -0.16001,-0.35282 -0.34605,-0.69136 -0.41342,-0.75234 -0.14575,-0.1319 -0.15492,-0.0538 -0.0211,0.18024 0.11049,0.19328 0.1429,0.77673 0.0338,0.60786 -0.0461,-0.0712 -0.0657,0.0279 -0.0665,0.33373 0,0.40451 -0.008,0.42583 -0.10583,0.30392 -0.10338,-0.1293 -0.10434,-0.12924 -0.0716,0.004 0.0181,0.0743 0.068,0.37822 0.11066,0.6754 0.10275,0.71633 0.24039,1.00653 0.68999,1.45482 0.47057,0.46924 0.53759,0.68051 0.77055,2.4287 0.29968,2.24885 0.242,3.21989 -0.21691,3.651 -0.1529,0.14365 -0.25386,0.1639 -1.02828,0.20627 -1.01987,0.0558 -1.17227,0.0333 -1.43522,-0.21238 -0.23271,-0.21738 -0.2524,-0.41788 -0.0704,-0.71648 0.10029,-0.16446 0.22992,-0.24564 0.57647,-0.36096 0.54089,-0.18 0.63591,-0.3051 0.71598,-0.94286 0.0511,-0.40705 0.0365,-0.56579 -0.10294,-1.11538 -0.22925,-0.90365 -0.27413,-0.96079 -0.37004,-0.47081 -0.21156,1.08084 -0.63514,2.12681 -1.04504,2.58054 -0.13702,0.15167 -0.39457,0.36908 -0.57231,0.48314 -0.36424,0.23373 -0.60838,0.25335 -1.7632,0.1417 -0.72911,-0.0705 -0.87825,-0.17163 -0.87825,-0.59561 0,-0.19972 0.0535,-0.29096 0.31241,-0.53199 0.3688,-0.34346 0.6238,-0.42842 1.07674,-0.35879 0.3909,0.0601 0.50983,0.0107 0.69212,-0.28754 0.37799,-0.61847 0.47089,-1.78179 0.19046,-2.38409 -0.3071,-0.65946 -1.55831,-1.78973 -2.46397,-2.22581 -0.41637,-0.20047 -0.90021,-0.63112 -1.26835,-1.12888 l -0.23507,-0.31786 -0.20478,0.21655 c -0.11262,0.11911 -0.18475,0.17783 -0.16026,0.13049 0.0573,-0.11085 -0.0246,-0.48802 -0.10592,-0.48802 -0.0342,0 -0.0621,0.0854 -0.0621,0.18971 0,0.10435 -0.0446,0.24871 -0.0992,0.32081 -0.0953,0.12606 -0.0993,0.12429 -0.10132,-0.0461 -0.003,-0.0975 -0.0216,-0.27472 -0.0455,-0.3938 -0.0531,-0.26556 -0.15674,-0.14593 -0.15828,0.18274 -0.003,0.26829 -0.0796,0.27792 -0.27488,0.0338 l -0.14858,-0.18573 0.0328,0.20262 c 0.0179,0.11144 0.0547,0.25359 0.0814,0.31588 0.0871,0.20278 -0.2329,0.0576 -0.37002,-0.16786 l -0.12413,-0.20409 -0.0472,0.19688 c -0.0825,0.34445 -0.17188,0.39663 -0.28372,0.16566 -0.0547,-0.11284 -0.12599,-0.20516 -0.1585,-0.20516 -0.0887,0 -0.0711,0.36616 0.0221,0.45927 0.063,0.063 0.0403,0.081 -0.10232,0.081 -0.13211,0 -0.21847,-0.0577 -0.30907,-0.20674 l -0.12572,-0.20675 -0.0448,0.17872 c -0.0247,0.0983 -0.0264,0.23692 -0.004,0.30805 0.0226,0.0711 0.0144,0.12934 -0.0184,0.12934 -0.10424,0 -0.355,-0.27143 -0.355,-0.38423 0,-0.0621 -0.0873,0.0117 -0.20303,0.17148 -0.19775,0.27293 -0.4119,0.40162 -0.28193,0.16939 0.0341,-0.061 0.0474,-0.16679 0.0296,-0.2351 -0.0293,-0.11192 -0.0566,-0.1043 -0.27669,0.0771 -0.27789,0.22906 -0.37427,0.25407 -0.32039,0.0831 0.0206,-0.0651 0.0137,-0.20605 -0.0151,-0.31344 l -0.0525,-0.19524 -0.10765,0.16429 c -0.0592,0.0904 -0.11869,0.22164 -0.13218,0.29174 -0.0388,0.20143 -0.15294,0.15779 -0.23268,-0.089 -0.067,-0.20736 -0.082,-0.2171 -0.18133,-0.11779 -0.0596,0.0595 -0.12763,0.16929 -0.1513,0.2439 -0.0238,0.0746 -0.0713,0.11823 -0.10573,0.0969 -0.0844,-0.0521 -0.0795,-0.34598 0.008,-0.51029 0.0497,-0.0927 -0.0236,-0.0607 -0.24155,0.10575 -0.37658,0.28745 -0.45424,0.29785 -0.39544,0.053 l 0.0445,-0.18573 -0.16149,0.14191 c -0.29053,0.25534 -0.35227,0.26526 -0.23459,0.0377 0.16373,-0.31663 0.12573,-0.40808 -0.0676,-0.16275 -0.22572,0.28641 -0.30359,0.2782 -0.22036,-0.0232 0.0369,-0.1335 0.0475,-0.26221 0.0238,-0.28604 -0.0704,-0.0704 -0.30092,0.27796 -0.30513,0.46122 l -0.004,0.16885 -0.0923,-0.16668 c -0.0511,-0.0921 -0.0789,-0.27339 -0.0625,-0.40524 0.0324,-0.25978 0.0489,-0.27238 -0.27944,0.21442 -0.0743,0.11016 -0.23703,0.26345 -0.36162,0.34064 l -0.22651,0.14033 0.13521,-0.26505 c 0.11475,-0.22496 0.12303,-0.29487 0.0547,-0.46222 l -0.0806,-0.19717 -0.14355,0.24326 c -0.11337,0.19214 -0.42445,0.46618 -0.42445,0.3739 0,-0.0108 0.0273,-0.11478 0.0606,-0.23099 0.0333,-0.11622 0.0394,-0.31357 0.0134,-0.43857 l -0.0472,-0.22727 -0.17468,0.37989 c -0.0961,0.20893 -0.19546,0.57364 -0.22085,0.81047 -0.0254,0.23682 -0.122,0.8257 -0.21471,1.30861 -0.22138,1.15315 -0.21679,1.40466 0.0428,2.3448 l 0.2185,0.79138 -0.10612,0.4581 c -0.0584,0.25196 -0.14154,0.68605 -0.18484,0.96464 -0.11006,0.70853 -0.29447,1.16022 -0.60388,1.47903 -0.32265,0.33248 -0.50245,0.38412 -0.99382,0.28544 -0.20808,-0.0418 -0.60898,-0.076 -0.89092,-0.076 -0.28195,0 -0.61641,-0.0298 -0.74327,-0.0661 -0.21851,-0.0627 -0.24288,-0.0519 -0.4627,0.20494 -0.38876,0.45417 -0.63169,0.5384 -1.51499,0.52525 -0.41937,-0.006 -0.88408,-0.0237 -1.03267,-0.0388 z m 4.25663,-2.07224 c 0.27797,-0.18213 0.37956,-0.41393 0.48277,-1.10141 0.091,-0.60622 0.0895,-0.69145 -0.0184,-1.05028 -0.0645,-0.21478 -0.13699,-0.36674 -0.161,-0.33769 -0.0539,0.0652 -0.37938,1.24612 -0.43578,1.58125 -0.0227,0.13486 -0.16424,0.43548 -0.31456,0.66804 l -0.27329,0.42284 0.27741,-0.0373 c 0.15258,-0.0204 0.35181,-0.086 0.44275,-0.14554 z"
   id="path5" />
    </g>
</svg>
