<?xml version="1.0" encoding="UTF-8" standalone="no"?>
<!-- Created with Inkscape (http://www.inkscape.org/) -->

<svg
   width="21.665686mm"
   height="18.27463mm"
   viewBox="0 0 21.665686 18.27463"
   version="1.1"
   id="svg1"
   xml:space="preserve"
   xmlns="http://www.w3.org/2000/svg"
   xmlns:svg="http://www.w3.org/2000/svg"><defs
   id="defs1" /><g
   id="layer1"
   transform="translate(-813.64113,-118.43053)"><path
   style="fill:#7a7a7a;fill-opacity:1;stroke-width:0.247956"
   d="m 826.12726,136.69846 c -0.003,-0.005 -0.0141,-0.01 -0.0238,-0.01 -0.01,0 -0.0303,-0.006 -0.0456,-0.0145 -0.0154,-0.008 -0.0345,-0.0147 -0.0425,-0.0149 -0.008,-1.7e-4 -0.0474,-0.0177 -0.0876,-0.039 -0.0401,-0.0213 -0.0775,-0.0387 -0.083,-0.0387 -0.0129,0 -0.17037,-0.15791 -0.17037,-0.17085 0,-0.005 -0.0187,-0.0348 -0.0414,-0.0654 -0.04,-0.0538 -0.0541,-0.0787 -0.12784,-0.22849 -0.0191,-0.0386 -0.0386,-0.0781 -0.0435,-0.0877 -0.0126,-0.025 -0.0308,-0.0845 -0.0308,-0.10146 0,-0.008 -0.005,-0.0197 -0.0119,-0.0263 -0.006,-0.006 -0.0107,-0.0267 -0.009,-0.0448 0.003,-0.0181 -0.003,-0.0358 -0.008,-0.0393 -0.005,-0.004 -0.0104,-0.0238 -0.0104,-0.0452 0,-0.0254 -0.005,-0.0406 -0.0146,-0.0443 -0.0104,-0.004 -0.0146,-0.0204 -0.0146,-0.0581 0,-0.0289 -0.005,-0.0525 -0.01,-0.0525 -0.005,0 -0.01,-0.0307 -0.01,-0.0725 0,-0.0399 -0.005,-0.0752 -0.01,-0.0785 -0.005,-0.003 -0.01,-0.0315 -0.01,-0.0627 0,-0.0385 -0.005,-0.0606 -0.0146,-0.0688 -0.0101,-0.008 -0.0146,-0.0309 -0.0146,-0.0743 0,-0.0342 -0.004,-0.0621 -0.009,-0.0621 -0.005,0 -0.0114,-0.0318 -0.0141,-0.0706 -0.003,-0.0389 -0.0101,-0.10788 -0.0159,-0.15343 -0.006,-0.0455 -0.0129,-0.12553 -0.0157,-0.17776 -0.003,-0.0522 -0.009,-0.095 -0.0141,-0.095 -0.005,0 -0.009,-0.0323 -0.009,-0.0719 0,-0.052 -0.004,-0.0752 -0.0146,-0.084 -0.0104,-0.009 -0.0146,-0.0314 -0.0146,-0.0785 0,-0.0366 -0.005,-0.0691 -0.01,-0.0724 -0.005,-0.003 -0.01,-0.0342 -0.01,-0.0687 0,-0.0353 -0.004,-0.0627 -0.01,-0.0627 -0.005,0 -0.01,-0.0261 -0.01,-0.0588 0,-0.0379 -0.005,-0.0674 -0.0159,-0.083 -0.0112,-0.0169 -0.0144,-0.0372 -0.0109,-0.0674 0.006,-0.0525 -0.0117,-0.0733 -0.0622,-0.0733 -0.0246,0 -0.0407,-0.008 -0.0585,-0.0268 -0.0371,-0.0405 -0.0597,-0.0968 -0.0531,-0.13245 0.003,-0.0187 2e-5,-0.0416 -0.009,-0.0586 -0.0167,-0.0316 -0.0196,-0.0994 -0.005,-0.10846 0.005,-0.004 0.01,-0.0595 0.01,-0.13509 0,-0.0984 0.003,-0.13356 0.0144,-0.14797 0.0198,-0.0263 0.0193,-0.0882 0,-0.0959 -0.0126,-0.005 -0.0144,-0.0144 -0.009,-0.0482 0.005,-0.0323 0.003,-0.0452 -0.009,-0.055 -0.0107,-0.009 -0.0137,-0.0213 -0.009,-0.0404 0.003,-0.0169 10e-5,-0.0395 -0.009,-0.0584 -0.008,-0.017 -0.0154,-0.0452 -0.0154,-0.0628 0,-0.0176 -0.005,-0.0347 -0.01,-0.038 -0.005,-0.003 -0.01,-0.023 -0.01,-0.0438 0,-0.0208 -0.005,-0.0405 -0.01,-0.0438 -0.005,-0.003 -0.01,-0.02 -0.01,-0.0371 -1.8e-4,-0.0171 -0.007,-0.0396 -0.0147,-0.05 -0.008,-0.0104 -0.0144,-0.0332 -0.0144,-0.0505 0,-0.0174 -0.005,-0.0343 -0.01,-0.0377 -0.005,-0.003 -0.01,-0.0384 -0.01,-0.0779 0,-0.0396 -0.005,-0.0746 -0.01,-0.0779 -0.005,-0.003 -0.01,-0.0405 -0.01,-0.0828 0,-0.0422 -0.005,-0.0795 -0.01,-0.0828 -0.005,-0.003 -0.01,-0.0299 -0.01,-0.0591 v -0.053 h -0.11203 -0.11202 v -0.0488 c 0,-0.0269 -0.005,-0.0573 -0.0117,-0.0676 -0.009,-0.0142 -0.009,-0.0242 0,-0.0412 0.006,-0.0124 0.0131,-0.0401 0.0158,-0.0614 0.007,-0.0589 0.0171,-0.0958 0.0308,-0.11202 0.0241,-0.0285 0.0419,-0.21722 0.0228,-0.24015 -0.007,-0.008 -0.0114,-0.0302 -0.01,-0.0483 0.003,-0.0217 -0.003,-0.0349 -0.0112,-0.0383 -0.008,-0.003 -0.0121,-0.0141 -0.01,-0.0273 0.003,-0.0126 -0.003,-0.0275 -0.0112,-0.0348 -0.0101,-0.008 -0.0154,-0.0288 -0.0154,-0.0597 0,-0.0258 -0.005,-0.0496 -0.01,-0.053 -0.005,-0.003 -0.01,-0.0145 -0.01,-0.0249 0,-0.0151 -0.007,-0.0189 -0.0338,-0.0189 -0.0445,0 -0.0539,-0.0193 -0.0539,-0.11081 0,-0.0402 -0.005,-0.0758 -0.01,-0.0791 -0.005,-0.004 -0.01,-0.0663 -0.01,-0.15524 0,-0.1146 -0.003,-0.15178 -0.0134,-0.16031 -0.0107,-0.009 -0.0124,-0.0382 -0.008,-0.14221 0.005,-0.11546 0.003,-0.13184 -0.0109,-0.13725 -0.0129,-0.005 -0.0159,-0.0204 -0.0159,-0.0776 0,-0.0393 -0.005,-0.0742 -0.01,-0.0775 -0.005,-0.003 -0.01,-0.0318 -0.01,-0.0633 0,-0.0315 -0.005,-0.06 -0.01,-0.0633 -0.005,-0.003 -0.01,-0.034 -0.01,-0.0683 0,-0.0478 -0.003,-0.0644 -0.0161,-0.0713 -0.0129,-0.007 -0.0149,-0.018 -0.01,-0.0537 0.005,-0.0329 0.003,-0.0467 -0.008,-0.0524 -0.009,-0.005 -0.0154,-0.0324 -0.0188,-0.0758 -0.008,-0.10289 -0.0161,-0.16345 -0.0249,-0.18508 -0.0121,-0.0301 -0.03,-0.10977 -0.03,-0.13464 0,-0.0123 -0.006,-0.0309 -0.0144,-0.0412 -0.008,-0.0104 -0.0144,-0.0285 -0.0146,-0.0402 -1.7e-4,-0.0118 -0.005,-0.024 -0.0101,-0.0274 -0.005,-0.003 -0.01,-0.0256 -0.01,-0.0494 0,-0.0239 -0.004,-0.051 -0.009,-0.0603 -0.005,-0.009 -0.0139,-0.0345 -0.0206,-0.0559 -0.007,-0.0214 -0.0176,-0.0521 -0.0243,-0.0682 -0.007,-0.0161 -0.0176,-0.0489 -0.0243,-0.073 -0.006,-0.0241 -0.0159,-0.0515 -0.0208,-0.0608 -0.005,-0.009 -0.009,-0.026 -0.009,-0.0372 0,-0.0111 -0.0109,-0.0346 -0.0243,-0.0522 -0.0134,-0.0176 -0.0243,-0.0404 -0.0243,-0.0508 0,-0.0104 -0.0285,-0.0764 -0.0633,-0.1468 -0.0348,-0.0704 -0.0633,-0.13258 -0.0633,-0.13827 0,-0.005 -0.0109,-0.0175 -0.0243,-0.0263 -0.0134,-0.009 -0.0243,-0.0234 -0.0243,-0.0325 0,-0.009 -0.0132,-0.0291 -0.0292,-0.0445 -0.0184,-0.0176 -0.0292,-0.0378 -0.0292,-0.0543 0,-0.0219 -0.005,-0.027 -0.0297,-0.0306 -0.0164,-0.002 -0.0318,-7.7e-4 -0.0344,0.003 -0.003,0.004 -0.0682,0.0386 -0.14571,0.0763 -0.0775,0.0377 -0.15916,0.0818 -0.18137,0.0979 -0.0224,0.0161 -0.0449,0.0293 -0.0502,0.0293 -0.005,0 -0.0241,0.011 -0.0418,0.0243 -0.0176,0.0134 -0.0355,0.0245 -0.0399,0.0247 -0.005,2.2e-4 -0.0226,0.0129 -0.0405,0.0282 l -0.0325,0.0278 -0.0601,-0.0392 c -0.0617,-0.0402 -0.18177,-0.15069 -0.18177,-0.16717 0,-0.005 -0.006,-0.0164 -0.0141,-0.025 -0.0254,-0.028 -0.0749,-0.12875 -0.0698,-0.14198 0.003,-0.007 -0.003,-0.0181 -0.009,-0.0245 -0.009,-0.008 -0.0141,-0.0303 -0.0141,-0.064 0,-0.0488 -0.003,-0.0524 -0.0233,-0.0524 -0.0129,0 -0.0462,0.0154 -0.074,0.0341 -0.0278,0.0187 -0.0532,0.0341 -0.0564,0.0341 -0.003,0 -0.0149,0.008 -0.0258,0.0183 -0.0357,0.0324 -0.25421,0.13757 -0.2859,0.13757 -0.0167,0 -0.0329,0.005 -0.0362,0.01 -0.003,0.005 -0.0226,0.01 -0.043,0.01 -0.0429,0 -0.10585,-0.0381 -0.0983,-0.0594 0.003,-0.008 0.006,-0.0761 0.008,-0.15246 0.003,-0.11158 0,-0.1388 -0.0101,-0.1388 -0.007,0 -0.0174,0.004 -0.0223,0.009 -0.005,0.005 -0.0268,0.0139 -0.0482,0.0202 -0.10362,0.0301 -0.15232,0.0386 -0.22465,0.0389 -0.0742,2.4e-4 -0.08,-0.002 -0.10565,-0.028 -0.0246,-0.0256 -0.0267,-0.0332 -0.0221,-0.0804 0.008,-0.0751 0.0171,-0.11754 0.0323,-0.13945 0.007,-0.0106 0.0131,-0.0255 0.0131,-0.0332 0,-0.0118 -0.003,-0.0116 -0.0171,7.7e-4 -0.0283,0.0246 -0.0691,0.0307 -0.20872,0.0314 -0.14803,7.5e-4 -0.1642,-0.005 -0.21012,-0.0724 -0.0187,-0.0275 -0.0218,-0.045 -0.0218,-0.11957 0,-0.0861 -2.5e-4,-0.0873 -0.0218,-0.0807 -0.0121,0.004 -0.0359,0.0102 -0.053,0.0146 -0.0171,0.005 -0.0462,0.0172 -0.0645,0.0286 -0.0184,0.0114 -0.0449,0.0207 -0.059,0.0207 -0.0141,0 -0.0257,0.004 -0.0257,0.009 0,0.009 -0.0532,0.0171 -0.18171,0.0263 l -0.0794,0.006 -0.005,0.0307 c -0.003,0.0169 -0.0117,0.0561 -0.0204,0.0872 -0.009,0.0311 -0.0159,0.0799 -0.0159,0.10854 0,0.0352 -0.005,0.0537 -0.0134,0.0572 -0.008,0.003 -0.0159,0.0274 -0.0196,0.0619 -0.0114,0.10763 -0.0179,0.14448 -0.0266,0.1537 -0.005,0.005 -0.009,0.023 -0.009,0.0399 0,0.0168 -0.007,0.0442 -0.0151,0.0608 -0.008,0.0166 -0.0176,0.0677 -0.0208,0.11353 -0.003,0.0518 -0.0109,0.0875 -0.0191,0.0943 -0.007,0.006 -0.0132,0.0214 -0.0132,0.0343 0,0.0128 -0.004,0.0309 -0.009,0.0402 -0.005,0.009 -0.0144,0.0432 -0.0211,0.0753 -0.007,0.0321 -0.0174,0.0651 -0.0236,0.073 -0.006,0.008 -0.0174,0.04 -0.0243,0.071 -0.007,0.031 -0.0166,0.0588 -0.0211,0.0614 -0.005,0.003 -0.008,0.0141 -0.008,0.0253 0,0.0112 -0.024,0.0653 -0.0535,0.12019 -0.0295,0.0549 -0.0535,0.11061 -0.0535,0.12372 0,0.0131 -0.008,0.031 -0.0176,0.0399 -0.01,0.009 -0.0273,0.0353 -0.0391,0.0589 -0.0117,0.0236 -0.0279,0.0482 -0.0358,0.0548 -0.008,0.007 -0.0144,0.0161 -0.0144,0.0212 0,0.005 -0.0101,0.0231 -0.0226,0.0402 -0.0903,0.12367 -0.13446,0.18028 -0.15648,0.20073 -0.0139,0.013 -0.0254,0.0284 -0.0254,0.0342 0,0.0128 -0.31302,0.32695 -0.32576,0.32695 -0.005,0 -0.0453,0.034 -0.0897,0.0755 -0.12665,0.11837 -0.18232,0.16619 -0.23122,0.19858 -0.0249,0.0165 -0.0495,0.0379 -0.0547,0.0475 -0.005,0.01 -0.0324,0.0339 -0.0607,0.054 -0.0638,0.0454 -0.76724,0.74451 -0.76724,0.76245 0,0.007 -0.023,0.0357 -0.0513,0.0634 -0.0282,0.0276 -0.0619,0.0657 -0.0748,0.0844 -0.0129,0.0187 -0.0435,0.057 -0.068,0.0849 -0.084,0.0958 -0.10783,0.1269 -0.10783,0.1404 0,0.008 -0.009,0.019 -0.0193,0.0257 -0.0107,0.007 -0.0311,0.0307 -0.0454,0.0534 -0.0144,0.0227 -0.0337,0.0468 -0.0431,0.0535 -0.009,0.007 -0.0316,0.0352 -0.0492,0.0633 -0.0176,0.0282 -0.0367,0.0583 -0.0423,0.067 -0.005,0.009 -0.0369,0.0551 -0.0697,0.10309 -0.0513,0.0751 -0.13501,0.22758 -0.15933,0.29018 -0.004,0.0107 -0.0124,0.0317 -0.0187,0.0467 -0.006,0.015 -0.0109,0.0419 -0.0109,0.0597 0,0.0179 -0.006,0.0378 -0.0144,0.0443 -0.008,0.007 -0.0137,0.0264 -0.0131,0.0454 0,0.0184 -0.003,0.0386 -0.0101,0.0449 -0.006,0.006 -0.0114,0.0323 -0.0114,0.0581 0,0.0257 -0.005,0.0468 -0.0101,0.0468 -0.007,0 -0.009,0.0821 -0.005,0.25082 0.005,0.27483 0.0101,0.34249 0.031,0.38859 0.009,0.0189 0.0117,0.0427 0.008,0.0621 -0.005,0.0237 -0.003,0.0337 0.01,0.0405 0.0114,0.006 0.0161,0.0225 0.0161,0.0566 0,0.0262 0.005,0.0504 0.01,0.0537 0.005,0.003 0.01,0.0318 0.01,0.0633 0,0.0315 0.005,0.06 0.01,0.0634 0.005,0.003 0.01,0.023 0.01,0.0438 0,0.0208 0.005,0.0406 0.01,0.0439 0.005,0.003 0.01,0.019 0.01,0.0349 0,0.0167 0.006,0.0313 0.0146,0.0346 0.009,0.003 0.0146,0.018 0.0146,0.0363 0,0.0169 0.009,0.0548 0.0196,0.0841 0.0107,0.0293 0.0196,0.0655 0.0196,0.0804 0,0.0149 0.0109,0.0445 0.0243,0.0657 0.0134,0.0212 0.0243,0.0454 0.0243,0.0538 0,0.008 0.009,0.0324 0.0196,0.0534 0.0107,0.021 0.0196,0.0441 0.0196,0.0514 0,0.0193 0.11493,0.24218 0.13705,0.26582 0.0104,0.0111 0.0188,0.027 0.0188,0.0353 0,0.008 0.007,0.021 0.0154,0.028 0.008,0.007 0.0255,0.0328 0.038,0.0572 0.0124,0.0244 0.034,0.0551 0.048,0.068 0.0139,0.013 0.0253,0.0297 0.0253,0.0373 0,0.0154 0.18651,0.1978 0.23797,0.23277 0.0184,0.0124 0.0668,0.0402 0.10759,0.0617 0.0593,0.0313 0.0845,0.0391 0.12538,0.0391 0.0281,0 0.0553,0.004 0.0604,0.009 0.005,0.005 0.0728,0.0116 0.15052,0.0146 0.0776,0.003 0.20478,0.008 0.28247,0.0108 0.0777,0.003 0.1454,0.01 0.15048,0.0147 0.005,0.005 0.0297,0.009 0.0548,0.009 0.0286,0 0.0501,0.005 0.0577,0.0146 0.007,0.008 0.0234,0.0146 0.037,0.0146 0.0731,0 0.20262,0.0652 0.26491,0.13334 0.0268,0.0293 0.0487,0.0595 0.0487,0.0671 0,0.008 0.005,0.0138 0.01,0.0138 0.005,0 0.01,0.0129 0.01,0.0286 0,0.0157 0.005,0.0313 0.01,0.0346 0.005,0.004 0.01,0.0663 0.01,0.15523 0,0.17367 0,0.17556 -0.0829,0.17224 -0.0323,-0.002 -0.0638,0.004 -0.0818,0.013 -0.0161,0.008 -0.0389,0.0151 -0.0509,0.0151 -0.0278,0 -0.0806,0.0168 -0.13025,0.0412 -0.0604,0.0298 -0.12186,0.0459 -0.15227,0.0399 -0.0176,-0.004 -0.0368,4.9e-4 -0.0524,0.0106 -0.0223,0.0147 -0.0267,0.0147 -0.0462,0.002 -0.0119,-0.008 -0.0248,-0.015 -0.029,-0.015 -0.0139,0 -0.008,0.0656 0.007,0.0779 0.01,0.008 0.0146,0.0303 0.0146,0.0694 v 0.0572 h -0.0299 c -0.0164,0 -0.0358,-0.006 -0.043,-0.0131 -0.0141,-0.014 -0.15847,-0.0411 -0.16809,-0.0315 -0.003,0.003 -0.0129,-7.5e-4 -0.0213,-0.009 -0.0124,-0.0112 -0.0582,-0.0151 -0.21509,-0.0183 -0.19907,-0.004 -0.23002,-0.007 -0.33087,-0.028 -0.0728,-0.0154 -0.0968,-0.0336 -0.20614,-0.15626 -0.0274,-0.0308 -0.0558,-0.056 -0.0629,-0.056 -0.007,0 -0.0273,-0.009 -0.0448,-0.0194 -0.029,-0.0177 -0.0492,-0.0194 -0.22857,-0.0195 -0.12058,-2e-5 -0.19901,-0.004 -0.2027,-0.01 -0.003,-0.005 -0.0183,-0.01 -0.0336,-0.01 -0.0194,0 -0.0366,-0.0101 -0.0576,-0.0341 -0.0164,-0.0187 -0.0366,-0.0341 -0.0448,-0.0341 -0.008,0 -0.0149,-0.008 -0.0149,-0.0189 0,-0.0104 -0.008,-0.0247 -0.0179,-0.0316 -0.0216,-0.0153 -0.099,-0.16612 -0.099,-0.19261 0,-0.0103 -0.005,-0.0214 -0.01,-0.0247 -0.005,-0.003 -0.01,-0.0233 -0.01,-0.0444 0,-0.0211 -0.005,-0.0384 -0.01,-0.0384 -0.005,0 -0.01,-0.0167 -0.01,-0.037 0,-0.0203 -0.005,-0.0419 -0.0109,-0.048 -0.006,-0.006 -0.0107,-0.0321 -0.01,-0.0578 0,-0.0374 -0.008,-0.0643 -0.0426,-0.13253 -0.0238,-0.0471 -0.0435,-0.096 -0.0435,-0.10864 0,-0.0127 -0.006,-0.0255 -0.0146,-0.0286 -0.008,-0.003 -0.0146,-0.014 -0.0146,-0.0242 0,-0.0102 -0.007,-0.0246 -0.0159,-0.0318 -0.009,-0.008 -0.0352,-0.0528 -0.0588,-0.10103 -0.0236,-0.0483 -0.0577,-0.10754 -0.0759,-0.13164 -0.0324,-0.0431 -0.0831,-0.13535 -0.0831,-0.15133 0,-0.005 -0.008,-0.0172 -0.0188,-0.0283 -0.0104,-0.0111 -0.0306,-0.0442 -0.0451,-0.0736 -0.0146,-0.0295 -0.0363,-0.067 -0.0485,-0.0833 -0.0121,-0.0164 -0.0381,-0.063 -0.0577,-0.10364 -0.0196,-0.0407 -0.0441,-0.0817 -0.0546,-0.0911 -0.0104,-0.009 -0.0191,-0.0216 -0.0191,-0.0269 0,-0.0182 -0.0501,-0.11218 -0.0689,-0.12918 -0.0104,-0.009 -0.0188,-0.0248 -0.0188,-0.0344 0,-0.01 -0.008,-0.0231 -0.0174,-0.0302 -0.01,-0.007 -0.0345,-0.0478 -0.0553,-0.0907 -0.0208,-0.0429 -0.0478,-0.0911 -0.0597,-0.10715 -0.0121,-0.0161 -0.0416,-0.071 -0.0658,-0.12207 -0.0243,-0.0511 -0.0524,-0.10367 -0.0628,-0.11689 -0.0218,-0.028 -0.16057,-0.30314 -0.18879,-0.37471 -0.0107,-0.0268 -0.0253,-0.0618 -0.0326,-0.0779 -0.008,-0.0161 -0.0199,-0.0468 -0.0274,-0.0682 -0.008,-0.0214 -0.0235,-0.063 -0.0351,-0.0925 -0.0273,-0.0695 -0.0334,-0.12864 -0.0314,-0.30683 0,-0.11736 0.005,-0.14824 0.0164,-0.15693 0.008,-0.006 0.0146,-0.0203 0.0146,-0.0319 0,-0.0274 0.064,-0.15159 0.10192,-0.19792 0.0396,-0.0484 0.10441,-0.12939 0.14634,-0.18306 0.0188,-0.0241 0.0648,-0.0899 0.10205,-0.14612 0.0373,-0.0562 0.0767,-0.11392 0.0877,-0.12816 0.0109,-0.0142 0.0198,-0.0323 0.0198,-0.0402 0,-0.008 0.007,-0.02 0.0154,-0.027 0.008,-0.007 0.0257,-0.033 0.0382,-0.0578 0.0126,-0.0247 0.0297,-0.0508 0.0383,-0.0578 0.008,-0.007 0.0154,-0.0208 0.0154,-0.0307 0,-0.01 0.009,-0.0226 0.0193,-0.0283 0.0107,-0.005 0.022,-0.0212 0.0254,-0.0344 0.003,-0.0132 0.01,-0.0241 0.0146,-0.0241 0.005,0 0.009,-0.009 0.009,-0.0189 0,-0.0104 0.005,-0.0217 0.0101,-0.0252 0.0146,-0.009 0.0581,-0.0799 0.0581,-0.0946 0,-0.007 0.009,-0.0179 0.0196,-0.0246 0.0107,-0.007 0.0196,-0.0202 0.0196,-0.03 0,-0.01 0.009,-0.0263 0.0208,-0.0365 0.0114,-0.0102 0.0336,-0.0468 0.0492,-0.0812 0.0156,-0.0345 0.0369,-0.0687 0.0474,-0.076 0.0104,-0.008 0.0191,-0.0191 0.0191,-0.026 0,-0.0197 0.0272,-0.069 0.0487,-0.0885 0.0107,-0.01 0.0196,-0.0249 0.0196,-0.0337 0,-0.009 0.004,-0.0202 0.009,-0.0253 0.008,-0.009 0.11921,-0.22817 0.15187,-0.30042 0.009,-0.0209 0.0193,-0.0552 0.0223,-0.0763 0.003,-0.0211 0.0112,-0.0407 0.0183,-0.0435 0.007,-0.003 0.0132,-0.0131 0.0132,-0.023 0,-0.01 0.003,-0.0201 0.008,-0.0229 0.005,-0.003 0.0139,-0.0304 0.0211,-0.0614 0.007,-0.031 0.0188,-0.0634 0.026,-0.0718 0.007,-0.008 0.0129,-0.0312 0.0129,-0.0505 0,-0.0194 0.005,-0.0379 0.01,-0.0412 0.005,-0.003 0.01,-0.0164 0.01,-0.0292 0,-0.0127 0.005,-0.0259 0.01,-0.0293 0.005,-0.003 0.01,-0.0224 0.01,-0.0425 0,-0.02 0.004,-0.0406 0.009,-0.0457 0.0104,-0.0109 0.0188,-0.067 0.0267,-0.17484 0.003,-0.0515 0.0101,-0.0806 0.0193,-0.0857 0.0104,-0.006 0.0137,-0.0336 0.0137,-0.11445 0,-0.0587 -0.003,-0.10667 -0.008,-0.10667 -0.0134,0 -0.0602,0.0538 -0.0602,0.0694 0,0.008 -0.0129,0.0242 -0.0286,0.0358 -0.0156,0.0116 -0.0443,0.0449 -0.0637,0.074 -0.0193,0.0291 -0.0503,0.0644 -0.0688,0.0786 -0.0187,0.0141 -0.0338,0.033 -0.0338,0.0419 0,0.0161 -0.074,0.0964 -0.38232,0.41434 -0.0897,0.0926 -0.16316,0.17512 -0.16316,0.18346 0,0.008 -0.0154,0.0234 -0.0341,0.0336 -0.0194,0.0104 -0.0341,0.0259 -0.0341,0.0356 0,0.0108 -0.008,0.0173 -0.0196,0.0173 -0.0173,0 -0.0196,0.006 -0.0196,0.0623 0,0.0449 -0.004,0.0637 -0.0139,0.0676 -0.01,0.004 -0.0154,0.0292 -0.0188,0.0911 -0.006,0.10607 -0.0154,0.16706 -0.0268,0.17411 -0.005,0.003 -0.009,0.0153 -0.009,0.0275 0,0.0121 -0.0109,0.0324 -0.0243,0.0449 -0.0134,0.0126 -0.0243,0.0305 -0.0243,0.0398 0,0.018 -0.0479,0.063 -0.085,0.0798 -0.0218,0.01 -0.022,0.0127 -0.022,0.17843 0,0.10171 -0.004,0.1707 -0.01,0.17434 -0.005,0.003 -0.01,0.0315 -0.01,0.0627 0,0.0385 -0.005,0.0606 -0.0146,0.0688 -0.008,0.007 -0.0146,0.0271 -0.0146,0.0455 0,0.0362 -0.0188,0.0799 -0.0432,0.10006 -0.008,0.007 -0.0154,0.0209 -0.0154,0.0309 0,0.0113 -0.007,0.0183 -0.0179,0.0183 -0.01,0 -0.026,0.009 -0.0356,0.0195 -0.0141,0.0156 -0.03,0.0195 -0.0794,0.0195 h -0.0618 v 0.34092 c 0,0.28567 -0.003,0.34093 -0.0137,0.34093 -0.008,0 -0.0371,-0.0158 -0.0657,-0.0352 l -0.0522,-0.0352 -0.003,0.0319 c -0.003,0.0214 0.003,0.0347 0.0121,0.0405 0.0216,0.012 0.0226,0.27644 0.003,0.32273 -0.008,0.0169 -0.0161,0.0592 -0.0188,0.094 -0.007,0.0968 -0.0164,0.13653 -0.0415,0.18161 -0.0126,0.0227 -0.023,0.0489 -0.023,0.0584 0,0.0186 -0.0725,0.0912 -0.0911,0.0912 -0.006,0 -0.0284,0.0114 -0.049,0.0255 -0.0354,0.024 -0.0372,0.0276 -0.0322,0.0652 0.003,0.0246 -1.8e-4,0.0529 -0.009,0.0743 -0.008,0.019 -0.0121,0.0435 -0.009,0.0545 0.003,0.011 -0.003,0.0323 -0.009,0.0475 -0.008,0.0151 -0.0144,0.0402 -0.0144,0.0557 0,0.0155 -0.004,0.0359 -0.009,0.0452 -0.005,0.009 -0.0141,0.041 -0.0206,0.0705 -0.006,0.0295 -0.0179,0.0633 -0.0254,0.0752 -0.008,0.0119 -0.0137,0.0316 -0.0137,0.044 0,0.0124 -0.0117,0.0396 -0.0258,0.0605 l -0.0259,0.038 -0.0746,-0.0796 c -0.0743,-0.0792 -0.10307,-0.095 -0.11376,-0.0625 -0.003,0.009 -0.0124,0.0324 -0.0208,0.0512 -0.008,0.0187 -0.0184,0.0495 -0.0223,0.0682 -0.004,0.0187 -0.0141,0.0595 -0.0226,0.0906 -0.008,0.031 -0.0156,0.0652 -0.0156,0.0758 0,0.0106 -0.007,0.0218 -0.0146,0.0249 -0.01,0.004 -0.0146,0.0192 -0.0146,0.0468 0,0.0339 -0.004,0.0435 -0.0243,0.0541 -0.0206,0.0111 -0.0269,0.0108 -0.0414,-0.002 -0.009,-0.008 -0.031,-0.0201 -0.0481,-0.0268 -0.0171,-0.007 -0.0386,-0.0206 -0.0478,-0.0308 -0.009,-0.0102 -0.0211,-0.0186 -0.0263,-0.0186 -0.005,0 -0.0254,-0.0134 -0.0448,-0.0298 -0.0193,-0.0163 -0.0588,-0.0476 -0.0875,-0.0693 l -0.0522,-0.0395 0.006,0.0425 c 0.003,0.0234 0.009,0.0763 0.0118,0.11767 0.003,0.0464 0.0109,0.0794 0.0194,0.0864 0.008,0.006 0.0137,0.0282 0.0137,0.0489 0,0.0404 0.0164,0.11976 0.0303,0.14736 0.005,0.009 0.009,0.0319 0.009,0.0501 0,0.0197 0.005,0.0353 0.0139,0.0385 0.009,0.004 0.0154,0.0271 0.0188,0.0717 0.008,0.0967 0.0168,0.14916 0.0268,0.14916 0.005,0 0.009,0.011 0.009,0.0245 0,0.0134 0.004,0.0321 0.009,0.0414 0.005,0.009 0.0141,0.041 0.0206,0.0705 0.006,0.0295 0.0179,0.0633 0.0253,0.0751 0.008,0.0118 0.0137,0.0394 0.0137,0.0611 0,0.06 0.0476,0.14714 0.0918,0.16824 0.0196,0.009 0.0447,0.0169 0.056,0.0169 0.027,0 0.13517,0.0386 0.15485,0.0552 0.008,0.007 0.0243,0.013 0.0351,0.013 0.0304,0 0.11081,0.046 0.15446,0.0884 0.0216,0.021 0.0436,0.0382 0.0488,0.0382 0.0117,0 0.28684,0.27459 0.28684,0.2863 0,0.005 0.0144,0.0252 0.0316,0.0456 0.0601,0.0707 0.0755,0.095 0.0755,0.11955 0,0.0136 0.005,0.0274 0.01,0.0307 0.005,0.003 0.01,0.0191 0.01,0.035 0,0.016 0.007,0.0399 0.0159,0.0532 0.0146,0.0224 0.0146,0.0256 0,0.0419 -0.009,0.01 -0.0159,0.0317 -0.0159,0.0489 0,0.046 -0.0233,0.0838 -0.079,0.12777 -0.0437,0.0345 -0.0553,0.039 -0.10149,0.039 -0.0286,0 -0.0548,-0.005 -0.0581,-0.01 -0.003,-0.005 -0.0151,-0.01 -0.0259,-0.01 -0.0109,0 -0.0337,-0.0116 -0.0505,-0.0258 l -0.0306,-0.0258 -0.003,0.0571 c -0.003,0.0314 -0.008,0.0628 -0.0134,0.0696 -0.007,0.008 -0.037,0.0125 -0.09,0.0125 -0.0438,0 -0.0844,0.005 -0.0901,0.0104 -0.0154,0.0154 -0.17451,0.0168 -0.18966,0.002 -0.007,-0.007 -0.029,-0.0122 -0.0495,-0.0122 -0.0206,0 -0.0645,-0.009 -0.0979,-0.0201 -0.0496,-0.0165 -0.0733,-0.0327 -0.13052,-0.0892 l -0.07,-0.0691 -0.0262,0.0311 c -0.0144,0.0171 -0.0416,0.0376 -0.0602,0.0454 -0.0455,0.019 -0.22542,0.019 -0.285,1.1e-4 -0.0531,-0.0169 -0.15391,-0.0586 -0.16256,-0.0673 -0.003,-0.004 -0.0141,-0.006 -0.0236,-0.006 -0.009,0 -0.023,-0.008 -0.0303,-0.0184 -0.007,-0.0101 -0.0303,-0.0257 -0.0513,-0.0345 -0.021,-0.009 -0.0463,-0.0232 -0.0559,-0.0319 -0.01,-0.009 -0.0256,-0.0206 -0.0355,-0.0264 -0.0689,-0.0405 -0.11475,-0.0773 -0.1937,-0.15515 -0.0495,-0.0488 -0.0901,-0.0943 -0.0901,-0.10088 0,-0.007 -0.0117,-0.033 -0.026,-0.0587 -0.0383,-0.0687 -0.0616,-0.13833 -0.0616,-0.18471 0,-0.0225 -0.005,-0.0437 -0.01,-0.047 -0.005,-0.003 -0.01,-0.0164 -0.01,-0.0293 0,-0.0128 -0.005,-0.0259 -0.01,-0.0292 -0.005,-0.003 -0.01,-0.0271 -0.01,-0.053 0,-0.0299 -0.005,-0.0514 -0.0146,-0.0591 -0.01,-0.008 -0.0141,-0.0271 -0.0132,-0.0551 0,-0.0237 -0.003,-0.0481 -0.01,-0.0543 -0.007,-0.007 -0.0114,-0.0435 -0.0114,-0.0916 0,-0.0442 -0.005,-0.083 -0.01,-0.0863 -0.006,-0.004 -0.01,-0.0827 -0.01,-0.20455 0,-0.12185 -0.003,-0.20086 -0.01,-0.20455 -0.006,-0.004 -0.01,-0.0976 -0.01,-0.24928 0,-0.18736 -0.003,-0.25082 -0.0137,-0.27615 -0.0109,-0.0259 -0.0132,-0.0803 -0.0107,-0.25538 0.003,-0.1783 0,-0.22675 -0.0107,-0.24396 -0.0121,-0.019 -0.0117,-0.0226 0.003,-0.031 0.0161,-0.009 0.0161,-0.01 -7e-5,-0.0161 -0.0149,-0.005 -0.0171,-0.021 -0.0171,-0.12184 0,-0.0664 -0.004,-0.11783 -0.01,-0.12129 -0.005,-0.003 -0.01,-0.0318 -0.01,-0.0633 0,-0.0315 -0.005,-0.06 -0.01,-0.0633 -0.005,-0.003 -0.01,-0.0338 -0.01,-0.0677 0,-0.0458 -0.003,-0.0631 -0.0146,-0.0673 -0.009,-0.003 -0.0146,-0.0181 -0.0146,-0.0377 0,-0.0177 -0.009,-0.0561 -0.0196,-0.0854 -0.0107,-0.0293 -0.0196,-0.0676 -0.0196,-0.0851 0,-0.0175 -0.005,-0.0318 -0.01,-0.0318 -0.005,0 -0.01,-0.0252 -0.0101,-0.056 -2e-4,-0.0308 -0.007,-0.067 -0.0141,-0.0804 -0.0208,-0.0364 -0.0208,-0.33915 0,-0.34715 0.008,-0.003 0.0146,-0.0157 0.0146,-0.0279 0,-0.0375 0.053,-0.15502 0.10077,-0.22341 0.025,-0.0356 0.0453,-0.0684 0.0453,-0.0728 0,-0.005 0.0243,-0.0333 0.0541,-0.0642 0.0296,-0.0309 0.0599,-0.0677 0.0672,-0.0817 0.007,-0.014 0.0685,-0.0794 0.13615,-0.14535 0.0676,-0.066 0.12079,-0.12339 0.11817,-0.12766 -0.003,-0.005 0.006,-0.0179 0.0194,-0.0303 0.029,-0.0273 0.0299,-0.0455 0.005,-0.0997 -0.0505,-0.1107 -0.0493,-0.10071 -0.0493,-0.39652 0,-0.23703 0.003,-0.28457 0.0156,-0.31105 0.0104,-0.021 0.0134,-0.0425 0.009,-0.0656 -0.004,-0.0221 -0.003,-0.0395 0.006,-0.0491 0.007,-0.008 0.0161,-0.0396 0.0204,-0.0699 0.005,-0.0303 0.0107,-0.0715 0.0137,-0.0916 0.003,-0.0201 0.009,-0.039 0.0141,-0.0419 0.005,-0.003 0.009,-0.0216 0.009,-0.0413 1.6e-4,-0.0198 0.007,-0.0445 0.0146,-0.0548 0.008,-0.0108 0.0144,-0.0399 0.0144,-0.0676 0,-0.0513 0.0163,-0.15327 0.0299,-0.18623 0.005,-0.0107 0.0101,-0.037 0.0129,-0.0584 0.003,-0.0214 0.008,-0.0631 0.0114,-0.0925 0.003,-0.0295 0.0126,-0.0605 0.02,-0.069 0.009,-0.0101 0.0114,-0.0262 0.008,-0.0461 -0.004,-0.0202 0,-0.0385 0.009,-0.0535 0.008,-0.0126 0.0174,-0.0552 0.0204,-0.0951 0.01,-0.13209 0.0174,-0.18902 0.0263,-0.19836 0.005,-0.005 0.009,-0.0408 0.009,-0.0793 0,-0.0518 0.003,-0.0714 0.0138,-0.0754 0.0188,-0.007 0.0249,-0.11797 0.0306,-0.55609 0.003,-0.23205 0.003,-0.35331 -0.005,-0.35993 -0.005,-0.006 -0.01,-0.0606 -0.01,-0.1286 0,-0.0936 -0.003,-0.12118 -0.0147,-0.13074 -0.0114,-0.009 -0.0146,-0.0358 -0.0146,-0.11808 0,-0.0641 -0.003,-0.10596 -0.01,-0.10596 -0.006,0 -0.01,-0.0452 -0.01,-0.11632 0,-0.067 -0.004,-0.11886 -0.01,-0.12233 -0.0134,-0.008 -0.0134,-1.06321 0,-1.07148 0.005,-0.003 0.01,-0.0318 0.01,-0.0633 0,-0.0315 0.005,-0.06 0.01,-0.0633 0.005,-0.003 0.01,-0.0224 0.01,-0.0425 0,-0.02 0.005,-0.0417 0.0117,-0.0481 0.006,-0.006 0.0149,-0.0347 0.0187,-0.0628 0.0139,-0.10131 0.021,-0.13397 0.0294,-0.13397 0.005,0 0.008,-0.0139 0.008,-0.031 0,-0.0303 0.0106,-0.071 0.0341,-0.12976 0.006,-0.016 0.0174,-0.0445 0.0246,-0.0633 0.007,-0.0187 0.0164,-0.0383 0.0208,-0.0433 0.005,-0.005 0.008,-0.0259 0.008,-0.0462 0,-0.0204 0.005,-0.037 0.01,-0.037 0.005,0 0.01,-0.0173 0.01,-0.0384 0,-0.0211 0.003,-0.0407 0.008,-0.0435 0.005,-0.003 0.0141,-0.0261 0.0208,-0.0517 0.007,-0.0256 0.0179,-0.0531 0.0246,-0.0611 0.0126,-0.0157 0.0226,-0.0509 0.0309,-0.10964 0.003,-0.0201 0.009,-0.039 0.0139,-0.042 0.005,-0.003 0.009,-0.0177 0.009,-0.0329 0,-0.0151 0.007,-0.0329 0.0146,-0.0395 0.008,-0.007 0.0146,-0.0181 0.0146,-0.0253 0,-0.0162 0.0366,-0.13435 0.0541,-0.17435 0.007,-0.0161 0.0179,-0.0502 0.0243,-0.0756 0.006,-0.0256 0.0157,-0.0488 0.0204,-0.0517 0.005,-0.003 0.008,-0.0182 0.008,-0.0339 0,-0.0157 0.005,-0.0286 0.01,-0.0286 0.005,0 0.01,-0.0129 0.01,-0.0286 0,-0.0157 0.005,-0.0313 0.01,-0.0346 0.005,-0.003 0.01,-0.0187 0.01,-0.0342 0,-0.0155 0.006,-0.0316 0.0132,-0.0359 0.007,-0.005 0.0157,-0.0243 0.0188,-0.0446 0.003,-0.0203 0.0126,-0.0505 0.0208,-0.0673 0.008,-0.0168 0.0151,-0.0358 0.0151,-0.0423 0,-0.006 0.007,-0.0176 0.0151,-0.0244 0.008,-0.007 0.0126,-0.019 0.009,-0.027 -0.003,-0.008 0.003,-0.0224 0.0104,-0.0322 0.009,-0.01 0.0139,-0.0264 0.0109,-0.0372 -0.003,-0.0107 0,-0.0245 0.008,-0.0307 0.008,-0.006 0.0137,-0.0192 0.0137,-0.0288 0,-0.01 0.006,-0.0299 0.0146,-0.0451 0.0198,-0.0374 0.0926,-0.22817 0.0926,-0.24246 0,-0.006 0.0198,-0.0491 0.0438,-0.0952 0.0241,-0.0461 0.0438,-0.0924 0.0438,-0.10299 0,-0.0106 0.005,-0.0219 0.01,-0.0252 0.005,-0.003 0.01,-0.0168 0.01,-0.03 0,-0.0132 0.0109,-0.0413 0.0243,-0.0625 0.0134,-0.0212 0.0243,-0.0429 0.0243,-0.0481 0,-0.005 0.0131,-0.0318 0.0293,-0.0591 0.0161,-0.0273 0.0292,-0.0567 0.0292,-0.0654 0,-0.0178 0.22812,-0.47668 0.2483,-0.49952 0.007,-0.008 0.0328,-0.0545 0.0571,-0.10313 0.0243,-0.0487 0.0511,-0.0941 0.0594,-0.10104 0.008,-0.007 0.0151,-0.0171 0.0151,-0.0228 0,-0.005 0.0171,-0.0369 0.0379,-0.0694 0.0208,-0.0325 0.0408,-0.0688 0.0443,-0.0806 0.003,-0.0118 0.0194,-0.0323 0.0351,-0.0456 0.0159,-0.0133 0.0287,-0.0289 0.0287,-0.0349 0,-0.0147 0.0273,-0.0577 0.0591,-0.0928 0.0146,-0.0161 0.0293,-0.0391 0.033,-0.0512 0.003,-0.0121 0.0151,-0.0264 0.0254,-0.032 0.0104,-0.005 0.0188,-0.0185 0.0188,-0.0288 0,-0.0103 0.0154,-0.031 0.0341,-0.0459 0.0188,-0.015 0.0341,-0.0333 0.0341,-0.0409 0,-0.0141 0.0362,-0.0581 0.14754,-0.17902 0.0356,-0.0387 0.0663,-0.0769 0.0682,-0.085 0.006,-0.0254 0.37404,-0.37015 0.39514,-0.37015 0.005,0 0.0218,-0.0134 0.0374,-0.0297 0.0337,-0.0352 0.15133,-0.11633 0.21644,-0.14936 0.0254,-0.0128 0.0545,-0.0326 0.0646,-0.0439 0.0101,-0.0113 0.0226,-0.0205 0.0278,-0.0205 0.005,0 0.0646,-0.0277 0.13241,-0.0616 0.0678,-0.0339 0.16928,-0.0757 0.22551,-0.0931 0.0563,-0.0174 0.11471,-0.0379 0.12986,-0.0456 0.0151,-0.008 0.0417,-0.0141 0.059,-0.0141 0.0171,0 0.0355,-0.004 0.0406,-0.009 0.0104,-0.01 0.0872,-0.019 0.24015,-0.0286 0.062,-0.004 0.10917,-0.0115 0.11639,-0.0187 0.018,-0.0182 0.26791,-0.0162 0.30047,0.002 0.0204,0.0117 0.13442,0.014 0.71352,0.0143 0.50285,2.4e-4 0.68914,0.003 0.68914,0.0113 0,0.008 0.004,0.008 0.0139,-7.6e-4 0.0101,-0.008 0.0193,-0.009 0.0334,-0.002 0.0107,0.006 0.0656,0.0104 0.12183,0.0104 0.0578,0 0.10496,0.004 0.10835,0.01 0.003,0.005 0.0322,0.01 0.0642,0.01 0.0328,0 0.0676,0.006 0.0798,0.0135 0.0243,0.0151 0.13088,0.0285 0.21026,0.0263 0.0361,-7.7e-4 0.0558,0.003 0.0633,0.013 0.0114,0.0148 0.0595,0.019 0.35193,0.0303 0.0697,0.003 0.13545,0.009 0.14621,0.0148 0.023,0.0117 0.35835,0.005 0.53563,-0.01 0.0643,-0.005 0.1717,-0.0126 0.23867,-0.0156 0.067,-0.003 0.13236,-0.0108 0.14532,-0.0173 0.0324,-0.0161 0.58116,-0.0148 0.59741,0.002 0.008,0.008 0.13982,0.0112 0.48049,0.0112 0.40525,0 0.47094,-0.002 0.4814,-0.0146 0.007,-0.008 0.0216,-0.0146 0.033,-0.0146 0.0226,0 0.11711,-0.0323 0.13581,-0.0465 0.006,-0.005 0.0311,-0.0142 0.0553,-0.021 0.0241,-0.007 0.0504,-0.0178 0.0584,-0.0244 0.024,-0.0197 0.16787,-0.0729 0.22975,-0.0849 0.0317,-0.006 0.0646,-0.017 0.073,-0.0243 0.008,-0.008 0.0356,-0.0132 0.0603,-0.0132 0.0247,0 0.0476,-0.005 0.051,-0.01 0.003,-0.005 0.0274,-0.01 0.0535,-0.01 0.0261,0 0.0503,-0.005 0.0535,-0.01 0.003,-0.005 0.0315,-0.01 0.0627,-0.01 0.0385,0 0.0606,-0.005 0.0688,-0.0146 0.01,-0.0116 0.0379,-0.0146 0.13698,-0.0146 0.0727,0 0.12737,-0.004 0.13089,-0.01 0.003,-0.005 0.0188,-0.01 0.0346,-0.01 0.0246,0 0.0286,-0.004 0.0286,-0.0263 0,-0.015 -0.0109,-0.0376 -0.0254,-0.0528 -0.0252,-0.0263 -0.0253,-0.0267 -0.007,-0.0514 0.0144,-0.0198 0.0266,-0.0249 0.0595,-0.0251 0.0228,-1.6e-4 0.0414,-0.005 0.0414,-0.009 0,-0.009 0.0381,-0.0155 0.14609,-0.0267 0.0295,-0.003 0.058,-0.009 0.0633,-0.013 0.005,-0.004 0.033,-0.0104 0.0613,-0.014 0.0283,-0.004 0.0627,-0.0108 0.0764,-0.0161 0.023,-0.009 0.0246,-0.0131 0.0204,-0.0556 -0.003,-0.0254 -0.009,-0.0626 -0.0146,-0.0827 l -0.01,-0.0365 h 0.12988 c 0.0761,0 0.1324,0.004 0.13593,0.01 0.003,0.005 0.0551,0.01 0.12177,0.01 0.0667,0 0.11828,0.004 0.12174,0.01 0.003,0.005 0.0389,0.01 0.0791,0.01 0.0402,0 0.0707,-0.004 0.0677,-0.009 -0.003,-0.005 0,-0.0219 0.005,-0.0381 0.008,-0.0233 0.02,-0.0326 0.0578,-0.0449 0.0261,-0.009 0.0644,-0.0155 0.0851,-0.0155 0.0206,0 0.0419,-0.005 0.0473,-0.01 0.005,-0.005 0.0873,-0.0126 0.18215,-0.0161 l 0.1725,-0.007 v -0.0231 c 0,-0.0469 0.0597,-0.11988 0.0981,-0.11988 0.0146,0 0.0288,-0.006 0.0316,-0.0135 0.007,-0.0182 0.15118,-0.0193 0.1722,-0.002 0.008,0.007 0.0388,0.0153 0.0682,0.0187 0.12481,0.0147 0.14678,0.0185 0.15177,0.0266 0.009,0.0144 0.0392,0.009 0.0561,-0.009 0.0109,-0.0122 0.0161,-0.0353 0.0161,-0.073 0,-0.0488 0.003,-0.0552 0.0196,-0.0552 0.0106,0 0.0196,0.005 0.0196,0.01 0,0.012 0.14551,0.0129 0.1642,7.7e-4 0.009,-0.006 0.01,-0.0104 0.003,-0.0151 -0.006,-0.004 -0.0107,-0.0188 -0.0107,-0.0336 0,-0.0148 -0.0109,-0.0485 -0.0243,-0.0749 -0.0134,-0.0263 -0.0243,-0.0512 -0.0243,-0.0552 -8e-5,-0.0139 0.0324,-0.007 0.0845,0.0174 0.0302,0.0143 0.079,0.0273 0.11541,0.0306 l 0.0631,0.006 v -0.0306 c 0,-0.0291 0.003,-0.0306 0.0377,-0.0306 0.0208,0 0.0564,-0.006 0.0792,-0.0146 0.05,-0.0177 0.11048,-0.0189 0.13943,-0.003 0.0117,0.006 0.0475,0.0151 0.0797,0.0191 0.11691,0.0146 0.16615,0.0248 0.19479,0.0405 0.0389,0.0214 0.0508,0.0204 0.064,-0.006 0.0161,-0.0315 0.0969,-0.11356 0.12779,-0.12983 0.0144,-0.008 0.037,-0.0138 0.0499,-0.0138 0.0131,0 0.029,-0.006 0.0357,-0.0146 0.007,-0.008 0.0247,-0.0146 0.0402,-0.0146 0.0154,0 0.028,-0.004 0.028,-0.009 0,-0.01 0.0492,-0.0183 0.15587,-0.0267 0.0498,-0.004 0.0757,-0.0104 0.0814,-0.0203 0.007,-0.0121 0.0335,-0.014 0.16164,-0.0111 0.10754,0.002 0.15743,2e-5 0.16707,-0.008 0.008,-0.006 0.0532,-0.0134 0.10137,-0.0159 0.0481,-0.002 0.10729,-0.009 0.13138,-0.0147 0.10706,-0.025 0.1928,-0.041 0.22741,-0.0424 0.0211,-7.6e-4 0.0396,-0.008 0.0425,-0.0145 0.003,-0.009 0.0228,-0.013 0.0575,-0.013 0.029,0 0.0525,-0.003 0.0525,-0.008 0,-0.008 0.10995,-0.0314 0.14465,-0.0314 0.0101,0 0.024,-0.006 0.0307,-0.0146 0.007,-0.008 0.0282,-0.0146 0.0498,-0.0146 0.0208,0 0.0378,-0.005 0.0378,-0.01 0,-0.005 0.0191,-0.01 0.0422,-0.01 0.0544,0 0.1526,-0.0197 0.1526,-0.0306 0,-0.005 0.0129,-0.008 0.0286,-0.008 0.0157,0 0.0313,-0.005 0.0346,-0.01 0.003,-0.005 0.0129,-0.01 0.0216,-0.01 0.008,0 0.0379,-0.0105 0.0651,-0.0232 0.0795,-0.0372 0.12167,-0.0482 0.13664,-0.0358 0.009,0.008 0.0208,0.008 0.0392,7.5e-4 0.0144,-0.005 0.0385,-0.01 0.0535,-0.01 0.0151,0 0.0325,-0.006 0.0386,-0.0135 0.0126,-0.0153 0.0494,-0.0246 0.1269,-0.032 0.0409,-0.004 0.0555,-0.002 0.0641,0.01 0.009,0.0129 0.0211,0.005 0.0783,-0.0525 0.0369,-0.0373 0.0719,-0.0677 0.0776,-0.0677 0.005,0 0.0297,-0.0197 0.0534,-0.0439 0.0236,-0.0241 0.0504,-0.0438 0.0593,-0.0438 0.009,0 0.0216,-0.006 0.0281,-0.0142 0.0188,-0.0227 0.15536,-0.0929 0.18065,-0.0929 0.0126,0 0.0257,-0.005 0.0291,-0.01 0.003,-0.005 0.0394,-0.01 0.0802,-0.01 0.12342,0 0.17232,0.022 0.27651,0.12404 0.0453,0.0444 0.0769,0.0686 0.081,0.0621 0.003,-0.006 0.0169,-0.0108 0.0292,-0.0108 0.0124,0 0.028,-0.006 0.0347,-0.0146 0.007,-0.008 0.027,-0.0146 0.045,-0.0146 0.0343,0 0.25423,-0.10479 0.27668,-0.13185 0.006,-0.008 0.0179,-0.0143 0.0253,-0.0143 0.008,0 0.023,-0.011 0.0346,-0.0243 0.0117,-0.0134 0.0267,-0.0243 0.0336,-0.0243 0.007,0 0.0226,-0.01 0.0351,-0.022 0.023,-0.0222 0.10216,-0.0809 0.13643,-0.10113 0.0101,-0.006 0.0327,-0.0247 0.0499,-0.0414 0.0174,-0.0167 0.0358,-0.0303 0.0412,-0.0303 0.005,0 0.0248,-0.0154 0.0429,-0.0341 0.0181,-0.0187 0.0407,-0.0341 0.0501,-0.0341 0.009,0 0.0336,-0.0197 0.0538,-0.0439 0.02,-0.0241 0.0437,-0.0439 0.0523,-0.0439 0.009,0 0.0282,-0.0131 0.0436,-0.0292 0.0154,-0.0161 0.0329,-0.0292 0.0389,-0.0292 0.006,0 0.0257,-0.0153 0.0439,-0.0341 0.0181,-0.0187 0.0392,-0.0341 0.0468,-0.0341 0.008,0 0.0223,-0.011 0.0329,-0.0243 0.0104,-0.0134 0.027,-0.0243 0.0367,-0.0243 0.01,0 0.0233,-0.007 0.0305,-0.0156 0.007,-0.009 0.0657,-0.0418 0.13027,-0.0738 0.0645,-0.032 0.12423,-0.0644 0.13268,-0.0721 0.008,-0.008 0.0285,-0.0138 0.0446,-0.0138 0.0498,0 0.0532,0.0183 0.0486,0.2679 -0.005,0.23593 -0.0139,0.34387 -0.0322,0.36632 -0.0114,0.014 -0.0213,0.0801 -0.0263,0.17696 -0.003,0.031 -0.008,0.0614 -0.0144,0.0677 -0.006,0.006 -0.0114,0.0276 -0.0114,0.0474 0,0.0229 -0.005,0.038 -0.0146,0.0415 -0.008,0.003 -0.0141,0.0156 -0.0134,0.0278 0,0.0123 -0.0126,0.0617 -0.0296,0.10991 -0.0169,0.0482 -0.0352,0.10301 -0.0406,0.12177 -0.005,0.0187 -0.0248,0.067 -0.0431,0.10714 -0.0181,0.0402 -0.0355,0.084 -0.0383,0.0974 -0.003,0.0134 -0.0283,0.059 -0.0566,0.10126 -0.0283,0.0423 -0.0588,0.0901 -0.0679,0.10613 -0.009,0.016 -0.0307,0.0438 -0.048,0.0617 l -0.0315,0.0326 0.0383,0.0343 c 0.021,0.0189 0.0503,0.0409 0.065,0.049 0.0146,0.008 0.0329,0.0266 0.0406,0.0412 0.008,0.0147 0.0296,0.0417 0.0489,0.0602 0.0193,0.0185 0.0349,0.0389 0.0349,0.0455 0,0.006 0.01,0.0243 0.0218,0.0395 0.0313,0.0393 0.0462,0.0683 0.0462,0.0893 0,0.0101 0.0114,0.0349 0.0251,0.0552 0.0139,0.0204 0.023,0.0449 0.0206,0.0546 -0.003,0.01 0.003,0.023 0.01,0.0296 0.008,0.007 0.0126,0.0218 0.01,0.0352 -0.003,0.0141 0,0.0253 0.009,0.0284 0.008,0.003 0.0134,0.0197 0.0134,0.0425 0,0.0205 0.005,0.0401 0.01,0.0434 0.005,0.003 0.01,0.047 0.01,0.0974 0,0.0504 0.005,0.0941 0.01,0.0974 0.005,0.003 0.01,0.0425 0.01,0.087 0,0.0601 0.003,0.0842 0.0146,0.0932 0.0104,0.009 0.0146,0.0313 0.0146,0.0772 0,0.0358 0.004,0.0692 0.009,0.0743 0.005,0.005 0.0111,0.0356 0.0139,0.0677 0.005,0.0529 0.0141,0.11353 0.0303,0.19481 0.0228,0.11335 0.0293,0.13803 0.0397,0.15098 0.006,0.008 0.0213,0.0409 0.0333,0.073 0.0289,0.0785 0.1339,0.28726 0.15717,0.31233 0.0101,0.0111 0.0187,0.0273 0.0187,0.036 0,0.009 0.006,0.0195 0.0141,0.0239 0.008,0.005 0.0431,0.0471 0.0782,0.0948 0.0352,0.0478 0.0825,0.1083 0.10511,0.1345 0.0731,0.0848 0.44925,0.465 0.46004,0.465 0.005,0 0.0298,0.0197 0.0535,0.0438 0.0235,0.0241 0.0486,0.0439 0.0555,0.0439 0.007,0 0.0238,0.0125 0.0374,0.0279 0.0137,0.0154 0.0476,0.0431 0.0756,0.0617 0.19207,0.12786 0.2298,0.15405 0.23573,0.16365 0.003,0.005 0.0141,0.01 0.0238,0.01 0.01,0 0.023,0.006 0.0295,0.0141 0.006,0.008 0.0344,0.0275 0.0621,0.0439 0.0277,0.0164 0.0588,0.0352 0.069,0.0418 0.0101,0.007 0.0527,0.0341 0.0943,0.0609 0.0416,0.0268 0.10265,0.0663 0.13565,0.0877 0.033,0.0214 0.0743,0.0463 0.0917,0.0554 0.0173,0.009 0.039,0.0276 0.048,0.0414 0.009,0.0138 0.0235,0.025 0.0321,0.025 0.009,0 0.0347,0.0164 0.0579,0.0365 0.023,0.0201 0.0646,0.0541 0.0921,0.0755 0.11588,0.0903 0.27211,0.27458 0.27211,0.32096 0,0.0131 0.005,0.0268 0.0112,0.0306 0.008,0.005 0.009,0.0351 0.005,0.0983 -0.005,0.074 -0.0101,0.0994 -0.0302,0.13358 -0.0386,0.0658 -0.11094,0.1501 -0.13511,0.15738 -0.0121,0.004 -0.0351,0.0186 -0.0511,0.0332 -0.0356,0.0323 -0.33596,0.18558 -0.36375,0.18558 -0.0109,0 -0.0226,0.005 -0.0259,0.01 -0.003,0.005 -0.0184,0.01 -0.0335,0.01 -0.0151,0 -0.0329,0.006 -0.0395,0.0146 -0.007,0.008 -0.0193,0.0146 -0.0281,0.0146 -0.009,0 -0.04,0.009 -0.0693,0.0195 -0.0293,0.0107 -0.0651,0.0195 -0.0796,0.0195 -0.0146,0 -0.029,0.005 -0.0323,0.01 -0.003,0.005 -0.0187,0.01 -0.0341,0.01 -0.0154,0 -0.0308,0.005 -0.0341,0.01 -0.003,0.005 -0.0184,0.01 -0.0336,0.01 -0.0157,0 -0.03,0.006 -0.0332,0.0146 -0.003,0.008 -0.0156,0.0147 -0.0278,0.0148 -0.0241,1.6e-4 -0.0907,0.0213 -0.10158,0.0321 -0.003,0.004 -0.0228,0.007 -0.0428,0.007 -0.0198,0 -0.0412,0.006 -0.0473,0.0134 -0.006,0.008 -0.0319,0.0161 -0.0572,0.0195 -0.0913,0.0121 -0.11914,0.0181 -0.11914,0.0258 0,0.0137 -0.12464,0.021 -0.35554,0.0207 -0.26551,-2.5e-4 -0.41357,-0.008 -0.43197,-0.0237 -0.008,-0.006 -0.0425,-0.0123 -0.078,-0.0137 -0.13404,-0.005 -0.19735,-0.0142 -0.20273,-0.0282 -0.004,-0.0101 -0.024,-0.0137 -0.0753,-0.0137 -0.0386,0 -0.0743,-0.004 -0.0793,-0.009 -0.005,-0.005 -0.029,-0.0111 -0.0531,-0.014 -0.0769,-0.009 -0.11183,-0.0184 -0.1198,-0.0321 -0.005,-0.008 -0.0246,-0.0134 -0.0487,-0.0135 -0.0255,-1.3e-4 -0.0501,-0.008 -0.0652,-0.0193 -0.0139,-0.0109 -0.0397,-0.0191 -0.0603,-0.0193 -0.0199,-1.1e-4 -0.0387,-0.005 -0.0419,-0.01 -0.003,-0.005 -0.0187,-0.01 -0.0341,-0.01 -0.0154,0 -0.0308,-0.005 -0.0341,-0.01 -0.003,-0.005 -0.0228,-0.01 -0.0434,-0.01 -0.0243,0 -0.0393,-0.005 -0.043,-0.0146 -0.003,-0.01 -0.0188,-0.0146 -0.0443,-0.0146 -0.0213,0 -0.0414,-0.005 -0.0447,-0.01 -0.003,-0.005 -0.0319,-0.01 -0.0637,-0.01 -0.0534,0 -0.0587,0.002 -0.0718,0.0275 -0.008,0.0151 -0.0211,0.0332 -0.0295,0.0402 -0.008,0.007 -0.0154,0.0198 -0.0154,0.0285 -1.2e-4,0.009 -0.009,0.0268 -0.0194,0.0402 -0.0107,0.0135 -0.0191,0.0397 -0.0194,0.0589 -1.2e-4,0.019 -0.005,0.0395 -0.0111,0.0455 -0.0114,0.0114 -0.0151,0.0455 -0.024,0.217 -0.004,0.0742 -0.009,0.10441 -0.0194,0.11006 -0.009,0.005 -0.0139,0.0243 -0.0139,0.0555 0,0.0262 -0.005,0.0504 -0.01,0.0537 -0.005,0.003 -0.01,0.0187 -0.01,0.0341 0,0.0154 -0.005,0.0308 -0.01,0.0341 -0.005,0.003 -0.01,0.0189 -0.01,0.0346 0,0.0157 -0.003,0.0286 -0.008,0.0286 -0.004,0 -0.0204,0.0274 -0.0358,0.0609 -0.0293,0.0632 -0.0511,0.095 -0.0652,0.095 -0.005,0 -0.0252,-0.0153 -0.0458,-0.034 -0.0208,-0.0187 -0.0531,-0.0405 -0.0721,-0.0485 l -0.0345,-0.0144 -0.005,0.0412 c -0.009,0.0727 -0.0184,0.10896 -0.031,0.12392 -0.007,0.008 -0.0268,0.0453 -0.0442,0.0828 -0.0176,0.0375 -0.0456,0.0857 -0.0624,0.10714 -0.0168,0.0214 -0.0369,0.0482 -0.0446,0.0597 -0.008,0.0114 -0.0327,0.0451 -0.0554,0.0751 -0.0228,0.0299 -0.0414,0.0611 -0.0414,0.0694 0,0.0285 -0.0374,0.0165 -0.0517,-0.0167 -0.0288,-0.0669 -0.0555,-0.13969 -0.0555,-0.15117 0,-0.007 -0.003,-0.012 -0.008,-0.012 -0.008,0 -0.17756,0.16784 -0.17756,0.17621 0,0.003 -0.0241,0.042 -0.0535,0.0868 -0.0295,0.0448 -0.0535,0.0913 -0.0535,0.10346 0,0.0121 -0.003,0.0243 -0.008,0.0273 -0.005,0.003 -0.0114,0.027 -0.0149,0.0538 -0.003,0.0266 -0.01,0.0504 -0.0134,0.0528 -0.004,0.002 -0.0272,-0.01 -0.0518,-0.0264 -0.0246,-0.0168 -0.0751,-0.0509 -0.11203,-0.0758 -0.0369,-0.0249 -0.0755,-0.0544 -0.0857,-0.0657 -0.0101,-0.0113 -0.0266,-0.0206 -0.0363,-0.0206 -0.0198,0 -0.0516,0.053 -0.0439,0.0732 0.003,0.007 0,0.0183 -0.009,0.0246 -0.008,0.006 -0.0141,0.024 -0.0141,0.0391 0,0.0151 -0.004,0.0299 -0.009,0.0331 -0.0131,0.008 -0.0591,0.11149 -0.0591,0.13307 0,0.0144 -0.007,0.0183 -0.0332,0.0183 -0.0274,0 -0.0323,-0.003 -0.0285,-0.018 0.003,-0.0128 -0.0141,-0.0352 -0.0613,-0.0784 l -0.0659,-0.0604 -0.0117,0.0321 c -0.006,0.0177 -0.0171,0.0507 -0.0241,0.0733 -0.007,0.0226 -0.0208,0.0488 -0.0311,0.0582 -0.0104,0.009 -0.0272,0.0357 -0.0376,0.0586 -0.0159,0.0349 -0.0236,0.0416 -0.0468,0.0416 -0.0208,0 -0.0293,-0.005 -0.0334,-0.0219 -0.003,-0.0121 -0.0254,-0.0415 -0.0498,-0.0654 l -0.0443,-0.0435 -0.056,0.0545 c -0.0628,0.0613 -0.0872,0.0763 -0.12381,0.0763 -0.0139,0 -0.0278,0.006 -0.0309,0.0146 -0.003,0.008 -0.0151,0.0146 -0.0265,0.0145 -0.0114,-6e-5 -0.0472,0.009 -0.0793,0.0207 -0.0549,0.0195 -0.06,0.0241 -0.0852,0.0757 -0.0146,0.0302 -0.0268,0.0623 -0.0268,0.0713 0,0.009 -0.005,0.019 -0.01,0.0223 -0.005,0.003 -0.01,0.0187 -0.01,0.0341 0,0.0154 -0.005,0.0308 -0.01,0.0341 -0.005,0.003 -0.01,0.023 -0.01,0.0438 0,0.0208 -0.005,0.0405 -0.01,0.0439 -0.005,0.003 -0.01,0.0162 -0.01,0.0286 0,0.0124 -0.007,0.028 -0.0146,0.0347 -0.008,0.007 -0.0146,0.0247 -0.0146,0.0402 0,0.0154 -0.005,0.028 -0.01,0.028 -0.005,0 -0.01,0.0129 -0.01,0.0286 0,0.0157 -0.005,0.0313 -0.01,0.0346 -0.005,0.003 -0.01,0.0271 -0.01,0.053 0,0.0307 -0.005,0.0513 -0.0154,0.0596 -0.009,0.008 -0.0132,0.021 -0.01,0.0342 0.003,0.0141 0,0.0236 -0.009,0.0272 -0.008,0.003 -0.0146,0.0164 -0.0146,0.0298 0,0.0133 -0.005,0.0365 -0.0109,0.0515 -0.022,0.0548 -0.0263,0.0673 -0.0426,0.12219 -0.009,0.0308 -0.0204,0.0585 -0.0253,0.0614 -0.005,0.003 -0.009,0.0156 -0.009,0.028 0,0.0237 -0.0658,0.16404 -0.0796,0.16958 -0.005,0.002 -0.008,0.0154 -0.008,0.0302 0,0.0148 -0.0109,0.0419 -0.0241,0.0601 -0.0132,0.0182 -0.0289,0.0441 -0.0347,0.0574 -0.006,0.0134 -0.0184,0.0331 -0.0277,0.0439 -0.009,0.0108 -0.0352,0.0505 -0.0572,0.0884 -0.022,0.0379 -0.0469,0.0747 -0.0553,0.0816 -0.008,0.007 -0.0151,0.0189 -0.0151,0.0267 0,0.008 -0.0109,0.0258 -0.0241,0.0402 -0.0407,0.0442 -0.11227,0.13743 -0.11227,0.14628 0,0.005 -0.009,0.0163 -0.0196,0.026 -0.0107,0.01 -0.0196,0.024 -0.0196,0.0318 0,0.008 -0.0109,0.0227 -0.0243,0.0333 -0.0134,0.0105 -0.0243,0.0274 -0.0243,0.0376 0,0.0101 -0.009,0.0231 -0.0196,0.0289 -0.0107,0.006 -0.0196,0.0176 -0.0196,0.0263 0,0.009 -0.006,0.0231 -0.0144,0.0319 -0.0418,0.0461 -0.2291,0.39529 -0.2291,0.42699 0,0.006 -0.003,0.0194 -0.008,0.0287 -0.0126,0.0252 -0.0304,0.0843 -0.0304,0.10164 0,0.008 -0.006,0.0206 -0.0146,0.0272 -0.009,0.008 -0.0124,0.0206 -0.009,0.0352 0.004,0.0161 0,0.025 -0.01,0.0292 -0.009,0.004 -0.0157,0.0172 -0.0157,0.0336 0,0.0152 -0.005,0.0303 -0.01,0.0336 -0.005,0.003 -0.01,0.023 -0.01,0.0439 0,0.0208 -0.005,0.0405 -0.01,0.0438 -0.005,0.003 -0.01,0.0231 -0.01,0.0439 0,0.022 -0.005,0.0412 -0.0134,0.0457 -0.008,0.005 -0.0161,0.0264 -0.0196,0.0492 -0.0154,0.10553 -0.0184,0.11979 -0.0266,0.12484 -0.005,0.003 -0.009,0.0272 -0.009,0.0538 0,0.0359 -0.004,0.05 -0.0159,0.0545 -0.0144,0.005 -0.0141,0.008 0.003,0.0192 0.0139,0.0101 0.0154,0.0157 0.006,0.0247 -0.007,0.007 -0.0117,0.0416 -0.0117,0.0871 0,0.0415 -0.005,0.0781 -0.01,0.0814 -0.005,0.003 -0.01,0.0468 -0.01,0.0968 0,0.0688 -0.003,0.0937 -0.0146,0.10289 -0.0117,0.01 -0.0147,0.04 -0.0147,0.15647 0,0.0857 -0.004,0.14679 -0.01,0.15037 -0.006,0.004 -0.01,0.13141 -0.01,0.35066 0,0.21926 0.003,0.34684 0.01,0.35067 0.006,0.004 0.01,0.0711 0.01,0.16985 0,0.13427 0.003,0.16602 0.0147,0.17604 0.0132,0.0108 0.0129,0.0134 0,0.0237 -0.0141,0.0104 -0.0141,0.0125 -1.3e-4,0.0243 0.0124,0.0104 0.0154,0.0342 0.0154,0.12311 0,0.063 0.004,0.11283 0.01,0.11626 0.005,0.004 0.01,0.0531 0.01,0.11552 0,0.0745 0.004,0.11344 0.0121,0.12185 0.01,0.01 0.008,0.0151 -0.006,0.026 -0.0167,0.0123 -0.0168,0.0143 -0.003,0.0199 0.0137,0.005 0.0161,0.0226 0.0161,0.11228 0,0.0643 0.003,0.10611 0.01,0.10611 0.005,0 0.01,0.0339 0.01,0.0822 0,0.0452 0.005,0.0849 0.01,0.0882 0.005,0.003 0.01,0.0468 0.01,0.0968 0,0.0688 0.003,0.0937 0.0146,0.1029 0.0112,0.009 0.0146,0.0341 0.0146,0.10289 0,0.05 0.005,0.0935 0.01,0.0968 0.005,0.004 0.01,0.0616 0.01,0.14124 0,0.0796 0.004,0.1377 0.01,0.14125 0.005,0.003 0.01,0.0428 0.01,0.0877 0,0.0449 0.005,0.0844 0.01,0.0877 0.005,0.003 0.01,0.0428 0.01,0.0878 0,0.06 0.003,0.0838 0.0137,0.0895 0.008,0.005 0.0159,0.0313 0.0193,0.0663 0.003,0.0322 0.008,0.0847 0.0111,0.11689 0.003,0.0322 0.01,0.0672 0.0144,0.0779 0.005,0.0107 0.0112,0.0524 0.0137,0.0925 0.008,0.12777 0.0171,0.17996 0.0309,0.18799 0.009,0.005 0.0137,0.0256 0.0137,0.0609 0,0.0292 0.004,0.0531 0.009,0.0531 0.008,0 0.0129,0.0303 0.0263,0.17046 0.003,0.0322 0.0124,0.066 0.0206,0.0753 0.0112,0.0126 0.0137,0.0291 0.009,0.065 -0.004,0.0355 -0.003,0.0512 0.008,0.0598 0.009,0.007 0.0141,0.0296 0.0141,0.0586 0,0.0258 0.005,0.0496 0.01,0.053 0.005,0.003 0.01,0.0233 0.01,0.0444 0,0.0211 0.005,0.0384 0.01,0.0384 0.005,0 0.01,0.0129 0.01,0.0286 0,0.0157 0.005,0.0313 0.01,0.0346 0.005,0.003 0.01,0.0271 0.01,0.053 0,0.0298 0.005,0.0514 0.0146,0.0591 0.008,0.007 0.0146,0.0247 0.0146,0.0402 0,0.0154 0.003,0.028 0.008,0.028 0.004,0 0.0137,0.0208 0.021,0.0462 0.0168,0.0579 0.0816,0.1888 0.12042,0.24342 0.0316,0.0444 0.0932,0.0805 0.13747,0.0805 0.0149,0 0.0398,-0.01 0.0552,-0.0219 0.0864,-0.0675 0.084,-0.0663 0.11099,-0.0561 0.0141,0.005 0.0422,0.01 0.0621,0.01 0.0201,0 0.0413,0.005 0.0473,0.0109 0.006,0.006 0.0387,0.0145 0.0726,0.019 0.0339,0.005 0.0836,0.0129 0.11034,0.0187 0.0268,0.006 0.0619,0.013 0.0779,0.0158 0.0963,0.017 0.21917,0.12191 0.21917,0.18712 0,0.0103 0.006,0.0243 0.0146,0.0309 0.008,0.007 0.0146,0.0245 0.0146,0.0395 0,0.0151 0.005,0.0302 0.01,0.0335 0.005,0.003 0.01,0.0142 0.01,0.0243 0,0.0395 0.12268,0.19491 0.15385,0.19491 0.0238,0 0.18478,0.14665 0.23497,0.21404 0.0191,0.0257 0.023,0.0419 0.0216,0.0866 0,0.0303 -0.007,0.0673 -0.0129,0.0823 -0.0121,0.0303 -0.131,0.11387 -0.16192,0.11387 -0.0168,0 -0.0615,0.0174 -0.0994,0.0386 -0.0107,0.006 -0.0286,-0.005 -0.0657,-0.0417 l -0.0512,-0.0498 v 0.0341 c 0,0.0684 -0.14638,0.17432 -0.24106,0.17453 -0.0228,6e-5 -0.0414,0.005 -0.0414,0.01 0,0.006 -0.0714,0.01 -0.19482,0.01 h -0.19482 v -0.0277 c 0,-0.0378 -0.0306,-0.0651 -0.057,-0.051 -0.0249,0.0134 -0.20278,0.0139 -0.21093,7.5e-4 -0.004,-0.006 -0.0134,-0.005 -0.0262,0.005 -0.0176,0.0124 -0.023,0.0122 -0.0436,-0.002 -0.0184,-0.012 -0.0394,-0.0141 -0.0954,-0.01 -0.0531,0.004 -0.0766,0.002 -0.0897,-0.008 -0.01,-0.008 -0.0401,-0.0137 -0.0675,-0.0138 -0.0273,-1.7e-4 -0.0636,-0.007 -0.0806,-0.0157 -0.0211,-0.0105 -0.0428,-0.0134 -0.0684,-0.009 -0.0374,0.006 -0.13178,-0.0168 -0.14307,-0.0351 -0.003,-0.005 -0.018,-0.009 -0.0339,-0.009 -0.0157,0 -0.0286,-0.005 -0.0286,-0.01 0,-0.005 -0.009,-0.01 -0.0198,-0.01 -0.0427,0 -0.24091,-0.11465 -0.28862,-0.16695 -0.0412,-0.0452 -0.0792,-0.12267 -0.0859,-0.1751 -0.008,-0.0626 -0.008,-0.19192 1.2e-4,-0.32365 0.005,-0.0743 0.003,-0.10279 -0.009,-0.12662 -0.008,-0.017 -0.0121,-0.0426 -0.009,-0.0569 0.003,-0.0157 0,-0.0351 -0.0104,-0.0485 -0.009,-0.0123 -0.0156,-0.0343 -0.0156,-0.0491 0,-0.0147 -0.0146,-0.0543 -0.0327,-0.0879 -0.0179,-0.0336 -0.0355,-0.0757 -0.0389,-0.0935 -0.003,-0.0178 -0.0121,-0.0463 -0.0196,-0.0633 -0.0287,-0.0667 -0.0553,-0.1592 -0.0552,-0.19217 8e-5,-0.0191 -0.006,-0.0432 -0.0141,-0.0536 -0.009,-0.0124 -0.0144,-0.0428 -0.0146,-0.0889 -1.5e-4,-0.0386 -0.005,-0.0727 -0.0101,-0.076 -0.006,-0.004 -0.01,-0.0973 -0.01,-0.24838 0,-0.15108 -0.003,-0.24464 -0.01,-0.24839 -0.005,-0.003 -0.01,-0.0293 -0.01,-0.0579 0,-0.0286 -0.006,-0.0638 -0.0139,-0.0785 -0.008,-0.0146 -0.0167,-0.0521 -0.0204,-0.0832 -0.004,-0.0349 -0.0119,-0.0587 -0.0204,-0.0619 -0.008,-0.003 -0.0139,-0.0174 -0.0139,-0.0324 -1.1e-4,-0.0149 -0.009,-0.038 -0.0194,-0.0515 -0.0104,-0.0134 -0.0191,-0.0381 -0.0193,-0.0549 -1.5e-4,-0.0217 -0.007,-0.0352 -0.0246,-0.0465 -0.0134,-0.009 -0.0243,-0.0243 -0.0243,-0.0346 0,-0.0103 -0.005,-0.0214 -0.01,-0.0247 -0.005,-0.003 -0.01,-0.0184 -0.01,-0.0336 0,-0.0156 -0.006,-0.03 -0.0146,-0.0333 -0.008,-0.003 -0.0146,-0.0165 -0.0146,-0.0299 0,-0.0134 -0.009,-0.0482 -0.0198,-0.0776 -0.0181,-0.0483 -0.0193,-0.0687 -0.0151,-0.2171 0.008,-0.26432 0.0147,-0.33765 0.0316,-0.35065 0.0107,-0.008 0.0131,-0.02 0.008,-0.0414 -0.006,-0.0295 -0.008,-0.0299 -0.0671,-0.0299 -0.0341,0 -0.0657,-0.005 -0.0723,-0.0117 -0.008,-0.009 -0.0117,-0.0868 -0.0117,-0.29118 0,-0.23848 -0.003,-0.28031 -0.0144,-0.28505 -0.0117,-0.005 -0.0132,-0.0173 -0.008,-0.0644 l 0.006,-0.0588 h -0.0705 c -0.0555,0 -0.0756,-0.004 -0.0951,-0.0194 -0.0208,-0.0163 -0.022,-0.0203 -0.009,-0.0254 0.0124,-0.005 0.0156,-0.0207 0.0156,-0.0775 0,-0.0393 0.005,-0.0742 0.01,-0.0775 0.006,-0.004 0.01,-0.16713 0.01,-0.45781 0,-0.2907 -0.003,-0.45395 -0.01,-0.45782 -0.005,-0.003 -0.01,-0.0428 -0.01,-0.0877 0,-0.0449 -0.005,-0.0844 -0.01,-0.0877 -0.005,-0.003 -0.01,-0.0384 -0.01,-0.0779 0,-0.0396 -0.005,-0.0747 -0.01,-0.0779 -0.005,-0.003 -0.01,-0.0315 -0.01,-0.0627 0,-0.0385 -0.005,-0.0606 -0.0146,-0.0688 -0.01,-0.008 -0.0146,-0.0303 -0.0146,-0.0688 0,-0.0312 -0.005,-0.0594 -0.01,-0.0627 -0.005,-0.003 -0.01,-0.0318 -0.01,-0.0633 0,-0.0315 -0.005,-0.06 -0.01,-0.0633 -0.005,-0.003 -0.01,-0.0213 -0.01,-0.0399 0,-0.0186 -0.006,-0.0435 -0.0137,-0.0554 -0.008,-0.0119 -0.0188,-0.0446 -0.0253,-0.0727 -0.006,-0.0282 -0.0159,-0.0536 -0.0206,-0.0566 -0.005,-0.003 -0.009,-0.0204 -0.009,-0.0387 0,-0.0183 -0.009,-0.0476 -0.0194,-0.0652 -0.0107,-0.0175 -0.0193,-0.0416 -0.0196,-0.0534 -1e-5,-0.0118 -0.0109,-0.0376 -0.0243,-0.0574 -0.0134,-0.0197 -0.0243,-0.046 -0.0243,-0.0583 0,-0.0123 -0.005,-0.0251 -0.01,-0.0284 -0.005,-0.003 -0.01,-0.0187 -0.01,-0.0341 0,-0.0154 -0.003,-0.0304 -0.008,-0.0333 -0.0109,-0.007 -0.0988,-0.18518 -0.0988,-0.20052 0,-0.006 -0.0149,-0.0409 -0.0329,-0.0766 -0.0372,-0.0732 -0.0645,-0.13311 -0.0645,-0.14155 0,-0.003 -0.0131,-0.0328 -0.0293,-0.066 -0.0161,-0.0332 -0.0292,-0.0677 -0.0292,-0.0767 0,-0.009 -0.0109,-0.0326 -0.0243,-0.0523 -0.0154,-0.0228 -0.0243,-0.0495 -0.0243,-0.0732 0,-0.0469 -0.0216,-0.0689 -0.0465,-0.047 -0.0226,0.0199 -0.14357,0.0795 -0.19222,0.0947 -0.0213,0.007 -0.0572,0.0226 -0.0795,0.0353 -0.0223,0.0128 -0.064,0.0281 -0.0925,0.0342 -0.0777,0.0164 -0.0861,0.023 -0.0861,0.0677 0,0.0256 -0.005,0.0409 -0.0146,0.0445 -0.0213,0.008 -0.0216,0.27136 0,0.28325 0.0114,0.006 0.0151,0.0455 0.0193,0.19773 0.0119,0.43356 0.0166,0.53113 0.0253,0.53995 0.005,0.005 0.009,0.0677 0.009,0.13916 0,0.10427 0.003,0.13473 0.0161,0.15441 0.0137,0.0208 0.0151,0.0435 0.0104,0.14988 -0.005,0.10542 -0.003,0.12626 0.009,0.13092 0.0114,0.005 0.0141,0.0235 0.0126,0.0939 -0.003,0.0556 0.003,0.0925 0.009,0.0994 0.006,0.006 0.0112,0.0443 0.0112,0.0914 0,0.0442 0.005,0.083 0.01,0.0863 0.005,0.003 0.01,0.0362 0.01,0.073 0,0.0369 0.005,0.0697 0.01,0.073 0.005,0.003 0.01,0.0513 0.01,0.11016 5e-5,0.0733 0.005,0.11239 0.0146,0.13203 0.008,0.0154 0.0146,0.0512 0.0146,0.0798 0,0.0286 0.005,0.0546 0.01,0.0579 0.005,0.003 0.01,0.0318 0.01,0.0633 0,0.0315 0.005,0.06 0.01,0.0633 0.005,0.003 0.01,0.0388 0.01,0.0788 0,0.0569 0.003,0.074 0.0151,0.0786 0.0124,0.005 0.0139,0.0157 0.009,0.0585 -0.005,0.0407 -0.003,0.0565 0.008,0.0693 0.0111,0.0123 0.0151,0.0392 0.0151,0.10324 10e-5,0.0478 0.005,0.0912 0.0107,0.0969 0.005,0.005 0.0104,0.0355 0.0104,0.0663 0,0.0308 0.005,0.0586 0.01,0.0619 0.005,0.003 0.01,0.0274 0.01,0.0536 0,0.0262 0.005,0.0502 0.01,0.0536 0.005,0.003 0.01,0.0353 0.0101,0.0712 2e-4,0.038 0.006,0.0753 0.0144,0.0895 0.008,0.0134 0.0141,0.0474 0.0141,0.0755 1.9e-4,0.0281 0.005,0.0512 0.0101,0.0512 0.005,0 0.01,0.0351 0.01,0.0857 0,0.0472 0.004,0.0899 0.009,0.095 0.005,0.005 0.0112,0.0333 0.0139,0.0628 0.003,0.0295 0.01,0.0799 0.0154,0.11202 0.005,0.0322 0.0149,0.0903 0.02,0.12932 0.005,0.0389 0.0139,0.0792 0.0193,0.0895 0.005,0.0102 0.01,0.0399 0.01,0.066 0,0.0261 0.004,0.0515 0.009,0.0567 0.005,0.005 0.0114,0.0487 0.0146,0.0969 0.0154,0.24811 0.0171,0.26327 0.032,0.27986 0.0109,0.0122 0.0137,0.0284 0.01,0.0585 -0.003,0.025 0,0.0571 0.008,0.0805 0.008,0.0214 0.0139,0.0661 0.0139,0.0993 9e-5,0.0332 0.005,0.063 0.01,0.0663 0.005,0.003 0.01,0.0305 0.01,0.0604 0,0.0299 0.004,0.0702 0.009,0.0895 0.005,0.0193 0.0141,0.0615 0.0204,0.0937 0.006,0.0322 0.0176,0.0681 0.025,0.08 0.008,0.0119 0.0137,0.0368 0.0137,0.0555 0,0.0186 0.005,0.0365 0.01,0.0399 0.005,0.003 0.01,0.0164 0.01,0.0292 0,0.0128 0.005,0.0259 0.01,0.0292 0.005,0.003 0.01,0.014 0.01,0.0238 0,0.0231 0.0876,0.19875 0.12422,0.24897 0.0587,0.0806 0.13347,0.15256 0.22234,0.21409 0.0505,0.0349 0.0947,0.0635 0.0983,0.0635 0.003,0 0.0146,0.008 0.0243,0.0162 0.01,0.009 0.026,0.021 0.0357,0.0268 0.041,0.0243 0.15737,0.11593 0.15737,0.12382 0,0.005 0.008,0.009 0.0164,0.009 0.0151,0 0.11691,0.0893 0.23198,0.20374 0.1043,0.10368 0.23562,0.27091 0.24462,0.31146 0.003,0.014 0.0139,0.0436 0.0238,0.0657 0.01,0.0222 0.021,0.0518 0.0246,0.0658 0.003,0.014 0.0104,0.028 0.0151,0.0309 0.0119,0.008 0.0109,0.1867 0,0.19415 -0.005,0.003 -0.01,0.0166 -0.01,0.0296 0,0.027 -0.0316,0.0467 -0.0925,0.0577 -0.0213,0.004 -0.0594,0.0157 -0.0842,0.0264 -0.0393,0.0168 -0.0625,0.019 -0.17533,0.0162 -0.11445,-0.003 -0.13357,-0.005 -0.15941,-0.0242 -0.0287,-0.0204 -0.0299,-0.0205 -0.0516,-0.003 -0.0121,0.01 -0.0418,0.0209 -0.0657,0.0245 -0.024,0.004 -0.0459,0.0104 -0.0488,0.0151 -0.003,0.005 -0.05,0.009 -0.1046,0.009 -0.0862,-3e-5 -0.10549,-0.003 -0.14664,-0.0241 -0.026,-0.0132 -0.0532,-0.0289 -0.0602,-0.0347 -0.0183,-0.0151 -0.0513,0.005 -0.059,0.0348 -0.003,0.0143 -0.0131,0.0241 -0.0233,0.0241 -0.009,0 -0.0226,0.006 -0.029,0.0141 -0.006,0.008 -0.0354,0.0275 -0.0643,0.0439 -0.0526,0.0296 -0.0528,0.0297 -0.20806,0.0297 -0.0931,0 -0.15785,-0.004 -0.16145,-0.01 z"
   id="path4" />
    </g>
</svg>
