<?xml version="1.0" encoding="UTF-8" standalone="no"?>
<!-- Created with Inkscape (http://www.inkscape.org/) -->

<svg
   width="11.166384mm"
   height="30.409269mm"
   viewBox="0 0 11.166384 30.40927"
   version="1.1"
   id="svg1"
   xml:space="preserve"
   xmlns="http://www.w3.org/2000/svg"
   xmlns:svg="http://www.w3.org/2000/svg"><defs
   id="defs1" /><g
   id="layer1"
   transform="translate(-664.74661,-106.29589)"><path
   style="fill:#7a7a7a;fill-opacity:1;stroke:none;stroke-width:0.247956"
   d="m 667.77111,120.76868 0.26686,0.26686 c 0.45451,0.0571 0.10879,0.52258 0.0148,0.80058 -0.26421,0.78179 -0.61893,1.52354 -0.87471,2.3128 -0.96929,2.99093 -0.62593,5.6614 -0.59056,8.71747 0.003,0.23603 0.0388,0.94896 -0.0322,1.13662 -0.16409,0.43436 -1.03586,0.53913 -0.56337,1.08722 -0.38785,0.24464 -1.34669,1.29142 -0.43949,1.56259 0.78472,0.23456 1.1823,-0.37636 1.77729,-0.70209 0.23237,-0.12721 0.6186,-0.15091 0.78082,-0.37688 0.21334,-0.29721 0.0594,-1.08477 0.11098,-1.46211 0.21502,-1.5729 0.15002,-3.19837 0.1589,-4.8035 0.0105,-1.90714 1.35338,-4.13755 2.5929,-5.51514 0.0862,1.68327 0.51376,3.35947 0.49,5.07036 -0.0162,1.17009 -0.46664,2.31898 -0.63867,3.4692 -0.0516,0.34506 0.10846,0.64399 0.0932,0.97849 -0.036,0.7902 -0.3577,2.65381 0.50538,3.1652 0.47586,0.28197 1.45523,0.39468 1.59704,-0.32005 0.14276,-0.71943 -0.664,-1.29323 -0.53811,-2.04456 0.39248,-2.34224 0.67736,-4.64398 0.908,-7.02734 0.0851,-0.87949 0.34071,-1.6872 0.34071,-2.57967 1.74103,-0.005 1.5484,-1.52122 1.67503,-2.84651 0.26336,-2.75632 0.96087,-6.01491 0.0624,-8.71747 -0.34553,-1.03933 -1.78072,-1.18138 -2.00427,-2.3128 -0.76315,-1.10994 0.91646,-2.92339 -0.55397,-4.02584 -1.43861,-1.0786 -2.41963,0.95231 -2.46112,2.06886 -0.0121,0.3242 0.32796,0.76081 0.22814,1.04081 -0.091,0.25541 0.35796,0.7489 -0.53871,0.88509 -0.71466,0.10855 -1.49725,0.66641 -1.99262,1.19674 -0.79517,0.8513 -1.1582,2.52743 -1.44166,3.63784 -0.23965,0.93883 -0.03,1.85476 0.49288,2.66861 0.25502,0.3969 0.70687,0.78515 0.83841,1.24536 0.12043,0.42136 -0.13672,1.02136 -0.26439,1.42326 m 6.1378,-3.29129 c 0.47058,1.47163 0.94978,3.54353 0.26687,4.98141 h -0.089 l -0.17173,-2.0539 -0.0951,-1.14844 v -0.089 l 0.089,-1.69012 m -9.16223,2.31279 v 0.53373 h 0.089 z"
   id="path2" />
    </g>
</svg>
