<?xml version="1.0" encoding="UTF-8" standalone="no"?>
<!-- Created with Inkscape (http://www.inkscape.org/) -->

<svg
   width="11.149874mm"
   height="33.352642mm"
   viewBox="0 0 11.149874 33.352643"
   version="1.1"
   id="svg1"
   xml:space="preserve"
   xmlns="http://www.w3.org/2000/svg"
   xmlns:svg="http://www.w3.org/2000/svg"><defs
   id="defs1" /><g
   id="layer1"
   transform="translate(-703.29093,-103.35252)"><path
   style="fill:#7a7a7a;fill-opacity:1;stroke:none;stroke-width:0.247956"
   d="m 704.42914,120.80684 c 0.12758,0.39104 0.20516,0.71945 0.61231,0.87472 0.2772,-1.01838 -0.73592,-1.72392 -0.76985,-2.6242 -0.0297,-0.78732 0.53967,-1.62521 0.76762,-2.36178 0.31454,-1.01635 0.31405,-2.11033 0.61455,-3.14905 0.99197,2.3056 -0.10583,4.97908 -0.33506,7.34777 -0.11079,1.14499 -0.21812,2.26522 -0.0773,3.41147 0.0861,0.70059 0.39294,1.39763 0.40761,2.09937 0.0233,1.11362 -0.52601,2.14004 -0.59976,3.23652 -0.087,1.29405 0.38046,2.57202 0.48826,3.84883 0.0619,0.73309 -0.42215,1.50839 -0.93697,1.98691 -0.20146,0.18728 -0.74284,0.52394 -0.53091,0.86212 0.61225,0.97703 2.52592,-0.22676 2.61739,-1.0137 0.0878,-0.75511 -0.22394,-1.51733 -0.14337,-2.2727 0.0953,-0.89318 0.59274,-1.66007 0.73361,-2.53673 0.11634,-0.72402 -0.073,-1.46841 0.0481,-2.18683 0.39063,-2.31785 0.95911,-4.67734 1.38992,-6.99789 0.31808,0.44221 0.27903,0.96912 0.40808,1.48705 0.28789,1.15545 0.6226,2.21783 0.74386,3.41147 0.0713,0.70178 0.39342,1.32867 0.4917,2.01189 0.10353,0.71973 -0.053,1.46504 0.0345,2.18684 0.0934,0.77039 0.48461,1.50915 0.6387,2.27431 0.29713,1.47538 -0.60133,2.68207 0.78963,3.74915 0.33604,0.25779 1.63399,0.32461 1.71147,-0.25973 0.0477,-0.35985 -0.4872,-0.72237 -0.6985,-0.95269 -0.41246,-0.44953 -0.6934,-0.95558 -0.70661,-1.57452 -0.0265,-1.24093 0.41165,-2.4383 0.45829,-3.67389 0.0457,-1.21061 -0.54061,-2.305 -0.54023,-3.49894 5e-4,-1.46592 0.49266,-2.87525 0.42705,-4.37367 -0.0965,-2.20433 -0.95275,-4.3737 -0.94305,-6.56051 0.003,-0.68776 0.29076,-1.42447 0.42165,-2.09937 h 0.0875 l 0.51621,2.88663 0.84855,2.71167 -0.92739,2.53674 c 0.51057,0.0851 0.63119,-0.24445 0.69979,-0.6998 h 0.3499 c 0.0366,0.51033 -0.1166,0.79213 -0.61232,0.96221 0.006,0.16812 -0.0863,0.5009 0.0134,0.64323 0.3653,0.52176 1.36202,-0.8668 1.43705,-1.16807 0.14677,-0.58938 0.0366,-1.31915 0.0366,-1.92441 0,-1.26952 0.0512,-2.5899 -0.11279,-3.84883 -0.083,-0.63693 -0.3916,-1.20605 -0.48779,-1.83695 -0.16178,-1.06118 -0.0436,-2.42099 -0.40037,-3.41147 -0.52328,-1.45267 -2.72042,-1.24277 -3.36997,-2.53808 -0.18704,-0.373 0.0621,-0.84854 0.1215,-1.23111 0.1085,-0.6992 0.22452,-1.58183 -0.0363,-2.26648 -0.32761,-0.85992 -1.49887,-1.21858 -2.24853,-0.6383 -0.8111,0.62783 -0.73356,2.01622 -0.51822,2.91261 0.10472,0.43594 0.45422,0.85032 0.21381,1.30832 -0.61387,1.16952 -2.67246,1.06682 -3.23124,2.36557 -0.33195,0.77152 -0.16002,1.792 -0.28908,2.62421 -0.3674,2.36887 -0.74921,4.49149 -0.75015,6.9104 -2.4e-4,0.70007 -0.0872,3.17606 1.37137,2.72801 0.25922,-0.0796 0.11585,-0.38651 7e-5,-0.52295 -0.36747,-0.43297 -0.84384,-0.65451 -0.23428,-1.15537 z"
   id="path1" />
    </g>
</svg>
