<?xml version="1.0" encoding="UTF-8" standalone="no"?>
<!-- Created with Inkscape (http://www.inkscape.org/) -->

<svg
   width="25.284538mm"
   height="7.2974057mm"
   viewBox="0 0 25.284538 7.2974057"
   version="1.1"
   id="svg1"
   xml:space="preserve"
   inkscape:version="1.4.3 (0d15f75042, 2025-12-25)"
   sodipodi:docname="caern.svg"
   xmlns:inkscape="http://www.inkscape.org/namespaces/inkscape"
   xmlns:sodipodi="http://sodipodi.sourceforge.net/DTD/sodipodi-0.dtd"
   xmlns="http://www.w3.org/2000/svg"
   xmlns:svg="http://www.w3.org/2000/svg"><sodipodi:namedview
     id="namedview1"
     pagecolor="#ffffff"
     bordercolor="#000000"
     borderopacity="0.25"
     inkscape:showpageshadow="2"
     inkscape:pageopacity="0.0"
     inkscape:pagecheckerboard="0"
     inkscape:deskcolor="#d1d1d1"
     inkscape:document-units="mm"
     inkscape:zoom="4.1335578"
     inkscape:cx="44.392751"
     inkscape:cy="28.062992"
     inkscape:window-width="2560"
     inkscape:window-height="1371"
     inkscape:window-x="0"
     inkscape:window-y="0"
     inkscape:window-maximized="1"
     inkscape:current-layer="layer1" /><defs
     id="defs1" /><g
     inkscape:label="Layer 1"
     inkscape:groupmode="layer"
     id="layer1"
     transform="translate(-75.733282,-68.878075)"><path
       style="fill:#000000;stroke-width:0.440168"
       d="m 96.723813,76.160099 c -0.0344,-0.0064 -0.094,-0.03816 -0.13237,-0.07046 -0.0384,-0.03231 -0.13544,-0.08315 -0.21563,-0.112965 -0.20715,-0.07702 -0.25651,-0.115342 -0.31037,-0.240992 -0.0581,-0.135524 -0.20525,-0.248233 -0.40166,-0.307634 -0.078,-0.02359 -0.16104,-0.05893 -0.18451,-0.07851 -0.0235,-0.01959 -0.0547,-0.02813 -0.0695,-0.01902 -0.0148,0.0092 -0.0269,0.0022 -0.0269,-0.01567 0,-0.01778 -0.0578,-0.09079 -0.12836,-0.162277 l -0.12835,-0.129968 8.8e-4,-0.188943 c 4.4e-4,-0.103919 0.0186,-0.323526 0.0402,-0.488016 0.0377,-0.287508 0.0326,-0.484955 -0.0158,-0.615591 -0.0257,-0.06922 0.0371,-0.312305 0.0958,-0.371 0.0209,-0.02087 0.0804,-0.03795 0.13223,-0.03795 0.13813,0 0.28264,-0.106369 0.47599,-0.350352 0.16758,-0.211454 0.1677,-0.211547 0.26829,-0.198054 0.0764,0.01025 0.13176,0.04354 0.22983,0.138187 0.19829,0.191385 0.2322,0.207912 0.42663,0.207912 0.19671,0 0.31538,0.04849 0.43592,0.178102 0.12659,0.136135 0.28811,0.226511 0.40481,0.226511 0.086,0 0.11369,-0.01299 0.15942,-0.07484 0.0304,-0.04116 0.0553,-0.09024 0.0553,-0.109066 0,-0.01883 0.0331,-0.06594 0.0736,-0.104694 0.0599,-0.05741 0.0877,-0.06736 0.14997,-0.05368 0.042,0.0092 0.09,0.03312 0.10657,0.05309 0.0476,0.0574 0.0827,0.04226 0.14826,-0.06414 0.0336,-0.0545 0.13913,-0.168935 0.23448,-0.254309 0.0953,-0.08537 0.19752,-0.202566 0.22704,-0.26043 0.0502,-0.09837 0.0519,-0.120009 0.0256,-0.332964 -0.0155,-0.125267 -0.0348,-0.317749 -0.043,-0.427738 -0.0178,-0.238759 -0.0438,-0.293982 -0.24019,-0.510668 -0.14909,-0.164522 -0.15007,-0.166594 -0.11243,-0.239377 0.0223,-0.04304 0.0665,-0.08025 0.10705,-0.08993 0.10174,-0.02431 0.10977,-0.03297 0.0808,-0.08714 -0.019,-0.03554 -0.0428,-0.04514 -0.0855,-0.03443 -0.0399,0.01 -0.10426,-0.01064 -0.1978,-0.06343 -0.10158,-0.05733 -0.19544,-0.08559 -0.35081,-0.105645 -0.37299,-0.04813 -0.59043,-0.09604 -0.62019,-0.136653 -0.019,-0.02594 -0.0216,-0.07102 -0.008,-0.133115 0.0117,-0.05164 0.0125,-0.10255 0.002,-0.113123 -0.0106,-0.01057 -0.0641,0.01471 -0.11888,0.05617 -0.0951,0.07196 -0.1113,0.07543 -0.35484,0.0761 -0.14036,3.87e-4 -0.52727,-0.02315 -0.8598,-0.0523 -1.25659,-0.11016 -2.66224,0.0013 -3.53287,0.28022 -0.13091,0.04193 -0.276668,0.07658 -0.323911,0.077 -0.106169,9.24e-4 -0.586498,0.160784 -0.599395,0.19947 -0.0052,0.01552 0.04566,0.05241 0.11296,0.08197 0.06731,0.02956 0.16899,0.08561 0.225965,0.124558 0.05698,0.03895 0.136325,0.07902 0.176332,0.08906 0.04001,0.01004 0.147016,0.06614 0.237801,0.124666 0.09078,0.05853 0.239028,0.143302 0.329428,0.188392 0.20406,0.101776 0.47323,0.26635 0.77549,0.474159 0.12749,0.08765 0.28361,0.182276 0.34693,0.210287 0.0633,0.02801 0.12402,0.06652 0.13489,0.08557 0.0109,0.01905 0.10988,0.09549 0.22003,0.169862 0.24339,0.16434 0.31054,0.244573 0.26925,0.321728 -0.04,0.07468 -0.12708,0.06788 -0.27186,-0.02123 -0.067,-0.04123 -0.24698,-0.119769 -0.39997,-0.174531 -0.153,-0.05476 -0.38628,-0.15598 -0.51841,-0.224927 -0.13214,-0.06895 -0.26869,-0.134018 -0.30346,-0.144602 -0.0348,-0.01059 -0.23392,-0.102927 -0.442547,-0.205208 -0.352786,-0.172954 -0.401443,-0.189611 -0.695431,-0.238066 -0.173858,-0.02865 -0.41283,-0.08017 -0.531054,-0.114474 -0.118221,-0.03431 -0.404841,-0.09079 -0.636933,-0.125511 -0.232092,-0.03472 -0.478265,-0.0752 -0.547059,-0.08996 -0.171331,-0.03675 -0.32859,0.0068 -0.940226,0.260395 -0.271219,0.112448 -0.558609,0.225051 -0.638654,0.250229 -0.141448,0.04449 -0.317889,0.123455 -0.840712,0.37624 -0.139085,0.06725 -0.37237,0.179347 -0.518409,0.249109 -0.665997,0.318141 -1.233413,0.664853 -1.664162,1.016858 -0.143367,0.117156 -0.31406,0.249469 -0.379328,0.294029 -0.06526,0.04456 -0.164179,0.11636 -0.219816,0.159554 -0.05563,0.04319 -0.206025,0.143294 -0.334207,0.222442 -0.280845,0.173415 -0.571471,0.402804 -0.885377,0.698823 -0.171564,0.161786 -0.248035,0.217886 -0.288834,0.211886 -0.0305,-0.0045 -0.06,-0.02183 -0.06551,-0.03856 -0.0055,-0.01673 0.07986,-0.12484 0.189713,-0.240238 0.109844,-0.1154 0.263445,-0.296825 0.341333,-0.403166 0.07789,-0.106342 0.184496,-0.225829 0.236911,-0.265528 0.05242,-0.0397 0.186927,-0.167622 0.29891,-0.284275 0.29758,-0.309994 0.736265,-0.665573 1.52642,-1.23725 0.385135,-0.278646 0.813295,-0.597754 0.951464,-0.70913 0.138169,-0.111376 0.371454,-0.267244 0.518408,-0.346375 0.321319,-0.173017 0.479678,-0.283392 0.429231,-0.299166 -0.139278,-0.04355 -0.304126,-0.06784 -0.429684,-0.0633 -0.09644,0.0035 -0.162017,-0.007 -0.190219,-0.03041 -0.08164,-0.06774 -2.161746,-0.01539 -2.251659,0.05667 -0.01593,0.01277 -0.03623,0.06188 -0.04508,0.109135 -0.02082,0.110939 -0.08629,0.13166 -0.469651,0.148619 -0.194546,0.0086 -0.462428,0.0472 -0.809228,0.11658 -0.615926,0.123226 -0.833497,0.180204 -1.073039,0.28101 -0.150152,0.06319 -0.192079,0.09492 -0.262213,0.198442 -0.07338,0.108314 -0.09712,0.125274 -0.19621,0.140132 -0.206704,0.031 -0.475962,0.139313 -0.782416,0.314746 -0.166904,0.09555 -0.373101,0.208568 -0.458217,0.251161 -0.26703,0.133622 -0.688611,0.431988 -0.871785,0.616988 -0.174076,0.17581 -0.177879,0.177989 -0.340049,0.194774 -0.145962,0.01511 -0.172203,0.02656 -0.238524,0.104138 -0.09467,0.110727 -0.13015,0.214743 -0.135513,0.397234 l -0.0043,0.145118 -0.132199,0.01614 c -0.07271,0.0089 -0.169438,0.0385 -0.214951,0.06584 -0.299804,0.180077 -0.499358,0.306657 -0.57699,0.365994 -0.04929,0.03768 -0.245305,0.142301 -0.43558,0.232498 -0.190274,0.0902 -0.387817,0.192442 -0.438983,0.227206 -0.08576,0.05827 -0.09849,0.06039 -0.162958,0.02707 -0.03846,-0.0199 -0.135365,-0.06065 -0.215343,-0.09057 -0.174883,-0.06543 -0.311037,-0.18627 -0.555658,-0.493149 -0.131141,-0.164517 -0.215731,-0.246061 -0.295122,-0.284493 -0.06121,-0.02963 -0.12355,-0.05387 -0.138534,-0.05387 -0.04079,0 -0.05953,-0.06663 -0.08363,-0.297274 -0.01229,-0.117688 -0.04326,-0.250077 -0.07099,-0.30346 -0.04548,-0.08756 -0.130917,-0.484203 -0.130917,-0.607775 0,-0.141406 0.118395,-0.249696 0.82187,-0.751717 0.152994,-0.109182 0.327934,-0.238781 0.388755,-0.287999 0.148714,-0.120343 0.278031,-0.16504 0.333156,-0.115152 0.0224,0.02027 0.04865,0.03685 0.05833,0.03685 0.0097,0 0.09101,-0.06828 0.180711,-0.15173 0.13304,-0.123767 0.178957,-0.151729 0.249149,-0.151729 0.04733,0 0.100217,0.01707 0.117532,0.03793 0.05939,0.07156 0.117384,0.04349 0.169757,-0.08219 0.08001,-0.191985 0.168611,-0.278695 0.331876,-0.324781 0.07877,-0.02223 0.183232,-0.06619 0.232136,-0.09767 0.04891,-0.03148 0.2765,-0.13434 0.505766,-0.228572 0.229267,-0.09423 0.626261,-0.272218 0.88221,-0.395524 0.32551,-0.156817 0.493255,-0.224193 0.558178,-0.224193 0.05827,0 0.178358,-0.04163 0.322632,-0.111852 0.126397,-0.06152 0.301957,-0.131781 0.390133,-0.156137 0.08818,-0.02435 0.342395,-0.111796 0.564933,-0.19431 0.480889,-0.178307 0.697635,-0.235446 1.03682,-0.273326 0.436018,-0.04869 0.49897,-0.04549 0.53546,0.02727 0.0202,0.04027 0.0228,0.07169 0.0073,0.08724 -0.01338,0.01337 -0.0243,0.04479 -0.0243,0.06983 0,0.06129 0.08987,0.0594 0.240235,-0.0051 0.0649,-0.02782 0.14276,-0.05058 0.173035,-0.05058 0.03028,0 0.06925,-0.02276 0.08662,-0.05058 0.04195,-0.06714 0.15574,-0.06555 0.291369,0.0041 0.142536,0.07317 0.404951,0.07082 0.498438,-0.0045 0.07135,-0.05746 0.115685,-0.07799 0.278173,-0.128853 0.09319,-0.02917 0.141264,-0.0301 0.265528,-0.0052 0.236335,0.04746 0.541072,0.07921 1.049462,0.109355 0.25731,0.01526 0.547491,0.03754 0.644851,0.04952 0.421471,0.05187 1.354126,0.183699 1.54114,0.217838 0.112067,0.02046 0.310072,0.04879 0.44001,0.06296 0.263454,0.02873 0.547878,0.110932 0.832315,0.240554 0.104231,0.0475 0.211232,0.08637 0.237774,0.08637 0.02654,0 0.105082,0.02879 0.174523,0.06398 l 0.126262,0.06398 0.109289,-0.07519 c 0.123446,-0.08493 0.187248,-0.170161 0.209071,-0.279285 0.01351,-0.06755 0.02835,-0.07713 0.1574,-0.101731 0.143002,-0.02726 0.222941,-0.05359 0.597674,-0.196871 0.111266,-0.04254 0.384382,-0.128307 0.606918,-0.190585 0.462537,-0.129442 0.88269,-0.28074 0.9703,-0.349404 0.033,-0.02583 0.1752,-0.08177 0.3161,-0.124324 0.14091,-0.04255 0.4155,-0.127391 0.61023,-0.188539 0.36719,-0.11531 0.43512,-0.132657 0.7999,-0.204273 0.23096,-0.04534 0.40773,-0.03613 0.49224,0.02567 0.0401,0.02929 0.058,0.02891 0.11877,-0.0025 l 0.0716,-0.03701 0.054,0.127898 c 0.0524,0.124126 0.0571,0.127898 0.15785,0.127898 0.0571,0 0.1601,-0.02668 0.22889,-0.05929 0.15754,-0.07467 0.38614,-0.143017 0.47836,-0.143017 0.0389,0 0.10614,0.02161 0.14951,0.04803 0.0466,0.0284 0.29584,0.09048 0.60991,0.151934 0.73277,0.143379 0.91681,0.190171 0.98125,0.249491 0.0537,0.04945 1.19839,0.511505 1.26718,0.511505 0.0187,0 0.0491,0.01827 0.0677,0.0406 0.0185,0.02233 0.0924,0.06658 0.16423,0.09833 0.0718,0.03175 0.13836,0.07038 0.14792,0.08584 0.01,0.01546 0.0357,0.02811 0.0581,0.02811 0.0224,0 0.11561,0.07154 0.20713,0.158969 0.0915,0.08743 0.196897,0.182327 0.234177,0.210876 0.0491,0.03764 0.07,0.07909 0.0759,0.150813 0.008,0.09636 0.0109,0.09923 0.11819,0.11155 0.10916,0.01254 0.11119,0.01459 0.23574,0.240239 0.09,0.163118 0.12794,0.261428 0.13379,0.347024 0.006,0.08191 0.0417,0.180623 0.11507,0.314221 0.0881,0.160597 0.10866,0.223976 0.11687,0.361048 0.005,0.09144 0.0268,0.262985 0.0474,0.381208 0.0534,0.306332 0.0482,0.401452 -0.0503,0.932668 -0.10953,0.590285 -0.18662,0.862806 -0.3263,1.153618 -0.2594,0.540045 -0.56086,0.756596 -1.532947,1.101173 -0.2434,0.08628 -0.55065,0.210999 -0.68278,0.277152 -0.40301,0.201773 -0.78014,0.280801 -1.3105,0.274617 -0.16242,-0.0018 -0.32345,-0.0087 -0.35785,-0.01514 z"
       id="path1" /></g></svg>
