<?xml version="1.0" encoding="UTF-8" standalone="no"?>
<!-- Created with Inkscape (http://www.inkscape.org/) -->

<svg
   width="99.532265mm"
   height="134.5101mm"
   viewBox="0 0 99.532265 134.5101"
   version="1.1"
   id="svg1"
   xml:space="preserve"
   inkscape:version="1.4.3 (0d15f75042, 2025-12-25)"
   sodipodi:docname="male_homid_glabro.svg"
   xmlns:inkscape="http://www.inkscape.org/namespaces/inkscape"
   xmlns:sodipodi="http://sodipodi.sourceforge.net/DTD/sodipodi-0.dtd"
   xmlns="http://www.w3.org/2000/svg"
   xmlns:svg="http://www.w3.org/2000/svg"><sodipodi:namedview
     id="namedview1"
     pagecolor="#ffffff"
     bordercolor="#000000"
     borderopacity="0.25"
     inkscape:showpageshadow="2"
     inkscape:pageopacity="0.0"
     inkscape:pagecheckerboard="0"
     inkscape:deskcolor="#d1d1d1"
     inkscape:document-units="mm"
     inkscape:zoom="1.0333895"
     inkscape:cx="119.50964"
     inkscape:cy="451.91094"
     inkscape:window-width="2560"
     inkscape:window-height="1371"
     inkscape:window-x="0"
     inkscape:window-y="0"
     inkscape:window-maximized="1"
     inkscape:current-layer="layer1" /><defs
     id="defs1" /><g
     inkscape:label="Layer 1"
     inkscape:groupmode="layer"
     id="layer1"
     transform="translate(-80.891401,-41.539508)"><path
       style="fill:#000000;fill-opacity:1;stroke:none"
       d="m 140.04706,111.93216 c 0.51454,1.57707 0.82745,2.90156 2.46944,3.52777 1.11791,-4.10713 -2.96796,-6.95254 -3.10477,-10.58333 -0.11964,-3.17526 2.17647,-6.554439 3.09579,-9.524999 1.26851,-4.09889 1.26655,-8.510895 2.47843,-12.699995 4.00058,9.298405 -0.42678,20.080444 -1.35123,29.633324 -0.44686,4.61767 -0.87972,9.13552 -0.31168,13.75834 0.34719,2.82543 1.58471,5.63657 1.64385,8.46666 0.0939,4.49118 -2.12139,8.63071 -2.41881,13.05278 -0.35101,5.21886 1.53439,10.37288 1.96913,15.52222 0.24961,2.95651 -1.70252,6.08326 -3.77875,8.01317 -0.81252,0.75527 -2.99584,2.11299 -2.14117,3.47688 2.46919,3.94034 10.18694,-0.91454 10.55584,-4.08825 0.35397,-3.04529 -0.90313,-6.11933 -0.57816,-9.16569 0.38426,-3.60218 2.39048,-6.69499 2.9586,-10.23055 0.4692,-2.91997 -0.29423,-5.92204 0.19408,-8.81945 1.57539,-9.34779 3.86806,-18.8635 5.60552,-28.22222 1.28281,1.78338 1.12529,3.9084 1.64575,5.99722 1.16107,4.65988 2.51091,8.94445 2.99997,13.75834 0.28754,2.83025 1.58668,5.3585 1.98302,8.11389 0.41751,2.90263 -0.21392,5.90846 0.13909,8.81944 0.37678,3.10694 1.95442,6.08634 2.57588,9.17222 1.1983,5.95016 -2.42514,10.81671 3.18453,15.12018 1.35525,1.03968 6.58983,1.30915 6.9023,-1.04745 0.19243,-1.45126 -1.96484,-2.91333 -2.81705,-3.84217 -1.66341,-1.81297 -2.79643,-3.85384 -2.84971,-6.35 -0.10684,-5.00461 1.66018,-9.8336 1.84827,-14.81667 0.18428,-4.88236 -2.18028,-9.29601 -2.17873,-14.11111 0.002,-5.912 1.98686,-11.59581 1.72224,-17.63889 -0.38928,-8.88995 -3.84238,-17.638959 -3.80325,-26.458329 0.0123,-2.773685 1.17262,-5.744805 1.70047,-8.466665 h 0.35277 l 2.08183,11.641665 3.42216,10.936109 -3.7401,10.23056 c 2.05908,0.34325 2.54554,-0.98587 2.82222,-2.82223 h 1.41112 c 0.14744,2.05811 -0.47026,3.19464 -2.46945,3.88056 0.0246,0.67799 -0.348,2.02007 0.0539,2.59411 1.47322,2.10426 5.49295,-3.4958 5.79552,-4.71078 0.59195,-2.37697 0.1478,-5.32012 0.1478,-7.76111 0,-5.11991 0.20657,-10.444989 -0.45485,-15.522219 -0.33463,-2.568675 -1.57931,-4.863935 -1.96723,-7.408325 -0.65247,-4.27969 -0.17579,-9.76378 -1.61472,-13.75833 -2.11038,-5.85858 -10.97133,-5.01206 -13.59093,-10.236007 -0.75435,-1.504312 0.25056,-3.422143 0.48997,-4.965018 0.43758,-2.819864 0.90549,-6.379487 -0.14644,-9.140645 -1.32123,-3.468027 -6.04489,-4.914482 -9.06824,-2.57424 -3.27114,2.532027 -2.95844,8.131351 -2.08999,11.746462 0.42235,1.758129 1.83189,3.429312 0.86234,5.276421 -2.47574,4.716617 -10.778,4.302437 -13.03154,9.540247 -1.33871,3.1115 -0.64533,7.22709 -1.16586,10.58333 -1.48168,9.55357 -3.02152,18.114055 -3.02528,27.869434 -0.001,2.82336 -0.35157,12.80895 5.53066,11.00198 1.04543,-0.32114 0.46723,-1.55881 2.7e-4,-2.10904 -1.48194,-1.74617 -3.40315,-2.63964 -0.94482,-4.6596 z"
       id="path1" /><path
       style="fill:#000000;fill-opacity:1;stroke:none"
       d="m 93.088811,111.03775 1.07624,1.07624 c 1.83299,0.23037 0.43871,2.10755 0.0598,3.22873 -1.06556,3.1529 -2.49613,6.14437 -3.52768,9.32743 -3.90908,12.06232 -2.52433,22.83224 -2.38169,35.15726 0.011,0.95192 0.15639,3.82711 -0.12954,4.58399 -0.66176,1.75172 -4.17761,2.17427 -2.27207,4.38469 -1.56413,0.98663 -5.43112,5.20827 -1.77242,6.30188 3.16473,0.94599 4.76819,-1.51783 7.16775,-2.83149 0.93711,-0.51303 2.49481,-0.60862 3.14901,-1.51997 0.86038,-1.1986 0.23957,-4.37485 0.4476,-5.89664 0.86716,-6.34347 0.60502,-12.89893 0.64082,-19.37236 0.0425,-7.69142 5.458139,-16.68658 10.457099,-22.24235 0.34767,6.78857 2.07199,13.54861 1.97616,20.44861 -0.0656,4.71889 -1.88193,9.35232 -2.57573,13.99115 -0.20813,1.39159 0.43741,2.5972 0.37591,3.94622 -0.14529,3.18685 -1.44261,10.70274 2.03816,12.76515 1.91915,1.13714 5.8689,1.59172 6.44085,-1.29077 0.5757,-2.90144 -2.67795,-5.21556 -2.17021,-8.24565 1.58287,-9.44616 2.73177,-18.72902 3.66194,-28.34105 0.34324,-3.54691 1.37409,-6.80439 1.37409,-10.40368 7.02151,-0.0194 6.2446,-6.13504 6.75531,-11.47992 1.06214,-11.11612 3.87515,-24.257909 0.25162,-35.157252 -1.39352,-4.191591 -7.18158,-4.764462 -8.08317,-9.327435 -3.07776,-4.476351 3.69609,-11.789926 -2.23414,-16.236094 -5.80188,-4.349934 -9.75827,3.840661 -9.92563,8.343649 -0.0486,1.307522 1.32267,3.068338 0.92012,4.197569 -0.36718,1.030042 1.44359,3.020282 -2.17264,3.569557 -2.882151,0.437774 -6.038349,2.687581 -8.036159,4.826413 -3.20687,3.433238 -4.67097,10.193036 -5.81415,14.671274 -0.96652,3.78624 -0.12103,7.48017 1.98779,10.762419 1.02842,1.60068 2.85077,3.16646 3.38125,5.02247 0.48569,1.69933 -0.5514,4.11911 -1.06628,5.73996 M 117.8424,97.764091 c 1.89778,5.935039 3.8304,14.290949 1.07624,20.089859 h -0.35875 l -0.69258,-8.2833 -0.38366,-4.63161 v -0.35875 l 0.35875,-6.816199 m -36.950999,9.327429 v 2.15249 h 0.35875 z"
       id="path2"
       sodipodi:nodetypes="ccsssscsssscccsssssscsscsssssssscccccccccccc" /></g></svg>
