<?xml version="1.0" encoding="UTF-8" standalone="no"?>
<!-- Created with Inkscape (http://www.inkscape.org/) -->

<svg
   width="40.249279mm"
   height="124.49762mm"
   viewBox="0 0 40.249279 124.49762"
   version="1.1"
   id="svg1"
   xml:space="preserve"
   xmlns="http://www.w3.org/2000/svg"
   xmlns:svg="http://www.w3.org/2000/svg"><defs
     id="defs1" /><g
     id="layer1"
     transform="translate(-60.068755,267.82467)"><path
       style="fill:#000000"
       d="m 91.673001,-143.71187 c -0.215442,-0.21544 -0.391713,-0.49151 -0.391713,-0.61348 0,-0.12198 -0.824223,-0.76478 -1.831606,-1.42845 -2.040963,-1.34459 -2.330998,-1.66354 -1.902424,-2.09212 0.161946,-0.16194 0.294446,-0.44891 0.294446,-0.6377 0,-0.18879 0.373609,-1.13399 0.830242,-2.10046 l 0.830242,-1.75721 -0.312538,-2.57874 c -0.172949,-1.42699 -0.67654,-3.6263 -1.127535,-4.92422 -0.448248,-1.29002 -0.830043,-2.95233 -0.848433,-3.69403 -0.01839,-0.7417 -0.193424,-1.54126 -0.388965,-1.77679 -0.241135,-0.29045 -0.303294,-0.79299 -0.193184,-1.56187 0.438529,-3.06218 0.637403,-5.89484 0.431528,-6.14649 -0.125452,-0.15334 -0.245288,-1.97451 -0.266302,-4.04703 -0.04043,-3.9871 -0.484395,-7.51488 -1.144588,-9.09495 -0.219163,-0.52453 -0.664675,-2.36927 -0.990025,-4.09943 -0.552028,-2.93558 -0.969175,-4.73082 -1.622395,-6.98219 -0.147777,-0.50932 -0.331931,-1.25346 -0.40923,-1.65365 -0.111131,-0.57533 -0.287267,-0.7276 -0.84165,-0.7276 -0.622792,0 -0.742094,0.15516 -1.068058,1.38906 -0.201823,0.76399 -0.390017,1.74625 -0.418208,2.18281 -0.02819,0.43657 -0.120199,0.97235 -0.20446,1.19063 -0.348821,0.90363 -1.345483,11.36926 -1.280446,13.44557 0.02379,0.75937 -0.06023,1.08311 -0.250549,0.96548 -0.356112,-0.22009 -0.159857,7.69293 0.249577,10.06291 0.716336,4.14647 0.611376,8.3807 -0.23611,9.525 -0.107775,0.14552 -0.143211,0.50271 -0.07875,0.79375 0.06446,0.29104 0.183205,2.51349 0.263868,4.93877 0.139942,4.20765 0.172403,4.41689 0.708708,4.56842 0.526949,0.14888 0.533133,0.181 0.09903,0.51434 -0.254661,0.19556 -0.463021,0.52698 -0.463021,0.73649 0,0.20951 -0.148828,0.54128 -0.330729,0.73725 -0.223025,0.24028 -0.228979,0.29919 -0.01828,0.18089 0.449134,-0.25216 0.651031,0.21508 0.393616,0.91094 -0.171594,0.46387 -0.689298,0.73411 -2.315617,1.20877 -1.152037,0.33623 -2.422035,0.61416 -2.822217,0.61762 -0.400182,0.003 -0.727604,0.12302 -0.727604,0.26567 0,0.36091 -1.782899,0.13825 -2.976563,-0.37173 -1.381778,-0.59036 -1.367725,-1.4837 0.03798,-2.41395 1.223417,-0.80961 3.654309,-1.51816 3.891554,-1.13429 0.08942,0.14468 0.321302,0.0305 0.523106,-0.25765 0.528057,-0.7539 0.335732,-3.11933 -0.380572,-4.68071 -1.052124,-2.2934 -1.414018,-5.03933 -1.795815,-13.62604 -0.131416,-2.95557 -0.0847,-3.74865 0.270748,-4.59638 0.236262,-0.56347 0.429567,-1.609 0.429567,-2.3234 0,-0.90035 0.119671,-1.34483 0.390011,-1.44857 0.292225,-0.11214 0.391998,-0.62419 0.397934,-2.04222 0.0044,-1.04091 0.05742,-2.72599 0.117909,-3.74464 0.06049,-1.01865 -0.05821,-2.97092 -0.263783,-4.3384 -0.205573,-1.36747 -0.434296,-3.9652 -0.508271,-5.77273 -0.07398,-1.80754 -0.240526,-3.48666 -0.37011,-3.7314 -0.313266,-0.59163 -0.822024,-3.95124 -0.822024,-5.42828 0,-0.80284 -0.126343,-1.22627 -0.396875,-1.33008 -0.218281,-0.0838 -0.396875,-0.36551 -0.396875,-0.62612 0,-0.2606 -0.244657,-0.62662 -0.543682,-0.81336 -0.471572,-0.2945 -0.519919,-0.50473 -0.36451,-1.585 0.09855,-0.685 0.354867,-1.44632 0.569602,-1.69181 0.214736,-0.24549 0.314368,-0.56942 0.221405,-0.71984 -0.09296,-0.15041 0.0075,-0.61488 0.223294,-1.03214 0.352255,-0.68119 0.343804,-0.91545 -0.08276,-2.29411 -0.264112,-0.85361 -0.557952,-1.40136 -0.661703,-1.23349 -0.32463,0.52527 -0.665517,0.33055 -1.055544,-0.60291 -0.41375,-0.99025 -2.3173,-3.78313 -4.47006,-6.55846 -0.757166,-0.97613 -1.971979,-2.82012 -2.699583,-4.09774 -1.293328,-2.271 -1.322917,-2.37185 -1.322917,-4.50905 0,-1.20236 -0.105937,-2.18611 -0.235415,-2.18611 -0.318589,-1e-5 -0.936383,-0.84021 -0.946795,-1.28764 -0.0055,-0.23431 0.180558,-0.31217 0.528433,-0.2212 0.442121,0.11562 0.677221,-0.13769 1.332394,-1.43558 0.437551,-0.86678 1.594953,-2.70407 2.572006,-4.08285 2.570019,-3.62673 2.86361,-4.1385 3.21537,-5.6048 0.516847,-2.15446 1.362498,-2.90469 3.839888,-3.40662 1.625347,-0.3293 2.215384,-0.35655 2.594459,-0.11981 0.320954,0.20044 1.403054,0.11269 1.684114,-0.0341 l 1.274726,-0.66557 c 0.801487,-0.68189 1.272571,-1.0317 1.256289,-1.9973 l -0.02783,-1.65032 c -0.01789,-1.06117 -1.211963,0.1632 -2.16978,-2.53706 -1.282486,-3.61556 -1.972361,-4.7459 -1.828193,-8.23649 0.106646,-2.58209 0.820925,-4.39111 3.479071,-5.43695 1.378944,-0.51969 2.849788,-0.74958 4.042325,-0.23287 1.069795,0.46309 2.141306,0.45751 2.957592,2.16081 0.449868,1.62681 0.963051,1.55286 1.113064,3.43567 0.111103,1.39445 0.224664,1.79587 -0.107403,3.50021 -1.515566,7.77871 -2.526331,5.06349 -3.037308,6.70515 -0.310349,0.99708 -0.394822,1.45807 -0.03554,1.99873 l 1.572458,2.36632 2.345303,0.30241 c 1.781853,0.22976 3.375859,0.19065 3.570163,0.21925 0.79509,0.11705 1.155424,-0.50714 2.27896,-0.14312 0.747711,0 1.69044,1.17603 2.081851,2.59705 0.227845,0.8272 0.934991,2.51603 1.571433,3.75295 1.501115,2.91742 3.066128,7.28245 2.731121,7.61746 -0.218929,0.21892 0.616411,3.87499 1.22904,5.37916 0.1007,0.24726 -0.008,0.61143 -0.256311,0.85989 -0.2586,0.2586 -0.307493,0.43099 -0.122236,0.43099 0.470877,0 0.247687,16.30689 -0.234915,17.16356 -0.287371,0.51013 -0.294866,1.02836 -0.04018,2.77813 0.172198,1.18306 0.437913,2.62727 0.590492,3.20935 0.32619,1.24452 0.33218,2.86883 0.011,2.9759 -0.124038,0.0413 -0.178741,0.47582 -0.121572,0.96551 0.126062,1.07969 -0.413577,4.75994 -0.713373,4.86522 -0.118054,0.0415 -0.158536,0.36888 -0.08996,0.7276 0.08799,0.46028 0.0071,0.65223 -0.27473,0.65223 -0.453715,0 -0.72061,-0.54391 -0.72061,-1.46854 0,-0.43799 -0.115586,-0.58716 -0.37718,-0.48678 -0.599312,0.22998 -1.207032,-0.94623 -1.040456,-2.01374 0.07945,-0.50915 0.191761,-0.97431 0.249582,-1.03368 0.145052,-0.14894 -0.433007,-0.81809 -0.706724,-0.81809 -0.122366,0 -0.149105,1.36922 -0.05942,3.04271 0.146641,2.73629 0.118359,3.04271 -0.280835,3.04271 -0.731403,0 -0.959968,-1.16954 -0.959968,-4.91202 0,-2.66284 0.08297,-3.55676 0.33073,-3.56307 0.185917,-0.005 0.105257,-0.17893 -0.184217,-0.39786 -0.315704,-0.23877 -0.609703,-0.2947 -0.759845,-0.14455 -0.134695,0.13469 -0.408985,0.18193 -0.609533,0.10497 -0.478222,-0.18351 -0.469412,0.29411 0.01281,0.69431 0.292602,0.24284 0.31652,0.48801 0.106409,1.09073 -0.149068,0.42762 -0.428518,0.77749 -0.621002,0.77749 -0.192483,0 -0.430188,0.36523 -0.528233,0.81162 -0.194404,0.88512 -0.851847,1.31768 -1.184547,0.77936 -0.293888,-0.47552 -0.08186,-4.79211 0.251772,-5.12574 0.151384,-0.15138 0.275244,-0.53935 0.275244,-0.86215 0,-0.82698 0.27599,-1.44811 0.564282,-1.26993 0.273371,0.16895 1.092632,-0.7038 1.696861,-1.80764 0.219053,-0.40019 0.566789,-0.72761 0.772745,-0.72761 0.632341,0 0.75643,-0.55129 0.210204,-0.93388 -0.64611,-0.45256 -0.632576,-2.38814 0.02753,-3.93703 0.806818,-1.89314 1.051611,-4.50709 0.733183,-7.82909 -0.287704,-3.00147 -0.547743,-7.01655 -0.559295,-8.6357 -0.0045,-0.62552 -0.11981,-0.82143 -0.467348,-0.79375 -0.355166,0.0283 -0.497982,-0.23743 -0.620187,-1.15388 -0.08732,-0.65484 -0.295347,-1.52303 -0.462281,-1.9293 -0.675761,-1.64463 -2.807554,-5.86803 -2.836014,-5.12264 -0.02782,0.73376 -1.421714,5.70289 -1.571498,13.53423 -0.06123,3.20146 -0.186009,6.51091 -0.277283,7.35433 -0.09127,0.84342 -0.05467,1.67686 0.08134,1.85208 0.586733,0.75588 0.959064,3.87077 0.884085,7.39619 -0.13097,6.15803 -0.119569,7.57727 0.100423,12.50157 0.120141,2.68922 0.329813,4.8384 0.481636,4.93685 0.147879,0.0959 0.299888,1.40559 0.337797,2.91042 0.03791,1.50483 0.276603,3.98622 0.530432,5.51419 0.253828,1.52796 0.494645,3.67109 0.535149,4.7625 0.121121,3.2637 0.80362,9.33101 1.153804,10.25713 0.272933,0.72182 0.259929,0.96657 -0.07882,1.48357 -0.518494,0.79132 -0.958006,11.01346 -0.473537,11.01346 0.16232,0 0.295642,0.20836 0.296272,0.46302 6.3e-4,0.25466 0.47688,1.40305 1.058333,2.55197 0.581453,1.14891 1.057188,2.2499 1.057188,2.44663 0,0.571 1.903344,2.52285 2.844271,2.91675 1.205911,0.50484 1.076448,1.07691 -0.396875,1.75372 -1.586168,0.72864 -5.397191,0.90324 -6.024433,0.27599 z m 6.452297,-54.26277 -0.03516,-2.57968 -0.234204,2.24413 c -0.218877,2.09728 -0.172884,2.91524 0.163922,2.91524 0.07733,0 0.124775,-1.16086 0.105439,-2.57969 z m -23.60842,-17.19791 c 0.367934,-0.83675 0.884626,-1.75948 1.148203,-2.05052 0.440369,-0.48626 0.451212,-0.67936 0.133707,-2.38125 -0.190039,-1.01865 -0.476997,-3.28084 -0.637685,-5.02709 -0.291412,-3.16688 -3.053693,-12.41082 -3.398969,-12.77979 -0.29501,-0.31526 -0.782856,0.53143 -1.356895,1.54887 -0.291665,0.51695 -0.786217,1.17152 -1.099005,1.45459 -0.312788,0.28307 -0.750116,0.87214 -0.97184,1.30904 -0.221724,0.43691 -0.98981,1.59144 -1.706858,2.56562 -1.256394,1.70695 -1.293706,1.80845 -1.027796,2.79597 0.15176,0.56359 0.887508,2.02872 1.634995,3.25583 1.454896,2.38844 2.734432,5.04317 3.559626,7.38537 0.486382,1.38052 2.148897,3.44471 2.774403,3.44471 0.153529,0 0.58018,-0.68461 0.948114,-1.52135 z"
       id="path1" /></g></svg>
