<?xml version="1.0" encoding="UTF-8" standalone="no"?>
<!-- Created with Inkscape (http://www.inkscape.org/) -->

<svg
   width="171.20326mm"
   height="33.679829mm"
   viewBox="0 0 171.20326 33.67983"
   version="1.1"
   id="svg1"
   xml:space="preserve"
   inkscape:version="1.4.3 (0d15f75042, 2025-12-25)"
   sodipodi:docname="many_forms_female.svg"
   xmlns:inkscape="http://www.inkscape.org/namespaces/inkscape"
   xmlns:sodipodi="http://sodipodi.sourceforge.net/DTD/sodipodi-0.dtd"
   xmlns="http://www.w3.org/2000/svg"
   xmlns:svg="http://www.w3.org/2000/svg"><sodipodi:namedview
     id="namedview1"
     pagecolor="#ffffff"
     bordercolor="#000000"
     borderopacity="0.25"
     inkscape:showpageshadow="2"
     inkscape:pageopacity="0.0"
     inkscape:pagecheckerboard="0"
     inkscape:deskcolor="#d1d1d1"
     inkscape:document-units="mm"
     inkscape:zoom="1.5413871"
     inkscape:cx="354.2264"
     inkscape:cy="-68.769227"
     inkscape:window-width="2560"
     inkscape:window-height="1371"
     inkscape:window-x="0"
     inkscape:window-y="0"
     inkscape:window-maximized="1"
     inkscape:current-layer="layer1"
     showgrid="false"
     showguides="true"><inkscape:page
       x="0"
       y="0"
       width="171.20326"
       height="33.679829"
       id="page12"
       margin="0"
       bleed="0" /><sodipodi:guide
       position="-33.302153,263.33068"
       orientation="0,-1"
       id="guide16"
       inkscape:locked="false" /></sodipodi:namedview><defs
     id="defs1" /><g
     inkscape:label="Layer 1"
     inkscape:groupmode="layer"
     id="layer1"
     transform="translate(-664.10354,-98.140087)"><path
       style="fill:#aeaeae;fill-opacity:1;stroke-width:0.247956"
       d="m 668.67284,131.78501 c -0.26653,-0.0279 -0.44381,-0.20883 -0.44381,-0.45289 0,-0.0789 0.13285,-0.30649 0.29522,-0.50582 l 0.29523,-0.36242 v -0.74591 c 0,-0.49113 -0.0561,-1.08087 -0.16428,-1.72656 -0.26973,-1.61015 -0.32077,-2.40534 -0.2335,-3.63765 0.0871,-1.22948 0.0408,-1.94102 -0.22617,-3.47707 -0.0909,-0.52321 -0.17817,-0.98678 -0.19386,-1.03016 -0.0157,-0.0434 -0.1671,-0.14201 -0.33645,-0.21915 l -0.30791,-0.14027 0.0435,-1.06015 c 0.0395,-0.96403 0.12006,-1.82831 0.30633,-3.29073 0.11745,-0.92201 0.17781,-1.23952 0.29312,-1.54172 0.19567,-0.51279 0.19692,-0.75084 0.005,-1.07723 -0.2008,-0.34265 -0.42021,-0.50743 -0.8266,-0.6208 -1.02955,-0.28723 -1.92148,-0.63751 -2.57179,-1.01002 -0.46648,-0.2672 -0.5481,-0.39016 -0.4844,-0.72974 0.0897,-0.47817 0.96814,-1.42194 1.74409,-1.87382 0.19845,-0.11557 0.61177,-0.46928 0.91846,-0.78603 0.65959,-0.68116 0.98487,-0.90725 1.45571,-1.01181 l 0.34798,-0.0773 0.11655,-0.65457 c 0.0641,-0.36001 0.14419,-0.80218 0.17802,-0.9826 0.0339,-0.18041 0.11904,-0.65277 0.18941,-1.04968 0.16028,-0.90411 0.35229,-1.42055 0.65115,-1.75136 0.35234,-0.38999 0.51638,-0.45384 0.97355,-0.37897 0.21162,0.0347 0.39206,0.0632 0.40098,0.0634 0.009,2.1e-4 0.13688,0.10939 0.28437,0.24264 0.32377,0.29251 0.68206,0.98164 0.74382,1.43067 0.1265,0.91957 0.38546,2.35233 0.50395,2.78822 0.12987,0.47774 0.35039,0.78604 0.56288,0.78693 0.0426,1.8e-4 0.30831,0.25844 0.59044,0.57392 0.28214,0.31547 0.71686,0.76569 0.96604,1.00048 1.04076,0.98065 1.42683,1.41345 1.61784,1.8137 0.335,0.70191 0.29669,0.76794 -0.726,1.25149 -0.60877,0.28784 -1.1056,0.46608 -1.78635,0.64085 -0.54007,0.13865 -0.96599,0.47989 -1.09791,0.87963 -0.0814,0.24667 -0.0754,0.29289 0.0841,0.64833 0.11544,0.25723 0.25099,0.83334 0.41338,1.75692 0.22659,1.28867 0.24204,1.4636 0.24813,2.81096 0.006,1.35882 -2e-4,1.43778 -0.11689,1.45517 -0.19663,0.0293 -0.22624,0.0932 -0.3322,0.71689 -0.24553,1.44544 -0.25954,2.27121 -0.0679,4.00137 0.12178,1.09928 0.10364,1.67898 -0.10878,3.47707 -0.0953,0.80679 -0.11963,1.28768 -0.0879,1.73853 0.0422,0.59998 0.054,0.63672 0.31513,0.98408 0.22183,0.29499 0.27792,0.42901 0.30747,0.73454 0.0341,0.3526 0.0273,0.37593 -0.12009,0.41293 -0.35232,0.0884 -2.26918,-0.12999 -2.09739,-0.23899 0.0465,-0.0295 0.21489,-0.0541 0.37424,-0.0546 0.15937,-4.9e-4 0.27034,-0.0204 0.2466,-0.0442 -0.0237,-0.0237 -0.0127,-0.0798 0.0245,-0.12467 0.075,-0.0904 0.0767,-0.14028 0.0648,-1.86592 -0.007,-0.95032 -0.0441,-1.43435 -0.17279,-2.23057 -0.0904,-0.55928 -0.19024,-1.47448 -0.22182,-2.03376 -0.0353,-0.62624 -0.0976,-1.12856 -0.1619,-1.30759 -0.24217,-0.67368 -0.2929,-1.04563 -0.33168,-2.4319 -0.0217,-0.77578 -0.0613,-1.5286 -0.088,-1.67293 -0.0464,-0.25065 -0.0588,-0.2617 -0.27544,-0.24622 -0.54262,0.0387 -0.52211,0.009 -0.52204,0.7559 2e-5,0.36917 0.0329,0.99595 0.0732,1.39287 0.10257,1.01166 0.0941,1.44868 -0.0367,1.90254 -0.0785,0.27236 -0.13106,0.808 -0.17053,1.73854 -0.0314,0.7397 -0.10216,1.58108 -0.15731,1.86975 -0.14648,0.76672 -0.20098,1.84952 -0.11249,2.23526 0.0502,0.21886 0.0564,0.53533 0.019,0.97939 -0.0718,0.8527 -0.002,1.04499 0.3879,1.05971 0.65931,0.0249 0.63583,0.10198 -0.0687,0.22542 -0.67257,0.11784 -0.89257,0.1301 -1.39313,0.0777 z m 4.45394,-20.02286 c 0.64295,-0.23023 0.82331,-0.32038 1.47625,-0.73788 0.51164,-0.32714 0.60603,-0.43499 0.53737,-0.61393 -0.0212,-0.0554 -0.41661,-0.40967 -0.87855,-0.78726 -0.9441,-0.77172 -1.09133,-0.82348 -1.43952,-0.50612 -0.16457,0.15 -0.21382,0.26892 -0.29209,0.70526 -0.14946,0.83312 -0.16193,2.1324 -0.0205,2.13184 0.0451,-1.8e-4 0.32277,-0.0865 0.61703,-0.19191 z m -4.72887,-0.85049 c -0.091,-1.24817 -0.14208,-1.61766 -0.25168,-1.82171 -0.14284,-0.26597 -0.41146,-0.47724 -0.55764,-0.43857 -0.0627,0.0166 -0.49781,0.30405 -0.96689,0.63881 -0.5591,0.399 -0.85985,0.65582 -0.87315,0.7456 -0.0163,0.10977 0.11398,0.22484 0.65605,0.5796 0.67448,0.44142 1.53039,0.87976 1.71785,0.87976 0.0544,0 0.11738,0.03 0.14004,0.0667 0.0227,0.0367 0.0727,0.0472 0.1113,0.0233 0.0471,-0.0291 0.055,-0.2498 0.0241,-0.67352 z"
       id="path6"
       sodipodi:nodetypes="csscsssssscsssssssssscsssssssssssssssssssssssssssscccssssssssssssscssccssssssssssssssssssss"
       inkscape:label="homid_f" /><path
       style="fill:#aeaeae;fill-opacity:1;stroke-width:0.437564"
       d="m 704.48423,131.71728 c -0.185,-0.11717 -0.13521,-0.50562 0.16465,-1.28455 0.16338,-0.4244 0.21811,-1.13259 0.29526,-3.82047 0.0747,-2.60014 0.14203,-3.50111 0.31799,-4.25069 0.2387,-1.01683 0.25339,-1.99023 0.0818,-5.41626 -0.0782,-1.56225 -0.0616,-1.84699 0.16554,-2.83642 0.13889,-0.6049 0.27761,-1.3185 0.30825,-1.58576 l 0.0558,-0.48594 -0.3533,0.10132 c -0.30845,0.0885 -0.41376,0.0508 -0.82952,-0.29654 -1.10566,-0.92376 -2.30421,-2.48327 -2.30421,-2.99815 0,-0.37921 0.5797,-1.32021 1.32359,-2.14853 0.20222,-0.22518 0.53639,-0.70427 0.74257,-1.06464 0.3993,-0.69791 1.31607,-1.47814 1.7368,-1.47814 0.29034,0 0.46381,-0.29329 0.52568,-0.88877 0.12884,-1.24014 0.43764,-2.9761 0.60285,-3.388981 0.60611,-1.514826 2.27318,-1.563124 2.99078,-0.08665 0.21691,0.446311 0.34071,1.005651 0.47908,2.164731 0.10262,0.85961 0.24703,1.68615 0.3209,1.83675 0.0771,0.15715 0.32548,0.33846 0.58294,0.42549 0.54337,0.18368 1.14341,0.74017 1.55533,1.44246 0.16807,0.28654 0.59837,0.87102 0.95622,1.29886 0.35786,0.42784 0.77534,1.01291 0.92772,1.30017 0.27206,0.51282 0.27332,0.52926 0.0702,0.90639 -0.31953,0.59333 -1.58565,2.05423 -2.16003,2.49232 -0.43483,0.33165 -0.58497,0.38434 -0.95407,0.33484 l -0.43804,-0.0588 0.0657,0.48096 c 0.0362,0.26453 0.19279,1.03375 0.34804,1.70938 0.26584,1.15703 0.28051,1.40257 0.25219,4.22567 -0.0276,2.7506 -0.009,3.07824 0.22039,3.98132 0.28519,1.12058 0.38783,2.40386 0.39813,4.97819 0.005,1.33047 0.0694,2.10567 0.24787,2.99799 0.23383,1.1693 0.23458,1.20798 0.0263,1.36032 -0.25692,0.18787 -0.43646,0.19409 -1.00952,0.0349 -0.29072,-0.0807 -0.43415,-0.18761 -0.43415,-0.32351 0,-0.11162 -0.0455,-0.25244 -0.10103,-0.31294 -0.0555,-0.0605 -0.13051,-0.55642 -0.16654,-1.10206 -0.0561,-0.84913 -0.0339,-1.04018 0.15353,-1.32599 0.12352,-0.18831 0.1778,-0.38676 0.12444,-0.45507 -0.0521,-0.0666 -0.12737,-0.41355 -0.16742,-0.77093 -0.04,-0.35737 -0.20949,-1.11278 -0.37657,-1.67869 -0.16706,-0.56591 -0.37216,-1.4978 -0.45577,-2.07087 -0.0836,-0.57307 -0.21196,-1.25034 -0.28522,-1.50503 -0.12967,-0.45072 -0.27131,-1.16246 -0.63362,-3.18373 -0.097,-0.54123 -0.32108,-1.50504 -0.49793,-2.14178 -0.26819,-0.96561 -0.35937,-1.15772 -0.5495,-1.15772 -0.19397,0 -0.27469,0.18992 -0.54125,1.27349 -0.17231,0.70042 -0.36914,1.69027 -0.4374,2.19967 -0.28187,2.10313 -0.37797,2.66887 -0.47329,2.78603 -0.0552,0.0678 -0.15764,0.64088 -0.22771,1.27349 -0.07,0.63262 -0.27624,1.72329 -0.45815,2.42371 -0.51661,1.98914 -0.58852,2.69192 -0.32172,3.14411 0.18501,0.31357 0.20058,0.44345 0.0977,0.81415 -0.0674,0.24259 -0.12277,0.65941 -0.12313,0.92627 -2.5e-4,0.26685 -0.056,0.51937 -0.12356,0.56116 -0.0676,0.0418 -0.16766,0.19366 -0.22235,0.33751 -0.12925,0.33994 -1.1192,0.54274 -1.49316,0.30587 z m 1.43535,-20.73554 c 0.20721,-0.12806 0.40802,-0.34948 0.44622,-0.49203 0.13278,-0.4954 0.0643,-2.33813 -0.10436,-2.80615 -0.0918,-0.2547 -0.16762,-0.5559 -0.16857,-0.66933 -0.005,-0.62162 -0.71054,-0.22493 -1.79383,1.00897 l -0.66231,0.75438 0.40782,0.72648 c 0.44581,0.79417 1.18309,1.71054 1.37624,1.71054 0.0671,0 0.29157,-0.10479 0.49879,-0.23286 z m 6.87884,-0.42288 c 0.26142,-0.29698 0.63535,-0.81972 0.83098,-1.16164 0.34091,-0.59584 0.34777,-0.63377 0.16519,-0.91242 -0.33056,-0.50449 -1.64806,-1.78531 -1.83645,-1.78531 -0.23983,0 -0.28101,0.0809 -0.54338,1.06727 -0.13879,0.52177 -0.22527,1.2296 -0.22696,1.85768 l -0.003,1.0147 0.37625,0.22941 c 0.54532,0.33249 0.70758,0.29187 1.23709,-0.30969 z"
       id="path7"
       sodipodi:nodetypes="csssssscsssssssssssssssssscsscsssssssssssssssssssssssssssccssssscssscssssccscc"
       inkscape:label="glabro_f" /><path
       style="fill:#aeaeae;fill-opacity:1;stroke-width:0.247956"
       d="m 826.12726,131.80941 c -0.003,-0.005 -0.0141,-0.01 -0.0238,-0.01 -0.01,0 -0.0303,-0.007 -0.0456,-0.0146 -0.0154,-0.008 -0.0345,-0.0147 -0.0425,-0.0149 -0.008,-1.7e-4 -0.0474,-0.0177 -0.0876,-0.039 -0.0401,-0.0213 -0.0775,-0.0387 -0.083,-0.0387 -0.0129,0 -0.17037,-0.15792 -0.17037,-0.17085 0,-0.005 -0.0187,-0.0348 -0.0414,-0.0653 -0.04,-0.0538 -0.0541,-0.0787 -0.12784,-0.2285 -0.0191,-0.0386 -0.0386,-0.078 -0.0435,-0.0877 -0.0126,-0.025 -0.0308,-0.0845 -0.0308,-0.10146 0,-0.008 -0.005,-0.0198 -0.0119,-0.0263 -0.006,-0.006 -0.0107,-0.0267 -0.009,-0.0448 0.003,-0.0181 -0.003,-0.0358 -0.008,-0.0393 -0.005,-0.004 -0.0104,-0.0238 -0.0104,-0.0451 0,-0.0254 -0.005,-0.0406 -0.0146,-0.0443 -0.0104,-0.004 -0.0146,-0.0204 -0.0146,-0.0581 0,-0.0289 -0.005,-0.0525 -0.01,-0.0525 -0.005,0 -0.01,-0.0306 -0.01,-0.0725 0,-0.0399 -0.005,-0.0752 -0.01,-0.0785 -0.005,-0.003 -0.01,-0.0315 -0.01,-0.0627 0,-0.0385 -0.005,-0.0606 -0.0146,-0.0688 -0.0101,-0.008 -0.0146,-0.0309 -0.0146,-0.0743 0,-0.0342 -0.004,-0.0621 -0.009,-0.0621 -0.005,0 -0.0114,-0.0318 -0.0141,-0.0706 -0.003,-0.0388 -0.0101,-0.10788 -0.0159,-0.15342 -0.006,-0.0455 -0.0129,-0.12553 -0.0157,-0.17776 -0.003,-0.0522 -0.009,-0.095 -0.0141,-0.095 -0.005,0 -0.009,-0.0323 -0.009,-0.0719 0,-0.052 -0.004,-0.0752 -0.0146,-0.084 -0.0104,-0.009 -0.0146,-0.0314 -0.0146,-0.0785 0,-0.0365 -0.005,-0.0691 -0.01,-0.0724 -0.005,-0.003 -0.01,-0.0343 -0.01,-0.0688 0,-0.0353 -0.004,-0.0627 -0.01,-0.0627 -0.005,0 -0.01,-0.0261 -0.01,-0.0588 0,-0.0379 -0.005,-0.0674 -0.0159,-0.083 -0.0112,-0.0169 -0.0144,-0.0372 -0.0109,-0.0675 0.006,-0.0524 -0.0117,-0.0733 -0.0622,-0.0733 -0.0246,0 -0.0407,-0.007 -0.0585,-0.0268 -0.0371,-0.0404 -0.0597,-0.0968 -0.0531,-0.13245 0.003,-0.0187 2e-5,-0.0416 -0.009,-0.0586 -0.0167,-0.0316 -0.0196,-0.0994 -0.005,-0.10847 0.005,-0.004 0.01,-0.0596 0.01,-0.13508 0,-0.0984 0.003,-0.13356 0.0144,-0.14797 0.0198,-0.0262 0.0193,-0.0882 0,-0.0959 -0.0126,-0.005 -0.0144,-0.0145 -0.009,-0.0482 0.005,-0.0323 0.003,-0.0452 -0.009,-0.055 -0.0107,-0.009 -0.0137,-0.0213 -0.009,-0.0404 0.003,-0.0169 10e-5,-0.0395 -0.009,-0.0584 -0.008,-0.0169 -0.0154,-0.0452 -0.0154,-0.0628 0,-0.0176 -0.005,-0.0347 -0.01,-0.038 -0.005,-0.003 -0.01,-0.023 -0.01,-0.0438 0,-0.0208 -0.005,-0.0405 -0.01,-0.0438 -0.005,-0.003 -0.01,-0.02 -0.01,-0.0371 -1.8e-4,-0.0171 -0.007,-0.0396 -0.0147,-0.05 -0.008,-0.0104 -0.0144,-0.0332 -0.0144,-0.0506 0,-0.0174 -0.005,-0.0344 -0.01,-0.0377 -0.005,-0.003 -0.01,-0.0384 -0.01,-0.0779 0,-0.0396 -0.005,-0.0746 -0.01,-0.0779 -0.005,-0.003 -0.01,-0.0406 -0.01,-0.0828 0,-0.0422 -0.005,-0.0795 -0.01,-0.0828 -0.005,-0.003 -0.01,-0.0299 -0.01,-0.059 v -0.053 h -0.11203 -0.11202 v -0.0488 c 0,-0.0269 -0.005,-0.0573 -0.0117,-0.0676 -0.009,-0.0142 -0.009,-0.0242 0,-0.0413 0.006,-0.0124 0.0131,-0.0401 0.0158,-0.0615 0.007,-0.0589 0.0171,-0.0958 0.0308,-0.11202 0.0241,-0.0285 0.0419,-0.21723 0.0228,-0.24015 -0.007,-0.008 -0.0114,-0.0301 -0.01,-0.0483 0.003,-0.0217 -0.003,-0.0349 -0.0112,-0.0384 -0.008,-0.003 -0.0121,-0.0141 -0.01,-0.0274 0.003,-0.0126 -0.003,-0.0275 -0.0112,-0.0348 -0.0101,-0.008 -0.0154,-0.0288 -0.0154,-0.0597 0,-0.0258 -0.005,-0.0496 -0.01,-0.053 -0.005,-0.003 -0.01,-0.0145 -0.01,-0.0249 0,-0.0151 -0.007,-0.0189 -0.0338,-0.0189 -0.0445,0 -0.0539,-0.0193 -0.0539,-0.11081 0,-0.0402 -0.005,-0.0758 -0.01,-0.0791 -0.005,-0.004 -0.01,-0.0663 -0.01,-0.15523 0,-0.1146 -0.003,-0.15179 -0.0134,-0.16031 -0.0107,-0.009 -0.0124,-0.0383 -0.008,-0.14222 0.005,-0.11546 0.003,-0.13184 -0.0109,-0.13724 -0.0129,-0.005 -0.0159,-0.0203 -0.0159,-0.0776 0,-0.0393 -0.005,-0.0742 -0.01,-0.0775 -0.005,-0.003 -0.01,-0.0318 -0.01,-0.0633 0,-0.0315 -0.005,-0.06 -0.01,-0.0633 -0.005,-0.003 -0.01,-0.034 -0.01,-0.0683 0,-0.0478 -0.003,-0.0643 -0.0161,-0.0713 -0.0129,-0.007 -0.0149,-0.018 -0.01,-0.0537 0.005,-0.033 0.003,-0.0467 -0.008,-0.0524 -0.009,-0.005 -0.0154,-0.0324 -0.0188,-0.0758 -0.008,-0.10289 -0.0161,-0.16345 -0.0249,-0.18508 -0.0121,-0.0301 -0.03,-0.10977 -0.03,-0.13465 0,-0.0123 -0.006,-0.0309 -0.0144,-0.0413 -0.008,-0.0104 -0.0144,-0.0285 -0.0146,-0.0403 -1.7e-4,-0.0117 -0.005,-0.0241 -0.0101,-0.0274 -0.005,-0.003 -0.01,-0.0255 -0.01,-0.0494 0,-0.0238 -0.004,-0.051 -0.009,-0.0603 -0.005,-0.009 -0.0139,-0.0344 -0.0206,-0.0559 -0.007,-0.0214 -0.0176,-0.0521 -0.0243,-0.0682 -0.007,-0.0161 -0.0176,-0.0489 -0.0243,-0.073 -0.006,-0.0241 -0.0159,-0.0515 -0.0208,-0.0608 -0.005,-0.009 -0.009,-0.026 -0.009,-0.0372 0,-0.0112 -0.0109,-0.0346 -0.0243,-0.0522 -0.0134,-0.0176 -0.0243,-0.0404 -0.0243,-0.0508 0,-0.0104 -0.0285,-0.0764 -0.0633,-0.1468 -0.0348,-0.0704 -0.0633,-0.13257 -0.0633,-0.13826 0,-0.006 -0.0109,-0.0175 -0.0243,-0.0263 -0.0134,-0.009 -0.0243,-0.0234 -0.0243,-0.0325 0,-0.009 -0.0132,-0.0291 -0.0292,-0.0445 -0.0184,-0.0176 -0.0292,-0.0378 -0.0292,-0.0543 0,-0.0218 -0.005,-0.027 -0.0297,-0.0306 -0.0164,-0.003 -0.0318,-0.001 -0.0344,0.003 -0.003,0.004 -0.0682,0.0385 -0.14571,0.0763 -0.0775,0.0377 -0.15916,0.0818 -0.18137,0.0979 -0.0224,0.0161 -0.0449,0.0293 -0.0502,0.0293 -0.005,0 -0.0241,0.011 -0.0418,0.0243 -0.0176,0.0134 -0.0355,0.0245 -0.0399,0.0247 -0.005,2.2e-4 -0.0226,0.0129 -0.0405,0.0282 l -0.0325,0.0278 -0.0601,-0.0392 c -0.0617,-0.0403 -0.18177,-0.15068 -0.18177,-0.16717 0,-0.005 -0.006,-0.0163 -0.0141,-0.025 -0.0254,-0.028 -0.0749,-0.12875 -0.0698,-0.14198 0.003,-0.007 -0.003,-0.0181 -0.009,-0.0245 -0.009,-0.007 -0.0141,-0.0303 -0.0141,-0.064 0,-0.0488 -0.003,-0.0524 -0.0233,-0.0524 -0.0129,0 -0.0462,0.0154 -0.074,0.0341 -0.0278,0.0187 -0.0532,0.0341 -0.0564,0.0341 -0.003,0 -0.0149,0.008 -0.0258,0.0183 -0.0357,0.0324 -0.25421,0.13757 -0.2859,0.13757 -0.0167,0 -0.0329,0.004 -0.0362,0.01 -0.003,0.005 -0.0226,0.01 -0.043,0.01 -0.0429,0 -0.10585,-0.0381 -0.0983,-0.0594 0.003,-0.007 0.006,-0.0761 0.008,-0.15246 0.003,-0.11157 0,-0.1388 -0.0101,-0.1388 -0.007,0 -0.0174,0.004 -0.0223,0.009 -0.005,0.005 -0.0268,0.0139 -0.0482,0.0202 -0.10362,0.0301 -0.15232,0.0385 -0.22465,0.0388 -0.0742,2.4e-4 -0.08,-0.001 -0.10565,-0.028 -0.0246,-0.0256 -0.0267,-0.0332 -0.0221,-0.0804 0.008,-0.0751 0.0171,-0.11754 0.0323,-0.13945 0.007,-0.0106 0.0131,-0.0255 0.0131,-0.0332 0,-0.0118 -0.003,-0.0116 -0.0171,10e-4 -0.0283,0.0246 -0.0691,0.0307 -0.20872,0.0314 -0.14803,7.4e-4 -0.1642,-0.005 -0.21012,-0.0723 -0.0187,-0.0275 -0.0218,-0.045 -0.0218,-0.11957 0,-0.0861 -2.5e-4,-0.0873 -0.0218,-0.0807 -0.0121,0.004 -0.0359,0.0102 -0.053,0.0146 -0.0171,0.004 -0.0462,0.0172 -0.0645,0.0286 -0.0184,0.0114 -0.0449,0.0206 -0.059,0.0206 -0.0141,0 -0.0257,0.004 -0.0257,0.009 0,0.009 -0.0532,0.0171 -0.18171,0.0264 l -0.0794,0.006 -0.005,0.0307 c -0.003,0.0169 -0.0117,0.0561 -0.0204,0.0872 -0.009,0.0311 -0.0159,0.0799 -0.0159,0.10855 0,0.0352 -0.005,0.0537 -0.0134,0.0572 -0.008,0.003 -0.0159,0.0274 -0.0196,0.0619 -0.0114,0.10763 -0.0179,0.14448 -0.0266,0.1537 -0.005,0.005 -0.009,0.023 -0.009,0.0399 0,0.0169 -0.007,0.0442 -0.0151,0.0608 -0.008,0.0166 -0.0176,0.0677 -0.0208,0.11353 -0.003,0.0518 -0.0109,0.0875 -0.0191,0.0943 -0.007,0.006 -0.0132,0.0214 -0.0132,0.0342 0,0.0128 -0.004,0.0309 -0.009,0.0402 -0.005,0.009 -0.0144,0.0432 -0.0211,0.0754 -0.007,0.0322 -0.0174,0.065 -0.0236,0.0731 -0.006,0.008 -0.0174,0.04 -0.0243,0.0711 -0.007,0.0311 -0.0166,0.0587 -0.0211,0.0615 -0.005,0.003 -0.008,0.0141 -0.008,0.0253 0,0.0112 -0.024,0.0653 -0.0535,0.12019 -0.0295,0.0549 -0.0535,0.1106 -0.0535,0.12371 0,0.0131 -0.008,0.031 -0.0176,0.0399 -0.01,0.009 -0.0273,0.0353 -0.0391,0.0589 -0.0117,0.0236 -0.0279,0.0483 -0.0358,0.0549 -0.008,0.007 -0.0144,0.0161 -0.0144,0.0212 0,0.005 -0.0101,0.0232 -0.0226,0.0402 -0.0903,0.12368 -0.13446,0.18029 -0.15648,0.20073 -0.0139,0.013 -0.0254,0.0284 -0.0254,0.0342 0,0.0128 -0.31302,0.32695 -0.32576,0.32695 -0.005,0 -0.0453,0.034 -0.0897,0.0755 -0.12665,0.11838 -0.18232,0.1662 -0.23122,0.19859 -0.0249,0.0165 -0.0495,0.0379 -0.0547,0.0475 -0.005,0.01 -0.0324,0.0339 -0.0607,0.054 -0.0638,0.0454 -0.76724,0.74451 -0.76724,0.76245 0,0.007 -0.023,0.0357 -0.0513,0.0634 -0.0282,0.0277 -0.0619,0.0656 -0.0748,0.0844 -0.0129,0.0187 -0.0435,0.057 -0.068,0.0849 -0.084,0.0958 -0.10783,0.12691 -0.10783,0.14041 0,0.007 -0.009,0.019 -0.0193,0.0256 -0.0107,0.007 -0.0311,0.0307 -0.0454,0.0535 -0.0144,0.0228 -0.0337,0.0468 -0.0431,0.0535 -0.009,0.007 -0.0316,0.0352 -0.0492,0.0633 -0.0176,0.0281 -0.0367,0.0583 -0.0423,0.067 -0.005,0.009 -0.0369,0.0551 -0.0697,0.10308 -0.0513,0.0751 -0.13501,0.22758 -0.15933,0.29018 -0.004,0.0107 -0.0124,0.0317 -0.0187,0.0467 -0.006,0.015 -0.0109,0.0418 -0.0109,0.0597 0,0.0179 -0.006,0.0378 -0.0144,0.0443 -0.008,0.007 -0.0137,0.0264 -0.0131,0.0454 0,0.0185 -0.003,0.0386 -0.0101,0.0449 -0.006,0.006 -0.0114,0.0324 -0.0114,0.0581 0,0.0257 -0.005,0.0468 -0.0101,0.0468 -0.007,0 -0.009,0.0821 -0.005,0.25083 0.005,0.27482 0.0101,0.34248 0.031,0.38859 0.009,0.0189 0.0117,0.0427 0.008,0.0621 -0.005,0.0237 -0.003,0.0337 0.01,0.0405 0.0114,0.006 0.0161,0.0225 0.0161,0.0566 0,0.0262 0.005,0.0504 0.01,0.0537 0.005,0.003 0.01,0.0318 0.01,0.0633 0,0.0315 0.005,0.06 0.01,0.0633 0.005,0.003 0.01,0.023 0.01,0.0438 0,0.0208 0.005,0.0405 0.01,0.0438 0.005,0.003 0.01,0.019 0.01,0.035 0,0.0167 0.006,0.0313 0.0146,0.0346 0.009,0.003 0.0146,0.018 0.0146,0.0364 0,0.0169 0.009,0.0547 0.0196,0.084 0.0107,0.0293 0.0196,0.0655 0.0196,0.0804 0,0.0149 0.0109,0.0445 0.0243,0.0657 0.0134,0.0212 0.0243,0.0454 0.0243,0.0538 0,0.008 0.009,0.0324 0.0196,0.0534 0.0107,0.021 0.0196,0.0441 0.0196,0.0514 0,0.0192 0.11493,0.24218 0.13705,0.26582 0.0104,0.0111 0.0188,0.027 0.0188,0.0353 0,0.008 0.007,0.021 0.0154,0.028 0.008,0.007 0.0255,0.0328 0.038,0.0572 0.0124,0.0245 0.034,0.0551 0.048,0.0681 0.0139,0.013 0.0253,0.0298 0.0253,0.0373 0,0.0154 0.18651,0.1978 0.23797,0.23277 0.0184,0.0125 0.0668,0.0403 0.10759,0.0617 0.0593,0.0312 0.0845,0.0391 0.12538,0.0391 0.0281,0 0.0553,0.004 0.0604,0.009 0.005,0.005 0.0728,0.0116 0.15052,0.0146 0.0776,0.003 0.20478,0.008 0.28247,0.0108 0.0777,0.003 0.1454,0.01 0.15048,0.0147 0.005,0.005 0.0297,0.009 0.0548,0.009 0.0286,0 0.0501,0.006 0.0577,0.0146 0.007,0.008 0.0234,0.0146 0.037,0.0146 0.0731,0 0.20262,0.0652 0.26491,0.13334 0.0268,0.0293 0.0487,0.0595 0.0487,0.0671 0,0.008 0.005,0.0138 0.01,0.0138 0.005,0 0.01,0.0129 0.01,0.0286 0,0.0157 0.005,0.0314 0.01,0.0347 0.005,0.004 0.01,0.0663 0.01,0.15523 0,0.17367 0,0.17556 -0.0829,0.17225 -0.0323,-0.001 -0.0638,0.004 -0.0818,0.013 -0.0161,0.008 -0.0389,0.0151 -0.0509,0.0151 -0.0278,0 -0.0806,0.0167 -0.13025,0.0413 -0.0604,0.0298 -0.12186,0.0459 -0.15227,0.0398 -0.0176,-0.004 -0.0368,4.9e-4 -0.0524,0.0106 -0.0223,0.0146 -0.0267,0.0147 -0.0462,10e-4 -0.0119,-0.008 -0.0248,-0.015 -0.029,-0.015 -0.0139,0 -0.008,0.0656 0.007,0.0779 0.01,0.008 0.0146,0.0304 0.0146,0.0694 v 0.0573 h -0.0299 c -0.0164,0 -0.0358,-0.006 -0.043,-0.0131 -0.0141,-0.014 -0.15847,-0.0411 -0.16809,-0.0315 -0.003,0.003 -0.0129,-7.5e-4 -0.0213,-0.008 -0.0124,-0.0112 -0.0582,-0.0151 -0.21509,-0.0183 -0.19907,-0.004 -0.23002,-0.007 -0.33087,-0.028 -0.0728,-0.0154 -0.0968,-0.0335 -0.20614,-0.15627 -0.0274,-0.0308 -0.0558,-0.056 -0.0629,-0.056 -0.007,0 -0.0273,-0.009 -0.0448,-0.0194 -0.029,-0.0177 -0.0492,-0.0194 -0.22857,-0.0195 -0.12058,-2e-5 -0.19901,-0.004 -0.2027,-0.01 -0.003,-0.005 -0.0183,-0.01 -0.0336,-0.01 -0.0194,0 -0.0366,-0.0102 -0.0576,-0.0341 -0.0164,-0.0188 -0.0366,-0.0341 -0.0448,-0.0341 -0.008,0 -0.0149,-0.008 -0.0149,-0.0189 0,-0.0104 -0.008,-0.0246 -0.0179,-0.0317 -0.0216,-0.0152 -0.099,-0.16612 -0.099,-0.19261 0,-0.0103 -0.005,-0.0214 -0.01,-0.0247 -0.005,-0.003 -0.01,-0.0233 -0.01,-0.0444 0,-0.0211 -0.005,-0.0384 -0.01,-0.0384 -0.005,0 -0.01,-0.0167 -0.01,-0.037 0,-0.0204 -0.005,-0.042 -0.0109,-0.048 -0.006,-0.006 -0.0107,-0.0321 -0.01,-0.0579 0,-0.0374 -0.008,-0.0642 -0.0426,-0.13254 -0.0238,-0.0471 -0.0435,-0.096 -0.0435,-0.10863 0,-0.0127 -0.006,-0.0255 -0.0146,-0.0286 -0.008,-0.003 -0.0146,-0.014 -0.0146,-0.0242 0,-0.0102 -0.007,-0.0246 -0.0159,-0.0318 -0.009,-0.007 -0.0352,-0.0527 -0.0588,-0.10104 -0.0236,-0.0483 -0.0577,-0.10754 -0.0759,-0.13165 -0.0324,-0.0431 -0.0831,-0.13534 -0.0831,-0.15132 0,-0.004 -0.008,-0.0172 -0.0188,-0.0282 -0.0104,-0.0111 -0.0306,-0.0442 -0.0451,-0.0737 -0.0146,-0.0295 -0.0363,-0.0669 -0.0485,-0.0833 -0.0121,-0.0163 -0.0381,-0.063 -0.0577,-0.10364 -0.0196,-0.0407 -0.0441,-0.0817 -0.0546,-0.0911 -0.0104,-0.009 -0.0191,-0.0215 -0.0191,-0.0269 0,-0.0182 -0.0501,-0.11218 -0.0689,-0.12918 -0.0104,-0.009 -0.0188,-0.0248 -0.0188,-0.0344 0,-0.01 -0.008,-0.0231 -0.0174,-0.0301 -0.01,-0.007 -0.0345,-0.0478 -0.0553,-0.0907 -0.0208,-0.0429 -0.0478,-0.0911 -0.0597,-0.10715 -0.0121,-0.0161 -0.0416,-0.071 -0.0658,-0.12207 -0.0243,-0.0511 -0.0524,-0.10366 -0.0628,-0.11689 -0.0218,-0.0279 -0.16057,-0.30314 -0.18879,-0.37471 -0.0107,-0.0268 -0.0253,-0.0618 -0.0326,-0.0779 -0.008,-0.0161 -0.0199,-0.0468 -0.0274,-0.0682 -0.008,-0.0214 -0.0235,-0.0631 -0.0351,-0.0925 -0.0273,-0.0695 -0.0334,-0.12864 -0.0314,-0.30683 0,-0.11736 0.005,-0.14824 0.0164,-0.15693 0.008,-0.006 0.0146,-0.0203 0.0146,-0.0319 0,-0.0274 0.064,-0.15159 0.10192,-0.19793 0.0396,-0.0484 0.10441,-0.12938 0.14634,-0.18305 0.0188,-0.0241 0.0648,-0.0899 0.10205,-0.14612 0.0373,-0.0563 0.0767,-0.11392 0.0877,-0.12816 0.0109,-0.0142 0.0198,-0.0323 0.0198,-0.0402 0,-0.008 0.007,-0.0201 0.0154,-0.0271 0.008,-0.007 0.0257,-0.033 0.0382,-0.0578 0.0126,-0.0248 0.0297,-0.0508 0.0383,-0.0578 0.008,-0.007 0.0154,-0.0208 0.0154,-0.0307 0,-0.01 0.009,-0.0226 0.0193,-0.0283 0.0107,-0.006 0.022,-0.0212 0.0254,-0.0344 0.003,-0.0132 0.01,-0.0241 0.0146,-0.0241 0.005,0 0.009,-0.009 0.009,-0.0189 0,-0.0104 0.005,-0.0217 0.0101,-0.0252 0.0146,-0.009 0.0581,-0.0799 0.0581,-0.0946 0,-0.007 0.009,-0.0179 0.0196,-0.0246 0.0107,-0.007 0.0196,-0.0202 0.0196,-0.0301 0,-0.01 0.009,-0.0262 0.0208,-0.0364 0.0114,-0.0102 0.0336,-0.0468 0.0492,-0.0812 0.0156,-0.0345 0.0369,-0.0687 0.0474,-0.076 0.0104,-0.007 0.0191,-0.019 0.0191,-0.0259 0,-0.0197 0.0272,-0.0691 0.0487,-0.0885 0.0107,-0.01 0.0196,-0.0249 0.0196,-0.0337 0,-0.009 0.004,-0.0202 0.009,-0.0253 0.008,-0.009 0.11921,-0.22818 0.15187,-0.30042 0.009,-0.0208 0.0193,-0.0552 0.0223,-0.0763 0.003,-0.0211 0.0112,-0.0407 0.0183,-0.0435 0.007,-0.003 0.0132,-0.0131 0.0132,-0.0229 0,-0.01 0.003,-0.0201 0.008,-0.0229 0.005,-0.003 0.0139,-0.0304 0.0211,-0.0615 0.007,-0.0311 0.0188,-0.0634 0.026,-0.0718 0.007,-0.008 0.0129,-0.0312 0.0129,-0.0506 0,-0.0194 0.005,-0.0379 0.01,-0.0412 0.005,-0.003 0.01,-0.0165 0.01,-0.0292 0,-0.0128 0.005,-0.0259 0.01,-0.0292 0.005,-0.003 0.01,-0.0224 0.01,-0.0425 0,-0.02 0.004,-0.0406 0.009,-0.0457 0.0104,-0.0109 0.0188,-0.067 0.0267,-0.17485 0.003,-0.0515 0.0101,-0.0806 0.0193,-0.0857 0.0104,-0.006 0.0137,-0.0335 0.0137,-0.11445 0,-0.0587 -0.003,-0.10667 -0.008,-0.10667 -0.0134,0 -0.0602,0.0538 -0.0602,0.0693 0,0.008 -0.0129,0.0242 -0.0286,0.0358 -0.0156,0.0116 -0.0443,0.0449 -0.0637,0.074 -0.0193,0.0291 -0.0503,0.0645 -0.0688,0.0786 -0.0187,0.0142 -0.0338,0.033 -0.0338,0.0418 0,0.0161 -0.074,0.0964 -0.38232,0.41434 -0.0897,0.0926 -0.16316,0.17513 -0.16316,0.18347 0,0.008 -0.0154,0.0234 -0.0341,0.0335 -0.0194,0.0104 -0.0341,0.0259 -0.0341,0.0356 0,0.0108 -0.008,0.0173 -0.0196,0.0173 -0.0173,0 -0.0196,0.007 -0.0196,0.0623 0,0.045 -0.004,0.0638 -0.0139,0.0676 -0.01,0.004 -0.0154,0.0292 -0.0188,0.0911 -0.006,0.10607 -0.0154,0.16706 -0.0268,0.17411 -0.005,0.003 -0.009,0.0153 -0.009,0.0275 0,0.0121 -0.0109,0.0324 -0.0243,0.045 -0.0134,0.0126 -0.0243,0.0305 -0.0243,0.0398 0,0.018 -0.0479,0.063 -0.085,0.0798 -0.0218,0.01 -0.022,0.0127 -0.022,0.17844 0,0.1017 -0.004,0.1707 -0.01,0.17434 -0.005,0.003 -0.01,0.0315 -0.01,0.0627 0,0.0385 -0.005,0.0606 -0.0146,0.0688 -0.008,0.007 -0.0146,0.0272 -0.0146,0.0455 0,0.0361 -0.0188,0.0799 -0.0432,0.10007 -0.008,0.007 -0.0154,0.0209 -0.0154,0.031 0,0.0113 -0.007,0.0183 -0.0179,0.0183 -0.01,0 -0.026,0.009 -0.0356,0.0195 -0.0141,0.0156 -0.03,0.0195 -0.0794,0.0195 h -0.0618 v 0.34092 c 0,0.28567 -0.003,0.34093 -0.0137,0.34093 -0.008,0 -0.0371,-0.0158 -0.0657,-0.0352 l -0.0522,-0.0352 -0.003,0.0319 c -0.003,0.0215 0.003,0.0347 0.0121,0.0405 0.0216,0.012 0.0226,0.27644 0.003,0.32272 -0.008,0.0169 -0.0161,0.0592 -0.0188,0.094 -0.007,0.0968 -0.0164,0.13654 -0.0415,0.18162 -0.0126,0.0227 -0.023,0.049 -0.023,0.0583 0,0.0186 -0.0725,0.0912 -0.0911,0.0912 -0.006,0 -0.0284,0.0115 -0.049,0.0255 -0.0354,0.024 -0.0372,0.0277 -0.0322,0.0652 0.003,0.0246 -1.8e-4,0.0529 -0.009,0.0743 -0.008,0.019 -0.0121,0.0435 -0.009,0.0545 0.003,0.011 -0.003,0.0324 -0.009,0.0475 -0.008,0.0151 -0.0144,0.0402 -0.0144,0.0558 0,0.0155 -0.004,0.0359 -0.009,0.0452 -0.005,0.009 -0.0141,0.041 -0.0206,0.0705 -0.006,0.0295 -0.0179,0.0633 -0.0254,0.0752 -0.008,0.0119 -0.0137,0.0317 -0.0137,0.044 0,0.0123 -0.0117,0.0395 -0.0258,0.0604 l -0.0259,0.038 -0.0746,-0.0796 c -0.0743,-0.0792 -0.10307,-0.095 -0.11376,-0.0625 -0.003,0.009 -0.0124,0.0324 -0.0208,0.0511 -0.008,0.0188 -0.0184,0.0494 -0.0223,0.0682 -0.004,0.0187 -0.0141,0.0595 -0.0226,0.0906 -0.008,0.0311 -0.0156,0.0652 -0.0156,0.0758 0,0.0106 -0.007,0.0218 -0.0146,0.0249 -0.01,0.004 -0.0146,0.0192 -0.0146,0.0468 0,0.0339 -0.004,0.0434 -0.0243,0.0541 -0.0206,0.011 -0.0269,0.0108 -0.0414,-0.002 -0.009,-0.008 -0.031,-0.0201 -0.0481,-0.0268 -0.0171,-0.007 -0.0386,-0.0206 -0.0478,-0.0308 -0.009,-0.0102 -0.0211,-0.0186 -0.0263,-0.0186 -0.005,0 -0.0254,-0.0134 -0.0448,-0.0298 -0.0193,-0.0164 -0.0588,-0.0476 -0.0875,-0.0693 l -0.0522,-0.0395 0.006,0.0425 c 0.003,0.0234 0.009,0.0763 0.0118,0.11766 0.003,0.0464 0.0109,0.0795 0.0194,0.0864 0.008,0.006 0.0137,0.0282 0.0137,0.0489 0,0.0404 0.0164,0.11976 0.0303,0.14736 0.005,0.009 0.009,0.0318 0.009,0.0501 0,0.0196 0.005,0.0353 0.0139,0.0385 0.009,0.004 0.0154,0.0271 0.0188,0.0717 0.008,0.0967 0.0168,0.14917 0.0268,0.14917 0.005,0 0.009,0.011 0.009,0.0245 0,0.0135 0.004,0.0321 0.009,0.0414 0.005,0.009 0.0141,0.041 0.0206,0.0705 0.006,0.0295 0.0179,0.0633 0.0253,0.0752 0.008,0.0119 0.0137,0.0394 0.0137,0.0611 0,0.06 0.0476,0.14714 0.0918,0.16824 0.0196,0.009 0.0447,0.0169 0.056,0.0169 0.027,0 0.13517,0.0386 0.15485,0.0552 0.008,0.007 0.0243,0.013 0.0351,0.013 0.0304,0 0.11081,0.046 0.15446,0.0884 0.0216,0.021 0.0436,0.0382 0.0488,0.0382 0.0117,0 0.28684,0.27459 0.28684,0.28629 0,0.005 0.0144,0.0252 0.0316,0.0456 0.0601,0.0707 0.0755,0.095 0.0755,0.11955 0,0.0136 0.005,0.0274 0.01,0.0307 0.005,0.003 0.01,0.0191 0.01,0.035 0,0.0159 0.007,0.0399 0.0159,0.0532 0.0146,0.0224 0.0146,0.0256 0,0.0418 -0.009,0.01 -0.0159,0.0317 -0.0159,0.0489 0,0.046 -0.0233,0.0838 -0.079,0.12777 -0.0437,0.0345 -0.0553,0.039 -0.10149,0.039 -0.0286,0 -0.0548,-0.004 -0.0581,-0.01 -0.003,-0.005 -0.0151,-0.01 -0.0259,-0.01 -0.0109,0 -0.0337,-0.0116 -0.0505,-0.0258 l -0.0306,-0.0258 -0.003,0.0572 c -0.003,0.0314 -0.008,0.0628 -0.0134,0.0697 -0.007,0.008 -0.037,0.0125 -0.09,0.0125 -0.0438,0 -0.0844,0.005 -0.0901,0.0105 -0.0154,0.0154 -0.17451,0.0168 -0.18966,0.002 -0.007,-0.007 -0.029,-0.0122 -0.0495,-0.0122 -0.0206,0 -0.0645,-0.009 -0.0979,-0.0202 -0.0496,-0.0165 -0.0733,-0.0327 -0.13052,-0.0892 l -0.07,-0.0691 -0.0262,0.0311 c -0.0144,0.0171 -0.0416,0.0375 -0.0602,0.0454 -0.0455,0.019 -0.22542,0.0191 -0.285,1.1e-4 -0.0531,-0.0169 -0.15391,-0.0586 -0.16256,-0.0673 -0.003,-0.004 -0.0141,-0.006 -0.0236,-0.006 -0.009,0 -0.023,-0.008 -0.0303,-0.0184 -0.007,-0.0101 -0.0303,-0.0256 -0.0513,-0.0345 -0.021,-0.009 -0.0463,-0.0232 -0.0559,-0.0319 -0.01,-0.009 -0.0256,-0.0206 -0.0355,-0.0264 -0.0689,-0.0405 -0.11475,-0.0773 -0.1937,-0.15514 -0.0495,-0.0489 -0.0901,-0.0943 -0.0901,-0.10088 0,-0.007 -0.0117,-0.033 -0.026,-0.0586 -0.0383,-0.0686 -0.0616,-0.13833 -0.0616,-0.18471 0,-0.0225 -0.005,-0.0437 -0.01,-0.047 -0.005,-0.003 -0.01,-0.0165 -0.01,-0.0292 0,-0.0128 -0.005,-0.0259 -0.01,-0.0292 -0.005,-0.003 -0.01,-0.0271 -0.01,-0.053 0,-0.0299 -0.005,-0.0514 -0.0146,-0.0591 -0.01,-0.008 -0.0141,-0.0271 -0.0132,-0.0551 0,-0.0236 -0.003,-0.0481 -0.01,-0.0543 -0.007,-0.007 -0.0114,-0.0436 -0.0114,-0.0916 0,-0.0442 -0.005,-0.083 -0.01,-0.0863 -0.006,-0.004 -0.01,-0.0827 -0.01,-0.20455 0,-0.12186 -0.003,-0.20087 -0.01,-0.20456 -0.006,-0.004 -0.01,-0.0976 -0.01,-0.24928 0,-0.18736 -0.003,-0.25081 -0.0137,-0.27614 -0.0109,-0.0259 -0.0132,-0.0803 -0.0107,-0.25539 0.003,-0.1783 0,-0.22675 -0.0107,-0.24396 -0.0121,-0.019 -0.0117,-0.0226 0.003,-0.031 0.0161,-0.009 0.0161,-0.01 -7e-5,-0.0161 -0.0149,-0.006 -0.0171,-0.0211 -0.0171,-0.12184 0,-0.0663 -0.004,-0.11783 -0.01,-0.12129 -0.005,-0.003 -0.01,-0.0318 -0.01,-0.0633 0,-0.0315 -0.005,-0.06 -0.01,-0.0633 -0.005,-0.003 -0.01,-0.0338 -0.01,-0.0677 0,-0.0459 -0.003,-0.0631 -0.0146,-0.0673 -0.009,-0.004 -0.0146,-0.0182 -0.0146,-0.0377 0,-0.0177 -0.009,-0.0561 -0.0196,-0.0854 -0.0107,-0.0293 -0.0196,-0.0676 -0.0196,-0.0851 0,-0.0175 -0.005,-0.0318 -0.01,-0.0318 -0.005,0 -0.01,-0.0252 -0.0101,-0.056 -2e-4,-0.0308 -0.007,-0.067 -0.0141,-0.0804 -0.0208,-0.0364 -0.0208,-0.33915 0,-0.34714 0.008,-0.003 0.0146,-0.0156 0.0146,-0.0279 0,-0.0376 0.053,-0.15503 0.10077,-0.22341 0.025,-0.0357 0.0453,-0.0684 0.0453,-0.0728 0,-0.004 0.0243,-0.0333 0.0541,-0.0642 0.0296,-0.0309 0.0599,-0.0677 0.0672,-0.0817 0.007,-0.014 0.0685,-0.0794 0.13615,-0.14535 0.0676,-0.066 0.12079,-0.12339 0.11817,-0.12765 -0.003,-0.004 0.006,-0.0179 0.0194,-0.0303 0.029,-0.0272 0.0299,-0.0455 0.005,-0.0997 -0.0505,-0.11071 -0.0493,-0.10072 -0.0493,-0.39653 0,-0.23703 0.003,-0.28457 0.0156,-0.31105 0.0104,-0.0211 0.0134,-0.0424 0.009,-0.0656 -0.004,-0.0221 -0.003,-0.0396 0.006,-0.0492 0.007,-0.008 0.0161,-0.0396 0.0204,-0.0699 0.005,-0.0302 0.0107,-0.0715 0.0137,-0.0916 0.003,-0.0201 0.009,-0.039 0.0141,-0.042 0.005,-0.003 0.009,-0.0216 0.009,-0.0413 1.6e-4,-0.0198 0.007,-0.0445 0.0146,-0.0549 0.008,-0.0108 0.0144,-0.0399 0.0144,-0.0676 0,-0.0513 0.0163,-0.15328 0.0299,-0.18623 0.005,-0.0107 0.0101,-0.037 0.0129,-0.0584 0.003,-0.0214 0.008,-0.0631 0.0114,-0.0925 0.003,-0.0295 0.0126,-0.0605 0.02,-0.069 0.009,-0.0101 0.0114,-0.0262 0.008,-0.0462 -0.004,-0.0202 0,-0.0385 0.009,-0.0536 0.008,-0.0126 0.0174,-0.0552 0.0204,-0.0951 0.01,-0.13209 0.0174,-0.18902 0.0263,-0.19837 0.005,-0.005 0.009,-0.0408 0.009,-0.0793 0,-0.0518 0.003,-0.0715 0.0138,-0.0754 0.0188,-0.007 0.0249,-0.11797 0.0306,-0.5561 0.003,-0.23204 0.003,-0.3533 -0.005,-0.35992 -0.005,-0.006 -0.01,-0.0606 -0.01,-0.1286 0,-0.0936 -0.003,-0.12118 -0.0147,-0.13074 -0.0114,-0.009 -0.0146,-0.0358 -0.0146,-0.11808 0,-0.0641 -0.003,-0.10596 -0.01,-0.10596 -0.006,0 -0.01,-0.0453 -0.01,-0.11631 0,-0.067 -0.004,-0.11887 -0.01,-0.12234 -0.0134,-0.008 -0.0134,-1.0632 0,-1.07148 0.005,-0.003 0.01,-0.0318 0.01,-0.0633 0,-0.0315 0.005,-0.06 0.01,-0.0633 0.005,-0.003 0.01,-0.0224 0.01,-0.0425 0,-0.02 0.005,-0.0417 0.0117,-0.0481 0.006,-0.007 0.0149,-0.0347 0.0187,-0.0628 0.0139,-0.10131 0.021,-0.13397 0.0294,-0.13397 0.005,0 0.008,-0.0139 0.008,-0.031 0,-0.0303 0.0106,-0.0711 0.0341,-0.12975 0.006,-0.0161 0.0174,-0.0446 0.0246,-0.0633 0.007,-0.0187 0.0164,-0.0383 0.0208,-0.0434 0.005,-0.005 0.008,-0.0259 0.008,-0.0463 0,-0.0204 0.005,-0.037 0.01,-0.037 0.005,0 0.01,-0.0173 0.01,-0.0384 0,-0.0211 0.003,-0.0407 0.008,-0.0436 0.005,-0.003 0.0141,-0.0261 0.0208,-0.0517 0.007,-0.0256 0.0179,-0.0531 0.0246,-0.0611 0.0126,-0.0156 0.0226,-0.0509 0.0309,-0.10965 0.003,-0.0201 0.009,-0.039 0.0139,-0.042 0.005,-0.003 0.009,-0.0177 0.009,-0.0328 0,-0.0151 0.007,-0.0329 0.0146,-0.0396 0.008,-0.007 0.0146,-0.0181 0.0146,-0.0253 0,-0.0162 0.0366,-0.13434 0.0541,-0.17434 0.007,-0.0161 0.0179,-0.0501 0.0243,-0.0756 0.006,-0.0255 0.0157,-0.0488 0.0204,-0.0517 0.005,-0.003 0.008,-0.0182 0.008,-0.0339 0,-0.0157 0.005,-0.0286 0.01,-0.0286 0.005,0 0.01,-0.0129 0.01,-0.0286 0,-0.0157 0.005,-0.0314 0.01,-0.0347 0.005,-0.003 0.01,-0.0187 0.01,-0.0342 0,-0.0155 0.006,-0.0317 0.0132,-0.0359 0.007,-0.004 0.0157,-0.0244 0.0188,-0.0446 0.003,-0.0203 0.0126,-0.0505 0.0208,-0.0672 0.008,-0.0167 0.0151,-0.0358 0.0151,-0.0423 0,-0.007 0.007,-0.0176 0.0151,-0.0244 0.008,-0.007 0.0126,-0.019 0.009,-0.0269 -0.003,-0.008 0.003,-0.0224 0.0104,-0.0322 0.009,-0.01 0.0139,-0.0264 0.0109,-0.0372 -0.003,-0.0107 0,-0.0245 0.008,-0.0307 0.008,-0.006 0.0137,-0.0192 0.0137,-0.0288 0,-0.01 0.006,-0.0299 0.0146,-0.0451 0.0198,-0.0374 0.0926,-0.22818 0.0926,-0.24247 0,-0.006 0.0198,-0.0492 0.0438,-0.0952 0.0241,-0.0461 0.0438,-0.0924 0.0438,-0.10298 0,-0.0106 0.005,-0.0219 0.01,-0.0252 0.005,-0.003 0.01,-0.0168 0.01,-0.03 0,-0.0132 0.0109,-0.0413 0.0243,-0.0626 0.0134,-0.0212 0.0243,-0.0429 0.0243,-0.0481 0,-0.005 0.0131,-0.0318 0.0293,-0.0591 0.0161,-0.0273 0.0292,-0.0567 0.0292,-0.0655 0,-0.0178 0.22812,-0.47669 0.2483,-0.49952 0.007,-0.008 0.0328,-0.0545 0.0571,-0.10313 0.0243,-0.0487 0.0511,-0.0941 0.0594,-0.10104 0.008,-0.007 0.0151,-0.0172 0.0151,-0.0228 0,-0.006 0.0171,-0.0369 0.0379,-0.0694 0.0208,-0.0325 0.0408,-0.0688 0.0443,-0.0806 0.003,-0.0118 0.0194,-0.0324 0.0351,-0.0456 0.0159,-0.0133 0.0287,-0.029 0.0287,-0.0349 0,-0.0147 0.0273,-0.0577 0.0591,-0.0928 0.0146,-0.0161 0.0293,-0.0391 0.033,-0.0511 0.003,-0.0121 0.0151,-0.0265 0.0254,-0.032 0.0104,-0.006 0.0188,-0.0185 0.0188,-0.0288 0,-0.0103 0.0154,-0.031 0.0341,-0.0459 0.0188,-0.0149 0.0341,-0.0333 0.0341,-0.0408 0,-0.0141 0.0362,-0.0581 0.14754,-0.17901 0.0356,-0.0387 0.0663,-0.0769 0.0682,-0.0849 0.006,-0.0254 0.37404,-0.37015 0.39514,-0.37015 0.005,0 0.0218,-0.0134 0.0374,-0.0297 0.0337,-0.0352 0.15133,-0.11634 0.21644,-0.14936 0.0254,-0.0128 0.0545,-0.0326 0.0646,-0.0439 0.0101,-0.0113 0.0226,-0.0205 0.0278,-0.0205 0.005,0 0.0646,-0.0277 0.13241,-0.0616 0.0678,-0.0338 0.16928,-0.0757 0.22551,-0.0931 0.0563,-0.0174 0.11471,-0.0379 0.12986,-0.0456 0.0151,-0.008 0.0417,-0.0141 0.059,-0.0141 0.0171,0 0.0355,-0.004 0.0406,-0.009 0.0104,-0.01 0.0872,-0.0189 0.24015,-0.0286 0.062,-0.004 0.10917,-0.0115 0.11639,-0.0187 0.018,-0.0182 0.26791,-0.0162 0.30047,0.002 0.0204,0.0117 0.13442,0.014 0.71352,0.0143 0.50285,2.4e-4 0.68914,0.003 0.68914,0.0113 0,0.008 0.004,0.008 0.0139,-7.5e-4 0.0101,-0.008 0.0193,-0.009 0.0334,-0.001 0.0107,0.006 0.0656,0.0104 0.12183,0.0104 0.0578,0 0.10496,0.004 0.10835,0.01 0.003,0.005 0.0322,0.01 0.0642,0.01 0.0328,0 0.0676,0.006 0.0798,0.0135 0.0243,0.0151 0.13088,0.0285 0.21026,0.0264 0.0361,-0.001 0.0558,0.003 0.0633,0.013 0.0114,0.0148 0.0595,0.0189 0.35193,0.0303 0.0697,0.003 0.13545,0.009 0.14621,0.0149 0.023,0.0117 0.35835,0.006 0.53563,-0.01 0.0643,-0.005 0.1717,-0.0126 0.23867,-0.0156 0.067,-0.003 0.13236,-0.0108 0.14532,-0.0173 0.0324,-0.0161 0.58116,-0.0148 0.59741,0.002 0.008,0.008 0.13982,0.0112 0.48049,0.0112 0.40525,0 0.47094,-0.002 0.4814,-0.0146 0.007,-0.008 0.0216,-0.0146 0.033,-0.0146 0.0226,0 0.11711,-0.0324 0.13581,-0.0464 0.006,-0.005 0.0311,-0.0142 0.0553,-0.021 0.0241,-0.007 0.0504,-0.0178 0.0584,-0.0245 0.024,-0.0197 0.16787,-0.0729 0.22975,-0.0849 0.0317,-0.006 0.0646,-0.0171 0.073,-0.0243 0.008,-0.007 0.0356,-0.0132 0.0603,-0.0132 0.0247,0 0.0476,-0.004 0.051,-0.01 0.003,-0.005 0.0274,-0.01 0.0535,-0.01 0.0261,0 0.0503,-0.004 0.0535,-0.01 0.003,-0.005 0.0315,-0.01 0.0627,-0.01 0.0385,0 0.0606,-0.005 0.0688,-0.0146 0.01,-0.0116 0.0379,-0.0146 0.13698,-0.0146 0.0727,0 0.12737,-0.004 0.13089,-0.01 0.003,-0.005 0.0188,-0.01 0.0346,-0.01 0.0246,0 0.0286,-0.004 0.0286,-0.0263 0,-0.015 -0.0109,-0.0376 -0.0254,-0.0528 -0.0252,-0.0263 -0.0253,-0.0268 -0.007,-0.0514 0.0144,-0.0198 0.0266,-0.0249 0.0595,-0.0252 0.0228,-1.7e-4 0.0414,-0.004 0.0414,-0.009 0,-0.009 0.0381,-0.0155 0.14609,-0.0266 0.0295,-0.003 0.058,-0.009 0.0633,-0.013 0.005,-0.004 0.033,-0.0104 0.0613,-0.014 0.0283,-0.004 0.0627,-0.0108 0.0764,-0.016 0.023,-0.009 0.0246,-0.0131 0.0204,-0.0556 -0.003,-0.0254 -0.009,-0.0626 -0.0146,-0.0827 l -0.01,-0.0365 h 0.12988 c 0.0761,0 0.1324,0.004 0.13593,0.01 0.003,0.006 0.0551,0.01 0.12177,0.01 0.0667,0 0.11828,0.004 0.12174,0.01 0.003,0.005 0.0389,0.01 0.0791,0.01 0.0402,0 0.0707,-0.004 0.0677,-0.009 -0.003,-0.005 0,-0.0219 0.005,-0.038 0.008,-0.0234 0.02,-0.0326 0.0578,-0.045 0.0261,-0.008 0.0644,-0.0155 0.0851,-0.0155 0.0206,0 0.0419,-0.004 0.0473,-0.01 0.005,-0.005 0.0873,-0.0126 0.18215,-0.0161 l 0.1725,-0.007 v -0.0232 c 0,-0.0469 0.0597,-0.11989 0.0981,-0.11989 0.0146,0 0.0288,-0.006 0.0316,-0.0135 0.007,-0.0182 0.15118,-0.0193 0.1722,-0.001 0.008,0.007 0.0388,0.0153 0.0682,0.0188 0.12481,0.0147 0.14678,0.0185 0.15177,0.0266 0.009,0.0144 0.0392,0.009 0.0561,-0.009 0.0109,-0.0122 0.0161,-0.0353 0.0161,-0.0731 0,-0.0487 0.003,-0.0552 0.0196,-0.0552 0.0106,0 0.0196,0.004 0.0196,0.01 0,0.012 0.14551,0.0129 0.1642,10e-4 0.009,-0.006 0.01,-0.0104 0.003,-0.015 -0.006,-0.004 -0.0107,-0.0188 -0.0107,-0.0337 0,-0.0148 -0.0109,-0.0486 -0.0243,-0.0749 -0.0134,-0.0264 -0.0243,-0.0512 -0.0243,-0.0552 -8e-5,-0.0139 0.0324,-0.007 0.0845,0.0174 0.0302,0.0143 0.079,0.0272 0.11541,0.0306 l 0.0631,0.006 v -0.0306 c 0,-0.0291 0.003,-0.0306 0.0377,-0.0306 0.0208,0 0.0564,-0.007 0.0792,-0.0146 0.05,-0.0177 0.11048,-0.0189 0.13943,-0.003 0.0117,0.006 0.0475,0.0151 0.0797,0.0191 0.11691,0.0145 0.16615,0.0248 0.19479,0.0406 0.0389,0.0214 0.0508,0.0204 0.064,-0.006 0.0161,-0.0315 0.0969,-0.11356 0.12779,-0.12983 0.0144,-0.008 0.037,-0.0138 0.0499,-0.0138 0.0131,0 0.029,-0.007 0.0357,-0.0146 0.007,-0.008 0.0247,-0.0146 0.0402,-0.0146 0.0154,0 0.028,-0.004 0.028,-0.009 0,-0.01 0.0492,-0.0183 0.15587,-0.0267 0.0498,-0.004 0.0757,-0.0104 0.0814,-0.0203 0.007,-0.0121 0.0335,-0.014 0.16164,-0.0111 0.10754,0.002 0.15743,3e-5 0.16707,-0.008 0.008,-0.006 0.0532,-0.0134 0.10137,-0.0159 0.0481,-0.002 0.10729,-0.009 0.13138,-0.0147 0.10706,-0.025 0.1928,-0.041 0.22741,-0.0424 0.0211,-7.5e-4 0.0396,-0.007 0.0425,-0.0145 0.003,-0.009 0.0228,-0.013 0.0575,-0.013 0.029,0 0.0525,-0.003 0.0525,-0.008 0,-0.007 0.10995,-0.0314 0.14465,-0.0314 0.0101,0 0.024,-0.006 0.0307,-0.0146 0.007,-0.008 0.0282,-0.0146 0.0498,-0.0146 0.0208,0 0.0378,-0.004 0.0378,-0.01 0,-0.005 0.0191,-0.01 0.0422,-0.01 0.0544,0 0.1526,-0.0197 0.1526,-0.0306 0,-0.005 0.0129,-0.008 0.0286,-0.008 0.0157,0 0.0313,-0.004 0.0346,-0.01 0.003,-0.005 0.0129,-0.01 0.0216,-0.01 0.008,0 0.0379,-0.0105 0.0651,-0.0232 0.0795,-0.0372 0.12167,-0.0482 0.13664,-0.0358 0.009,0.008 0.0208,0.008 0.0392,7.5e-4 0.0144,-0.005 0.0385,-0.01 0.0535,-0.01 0.0151,0 0.0325,-0.006 0.0386,-0.0135 0.0126,-0.0153 0.0494,-0.0245 0.1269,-0.032 0.0409,-0.004 0.0555,-0.002 0.0641,0.01 0.009,0.0129 0.0211,0.005 0.0783,-0.0526 0.0369,-0.0372 0.0719,-0.0677 0.0776,-0.0677 0.005,0 0.0297,-0.0197 0.0534,-0.0438 0.0236,-0.0241 0.0504,-0.0438 0.0593,-0.0438 0.009,0 0.0216,-0.007 0.0281,-0.0142 0.0188,-0.0227 0.15536,-0.0929 0.18065,-0.0929 0.0126,0 0.0257,-0.004 0.0291,-0.01 0.003,-0.005 0.0394,-0.01 0.0802,-0.01 0.12342,0 0.17232,0.0219 0.27651,0.12405 0.0453,0.0444 0.0769,0.0686 0.081,0.062 0.003,-0.006 0.0169,-0.0108 0.0292,-0.0108 0.0124,0 0.028,-0.007 0.0347,-0.0146 0.007,-0.008 0.027,-0.0146 0.045,-0.0146 0.0343,0 0.25423,-0.10479 0.27668,-0.13185 0.006,-0.008 0.0179,-0.0143 0.0253,-0.0143 0.008,0 0.023,-0.011 0.0346,-0.0243 0.0117,-0.0134 0.0267,-0.0243 0.0336,-0.0243 0.007,0 0.0226,-0.01 0.0351,-0.0219 0.023,-0.0222 0.10216,-0.0808 0.13643,-0.10114 0.0101,-0.006 0.0327,-0.0247 0.0499,-0.0414 0.0174,-0.0167 0.0358,-0.0304 0.0412,-0.0304 0.005,0 0.0248,-0.0153 0.0429,-0.0341 0.0181,-0.0187 0.0407,-0.0341 0.0501,-0.0341 0.009,0 0.0336,-0.0197 0.0538,-0.0438 0.02,-0.0241 0.0437,-0.0438 0.0523,-0.0438 0.009,0 0.0282,-0.0131 0.0436,-0.0292 0.0154,-0.0161 0.0329,-0.0292 0.0389,-0.0292 0.006,0 0.0257,-0.0153 0.0439,-0.0341 0.0181,-0.0187 0.0392,-0.0341 0.0468,-0.0341 0.008,0 0.0223,-0.011 0.0329,-0.0243 0.0104,-0.0134 0.027,-0.0243 0.0367,-0.0243 0.01,0 0.0233,-0.007 0.0305,-0.0156 0.007,-0.009 0.0657,-0.0418 0.13027,-0.0738 0.0645,-0.032 0.12423,-0.0645 0.13268,-0.0721 0.008,-0.008 0.0285,-0.0138 0.0446,-0.0138 0.0498,0 0.0532,0.0183 0.0486,0.2679 -0.005,0.23593 -0.0139,0.34387 -0.0322,0.36631 -0.0114,0.014 -0.0213,0.0801 -0.0263,0.17696 -0.003,0.0309 -0.008,0.0614 -0.0144,0.0677 -0.006,0.006 -0.0114,0.0276 -0.0114,0.0474 0,0.0229 -0.005,0.038 -0.0146,0.0416 -0.008,0.003 -0.0141,0.0156 -0.0134,0.0278 0,0.0122 -0.0126,0.0617 -0.0296,0.10992 -0.0169,0.0482 -0.0352,0.10301 -0.0406,0.12176 -0.005,0.0187 -0.0248,0.067 -0.0431,0.10715 -0.0181,0.0402 -0.0355,0.084 -0.0383,0.0974 -0.003,0.0134 -0.0283,0.059 -0.0566,0.10126 -0.0283,0.0423 -0.0588,0.0901 -0.0679,0.10613 -0.009,0.0161 -0.0307,0.0439 -0.048,0.0618 l -0.0315,0.0325 0.0383,0.0343 c 0.021,0.0189 0.0503,0.0409 0.065,0.049 0.0146,0.008 0.0329,0.0266 0.0406,0.0413 0.008,0.0146 0.0296,0.0417 0.0489,0.0602 0.0193,0.0185 0.0349,0.0389 0.0349,0.0455 0,0.006 0.01,0.0243 0.0218,0.0395 0.0313,0.0393 0.0462,0.0683 0.0462,0.0893 0,0.01 0.0114,0.0349 0.0251,0.0552 0.0139,0.0203 0.023,0.0449 0.0206,0.0546 -0.003,0.01 0.003,0.023 0.01,0.0295 0.008,0.007 0.0126,0.0218 0.01,0.0352 -0.003,0.0142 0,0.0253 0.009,0.0284 0.008,0.003 0.0134,0.0198 0.0134,0.0425 0,0.0205 0.005,0.04 0.01,0.0434 0.005,0.003 0.01,0.047 0.01,0.0974 0,0.0504 0.005,0.0941 0.01,0.0974 0.005,0.003 0.01,0.0425 0.01,0.0871 0,0.0601 0.003,0.0841 0.0146,0.0931 0.0104,0.009 0.0146,0.0312 0.0146,0.0772 0,0.0358 0.004,0.0692 0.009,0.0743 0.005,0.005 0.0111,0.0356 0.0139,0.0677 0.005,0.0529 0.0141,0.11353 0.0303,0.19482 0.0228,0.11335 0.0293,0.13803 0.0397,0.15098 0.006,0.008 0.0213,0.0409 0.0333,0.0731 0.0289,0.0785 0.1339,0.28726 0.15717,0.31233 0.0101,0.0111 0.0187,0.0273 0.0187,0.036 0,0.009 0.006,0.0195 0.0141,0.0239 0.008,0.004 0.0431,0.047 0.0782,0.0948 0.0352,0.0478 0.0825,0.1083 0.10511,0.1345 0.0731,0.0848 0.44925,0.465 0.46004,0.465 0.005,0 0.0298,0.0197 0.0535,0.0438 0.0235,0.0241 0.0486,0.0438 0.0555,0.0438 0.007,0 0.0238,0.0126 0.0374,0.0279 0.0137,0.0153 0.0476,0.0431 0.0756,0.0617 0.19207,0.12786 0.2298,0.15406 0.23573,0.16365 0.003,0.005 0.0141,0.01 0.0238,0.01 0.01,0 0.023,0.006 0.0295,0.0141 0.006,0.008 0.0344,0.0275 0.0621,0.0438 0.0277,0.0163 0.0588,0.0352 0.069,0.0419 0.0101,0.007 0.0527,0.0341 0.0943,0.0609 0.0416,0.0268 0.10265,0.0662 0.13565,0.0877 0.033,0.0214 0.0743,0.0463 0.0917,0.0554 0.0173,0.009 0.039,0.0276 0.048,0.0414 0.009,0.0138 0.0235,0.025 0.0321,0.025 0.009,0 0.0347,0.0164 0.0579,0.0365 0.023,0.0201 0.0646,0.0541 0.0921,0.0755 0.11588,0.0903 0.27211,0.27457 0.27211,0.32095 0,0.013 0.005,0.0268 0.0112,0.0305 0.008,0.005 0.009,0.0351 0.005,0.0983 -0.005,0.074 -0.0101,0.0995 -0.0302,0.13358 -0.0386,0.0658 -0.11094,0.1501 -0.13511,0.15738 -0.0121,0.004 -0.0351,0.0186 -0.0511,0.0332 -0.0356,0.0323 -0.33596,0.18559 -0.36375,0.18559 -0.0109,0 -0.0226,0.004 -0.0259,0.01 -0.003,0.005 -0.0184,0.01 -0.0335,0.01 -0.0151,0 -0.0329,0.006 -0.0395,0.0146 -0.007,0.008 -0.0193,0.0146 -0.0281,0.0146 -0.009,0 -0.04,0.009 -0.0693,0.0195 -0.0293,0.0107 -0.0651,0.0195 -0.0796,0.0195 -0.0146,0 -0.029,0.004 -0.0323,0.01 -0.003,0.005 -0.0187,0.01 -0.0341,0.01 -0.0154,0 -0.0308,0.004 -0.0341,0.01 -0.003,0.005 -0.0184,0.01 -0.0336,0.01 -0.0157,0 -0.03,0.006 -0.0332,0.0146 -0.003,0.008 -0.0156,0.0147 -0.0278,0.0147 -0.0241,1.6e-4 -0.0907,0.0213 -0.10158,0.0321 -0.003,0.004 -0.0228,0.007 -0.0428,0.007 -0.0198,0 -0.0412,0.006 -0.0473,0.0134 -0.006,0.007 -0.0319,0.0161 -0.0572,0.0195 -0.0913,0.0121 -0.11914,0.0181 -0.11914,0.0258 0,0.0137 -0.12464,0.0209 -0.35554,0.0207 -0.26551,-2.4e-4 -0.41357,-0.008 -0.43197,-0.0237 -0.008,-0.006 -0.0425,-0.0123 -0.078,-0.0137 -0.13404,-0.005 -0.19735,-0.0142 -0.20273,-0.0282 -0.004,-0.0101 -0.024,-0.0138 -0.0753,-0.0138 -0.0386,0 -0.0743,-0.004 -0.0793,-0.009 -0.005,-0.005 -0.029,-0.0111 -0.0531,-0.014 -0.0769,-0.009 -0.11183,-0.0185 -0.1198,-0.0321 -0.005,-0.008 -0.0246,-0.0134 -0.0487,-0.0135 -0.0255,-1.3e-4 -0.0501,-0.007 -0.0652,-0.0193 -0.0139,-0.0109 -0.0397,-0.0191 -0.0603,-0.0193 -0.0199,-1.2e-4 -0.0387,-0.005 -0.0419,-0.01 -0.003,-0.005 -0.0187,-0.01 -0.0341,-0.01 -0.0154,0 -0.0308,-0.004 -0.0341,-0.01 -0.003,-0.005 -0.0228,-0.01 -0.0434,-0.01 -0.0243,0 -0.0393,-0.005 -0.043,-0.0146 -0.003,-0.01 -0.0188,-0.0146 -0.0443,-0.0146 -0.0213,0 -0.0414,-0.004 -0.0447,-0.01 -0.003,-0.005 -0.0319,-0.01 -0.0637,-0.01 -0.0534,0 -0.0587,0.002 -0.0718,0.0275 -0.008,0.0151 -0.0211,0.0332 -0.0295,0.0401 -0.008,0.007 -0.0154,0.0198 -0.0154,0.0285 -1.2e-4,0.009 -0.009,0.0268 -0.0194,0.0402 -0.0107,0.0135 -0.0191,0.0397 -0.0194,0.0589 -1.2e-4,0.019 -0.005,0.0395 -0.0111,0.0455 -0.0114,0.0114 -0.0151,0.0455 -0.024,0.21699 -0.004,0.0742 -0.009,0.10442 -0.0194,0.11007 -0.009,0.005 -0.0139,0.0243 -0.0139,0.0554 0,0.0262 -0.005,0.0504 -0.01,0.0537 -0.005,0.003 -0.01,0.0186 -0.01,0.0341 0,0.0154 -0.005,0.0308 -0.01,0.0341 -0.005,0.003 -0.01,0.0189 -0.01,0.0347 0,0.0157 -0.003,0.0286 -0.008,0.0286 -0.004,0 -0.0204,0.0274 -0.0358,0.0609 -0.0293,0.0632 -0.0511,0.095 -0.0652,0.095 -0.005,0 -0.0252,-0.0153 -0.0458,-0.034 -0.0208,-0.0187 -0.0531,-0.0405 -0.0721,-0.0484 l -0.0345,-0.0144 -0.005,0.0411 c -0.009,0.0727 -0.0184,0.10896 -0.031,0.12392 -0.007,0.008 -0.0268,0.0453 -0.0442,0.0828 -0.0176,0.0375 -0.0456,0.0857 -0.0624,0.10715 -0.0168,0.0214 -0.0369,0.0483 -0.0446,0.0596 -0.008,0.0114 -0.0327,0.0452 -0.0554,0.0751 -0.0228,0.0299 -0.0414,0.0612 -0.0414,0.0694 0,0.0285 -0.0374,0.0165 -0.0517,-0.0166 -0.0288,-0.0669 -0.0555,-0.13969 -0.0555,-0.15117 0,-0.007 -0.003,-0.012 -0.008,-0.012 -0.008,0 -0.17756,0.16784 -0.17756,0.17621 0,0.003 -0.0241,0.042 -0.0535,0.0868 -0.0295,0.0448 -0.0535,0.0913 -0.0535,0.10345 0,0.0121 -0.003,0.0244 -0.008,0.0273 -0.005,0.003 -0.0114,0.0271 -0.0149,0.0537 -0.003,0.0267 -0.01,0.0504 -0.0134,0.0527 -0.004,0.002 -0.0272,-0.01 -0.0518,-0.0264 -0.0246,-0.0168 -0.0751,-0.0509 -0.11203,-0.0758 -0.0369,-0.0249 -0.0755,-0.0544 -0.0857,-0.0658 -0.0101,-0.0113 -0.0266,-0.0206 -0.0363,-0.0206 -0.0198,0 -0.0516,0.053 -0.0439,0.0732 0.003,0.007 0,0.0182 -0.009,0.0247 -0.008,0.007 -0.0141,0.024 -0.0141,0.0391 0,0.0151 -0.004,0.03 -0.009,0.0331 -0.0131,0.008 -0.0591,0.1115 -0.0591,0.13307 0,0.0143 -0.007,0.0183 -0.0332,0.0183 -0.0274,0 -0.0323,-0.003 -0.0285,-0.0179 0.003,-0.0129 -0.0141,-0.0351 -0.0613,-0.0784 l -0.0659,-0.0604 -0.0117,0.0321 c -0.006,0.0177 -0.0171,0.0507 -0.0241,0.0734 -0.007,0.0227 -0.0208,0.0489 -0.0311,0.0582 -0.0104,0.009 -0.0272,0.0357 -0.0376,0.0586 -0.0159,0.0349 -0.0236,0.0416 -0.0468,0.0416 -0.0208,0 -0.0293,-0.005 -0.0334,-0.0219 -0.003,-0.0121 -0.0254,-0.0415 -0.0498,-0.0654 l -0.0443,-0.0435 -0.056,0.0545 c -0.0628,0.0613 -0.0872,0.0762 -0.12381,0.0762 -0.0139,0 -0.0278,0.007 -0.0309,0.0146 -0.003,0.008 -0.0151,0.0146 -0.0265,0.0145 -0.0114,-6e-5 -0.0472,0.009 -0.0793,0.0207 -0.0549,0.0195 -0.06,0.0241 -0.0852,0.0757 -0.0146,0.0302 -0.0268,0.0623 -0.0268,0.0713 0,0.009 -0.005,0.0191 -0.01,0.0223 -0.005,0.003 -0.01,0.0187 -0.01,0.0341 0,0.0154 -0.005,0.0308 -0.01,0.0341 -0.005,0.003 -0.01,0.023 -0.01,0.0438 0,0.0208 -0.005,0.0405 -0.01,0.0438 -0.005,0.003 -0.01,0.0162 -0.01,0.0286 0,0.0124 -0.007,0.028 -0.0146,0.0347 -0.008,0.007 -0.0146,0.0247 -0.0146,0.0402 0,0.0154 -0.005,0.028 -0.01,0.028 -0.005,0 -0.01,0.0129 -0.01,0.0286 0,0.0157 -0.005,0.0314 -0.01,0.0347 -0.005,0.003 -0.01,0.0271 -0.01,0.0529 0,0.0307 -0.005,0.0513 -0.0154,0.0596 -0.009,0.008 -0.0132,0.021 -0.01,0.0343 0.003,0.014 0,0.0236 -0.009,0.0272 -0.008,0.003 -0.0146,0.0165 -0.0146,0.0298 0,0.0133 -0.005,0.0365 -0.0109,0.0515 -0.022,0.0548 -0.0263,0.0673 -0.0426,0.1222 -0.009,0.0308 -0.0204,0.0585 -0.0253,0.0615 -0.005,0.003 -0.009,0.0156 -0.009,0.0279 0,0.0237 -0.0658,0.16404 -0.0796,0.16957 -0.005,0.002 -0.008,0.0154 -0.008,0.0302 0,0.0148 -0.0109,0.0419 -0.0241,0.0601 -0.0132,0.0182 -0.0289,0.0441 -0.0347,0.0575 -0.006,0.0134 -0.0184,0.0331 -0.0277,0.0438 -0.009,0.0107 -0.0352,0.0505 -0.0572,0.0885 -0.022,0.0379 -0.0469,0.0746 -0.0553,0.0816 -0.008,0.007 -0.0151,0.0189 -0.0151,0.0266 0,0.008 -0.0109,0.0258 -0.0241,0.0402 -0.0407,0.0442 -0.11227,0.13744 -0.11227,0.14628 0,0.005 -0.009,0.0163 -0.0196,0.026 -0.0107,0.01 -0.0196,0.024 -0.0196,0.0318 0,0.008 -0.0109,0.0228 -0.0243,0.0333 -0.0134,0.0105 -0.0243,0.0274 -0.0243,0.0376 0,0.0101 -0.009,0.0231 -0.0196,0.0289 -0.0107,0.006 -0.0196,0.0176 -0.0196,0.0264 0,0.009 -0.006,0.0231 -0.0144,0.0319 -0.0418,0.0462 -0.2291,0.39529 -0.2291,0.42699 0,0.007 -0.003,0.0194 -0.008,0.0288 -0.0126,0.0252 -0.0304,0.0843 -0.0304,0.10165 0,0.008 -0.006,0.0206 -0.0146,0.0272 -0.009,0.008 -0.0124,0.0206 -0.009,0.0352 0.004,0.0161 0,0.025 -0.01,0.0292 -0.009,0.004 -0.0157,0.0172 -0.0157,0.0336 0,0.0152 -0.005,0.0303 -0.01,0.0336 -0.005,0.003 -0.01,0.023 -0.01,0.0438 0,0.0208 -0.005,0.0405 -0.01,0.0438 -0.005,0.003 -0.01,0.0231 -0.01,0.0439 0,0.022 -0.005,0.0412 -0.0134,0.0457 -0.008,0.004 -0.0161,0.0264 -0.0196,0.0492 -0.0154,0.10553 -0.0184,0.11978 -0.0266,0.12483 -0.005,0.003 -0.009,0.0272 -0.009,0.0538 0,0.0359 -0.004,0.05 -0.0159,0.0546 -0.0144,0.006 -0.0141,0.007 0.003,0.0192 0.0139,0.0101 0.0154,0.0157 0.006,0.0247 -0.007,0.007 -0.0117,0.0415 -0.0117,0.087 0,0.0415 -0.005,0.0781 -0.01,0.0814 -0.005,0.003 -0.01,0.0468 -0.01,0.0968 0,0.0688 -0.003,0.0937 -0.0146,0.10289 -0.0117,0.01 -0.0147,0.04 -0.0147,0.15647 0,0.0857 -0.004,0.14679 -0.01,0.15037 -0.006,0.004 -0.01,0.13141 -0.01,0.35066 0,0.21926 0.003,0.34684 0.01,0.35067 0.006,0.004 0.01,0.0711 0.01,0.16985 0,0.13427 0.003,0.16602 0.0147,0.17603 0.0132,0.0109 0.0129,0.0135 0,0.0236 -0.0141,0.0104 -0.0141,0.0125 -1.3e-4,0.0242 0.0124,0.0104 0.0154,0.0342 0.0154,0.12311 0,0.063 0.004,0.11284 0.01,0.11627 0.005,0.004 0.01,0.053 0.01,0.11552 0,0.0745 0.004,0.11344 0.0121,0.12184 0.01,0.01 0.008,0.015 -0.006,0.026 -0.0167,0.0123 -0.0168,0.0143 -0.003,0.0199 0.0137,0.005 0.0161,0.0226 0.0161,0.11229 0,0.0642 0.003,0.1061 0.01,0.1061 0.005,0 0.01,0.0339 0.01,0.0822 0,0.0452 0.005,0.0849 0.01,0.0882 0.005,0.003 0.01,0.0468 0.01,0.0968 0,0.0688 0.003,0.0937 0.0146,0.1029 0.0112,0.009 0.0146,0.0341 0.0146,0.10289 0,0.05 0.005,0.0935 0.01,0.0968 0.005,0.004 0.01,0.0616 0.01,0.14124 0,0.0796 0.004,0.1377 0.01,0.14125 0.005,0.003 0.01,0.0428 0.01,0.0877 0,0.0449 0.005,0.0844 0.01,0.0877 0.005,0.003 0.01,0.0428 0.01,0.0878 0,0.06 0.003,0.0838 0.0137,0.0895 0.008,0.005 0.0159,0.0312 0.0193,0.0662 0.003,0.0321 0.008,0.0847 0.0111,0.11688 0.003,0.0321 0.01,0.0672 0.0144,0.0779 0.005,0.0107 0.0112,0.0523 0.0137,0.0925 0.008,0.12778 0.0171,0.17997 0.0309,0.188 0.009,0.005 0.0137,0.0257 0.0137,0.0609 0,0.0292 0.004,0.0531 0.009,0.0531 0.008,0 0.0129,0.0303 0.0263,0.17046 0.003,0.0321 0.0124,0.066 0.0206,0.0753 0.0112,0.0126 0.0137,0.0291 0.009,0.065 -0.004,0.0355 -0.003,0.0512 0.008,0.0598 0.009,0.007 0.0141,0.0296 0.0141,0.0586 0,0.0258 0.005,0.0496 0.01,0.0529 0.005,0.003 0.01,0.0233 0.01,0.0444 0,0.0211 0.005,0.0384 0.01,0.0384 0.005,0 0.01,0.0129 0.01,0.0286 0,0.0157 0.005,0.0314 0.01,0.0347 0.005,0.003 0.01,0.0271 0.01,0.0529 0,0.0298 0.005,0.0514 0.0146,0.0591 0.008,0.007 0.0146,0.0247 0.0146,0.0401 0,0.0154 0.003,0.028 0.008,0.028 0.004,0 0.0137,0.0208 0.021,0.0463 0.0168,0.0579 0.0816,0.1888 0.12042,0.24341 0.0316,0.0444 0.0932,0.0805 0.13747,0.0805 0.0149,0 0.0398,-0.01 0.0552,-0.0219 0.0864,-0.0675 0.084,-0.0663 0.11099,-0.0561 0.0141,0.005 0.0422,0.01 0.0621,0.01 0.0201,0 0.0413,0.005 0.0473,0.0109 0.006,0.006 0.0387,0.0145 0.0726,0.019 0.0339,0.005 0.0836,0.0129 0.11034,0.0188 0.0268,0.006 0.0619,0.013 0.0779,0.0158 0.0963,0.017 0.21917,0.1219 0.21917,0.18712 0,0.0103 0.006,0.0242 0.0146,0.0309 0.008,0.007 0.0146,0.0245 0.0146,0.0396 0,0.0151 0.005,0.0302 0.01,0.0335 0.005,0.003 0.01,0.0142 0.01,0.0243 0,0.0395 0.12268,0.19491 0.15385,0.19491 0.0238,0 0.18478,0.14665 0.23497,0.21404 0.0191,0.0257 0.023,0.0419 0.0216,0.0866 0,0.0302 -0.007,0.0673 -0.0129,0.0823 -0.0121,0.0302 -0.131,0.11386 -0.16192,0.11386 -0.0168,0 -0.0615,0.0174 -0.0994,0.0386 -0.0107,0.006 -0.0286,-0.005 -0.0657,-0.0417 l -0.0512,-0.0499 v 0.0341 c 0,0.0683 -0.14638,0.17432 -0.24106,0.17454 -0.0228,5e-5 -0.0414,0.005 -0.0414,0.01 0,0.006 -0.0714,0.01 -0.19482,0.01 h -0.19482 v -0.0277 c 0,-0.0378 -0.0306,-0.0651 -0.057,-0.051 -0.0249,0.0133 -0.20278,0.0139 -0.21093,7.4e-4 -0.004,-0.006 -0.0134,-0.005 -0.0262,0.004 -0.0176,0.0124 -0.023,0.0122 -0.0436,-0.001 -0.0184,-0.012 -0.0394,-0.0142 -0.0954,-0.01 -0.0531,0.004 -0.0766,0.002 -0.0897,-0.008 -0.01,-0.007 -0.0401,-0.0136 -0.0675,-0.0138 -0.0273,-1.7e-4 -0.0636,-0.007 -0.0806,-0.0157 -0.0211,-0.0105 -0.0428,-0.0134 -0.0684,-0.009 -0.0374,0.006 -0.13178,-0.0168 -0.14307,-0.0351 -0.003,-0.005 -0.018,-0.009 -0.0339,-0.009 -0.0157,0 -0.0286,-0.004 -0.0286,-0.01 0,-0.005 -0.009,-0.01 -0.0198,-0.01 -0.0427,0 -0.24091,-0.11465 -0.28862,-0.16694 -0.0412,-0.0452 -0.0792,-0.12268 -0.0859,-0.1751 -0.008,-0.0626 -0.008,-0.19193 1.2e-4,-0.32365 0.005,-0.0743 0.003,-0.1028 -0.009,-0.12663 -0.008,-0.0169 -0.0121,-0.0425 -0.009,-0.0569 0.003,-0.0156 0,-0.0351 -0.0104,-0.0484 -0.009,-0.0123 -0.0156,-0.0344 -0.0156,-0.0491 0,-0.0147 -0.0146,-0.0543 -0.0327,-0.0879 -0.0179,-0.0336 -0.0355,-0.0757 -0.0389,-0.0936 -0.003,-0.0179 -0.0121,-0.0463 -0.0196,-0.0633 -0.0287,-0.0667 -0.0553,-0.1592 -0.0552,-0.19217 8e-5,-0.0191 -0.006,-0.0432 -0.0141,-0.0536 -0.009,-0.0125 -0.0144,-0.0429 -0.0146,-0.0889 -1.5e-4,-0.0385 -0.005,-0.0728 -0.0101,-0.0761 -0.006,-0.004 -0.01,-0.0973 -0.01,-0.24839 0,-0.15107 -0.003,-0.24464 -0.01,-0.24839 -0.005,-0.003 -0.01,-0.0294 -0.01,-0.0579 0,-0.0285 -0.006,-0.0638 -0.0139,-0.0785 -0.008,-0.0146 -0.0167,-0.0521 -0.0204,-0.0832 -0.004,-0.0348 -0.0119,-0.0587 -0.0204,-0.0619 -0.008,-0.003 -0.0139,-0.0175 -0.0139,-0.0324 -1.1e-4,-0.0149 -0.009,-0.038 -0.0194,-0.0514 -0.0104,-0.0134 -0.0191,-0.0381 -0.0193,-0.0549 -1.5e-4,-0.0217 -0.007,-0.0352 -0.0246,-0.0465 -0.0134,-0.009 -0.0243,-0.0244 -0.0243,-0.0346 0,-0.0103 -0.005,-0.0214 -0.01,-0.0247 -0.005,-0.003 -0.01,-0.0185 -0.01,-0.0336 0,-0.0155 -0.006,-0.03 -0.0146,-0.0332 -0.008,-0.003 -0.0146,-0.0165 -0.0146,-0.0299 0,-0.0134 -0.009,-0.0483 -0.0198,-0.0776 -0.0181,-0.0483 -0.0193,-0.0686 -0.0151,-0.2171 0.008,-0.26432 0.0147,-0.33765 0.0316,-0.35065 0.0107,-0.008 0.0131,-0.02 0.008,-0.0414 -0.006,-0.0295 -0.008,-0.0299 -0.0671,-0.0299 -0.0341,0 -0.0657,-0.005 -0.0723,-0.0117 -0.008,-0.009 -0.0117,-0.0868 -0.0117,-0.29118 0,-0.23848 -0.003,-0.28031 -0.0144,-0.28505 -0.0117,-0.004 -0.0132,-0.0173 -0.008,-0.0644 l 0.006,-0.0588 h -0.0705 c -0.0555,0 -0.0756,-0.004 -0.0951,-0.0193 -0.0208,-0.0163 -0.022,-0.0203 -0.009,-0.0254 0.0124,-0.005 0.0156,-0.0207 0.0156,-0.0775 0,-0.0393 0.005,-0.0742 0.01,-0.0775 0.006,-0.004 0.01,-0.16713 0.01,-0.45782 0,-0.29069 -0.003,-0.45394 -0.01,-0.45781 -0.005,-0.003 -0.01,-0.0428 -0.01,-0.0877 0,-0.0449 -0.005,-0.0844 -0.01,-0.0877 -0.005,-0.003 -0.01,-0.0384 -0.01,-0.0779 0,-0.0396 -0.005,-0.0746 -0.01,-0.0779 -0.005,-0.003 -0.01,-0.0315 -0.01,-0.0627 0,-0.0385 -0.005,-0.0606 -0.0146,-0.0688 -0.01,-0.008 -0.0146,-0.0303 -0.0146,-0.0688 0,-0.0312 -0.005,-0.0594 -0.01,-0.0627 -0.005,-0.003 -0.01,-0.0318 -0.01,-0.0633 0,-0.0315 -0.005,-0.06 -0.01,-0.0633 -0.005,-0.003 -0.01,-0.0212 -0.01,-0.0399 0,-0.0186 -0.006,-0.0436 -0.0137,-0.0554 -0.008,-0.0119 -0.0188,-0.0446 -0.0253,-0.0727 -0.006,-0.0281 -0.0159,-0.0536 -0.0206,-0.0566 -0.005,-0.003 -0.009,-0.0204 -0.009,-0.0387 0,-0.0183 -0.009,-0.0476 -0.0194,-0.0652 -0.0107,-0.0175 -0.0193,-0.0416 -0.0196,-0.0534 -1e-5,-0.0118 -0.0109,-0.0376 -0.0243,-0.0574 -0.0134,-0.0197 -0.0243,-0.046 -0.0243,-0.0583 0,-0.0123 -0.005,-0.0251 -0.01,-0.0284 -0.005,-0.003 -0.01,-0.0187 -0.01,-0.0341 0,-0.0155 -0.003,-0.0304 -0.008,-0.0332 -0.0109,-0.007 -0.0988,-0.18518 -0.0988,-0.20052 0,-0.007 -0.0149,-0.0409 -0.0329,-0.0765 -0.0372,-0.0732 -0.0645,-0.13312 -0.0645,-0.14155 0,-0.003 -0.0131,-0.0328 -0.0293,-0.066 -0.0161,-0.0332 -0.0292,-0.0677 -0.0292,-0.0767 0,-0.009 -0.0109,-0.0326 -0.0243,-0.0523 -0.0154,-0.0228 -0.0243,-0.0495 -0.0243,-0.0732 0,-0.047 -0.0216,-0.0689 -0.0465,-0.047 -0.0226,0.0199 -0.14357,0.0795 -0.19222,0.0947 -0.0213,0.007 -0.0572,0.0226 -0.0795,0.0354 -0.0223,0.0127 -0.064,0.0281 -0.0925,0.0342 -0.0777,0.0164 -0.0861,0.023 -0.0861,0.0678 0,0.0256 -0.005,0.0408 -0.0146,0.0445 -0.0213,0.008 -0.0216,0.27136 0,0.28325 0.0114,0.006 0.0151,0.0456 0.0193,0.19773 0.0119,0.43355 0.0166,0.53113 0.0253,0.53995 0.005,0.005 0.009,0.0677 0.009,0.13917 0,0.10426 0.003,0.13473 0.0161,0.1544 0.0137,0.0208 0.0151,0.0434 0.0104,0.14988 -0.005,0.10542 -0.003,0.12625 0.009,0.13092 0.0114,0.004 0.0141,0.0235 0.0126,0.0939 -0.003,0.0556 0.003,0.0925 0.009,0.0994 0.006,0.006 0.0112,0.0443 0.0112,0.0914 0,0.0442 0.005,0.083 0.01,0.0863 0.005,0.003 0.01,0.0362 0.01,0.0731 0,0.0369 0.005,0.0697 0.01,0.073 0.005,0.003 0.01,0.0513 0.01,0.11016 5e-5,0.0733 0.005,0.11239 0.0146,0.13204 0.008,0.0153 0.0146,0.0512 0.0146,0.0798 0,0.0285 0.005,0.0546 0.01,0.0579 0.005,0.003 0.01,0.0318 0.01,0.0633 0,0.0315 0.005,0.06 0.01,0.0633 0.005,0.003 0.01,0.0388 0.01,0.0788 0,0.0569 0.003,0.0741 0.0151,0.0786 0.0124,0.005 0.0139,0.0157 0.009,0.0585 -0.005,0.0407 -0.003,0.0565 0.008,0.0694 0.0111,0.0123 0.0151,0.0392 0.0151,0.10324 10e-5,0.0479 0.005,0.0912 0.0107,0.0969 0.005,0.006 0.0104,0.0355 0.0104,0.0663 0,0.0308 0.005,0.0586 0.01,0.0619 0.005,0.003 0.01,0.0274 0.01,0.0536 0,0.0262 0.005,0.0503 0.01,0.0536 0.005,0.003 0.01,0.0354 0.0101,0.0712 2e-4,0.038 0.006,0.0753 0.0144,0.0895 0.008,0.0134 0.0141,0.0474 0.0141,0.0755 1.9e-4,0.0281 0.005,0.0511 0.0101,0.0511 0.005,0 0.01,0.0351 0.01,0.0857 0,0.0472 0.004,0.0899 0.009,0.095 0.005,0.005 0.0112,0.0334 0.0139,0.0628 0.003,0.0295 0.01,0.0799 0.0154,0.11202 0.005,0.0321 0.0149,0.0903 0.02,0.12931 0.005,0.039 0.0139,0.0792 0.0193,0.0895 0.005,0.0102 0.01,0.0399 0.01,0.066 0,0.0261 0.004,0.0516 0.009,0.0566 0.005,0.005 0.0114,0.0487 0.0146,0.0969 0.0154,0.24812 0.0171,0.26327 0.032,0.27987 0.0109,0.0122 0.0137,0.0284 0.01,0.0584 -0.003,0.025 0,0.0571 0.008,0.0805 0.008,0.0214 0.0139,0.0661 0.0139,0.0993 9e-5,0.0332 0.005,0.063 0.01,0.0663 0.005,0.003 0.01,0.0305 0.01,0.0603 0,0.0299 0.004,0.0702 0.009,0.0895 0.005,0.0194 0.0141,0.0615 0.0204,0.0937 0.006,0.0322 0.0176,0.0682 0.025,0.08 0.008,0.0119 0.0137,0.0368 0.0137,0.0554 0,0.0186 0.005,0.0366 0.01,0.0399 0.005,0.003 0.01,0.0165 0.01,0.0292 0,0.0128 0.005,0.0259 0.01,0.0292 0.005,0.003 0.01,0.014 0.01,0.0238 0,0.0231 0.0876,0.19875 0.12422,0.24897 0.0587,0.0805 0.13347,0.15256 0.22234,0.21409 0.0505,0.0349 0.0947,0.0635 0.0983,0.0635 0.003,0 0.0146,0.007 0.0243,0.0162 0.01,0.009 0.026,0.0209 0.0357,0.0268 0.041,0.0244 0.15737,0.11594 0.15737,0.12382 0,0.005 0.008,0.009 0.0164,0.009 0.0151,0 0.11691,0.0893 0.23198,0.20374 0.1043,0.10367 0.23562,0.2709 0.24462,0.31146 0.003,0.014 0.0139,0.0436 0.0238,0.0657 0.01,0.0222 0.021,0.0518 0.0246,0.0658 0.003,0.014 0.0104,0.0279 0.0151,0.0309 0.0119,0.007 0.0109,0.1867 0,0.19415 -0.005,0.003 -0.01,0.0166 -0.01,0.0295 0,0.027 -0.0316,0.0467 -0.0925,0.0577 -0.0213,0.004 -0.0594,0.0157 -0.0842,0.0264 -0.0393,0.0168 -0.0625,0.019 -0.17533,0.0162 -0.11445,-0.003 -0.13357,-0.006 -0.15941,-0.0242 -0.0287,-0.0205 -0.0299,-0.0205 -0.0516,-0.003 -0.0121,0.01 -0.0418,0.0209 -0.0657,0.0245 -0.024,0.004 -0.0459,0.0104 -0.0488,0.0152 -0.003,0.005 -0.05,0.009 -0.1046,0.009 -0.0862,-3e-5 -0.10549,-0.003 -0.14664,-0.0241 -0.026,-0.0132 -0.0532,-0.0289 -0.0602,-0.0347 -0.0183,-0.0152 -0.0513,0.004 -0.059,0.0348 -0.003,0.0143 -0.0131,0.0241 -0.0233,0.0241 -0.009,0 -0.0226,0.006 -0.029,0.0141 -0.006,0.008 -0.0354,0.0275 -0.0643,0.0438 -0.0526,0.0297 -0.0528,0.0297 -0.20806,0.0297 -0.0931,0 -0.15785,-0.004 -0.16145,-0.01 z"
       id="path8"
       inkscape:label="lupus_f" /><path
       style="fill:#aeaeae;fill-opacity:1;stroke-width:0.191451"
       d="m 777.42396,131.77987 c -0.47968,-0.0487 -0.61293,-0.30746 -0.40929,-0.79485 0.0791,-0.18935 0.18935,-0.27697 0.59097,-0.46976 0.27154,-0.13034 0.62245,-0.26881 0.77978,-0.30772 0.1724,-0.0426 0.37366,-0.16131 0.50655,-0.29872 0.2714,-0.28064 0.63998,-0.88307 0.77628,-1.26877 0.21584,-0.61082 0.33912,-4.91843 0.1595,-5.57297 -0.0686,-0.25002 -0.14376,-0.33059 -0.5877,-0.63015 -0.72421,-0.4887 -1.10457,-1.13178 -1.4151,-2.39261 l -0.0498,-0.20262 -0.062,0.29028 -0.062,0.29029 -0.13679,-0.1739 c -0.0753,-0.0956 -0.1605,-0.25667 -0.18949,-0.35783 l -0.0528,-0.18392 -0.0759,0.1898 c -0.1004,0.25097 -0.18609,0.18613 -0.41908,-0.31711 l -0.19122,-0.41301 -0.005,0.30393 c -0.005,0.28906 -0.0104,0.29732 -0.11161,0.16885 -0.0585,-0.0743 -0.15485,-0.24146 -0.21411,-0.37147 -0.10365,-0.22741 -0.10876,-0.22998 -0.13435,-0.0675 -0.0534,0.33912 -0.2832,0.46175 -0.28474,0.15196 -0.002,-0.2534 -0.0698,-0.48966 -0.14203,-0.48966 -0.0328,0 -0.0596,0.0575 -0.0596,0.12786 0,0.0703 -0.0455,0.14534 -0.10132,0.16672 -0.073,0.0281 -0.1013,-0.007 -0.1013,-0.12678 0,-0.0922 -0.0922,-0.26355 -0.20774,-0.38623 l -0.20775,-0.22057 0.0319,0.28238 c 0.0315,0.2794 0.0301,0.28158 -0.13502,0.20635 -0.17711,-0.0807 -0.35866,-0.36775 -0.36038,-0.5698 -0.002,-0.19608 -0.13132,0.044 -0.13499,0.24991 l -0.003,0.16885 -0.19987,-0.21971 c -0.12115,-0.13317 -0.21748,-0.32984 -0.24458,-0.49929 l -0.0447,-0.27958 -0.1143,0.22105 c -0.14648,0.28327 -0.20305,0.1612 -0.20305,-0.43818 0,-0.60241 -0.0407,-0.68031 -0.23664,-0.45269 -0.2052,0.23841 -0.25717,0.17248 -0.17014,-0.21585 0.0807,-0.35994 0.0291,-0.6735 -0.10252,-0.62301 -0.11149,0.0428 -0.1661,-0.10117 -0.1661,-0.43791 0,-0.22371 -0.0277,-0.27684 -0.17325,-0.33217 -0.2779,-0.10565 -0.66358,-0.0776 -1.4625,0.10639 -0.69358,0.15973 -0.78166,0.16602 -1.21136,0.0866 -0.40431,-0.0748 -1.41833,0.26724 -1.78617,-0.0453 -0.23188,-0.197 -0.45959,-0.38911 -0.50602,-0.42692 -0.21708,-0.17677 0.8117,-0.78528 1.56292,-1.48714 0.4104,-0.38343 0.63383,-0.81568 0.68716,-0.897 0.0534,-0.0813 0.16419,-0.52687 0.27078,-0.85104 0.34373,-1.04546 0.59723,-1.57587 1.60453,-2.29503 0.64954,-0.46375 1.25408,-0.78106 1.79605,-0.9427 0.20396,-0.0608 0.30877,-0.14381 0.40326,-0.31926 0.16267,-0.30205 0.49796,-0.55889 0.72961,-0.55889 0.13354,0 0.22777,0.0691 0.36509,0.2676 l 0.18509,0.26759 0.50655,0.003 c 0.2786,0.002 0.66612,0.0223 0.86117,0.0457 0.31311,0.0376 0.34078,0.0531 0.23639,0.13235 -0.1036,0.0786 -0.078,0.09 0.20702,0.0919 0.17889,0.001 0.3905,-0.0328 0.47026,-0.0755 0.14058,-0.0752 0.14176,-0.0727 0.0389,0.0844 l -0.1062,0.16202 0.27757,-0.022 c 0.15266,-0.0121 0.36874,0.0131 0.48018,0.0561 l 0.20262,0.0781 -0.18574,0.0981 c -0.26681,0.14086 -0.22957,0.1832 0.11562,0.13143 0.18765,-0.0282 0.35744,-0.0152 0.44998,0.0343 0.14612,0.0782 0.14497,0.0811 -0.0697,0.17134 -0.1201,0.0505 -0.19921,0.12276 -0.17584,0.16061 0.0535,0.0866 0.53797,0.0893 0.83287,0.005 0.19283,-0.0553 0.22033,-0.0485 0.20136,0.0501 -0.0121,0.0628 -0.11282,0.15846 -0.2238,0.21256 l -0.20179,0.0984 0.49777,0.0847 c 0.27377,0.0466 0.51508,0.10204 0.53625,0.1232 0.0211,0.0211 -0.0357,0.091 -0.1263,0.15511 -0.16289,0.11529 -0.1586,0.11703 0.37019,0.15041 0.34238,0.0216 0.54501,0.0642 0.56284,0.1182 0.0174,0.0529 -0.0372,0.0844 -0.14664,0.0844 -0.30203,0 -0.18936,0.12035 0.15732,0.16804 0.19938,0.0274 0.38632,0.0164 0.46835,-0.0274 0.23365,-0.12505 0.30684,-0.0896 0.18832,0.0913 l -0.10771,0.16438 0.23125,-0.0375 c 0.28611,-0.0464 0.72936,0.0306 0.6757,0.11741 -0.0218,0.0353 -0.0968,0.0641 -0.16675,0.0641 -0.0699,0 -0.14469,0.0285 -0.16618,0.0632 -0.0238,0.0385 0.20575,0.0493 0.58698,0.0276 l 0.62607,-0.0356 -0.2364,0.15811 -0.23638,0.15811 0.43901,0.039 c 0.24146,0.0214 0.40102,0.0442 0.35457,0.0507 -0.0465,0.007 -0.0844,0.0441 -0.0844,0.0837 0,0.0396 0.0531,0.0571 0.1182,0.0387 0.065,-0.0184 0.28235,-0.0543 0.48296,-0.0798 0.31427,-0.04 0.3592,-0.0318 0.32433,0.059 -0.0317,0.0826 0.026,0.11541 0.26678,0.15151 0.19588,0.0294 0.27543,0.0657 0.21952,0.10029 -0.0602,0.0372 -0.0254,0.067 0.11138,0.0952 0.1095,0.0225 0.39666,0.0996 0.63811,0.17126 0.64545,0.19155 0.91182,0.22508 1.07864,0.1358 0.13787,-0.0738 0.14222,-0.0694 0.0681,0.0691 l -0.0792,0.14795 0.69882,-0.0496 c 0.38433,-0.0273 0.91154,-0.10604 1.17156,-0.17501 0.26004,-0.069 0.56396,-0.12337 0.67541,-0.1209 l 0.20261,0.004 -0.22691,0.0653 c -0.38212,0.10997 -0.20243,0.12717 0.56966,0.0545 0.65823,-0.0619 0.96426,-0.11545 1.41275,-0.24709 0.11833,-0.0347 0.12344,-0.0261 0.0424,0.0716 -0.0843,0.10157 -0.0428,0.11105 0.48618,0.11105 0.5192,0 0.7965,0.0744 0.56991,0.15295 -0.16715,0.0579 0.34002,0.11052 1.53611,0.15927 0.66865,0.0273 1.12451,0.0681 1.01308,0.0908 l -0.20261,0.0412 0.16884,0.0471 c 0.0928,0.0259 0.27832,0.0476 0.41212,0.0481 0.25543,9.9e-4 1.57498,0.31132 1.74914,0.41139 0.0738,0.0424 0.0468,0.0588 -0.0994,0.0603 -0.17031,0.002 -0.12929,0.0363 0.27068,0.22797 0.59872,0.28691 1.01348,0.73406 1.5396,1.65977 0.53684,0.94465 1.10831,1.81192 1.24726,1.89294 0.10747,0.0627 0.10727,0.0671 -0.003,0.0691 -0.095,0.002 -0.0714,0.0627 0.12199,0.31616 0.25245,0.33071 0.53304,0.83407 0.46492,0.83407 -0.0734,0 0.39083,0.77199 0.6624,1.10144 0.14721,0.17861 0.25035,0.34204 0.2292,0.36317 -0.059,0.0591 0.32301,0.58128 0.6108,0.83464 0.14146,0.12456 0.24793,0.25592 0.23657,0.29191 -0.0114,0.036 0.16045,0.25031 0.38181,0.47628 0.39117,0.39937 0.91421,1.13916 0.85048,1.20291 -0.0173,0.0174 0.0425,0.19581 0.13301,0.39648 0.22177,0.49148 0.28185,1.14199 0.14599,1.58058 -0.0576,0.18574 -0.10493,0.39653 -0.10535,0.46843 0,0.0719 -0.0668,0.20107 -0.14756,0.28704 -0.0808,0.086 -0.11119,0.15632 -0.0676,0.15632 0.18419,0 0.0565,0.13258 -0.23466,0.24381 -0.30752,0.11745 -0.31929,0.11699 -0.57409,-0.0226 -0.14308,-0.0784 -0.26011,-0.11254 -0.26011,-0.076 0,0.0881 -0.36611,-0.16589 -0.73581,-0.51036 -0.16323,-0.1521 -0.27173,-0.23258 -0.24107,-0.17885 0.13854,0.24291 -0.39512,-0.24244 -0.67294,-0.61207 -0.19817,-0.26363 -0.30901,-0.36606 -0.30926,-0.28591 0,0.17366 -0.2003,-0.13084 -0.549,-0.83725 -0.15123,-0.3063 -0.29851,-0.54232 -0.32735,-0.52451 -0.0289,0.0178 -0.18334,-0.25627 -0.34335,-0.60908 -0.16,-0.35282 -0.34604,-0.69137 -0.41342,-0.75234 -0.14574,-0.1319 -0.15492,-0.0537 -0.0213,0.18025 0.11049,0.19327 0.14292,0.77672 0.0338,0.60785 -0.0461,-0.0712 -0.0658,0.0279 -0.0665,0.33372 0,0.40453 -0.008,0.42584 -0.10583,0.30393 -0.10338,-0.1293 -0.10434,-0.12924 -0.0717,0.004 0.0181,0.0743 0.068,0.37822 0.11066,0.6754 0.10275,0.71633 0.24039,1.00652 0.68999,1.45482 0.47057,0.46924 0.53759,0.68051 0.77057,2.42871 0.29968,2.24884 0.24198,3.21987 -0.21691,3.65099 -0.15292,0.14364 -0.25389,0.1639 -1.02831,0.20627 -1.01987,0.0558 -1.17223,0.0333 -1.4352,-0.21238 -0.23273,-0.21739 -0.25241,-0.41788 -0.0703,-0.71648 0.10028,-0.16447 0.22991,-0.24564 0.57646,-0.36096 0.54091,-0.18001 0.63593,-0.30511 0.716,-0.94286 0.0511,-0.40705 0.0365,-0.56579 -0.10296,-1.11538 -0.22924,-0.90365 -0.27413,-0.96079 -0.37005,-0.47082 -0.21153,1.08085 -0.63511,2.12682 -1.04503,2.58055 -0.13702,0.15167 -0.39458,0.36908 -0.57231,0.48313 -0.36422,0.23374 -0.60837,0.25336 -1.7632,0.14171 -0.72911,-0.0705 -0.87825,-0.17163 -0.87825,-0.59561 0,-0.19972 0.0535,-0.29096 0.31242,-0.532 0.36881,-0.34345 0.62381,-0.42841 1.07672,-0.35878 0.39091,0.0601 0.50985,0.0107 0.69213,-0.28754 0.37798,-0.61847 0.47091,-1.78179 0.19045,-2.38409 -0.30709,-0.65946 -1.55831,-1.78974 -2.46396,-2.22581 -0.41636,-0.20047 -0.90021,-0.63112 -1.26833,-1.12888 l -0.23509,-0.31786 -0.20479,0.21655 c -0.11262,0.11911 -0.18475,0.17783 -0.16025,0.13049 0.0573,-0.11085 -0.0246,-0.48802 -0.10592,-0.48802 -0.0342,0 -0.0621,0.0854 -0.0621,0.18971 0,0.10434 -0.0446,0.24871 -0.0992,0.32082 -0.0953,0.12605 -0.0992,0.12428 -0.10131,-0.0462 -0.003,-0.0975 -0.0216,-0.27473 -0.0455,-0.3938 -0.0531,-0.26556 -0.1567,-0.14593 -0.15827,0.18274 -0.003,0.26829 -0.0796,0.27791 -0.27488,0.0338 l -0.14858,-0.18574 0.0328,0.20262 c 0.0179,0.11144 0.0547,0.25359 0.0814,0.31589 0.0871,0.20277 -0.23291,0.0576 -0.37004,-0.16787 l -0.12412,-0.20409 -0.0472,0.19688 c -0.0825,0.34445 -0.17189,0.39663 -0.28374,0.16566 -0.0547,-0.11284 -0.12596,-0.20516 -0.15847,-0.20516 -0.0887,0 -0.0712,0.36617 0.0218,0.45927 0.063,0.063 0.0403,0.081 -0.10233,0.081 -0.13211,0 -0.21847,-0.0577 -0.30908,-0.20674 l -0.12571,-0.20675 -0.0448,0.17872 c -0.0248,0.0983 -0.0264,0.23692 -0.003,0.30805 0.0226,0.0711 0.0144,0.12934 -0.0184,0.12934 -0.10424,0 -0.355,-0.27143 -0.355,-0.38423 0,-0.062 -0.0873,0.0117 -0.20302,0.17148 -0.19774,0.27293 -0.41188,0.40162 -0.28192,0.16939 0.0341,-0.061 0.0474,-0.16679 0.0296,-0.2351 -0.0293,-0.11191 -0.0566,-0.1043 -0.27671,0.0771 -0.27789,0.22907 -0.37427,0.25407 -0.32038,0.0831 0.0206,-0.065 0.0137,-0.20605 -0.0151,-0.31343 l -0.0525,-0.19525 -0.10766,0.16429 c -0.0591,0.0904 -0.11867,0.22165 -0.13218,0.29175 -0.0388,0.20143 -0.15292,0.15778 -0.23269,-0.089 -0.067,-0.20736 -0.082,-0.2171 -0.18133,-0.11779 -0.0595,0.0595 -0.12762,0.16929 -0.1513,0.2439 -0.0238,0.0746 -0.0713,0.11823 -0.1057,0.0969 -0.0844,-0.0521 -0.0795,-0.34598 0.008,-0.51029 0.0496,-0.0927 -0.0236,-0.0607 -0.24158,0.10575 -0.37657,0.28745 -0.4542,0.29785 -0.39545,0.053 l 0.0445,-0.18574 -0.1615,0.14192 c -0.29053,0.25533 -0.35225,0.26526 -0.23459,0.0377 0.16372,-0.31663 0.12574,-0.40808 -0.0676,-0.16275 -0.22573,0.2864 -0.30361,0.27819 -0.22038,-0.0232 0.0369,-0.1335 0.0475,-0.26222 0.0238,-0.28604 -0.0704,-0.0704 -0.3009,0.27796 -0.30514,0.46122 l -0.004,0.16885 -0.0923,-0.16668 c -0.051,-0.0921 -0.0789,-0.27339 -0.0625,-0.40524 0.0324,-0.25978 0.0488,-0.27239 -0.27944,0.21442 -0.0743,0.11016 -0.23702,0.26345 -0.3616,0.34063 l -0.22653,0.14034 0.13521,-0.26505 c 0.11478,-0.22496 0.12303,-0.29488 0.0547,-0.46222 l -0.0806,-0.19717 -0.14355,0.24326 c -0.11336,0.19214 -0.42442,0.46618 -0.42442,0.3739 0,-0.0108 0.0272,-0.11478 0.0606,-0.23099 0.0334,-0.11622 0.0394,-0.31357 0.0134,-0.43857 l -0.0472,-0.22727 -0.17469,0.37988 c -0.0961,0.20894 -0.19547,0.57365 -0.22083,0.81048 -0.0254,0.23683 -0.12201,0.8257 -0.21473,1.30861 -0.22135,1.15315 -0.21676,1.40466 0.0428,2.34479 l 0.21848,0.79139 -0.10612,0.4581 c -0.0584,0.25195 -0.14154,0.68604 -0.18481,0.96464 -0.11006,0.70853 -0.2945,1.16021 -0.6039,1.47903 -0.32266,0.33248 -0.50246,0.38412 -0.99383,0.28544 -0.20806,-0.0418 -0.60898,-0.076 -0.89091,-0.076 -0.28195,0 -0.61641,-0.0298 -0.74327,-0.0662 -0.2185,-0.0627 -0.24287,-0.0519 -0.46271,0.20495 -0.38875,0.45417 -0.63169,0.5384 -1.51499,0.52524 -0.41937,-0.006 -0.88408,-0.0237 -1.03267,-0.0387 z m 4.25662,-2.07225 c 0.27798,-0.18213 0.37957,-0.41393 0.48278,-1.1014 0.091,-0.60622 0.0895,-0.69146 -0.0184,-1.05028 -0.0646,-0.21478 -0.13697,-0.36675 -0.16099,-0.3377 -0.0539,0.0652 -0.37938,1.24612 -0.43579,1.58126 -0.0226,0.13485 -0.16425,0.43547 -0.31456,0.66803 l -0.27329,0.42284 0.27741,-0.0372 c 0.15259,-0.0205 0.35182,-0.086 0.44275,-0.14554 z"
       id="path10"
       sodipodi:nodetypes="csssssssscccsscsscsssscssssscsscscsscssssssssssssssssssscsssssscsscsssssssscssssssssscssssscccsssssssssssscssscsssssssscssssssscssssscsssscsssssssscsssssscssssssssssssssssssssssscssssscscscccscsssssscsssssssssccssssssssscsssssscsssscsscsssscsssscssssssssccsssssscsss"
       inkscape:label="hispo_f" /><path
       style="fill:#aeaeae;fill-opacity:1;stroke-width:0.18988"
       d="m 738.79309,131.73262 c -0.21393,-0.34614 0.16598,-1.55291 0.61877,-1.96552 0.25695,-0.23415 0.84349,-0.49117 1.30341,-0.57116 0.60028,-0.10439 1.11644,-0.41916 1.82927,-1.11552 0.54617,-0.53356 0.99268,-1.11475 0.99225,-1.29155 -0.002,-0.62925 -0.82295,-1.65259 -2.23012,-2.77828 -2.18892,-1.7511 -3.14746,-2.76512 -3.30897,-3.50052 -0.12356,-0.56252 -0.0197,-0.85366 0.65826,-1.84486 0.44273,-0.64731 1.52179,-1.88483 2.3979,-2.75006 0.87612,-0.86522 1.93598,-2.02277 2.35525,-2.57234 l 0.76231,-0.99921 -0.52599,-0.77405 c -0.28928,-0.42573 -0.52598,-0.89636 -0.52598,-1.04585 0,-0.35675 -0.87193,-0.68356 -1.17483,-0.44033 -0.12874,0.10338 -1.15897,0.56429 -2.28939,1.02425 -2.79974,1.13917 -3.01659,1.36778 -3.01659,3.18006 0,1.37658 -0.23473,2.24946 -0.60488,2.24946 -0.0946,0 -0.15081,-0.3763 -0.12486,-0.83623 0.0259,-0.45994 -0.002,-0.83624 -0.0621,-0.83624 -0.0602,0 -0.424,0.23998 -0.80855,0.53329 -0.55464,0.42304 -0.69917,0.68234 -0.69917,1.25435 0,0.39658 -0.0941,0.72107 -0.20906,0.72107 -0.11498,0 -0.21206,0.16463 -0.21571,0.36585 -0.006,0.34167 -0.0257,0.3407 -0.29504,-0.0146 -0.27886,-0.36788 -0.29569,-0.36788 -0.50964,0 -0.20889,0.35918 -0.22178,0.35708 -0.23081,-0.0377 -0.007,-0.31516 -0.0538,-0.34828 -0.18929,-0.13447 -0.0988,0.156 -0.22968,0.20279 -0.29076,0.10398 -0.20153,-0.3261 0.38424,-1.64148 1.24721,-2.80063 0.4672,-0.62754 0.93913,-1.42322 1.04872,-1.76817 0.10959,-0.34495 0.52128,-0.84207 0.91484,-1.10471 0.39358,-0.26264 0.95078,-0.68842 1.23824,-0.94617 0.48317,-0.43323 2.9219,-2.4617 3.11718,-2.59277 0.0472,-0.0317 -0.0905,-0.25247 -0.30607,-0.49064 -0.35012,-0.38688 -0.40493,-0.39587 -0.51421,-0.0843 -0.0957,0.27278 -0.24507,0.16323 -0.68607,-0.50318 -0.66503,-1.00493 -1.64638,-1.5796 -2.3821,-1.39494 -0.28445,0.0714 -0.99046,0.45535 -1.56888,0.85324 -1.46291,1.00631 -2.01791,0.93781 -2.31823,-0.2861 -0.0913,-0.37194 -0.0463,-0.45882 0.19043,-0.36798 0.40205,0.15429 0.96884,-1.1533 0.79689,-1.83841 -0.15924,-0.63444 -1.1335,-1.14076 -1.1447,-0.5949 -0.005,0.2695 -0.0814,0.2285 -0.29847,-0.16128 -0.25053,-0.44987 -0.3103,-0.4731 -0.42923,-0.1668 -0.076,0.19571 -0.0666,0.47794 0.0208,0.62717 0.0874,0.14924 -0.0282,0.10764 -0.25698,-0.0924 -0.4946,-0.43256 -1.32837,-2.03815 -1.32837,-2.55805 0,-0.26477 0.11709,-0.33672 0.41935,-0.25767 0.86655,0.2266 2.43021,-0.3923 3.23124,-1.278937 0.91997,-1.018308 1.90222,-1.384537 3.27676,-1.221744 0.62636,0.07418 1.39723,0.0047 2.00955,-0.181085 0.54636,-0.165788 1.2697,-0.302449 1.60741,-0.303694 l 0.61402,-0.0022 -0.60087,0.627174 c -0.74508,0.777698 -0.40004,0.80932 1.11832,0.102487 1.2716,-0.591959 1.36896,-0.615137 1.15937,-0.276017 -0.10647,0.172257 -0.0328,0.196339 0.24898,0.08143 0.22009,-0.08973 0.82349,-0.201458 1.34092,-0.248275 0.81999,-0.07419 0.88037,-0.05371 0.47038,0.159573 -0.70178,0.365067 -0.57032,0.598916 0.33667,0.598916 0.51613,0 1.08471,0.188416 1.57723,0.522646 0.72065,0.489046 0.94093,0.522886 3.42637,0.526276 4.00338,0.005 5.82556,0.48317 7.73115,2.02677 0.49156,0.39818 1.23855,0.81917 1.65996,0.93553 0.91319,0.25214 3.0928,2.27079 4.11787,3.81377 0.3873,0.583 0.90266,1.23921 1.14522,1.45825 0.52896,0.47768 0.58494,1.53946 0.11192,2.12276 -0.181,0.2232 -0.26811,0.28592 -0.19357,0.13939 0.0746,-0.14653 0.0759,-0.53787 0.003,-0.86963 -0.12759,-0.58091 -0.15328,-0.59237 -0.69494,-0.30978 -0.83812,0.43726 -1.23879,0.39424 -0.8039,-0.0863 0.37224,-0.41132 0.46787,-1.0811 0.15435,-1.0811 -0.1054,0 -0.22299,0.0939 -0.26132,0.2087 -0.10072,0.30165 -1.39611,0.64013 -1.54262,0.40308 -0.0658,-0.10652 0.027,-0.19366 0.20625,-0.19366 0.51113,0 0.38319,-0.27266 -0.36789,-0.78397 -0.85323,-0.58086 -1.3149,-0.59589 -1.60584,-0.0523 -0.27893,0.5212 0.0598,1.25289 0.58226,1.25756 0.28168,0.002 0.29755,0.0418 0.074,0.18343 -0.15646,0.0991 -0.46519,0.13297 -0.68606,0.0752 -0.66155,-0.173 -0.86962,-0.8362 -0.72013,-2.29533 0.13446,-1.31243 0.12354,-1.35245 -0.5539,-2.02989 -0.58157,-0.58158 -0.93875,-0.73099 -2.2546,-0.94314 -0.85995,-0.13865 -2.08288,-0.39231 -2.71764,-0.56369 -1.1506,-0.31067 -1.15777,-0.30967 -2.37313,0.32965 -0.67048,0.35269 -1.36158,0.64125 -1.53579,0.64125 -0.22989,0 -0.27899,0.12898 -0.17908,0.47039 0.0757,0.25871 0.21659,1.22299 0.31301,2.14285 0.19101,1.82201 0.46595,2.69922 1.04837,3.34494 0.20742,0.22996 0.50691,0.68828 0.66552,1.01848 0.20375,0.4242 0.56444,0.69114 1.22914,0.90969 1.76949,0.58182 2.92462,1.85977 2.92799,3.23931 0.002,0.81687 0.42588,2.05397 0.84864,2.47673 0.63509,0.63509 1.76951,0.53516 2.52729,-0.22263 0.75156,-0.75156 0.80404,-0.76179 0.80417,-0.15679 9e-5,0.38483 0.2573,0.19473 1.41437,-1.0453 1.2448,-1.33407 1.50362,-1.51567 2.16017,-1.51567 0.99075,0 1.10197,0.16144 0.48286,0.70094 -0.38706,0.3373 -0.59818,0.86461 -0.84929,2.12135 -0.1838,0.91986 -0.47301,1.94504 -0.64268,2.27819 l -0.30849,0.60572 0.75301,-0.12219 c 0.41415,-0.0672 0.75301,-0.078 0.75301,-0.0238 0,0.34452 -1.10653,2.16556 -1.60071,2.63431 -1.25782,1.1931 -3.60236,1.57169 -5.52731,0.89252 -1.95867,-0.69106 -2.59099,-1.88068 -3.01016,-5.66317 -0.2419,-2.18279 -0.38487,-2.7775 -0.82914,-3.44883 -0.64231,-0.9706 -0.85643,-1.01288 -1.01877,-0.20117 -0.16266,0.81331 -1.258,2.02969 -2.31464,2.57041 -0.47081,0.24093 -1.77905,0.7869 -2.90719,1.21326 l -2.05118,0.7752 0.89247,0.14271 c 1.17552,0.18798 2.52826,0.79909 3.53659,1.5977 0.76611,0.60678 0.86031,0.63039 1.53755,0.3855 1.08383,-0.39191 1.37615,-0.0473 1.37615,1.62248 0,0.7517 0.14465,1.68123 0.32948,2.11725 0.54271,1.28023 0.1014,3.55621 -0.69572,3.58814 -0.20101,0.008 -1.02401,0.0474 -1.82888,0.0874 -0.80488,0.04 -1.57689,-0.0158 -1.71558,-0.12414 -0.13869,-0.10829 -0.34432,-0.13994 -0.45694,-0.0703 -0.13253,0.0819 -0.13678,-0.11458 -0.0121,-0.55691 0.29757,-1.05525 1.11286,-1.57674 2.23682,-1.43079 0.34912,0.0453 0.34458,-1.79372 -0.006,-2.48682 -0.41032,-0.81089 -1.51351,-1.42804 -2.82672,-1.58132 -0.65534,-0.0765 -1.54432,-0.21378 -1.97551,-0.30509 -0.43118,-0.0913 -0.78396,-0.10627 -0.78396,-0.0333 0,0.073 0.33758,0.62293 0.7502,1.22203 0.54373,0.78948 0.96087,1.15592 1.51567,1.33149 0.91768,0.2904 1.28813,0.71057 1.28813,1.46103 0,0.42854 -0.25187,0.74637 -1.08657,1.37119 -0.87722,0.65663 -1.17898,1.05267 -1.56613,2.05543 -0.26376,0.68314 -0.56783,1.33036 -0.67572,1.43825 -0.24965,0.24965 -5.03814,0.51335 -5.17913,0.28522 z"
       id="path11"
       sodipodi:nodetypes="sssssssssscssssssssssssssssssssssssssssssssssssssssscssssssssssssssssssssssssssssssssssssssssssssssscssssssssscsssssssssssssssssssssss"
       inkscape:label="crinos_f" /></g></svg>
