<?xml version="1.0" encoding="UTF-8" standalone="no"?>
<!-- Created with Inkscape (http://www.inkscape.org/) -->

<svg
   width="25.043816mm"
   height="110.09139mm"
   viewBox="0 0 25.043815 110.09139"
   version="1.1"
   id="svg1"
   xml:space="preserve"
   inkscape:version="1.4 (e7c3feb100, 2024-10-09)"
   sodipodi:docname="many_forms_homid.svg"
   xmlns:inkscape="http://www.inkscape.org/namespaces/inkscape"
   xmlns:sodipodi="http://sodipodi.sourceforge.net/DTD/sodipodi-0.dtd"
   xmlns="http://www.w3.org/2000/svg"
   xmlns:svg="http://www.w3.org/2000/svg"><sodipodi:namedview
     id="namedview1"
     pagecolor="#ffffff"
     bordercolor="#000000"
     borderopacity="0.25"
     inkscape:showpageshadow="2"
     inkscape:pageopacity="0.0"
     inkscape:pagecheckerboard="0"
     inkscape:deskcolor="#d1d1d1"
     inkscape:document-units="mm"
     inkscape:zoom="0.86323653"
     inkscape:cx="-26.643914"
     inkscape:cy="84.565467"
     inkscape:window-width="2560"
     inkscape:window-height="1371"
     inkscape:window-x="0"
     inkscape:window-y="32"
     inkscape:window-maximized="1"
     inkscape:current-layer="layer1" /><defs
     id="defs1" /><g
     inkscape:label="Layer 1"
     inkscape:groupmode="layer"
     id="layer1"
     transform="translate(-24.126006,256.17979)"><path
       style="fill:#000000"
       d="m 32.064377,-146.17174 c -0.631943,-0.85475 -0.736541,-1.46958 -0.296303,-1.74166 0.155442,-0.0961 0.220173,-0.3374 0.143847,-0.53631 -0.07633,-0.1989 -0.02491,-0.43201 0.114254,-0.51801 0.668784,-0.41334 0.03892,-0.50781 -2.326659,-0.34898 -1.418828,0.0953 -3.143658,0.28799 -3.832955,0.42829 -0.965105,0.19642 -1.320144,0.17449 -1.544132,-0.0954 -0.316241,-0.38104 -0.121794,-0.90281 0.33645,-0.90281 0.15727,0 0.422228,-0.18638 0.588794,-0.41417 0.261715,-0.35792 3.129208,-1.69782 3.640869,-1.70128 0.09967,-6.7e-4 0.470517,-0.11121 0.824111,-0.24565 0.617786,-0.23488 0.630573,-0.28914 0.327369,-1.38906 -1.641571,-2.9319 -1.839669,-7.38801 -2.607511,-10.57541 -0.755172,-3.13482 -1.880706,-7.57155 -3.306505,-11.81677 0.983358,-3.8673 6.070542,-20.70234 7.170346,-25.22974 0.457717,-1.88423 1.721623,-4.56045 1.753563,-7.50499 0.02558,-2.35846 0.09336,-3.47421 0.381157,-4.79531 0.635151,-2.91564 0.410461,-5.14585 0.169094,-10.80783 -0.100376,-2.35462 -0.347825,-5.3386 -0.487809,-6.22404 -0.127877,-0.80886 -1.170221,4.29334 -1.102559,7.50167 0.06634,3.14585 -0.52778,11.02816 -0.880896,11.68695 -0.156,0.29104 -0.250623,0.69025 -0.210272,0.88714 0.04035,0.19688 -0.009,0.55407 -0.109664,0.79375 -0.100667,0.23968 -0.230441,1.09062 -0.288388,1.89099 -0.05795,0.80036 -0.34799,2.6239 -0.64454,4.05231 -0.29655,1.42841 -0.587805,3.56186 -0.647232,4.741 -0.05943,1.17914 -0.230838,2.26667 -0.38091,2.41674 -0.150073,0.15008 -0.272859,0.16676 -0.272859,0.0371 0,-0.12967 -0.176331,-0.005 -0.391847,0.27782 -0.340307,0.44603 -0.428572,0.46139 -0.671052,0.11671 -0.153562,-0.21828 -0.219679,-0.80332 -0.146926,-1.30008 0.103817,-0.70886 0.06318,-0.83371 -0.188844,-0.58021 -0.215735,0.21699 -0.299285,1.12124 -0.254581,2.75529 0.07716,2.82048 -0.19666,3.55649 -0.977307,2.62692 -0.509097,-0.60621 -1.013056,-3.64693 -0.727685,-4.39059 0.07804,-0.20337 0.0211,-0.49055 -0.126529,-0.63818 -0.173628,-0.17363 -0.179487,-0.44196 -0.01659,-0.75985 0.138506,-0.27028 0.268516,-1.0172 0.288911,-1.65982 0.03899,-1.22836 0.149379,-1.47744 0.654811,-1.47744 0.397395,0 0.610922,-1.50795 0.853985,-6.03097 0.1686,-3.13738 0.513418,-3.2148 0.619164,-3.5695 0.54662,-1.83351 0.278124,-3.92124 1.007267,-6.93598 0.08799,-0.36381 0.199307,-0.84006 0.247377,-1.05834 0.04807,-0.21828 -0.04875,-0.66205 -0.215148,-0.98615 -0.233956,-0.45569 -0.201389,-1.17548 0.143649,-3.175 0.631198,-3.65782 0.44898,-6.7811 0.518059,-8.24413 -0.545796,-0.30544 -0.205153,-2.45011 0.292336,-3.64077 0.432368,-1.0348 3.28074,-1.65521 4.20418,-2.04175 1.44431,-0.60456 -0.04085,0.14333 2.576692,-0.97084 0.765176,-0.89118 0.577357,-3.76808 0.132826,-4.96252 -1.089748,-0.0562 -2.427877,0.46893 -2.757235,-1.26777 -0.609954,-3.21627 -0.943335,-7.50986 0.745493,-9.51227 2.482268,-2.94317 5.918322,-2.39088 7.308212,-1.26988 2.292454,1.84895 2.218662,4.24097 2.09236,5.56767 -0.378385,3.97465 -2.922232,4.66737 -3.25568,6.68748 -0.0035,0.56288 0.236865,3.17315 0.103633,3.74771 1.055531,1.42499 0.696888,1.09594 2.323937,2.01802 1.539861,0.87267 3.415073,-0.42729 4.126063,1.71159 0.899853,2.70704 0.285852,3.23486 0.168436,3.92691 0.465771,1.65448 0.137496,18.16029 0.49596,19.35138 -0.848302,4.12414 0.282036,6.29605 0.506446,10.42435 0.07342,1.49769 0.302892,2.9378 0.567782,3.5633 0.341798,0.80711 0.40999,1.51043 0.295014,3.04271 -0.08225,1.09612 -0.154203,2.14177 -0.159898,2.32367 -0.0149,0.47591 -0.717857,0.40795 -0.908089,-0.0878 -0.08833,-0.23019 -0.160599,-1.01112 -0.160599,-1.73541 0,-0.77944 -0.104286,-1.25244 -0.255528,-1.15897 -0.152704,0.0944 -0.189309,1.01666 -0.09097,2.29194 0.15112,1.95968 0.125718,2.12637 -0.310968,2.0405 -0.507361,-0.0998 -1.16104,-1.85224 -1.219162,-3.26851 -0.01895,-0.46171 -0.158976,-0.0743 -0.334745,0.92605 -0.391853,2.23021 -0.847002,1.99799 -0.777889,-0.39688 0.06826,-2.36518 0.383588,-13.66824 0.396584,-14.71819 0.0054,-0.43656 -0.05181,-1.62719 -0.127144,-2.64583 -0.07533,-1.01865 -0.227705,-3.32974 -0.338605,-5.13576 -0.155487,-2.53211 -0.24942,-2.38327 -0.240762,-3.91881 0.0073,-4.13768 -1.402636,-8.08539 -1.48846,-9.78559 -0.01731,-0.34295 -0.577783,4.6151 -0.619151,6.00787 -0.06809,2.29254 -0.349414,7.45004 -0.656042,13.01135 -0.109402,1.98421 0.02662,6.842 0.237097,7.75844 0.167112,0.7276 0.341274,2.21588 0.387026,3.30729 0.04575,1.09141 0.210787,3.04064 0.366743,4.33164 0.339916,2.81379 0.228153,4.48614 -0.681166,10.19259 -0.617622,3.87591 -0.819844,5.9326 -0.91444,9.39054 1.827506,6.72567 1.958524,4.63863 1.806321,13.27157 -0.07965,4.51795 -0.03205,9.30454 0.105794,10.63686 0.247823,2.39539 0.331211,4.17064 -0.118814,4.32503 -2.242923,0.76946 -3.383532,0.63519 -3.383532,0.63519 -1.489936,-0.0657 -1.760771,0.006 -2.626758,0.69148 -0.531047,0.4206 -1.201327,0.76472 -1.489512,0.76472 -1.79143,0 -3.465677,0.20424 -3.451163,0.0107 z m 4.137194,-3.90709 c 1.315726,-1.05796 1.795085,-2.05492 1.369977,-2.84924 -0.237349,-0.44349 -0.250854,-0.9312 -0.05165,-1.86523 0.186686,-0.87531 0.180781,-1.96947 -0.01918,-3.55364 -0.158904,-1.25891 -0.193393,-2.51949 -0.07664,-2.80129 0.32539,-0.78538 0.169092,-6.23087 -0.279382,-9.73376 -0.543869,-1.10654 -0.478664,-3.88117 -1.744353,-7.09253 0.803327,-4.88485 1.772191,-18.45905 1.490406,-18.45905 -0.8346,0 -3.99575,11.15977 -4.071641,11.5078 -0.167892,0.76994 -2.829964,6.34315 -3.375588,9.18786 1.524056,3.02863 3.205968,9.26211 3.899328,12.48978 -0.25386,2.24739 1.483206,5.72638 1.58223,7.66048 0,0.749 0.112925,1.47492 0.250945,1.61316 0.149033,0.14928 0.167224,0.86769 0.04479,1.76897 -0.20529,1.51127 -0.942281,2.58343 -1.775815,2.58343 -0.187427,0 2.756573,-0.45674 2.756573,-0.45674 z"
       id="path1"
       sodipodi:nodetypes="sssccsssssssscsssscssssssssscssssssssssssssssccsscssssccsccssssssssssssssssccsssssscsssccssscssssscsccsssssc" /></g></svg>
