<?xml version="1.0" encoding="UTF-8" standalone="no"?>
<!-- Created with Inkscape (http://www.inkscape.org/) -->

<svg
   width="82.108055mm"
   height="61.087269mm"
   viewBox="0 0 82.108053 61.087267"
   version="1.1"
   id="svg1"
   xml:space="preserve"
   inkscape:version="1.4 (e7c3feb100, 2024-10-09)"
   sodipodi:docname="many_forms_lupus.svg"
   xmlns:inkscape="http://www.inkscape.org/namespaces/inkscape"
   xmlns:sodipodi="http://sodipodi.sourceforge.net/DTD/sodipodi-0.dtd"
   xmlns="http://www.w3.org/2000/svg"
   xmlns:svg="http://www.w3.org/2000/svg"><sodipodi:namedview
     id="namedview1"
     pagecolor="#ffffff"
     bordercolor="#000000"
     borderopacity="0.25"
     inkscape:showpageshadow="2"
     inkscape:pageopacity="0.0"
     inkscape:pagecheckerboard="0"
     inkscape:deskcolor="#d1d1d1"
     inkscape:document-units="mm"
     inkscape:zoom="0.86323653"
     inkscape:cx="556.0469"
     inkscape:cy="583.84925"
     inkscape:window-width="2560"
     inkscape:window-height="1371"
     inkscape:window-x="0"
     inkscape:window-y="32"
     inkscape:window-maximized="1"
     inkscape:current-layer="layer1" /><defs
     id="defs1" /><g
     inkscape:label="Layer 1"
     inkscape:groupmode="layer"
     id="layer1"
     transform="translate(82.782287,454.87288)"><path
       style="fill:#000000"
       d="m -17.744225,-393.8611 c -1.909661,-0.12383 -2.905692,-0.43368 -2.905692,-0.90391 0,-0.8811 1.902705,-2.67412 2.356331,-2.22049 0.424451,0.42445 1.834953,-2.33246 2.291031,-4.47795 0.509313,-2.39593 -0.951799,-4.65621 -5.437913,-8.41223 -2.36318,-1.97858 -4.312949,-4.16624 -5.081184,-5.70113 -1.189726,-2.37701 -1.375627,-2.50402 -4.076417,-2.78497 -1.797874,-0.18702 -4.385248,0.0763 -7.095046,0.72221 -2.602636,0.62032 -5.719622,0.9508 -7.996415,0.84784 -2.900447,-0.13117 -3.813304,0.0161 -4.099915,0.66146 -0.202787,0.4566 -0.456552,4.19249 -0.563921,8.30197 -0.222741,8.52521 -0.612793,11.72429 -1.500442,12.30612 -0.773883,0.50727 -4.458944,0.55148 -4.95102,0.0594 -0.568493,-0.56849 0.752988,-1.84968 1.90785,-1.84968 0.92609,0 1.033159,-0.43662 0.983992,-4.01262 -0.03034,-2.20695 -0.225276,-4.62218 -0.433184,-5.3672 -0.323029,-1.15753 -0.476019,-0.93 -1.051761,1.56425 -0.37056,1.60536 -0.674788,3.33568 -0.676062,3.84517 -0.0036,1.45362 -2.713371,6.42715 -3.688419,6.76983 -1.461906,0.51379 -4.057774,-0.0965 -4.057774,-0.95391 0,-0.4379 0.727209,-1.04968 1.616021,-1.35952 0.888811,-0.30984 1.773075,-0.97263 1.96503,-1.47285 0.317955,-0.82858 1.9481,-16.27588 1.95196,-18.49683 9.2e-4,-0.52932 -0.825627,-1.33516 -1.885171,-1.83795 -2.155354,-1.02278 -3.054437,-1.95461 -4.526368,-4.69123 -0.573052,-1.06542 -1.668315,-2.63613 -2.433918,-3.49047 -0.765604,-0.85433 -2.415903,-3.59399 -3.667332,-6.08811 -1.769206,-3.52607 -2.507876,-4.49888 -3.32079,-4.37339 -5.323006,0.82172 -5.52893,0.8058 -7.104452,-0.54941 l -1.557081,-1.33934 2.284672,-1.9556 c 1.25657,-1.07558 2.573186,-2.80392 2.925815,-3.84077 0.352628,-1.03685 1.376492,-2.82685 2.275252,-3.97778 1.496664,-1.91659 1.57624,-2.23231 0.946088,-3.75364 -0.917507,-2.21506 -0.325965,-2.63884 1.647173,-1.18003 1.596337,1.18022 1.624024,1.18161 1.967617,0.099 0.191674,-0.60391 0.558633,-1.09802 0.815466,-1.09802 0.574123,0 3.332693,3.22055 3.332693,3.89082 0,0.26681 1.183031,1.00717 2.628958,1.64525 1.445928,0.63807 3.500667,1.97973 4.566087,2.98146 2.775938,2.60999 6.695579,4.69606 10.07802,5.36363 1.610624,0.31787 8.407711,0.79119 15.104637,1.05181 20.20112,0.78615 23.093064,2.3107 25.7708615,13.58567 0.6481422,2.72902 1.5903879,5.4876 2.0938793,6.13016 0.5034914,0.64256 1.9739407,2.47153 3.2676652,4.06439 2.43020847,2.9921 3.13038143,5.85362 1.5780561,6.4493 -0.9496156,0.3644 -5.6287009,-1.95057 -8.0349126,-3.97527 -0.9745105,-0.81999 -2.5020335,-2.764 -3.3944955,-4.32001 l -1.622659,-2.82911 -0.0052,2.87021 c -0.0046,2.51775 0.300201,3.29933 2.481784,6.36484 4.0408736,5.67815 3.9674738,5.35338 2.5145018,11.12572 -0.7058628,2.80425 -1.5595748,5.37903 -1.8971378,5.72174 -0.826139,0.83875 -2.793594,1.11763 -6.286765,0.89112 z m 5.07903,-6.21869 c 0.257222,-0.96163 0.213656,-1.13044 -0.142835,-0.55346 -0.28212,0.45661 -0.679493,1.45284 -0.883053,2.21386 -0.257222,0.96163 -0.213656,1.13044 0.142835,0.55346 0.282119,-0.45661 0.679493,-1.45284 0.883053,-2.21386 z m -61.117361,-44.2772 c 0,-0.30441 -0.109831,-0.55347 -0.244069,-0.55347 -0.134238,0 -0.397996,0.24906 -0.586129,0.55347 -0.188133,0.3044 -0.0783,0.55346 0.244069,0.55346 0.322371,0 0.586129,-0.24906 0.586129,-0.55346 z"
       id="path1"
       sodipodi:nodetypes="csssssscssssssssscssssssssssscssssssssssssssssssccsssccssssssssss" /></g></svg>
