<?xml version="1.0" encoding="UTF-8" standalone="no"?>
<!-- Created with Inkscape (http://www.inkscape.org/) -->

<svg
   width="110.24645mm"
   height="93.174034mm"
   viewBox="0 0 110.24645 93.174034"
   version="1.1"
   id="svg1"
   xml:space="preserve"
   xmlns="http://www.w3.org/2000/svg"
   xmlns:svg="http://www.w3.org/2000/svg"><defs
     id="defs1" /><g
     id="layer1"
     transform="translate(-73.029959,75.974198)"><path
       style="fill:#000000"
       d="m 130.89534,17.1686 c -0.10515,-0.105147 -0.19117,-0.656223 -0.19117,-1.224615 v -1.03344 l -0.69256,0.544765 c -1.04559,0.822459 -1.62806,0.185317 -0.73387,-0.80275 0.23412,-0.258694 0.45269,-0.863381 0.48571,-1.343751 0.0722,-1.050415 1.0677,-3.3869401 1.44302,-3.3869401 0.1471,0 0.3346,-0.4464844 0.41665,-0.9921875 0.0821,-0.5457031 0.33013,-1.8316612 0.55129,-2.8576846 0.46883,-2.1750578 0.39168,-3.1834299 -0.54554,-7.1303362 -1.2009,-5.0573083 -1.49781,-7.5714177 -1.1883,-10.0620966 0.18308,-1.473341 0.18705,-2.592597 0.0119,-3.373899 -0.1441,-0.643036 -0.44127,-2.526435 -0.66036,-4.185331 -0.21909,-1.658895 -0.57977,-3.667199 -0.80151,-4.462896 -0.22173,-0.795698 -0.40315,-1.655164 -0.40315,-1.909925 0,-0.30187 -0.13746,-0.410457 -0.39465,-0.311764 -0.5569,0.213703 -0.80158,-0.606632 -0.40305,-1.351292 0.47637,-0.890103 0.17595,-1.181071 -0.95587,-0.925803 -0.56659,0.127786 -1.24617,0.109312 -1.65179,-0.0449 -0.57476,-0.21852 -0.76656,-0.166425 -1.15544,0.313822 -0.25646,0.316711 -0.46629,0.894289 -0.46629,1.283508 0,0.389219 -0.22976,2.013138 -0.51058,3.608709 -0.52053,2.957552 -0.85566,5.669351 -0.88806,7.186116 -0.01,0.465021 0.37515,1.620187 0.85575,2.567034 0.9693,1.909689 0.9727,3.0115824 0.007,2.137262 -0.2889,-0.26145 -0.56795,-0.426485 -0.6201,-0.366744 -0.56863,0.651316 -0.82525,1.7740219 -0.87151,3.8127879 -0.0297,1.3096875 -0.15852,4.2267187 -0.28621,6.48229166 -0.19559,3.45488274 -0.32739,4.28863624 -0.83651,5.29166664 -0.33239,0.6548438 -0.69077,1.4882813 -0.79641,1.8520834 -0.10564,0.363802 -0.30256,0.6621547 -0.43762,0.6630058 -0.4389,0.00277 -2.22906,1.223497 -2.26039,1.5413859 -0.0168,0.1700325 -0.009,0.5214161 0.0181,0.7808525 0.034,0.3302289 -0.34391,0.6476462 -1.26004,1.0583332 -1.09032,0.488773 -1.34712,0.741107 -1.53946,1.512673 -0.31963,1.282177 -1.0504,1.26542 -0.95253,-0.02184 0.0684,-0.899355 0.0152,-0.966657 -1.03906,-1.314589 -0.89707,-0.296062 -1.13297,-0.301175 -1.22452,-0.02654 -0.0624,0.187091 -0.38973,0.659593 -0.72748,1.050007 -0.54672,0.631965 -0.63392,0.65882 -0.79487,0.244778 -0.10401,-0.267568 0.003,-0.745094 0.25129,-1.124479 0.40963,-0.62517 0.40525,-0.659416 -0.0843,-0.659416 -0.28401,0 -0.70347,-0.187098 -0.93214,-0.4157736 -0.22868,-0.2286756 -0.41578,-0.3141753 -0.41578,-0.1899993 0,0.3252871 -1.26557,0.383445 -1.46106,0.067141 -0.15132,-0.2448402 0.99583,-1.8620805 1.3175,-1.8573934 0.65579,0.00956 1.78848,-0.3962607 2.21493,-0.7935633 1.13086,-1.0535491 3.38572,-1.6140953 4.26213,-1.0595413 0.54204,0.342977 1.69347,-0.632402 1.79503,-1.5205752 0.0448,-0.3919227 0.1993,-1.2483679 0.3433,-1.9032116 0.144,-0.6548438 0.30786,-2.14312504 0.36413,-3.3072917 0.0563,-1.1641667 0.29212,-2.6524479 0.52412,-3.3072917 0.46294,-1.3067384 0.58472,-4.9301486 0.17043,-5.0711805 -0.43876,-0.1493636 -0.87119,-5.4632864 -0.73252,-9.0015394 0.12287,-3.135093 -0.2192,-6.384572 -1.00206,-9.518972 -0.14772,-0.591415 -0.0544,-0.771737 0.57802,-1.117295 l 0.75418,-0.412061 -0.8599,0.15818 c -0.66033,0.12147 -0.8599,0.06546 -0.8599,-0.241337 0,-0.219735 -0.2792,-0.582458 -0.62044,-0.806049 -0.57158,-0.374513 -0.65593,-0.365087 -1.07101,0.119686 -0.56808,0.663473 -1.08253,0.50689 -1.10036,-0.334916 -0.0142,-0.671618 -1.10172,-2.417274 -2.78229,-4.466182 -0.53712,-0.654844 -1.30116,-1.785938 -1.69786,-2.513542 -2.01694,-3.699362 -2.61735,-4.681007 -3.32912,-5.44296 -1.21815,-1.304033 -0.79916,-1.911422 0.48881,-0.708603 l 0.63746,0.595313 -0.47415,-0.998837 c -0.45895,-0.966841 -1.7797,-1.920272 -2.25401,-1.627135 -0.12784,0.07901 -0.23244,-0.115372 -0.23244,-0.431966 0,-0.458619 0.12417,-0.551889 0.61087,-0.458851 0.94005,0.179703 1.3394,-0.859934 0.557,-1.450094 -0.55716,-0.420272 -0.57855,-0.416473 -0.44879,0.07973 0.12562,0.480351 0.029,0.510828 -1.23685,0.390316 -1.16461,-0.11087 -1.50078,-0.03334 -2.21393,0.510612 -0.670231,0.511207 -1.073554,0.618914 -1.987837,0.53085 -0.953933,-0.09188 -1.354707,0.02961 -2.380923,0.721795 -2.024306,1.36539 -4.919183,3.496959 -5.202667,3.830852 -0.511375,0.602308 -3.641337,2.462898 -3.887382,2.310834 -0.136877,-0.0846 -0.409805,0.06629 -0.606506,0.335291 -0.196702,0.269004 -0.446313,0.400425 -0.554692,0.292046 -0.108379,-0.108379 -0.728913,0.606183 -1.378963,1.587916 -0.650051,0.981733 -1.492924,2.142157 -1.87305,2.578719 -0.380127,0.436563 -0.519422,0.644922 -0.309544,0.463021 0.946973,-0.820743 1.490087,3.91e-4 0.558115,0.843814 -0.368262,0.333272 -0.735062,0.413683 -1.310515,0.287292 -0.506779,-0.111307 -1.118228,-0.02546 -1.671416,0.234654 -0.741927,0.348867 -1.019848,0.358931 -1.859545,0.06734 -0.542986,-0.188559 -1.050158,-0.405744 -1.127049,-0.482635 -0.07689,-0.07689 -0.745872,0.06537 -1.486625,0.316143 -0.740754,0.25077 -1.573035,0.39679 -1.849514,0.324489 -0.536405,-0.140273 -0.676224,-0.725009 -0.238106,-0.99578 0.145521,-0.08994 0.264583,-0.338262 0.264583,-0.551833 0,-0.213571 0.37159,-0.796661 0.825755,-1.295755 0.870522,-0.956638 2.950507,-4.514811 4.074917,-6.970846 0.871244,-1.903047 2.063938,-6.977726 2.016056,-8.577921 -0.03093,-1.033509 0.04465,-1.25749 0.425437,-1.260822 0.370628,-0.0032 0.389341,-0.05072 0.09376,-0.23788 -0.244089,-0.154557 -0.296957,-0.399855 -0.155943,-0.723553 0.117338,-0.269348 0.186114,-1.561286 0.152837,-2.870974 -0.04156,-1.635511 0.07031,-2.74633 0.357205,-3.547001 0.22974,-0.641163 0.356907,-1.226554 0.282593,-1.300868 -0.07431,-0.07431 -0.135117,0.0038 -0.135117,0.173564 0,0.460181 -0.712447,0.373016 -0.897734,-0.109834 -0.216522,-0.564249 -0.176384,-2.600722 0.08229,-4.175057 0.176476,-1.07407 0.08299,-1.685182 -0.566679,-3.704167 -0.565012,-1.755906 -0.705197,-2.53476 -0.512028,-2.844765 0.146297,-0.234784 0.210725,-0.889627 0.143173,-1.455209 -0.150458,-1.259725 0.06688,-1.608322 1.077894,-1.728844 0.828609,-0.09878 1.285591,0.448871 1.578051,1.89114 0.07377,0.363802 0.825895,1.375833 1.671387,2.248958 0.845491,0.873125 2.055474,2.53201 2.68885,3.686411 l 1.151593,2.09891 0.401937,-0.775994 c 0.221065,-0.426796 0.488335,-0.835525 0.593934,-0.908285 0.105599,-0.07276 0.569007,-0.881883 1.029797,-1.798049 0.460789,-0.916167 0.99961,-1.727851 1.197379,-1.803742 0.418267,-0.160504 0.812321,-2.172844 0.706535,-3.608105 -0.05798,-0.786668 0.02018,-0.992188 0.377355,-0.992188 0.320148,0 0.410468,-0.153025 0.312174,-0.528903 -0.191388,-0.731868 0.272873,-0.937842 0.878502,-0.389755 0.366175,0.331384 0.437348,0.580599 0.260295,0.911427 -0.140346,0.262238 -0.144967,0.556673 -0.0109,0.694302 0.128034,0.131434 0.370522,1.727252 0.538862,3.546263 0.381305,4.12023 0.395202,4.169585 1.015868,3.607889 0.263086,-0.238089 0.615694,-0.432889 0.783573,-0.432889 0.16788,0 1.068626,-0.467247 2.001658,-1.038326 2.2182,-1.357688 3.87618,-1.911632 5.98582,-1.999911 0.94588,-0.03958 2.34326,-0.258244 3.10528,-0.485917 1.2102,-0.36158 1.43401,-0.365422 1.76906,-0.03037 0.2722,0.272191 0.43702,0.29712 0.5676,0.08584 0.22597,-0.365629 3.79037,-0.09974 5.62311,0.419459 0.68094,0.192904 2.07151,0.500216 3.09016,0.682914 1.01864,0.182699 2.62599,0.660028 3.57187,1.060731 0.94589,0.400704 2.40144,0.853792 3.23456,1.006863 1.84165,0.338368 2.8356,0.83177 4.27018,2.119734 1.21866,1.094111 2.54323,2.007235 2.9463,2.031104 0.14552,0.0086 0.52518,0.103621 0.84367,0.211118 0.81446,0.274887 2.8445,-0.819764 4.30465,-2.321179 1.26503,-1.30078 1.69692,-1.462927 2.07884,-0.780474 0.20952,0.374378 0.44892,0.276707 1.78344,-0.727604 0.84779,-0.638016 1.8322,-1.449162 2.18758,-1.802546 0.60691,-0.603505 0.66685,-0.614187 0.98732,-0.175922 0.29177,0.399013 0.62199,0.444457 2.27993,0.313754 5.99252,-0.472422 8.37669,-0.146837 10.71766,1.463611 0.6083,0.418476 1.29883,0.760866 1.5345,0.760866 1.0894,0 4.09499,2.15298 7.01788,5.027083 0.96194,0.945885 2.67241,2.434167 3.80103,3.307292 2.18528,1.690564 4.0555,4.017727 4.93253,6.137644 0.28913,0.698879 0.62286,1.449283 0.74162,1.667564 0.11877,0.218281 0.24342,0.915584 0.27701,1.549561 0.0336,0.633978 0.23164,1.41301 0.44011,1.731184 0.62955,0.96081 2.68245,7.24274 3.38079,10.345297 0.3603,1.600729 1.09372,4.577291 1.62982,6.614583 0.5361,2.037292 1.02342,4.478073 1.08292,5.423958 0.0595,0.945886 0.3643,2.652101 0.67731,3.791589 0.5266,1.917043 0.53682,2.104088 0.13681,2.504092 -0.23776,0.237763 -0.44587,0.317485 -0.46246,0.177161 -0.14909,-1.260921 -0.23137,-1.665519 -0.45541,-2.239508 -0.18721,-0.479622 -0.219,-0.108491 -0.11565,1.350048 0.15087,2.12907 -0.34825,5.075514 -1.25035,7.381202 -0.25621,0.654843 -0.54887,1.9127546 -0.65035,2.7953584 -0.21421,1.8631046 -0.45825,2.3707734 -1.03351,2.1500248 -0.5665,-0.2173838 -0.94638,1.6166889 -0.40426,1.9517385 0.45739,0.2826789 0.0916,0.6759495 -0.84323,0.9065725 l -0.68189,0.1682236 -0.29942,-2.7422077 c -0.16468,-1.5082142 -0.22603,-3.0228576 -0.13633,-3.3658743 0.0962,-0.3678018 0.0594,-0.5595808 -0.0897,-0.4674598 -0.13901,0.08591 -0.42412,0.05029 -0.63359,-0.07917 -0.32851,-0.203034 -0.31384,-0.536885 0.10676,-2.429938 0.73014,-3.286154 0.80015,-3.914357 0.43625,-3.914357 -0.22042,0 -0.29189,-0.466428 -0.2331,-1.521354 0.0466,-0.836745 -4.7e-4,-1.656414 -0.10466,-1.821488 -0.10418,-0.165074 -0.2104,-0.854675 -0.23604,-1.532449 -0.03,-0.79425 -0.1909,-1.313064 -0.45251,-1.45947 -0.30635,-0.17144 -0.40421,-0.686597 -0.39896,-2.100288 0.005,-1.475916 -0.0637,-1.814523 -0.32608,-1.59675 -0.49171,0.408085 -0.80441,-0.346391 -1.27947,-3.087164 -0.67278,-3.881429 -1.40137,-7.311865 -1.82165,-8.57687 -0.21756,-0.654844 -0.47339,-1.607344 -0.56852,-2.116667 -0.1718,-0.919873 -0.46956,-1.856436 -1.02711,-3.230595 -0.16001,-0.39438 -0.53185,-0.751568 -0.82632,-0.79375 -0.3224,-0.04619 -0.56891,-0.312636 -0.61965,-0.669764 -0.0463,-0.326188 -0.44079,-0.949602 -0.87655,-1.385367 -0.5109,-0.510895 -0.74219,-0.629159 -0.65121,-0.332974 0.0776,0.252629 0.31779,1.225461 0.53376,2.161848 0.21967,0.952434 0.5793,1.806968 0.81628,1.939587 0.33489,0.187416 0.35757,0.316638 0.10827,0.617022 -0.21687,0.261311 -0.2596,0.923983 -0.13684,2.122153 0.10913,1.065187 0.0738,1.868303 -0.0908,2.066722 -0.14814,0.17849 -0.38846,1.148676 -0.53405,2.155969 -0.56194,3.887877 -0.22426,5.978585 1.03661,6.418127 0.42512,0.148197 0.95872,0.631899 1.18958,1.078343 0.43225,0.835885 1.33381,1.241725 2.17588,0.979485 1.00918,-0.314284 1.15221,0.135771 1.30006,4.090995 0.0785,2.099116 0.24311,4.471418 0.36586,5.271783 0.13045,0.850521 0.12326,1.559654 -0.0173,1.706562 -0.33283,0.347891 -0.29957,13.1181291 0.0396,15.2086321 l 0.27609,1.70165308 -1.04979,0.95960452 c -0.76709,0.7011848 -1.30849,1.5967168 -2.01043,3.3254302 -0.52835,1.3012041 -1.02313,2.5038975 -1.09952,2.672652 -0.0764,0.1687544 0.11441,0.3872173 0.42399,0.4854731 0.72913,0.2314184 0.56228,0.7011402 -0.41185,1.1594627 -0.42581,0.2003441 -1.07187,0.6334525 -1.43567,0.9624633 -0.3638,0.329011 -0.95911,0.684418 -1.32291,0.789794 -0.36381,0.105376 -1.27127,0.535471 -2.01659,0.955766 -1.54012,0.8685 -3.11207,0.998878 -4.34655,0.360504 -0.8416,-0.435208 -0.97274,-0.859212 -0.44989,-1.454623 0.18191,-0.207144 0.0832,-0.171425 -0.21927,0.07938 -0.3025,0.2508 -0.68945,0.456001 -0.85989,0.456001 -0.48456,0 -0.3638,-0.491018 0.20867,-0.848533 0.47122,-0.294285 0.48112,-0.365224 0.10844,-0.7770317 -0.24585,-0.2716678 -0.34246,-0.6663461 -0.2412,-0.9853877 0.22184,-0.6989772 3.35922,-3.4567197 5.03815,-4.4285235 0.9457,-0.547394 1.32891,-0.935479 1.34393,-1.3610457 0.0116,-0.3293595 -0.13613,-0.5953125 -0.33073,-0.5953125 -0.19346,0 -0.35174,-0.1320466 -0.35174,-0.2934369 0,-0.4657778 1.14557,-1.5490494 1.64345,-1.55407531 0.80364,-0.008113 1.07511,-1.86999519 0.88788,-6.08950119 -0.271,-6.1070685 -0.54926,-9.4076365 -0.9773,-11.5921555 -0.15143,-0.772866 -0.19735,-1.606303 -0.10204,-1.852083 0.15782,-0.406958 0.20706,-0.400999 0.55128,0.06672 0.30515,0.414638 0.37798,0.432836 0.37798,0.09445 0,-0.230525 -0.16154,-0.481124 -0.35897,-0.556887 -0.41998,-0.161159 -1.22853,-3.166007 -1.22853,-4.565611 0,-0.772272 -0.084,-0.933896 -0.41852,-0.80552 -0.23018,0.08833 -0.82175,0.160599 -1.31461,0.160599 -0.67451,0 -0.85966,0.09496 -0.74873,0.384035 0.11689,0.304607 -0.0373,0.354068 -0.74546,0.239147 -0.96803,-0.157088 -2.99998,0.287151 -3.26347,0.71348 -0.0897,0.145172 -0.065,0.231234 0.055,0.191248 0.11995,-0.03999 0.24787,0.01659 0.28425,0.125736 0.17579,0.527372 0.01,0.727604 -0.60362,0.727604 -0.74547,0 -1.15142,-0.6659 -0.68829,-1.129034 0.66568,-0.665676 0.10538,-2.69044 -0.81081,-2.930028 -0.36237,-0.09476 -0.49113,-0.318945 -0.43077,-0.750029 0.0739,-0.528068 -0.0156,-0.604277 -0.63425,-0.539846 -0.59885,0.06237 -0.74777,-0.04918 -0.88303,-0.661459 -0.0895,-0.405063 -0.31387,-1.212729 -0.49862,-1.794812 l -0.33591,-1.058333 -0.43469,1.024499 c -0.23909,0.563475 -0.4347,1.137526 -0.4347,1.27567 0,0.388353 0.71031,1.007122 1.15611,1.007122 0.70465,0 0.7538,0.520347 0.1445,1.530062 -0.45718,0.757639 -0.58184,1.334699 -0.54286,2.512951 0.0474,1.432832 0.002,1.557264 -0.71583,1.969339 -0.69272,0.397565 -0.82276,0.708486 -1.35222,3.233029 -0.32219,1.536238 -0.97676,3.805865 -1.45461,5.043615 -0.47785,1.23775 -0.95741,2.6665 -1.06569,3.175 -0.10828,0.5085 -0.52303,1.8770456 -0.92167,3.0412123 -0.39863,1.1641666 -1.04788,3.5454166 -1.44276,5.2916666 -0.39489,1.74625003 -0.83289,3.3535938 -0.97332,3.571875 -0.14044,0.2182813 -0.32531,0.6052344 -0.41082,0.8598959 -0.0855,0.2546614 -0.23088,0.4718683 -0.32304,0.482682 -0.98934,0.1160736 -1.5083,0.3414631 -1.82399,0.7921709 -0.33092,0.472461 -0.59265,0.5230049 -2.18148,0.4212759 -0.99299,-0.063579 -1.96444,-0.2182099 -2.15877,-0.343624 -0.19434,-0.1254141 -0.69366,-0.3470882 -1.1096,-0.492609 -0.54493,-0.1906515 -0.85835,-0.5603107 -1.12165,-1.3229167 -0.44513,-1.28929662 -0.31526,-1.7371563 0.47909,-1.65210268 0.44862,0.0480343 0.62526,-0.0880748 0.68876,-0.53070979 0.047,-0.32742188 0.16642,-0.60442212 0.26544,-0.61555611 0.88199,-0.0991727 1.31408,-0.30717142 1.76753,-0.85085102 0.29105,-0.3489491 0.73786,-0.7088147 0.99293,-0.7997014 0.52986,-0.1887987 2.0465,-2.4585456 2.05629,-3.0773584 0.004,-0.2261713 0.243,-1.1182353 0.53204,-1.9823645 0.28905,-0.8641291 0.64756,-2.35241 0.79669,-3.307291 0.14914,-0.954882 0.63032,-2.807711 1.06929,-4.117398 0.68428,-2.041558 0.77322,-2.614037 0.62352,-4.013093 -0.15554,-1.453608 -0.1137,-1.683995 0.38305,-2.109322 0.30671,-0.262614 0.56144,-0.659378 0.56607,-0.881699 0.0107,-0.515127 0.66715,-1.391845 0.95967,-1.281734 0.1224,0.04607 0.258,-0.164426 0.30135,-0.467771 0.11297,-0.790615 -0.96395,-0.693289 -1.71134,0.154661 -0.5178,0.587467 -0.64691,0.622441 -1.15424,0.312658 -0.47943,-0.292755 -0.64154,-0.286506 -1.00889,0.03889 -0.24072,0.21323 -1.0099,0.43111 -1.70929,0.484178 l -1.27161,0.09649 0.069,-0.800647 c 0.0379,-0.440355 -0.0114,-0.930773 -0.10973,-1.089816 -0.31455,-0.508944 -0.51408,-3.289272 -0.55308,-7.706569 -0.0209,-2.364556 -0.0576,-4.299321 -0.0817,-4.299479 -0.27209,-0.0018 -2.45829,3.352287 -2.35703,3.616171 0.0753,0.196288 0.0387,0.623743 -0.0815,0.949901 -0.12013,0.326159 -0.29765,0.920437 -0.39449,1.320619 -0.15676,0.647788 -0.10296,0.727605 0.49042,0.727605 0.94136,0 0.84194,0.692516 -0.12725,0.886354 -0.52275,0.10455 -0.79457,0.319091 -0.79615,0.628385 -0.001,0.2583 -0.29416,1.755866 -0.65077,3.327925 -1.16345,5.12897 -1.15637,5.043414 -0.82473,9.974002 0.13282,1.97468 0.0463,4.211996 -0.29916,7.7361125 -0.51655,5.2693788 -0.41579,7.00752332 0.5619,9.6935067 0.52775,1.4498881 0.53574,2.1495474 0.0245,2.1495474 -0.25844,0 -0.39419,0.2538098 -0.38917,0.7276042 0.0134,1.2680791 0.97145,4.3133856 1.55103,4.9303232 0.75174,0.800193 0.73436,2.173152 -0.0374,2.951915 -1.04117,1.050643 -1.25677,1.40627 -1.25677,2.072976 0,0.923947 -0.26148,1.488015 -0.68977,1.488015 -0.33332,0 -0.48438,-0.324827 -0.3999,-0.859896 0.0621,-0.393239 -0.41729,-0.18599 -0.99692,0.430997 -0.62391,0.664123 -2.15742,0.793745 -2.35564,0.199113 -0.11316,-0.339502 -0.84944,-0.413496 -0.84944,-0.08537 0,0.401294 -0.67538,1.139085 -0.86716,0.947301 z m 31.06341,-7.4451686 c 0.33589,-0.4282957 0.32344,-0.4339106 -0.16604,-0.074869 -0.29104,0.2134837 -0.57878,0.4218436 -0.63941,0.4630216 -0.0606,0.04118 0.0141,0.07487 0.16604,0.07487 0.15195,0 0.43969,-0.2083596 0.63941,-0.4630211 z m 6.19096,-1.337964 c -0.0815,-0.081462 -0.29496,-1.678e-4 -0.47443,0.1806533 -0.25937,0.2613067 -0.22897,0.2916977 0.14811,0.1481124 0.26094,-0.099359 0.40778,-0.2473039 0.32632,-0.3287657 z m -3.98705,-0.5619829 c 0.0837,-0.1354656 0.0312,-0.3210861 -0.11668,-0.4124899 -0.14789,-0.091404 -0.2689,0.019432 -0.2689,0.2463011 0,0.4647475 0.15877,0.5331773 0.38558,0.1661888 z M 139.43542,1.4552022 c 0,-0.1455208 -0.11907,-0.2645833 -0.26459,-0.2645833 -0.14552,0 -0.26458,0.1190625 -0.26458,0.2645833 0,0.1455209 0.11906,0.2645834 0.26458,0.2645834 0.14552,0 0.26459,-0.1190625 0.26459,-0.2645834 z m 7.22436,-3.4547045 c 0.11679,-0.4466083 0.0748,-0.4882772 -0.23372,-0.2321865 -0.42091,0.3493236 -0.49921,0.7764744 -0.14234,0.7764744 0.12855,0 0.29778,-0.2449296 0.37606,-0.5442879 z"
       id="path1" /></g></svg>
