<?xml version="1.0" encoding="UTF-8" standalone="no"?>
<svg
   width="135.00836mm"
   height="154.48647mm"
   viewBox="0 0 135.00836 154.48647"
   version="1.1"
   id="many_forms_crinos">
    <g id="crinos_shape" transform="translate(-26.070941,-148.84257)">
    <path
       style="fill:#303030"
       d="m 109.89463,302.93975 c -0.0855,-0.22277 -0.0809,-0.7778 0.0102,-1.23339 l 0.16567,-0.82835 -0.59725,0.50579 c -0.32849,0.27818 -0.69489,0.65894 -0.81422,0.84613 -0.125,0.19608 -0.62971,0.31658 -1.19063,0.28427 -0.53551,-0.0309 -1.23371,0.0839 -1.55157,0.25496 -0.74932,0.40329 -2.3781,0.40077 -2.62831,-0.004 -0.10728,-0.17359 -0.0414,-0.36624 0.14672,-0.42894 0.18781,-0.0626 0.53631,-0.34839 0.77445,-0.63508 0.44005,-0.52978 1.57726,-1.12793 1.974,-1.03829 0.11995,0.0271 0.14269,-0.0727 0.0505,-0.22186 -0.25857,-0.41837 -2.3292,-0.32062 -2.98835,0.14107 -0.32368,0.22671 -0.70736,0.33875 -0.85263,0.24897 -0.36779,-0.22731 -0.33003,-0.8573 0.0666,-1.11105 0.1819,-0.11637 0.33073,-0.44971 0.33073,-0.74075 0,-0.42862 0.16339,-0.52175 0.8599,-0.49015 0.81887,0.0371 0.86025,-0.007 0.86726,-0.92605 0.0106,-1.38471 0.69997,-2.22715 4.46064,-5.45077 l 0.63155,-0.54136 -0.13656,0.75234 c -0.11188,0.61631 -0.0757,0.68806 0.20025,0.39687 0.45372,-0.47882 0.68866,-3.26126 0.30756,-3.64237 -0.21614,-0.21614 -0.17819,-0.52172 0.14277,-1.14958 0.50149,-0.98101 0.99302,-7.6372 1.12799,-15.27497 0.045,-2.54662 0.1139,-4.74927 0.15311,-4.89479 0.16292,-0.60461 -0.35318,-1.74836 -0.72461,-1.60583 -0.45011,0.17272 -1.6217,-1.01144 -1.83278,-1.85247 -0.22535,-0.89786 -2.4852,-1.12143 -2.4852,-0.24587 0,0.18714 0.18614,0.41169 0.41364,0.49899 0.22751,0.0873 0.33194,0.29094 0.23207,0.45252 -0.20065,0.32467 -3.36946,0.0899 -4.1102,-0.30453 -0.31113,-0.16566 -0.68966,0.0497 -1.44276,0.82099 -0.56154,0.57506 -1.16693,1.04557 -1.34532,1.04557 -0.178385,0 -0.76066,-0.4115 -1.293942,-0.91445 -0.572492,-0.53993 -1.531395,-1.07777 -2.341293,-1.31322 -1.480119,-0.43028 -2.598855,-1.39797 -3.076164,-2.66085 -0.163697,-0.43311 -0.411539,-2.93342 -0.55076,-5.55625 -0.139221,-2.62282 -0.426093,-5.66174 -0.637494,-6.75314 -0.211401,-1.09141 -0.462612,-2.65908 -0.558247,-3.48372 -0.133967,-1.15517 -0.287585,-1.52908 -0.669207,-1.62888 -0.374904,-0.098 -0.495325,-0.37504 -0.495325,-1.13939 v -1.00986 l -1.785938,1.73138 c -2.197868,2.13074 -5.461041,4.46035 -8.850955,6.31878 l -2.567101,1.40735 2.081126,1.03761 c 2.901224,1.44649 4.897792,3.475 3.979118,4.04277 -0.46556,0.28773 -0.283186,0.92604 0.264583,0.92604 0.291042,0 0.529167,0.14243 0.529167,0.31651 0,0.17408 0.309003,0.7624 0.686675,1.30738 0.410118,0.5918 0.603811,1.12495 0.480929,1.32377 -0.39906,0.6457 -0.287858,1.69704 0.317215,2.99908 0.596251,1.28304 0.599381,1.33014 0.123072,1.85208 -0.268806,0.29455 -0.569977,0.80344 -0.669269,1.13087 -0.09929,0.32742 -0.34118,0.59531 -0.537528,0.59531 -0.196349,0 -0.418437,0.14883 -0.493531,0.33073 -0.08225,0.19923 -0.209321,0.0908 -0.319608,-0.27268 -0.176431,-0.58151 -0.221188,-0.56231 -1.233433,0.52917 -0.577697,0.62291 -1.561437,2.20413 -2.186088,3.51382 -1.095928,2.2978 -2.816217,6.8356 -2.737399,7.22074 0.02111,0.10318 -0.0384,0.36619 -0.132266,0.58447 -0.09386,0.21828 -0.266722,0.87217 -0.384135,1.45308 -0.126176,0.62427 -0.425217,1.1669 -0.731243,1.3269 -0.284772,0.14888 -1.033498,0.77492 -1.663836,1.39119 -0.630337,0.61627 -1.285181,1.12232 -1.455208,1.12455 -0.197448,0.003 -0.178892,0.0866 0.05136,0.23245 0.263379,0.16686 -0.375248,0.77164 -2.370564,2.2449 -1.502084,1.10908 -2.628249,2.01651 -2.50259,2.01651 0.125659,0 0.995589,-0.42899 1.933177,-0.95332 1.085518,-0.60706 1.796684,-0.86135 1.957935,-0.7001 0.275195,0.2752 -2.308005,1.91561 -5.083638,3.22828 -2.134072,1.00926 -2.607979,1.46327 -2.491129,2.38658 0.09092,0.71841 0.04443,0.75035 -1.34486,0.92393 -0.79147,0.0989 -2.064114,0.11277 -2.828098,0.0308 -3.768964,-0.40413 -4.116086,-0.40393 -4.272016,0.002 -0.194158,0.50597 -1.526095,1.05072 -3.136318,1.28272 -1.021937,0.14724 -1.256771,0.10681 -1.256771,-0.2164 0,-0.21861 0.119063,-0.47105 0.264584,-0.56099 0.524979,-0.32445 0.24907,-0.6236 -0.457061,-0.49556 -0.396904,0.072 -0.772902,0.18212 -0.835551,0.24477 -0.06265,0.0627 -0.269282,-0.015 -0.459183,-0.17264 -0.281133,-0.23332 -0.262215,-0.41721 0.101837,-0.9899 0.24591,-0.38683 0.568923,-0.79081 0.717805,-0.89772 0.316007,-0.22693 -0.04109,-0.27086 -1.671062,-0.2056 -0.9824,0.0393 -1.134718,-0.0239 -1.055886,-0.43848 0.05712,-0.30039 0.543558,-0.64027 1.280298,-0.89457 1.399913,-0.48321 2.849578,-1.17987 4.495469,-2.16037 1.203059,-0.71669 3.835385,-1.53055 4.950381,-1.53055 0.429481,0 0.60587,0.15405 0.60587,0.52916 0,0.75467 0.516778,0.65651 1.725653,-0.32776 0.57886,-0.47132 1.171534,-0.95266 1.317055,-1.06967 0.145521,-0.117 0.900891,-0.61499 1.678601,-1.10665 0.826374,-0.52242 2.704307,-2.3222 4.518781,-4.33072 3.606327,-3.99201 4.942074,-6.32542 5.97158,-10.43176 0.356062,-1.4202 0.776631,-2.82368 0.934598,-3.11885 0.157968,-0.29516 0.216243,-0.76027 0.129502,-1.03357 -0.200558,-0.6319 0.283018,-0.95552 0.594941,-0.39815 0.173978,0.31088 0.379483,-0.0781 0.796419,-1.50733 0.309065,-1.05948 0.526277,-1.96199 0.482693,-2.00558 -0.04358,-0.0436 -0.900671,0.0365 -1.904637,0.17804 -1.003967,0.1415 -3.194613,0.28586 -4.868103,0.32079 -2.831225,0.0591 -3.145749,0.0139 -4.525198,-0.65034 -1.698226,-0.81774 -5.264385,-4.3674 -5.264385,-5.24004 0,-0.29372 -0.113942,-0.74693 -0.253204,-1.00715 -0.207753,-0.38818 -0.378212,-1.27855 -0.521686,-2.72493 -0.01037,-0.10458 -0.197454,-0.1216 -0.415735,-0.0378 -0.654904,0.25131 -0.463273,-0.37579 0.890559,-2.91428 1.10582,-2.07346 1.352686,-2.82456 1.74999,-5.32442 0.585431,-3.68355 1.787597,-6.26102 2.559978,-5.48864 0.169782,0.16979 0.120696,0.59215 -0.141845,1.22049 -0.703006,1.68253 0.02073,1.03531 1.339463,-1.19785 2.600384,-4.40353 5.986481,-7.14256 10.259973,-8.29934 1.5592,-0.42206 1.71361,-0.53261 2.16032,-1.54668 0.264603,-0.60068 0.808251,-1.65673 1.208107,-2.34679 0.686895,-1.18541 0.717219,-1.37521 0.549556,-3.43958 -0.0976,-1.20172 -0.221739,-1.97658 -0.275866,-1.72192 -0.05413,0.25466 -0.194857,0.46302 -0.312735,0.46302 -0.301659,0 -0.53008,-0.98437 -0.552564,-2.38125 -0.01416,-0.87967 -0.380405,-1.91617 -1.402355,-3.96875 -0.760755,-1.52797 -1.527663,-2.74836 -1.70424,-2.71198 -0.176577,0.0364 -0.32105,-0.10068 -0.32105,-0.30459 0,-0.483 -1.838867,-1.59818 -2.484235,-1.50656 -0.384324,0.0546 -0.467526,-0.0527 -0.359968,-0.46399 0.147151,-0.56271 -0.286472,-0.88629 -1.256838,-0.93787 -0.371716,-0.0198 -0.506203,-0.18558 -0.451989,-0.5573 0.06321,-0.43338 0.02903,-0.45733 -0.188786,-0.13229 -0.56364,0.84107 -1.433558,0.31825 -1.176255,-0.70692 0.121633,-0.48463 0.05514,-0.55545 -0.407884,-0.43436 -0.448935,0.11739 -0.553211,0.0237 -0.553211,-0.49708 0,-0.35297 -0.168126,-0.87168 -0.373614,-1.1527 -0.410971,-0.56204 -0.304661,-0.70326 -1.213535,1.61211 -0.145328,0.37023 -0.413219,0.65378 -0.595313,0.63011 -0.739841,-0.0961 -0.992538,0.046 -0.992538,0.55815 0,1.05017 -2.519633,4.00719 -5.129484,6.01993 -1.224924,0.94466 -1.715951,1.55045 -2.298958,2.83624 -0.407743,0.89926 -1.15216,2.17321 -1.654262,2.83099 -0.502101,0.65779 -0.9931,1.4801 -1.091108,1.82736 -0.09801,0.34726 -0.315973,0.91062 -0.484366,1.25192 -0.277572,0.56259 -0.194484,0.72322 0.889579,1.7198 0.65766,0.60458 1.595473,1.31276 2.084029,1.57374 0.579838,0.30973 0.798286,0.56449 0.629104,0.73367 -0.408741,0.40875 -2.055548,-0.41246 -3.388656,-1.6898 -0.652872,-0.62556 -1.233384,-1.01123 -1.290027,-0.85704 -0.05664,0.15418 0.19519,0.52602 0.55963,0.82631 0.570862,0.47036 0.619745,0.62608 0.35301,1.12448 -0.173545,0.32427 -0.563945,0.57851 -0.888339,0.57851 h -0.578729 l 0.610335,0.42749 c 1.004115,0.70331 0.270743,0.97451 -1.042417,0.38549 -0.925483,-0.41514 -1.5017,-0.49203 -2.757467,-0.36798 -0.873125,0.0862 -1.728717,0.26779 -1.901316,0.40343 -0.437868,0.34411 -1.238137,-0.13453 -2.088082,-1.24886 -0.386989,-0.50737 -0.844676,-0.92249 -1.017083,-0.92249 -0.172406,0 -0.572258,-0.44649 -0.888561,-0.99219 -0.494888,-0.85381 -0.575942,-0.90673 -0.581172,-0.37948 -0.01587,1.60017 -1.142919,2.02743 -1.46614,0.55582 -0.09322,-0.42441 -0.279085,-0.77165 -0.413043,-0.77165 -0.133959,0 -0.243561,0.0654 -0.243561,0.14543 0,0.35453 0.78893,1.62028 1.295829,2.07901 0.30594,0.27687 0.556254,0.60402 0.556254,0.72698 0,0.44322 -0.647544,0.20922 -1.394787,-0.50403 l -0.762285,-0.7276 0.195809,0.79375 c 0.107695,0.43656 0.354912,1.17688 0.54937,1.64515 0.403822,0.97243 0.46379,1.92673 0.121076,1.92673 -0.215627,0 -0.413838,-0.42356 -1.083405,-2.31511 -0.141656,-0.40018 -0.570137,-2.03729 -0.952181,-3.63802 -0.382044,-1.60073 -0.861456,-3.17412 -1.065361,-3.49642 -0.203905,-0.3223 -0.370736,-0.75605 -0.370736,-0.96388 0,-0.20783 -0.185704,-0.44914 -0.412675,-0.53623 -0.361403,-0.13869 -0.387546,0.0797 -0.210419,1.75763 0.277063,2.62463 0.270138,3.34563 -0.03295,3.43072 -0.142545,0.04 -0.415162,-0.9988 -0.605815,-2.30849 -0.345891,-2.37608 -0.257627,-4.10104 0.209846,-4.10104 0.141875,0 0.125278,-0.26698 -0.03901,-0.62755 -0.157264,-0.34516 -0.482133,-0.61305 -0.721932,-0.59532 -0.312966,0.0231 -0.570823,-0.41572 -0.913786,-1.55525 -1.970094,-6.54584 -3.209106,-9.77022 -4.097253,-10.66262 -0.488831,-0.49118 -1.154084,-1.93988 -1.664568,-3.62488 -0.176347,-0.58209 -1.133382,-2.74318 -2.126745,-4.80244 -1.921313,-3.9829 -2.442645,-5.64476 -2.181071,-6.95263 0.09118,-0.45588 0.03293,-0.96717 -0.132963,-1.16706 -0.162376,-0.19565 -0.206966,-0.44402 -0.09909,-0.55193 0.107878,-0.10792 0.196142,-2.47821 0.196142,-5.26733 v -5.07111 l 0.908082,-2.31511 c 0.844662,-2.15342 1.326317,-2.71623 1.744915,-2.03893 0.09388,0.1519 0.0364,0.43798 -0.12772,0.63573 -0.213091,0.25676 -0.215832,0.38708 -0.0096,0.45583 0.198872,0.0663 0.17251,0.37289 -0.08465,0.98449 -0.323532,0.76945 -0.321697,0.99198 0.01372,1.66434 0.212952,0.42688 0.326722,1.00735 0.252822,1.28994 -0.129651,0.49579 0.192607,0.89235 0.742001,0.91309 0.308935,0.0117 0.196115,0.91752 -0.169755,1.36299 -0.249466,0.30374 -0.19874,1.0925 0.341874,5.31586 0.185346,1.44795 0.393102,2.18281 0.617113,2.18281 0.316354,0 0.562929,-3.34007 0.442847,-5.99876 -0.07615,-1.68609 0.971318,-5.82443 1.841647,-7.27595 1.680643,-2.80295 2.494139,-2.61757 1.651191,0.37627 -0.164916,0.58572 0.577777,0.63149 0.801157,0.0494 0.0873,-0.22751 0.265143,-0.34788 0.395203,-0.2675 0.13006,0.0804 0.383605,-0.0311 0.563432,-0.24781 0.432391,-0.521 1.160432,-0.51879 0.960236,0.003 -0.08376,0.21828 -0.02651,0.39688 0.12724,0.39688 0.180935,0 0.214515,0.38485 0.0952,1.09107 -0.132842,0.78629 -0.08568,1.15204 0.16883,1.30934 0.279788,0.17292 0.224376,0.39246 -0.266698,1.05668 -0.715264,0.96744 -2.000213,6.69558 -1.644538,7.33113 0.147997,0.26446 0.271798,0.0235 0.395621,-0.76989 0.09912,-0.63514 0.522491,-2.16682 0.940823,-3.40375 0.418331,-1.23693 0.831533,-2.67016 0.918225,-3.18496 0.112283,-0.66676 0.386125,-1.07097 0.952014,-1.40525 0.747195,-0.44138 0.804734,-0.44231 0.968444,-0.0157 0.09573,0.24946 0.02729,0.94136 -0.152081,1.53755 -1.039253,3.45418 -1.388372,8.70859 -0.653179,9.83064 0.269303,0.41101 0.42,1.16001 0.401209,1.9941 -0.01939,0.86079 0.156546,1.7017 0.494737,2.3646 0.288658,0.56582 0.524833,1.26593 0.524833,1.55579 0,0.54448 2.286402,4.03931 2.770033,4.23407 0.545769,0.21979 1.672937,1.61962 1.839945,2.28503 0.198109,0.78933 3.619221,5.77503 5.16494,7.52704 l 1.050436,1.19062 0.01128,-0.86869 c 0.02137,-1.64533 1.682977,-4.19218 3.780357,-5.79439 0.61707,-0.47139 0.862364,-1.0948 1.630167,-4.14307 0.49709,-1.97351 0.982962,-3.71628 1.079717,-3.87283 0.398173,-0.64426 1.16319,-5.97683 1.013802,-7.06674 L 58.663844,187.18051 57.51,189.44098 c -0.634613,1.24325 -1.153843,2.45866 -1.153843,2.70089 0,0.24224 -0.226713,0.68623 -0.503806,0.98665 -0.675551,0.73243 -1.187011,2.55364 -0.660399,2.35156 0.504923,-0.19376 0.468662,0.29732 -0.05398,0.73108 -0.233441,0.19374 -0.52815,0.62504 -0.65491,0.95844 -0.236772,0.62276 -0.772735,0.83829 -0.772735,0.31074 0,-0.16276 -0.231948,-0.23478 -0.516481,-0.16038 -0.284064,0.0743 -2.157443,1.72508 -3.005246,1.88413 -0.508804,0.0954 -0.992388,0.3489 -1.074632,0.56323 -0.192593,0.50189 -0.803897,0.49957 -1.222352,-0.005 -0.20709,-0.24953 -0.559019,-0.33615 -0.958439,-0.2359 -0.372551,0.0935 -0.631184,0.0417 -0.631184,-0.12655 0,-0.15673 -0.154189,-0.22579 -0.342643,-0.15348 -0.399485,0.1533 -1.50944,-1.02715 -1.50944,-1.60531 0,-0.54722 0.693848,-0.49659 0.934154,0.0682 0.169357,0.39801 0.22322,0.37015 0.383643,-0.19844 0.102643,-0.3638 0.09476,-0.84609 -0.01751,-1.07175 -0.262336,-0.52727 0.50918,-2.897 0.94318,-2.897 0.410847,0 0.70603,-2.28684 0.494442,-3.83055 -0.0902,-0.65809 -0.04127,-1.1967 0.117633,-1.29491 0.324285,-0.20042 -0.35458,-3.42405 -0.750057,-3.56169 -0.380952,-0.13259 -0.304727,-0.83785 0.09056,-0.83785 0.189177,0 0.486833,0.14288 0.661458,0.3175 0.246944,0.24695 0.317172,0.17345 0.316024,-0.33073 -0.0022,-0.97855 -0.498136,-2.56525 -0.93978,-3.00689 -0.215681,-0.21568 -0.391523,-0.72572 -0.39076,-1.13341 7.64e-4,-0.40769 -0.06982,-1.32469 -0.156851,-2.03777 -0.139632,-1.14406 -0.105603,-1.27632 0.289386,-1.12475 0.403304,0.15476 0.441114,-0.0705 0.38187,-2.27536 -0.03617,-1.34592 -0.346629,-3.87588 -0.68992,-5.62213 -0.504552,-2.56655 -0.5638,-3.28843 -0.309171,-3.76692 0.241971,-0.45471 0.243174,-0.83164 0.0052,-1.62595 -0.170391,-0.56872 -0.241858,-1.21109 -0.158815,-1.4275 0.08304,-0.21641 -0.0445,-1.09207 -0.283435,-1.94592 -0.739083,-2.6412 -0.751293,-2.74308 -0.32872,-2.74308 0.226558,0 0.848506,0.94124 1.486053,2.24895 2.807298,5.75824 3.282833,6.66545 3.879305,7.40078 l 0.637731,0.7862 0.776364,-0.74381 c 0.427,-0.40909 0.980942,-1.29866 1.230982,-1.97682 0.25004,-0.67816 0.963738,-2.48317 1.585995,-4.01114 0.622258,-1.52797 1.265253,-3.55203 1.42888,-4.49791 0.659315,-3.81135 0.859941,-4.63535 1.227497,-5.04149 0.211113,-0.23328 0.383841,-0.74219 0.383841,-1.13091 0,-0.38872 0.135702,-0.70677 0.301561,-0.70677 0.165858,0 0.461252,-0.20836 0.65643,-0.46302 0.310247,-0.4048 0.388263,-0.41312 0.620429,-0.0661 0.146058,0.21828 0.267383,0.60998 0.269612,0.87044 0.0022,0.26046 0.228748,0.9153 0.503377,1.45521 0.274629,0.5399 0.944166,2.29133 1.487859,3.89206 0.543693,1.60073 1.150394,3.22798 1.348225,3.61612 l 0.359692,0.7057 0.794557,-0.74223 c 0.929165,-0.86797 1.93866,-1.18435 2.618334,-0.8206 0.384391,0.20572 0.853214,-0.009 2.304704,-1.05359 1.002184,-0.72151 1.936011,-1.27389 2.075171,-1.2275 0.555435,0.18515 0.378037,0.61464 -0.439824,1.06485 -1.286876,0.70839 -2.91717,2.21847 -2.604022,2.41201 0.290137,0.17931 1.042881,-0.2475 2.887182,-1.63706 1.316198,-0.99167 2.023468,-1.08757 2.429231,-0.3294 0.224502,0.41949 0.198294,0.56648 -0.122983,0.68977 -0.887573,0.34059 -0.320062,0.51837 1.443798,0.45228 1.030912,-0.0386 1.852084,0.0411 1.852084,0.17975 0,0.13702 -0.446485,0.48484 -0.992188,0.77293 l -0.992187,0.52379 0.79375,0.005 c 0.436562,0.003 1.269896,-0.10499 1.851851,-0.23989 1.187556,-0.27528 1.73111,0.004 1.21607,0.62439 -0.269492,0.32472 -0.199938,0.40301 0.421317,0.47424 0.409252,0.0469 1.623612,-0.005 2.698578,-0.11544 2.000173,-0.20544 2.675726,-0.013 2.675726,0.76231 0,0.41739 -0.307159,0.47473 -0.674688,0.12595 -0.286899,-0.27227 -3.555519,0.1552 -3.929908,0.51395 -0.134986,0.12934 -0.460308,0.11053 -0.747632,-0.0433 -0.454393,-0.24318 -0.478025,-0.21498 -0.221503,0.26434 0.271426,0.50716 0.346819,0.51551 1.376209,0.15232 1.367766,-0.48258 3.677207,-0.49728 4.319665,-0.0275 0.58706,0.42927 0.309719,1.05853 -0.336638,0.7638 -0.24583,-0.11209 -1.161339,-0.14218 -2.034464,-0.0669 l -1.5875,0.13695 1.822598,0.19191 c 1.46962,0.15474 1.903954,0.30846 2.242681,0.79375 0.231045,0.33101 0.690798,0.85362 1.021673,1.16135 0.330874,0.30773 0.60159,0.66934 0.60159,0.80359 0,0.13425 0.267891,0.26402 0.595312,0.28839 0.327422,0.0244 0.811681,0.31092 1.07613,0.63677 0.444095,0.5472 0.545133,0.56515 1.322917,0.23505 1.202292,-0.51026 3.363595,-0.61894 4.149391,-0.20865 0.363802,0.18996 0.907045,0.81843 1.207206,1.39661 0.540784,1.04167 0.562441,1.05261 2.38125,1.2034 2.666605,0.22107 4.670998,0.89628 6.037648,2.03387 0.65345,0.54393 1.19567,1.1002 1.20494,1.23615 0.009,0.13596 0.26597,0.76174 0.57041,1.39064 0.64365,1.32961 1.29089,3.62343 1.29541,4.59094 0.002,0.44606 0.408,1.0697 1.20548,1.85208 0.66128,0.64876 1.68729,1.92371 2.28002,2.83321 0.59275,0.90951 1.21255,1.65761 1.37736,1.66245 1.17523,0.0345 4.61975,5.35361 5.09162,7.86255 0.0916,0.48716 0.32345,0.8599 0.53482,0.8599 0.20521,0 0.5059,0.32742 0.66822,0.7276 0.16231,0.40019 0.44676,1.0753 0.63211,1.50026 0.22716,0.52085 0.25786,0.98079 0.0942,1.41128 -0.20431,0.53736 -0.11666,0.7493 0.55284,1.33678 0.43761,0.38399 0.79565,0.85025 0.79565,1.03612 0,0.59838 0.45644,0.36003 0.74618,-0.38965 0.15467,-0.40018 0.437,-1.30881 0.62741,-2.01917 0.36352,-1.35622 0.94032,-1.71059 0.78479,-0.48216 -0.0498,0.39347 -0.32995,1.37024 -0.62252,2.17061 -0.88171,2.41205 -0.8874,2.59097 -0.0939,2.95254 0.54221,0.24705 0.6732,0.45683 0.56197,0.89999 -0.0798,0.31782 0.0337,0.93612 0.25214,1.374 0.62352,1.24988 -0.0125,2.16747 -0.91628,1.3219 -0.29072,-0.27198 -0.32426,-0.21324 -0.18882,0.33073 0.0906,0.3638 0.1663,0.75076 0.16827,0.8599 0.002,0.10914 0.16159,0.19844 0.35468,0.19844 0.23245,0 0.31497,0.24581 0.24429,0.7276 -0.0587,0.40018 0.14592,1.97776 0.45473,3.50573 0.30881,1.52797 0.62182,4.20687 0.69557,5.95312 0.20078,4.75419 0.19973,4.75028 1.29718,4.82849 1.07224,0.0764 1.23088,-0.36001 0.26446,-0.72744 -0.36381,-0.13832 -0.66146,-0.36647 -0.66146,-0.50701 0,-0.54655 0.55277,-0.54294 1.73189,0.0113 1.00171,0.47086 1.26988,0.51141 1.4504,0.21931 0.44186,-0.71494 3.3542,-1.08297 5.94583,-0.75137 3.40646,0.43586 3.93829,0.58867 4.21832,1.21203 0.20975,0.46691 0.53099,0.57144 2.01361,0.65522 1.83983,0.10396 1.79206,0.0813 5.14516,2.44325 0.7276,0.51253 1.53127,0.93609 1.78593,0.94124 0.57845,0.0117 0.60712,0.49983 0.0421,0.71665 -0.51556,0.19784 -2.00451,-0.48827 -3.31917,-1.52951 -1.34466,-1.06498 -3.33381,-1.91533 -3.88596,-1.66122 -0.24405,0.11233 -0.61258,0.21154 -0.81894,0.22047 -0.57424,0.0249 -0.65798,0.65543 -0.10982,0.82693 0.26676,0.0835 0.66362,0.24287 0.8819,0.35426 0.21828,0.11139 0.95662,0.2225 1.64076,0.24692 2.12277,0.0758 4.33779,1.2615 4.0945,2.19184 -0.072,0.27544 -0.0175,0.4265 0.12267,0.33987 0.66507,-0.41103 5.00958,2.37617 7.8598,5.04242 1.4229,1.33106 2.15727,2.40999 2.15727,3.16945 0,0.64553 -0.71927,0.47821 -0.89133,-0.20734 -0.16748,-0.66728 -2.26605,-3.19262 -2.47743,-2.98124 -0.0707,0.0707 0.1042,0.46283 0.38868,0.87139 0.28449,0.40856 0.90099,1.47125 1.37002,2.36153 0.46904,0.89028 1.14363,1.77435 1.49911,1.9646 0.42609,0.22804 0.59772,0.49911 0.50364,0.7955 -0.1395,0.43954 1.10571,2.17748 3.31914,4.63249 1.20812,1.33998 3.12192,4.58604 3.33655,5.65927 0.0963,0.48168 0.0294,0.96512 -0.16625,1.20087 -0.44646,0.53796 -0.75216,0.28665 -0.60265,-0.49543 0.1139,-0.59587 -1.4696,-3.90717 -2.03579,-4.2571 -0.11623,-0.0718 0.11757,0.81922 0.51955,1.98011 0.64382,1.85931 0.72433,2.4497 0.67598,4.95689 -0.0354,1.83772 -0.15432,2.82633 -0.33549,2.79014 -0.15893,-0.0317 -0.45966,1.00098 -0.69344,2.38125 -0.64845,3.82858 -1.06274,5.06882 -1.72619,5.16768 -0.31209,0.0465 -0.56743,0.25486 -0.56743,0.46302 0,0.20816 -0.15639,0.37847 -0.34755,0.37847 -0.25913,0 -0.36103,-0.64463 -0.40053,-2.53375 -0.031,-1.48224 -0.19997,-2.82731 -0.40717,-3.24114 -0.1948,-0.38907 -0.5562,-1.52906 -0.8031,-2.53331 -0.24689,-1.00426 -0.61933,-2.06924 -0.82763,-2.36664 -0.33908,-0.48409 -0.36142,-0.35522 -0.21333,1.23061 0.13382,1.43302 0.0935,1.77132 -0.2111,1.77132 -0.27116,0 -0.45984,-0.61108 -0.67432,-2.18398 -0.34314,-2.51642 -1.26755,-4.80645 -2.43211,-6.02505 -0.44595,-0.46665 -0.88003,-1.04294 -0.96463,-1.28065 -0.0846,-0.23771 -0.4942,-0.70026 -0.91024,-1.02788 l -0.75643,-0.59569 0.3638,1.38944 c 0.20853,0.7964 0.5936,1.54436 0.9022,1.75243 0.67049,0.45207 0.69328,0.82763 0.0502,0.82763 -0.75175,0 -1.27513,-0.77995 -1.6423,-2.4474 -0.35138,-1.59575 -0.62019,-1.8963 -0.86359,-0.96557 -0.086,0.32868 -0.2681,0.47992 -0.44577,0.37012 -0.16523,-0.10213 -0.23191,-0.36424 -0.14816,-0.58247 0.22277,-0.58054 -0.91988,-2.45165 -1.76362,-2.88797 -0.72356,-0.37416 -0.72559,-0.37272 -0.42013,0.2977 0.2291,0.5028 0.23073,0.74991 0.006,0.97418 -0.22426,0.22427 -0.37457,0.10499 -0.59253,-0.4702 -0.16062,-0.42388 -0.552,-1.05016 -0.86973,-1.39175 -0.62338,-0.67019 -2.53381,-1.74433 -2.73845,-1.5397 -0.0688,0.0688 0.12132,0.60815 0.42252,1.19854 0.63045,1.23578 0.68236,1.62414 0.21689,1.62255 -0.1819,-6.3e-4 -0.79065,-0.89702 -1.35278,-1.99198 -0.7861,-1.53122 -1.10012,-1.92607 -1.36017,-1.71025 -0.25417,0.21095 -0.54164,0.0236 -1.15797,-0.75455 -0.45092,-0.56934 -1.05924,-1.09776 -1.35181,-1.17427 -0.54269,-0.14192 -0.73703,0.18254 -0.27893,0.46567 0.13917,0.086 0.1868,0.32898 0.10585,0.53993 -0.11756,0.30634 -0.26171,0.32255 -0.71605,0.0805 -0.50686,-0.27002 -0.5306,-0.25666 -0.21783,0.12258 0.3997,0.48462 0.32576,1.55538 -0.11746,1.70113 -0.16257,0.0535 -0.36728,-0.26123 -0.45489,-0.69932 -0.0885,-0.44267 -0.72903,-1.38761 -1.44171,-2.12701 -1.1975,-1.24237 -1.36884,-1.33073 -2.58782,-1.33452 -0.71797,-0.002 -1.47759,-0.11298 -1.68803,-0.24612 -0.23405,-0.14808 -0.56897,-0.14234 -0.86257,0.0148 -0.37363,0.19996 -0.61797,0.10794 -1.10293,-0.41534 -0.34263,-0.36971 -0.75815,-0.6722 -0.92336,-0.6722 -0.16522,0 -0.31853,-0.14883 -0.34069,-0.33073 -0.0222,-0.1819 -0.0589,-0.44979 -0.0817,-0.59531 -0.0228,-0.14552 -0.29043,-0.66357 -0.59485,-1.15121 -0.52509,-0.84116 -0.56285,-0.85712 -0.73608,-0.3113 -0.1261,0.39728 -0.04,0.67963 0.27835,0.91238 0.31906,0.23331 0.368,0.39451 0.15898,0.52369 -0.20952,0.12949 -0.14258,0.35772 0.21861,0.74541 0.3354,0.36002 0.46799,0.76831 0.37274,1.14781 -0.0813,0.32397 -0.0243,0.66536 0.12663,0.75866 0.15096,0.0933 0.2074,0.34441 0.12542,0.55803 -0.0953,0.24838 0.0144,0.3884 0.30445,0.3884 0.2944,0 0.40006,0.13923 0.30119,0.39688 -0.0957,0.24938 0.003,0.39687 0.26496,0.39687 0.31016,0 0.3757,0.16562 0.25531,0.64525 -0.0891,0.35488 -0.0376,0.72209 0.11437,0.81601 0.15198,0.0939 0.19871,0.41529 0.10386,0.71414 -0.22542,0.71024 -0.31896,2.58651 -0.12908,2.58917 0.0812,0.001 0.27738,0.2819 0.43585,0.62393 0.24972,0.53898 0.17039,0.75417 -0.59531,1.61465 -0.48589,0.54603 -0.87995,1.06893 -0.87569,1.162 0.004,0.0931 0.37248,-0.23194 0.81826,-0.72226 0.74027,-0.81425 0.8653,-0.86216 1.44306,-0.55295 1.11319,0.59576 1.10179,1.31771 -0.0363,2.30154 l -1.0138,0.87636 1.0225,0.84283 c 0.56237,0.46355 1.38944,1.25382 1.83793,1.75614 0.44849,0.50233 1.26368,1.3999 1.81153,1.99461 0.54786,0.59471 1.06987,1.37895 1.16002,1.74275 0.0901,0.3638 0.32049,0.84277 0.51186,1.06438 0.21914,0.25375 0.26202,0.54197 0.11582,0.77852 -0.15499,0.25078 -0.0846,0.48777 0.21183,0.71314 0.28979,0.22034 0.32699,0.34047 0.10712,0.34596 -0.25904,0.006 -0.24793,0.14589 0.0481,0.60373 0.57157,0.88399 1.5037,3.37344 1.26312,3.37344 -0.11469,0 -0.13567,0.66185 -0.0466,1.47079 0.0965,0.87695 0.055,1.53683 -0.10273,1.63435 -0.14555,0.09 -0.31099,0.0245 -0.36765,-0.14552 -0.20846,-0.62538 -0.87744,0.42775 -0.70589,1.11124 0.27074,1.0787 -0.0739,1.72375 -0.88846,1.66308 -0.67455,-0.0502 -0.7395,-0.17513 -1.14519,-2.20196 -0.46153,-2.30583 -1.50564,-4.53199 -2.3824,-5.07953 -0.47799,-0.29852 -0.52347,-0.28199 -0.39011,0.1418 0.98645,3.1349 0.91449,9.18192 -0.12204,10.25459 -0.27342,0.28296 -0.57379,0.43781 -0.66748,0.34411 -0.0937,-0.0937 -0.20246,-1.42896 -0.24169,-2.96725 -0.0795,-3.11673 -0.79474,-5.61168 -1.84574,-6.4384 -0.32149,-0.25288 -0.79578,-1.11215 -1.05398,-1.90948 -0.2582,-0.79734 -0.63889,-1.62829 -0.84598,-1.84657 -0.31013,-0.3269 -0.30464,-0.19273 0.0312,0.76086 0.4808,1.36532 0.52712,3.14009 0.10917,4.18285 -0.1642,0.40965 -0.27522,1.84616 -0.24671,3.19222 0.0347,1.63756 -0.0447,2.4474 -0.23975,2.4474 -0.19789,0 -0.23369,0.43626 -0.11144,1.35787 0.14581,1.09911 0.10973,1.33445 -0.18932,1.23495 -0.2032,-0.0676 -0.42901,-0.41077 -0.50181,-0.76257 -0.0728,-0.35179 -0.33048,-1.00093 -0.57263,-1.44252 -0.24215,-0.44159 -0.52326,-1.24526 -0.62469,-1.78594 -0.10143,-0.54067 -0.28151,-0.98304 -0.40018,-0.98304 -0.31875,0 -1.04827,-1.57616 -1.04827,-2.26484 0,-0.44825 -0.12057,-0.56451 -0.48626,-0.46888 -0.39669,0.10374 -0.5906,-0.18109 -1.05261,-1.54612 l -0.56634,-1.67329 0.15797,2.91042 c 0.16377,3.01707 0.19919,3.1749 0.71252,3.17515 0.39512,2e-4 0.33366,13.42983 -0.0796,17.39601 -0.53997,5.18202 -1.14042,8.2049 -1.65658,8.33988 -0.57593,0.15061 -0.59005,0.52995 -0.0593,1.59381 0.42378,0.84948 0.63453,0.96485 2.30265,1.26049 0.5457,0.0967 0.99218,0.28166 0.99218,0.41098 0,0.31873 -1.3887,0.29762 -2.26193,-0.0344 -0.60362,-0.2295 -0.68476,-0.20664 -0.54639,0.15393 0.0894,0.2329 0.16249,0.53697 0.16249,0.6757 0,0.15249 0.2024,0.14394 0.51177,-0.0216 0.63442,-0.33953 1.6049,-0.35787 1.6049,-0.0303 0,0.13396 -0.35926,0.32247 -0.79835,0.41891 -0.49097,0.10784 -0.93643,0.447 -1.15699,0.88092 -0.37186,0.73156 -0.40617,3.13807 -0.0529,3.70968 0.47783,0.77315 -1.02837,1.27616 -2.00813,0.67064 -0.11934,-0.0738 -0.21962,0.0217 -0.22286,0.21224 -0.003,0.19196 -0.21215,0.0783 -0.46862,-0.25489 l -0.46274,-0.60123 -0.47125,0.79776 c -0.25919,0.43877 -0.73292,0.93507 -1.05273,1.10288 -0.31982,0.16781 -0.6767,0.46633 -0.79307,0.66337 -0.28117,0.47606 -0.69422,0.45426 -0.88649,-0.0468 z M 132.01772,262.035 c -0.34934,-1.29738 -1.94816,-4.64253 -2.52192,-5.27652 -0.20852,-0.23042 -0.37913,-0.60617 -0.37913,-0.835 0,-0.22883 -0.42217,-0.66513 -0.93815,-0.96957 l -0.93815,-0.55352 0.60808,0.85811 c 1.55037,2.18785 2.34976,3.79397 2.41782,4.85784 0.0372,0.58211 0.39141,1.33237 0.97578,2.06703 0.50453,0.63429 0.95491,1.11835 1.00086,1.07569 0.0459,-0.0427 -0.0554,-0.59349 -0.22519,-1.22406 z m -17.83793,-5.96818 c -0.21898,-0.94379 -0.30267,-1.06191 -0.41506,-0.58579 -0.27102,1.14803 -0.78765,0.88521 -0.78765,-0.40068 0,-0.66697 -0.0893,-1.21182 -0.19844,-1.21077 -0.10914,10e-4 -0.51373,0.49528 -0.8991,1.09831 -0.68424,1.0707 -0.68917,1.10874 -0.2104,1.62265 0.4362,0.4682 0.58007,0.48904 1.30447,0.18899 0.96327,-0.399 1.30139,-0.18125 0.84738,0.54573 -0.29385,0.47053 -0.27846,0.49299 0.15319,0.22342 0.41992,-0.26225 0.44561,-0.4474 0.20561,-1.48186 z m -4.22328,-4.37034 c 0.42439,-0.62484 1.04581,-1.43373 1.38093,-1.79753 0.40488,-0.43953 0.57069,-0.88339 0.49417,-1.32291 -0.26708,-1.53429 -1.08585,-4.37234 -1.28491,-4.45382 -0.1185,-0.0485 -0.21545,-0.31385 -0.21545,-0.58964 0,-0.42408 -0.0919,-0.45956 -0.59531,-0.22996 -0.57779,0.2635 -0.59691,0.39634 -0.64951,4.51076 -0.0298,2.3316 -0.13186,4.48397 -0.22678,4.78305 -0.25002,0.78774 0.20306,0.41599 1.09686,-0.89995 z M 123.825,241.13531 c 0,-0.46063 -0.47072,-0.2197 -0.60979,0.3121 -0.11679,0.44661 -0.0748,0.48827 0.23373,0.23218 0.20683,-0.17165 0.37606,-0.41658 0.37606,-0.54428 z m -0.79376,-1.37229 c 1e-5,-0.2678 -0.48303,-1.4e-4 -1.25676,0.69641 -0.95425,0.85906 -0.68559,1.06744 0.33072,0.25653 0.50932,-0.40639 0.92604,-0.83521 0.92604,-0.95294 z m -50.138534,-5.91794 c 2.627587,-1.85473 2.98394,-2.19302 1.455208,-1.38144 -1.582624,0.84018 -3.679841,2.37769 -4.497917,3.2975 l -0.661458,0.74372 0.79375,-0.58285 c 0.436563,-0.32056 1.74625,-1.25518 2.910417,-2.07693 z m 5.087717,-2.62681 c -0.08792,-0.0879 -0.316122,-0.0973 -0.507118,-0.0209 -0.211067,0.0845 -0.148372,0.14715 0.159852,0.15985 0.278915,0.0115 0.435185,-0.051 0.347266,-0.13896 z m 31.976107,-3.61043 c -0.0989,-0.61847 -0.28781,-3.98198 -0.41981,-7.47448 -0.132,-3.4925 -0.47131,-8.19547 -0.75404,-10.45104 -0.28273,-2.25558 -0.45965,-4.19034 -0.39317,-4.29948 0.0665,-0.10914 0.0246,-0.19889 -0.0932,-0.19943 -0.11773,-5.5e-4 -0.42488,-0.51378 -0.68256,-1.14052 -0.30125,-0.73274 -1.37864,-2.04819 -3.01802,-3.68491 l -2.54951,-2.54538 -0.83317,1.37079 c -1.642285,2.70205 -1.782403,3.03544 -2.800084,6.66247 -0.979082,3.48946 -1.363066,7.97878 -1.060067,12.39372 0.185709,2.70594 0.267994,3.046 0.902784,3.73095 0.384148,0.4145 0.698452,0.84469 0.698452,0.95598 0,0.1113 0.51384,0.4511 1.141865,0.75512 0.83328,0.40338 1.65558,0.55277 3.04271,0.55277 1.4843,0 1.90084,0.0841 1.90084,0.38373 0,0.21105 -0.18443,0.48694 -0.40984,0.61308 -0.31955,0.17883 -0.20297,0.29285 0.52917,0.51755 l 0.939,0.28819 v -1.13755 c 0,-0.74118 0.13155,-1.18803 0.37754,-1.28242 0.43971,-0.16874 0.68384,0.0967 1.41949,1.54346 0.29598,0.58208 0.79271,1.32777 1.10385,1.65707 0.31114,0.32931 0.48955,0.72196 0.39647,0.87257 -0.22823,0.36928 0.0516,1.04224 0.43335,1.04224 0.21385,0 0.25287,-0.34305 0.12792,-1.12448 z m -2.99097,0.32013 c -0.12021,-0.45968 -1.28681,-1.31232 -1.79555,-1.31232 -0.31889,0 0.64107,1.13151 1.2402,1.46182 0.33756,0.18611 0.63237,0.35005 0.65512,0.36432 0.0228,0.0143 -0.0221,-0.21695 -0.0998,-0.51382 z m -59.605146,-1.1637 c 0,-0.0638 -0.357188,-0.50703 -0.79375,-0.98501 -0.436563,-0.47797 -0.79375,-0.75973 -0.79375,-0.62612 0,0.13361 0.319931,0.57687 0.710959,0.98501 0.698884,0.72948 0.876541,0.85638 0.876541,0.62612 z m 55.781066,-0.64292 c -0.33849,-0.41739 -0.66552,-0.71457 -0.72673,-0.66042 -0.112,0.0991 1.03758,1.4193 1.23587,1.4193 0.0585,0 -0.17065,-0.34149 -0.50914,-0.75888 z m 7.47551,-4.53008 c 0.001,-1.6376 -0.0622,-3.04235 -0.14152,-3.12168 -0.0793,-0.0793 -0.14422,1.32422 -0.14422,3.11898 0,1.79475 0.0637,3.19951 0.14151,3.12168 0.0778,-0.0778 0.14274,-1.48137 0.14423,-3.11898 z m 10.66801,-5.9294 c -0.0992,-0.96798 -0.23754,-1.70274 -0.30747,-1.63281 -0.0699,0.0699 -0.0427,0.91583 0.0605,1.87975 0.10323,0.96393 0.24159,1.69869 0.30748,1.63281 0.0659,-0.0659 0.0386,-0.91177 -0.0605,-1.87975 z m -1.23583,-12.13115 c -0.37963,-1.12888 -0.67615,-0.85741 -0.4335,0.39688 0.11964,0.61846 0.23459,1.24354 0.25543,1.38906 0.0208,0.14552 0.12449,-0.0331 0.23032,-0.39687 0.10584,-0.36381 0.0823,-0.98888 -0.0523,-1.38907 z m -19.6398,-4.16718 c 0.0899,-0.14553 0.0374,-0.26459 -0.11667,-0.26459 -0.15411,0 -0.2802,0.11906 -0.2802,0.26459 0,0.14552 0.0525,0.26458 0.11667,0.26458 0.0642,0 0.19027,-0.11906 0.2802,-0.26458 z m 0.79777,-1.33069 c 0.43702,-0.84511 0.29465,-1.58736 -0.20805,-1.08466 -0.24615,0.24615 -0.49777,1.88618 -0.28939,1.88618 0.0456,0 0.26948,-0.36069 0.49744,-0.80152 z m 16.00327,-0.9432 c 0,-0.5433 -0.80506,-1.7191 -1.06645,-1.55755 -0.11815,0.073 -0.0166,0.59689 0.22565,1.16415 0.4266,0.99894 0.8408,1.19274 0.8408,0.3934 z m -2.98766,-5.86163 c -0.63904,-1.37929 -2.79826,-4.82907 -3.02252,-4.82907 -0.07,0 0.12685,0.38696 0.43735,0.8599 0.3105,0.47294 1.12586,1.89118 1.81192,3.15165 1.36749,2.51243 1.74192,2.9083 0.77325,0.81752 z m -9.70671,-14.73404 c -0.31786,-0.95518 -0.6198,-1.73669 -0.67096,-1.73669 -0.0512,0 -0.0843,0.38695 -0.0737,0.85989 0.0176,0.78299 0.99338,2.94271 1.22494,2.71115 0.0537,-0.0537 -0.16241,-0.87917 -0.48027,-1.83435 z m -1.83395,-3.54439 c -0.1427,-0.26663 -0.44727,-0.64066 -0.67683,-0.83118 -0.35965,-0.29848 -0.39313,-0.27718 -0.24206,0.15406 0.15362,0.43848 0.83059,1.1619 1.0873,1.1619 0.0501,0 -0.0257,-0.21815 -0.16841,-0.48478 z m -2.14043,-1.3673 c 0.34203,-0.22104 0.33504,-0.25704 -0.0505,-0.26054 -0.24607,-0.002 -0.520987,0.11501 -0.610924,0.26054 -0.206952,0.33485 0.143304,0.33485 0.661454,0 z m -1.587495,-0.54479 c 0,-0.13693 -0.320413,-0.24896 -0.712029,-0.24896 -0.677867,0 -0.687527,0.0179 -0.201355,0.37341 0.51924,0.37968 0.913384,0.32598 0.913384,-0.12445 z m -1.659158,-0.40882 c -0.08792,-0.0879 -0.316122,-0.0973 -0.507119,-0.0209 -0.211066,0.0845 -0.148372,0.14716 0.159853,0.15986 0.278915,0.0115 0.435184,-0.0511 0.347266,-0.13897 z m -4.080846,-2.25816 c -0.390336,-0.39033 -0.716429,-0.50364 -1.050984,-0.36517 -0.423538,0.17529 -0.384388,0.24555 0.308696,0.55399 1.152927,0.51309 1.385129,0.45402 0.742288,-0.18882 z m -7.358745,-1.01854 c 0.09269,-0.14998 -0.01351,-0.19434 -0.248968,-0.10398 -0.458369,0.17589 -0.542234,0.36554 -0.161649,0.36554 0.136933,0 0.321711,-0.1177 0.410617,-0.26156 z m -1.585627,-1.06136 c -0.08994,-0.14552 -0.461177,-0.26458 -0.82498,-0.26458 -0.373597,0 -0.590295,0.11514 -0.497936,0.26458 0.08994,0.14552 0.461177,0.26458 0.824979,0.26458 0.373598,0 0.590296,-0.11514 0.497937,-0.26458 z m -2.585199,-0.42444 c -0.08792,-0.0879 -0.316122,-0.0973 -0.507118,-0.0209 -0.211067,0.0845 -0.148373,0.14716 0.159852,0.15986 0.278915,0.0115 0.435184,-0.051 0.347266,-0.13897 z m 2.122178,-0.81628 c -0.254661,-0.0666 -0.67138,-0.0666 -0.926041,0 -0.254662,0.0665 -0.0463,0.121 0.463021,0.121 0.509323,0 0.717682,-0.0545 0.46302,-0.121 z m -3.108854,-0.44668 c 0,-0.0549 -0.208359,-0.2633 -0.463021,-0.46302 -0.419643,-0.3291 -0.429002,-0.31975 -0.09989,0.0999 0.345643,0.44073 0.562915,0.58089 0.562915,0.36312 z m 1.515842,-0.32454 c -0.08792,-0.0879 -0.316122,-0.0973 -0.507118,-0.0209 -0.211067,0.0845 -0.148372,0.14716 0.159853,0.15986 0.278915,0.0115 0.435184,-0.0511 0.347265,-0.13897 z m -6.879167,-1.85208 c -0.08792,-0.0879 -0.316121,-0.0973 -0.507118,-0.0209 -0.211066,0.0845 -0.148372,0.14716 0.159853,0.15985 0.278915,0.0115 0.435184,-0.051 0.347265,-0.13896 z m -9.346462,-3.49929 c -0.03351,-0.048 -0.577285,0.19013 -1.208384,0.52917 -0.6311,0.33903 -1.172497,0.62163 -1.203106,0.62798 -0.03061,0.006 0.0096,0.26102 0.08932,0.56592 0.13406,0.51265 0.229182,0.47196 1.264036,-0.54072 0.615487,-0.60229 1.091648,-1.13435 1.058136,-1.18235 z m 7.632183,2.161 c -0.181901,-0.0734 -0.479557,-0.0734 -0.661458,0 -0.181901,0.0734 -0.03307,0.13345 0.330729,0.13345 0.363802,0 0.51263,-0.06 0.330729,-0.13345 z m -2.349428,-1.71258 c 1.543026,-0.85089 1.308898,-1.00203 -0.410509,-0.26501 -1.142687,0.48981 -2.444009,1.588 -1.412852,1.19231 0.256366,-0.0984 1.076879,-0.51566 1.823361,-0.9273 z"
       id="path1"
       />
    </g>
</svg>
