<?xml version="1.0" encoding="UTF-8" standalone="no"?>
<!-- Created with Inkscape (http://www.inkscape.org/) -->

<svg
   width="113.92762mm"
   height="32.066273mm"
   viewBox="0 0 113.92762 32.066272"
   version="1.1"
   id="svg5"
   inkscape:version="1.2.2 (b0a8486541, 2022-12-01)"
   sodipodi:docname="wawwod_ft.svg"
   xmlns:inkscape="http://www.inkscape.org/namespaces/inkscape"
   xmlns:sodipodi="http://sodipodi.sourceforge.net/DTD/sodipodi-0.dtd"
   xmlns:xlink="http://www.w3.org/1999/xlink"
   xmlns="http://www.w3.org/2000/svg"
   xmlns:svg="http://www.w3.org/2000/svg">
  <sodipodi:namedview
     id="namedview7"
     pagecolor="#ffffff"
     bordercolor="#666666"
     borderopacity="1.0"
     inkscape:showpageshadow="2"
     inkscape:pageopacity="0.0"
     inkscape:pagecheckerboard="0"
     inkscape:deskcolor="#d1d1d1"
     inkscape:document-units="mm"
     showgrid="false"
     inkscape:zoom="1.7870511"
     inkscape:cx="127.3047"
     inkscape:cy="116.39287"
     inkscape:window-width="2560"
     inkscape:window-height="1374"
     inkscape:window-x="0"
     inkscape:window-y="0"
     inkscape:window-maximized="1"
     inkscape:current-layer="svg5" />
  <defs
     id="defs2">
    <linearGradient
       inkscape:collect="always"
       id="linearGradient2088">
      <stop
         style="stop-color:#c17e22;stop-opacity:1;"
         offset="0"
         id="stop2084" />
      <stop
         style="stop-color:#e2092c;stop-opacity:0;"
         offset="0.82426137"
         id="stop2086" />
    </linearGradient>
    <linearGradient
       inkscape:collect="always"
       id="linearGradient1344">
      <stop
         style="stop-color:#c10000;stop-opacity:1;"
         offset="0"
         id="stop1340" />
      <stop
         style="stop-color:#916707;stop-opacity:0;"
         offset="1"
         id="stop1342" />
    </linearGradient>
    <linearGradient
       inkscape:collect="always"
       xlink:href="#linearGradient2088"
       id="linearGradient1348"
       x1="52.352016"
       y1="50.33168"
       x2="99.385887"
       y2="50.33168"
       gradientUnits="userSpaceOnUse" />
    <linearGradient
       inkscape:collect="always"
       xlink:href="#linearGradient1344"
       id="linearGradient1350"
       gradientUnits="userSpaceOnUse"
       x1="52.352016"
       y1="50.33168"
       x2="99.385887"
       y2="50.33168" />
    <linearGradient
       inkscape:collect="always"
       xlink:href="#linearGradient1344"
       id="linearGradient1352"
       gradientUnits="userSpaceOnUse"
       x1="52.352016"
       y1="50.33168"
       x2="99.385887"
       y2="50.33168" />
    <linearGradient
       inkscape:collect="always"
       xlink:href="#linearGradient1344"
       id="linearGradient1354"
       gradientUnits="userSpaceOnUse"
       x1="52.352016"
       y1="50.33168"
       x2="99.385887"
       y2="50.33168" />
    <linearGradient
       inkscape:collect="always"
       xlink:href="#linearGradient1344"
       id="linearGradient1356"
       gradientUnits="userSpaceOnUse"
       x1="52.352016"
       y1="50.33168"
       x2="99.385887"
       y2="50.33168" />
  </defs>
  <g
     inkscape:label="Layer 1"
     inkscape:groupmode="layer"
     id="layer1"
     transform="translate(-41.049312,-38.664793)">
    <g
       id="g723"
       style="fill:url(#linearGradient1348);fill-opacity:1;stroke:none;stroke-width:0.876784"
       transform="matrix(1.4281002,0.30591206,-0.18655622,0.87090704,-0.8595685,-15.247097)">
      <path
         style="opacity:0.747;fill:url(#linearGradient1350);fill-opacity:1;fill-rule:evenodd;stroke:none;stroke-width:0.0876784;stroke-linecap:round;stroke-linejoin:bevel;stroke-opacity:0.758369;paint-order:stroke markers fill"
         id="path636"
         d="m 96.912402,27.862006 c -2.892845,1.654442 -5.82241,3.267718 -8.569377,5.162603 -2.096665,1.446297 -2.67235,1.954844 -4.73628,3.577926 -12.742361,10.14963 -28.855351,27.996638 -30.479851,30.596326 -0.09302,0.141155 -1.14134,1.324523 -0.539547,1.55258 6.325657,-8.275131 6.231047,-6.74526 13.380736,-11.945709 1.703411,-1.728001 12.583667,-12.549211 14.361199,-14.229427 1.868596,-1.51121 6.680184,-7.482009 13.199319,-12.073239 3.349387,-2.325773 -2.983589,2.452252 3.383801,-2.64106 z"
         sodipodi:nodetypes="csccccccc" />
      <path
         style="opacity:0.747;fill:url(#linearGradient1352);fill-opacity:1;fill-rule:evenodd;stroke:none;stroke-width:0.0876784;stroke-linecap:round;stroke-linejoin:bevel;stroke-opacity:0.758369;paint-order:stroke markers fill"
         id="path636-5"
         d="m 99.352952,29.484552 c -2.435509,1.524417 -4.901941,3.010903 -7.214637,4.756864 -1.765202,1.33263 -2.249877,1.801209 -3.987518,3.29673 -10.727913,9.351951 -24.293589,25.796327 -25.661271,28.191701 -0.07831,0.130061 -0.960904,1.220426 -0.454249,1.43056 C 67.360906,59.535634 67.281253,60.94527 73.300643,56.153534 74.73476,54.56134 83.894949,44.59059 85.39147,43.042426 c 1.573188,-1.392441 5.624109,-6.893984 11.11263,-11.12438 2.819882,-2.142986 -2.511913,2.259525 2.848852,-2.433494 z"
         sodipodi:nodetypes="csccccccc" />
      <path
         style="opacity:0.747;fill:url(#linearGradient1354);fill-opacity:1;fill-rule:evenodd;stroke:none;stroke-width:0.0876784;stroke-linecap:round;stroke-linejoin:bevel;stroke-opacity:0.758369;paint-order:stroke markers fill"
         id="path636-5-0"
         d="m 97.906572,33.306671 c -2.04593,1.468188 -4.117837,2.899843 -6.060594,4.581402 -1.48285,1.283475 -1.889994,1.73477 -3.349684,3.175127 -9.011899,9.006995 -20.407636,24.844803 -21.556546,27.151822 -0.06578,0.125263 -0.807199,1.175409 -0.381588,1.377792 4.473752,-7.343526 4.40684,-5.985885 9.46338,-10.600873 1.204718,-1.533465 8.899662,-11.136433 10.156801,-12.627492 1.321546,-1.341079 4.724488,-6.639692 9.335078,-10.714046 2.368817,-2.063939 -2.110112,2.17618 2.393153,-2.343732 z"
         sodipodi:nodetypes="csccccccc" />
      <path
         style="opacity:0.747;fill:url(#linearGradient1356);fill-opacity:1;fill-rule:evenodd;stroke:none;stroke-width:0.0876784;stroke-linecap:round;stroke-linejoin:bevel;stroke-opacity:0.758369;paint-order:stroke markers fill"
         id="path636-5-0-9"
         d="m 97.875164,36.081711 c -1.571729,1.485769 -3.163409,2.934569 -4.655881,4.636265 -1.139157,1.298844 -1.451932,1.755543 -2.573298,3.213148 -6.923144,9.114855 -15.677604,25.142323 -16.560222,27.476968 -0.05053,0.126764 -0.620107,1.189485 -0.293144,1.394292 3.436836,-7.431466 3.385433,-6.057567 7.269979,-10.72782 0.925491,-1.551829 6.836916,-11.269793 7.802679,-12.778707 1.015244,-1.35714 3.629457,-6.719203 7.171416,-10.842349 1.819779,-2.088653 -1.621034,2.202241 1.838471,-2.371797 z"
         sodipodi:nodetypes="csccccccc" />
    </g>
  </g>
  <g
     aria-label="Fatum Tenebris"
     id="text236"
     style="font-size:11.2889px;line-height:1.25;font-family:'Planet Kosmos';-inkscape-font-specification:'Planet Kosmos, Normal';font-variant-caps:small-caps;fill:#dad8d5;fill-opacity:0.900425;stroke-width:0.264583">
    <path
       d="m 9.742321,7.1440951 q 0.1919114,0 0.417689,-0.079022 0.293512,-0.1016001 0.293512,-0.2709336 0,-0.1919113 -0.406401,-0.1919113 H 6.2540508 q -0.225778,0 -0.4741338,0.1580446 Q 5.5315612,6.9183171 5.4073833,7.1440951 L 0.16933353,16.209082 Q 2.3841858e-8,16.502593 2.3841858e-8,16.818683 q 0,0.180622 0.06773340615814,0.282222 l 1.49013487,2.551292 q 0.067733,0.1016 0.1693335,0.1016 0.1919113,0 0.3612448,-0.293512 L 7.6312967,9.8534312 Q 7.7554746,9.6276532 8.0038304,9.4696086 8.2634751,9.3115639 8.4892531,9.3115639 v 0 q 0.1919113,0 0.4176893,-0.079022 0.2935114,-0.1016001 0.2935114,-0.2709336 0,-0.1919113 -0.4064004,-0.1919113 v 0 q -0.3048003,0 -0.3048003,-0.2709336 0,-0.1241779 0.079022,-0.2709336 L 8.8843646,7.6859623 Q 9.0085425,7.4601843 9.2568983,7.3021397 9.516543,7.1440951 9.742321,7.1440951 Z"
       id="path5062" />
    <path
       d="m 8.7940472,9.8534312 q -0.225778,0 -0.4854227,0.1580448 -0.2483558,0.158044 -0.3725337,0.383822 l -0.6321785,1.083735 q -0.079022,0.146756 -0.079022,0.270933 0,0.270934 0.3160893,0.270934 h 2.7093357 q 0.214489,0 0.462845,-0.158045 0.259645,-0.158044 0.383823,-0.383822 l 0.316089,-0.541867 q 0.135467,-0.225778 0.383823,-0.383823 0.248356,-0.158045 0.474134,-0.158045 v 0 q 0.3048,0 0.3048,0.270934 0,0.124178 -0.07902,0.270934 l -0.62089,1.083734 q -0.135467,0.225778 -0.383823,0.383823 -0.248355,0.158044 -0.474133,0.158044 v 0 H 7.22489 q -0.225778,0 -0.4741338,0.158045 -0.2483558,0.158044 -0.3838226,0.383822 l -1.2530679,2.167469 q -0.079022,0.146756 -0.079022,0.270934 0,0.270934 0.3160892,0.270934 h 7.5861414 q 0.214489,0 0.462845,-0.158045 0.259644,-0.158045 0.383822,-0.383823 l 2.822225,-4.876805 q 0.07902,-0.146755 0.07902,-0.270933 0,-0.2709338 -0.304801,-0.2709338 z M 10.30676,14.730236 q -0.124178,0.225778 -0.3838228,0.383823 -0.2483558,0.158044 -0.4741338,0.158044 v 0 q -0.3048003,0 -0.3048003,-0.270933 0,-0.124178 0.079022,-0.270934 l 0.6321784,-1.083734 q 0.1241779,-0.225778 0.3725342,-0.383823 0.248355,-0.158045 0.474133,-0.158045 v 0 q 0.31609,0 0.31609,0.270934 0,0.124178 -0.07902,0.270934 z"
       id="path5064" />
    <path
       d="M 21.245713,9.8534312 Q 21.38118,9.6276532 21.629536,9.4696086 21.877892,9.3115639 22.10367,9.3115639 v 0 q 0.191911,0 0.428978,-0.079022 0.293511,-0.1016001 0.293511,-0.2709336 0,-0.1919113 -0.4064,-0.1919113 v 0 q -0.316089,0 -0.316089,-0.2709336 0,-0.1241779 0.07902,-0.2709336 L 22.81487,7.1440951 q 0.07902,-0.1467557 0.07902,-0.2709336 0,-0.2709336 -0.304801,-0.2709336 h -2.709336 q -0.225778,0 -0.485423,0.1580446 -0.248355,0.1580446 -0.372533,0.3838226 l -5.23805,9.0762759 q -0.169334,0.282222 -0.169334,0.609601 0,0.169333 0.06773,0.282222 l 1.490135,2.540003 q 0.06773,0.112889 0.169333,0.112889 0.191912,0 0.361245,-0.293512 z"
       id="path5066" />
    <path
       d="m 27.398161,9.8534312 q -0.225778,0 -0.485423,0.1580448 -0.248355,0.158044 -0.372533,0.383822 l -2.506136,4.334938 q -0.124178,0.225778 -0.383823,0.383823 -0.248356,0.158044 -0.474134,0.158044 -0.3048,0 -0.3048,-0.270933 0,-0.124178 0.07902,-0.270934 l 2.506136,-4.334938 q 0.07902,-0.146755 0.07902,-0.270933 0,-0.2709338 -0.3048,-0.2709338 h -2.709336 q -0.225778,0 -0.485423,0.1580448 -0.248355,0.158044 -0.372533,0.383822 l -2.822225,4.876805 q -0.07902,0.146756 -0.07902,0.270934 0,0.270934 0.316089,0.270934 h 7.586142 q 0.214489,0 0.462844,-0.158045 0.259645,-0.158045 0.383823,-0.383823 l 2.822225,-4.876805 q 0.07902,-0.146755 0.07902,-0.270933 0,-0.2709338 -0.3048,-0.2709338 z"
       id="path5068" />
    <path
       d="m 37.253375,16.288104 q -0.135467,0.225778 -0.135467,0.508001 0,0.191911 0.06773,0.316089 l 1.501423,2.540003 q 0.05645,0.112889 0.158045,0.112889 0.191911,0 0.361245,-0.293512 l 5.23805,-9.076276 q 0.07902,-0.146755 0.07902,-0.270933 0,-0.2709338 -0.3048,-0.2709338 H 31.75568 q -0.225778,0 -0.485422,0.1580448 -0.248356,0.158044 -0.372534,0.383822 l -2.822225,4.876805 q -0.07902,0.146756 -0.07902,0.270934 0,0.270934 0.316089,0.270934 h 2.709336 q 0.214489,0 0.462845,-0.158045 0.259645,-0.158045 0.383823,-0.383823 l 2.506135,-4.334937 q 0.135467,-0.225778 0.383823,-0.383823 0.248356,-0.158045 0.474134,-0.158045 v 0 q 0.3048,0 0.3048,0.270934 0,0.124178 -0.07902,0.270934 l -2.506136,4.334937 q -0.07902,0.146756 -0.07902,0.270934 0,0.270934 0.316089,0.270934 h 2.709336 q 0.214489,0 0.462845,-0.158045 0.259645,-0.158045 0.383822,-0.383823 l 2.506136,-4.334937 q 0.135467,-0.225778 0.383823,-0.383823 0.248356,-0.158045 0.474134,-0.158045 v 0 q 0.3048,0 0.3048,0.270934 0,0.124178 -0.07902,0.270934 z"
       id="path5070" />
    <path
       d="m 54.401228,9.8534312 q 0.135467,-0.225778 0.383823,-0.3838226 0.248356,-0.1580447 0.474134,-0.1580447 v 0 q 0.191911,0 0.428978,-0.079022 0.293512,-0.1016001 0.293512,-0.2709336 0,-0.1919113 -0.406401,-0.1919113 v 0 q -0.316089,0 -0.316089,-0.2709336 0,-0.1241779 0.07902,-0.2709336 l 0.632179,-1.0837344 q 0.07902,-0.1467557 0.07902,-0.2709336 0,-0.2709336 -0.3048,-0.2709336 h -2.709336 q -0.225778,0 -0.485423,0.1580446 -0.248356,0.1580446 -0.372534,0.3838226 l -5.23805,9.0762759 q -0.169333,0.282222 -0.169333,0.609601 0,0.169333 0.06773,0.282222 l 1.490135,2.540003 q 0.06773,0.112889 0.169334,0.112889 0.191911,0 0.361244,-0.293512 z"
       id="path5072" />
    <path
       d="m 57.279894,13.104634 h 3.79307 q 0.225778,0 0.474134,-0.158044 0.259645,-0.158045 0.383823,-0.383823 l 1.253068,-2.167469 q 0.07902,-0.146755 0.07902,-0.270933 0,-0.2709338 -0.3048,-0.2709338 h -7.586142 q -0.225778,0 -0.485422,0.1580448 -0.248356,0.158044 -0.372534,0.383822 l -2.822225,4.876805 q -0.07902,0.146756 -0.07902,0.270934 0,0.270934 0.316089,0.270934 h 7.586141 q 0.214489,0 0.462845,-0.158045 0.259645,-0.158045 0.383822,-0.383823 l 0.632179,-1.083734 q 0.07902,-0.146756 0.07902,-0.270934 0,-0.270933 -0.3048,-0.270933 h -2.709336 q -0.225778,0 -0.485423,0.158044 -0.248356,0.158045 -0.372534,0.383823 l -0.316089,0.541867 q -0.124178,0.225778 -0.383822,0.383823 -0.248356,0.158044 -0.474134,0.158044 -0.304801,0 -0.304801,-0.270933 0,-0.124178 0.07902,-0.270934 l 0.632178,-1.083734 q 0.124178,-0.225778 0.372534,-0.383823 0.248356,-0.158045 0.474134,-0.158045 z m 0.7112,-2.167468 q 0.135467,-0.225778 0.383823,-0.383823 0.248356,-0.158045 0.474134,-0.158045 0.3048,0 0.3048,0.270934 0,0.124178 -0.07902,0.270934 l -0.62089,1.083734 q -0.135467,0.225778 -0.383822,0.383823 -0.248356,0.158044 -0.474134,0.158044 -0.316089,0 -0.316089,-0.270933 0,-0.124178 0.09031,-0.270934 z"
       id="path5074" />
    <path
       d="m 64.516084,9.8534312 q -0.225778,0 -0.485423,0.1580448 -0.248356,0.158044 -0.372534,0.383822 l -2.822225,4.876805 q -0.07902,0.146756 -0.07902,0.270934 0,0.270934 0.316089,0.270934 h 2.709336 q 0.214489,0 0.462845,-0.158045 0.259645,-0.158045 0.383823,-0.383823 l 2.506135,-4.334937 q 0.135467,-0.225778 0.383823,-0.383823 0.248356,-0.158045 0.474134,-0.158045 0.3048,0 0.3048,0.270934 0,0.124178 -0.07902,0.270934 l -2.506136,4.334937 q -0.07902,0.146756 -0.07902,0.270934 0,0.270934 0.316089,0.270934 h 2.709336 q 0.214489,0 0.462845,-0.158045 0.259645,-0.158045 0.383822,-0.383823 l 2.822226,-4.876805 q 0.07902,-0.146755 0.07902,-0.270933 0,-0.2709338 -0.3048,-0.2709338 z"
       id="path5076" />
    <path
       d="m 75.680811,13.104634 h 3.79307 q 0.225778,0 0.474134,-0.158044 0.259645,-0.158045 0.383823,-0.383823 l 1.253068,-2.167469 q 0.07902,-0.146755 0.07902,-0.270933 0,-0.2709338 -0.3048,-0.2709338 h -7.586141 q -0.225778,0 -0.485423,0.1580448 -0.248356,0.158044 -0.372534,0.383822 l -2.822225,4.876805 q -0.07902,0.146756 -0.07902,0.270934 0,0.270934 0.316089,0.270934 h 7.586141 q 0.214489,0 0.462845,-0.158045 0.259645,-0.158045 0.383823,-0.383823 l 0.632178,-1.083734 q 0.07902,-0.146756 0.07902,-0.270934 0,-0.270933 -0.3048,-0.270933 h -2.709336 q -0.225778,0 -0.485423,0.158044 -0.248356,0.158045 -0.372534,0.383823 l -0.316089,0.541867 q -0.124178,0.225778 -0.383822,0.383823 -0.248356,0.158044 -0.474134,0.158044 -0.304801,0 -0.304801,-0.270933 0,-0.124178 0.07902,-0.270934 l 0.632178,-1.083734 q 0.124178,-0.225778 0.372534,-0.383823 0.248356,-0.158045 0.474134,-0.158045 z m 0.7112,-2.167468 q 0.135467,-0.225778 0.383823,-0.383823 0.248356,-0.158045 0.474134,-0.158045 0.3048,0 0.3048,0.270934 0,0.124178 -0.07902,0.270934 l -0.62089,1.083734 q -0.135466,0.225778 -0.383822,0.383823 -0.248356,0.158044 -0.474134,0.158044 -0.316089,0 -0.316089,-0.270933 0,-0.124178 0.09031,-0.270934 z"
       id="path5078" />
    <path
       d="m 86.766519,9.8534312 q -0.338667,0 -0.338667,-0.2596447 0,-0.1016001 0.06773,-0.2144891 0.135467,-0.237067 0.135467,-0.5192895 0,-0.1919113 -0.06773,-0.3048003 L 85.061895,6.0039161 Q 84.994162,5.902316 84.892562,5.902316 q -0.180622,0 -0.349956,0.2935114 l -5.249339,9.0762756 q -0.07902,0.146756 -0.07902,0.270934 0,0.270934 0.316089,0.270934 h 7.586141 q 0.214489,0 0.462845,-0.158045 0.259645,-0.158045 0.383823,-0.383823 l 2.822225,-4.876805 q 0.07902,-0.146755 0.07902,-0.270933 0,-0.2709338 -0.3048,-0.2709338 z m -2.280357,4.8768048 q -0.124178,0.225778 -0.383823,0.383823 -0.248356,0.158044 -0.474134,0.158044 -0.3048,0 -0.3048,-0.270933 0,-0.124178 0.07902,-0.270934 l 2.190047,-3.79307 q 0.135467,-0.225778 0.383822,-0.383823 0.248356,-0.158045 0.474134,-0.158045 0.304801,0 0.304801,0.270934 0,0.124178 -0.07902,0.270934 z"
       id="path5080" />
    <path
       d="m 92.399685,9.8534312 q -0.225778,0 -0.485423,0.1580448 -0.248356,0.158044 -0.372534,0.383822 l -2.822225,4.876805 q -0.07902,0.146756 -0.07902,0.270934 0,0.270934 0.316089,0.270934 h 2.709336 q 0.214489,0 0.462845,-0.158045 0.259645,-0.158045 0.383823,-0.383823 l 2.506136,-4.334937 q 0.135466,-0.225778 0.383822,-0.383823 0.248356,-0.158045 0.474134,-0.158045 v 0 q 0.3048,0 0.3048,0.270934 0,0.124178 -0.07902,0.270934 l -0.316089,0.541867 q -0.07902,0.146756 -0.07902,0.270933 0,0.270934 0.316089,0.270934 h 2.709336 q 0.214489,0 0.462845,-0.158045 0.259644,-0.158044 0.383822,-0.383822 l 0.632175,-1.083735 q 0.079,-0.146755 0.079,-0.270933 0,-0.2709338 -0.304804,-0.2709338 z"
       id="path5082" />
    <path
       d="m 100.80992,15.813971 q 0.21449,0 0.46285,-0.158045 0.25964,-0.158045 0.38382,-0.383823 l 2.82223,-4.876805 q 0.079,-0.146755 0.079,-0.270933 0,-0.2709338 -0.3048,-0.2709338 h -2.70934 q -0.22578,0 -0.48542,0.1580448 -0.24836,0.158044 -0.37253,0.383822 l -2.822229,4.876805 q -0.07902,0.146756 -0.07902,0.270934 0,0.270934 0.316089,0.270934 z"
       id="path5084" />
    <path
       d="m 112.36975,12.0209 q 0.21449,0 0.46285,-0.158045 0.25964,-0.158044 0.38382,-0.383822 l 0.63218,-1.083735 q 0.079,-0.146755 0.079,-0.270933 0,-0.2709338 -0.3048,-0.2709338 h -7.58614 q -0.22578,0 -0.48542,0.1580448 -0.24836,0.158044 -0.37254,0.383822 l -1.25307,2.167469 q -0.079,0.146756 -0.079,0.270934 0,0.270933 0.3048,0.270933 h 3.79307 q 0.31609,0 0.31609,0.270934 0,0.124178 -0.079,0.270934 l -0.63218,1.083734 q -0.12418,0.225778 -0.38382,0.383823 -0.24836,0.158044 -0.47414,0.158044 -0.3048,0 -0.3048,-0.270933 0,-0.124178 0.079,-0.270934 l 0.31609,-0.541867 q 0.079,-0.146756 0.079,-0.270934 0,-0.270933 -0.3048,-0.270933 h -2.70934 q -0.22578,0 -0.48542,0.158044 -0.24836,0.158045 -0.37253,0.383823 l -0.63218,1.083734 q -0.079,0.146756 -0.079,0.270934 0,0.270934 0.31609,0.270934 h 7.58614 q 0.21449,0 0.46285,-0.158045 0.25964,-0.158045 0.38382,-0.383823 l 1.25307,-2.167469 q 0.0903,-0.146755 0.0903,-0.270933 0,-0.270934 -0.31609,-0.270934 h -3.79307 q -0.31609,0 -0.31609,-0.270933 0,-0.124178 0.0903,-0.270934 l 0.62089,-1.083734 q 0.13547,-0.225778 0.38383,-0.383823 0.24835,-0.158045 0.47413,-0.158045 0.3048,0 0.3048,0.270934 0,0.124178 -0.079,0.270934 l -0.31609,0.541867 q -0.079,0.146756 -0.079,0.270933 0,0.270934 0.31609,0.270934 z"
       id="path5086" />
  </g>
  <g
     aria-label="World of Darkness - 2048 AD"
     id="text300"
     style="font-weight:600;font-size:8.46667px;line-height:1.25;font-family:Montserrat;-inkscape-font-specification:'Montserrat, Semi-Bold';font-variant-caps:small-caps;fill:#dad8d5;stroke-width:0.264583">
    <path
       d="M 60.70755,18.671294 60.083133,16.783932 H 59.6598 l -0.638528,1.876779 -0.613834,-1.876779 h -0.47625 l 0.818445,2.469446 h 0.490361 l 0.620889,-1.82739 0.610306,1.82739 h 0.486834 l 0.818445,-2.469446 h -0.437445 z"
       style="font-size:3.52778px"
       id="path5089" />
    <path
       d="m 62.982969,19.288656 c 0.642056,0 1.114778,-0.444501 1.114778,-1.044223 0,-0.599723 -0.472722,-1.040695 -1.114778,-1.040695 -0.638528,0 -1.111251,0.440972 -1.111251,1.040695 0,0.599722 0.472723,1.044223 1.111251,1.044223 z m 0,-0.377473 c -0.381,0 -0.663223,-0.278694 -0.663223,-0.66675 0,-0.384528 0.282223,-0.663223 0.663223,-0.663223 0.384528,0 0.663223,0.278695 0.663223,0.663223 0,0.388056 -0.278695,0.66675 -0.663223,0.66675 z"
       style="font-size:3.52778px"
       id="path5091" />
    <path
       d="m 65.872218,18.600739 c 0.268111,-0.112889 0.423333,-0.33514 0.423333,-0.638529 0,-0.458611 -0.342194,-0.726722 -0.881945,-0.726722 h -0.871361 v 2.01789 h 0.4445 v -0.5715 h 0.426861 0.03528 l 0.405695,0.5715 h 0.479778 z m -0.0247,-0.638529 c 0,0.236362 -0.15875,0.370417 -0.465667,0.370417 h -0.395111 v -0.737306 h 0.395111 c 0.306917,0 0.465667,0.130528 0.465667,0.366889 z"
       style="font-size:3.52778px"
       id="path5093" />
    <path
       d="m 68.271106,19.253378 v -0.359834 h -1.037168 v -1.658056 h -0.4445 v 2.01789 z"
       style="font-size:3.52778px"
       id="path5095" />
    <path
       d="m 69.519937,19.253378 c 0.684389,0 1.12889,-0.391584 1.12889,-1.008945 0,-0.617362 -0.444501,-1.008945 -1.12889,-1.008945 h -0.913695 v 2.01789 z m -0.469195,-1.654529 h 0.455084 c 0.430389,0 0.694972,0.236361 0.694972,0.645584 0,0.409222 -0.264583,0.649111 -0.694972,0.649111 h -0.455084 z"
       style="font-size:3.52778px"
       id="path5097" />
    <path
       d="m 73.015961,19.288656 c 0.642056,0 1.114779,-0.444501 1.114779,-1.044223 0,-0.599723 -0.472723,-1.040695 -1.114779,-1.040695 -0.638528,0 -1.11125,0.440972 -1.11125,1.040695 0,0.599722 0.472722,1.044223 1.11125,1.044223 z m 0,-0.377473 c -0.381,0 -0.663222,-0.278694 -0.663222,-0.66675 0,-0.384528 0.282222,-0.663223 0.663222,-0.663223 0.384528,0 0.663223,0.278695 0.663223,0.663223 0,0.388056 -0.278695,0.66675 -0.663223,0.66675 z"
       style="font-size:3.52778px"
       id="path5099" />
    <path
       d="m 76.102766,17.235488 h -1.527529 v 2.01789 h 0.4445 v -0.744362 h 0.963084 v -0.356305 h -0.963084 v -0.55739 h 1.083029 z"
       style="font-size:3.52778px"
       id="path5101" />
    <path
       d="m 78.589848,19.253378 c 0.800806,0 1.347612,-0.493889 1.347612,-1.234723 0,-0.740834 -0.546806,-1.234723 -1.347612,-1.234723 h -1.079501 v 2.469446 z m -0.62089,-2.08139 h 0.599723 c 0.550334,0 0.90664,0.335139 0.90664,0.846667 0,0.511528 -0.356306,0.846667 -0.90664,0.846667 h -0.599723 z"
       style="font-size:3.52778px"
       id="path5103" />
    <path
       d="m 82.311655,19.253378 -0.913695,-2.01789 h -0.440973 l -0.917222,2.01789 h 0.433917 l 0.1905,-0.437445 h 1.019528 l 0.186973,0.437445 z m -1.135945,-1.615723 0.363361,0.839611 h -0.726723 z"
       style="font-size:3.52778px"
       id="path5105" />
    <path
       d="m 83.93091,18.600739 c 0.268111,-0.112889 0.423333,-0.33514 0.423333,-0.638529 0,-0.458611 -0.342194,-0.726722 -0.881945,-0.726722 h -0.871361 v 2.01789 h 0.4445 v -0.5715 h 0.426861 0.03528 l 0.405695,0.5715 h 0.479778 z m -0.02469,-0.638529 c 0,0.236362 -0.15875,0.370417 -0.465667,0.370417 h -0.395111 v -0.737306 h 0.395111 c 0.306917,0 0.465667,0.130528 0.465667,0.366889 z"
       style="font-size:3.52778px"
       id="path5107" />
    <path
       d="m 86.777825,19.253378 -0.903112,-1.111251 0.850195,-0.906639 h -0.493889 l -0.93839,0.963084 v -0.963084 h -0.4445 v 2.01789 h 0.4445 V 18.74185 l 0.282223,-0.292806 0.677333,0.804334 z"
       style="font-size:3.52778px"
       id="path5109" />
    <path
       d="m 88.499378,18.509016 -1.04775,-1.273528 h -0.370417 v 2.01789 h 0.4445 v -1.270001 l 1.047751,1.270001 h 0.366889 v -2.01789 h -0.440973 z"
       style="font-size:3.52778px"
       id="path5111" />
    <path
       d="M 89.998686,18.403183 H 90.96177 V 18.05746 h -0.963084 v -0.462139 h 1.083028 v -0.359833 h -1.527528 v 2.01789 h 1.566334 v -0.356306 h -1.121834 z"
       style="font-size:3.52778px"
       id="path5113" />
    <path
       d="m 92.207075,19.288656 c 0.543278,0 0.864306,-0.250473 0.864306,-0.631473 0,-0.744362 -1.19239,-0.458611 -1.19239,-0.853723 0,-0.134055 0.116417,-0.236361 0.398639,-0.236361 0.186973,0 0.388056,0.03881 0.567973,0.155222 l 0.151694,-0.345722 c -0.186972,-0.119945 -0.455083,-0.172861 -0.705556,-0.172861 -0.525639,0 -0.85725,0.250472 -0.85725,0.624417 0,0.765528 1.195917,0.465667 1.195917,0.867834 0,0.123472 -0.105833,0.225778 -0.402167,0.225778 -0.257528,0 -0.515056,-0.08114 -0.684389,-0.208139 l -0.165806,0.345722 c 0.179917,0.137583 0.511528,0.229306 0.829029,0.229306 z"
       style="font-size:3.52778px"
       id="path5115" />
    <path
       d="m 94.115606,19.288656 c 0.543278,0 0.864306,-0.250473 0.864306,-0.631473 0,-0.744362 -1.19239,-0.458611 -1.19239,-0.853723 0,-0.134055 0.116417,-0.236361 0.398639,-0.236361 0.186973,0 0.388056,0.03881 0.567973,0.155222 l 0.151695,-0.345722 c -0.186973,-0.119945 -0.455084,-0.172861 -0.705556,-0.172861 -0.52564,0 -0.857251,0.250472 -0.857251,0.624417 0,0.765528 1.195917,0.465667 1.195917,0.867834 0,0.123472 -0.105833,0.225778 -0.402166,0.225778 -0.257528,0 -0.515056,-0.08114 -0.68439,-0.208139 l -0.165805,0.345722 c 0.179916,0.137583 0.511528,0.229306 0.829028,0.229306 z"
       style="font-size:3.52778px"
       id="path5117" />
    <path
       d="M 97.227106,18.4561 V 18.08921 H 96.256967 V 18.4561 Z"
       style="font-size:3.52778px"
       id="path5119" />
    <path
       d="m 99.834133,18.237377 c 0.342197,-0.321028 0.409227,-0.53975 0.409227,-0.779639 0,-0.437445 -0.345727,-0.709084 -0.88195,-0.709084 -0.405695,0 -0.747889,0.151695 -0.938389,0.409223 l 0.321028,0.246944 c 0.137583,-0.176389 0.338666,-0.257528 0.578555,-0.257528 0.30339,0 0.458612,0.130528 0.458612,0.356306 0,0.137583 -0.04233,0.282222 -0.282223,0.511528 l -0.980722,0.931334 v 0.306917 h 1.820339 v -0.388056 h -1.164172 z"
       style="font-size:3.52778px"
       id="path5121" />
    <path
       d="m 101.6333,19.288656 c 0.58914,0 1.03364,-0.458612 1.03364,-1.270001 0,-0.81139 -0.4445,-1.270001 -1.03364,-1.270001 -0.58561,0 -1.03011,0.458611 -1.03011,1.270001 0,0.811389 0.4445,1.270001 1.03011,1.270001 z m 0,-0.398639 c -0.33514,0 -0.56797,-0.275167 -0.56797,-0.871362 0,-0.596195 0.23283,-0.871362 0.56797,-0.871362 0.33867,0 0.5715,0.275167 0.5715,0.871362 0,0.596195 -0.23283,0.871362 -0.5715,0.871362 z"
       style="font-size:3.52778px"
       id="path5123" />
    <path
       d="m 104.74128,18.304405 v -0.497417 h -0.43039 v 0.497417 h -0.80786 l 1.14653,-1.520473 h -0.49036 l -1.21709,1.591029 v 0.3175 h 1.35467 v 0.560917 h 0.4445 v -0.560917 h 0.43744 v -0.388056 z"
       style="font-size:3.52778px"
       id="path5125" />
    <path
       d="m 107.00965,17.955155 c 0.20108,-0.109361 0.31397,-0.28575 0.31397,-0.518584 0,-0.423333 -0.37395,-0.687917 -0.92428,-0.687917 -0.54681,0 -0.91722,0.264584 -0.91722,0.687917 0,0.232834 0.10936,0.409223 0.30691,0.518584 -0.254,0.116417 -0.39511,0.3175 -0.39511,0.589139 0,0.458612 0.39159,0.744362 1.00542,0.744362 0.61383,0 1.01247,-0.28575 1.01247,-0.744362 0,-0.271639 -0.14464,-0.472722 -0.40216,-0.589139 z m -0.61031,-0.846667 c 0.28222,0 0.47272,0.127 0.47272,0.34925 0,0.211667 -0.17991,0.345722 -0.47272,0.345722 -0.28928,0 -0.46567,-0.134055 -0.46567,-0.345722 0,-0.22225 0.18345,-0.34925 0.46567,-0.34925 z m 0,1.820334 c -0.33867,0 -0.54328,-0.148167 -0.54328,-0.398639 0,-0.243417 0.20461,-0.395111 0.54328,-0.395111 0.33867,0 0.55033,0.151694 0.55033,0.395111 0,0.250472 -0.21166,0.398639 -0.55033,0.398639 z"
       style="font-size:3.52778px"
       id="path5127" />
    <path
       d="m 111.18653,19.253378 -1.11477,-2.469446 h -0.45156 l -1.11125,2.469446 h 0.47272 l 0.24342,-0.5715 h 1.23472 l 0.24695,0.5715 z m -1.34408,-2.010835 0.46567,1.079501 h -0.92781 z"
       style="font-size:3.52778px"
       id="path5129" />
    <path
       d="m 112.58001,19.253378 c 0.8008,0 1.34761,-0.493889 1.34761,-1.234723 0,-0.740834 -0.54681,-1.234723 -1.34761,-1.234723 h -1.0795 v 2.469446 z m -0.62089,-2.08139 h 0.59972 c 0.55033,0 0.90664,0.335139 0.90664,0.846667 0,0.511528 -0.35631,0.846667 -0.90664,0.846667 h -0.59972 z"
       style="font-size:3.52778px"
       id="path5131" />
  </g>
</svg>
