<?xml version="1.0" encoding="UTF-8" standalone="no"?>
<!-- Created with Inkscape (http://www.inkscape.org/) -->

<svg
   width="113.84099mm"
   height="21.174936mm"
   viewBox="0 0 113.84099 21.174936"
   version="1.1"
   id="svg5"
   sodipodi:docname="wawwod_mibn.svg"
   inkscape:version="1.4.3 (0d15f75042, 2025-12-25)"
   xmlns:inkscape="http://www.inkscape.org/namespaces/inkscape"
   xmlns:sodipodi="http://sodipodi.sourceforge.net/DTD/sodipodi-0.dtd"
   xmlns="http://www.w3.org/2000/svg"
   xmlns:svg="http://www.w3.org/2000/svg">
  <sodipodi:namedview
     id="namedview148"
     pagecolor="#ffffff"
     bordercolor="#666666"
     borderopacity="1.0"
     inkscape:showpageshadow="2"
     inkscape:pageopacity="0.0"
     inkscape:pagecheckerboard="0"
     inkscape:deskcolor="#d1d1d1"
     inkscape:document-units="mm"
     showgrid="false"
     inkscape:zoom="2.9817871"
     inkscape:cx="223.69135"
     inkscape:cy="43.933384"
     inkscape:window-width="2560"
     inkscape:window-height="1371"
     inkscape:window-x="0"
     inkscape:window-y="0"
     inkscape:window-maximized="1"
     inkscape:current-layer="g1055" />
  <defs
     id="defs2">
    <rect
       x="-39.573326"
       y="207.92961"
       width="544.48883"
       height="128.11694"
       id="rect983" />
  </defs>
  <g
     id="layer4"
     transform="translate(-42.987336,-53.351429)" />
  <g
     id="layer2"
     transform="translate(-42.987336,-53.351429)">
    <g
       id="g1055"
       transform="translate(9.9837329)">
      <g
         aria-label="Werewolf the Apocalypse"
         id="text1119"
         style="font-weight:600;font-size:8.46667px;line-height:1.25;font-family:Montserrat;-inkscape-font-specification:'Montserrat, Semi-Bold';font-variant-caps:small-caps;fill:#c96400;fill-opacity:1;stroke:#ece9ff;stroke-width:0.1;stroke-dasharray:none;stroke-opacity:1"
         transform="translate(-7.2317509)">
        <path
           style="font-weight:normal;font-size:4.23333px;line-height:0.45;font-family:Girassol;-inkscape-font-specification:'Girassol, Normal';text-align:center;letter-spacing:0px;text-orientation:upright;text-anchor:middle;fill:#d3acff;fill-opacity:0.932131;stroke:#cdc194;stroke-linecap:round;stroke-linejoin:round;stroke-opacity:0.717684"
           d="m 112.48921,71.555369 q 0.0212,-0.0889 -0.0466,-0.135467 -0.0677,-0.0508 -0.20743,-0.0508 v -0.156633 h 0.70697 v 0.156633 q -0.11854,0 -0.18204,0.04233 -0.0593,0.04233 -0.0804,0.143933 l -0.635,2.891364 h -0.2032 l -0.66887,-2.899831 q -0.0212,-0.09737 -0.0804,-0.135466 -0.0593,-0.04233 -0.17357,-0.04233 v -0.156633 h 0.99484 v 0.156633 q -0.13124,0 -0.19897,0.04657 -0.0677,0.04233 -0.055,0.127 l 0.35983,2.158998 z m 0.6604,2.489198 q -0.0296,0.08467 0.0381,0.135466 0.072,0.0508 0.2159,0.0508 v 0.156633 h -0.70696 v -0.156633 q 0.1143,0 0.17356,-0.04233 0.0593,-0.04233 0.0889,-0.143933 l 0.635,-1.960032 h 0.2032 l 0.6604,1.968498 q 0.0381,0.110067 0.0847,0.143934 0.0466,0.03387 0.1778,0.03387 v 0.156633 h -0.97367 v -0.156633 q 0.31327,0 0.25823,-0.173566 l -0.0889,-0.283633 h -0.67733 z m 0.14394,-0.4318 h 0.57149 l -0.2794,-0.888999 z m 1.74836,0.436033 v -1.608665 q 0,-0.09737 -0.0593,-0.1397 -0.0593,-0.04233 -0.19473,-0.04233 v -0.156634 h 0.7493 l 0.51223,1.549399 0.43604,-1.549399 h 0.77046 v 0.143934 q -0.14393,0 -0.19897,0.04233 -0.055,0.0381 -0.055,0.1397 V 74.0488 q 0,0.1016 0.055,0.143933 0.055,0.0381 0.19897,0.0381 v 0.156633 h -0.9398 v -0.156633 q 0.14394,0 0.19897,-0.0381 0.055,-0.04233 0.055,-0.143933 v -1.595965 l -0.5334,1.934631 h -0.17356 l -0.635,-1.938865 V 74.0488 q 0,0.1016 0.055,0.143933 0.055,0.0381 0.19897,0.0381 v 0.156633 h -0.69427 v -0.156633 q 0.14393,0 0.19897,-0.0381 0.055,-0.04233 0.055,-0.143933 z m 2.41723,0.182033 q 0.13547,0 0.19474,-0.04233 0.0593,-0.04233 0.0593,-0.1397 v -1.608665 q 0,-0.09737 -0.0593,-0.1397 -0.0593,-0.04233 -0.19474,-0.04233 v -0.156634 h 0.99907 q 0.38523,0 0.56727,0.182034 0.18626,0.177799 0.18626,0.550332 0,0.364067 -0.18626,0.541867 -0.18204,0.173566 -0.56727,0.173566 h -0.11007 v -0.156633 h 0.11007 q 0.1397,0 0.22437,-0.1143 0.0847,-0.1143 0.0847,-0.300566 v -0.300567 q 0,-0.186266 -0.0847,-0.296333 -0.0847,-0.1143 -0.22437,-0.1143 h -0.2794 V 74.0488 q 0,0.09737 0.0593,0.1397 0.0593,0.04233 0.19473,0.04233 v 0.156633 h -0.97367 z m 1.9304,0 q 0.13547,0 0.19473,-0.04233 0.0593,-0.04233 0.0593,-0.1397 v -1.608665 q 0,-0.09737 -0.0593,-0.1397 -0.0593,-0.04233 -0.19473,-0.04233 v -0.156634 h 0.97366 v 0.156634 q -0.13546,0 -0.19473,0.04233 -0.0593,0.04233 -0.0593,0.1397 V 74.0488 q 0,0.09737 0.0593,0.1397 0.0593,0.04233 0.19473,0.04233 v 0.156633 h -0.97366 z m 0.21167,-2.362198 h -0.18627 l 0.40216,-0.503766 h 0.0847 l 0.45297,0.503766 h -0.24977 l -0.2667,-0.2921 z m 0.96519,2.362198 q 0.13547,0 0.19474,-0.04233 0.0593,-0.04233 0.0593,-0.1397 v -1.608665 q 0,-0.09737 -0.0593,-0.1397 -0.0593,-0.04233 -0.19474,-0.04233 v -0.156634 h 0.99907 q 0.38947,0 0.5715,0.1778 0.18203,0.1778 0.18203,0.554566 0,0.182034 -0.0931,0.3175 -0.0931,0.131233 -0.29633,0.232833 0.3556,0.148167 0.3556,0.529166 0,0.131234 0.0508,0.224367 0.055,0.09313 0.13123,0.09313 h 0.0254 v 0.156633 h -0.0381 q -0.30903,0 -0.4572,-0.114299 -0.14393,-0.1143 -0.14393,-0.359834 0,-0.182033 -0.0931,-0.313266 -0.0931,-0.135466 -0.2159,-0.135466 h -0.0889 v -0.156634 h 0.11007 q 0.1397,0 0.22437,-0.1143 0.0847,-0.114299 0.0847,-0.300566 v -0.2159 q 0,-0.186266 -0.0847,-0.296333 -0.0847,-0.1143 -0.22437,-0.1143 h -0.2794 V 74.0488 q 0,0.09737 0.0593,0.1397 0.0593,0.04233 0.19473,0.04233 v 0.156633 h -0.97367 z m 2.04893,0 q 0.13547,0 0.19474,-0.04233 0.0593,-0.04233 0.0593,-0.1397 v -1.608665 q 0,-0.09737 -0.0593,-0.1397 -0.0593,-0.04233 -0.19474,-0.04233 v -0.156634 h 1.25307 q 0.11006,0 0.15663,-0.01693 0.0466,-0.02117 0.0508,-0.0635 h 0.1397 l 0.17357,0.6858 -0.1397,0.0381 q -0.0762,-0.203199 -0.14817,-0.304799 -0.0677,-0.105834 -0.1778,-0.1397 -0.10583,-0.03387 -0.2921,-0.03387 h -0.30056 v 0.910166 h 0.30479 q 0.1651,0 0.1651,-0.220133 h 0.13547 v 0.643466 h -0.13547 q 0,-0.258233 -0.1651,-0.258233 h -0.30479 v 0.880533 h 0.44026 q 0.1905,0 0.2921,-0.04233 0.10583,-0.04233 0.1524,-0.160866 0.0508,-0.122767 0.0762,-0.3556 h 0.1397 v 0.812799 h -0.14393 q -0.0169,-0.0508 -0.0804,-0.07197 -0.0635,-0.01693 -0.21166,-0.01693 h -1.38007 z m 3.1369,0 q 0.13546,0 0.19473,-0.04233 0.0593,-0.04233 0.0593,-0.1397 v -1.782232 h -0.072 q -0.13547,0 -0.2159,0.04233 -0.0804,0.04233 -0.1397,0.165099 -0.055,0.122767 -0.12277,0.3683 l -0.14393,-0.0381 0.14393,-0.812799 h 0.13124 q 0.0127,0.110066 0.19473,0.110066 h 0.92287 q 0.18203,0 0.19473,-0.110066 h 0.13123 l 0.14394,0.812799 -0.14394,0.0381 q -0.0677,-0.245533 -0.127,-0.3683 -0.055,-0.122766 -0.13546,-0.165099 -0.0804,-0.04233 -0.2159,-0.04233 h -0.0804 V 74.0488 q 0,0.09737 0.0593,0.1397 0.0593,0.04233 0.19473,0.04233 v 0.156633 h -0.97366 z m 1.524,0 q 0.13546,0 0.19473,-0.04233 0.0593,-0.04233 0.0593,-0.1397 v -1.608665 q 0,-0.09737 -0.0593,-0.1397 -0.0593,-0.04233 -0.19473,-0.04233 v -0.156634 h 0.97366 v 0.156634 q -0.13546,0 -0.19473,0.04233 -0.0593,0.04233 -0.0593,0.1397 v 0.698499 h 0.6731 v -0.698499 q 0,-0.1016 -0.055,-0.1397 -0.055,-0.04233 -0.19897,-0.04233 v -0.156634 h 0.9398 v 0.156634 q -0.14393,0 -0.19896,0.04233 -0.055,0.0381 -0.055,0.1397 V 74.0488 q 0,0.1016 0.055,0.143933 0.055,0.0381 0.19896,0.0381 v 0.156633 h -0.9398 v -0.156633 q 0.14394,0 0.19897,-0.0381 0.055,-0.04233 0.055,-0.143933 v -0.745066 h -0.6731 V 74.0488 q 0,0.09737 0.0593,0.1397 0.0593,0.04233 0.19473,0.04233 v 0.156633 h -0.97366 z m 2.28176,0 q 0.13547,0 0.19473,-0.04233 0.0593,-0.04233 0.0593,-0.1397 v -1.608665 q 0,-0.09737 -0.0593,-0.1397 -0.0593,-0.04233 -0.19473,-0.04233 v -0.156634 h 1.25307 q 0.11006,0 0.15663,-0.01693 0.0466,-0.02117 0.0508,-0.0635 h 0.1397 l 0.17357,0.6858 -0.1397,0.0381 q -0.0762,-0.203199 -0.14817,-0.304799 -0.0677,-0.105834 -0.1778,-0.1397 -0.10583,-0.03387 -0.2921,-0.03387 h -0.30057 v 0.910166 h 0.3048 q 0.1651,0 0.1651,-0.220133 h 0.13547 v 0.643466 h -0.13547 q 0,-0.258233 -0.1651,-0.258233 h -0.3048 v 0.880533 h 0.44027 q 0.1905,0 0.2921,-0.04233 0.10583,-0.04233 0.1524,-0.160866 0.0508,-0.122767 0.0762,-0.3556 h 0.1397 v 0.812799 h -0.14393 q -0.0169,-0.0508 -0.0804,-0.07197 -0.0635,-0.01693 -0.21166,-0.01693 h -1.38007 z m 2.82363,0 q 0.13546,0 0.19473,-0.04233 0.0593,-0.04233 0.0593,-0.1397 v -2.497665 q 0,-0.09737 -0.0593,-0.139699 -0.0593,-0.04233 -0.19473,-0.04233 v -0.156633 h 0.83396 l 0.6223,2.332565 0.59267,-2.332565 h 0.8128 v 0.156633 q -0.14393,0 -0.19897,0.04233 -0.055,0.0381 -0.055,0.139699 V 74.0488 q 0,0.09737 0.0593,0.1397 0.0593,0.04233 0.19473,0.04233 v 0.156633 h -0.97367 v -0.156633 q 0.13547,0 0.19474,-0.04233 0.0593,-0.04233 0.0593,-0.1397 v -2.429931 l -0.7112,2.768597 h -0.19473 l -0.78317,-2.713564 V 74.0488 q 0,0.09737 0.0593,0.1397 0.0593,0.04233 0.19473,0.04233 v 0.156633 h -0.70696 z m 3.40783,-0.186266 q -0.0296,0.08467 0.0381,0.135466 0.072,0.0508 0.2159,0.0508 v 0.156633 h -0.70697 v -0.156633 q 0.1143,0 0.17357,-0.04233 0.0593,-0.04233 0.0889,-0.143933 l 0.635,-1.960032 h 0.2032 l 0.6604,1.968498 q 0.0381,0.110067 0.0847,0.143934 0.0466,0.03387 0.1778,0.03387 v 0.156633 h -0.97367 v -0.156633 q 0.31327,0 0.25823,-0.173566 l -0.0889,-0.283633 h -0.67733 z m 0.14393,-0.4318 h 0.5715 l -0.2794,-0.888999 z m 2.2606,-1.553632 q 0.127,0 0.19473,0.01693 0.072,0.0127 0.10584,0.0085 0.0381,-0.0042 0.0593,-0.05927 h 0.14394 l 0.17356,0.681567 -0.14393,0.0381 q -0.10583,-0.292099 -0.2159,-0.402166 -0.10583,-0.110066 -0.2794,-0.110066 -0.13123,0 -0.2286,0.09313 -0.0931,0.0889 -0.0931,0.220133 0,0.118533 0.0593,0.198966 0.0593,0.0762 0.21167,0.160867 l 0.4572,0.249766 q 0.18203,0.09737 0.2794,0.2667 0.1016,0.1651 0.1016,0.376767 0,0.173566 -0.1016,0.317499 -0.0974,0.143934 -0.2667,0.2286 -0.1651,0.08467 -0.37253,0.08467 -0.15664,0 -0.254,-0.02963 -0.0974,-0.02963 -0.15664,-0.05927 -0.055,-0.02963 -0.0974,-0.02963 -0.0974,0 -0.127,0.0762 h -0.14817 v -0.838199 h 0.14393 q 0.0593,0.334433 0.20744,0.516466 0.1524,0.182034 0.3683,0.182034 0.0974,0 0.18203,-0.05503 0.0889,-0.05503 0.14393,-0.1397 0.055,-0.08467 0.055,-0.177799 0,-0.224367 -0.29634,-0.389467 l -0.37253,-0.207433 q -0.4191,-0.2286 -0.4191,-0.592666 0,-0.1651 0.0974,-0.309033 0.0974,-0.143933 0.254,-0.2286 0.15663,-0.0889 0.33443,-0.0889 z m 1.95156,0 q 0.4064,0 0.63077,0.237067 0.22436,0.237066 0.22436,0.668866 v 0.558799 q 0,0.448733 -0.2159,0.677333 0.072,0.02963 0.15664,0.02963 h 0.11006 v 0.156633 h -0.0254 q -0.26246,0 -0.42756,-0.0508 -0.18627,0.09313 -0.45297,0.09313 -0.39793,0 -0.6096,-0.232833 -0.21166,-0.232834 -0.21166,-0.6731 v -0.558799 q 0,-0.448733 0.20743,-0.677333 0.21166,-0.2286 0.61383,-0.2286 z m -0.3048,1.126066 q 0.70273,0 0.70273,0.605366 v -1.159932 q 0,-0.182034 -0.11006,-0.2921 -0.11007,-0.1143 -0.28787,-0.1143 -0.15663,0 -0.25823,0.1143 -0.0974,0.1143 -0.0974,0.2921 v 0.554566 z m 0.3048,1.079499 q 0.12277,0 0.22013,-0.05927 -0.13546,-0.1397 -0.13546,-0.431799 0,-0.194734 -0.0847,-0.309033 -0.0847,-0.1143 -0.22437,-0.1143 h -0.13123 v 0.512233 q 0,0.182033 0.0974,0.292099 0.0974,0.110067 0.25823,0.110067 z m 2.7686,-0.740833 q 0,0.905933 -0.70696,0.905933 -0.36407,0 -0.57574,-0.2413 -0.20743,-0.2413 -0.20743,-0.664633 v -1.083732 q 0,-0.09737 -0.0593,-0.1397 -0.0593,-0.04233 -0.19473,-0.04233 v -0.156634 h 0.97367 v 0.156634 q -0.13547,0 -0.19474,0.04233 -0.0593,0.04233 -0.0593,0.1397 v 1.371599 q 0,0.194733 0.11006,0.317499 0.1143,0.122767 0.29634,0.122767 0.19473,0 0.31326,-0.186267 0.12277,-0.186266 0.12277,-0.478366 v -1.147232 q 0,-0.1016 -0.055,-0.1397 -0.055,-0.04233 -0.19897,-0.04233 v -0.156634 h 0.69003 v 0.156634 q -0.14393,0 -0.19896,0.04233 -0.055,0.0381 -0.055,0.1397 z m 0.38947,0.706966 q 0.13547,0 0.19473,-0.04233 0.0593,-0.04233 0.0593,-0.1397 v -1.608665 q 0,-0.09737 -0.0593,-0.1397 -0.0593,-0.04233 -0.19473,-0.04233 v -0.156634 h 1.25307 q 0.11006,0 0.15663,-0.01693 0.0466,-0.02117 0.0508,-0.0635 h 0.1397 l 0.17356,0.6858 -0.1397,0.0381 q -0.0762,-0.203199 -0.14816,-0.304799 -0.0677,-0.105834 -0.1778,-0.1397 -0.10583,-0.03387 -0.2921,-0.03387 h -0.30057 v 0.910166 h 0.3048 q 0.1651,0 0.1651,-0.220133 h 0.13547 v 0.643466 h -0.13547 q 0,-0.258233 -0.1651,-0.258233 h -0.3048 v 0.880533 h 0.44027 q 0.1905,0 0.2921,-0.04233 0.10583,-0.04233 0.1524,-0.160866 0.0508,-0.122767 0.0762,-0.3556 h 0.1397 v 0.812799 h -0.14394 q -0.0169,-0.0508 -0.0804,-0.07197 -0.0635,-0.01693 -0.21166,-0.01693 h -1.38007 z m 1.98543,0 q 0.13547,0 0.19473,-0.04233 0.0593,-0.04233 0.0593,-0.1397 v -1.608665 q 0,-0.09737 -0.0593,-0.1397 -0.0593,-0.04233 -0.19473,-0.04233 v -0.156634 h 0.99907 q 0.38946,0 0.5715,0.1778 0.18203,0.1778 0.18203,0.554566 0,0.182034 -0.0931,0.3175 -0.0931,0.131233 -0.29634,0.232833 0.3556,0.148167 0.3556,0.529166 0,0.131234 0.0508,0.224367 0.055,0.09313 0.13124,0.09313 h 0.0254 v 0.156633 h -0.0381 q -0.30904,0 -0.4572,-0.114299 -0.14394,-0.1143 -0.14394,-0.359834 0,-0.182033 -0.0931,-0.313266 -0.0931,-0.135466 -0.2159,-0.135466 h -0.0889 v -0.156634 h 0.11007 q 0.1397,0 0.22436,-0.1143 0.0847,-0.114299 0.0847,-0.300566 v -0.2159 q 0,-0.186266 -0.0847,-0.296333 -0.0847,-0.1143 -0.22436,-0.1143 h -0.2794 V 74.0488 q 0,0.09737 0.0593,0.1397 0.0593,0.04233 0.19474,0.04233 v 0.156633 h -0.97367 z m 2.36643,-0.186266 q -0.0296,0.08467 0.0381,0.135466 0.072,0.0508 0.2159,0.0508 v 0.156633 h -0.70696 v -0.156633 q 0.1143,0 0.17356,-0.04233 0.0593,-0.04233 0.0889,-0.143933 l 0.635,-1.960032 h 0.2032 l 0.6604,1.968498 q 0.0381,0.110067 0.0847,0.143934 0.0466,0.03387 0.1778,0.03387 v 0.156633 h -0.97367 v -0.156633 q 0.31327,0 0.25823,-0.173566 l -0.0889,-0.283633 h -0.67733 z m 0.14394,-0.4318 h 0.57149 l -0.27939,-0.888999 z m 1.49436,0.618066 q 0.13546,0 0.19473,-0.04233 0.0593,-0.04233 0.0593,-0.1397 v -1.608665 q 0,-0.09737 -0.0593,-0.1397 -0.0593,-0.04233 -0.19473,-0.04233 v -0.156634 h 1.00753 q 0.40217,0 0.59267,0.220134 0.1905,0.220133 0.1905,0.685799 v 0.474133 q 0,0.905932 -0.78317,0.905932 h -1.00753 z m 1.00753,-1.964265 h -0.2794 v 1.955799 h 0.2794 q 0.14393,0 0.2286,-0.110067 0.0889,-0.1143 0.0889,-0.300566 v -1.134533 q 0,-0.186266 -0.0889,-0.296333 -0.0847,-0.1143 -0.2286,-0.1143 z m 1.02023,1.964265 q 0.13547,0 0.19474,-0.04233 0.0593,-0.04233 0.0593,-0.1397 v -1.608665 q 0,-0.09737 -0.0593,-0.1397 -0.0593,-0.04233 -0.19474,-0.04233 v -0.156634 h 1.25307 q 0.11007,0 0.15663,-0.01693 0.0466,-0.02117 0.0508,-0.0635 h 0.1397 l 0.17357,0.6858 -0.1397,0.0381 q -0.0762,-0.203199 -0.14817,-0.304799 -0.0677,-0.105834 -0.1778,-0.1397 -0.10583,-0.03387 -0.2921,-0.03387 h -0.30056 v 0.910166 h 0.3048 q 0.1651,0 0.1651,-0.220133 h 0.13546 v 0.643466 h -0.13546 q 0,-0.258233 -0.1651,-0.258233 h -0.3048 v 0.880533 h 0.44026 q 0.1905,0 0.2921,-0.04233 0.10584,-0.04233 0.1524,-0.160866 0.0508,-0.122767 0.0762,-0.3556 h 0.1397 v 0.812799 h -0.14393 q -0.0169,-0.0508 -0.0804,-0.07197 -0.0635,-0.01693 -0.21167,-0.01693 h -1.38007 z"
           id="text2"
           aria-label="Vampîre the Masquerade" />
      </g>
      <path
         style="font-size:16.9333px;line-height:0.45;font-family:'Angel wish';-inkscape-font-specification:'Angel wish, Normal';font-variant-caps:small-caps;text-align:center;letter-spacing:0px;text-orientation:upright;text-anchor:middle;fill:#6570a4;fill-opacity:0.84012198;stroke:#fdfdfd;stroke-width:0.1;stroke-linecap:round;stroke-linejoin:round;stroke-opacity:0.49262404"
         d="m 44.195715,65.373286 q 0.135466,0.118533 0.304799,0.118533 0.186266,0 0.321733,-0.118533 l 0.135466,-0.1016 q 0,0.08467 -0.186266,0.270933 -0.186266,0.186266 -0.423333,0.423332 -0.237066,0.220133 -0.457199,0.474133 -0.220133,0.270933 -0.287866,0.524932 l -1.015998,-0.948265 q -0.118533,-0.08467 -0.237066,-0.152399 -0.270933,-0.118533 -0.541866,0.03387 0.1016,-0.118533 0.220133,-0.186266 0.1016,-0.06773 0.237066,-0.118533 0.1524,-0.0508 0.321733,-0.01693 v -9.143982 l -1.64253,-0.626533 v 0.372533 4.97839 q 0.03387,0.372533 0.389466,0.491066 l 0.237066,0.08467 -0.237066,0.08467 q -0.169333,0.0508 -0.270933,0.186266 -0.08467,0.135467 -0.118533,0.3048 v 2.997194 l 0.06773,0.06773 q 0.135467,0.118533 0.3048,0.118533 0.186266,0 0.321732,-0.118533 l 0.135467,-0.1016 q 0,0.08467 -0.186267,0.270933 -0.186266,0.186266 -0.423332,0.423332 -0.237066,0.220133 -0.457199,0.474133 -0.220133,0.270933 -0.287866,0.524932 l -1.015998,-0.948265 q -0.118533,-0.08467 -0.237066,-0.152399 -0.270933,-0.118533 -0.541866,0.03387 0.1016,-0.118533 0.220133,-0.186266 0.1016,-0.06773 0.237066,-0.118533 0.1524,-0.0508 0.321733,-0.01693 v -3.352794 q -0.08467,-0.304799 -0.372533,-0.406399 l -0.220133,-0.08467 0.220133,-0.08467 q 0.287866,-0.1016 0.372533,-0.406399 v -4.809057 l -1.64253,-0.626533 v 10.651046 q 0.253999,0.06773 0.423332,0.169333 0.169333,0.1016 0.270933,0.2032 0.118533,0.118533 0.169333,0.270933 -0.338666,-0.2032 -0.728132,-0.1016 -0.372533,0.118533 -0.711199,0.474132 -0.321732,0.355599 -0.541865,0.931332 -0.2032,0.592665 -0.2032,1.354664 0.03387,-0.01693 0.1016,-0.01693 0.135466,0 0.220133,0.1016 0.1016,0.118533 0.08467,0.254 -0.03387,0.237066 -0.270932,0.270932 -0.135467,0.01693 -0.254,-0.08467 -0.1016,-0.08467 -0.1016,-0.220133 v -0.01693 -7.823185 q -0.08467,-0.304799 -0.372532,-0.406399 l -0.220133,-0.08467 0.220133,-0.08467 q 0.287866,-0.1016 0.372532,-0.406399 v -3.454393 -0.829732 q 0,-0.355599 -0.270932,-0.592666 l -0.728132,-0.626532 q -0.118533,-0.1016 -0.254,-0.08467 -0.135466,0 -0.237066,0.08467 l -0.118533,0.118533 q -0.135467,0.135467 -0.270933,0.287866 -0.135466,0.135467 -0.270933,0.287867 -0.237066,0.287866 -0.491065,0.677332 -0.0508,0.08467 -0.1016,0.186266 -0.0508,0.1016 -0.1016,0.203199 -0.03387,0.08467 -0.06773,0.186267 -0.03387,0.1016 -0.06773,0.220133 -0.03387,0.101599 -0.0508,0.203199 -0.01693,0.1016 -0.03387,0.220133 v 0.0508 0.01693 0.03387 0.0508 0.0508 0.03387 l 0.01693,0.01693 v 0.06773 q 0,0.06773 0.01693,0.1016 l 0.0508,0.203199 q 0.03387,0.06773 0.03387,0.08467 l 0.03387,0.0508 q 0,0.01693 0,0.03387 0.01693,0 0.01693,0.01693 0.1016,0.169333 0.270933,0.287866 0.169333,0.135466 0.355599,0.152399 0.169333,0.0508 0.389466,0.01693 0.186266,-0.01693 0.338666,-0.08467 0.169333,-0.06773 0.304799,-0.169333 0.254,-0.203199 0.389466,-0.440266 0.03387,-0.06773 0.0508,-0.118533 0.01693,-0.0508 0.0508,-0.118533 0.0508,-0.1016 0.0508,-0.203199 0.03387,-0.08467 0.03387,-0.1524 0,-0.08467 0.01693,-0.135467 v -0.08467 -0.03387 0.03387 0.08467 q 0,0.0508 -0.01693,0.135467 0,0.06773 -0.01693,0.1524 -0.03387,0.135466 -0.0508,0.220132 -0.03387,0.0508 -0.0508,0.118534 -0.01693,0.0508 -0.0508,0.101599 -0.06773,0.135467 -0.169333,0.254 -0.08467,0.118533 -0.220133,0.220133 -0.254,0.203199 -0.660399,0.287866 -0.2032,0.03387 -0.389466,-0.01693 -0.220133,-0.03387 -0.389466,-0.1524 -0.08467,-0.06773 -0.169333,-0.135467 -0.08467,-0.08467 -0.135466,-0.186266 -0.01693,-0.01693 -0.01693,-0.01693 0,-0.01693 -0.01693,-0.03387 l -0.01693,-0.03387 -0.0508,-0.1016 q -0.01693,-0.06773 -0.03387,-0.118533 -0.01693,-0.0508 -0.03387,-0.1016 0,-0.08467 -0.01693,-0.118533 v -0.0508 -0.03387 l -0.01693,-0.01693 v -0.06773 -0.0508 -0.03387 -0.01693 -0.06773 q 0,-0.118533 0.01693,-0.220133 0.01693,-0.1016 0.0508,-0.220133 0.03387,-0.118533 0.06773,-0.220133 0.03387,-0.1016 0.06773,-0.203199 0.0508,-0.118534 0.1016,-0.2032 0.0508,-0.1016 0.101599,-0.2032 0.118534,-0.186266 0.237067,-0.355599 0.118533,-0.186266 0.253999,-0.355599 0.135467,-0.169333 0.254,-0.321733 0.135466,-0.1524 0.270932,-0.287866 0.135467,-0.135466 0.254,-0.254 0.135466,-0.135466 0.270933,-0.237066 0.474132,-0.440266 0.829731,-0.694265 0.169333,-0.135466 0.237067,-0.186266 0.03387,-0.01693 0.06773,-0.0508 l 0.01693,-0.01693 0.06773,0.1016 1.269998,1.185331 q 0.304799,-0.253999 0.474132,-0.474132 0.186267,-0.237066 0.270933,-0.406399 0.1016,-0.186267 0.135466,-0.287866 0.03387,-0.118534 0.03387,-0.118534 0.1016,0.1524 0.287866,0.237067 l 2.218262,0.846665 q 0.440266,-0.440266 0.541866,-0.745066 0.118533,-0.321732 0.135466,-0.338666 0.1016,0.1524 0.287867,0.237067 l 2.252128,0.863598 q 0.287867,0.06773 0.524933,0.01693 0.186266,-0.03387 0.355599,-0.169333 0.169333,-0.135466 0.169333,-0.440266 0.0508,0.237067 -0.03387,0.4572 -0.08467,0.186266 -0.304799,0.423332 -0.220133,0.220133 -0.711199,0.406399 v 5.164657 q 0.08467,0.304799 0.372533,0.406399 l 0.237066,0.08467 -0.237066,0.08467 q -0.287866,0.1016 -0.372533,0.406399 v 3.081861 l 0.06773,0.06773 z m 4.114788,0 q -0.135466,0.118533 -0.321733,0.118533 -0.169333,-0.01693 -0.304799,-0.135466 l -0.06773,-0.06773 v -3.047994 q 0,-0.186266 0.1016,-0.338666 0.118533,-0.169333 0.304799,-0.220132 -0.186266,-0.0508 -0.304799,-0.2032 -0.1016,-0.1524 -0.1016,-0.338666 v -2.997194 q 0.08467,-0.0508 0.169333,-0.118533 0.08467,-0.08467 0.135466,-0.1524 0.06773,-0.06773 0.118533,-0.169333 -0.169333,0.08467 -0.406399,0.03387 -0.203199,-0.03387 -0.524932,-0.220133 -0.3048,-0.186267 -0.745065,-0.643466 l -0.897465,1.354664 q 0.06773,0.118533 0.169333,0.186267 0.1016,0.06773 0.203199,0.118533 0.118533,0.06773 0.237067,0.08467 v 2.523062 q 0,0.423332 -0.423333,0.541866 v 0.01693 q 0.186266,0.03387 0.304799,0.203199 0.118534,0.1524 0.118534,0.338666 v 3.776126 l 0.999064,0.948265 q 0.06773,-0.253999 0.287866,-0.524932 0.220133,-0.254 0.457199,-0.491066 0.254,-0.237066 0.440266,-0.423332 0.186267,-0.186267 0.186267,-0.270933 z m -1.473197,-9.228649 -0.914398,-0.914398 0.914398,-0.914398 0.914398,0.914398 z m 7.196653,5.012257 q 0,0.186267 0.1016,0.338666 0.118533,0.1524 0.304799,0.2032 -0.186266,0.0508 -0.304799,0.203199 -0.1016,0.1524 -0.1016,0.338666 v 3.081861 q 0,0.795865 -0.372533,1.286931 -0.372532,0.507999 -0.863598,0.795865 -0.491066,0.304799 -0.982131,0.406399 -0.474133,0.118533 -0.677332,0.118533 0.372532,-0.03387 0.677332,-0.270933 0.253999,-0.203199 0.457199,-0.626532 0.220133,-0.423332 0.220133,-1.185331 v -6.908786 l -1.642531,-0.694265 v 7.061186 l 0.06773,0.06773 q 0.135466,0.118533 0.304799,0.135466 0.186266,0 0.321733,-0.118533 l 0.135466,-0.118533 q 0,0.08467 -0.186266,0.270933 -0.186266,0.186266 -0.423333,0.423332 -0.237066,0.237067 -0.457199,0.491066 -0.220133,0.270933 -0.287866,0.524932 l -1.015998,-0.965198 v -3.776126 q 0,-0.423332 -0.423332,-0.541865 0.423332,-0.118533 0.423332,-0.541866 v -2.438395 -0.118533 q -0.118533,-0.01693 -0.237066,-0.08467 -0.1016,-0.0508 -0.2032,-0.118533 -0.101599,-0.06773 -0.169333,-0.186266 l 0.897465,-1.354664 q 0.1524,0.2032 0.338666,0.389466 0.186267,0.186266 0.372533,0.338666 0.186266,0.135466 0.355599,0.220133 0.169333,0.06773 0.287866,0.06773 l 0.507999,-0.677332 q 0.135467,-0.186266 0.270933,-0.372533 l 2.150529,0.999065 0.118533,0.0508 q 0.135467,0.0508 0.254,0.03387 0.1016,-0.01693 0.203199,-0.08467 0.118533,-0.08467 0.186267,-0.304799 0.01693,0.203199 -0.0508,0.372532 -0.0508,0.135467 -0.186267,0.270933 -0.135466,0.135467 -0.372532,0.186266 v 2.810928 z m 6.214531,0 q 0,0.186267 0.1016,0.338666 0.118533,0.1524 0.304799,0.2032 -0.186266,0.0508 -0.304799,0.203199 -0.1016,0.1524 -0.1016,0.338666 v 3.081861 q 0,0.795865 -0.372533,1.286931 -0.372532,0.507999 -0.863598,0.795865 -0.491066,0.304799 -0.982132,0.406399 -0.474132,0.118533 -0.677332,0.118533 0.372533,-0.03387 0.677332,-0.270933 0.254,-0.203199 0.4572,-0.626532 0.220132,-0.423332 0.220132,-1.185331 v -6.908786 l -1.64253,-0.694265 v 7.061186 l 0.06773,0.06773 q 0.135466,0.118533 0.304799,0.135466 0.186266,0 0.321733,-0.118533 l 0.135466,-0.118533 q 0,0.08467 -0.186266,0.270933 -0.186267,0.186266 -0.423333,0.423332 -0.237066,0.237067 -0.457199,0.491066 -0.220133,0.270933 -0.287866,0.524932 l -1.015998,-0.965198 v -3.776126 q 0,-0.423332 -0.423332,-0.541865 0.423332,-0.118533 0.423332,-0.541866 v -2.438395 -0.118533 q -0.118533,-0.01693 -0.237066,-0.08467 -0.1016,-0.0508 -0.2032,-0.118533 -0.1016,-0.06773 -0.169333,-0.186266 l 0.897465,-1.354664 q 0.1524,0.2032 0.338666,0.389466 0.186266,0.186266 0.372533,0.338666 0.186266,0.135466 0.355599,0.220133 0.169333,0.06773 0.287866,0.06773 l 0.507999,-0.677332 q 0.135467,-0.186266 0.270933,-0.372533 l 2.150529,0.999065 0.118533,0.0508 q 0.135467,0.0508 0.254,0.03387 0.101599,-0.01693 0.203199,-0.08467 0.118533,-0.08467 0.186267,-0.304799 0.01693,0.203199 -0.0508,0.372532 -0.0508,0.135467 -0.186267,0.270933 -0.135466,0.135467 -0.372532,0.186266 v 2.810928 z m 4.402668,3.081861 q 0.524932,0 0.795865,-0.220133 0.270933,-0.237066 0.474132,-0.507999 0.220133,-0.287866 0.440266,-0.524932 0.220133,-0.237067 0.643465,-0.237067 -0.355599,0.08467 -0.440265,0.4064 -0.08467,0.304799 -0.08467,0.795865 v 0.541865 0.694266 q -0.643465,0.06773 -1.066798,0.355599 -0.423332,0.270933 -0.677332,0.592665 -0.237066,0.321733 -0.338666,0.575733 -0.08467,0.253999 -0.08467,0.253999 l -0.118533,-0.06773 -2.285996,-0.880532 -0.135466,-0.03387 q 0,0 -0.08467,-0.01693 -0.06773,-0.03387 -0.169333,-0.01693 -0.1016,0.01693 -0.220133,0.1016 -0.1016,0.06773 -0.152399,0.287866 -0.01693,-0.2032 0.0508,-0.372533 0.0508,-0.135466 0.169333,-0.270932 0.135467,-0.135467 0.389466,-0.186267 v -3.23426 q 0,-0.423332 -0.423332,-0.541866 l 0.01693,-0.01693 q 0.186266,-0.0508 0.287866,-0.203199 0.118533,-0.1524 0.118533,-0.338666 v -2.489196 q 0.643466,-0.06773 1.066798,-0.338666 0.423333,-0.287866 0.660399,-0.609598 0.253999,-0.321733 0.338666,-0.575733 0.1016,-0.253999 0.1016,-0.253999 l 0.118533,0.06773 2.285995,0.880532 0.135467,0.03387 q 0,0 0.06773,0.03387 0.08467,0.01693 0.186266,0.01693 0.1016,-0.01693 0.2032,-0.1016 0.118533,-0.08467 0.169333,-0.304799 0.01693,0.2032 -0.0508,0.372533 -0.0508,0.135466 -0.186266,0.287866 -0.118533,0.135466 -0.372533,0.169333 v 0.575732 q 0,0.287866 0.287866,0.406399 -0.558799,0 -0.965198,0.372533 -0.406399,0.355599 -0.778932,0.812798 -0.372532,0.457199 -0.778932,0.863598 -0.389465,0.389466 -0.948264,0.4572 v 3.047994 l 1.64253,0.626532 v -0.423333 -0.440266 -0.03387 q 0,-0.3048 -0.287866,-0.389466 z m -1.354664,-5.909722 v 3.318927 q 0.270932,-0.06773 0.558799,-0.287866 0.287866,-0.220133 0.524932,-0.507999 0.253999,-0.287866 0.406399,-0.609599 0.1524,-0.321733 0.1524,-0.626532 v -0.643465 z m 10.244645,6.92572 q 0,0.08467 -0.186267,0.270933 -0.186266,0.186266 -0.423332,0.423332 -0.237066,0.237066 -0.457199,0.491066 -0.220133,0.270933 -0.287866,0.524932 l -1.015998,-1.049864 q -0.3556,0.372532 -0.491066,0.694265 -0.135466,0.338666 -0.135466,0.355599 l -0.118534,-0.06773 -2.285995,-0.880532 -0.135466,-0.03387 q 0,0 -0.08467,-0.01693 -0.06773,-0.03387 -0.169333,-0.01693 -0.1016,0.01693 -0.220133,0.1016 -0.1016,0.06773 -0.1524,0.287866 -0.01693,-0.2032 0.0508,-0.372533 0.0508,-0.135466 0.169333,-0.270932 0.135467,-0.135467 0.389466,-0.186267 v -1.777996 q 0,-0.474133 -0.406399,-0.778932 0.643465,0 1.083731,-0.270933 0.457199,-0.287866 0.846665,-0.609599 0.389466,-0.338666 0.761999,-0.592665 0.389466,-0.270933 0.897465,-0.220133 v -2.285995 l -1.64253,-0.643466 v 1.286931 q 0,0.491066 0.08467,0.812798 0.1016,0.3048 0.457199,0.389466 -0.423332,0 -0.660399,-0.220133 -0.220132,-0.237066 -0.440265,-0.507999 -0.2032,-0.287866 -0.474133,-0.507999 -0.270933,-0.237066 -0.795865,-0.237066 0.287866,-0.118533 0.287866,-0.406399 v -0.254 q 0.643466,-0.06773 1.066798,-0.338666 0.423333,-0.287866 0.660399,-0.609598 0.253999,-0.321733 0.338666,-0.575733 0.1016,-0.253999 0.1016,-0.253999 l 0.118533,0.06773 2.285995,0.880532 0.135467,0.03387 q 0,0 0.06773,0.03387 0.08467,0.01693 0.186266,0.01693 0.1016,-0.01693 0.2032,-0.1016 0.118533,-0.08467 0.169333,-0.304799 0.01693,0.2032 -0.0508,0.372533 -0.0508,0.135466 -0.186266,0.287866 -0.118534,0.135466 -0.372533,0.169333 v 2.810928 q 0,0.186266 0.1016,0.338666 0.118533,0.152399 0.304799,0.203199 l 0.01693,0.01693 q -0.186266,0.03387 -0.304799,0.2032 -0.118533,0.1524 -0.118533,0.338666 v 2.912528 0.101599 l 0.06773,0.06773 q 0.135467,0.118533 0.3048,0.135466 0.186266,0 0.321732,-0.118533 z m -2.370662,-3.742259 q -0.237067,-0.01693 -0.491066,0.08467 -0.237066,0.08467 -0.457199,0.287866 -0.220133,0.186266 -0.406399,0.474133 -0.169333,0.270932 -0.270933,0.609598 v 1.930397 l 1.625597,0.626532 z m 7.975573,-0.372533 q 0,0.186266 0.1016,0.338666 0.118533,0.1524 0.304799,0.2032 h 0.01693 Q 79.14605,61.80036 79.14605,62.223692 v 2.912528 q -0.643466,0.06773 -1.066798,0.355599 -0.423333,0.270933 -0.677332,0.592666 -0.237066,0.321732 -0.338666,0.575732 -0.08467,0.253999 -0.08467,0.253999 l -0.118533,-0.06773 -0.897465,-0.338666 v 1.608664 0.575732 l 0.06773,0.06773 q 0.135466,0.135466 0.304799,0.135466 0.186266,0 0.321733,-0.118533 l 0.135466,-0.118533 q 0,0.08467 -0.186266,0.270933 -0.186267,0.186266 -0.423333,0.423332 -0.237066,0.237067 -0.457199,0.491066 -0.220133,0.270933 -0.287866,0.524932 l -1.015998,-0.948264 v -3.505193 q -0.03387,-0.01693 -0.118533,-0.01693 -0.08467,-0.01693 -0.186266,0.01693 -0.08467,0.01693 -0.169333,0.101599 -0.08467,0.08467 -0.135467,0.270933 -0.01693,-0.186266 0.0508,-0.355599 0.0508,-0.135467 0.169333,-0.270933 0.135467,-0.1524 0.389466,-0.2032 v -3.268126 q -0.03387,-0.389466 -0.423332,-0.507999 h 0.01693 q 0.186266,-0.0508 0.287866,-0.2032 0.118533,-0.1524 0.118533,-0.338666 v -2.539995 q -0.118533,-0.01693 -0.237066,-0.08467 -0.1016,-0.0508 -0.2032,-0.118533 -0.1016,-0.06773 -0.169333,-0.186266 l 0.897465,-1.354664 q 0.3048,0.423333 0.711199,0.728132 0.423332,0.287866 0.643465,0.287866 0.118533,-0.1524 0.254,-0.338666 0.135466,-0.186266 0.253999,-0.338666 0.118533,-0.169333 0.2032,-0.270933 0.08467,-0.1016 0.08467,-0.1016 l 2.133596,0.999065 0.135466,0.0508 q 0,0 0.06773,0.03387 0.08467,0.01693 0.186266,0.01693 0.1016,-0.01693 0.2032,-0.1016 0.118533,-0.08467 0.169333,-0.304799 0.01693,0.203199 -0.0508,0.372532 -0.0508,0.135467 -0.186267,0.270933 -0.118533,0.135467 -0.372532,0.186266 z m -1.540931,4.351858 v -5.23239 -1.320797 l -1.64253,-0.694265 v 2.015062 4.588925 z m 7.772384,-4.317991 q 0,0.186266 0.1016,0.338666 0.118533,0.152399 0.304799,0.203199 h 0.01693 q -0.423332,0.118533 -0.423332,0.541866 v 2.912527 q -0.643466,0.06773 -1.066798,0.3556 -0.423333,0.270932 -0.660399,0.592665 -0.287866,0.372533 -0.440266,0.829732 l -0.118533,-0.0508 -2.285995,-0.880532 -0.135467,-0.0508 q 0,0 -0.08467,-0.01693 -0.06773,-0.03387 -0.169333,-0.01693 -0.1016,0.01693 -0.220133,0.1016 -0.1016,0.06773 -0.1524,0.287866 -0.01693,-0.186267 0.0508,-0.3556 0.0508,-0.135466 0.169333,-0.270932 0.135467,-0.1524 0.389466,-0.2032 v -3.23426 q 0,-0.423333 -0.423332,-0.541866 h 0.01693 q 0.186266,-0.0508 0.287866,-0.203199 0.118533,-0.1524 0.118533,-0.338666 v -2.489196 q 0.643465,-0.06773 1.066798,-0.355599 0.423332,-0.287866 0.660399,-0.592665 0.253999,-0.321733 0.338666,-0.575733 0.101599,-0.270932 0.101599,-0.270932 l 0.118534,0.06773 2.285995,0.880531 0.135466,0.0508 q 0,0 0.06773,0.03387 0.08467,0.01693 0.186266,0.01693 0.1016,-0.01693 0.2032,-0.1016 0.118533,-0.08467 0.169333,-0.304799 0.01693,0.186266 -0.0508,0.355599 -0.0508,0.135467 -0.186267,0.287866 -0.118533,0.135467 -0.372532,0.169333 z m -1.540931,-2.218263 -1.64253,-0.626532 v 6.570121 l 1.64253,0.626532 z m 5.401725,6.299188 q 0,0.08467 -0.186266,0.270933 -0.186266,0.186266 -0.440266,0.423332 -0.237066,0.237066 -0.457199,0.491066 -0.220133,0.270933 -0.287866,0.524932 l -0.999065,-0.948265 v -3.776126 q 0,-0.186266 -0.118533,-0.338666 -0.118533,-0.169333 -0.304799,-0.203199 v -0.01693 q 0.423332,-0.118534 0.423332,-0.541866 v -1.117598 -4.859857 q -0.118533,-0.03387 -0.237066,-0.1016 -0.1016,-0.0508 -0.203199,-0.118533 -0.1016,-0.06773 -0.169333,-0.186266 l 0.897465,-1.354664 q 0.440265,0.457199 0.745065,0.660399 0.321732,0.186266 0.524932,0.220132 0.237066,0.0508 0.406399,-0.0508 -0.0508,0.101599 -0.118533,0.169333 -0.0508,0.06773 -0.135466,0.152399 -0.08467,0.06773 -0.169333,0.118533 v 6.468521 q 0,0.186266 0.1016,0.338666 0.118533,0.1524 0.304799,0.2032 -0.186266,0.0508 -0.304799,0.220132 -0.1016,0.1524 -0.1016,0.338666 v 3.047994 l 0.06773,0.06773 q 0.135466,0.118533 0.304799,0.135466 0.186267,0 0.321733,-0.118533 z m 3.098791,0.118533 q -0.135467,0.118533 -0.321733,0.118533 -0.169333,-0.01693 -0.304799,-0.135466 l -0.06773,-0.06773 v -3.047994 q 0,-0.186266 0.101599,-0.338666 0.118533,-0.169333 0.3048,-0.220132 -0.186267,-0.0508 -0.3048,-0.2032 -0.101599,-0.1524 -0.101599,-0.338666 v -2.997194 q 0.08467,-0.0508 0.169333,-0.118533 0.08467,-0.08467 0.135466,-0.1524 0.06773,-0.06773 0.118533,-0.169333 -0.169333,0.08467 -0.406399,0.03387 -0.2032,-0.03387 -0.524932,-0.220133 -0.3048,-0.186267 -0.745066,-0.643466 l -0.897465,1.354664 q 0.06773,0.118533 0.169333,0.186267 0.1016,0.06773 0.2032,0.118533 0.118533,0.06773 0.237066,0.08467 v 2.523062 q 0,0.423332 -0.423332,0.541866 v 0.01693 q 0.186266,0.03387 0.304799,0.203199 0.118533,0.1524 0.118533,0.338666 v 3.776126 l 0.999065,0.948265 q 0.06773,-0.253999 0.287866,-0.524932 0.220133,-0.254 0.457199,-0.491066 0.254,-0.237066 0.440266,-0.423332 0.186266,-0.186267 0.186266,-0.270933 z m -1.473197,-9.228649 -0.914398,-0.914398 0.914398,-0.914398 0.914398,0.914398 z m 7.823185,1.388531 q 0.01693,0.2032 -0.0508,0.372533 -0.0508,0.135466 -0.186267,0.287866 -0.118533,0.135466 -0.372532,0.169333 v 0.575732 q 0,0.287866 0.287866,0.406399 -0.524932,0 -0.795865,0.237066 -0.270933,0.220133 -0.491066,0.507999 -0.2032,0.270933 -0.423332,0.507999 -0.220133,0.220133 -0.643466,0.220133 0.355599,-0.08467 0.440266,-0.389466 0.08467,-0.321732 0.08467,-0.812798 v -0.643465 l -1.64253,-0.643466 v 2.760128 q 0,0.287866 0.254,0.423333 0.643465,0.355599 1.371597,0.677332 0.745065,0.321732 1.557864,0.355599 v 2.641595 q -0.643466,0.06773 -1.066798,0.355599 -0.423333,0.270933 -0.677332,0.592665 -0.237066,0.321733 -0.338666,0.575733 -0.08467,0.253999 -0.08467,0.253999 l -0.118533,-0.06773 -2.285995,-0.880532 -0.135467,-0.03387 q 0,0 -0.08467,-0.01693 -0.06773,-0.03387 -0.169333,-0.01693 -0.1016,0.01693 -0.220133,0.1016 -0.1016,0.06773 -0.1524,0.287866 -0.01693,-0.2032 0.0508,-0.372533 0.0508,-0.135466 0.169333,-0.270932 0.135467,-0.135467 0.389466,-0.186267 v -0.846665 -0.03387 q 0,-0.3048 -0.287866,-0.389466 0.524932,0 0.795865,-0.220133 0.270933,-0.237066 0.474132,-0.507999 0.220133,-0.287866 0.440266,-0.524932 0.220133,-0.237067 0.643466,-0.237067 -0.338666,0.08467 -0.440266,0.4064 -0.08467,0.304799 -0.08467,0.795865 v 0.948265 l 1.625597,0.626532 0.01693,-2.353729 q 0,-0.270933 -0.152399,-0.491066 -0.1524,-0.237066 -0.389466,-0.355599 -0.270933,-0.135466 -0.524932,-0.254 -0.254,-0.135466 -0.491066,-0.253999 -0.491066,-0.270933 -0.897465,-0.457199 -0.406399,-0.2032 -0.728132,-0.2032 v -2.472262 q 0.643465,-0.06773 1.066798,-0.338666 0.423332,-0.287866 0.660399,-0.609598 0.253999,-0.321733 0.338666,-0.575733 0.101599,-0.253999 0.101599,-0.253999 l 0.118534,0.06773 2.285995,0.880532 0.135466,0.03387 q 0,0 0.06773,0.03387 0.08467,0.01693 0.186266,0.01693 0.1016,-0.01693 0.2032,-0.1016 0.118533,-0.08467 0.169333,-0.304799 z m 9.008524,3.64066 q 0,0.186266 0.1016,0.338666 0.11854,0.152399 0.3048,0.203199 l 0.0169,0.01693 q -0.18627,0.03387 -0.3048,0.2032 -0.11854,0.1524 -0.11854,0.338666 v 2.912528 q -0.64346,0.06773 -1.0668,0.355599 -0.42333,0.270933 -0.67733,0.592665 -0.23706,0.321733 -0.33866,0.575733 -0.0847,0.253999 -0.0847,0.253999 l -0.11853,-0.06773 -2.286,-0.880532 -0.13546,-0.03387 q 0,0 -0.0847,-0.01693 -0.0677,-0.03387 -0.16933,-0.01693 -0.1016,0.01693 -0.22014,0.1016 -0.1016,0.06773 -0.1524,0.287866 -0.0169,-0.2032 0.0508,-0.372533 0.0508,-0.135466 0.16934,-0.270932 0.13546,-0.135467 0.38946,-0.186267 v -3.23426 q 0,-0.423332 -0.42333,-0.541866 l 0.0169,-0.01693 q 0.18627,-0.0508 0.28787,-0.203199 0.11853,-0.1524 0.11853,-0.338666 v -5.977455 q -0.11853,-0.03387 -0.23706,-0.1016 -0.1016,-0.0508 -0.2032,-0.118533 -0.1016,-0.06773 -0.16934,-0.186267 l 0.89747,-1.354664 q 0.44026,0.4572 0.74506,0.660399 0.3048,0.186266 0.52494,0.220133 0.23706,0.0508 0.42333,-0.0508 -0.0508,0.1016 -0.11854,0.169333 -0.0677,0.06773 -0.15239,0.1524 -0.0847,0.06773 -0.16934,0.118533 v 3.251194 q 0.18627,-0.186267 0.28787,-0.372533 0.11853,-0.186266 0.2032,-0.338666 0.0847,-0.186266 0.13546,-0.338666 l 0.11854,0.06773 2.28599,0.880532 0.13547,0.03387 q 0,0 0.0677,0.03387 0.0847,0.01693 0.18627,0.01693 0.1016,-0.01693 0.2032,-0.1016 0.11853,-0.08467 0.16933,-0.304799 0.0169,0.2032 -0.0508,0.372533 -0.0508,0.135466 -0.18626,0.287866 -0.11854,0.135466 -0.37254,0.169333 z m -1.54093,-2.201329 -1.64253,-0.643466 v 6.570121 l 1.64253,0.626532 z m 8.33119,2.201329 q 0,0.186266 0.1016,0.338666 0.11854,0.152399 0.3048,0.203199 l 0.0169,0.01693 q -0.18626,0.03387 -0.30479,0.2032 -0.11854,0.1524 -0.11854,0.338666 v 6.180655 q -0.64346,0.06773 -1.0668,0.338666 -0.42333,0.287866 -0.66039,0.609598 -0.28787,0.372533 -0.44027,0.829732 -0.84667,-0.491066 -1.5748,-0.745065 -0.3048,-0.1016 -0.64346,-0.186266 -0.32174,-0.06773 -0.6096,-0.06773 -0.28787,0.01693 -0.52493,0.118533 -0.23707,0.118534 -0.38947,0.3556 0.2032,-0.507999 0.47413,-0.931332 0.22014,-0.338666 0.52494,-0.643465 0.30479,-0.287866 0.66039,-0.287866 0.44027,0 0.93134,0.152399 0.49106,0.1524 0.88053,0.338666 0.4572,0.2032 0.89746,0.474133 v -2.895594 q -0.3556,0.372532 -0.49106,0.694265 -0.13547,0.338666 -0.13547,0.355599 l -0.11853,-0.06773 -2.286,-0.880532 -0.13547,-0.03387 q 0,0 -0.0847,-0.01693 -0.0677,-0.03387 -0.16933,-0.01693 -0.1016,0.01693 -0.22014,0.1016 -0.1016,0.06773 -0.1524,0.287866 -0.0169,-0.2032 0.0508,-0.372533 0.0508,-0.135466 0.16934,-0.270932 0.13546,-0.135467 0.38946,-0.186267 v -3.23426 q 0,-0.423332 -0.42333,-0.541866 l 0.0169,-0.01693 q 0.18627,-0.0508 0.28787,-0.203199 0.11853,-0.1524 0.11853,-0.338666 v -2.506129 q -0.11853,-0.03387 -0.23706,-0.1016 -0.1016,-0.0508 -0.2032,-0.118533 -0.1016,-0.06773 -0.16934,-0.186266 l 0.89747,-1.354664 q 0.44026,0.457199 0.74506,0.660399 0.3048,0.186266 0.52494,0.220133 0.23706,0.0508 0.42333,-0.0508 -0.0508,0.101599 -0.11854,0.169333 -0.0677,0.06773 -0.1524,0.152399 -0.0847,0.06773 -0.16933,0.118533 v 6.722521 l 1.64253,0.626532 v -6.857987 q -0.11853,-0.03387 -0.23706,-0.1016 -0.1016,-0.0508 -0.2032,-0.118533 -0.1016,-0.06773 -0.16934,-0.186266 l 0.89747,-1.354664 q 0.44026,0.457199 0.74506,0.660399 0.3048,0.186266 0.52494,0.220133 0.23706,0.0508 0.42333,-0.0508 -0.0508,0.101599 -0.11854,0.169333 -0.0677,0.06773 -0.15239,0.152399 -0.0847,0.06773 -0.16934,0.118533 v 2.997195 z m 12.03958,4.199458 q 0.13546,0.118533 0.3048,0.118533 0.18626,0 0.32173,-0.118533 l 0.13547,-0.1016 q 0,0.08467 -0.18627,0.270933 -0.18627,0.186266 -0.42333,0.423332 -0.23707,0.220133 -0.4572,0.474133 -0.22013,0.270933 -0.28787,0.524932 l -1.016,-0.948265 q -0.11853,-0.08467 -0.23706,-0.152399 -0.27093,-0.118533 -0.54187,0.03387 0.1016,-0.118533 0.22014,-0.186266 0.1016,-0.06773 0.23706,-0.118533 0.1524,-0.0508 0.32173,-0.01693 v -9.143982 l -1.64253,-0.626533 v 10.651046 q 0.254,0.06773 0.42334,0.169333 0.16933,0.1016 0.27093,0.2032 0.11853,0.118533 0.16933,0.270933 -0.33866,-0.2032 -0.72813,-0.1016 -0.37253,0.118533 -0.7112,0.474132 -0.32173,0.355599 -0.54186,0.931332 -0.2032,0.592665 -0.2032,1.354664 0.0339,-0.01693 0.1016,-0.01693 0.13546,0 0.22013,0.1016 0.1016,0.1016 0.0847,0.254 -0.0339,0.237066 -0.27094,0.270932 -0.13546,0.01693 -0.254,-0.08467 -0.1016,-0.08467 -0.1016,-0.220133 v -0.01693 -7.772385 q -0.0508,-0.338666 -0.38946,-0.457199 l -0.22013,-0.08467 0.22013,-0.08467 q 0.33866,-0.118533 0.38946,-0.457199 v -4.233325 q 0,-0.355599 -0.27093,-0.592666 l -0.72813,-0.626532 q -0.11853,-0.1016 -0.254,-0.08467 -0.13547,0 -0.23707,0.08467 l -0.11853,0.118533 q -0.13547,0.135467 -0.27093,0.287866 -0.13547,0.135467 -0.27094,0.287867 -0.23706,0.287866 -0.49106,0.677332 -0.0508,0.08467 -0.1016,0.186266 -0.0508,0.1016 -0.1016,0.203199 -0.0339,0.08467 -0.0677,0.186267 -0.0339,0.1016 -0.0677,0.220133 -0.0339,0.101599 -0.0508,0.203199 -0.0169,0.1016 -0.0339,0.220133 v 0.0508 0.01693 0.03387 0.0508 0.0508 0.03387 l 0.0169,0.01693 v 0.06773 q 0,0.06773 0.0169,0.1016 l 0.0508,0.203199 q 0.0339,0.06773 0.0339,0.08467 l 0.0339,0.0508 q 0,0.01693 0,0.03387 0.0169,0 0.0169,0.01693 0.1016,0.169333 0.27093,0.287866 0.16934,0.135466 0.3556,0.152399 0.16933,0.0508 0.38947,0.01693 0.18626,-0.01693 0.33866,-0.08467 0.16934,-0.06773 0.3048,-0.169333 0.254,-0.203199 0.38947,-0.440266 0.0339,-0.06773 0.0508,-0.118533 0.0169,-0.0508 0.0508,-0.118533 0.0508,-0.1016 0.0508,-0.203199 0.0339,-0.08467 0.0339,-0.1524 0,-0.08467 0.0169,-0.135467 v -0.08467 -0.03387 0.03387 0.08467 q 0,0.0508 -0.0169,0.135467 0,0.06773 -0.0169,0.1524 -0.0339,0.135466 -0.0508,0.220132 -0.0339,0.0508 -0.0508,0.118534 -0.0169,0.0508 -0.0508,0.101599 -0.0677,0.135467 -0.16933,0.254 -0.0847,0.118533 -0.22013,0.220133 -0.254,0.203199 -0.6604,0.287866 -0.2032,0.03387 -0.38947,-0.01693 -0.22013,-0.03387 -0.38946,-0.1524 -0.0847,-0.06773 -0.16934,-0.135467 -0.0847,-0.08467 -0.13546,-0.186266 -0.0169,-0.01693 -0.0169,-0.01693 0,-0.01693 -0.0169,-0.03387 l -0.0169,-0.03387 -0.0508,-0.1016 q -0.0169,-0.06773 -0.0339,-0.118533 -0.0169,-0.0508 -0.0339,-0.1016 0,-0.08467 -0.0169,-0.118533 v -0.0508 -0.03387 l -0.0169,-0.01693 v -0.06773 -0.0508 -0.03387 -0.01693 -0.06773 q 0,-0.118533 0.0169,-0.220133 0.0169,-0.1016 0.0508,-0.220133 0.0339,-0.118533 0.0677,-0.220133 0.0339,-0.1016 0.0677,-0.203199 0.0508,-0.118534 0.1016,-0.2032 0.0508,-0.1016 0.1016,-0.2032 0.11853,-0.186266 0.23706,-0.355599 0.11854,-0.186266 0.254,-0.355599 0.13547,-0.169333 0.254,-0.321733 0.13547,-0.1524 0.27093,-0.287866 0.13547,-0.135466 0.254,-0.254 0.13547,-0.135466 0.27094,-0.237066 0.47413,-0.440266 0.82973,-0.694265 0.16933,-0.135466 0.23706,-0.186266 0.0339,-0.01693 0.0677,-0.0508 l 0.0169,-0.01693 0.0677,0.1016 1.27,1.185331 q 0.3048,-0.253999 0.47413,-0.474132 0.18627,-0.237066 0.27094,-0.406399 0.1016,-0.186267 0.13546,-0.287866 0.0339,-0.118534 0.0339,-0.118534 0.1016,0.1524 0.28787,0.237067 l 2.25212,0.863598 q 0.28787,0.06773 0.52494,0.01693 0.18626,-0.03387 0.3556,-0.169333 0.16933,-0.135466 0.16933,-0.440266 0.0508,0.237067 -0.0339,0.4572 -0.0847,0.186266 -0.3048,0.423332 -0.22013,0.220133 -0.7112,0.406399 v 5.07999 q 0.0169,0.186267 0.13547,0.338666 0.11853,0.135467 0.3048,0.2032 l 0.254,0.06773 -0.254,0.08467 q -0.18627,0.06773 -0.3048,0.220132 -0.11853,0.135467 -0.13547,0.321733 v 2.912528 l 0.0677,0.06773 z m 4.11479,0 q -0.13546,0.118533 -0.32173,0.118533 -0.16933,-0.01693 -0.3048,-0.135466 l -0.0677,-0.06773 v -3.047994 q 0,-0.186266 0.1016,-0.338666 0.11853,-0.169333 0.3048,-0.220132 -0.18627,-0.0508 -0.3048,-0.2032 -0.1016,-0.1524 -0.1016,-0.338666 v -2.997194 q 0.0847,-0.0508 0.16933,-0.118533 0.0847,-0.08467 0.13547,-0.1524 0.0677,-0.06773 0.11853,-0.169333 -0.16933,0.08467 -0.4064,0.03387 -0.2032,-0.03387 -0.52493,-0.220133 -0.3048,-0.186267 -0.74507,-0.643466 l -0.89746,1.354664 q 0.0677,0.118533 0.16933,0.186267 0.1016,0.06773 0.2032,0.118533 0.11854,0.06773 0.23707,0.08467 v 2.523062 q 0,0.423332 -0.42333,0.541866 v 0.01693 q 0.18626,0.03387 0.3048,0.203199 0.11853,0.1524 0.11853,0.338666 v 3.776126 l 0.99906,0.948265 q 0.0677,-0.253999 0.28787,-0.524932 0.22013,-0.254 0.4572,-0.491066 0.254,-0.237066 0.44026,-0.423332 0.18627,-0.186267 0.18627,-0.270933 z m -1.47319,-9.228649 -0.9144,-0.914398 0.9144,-0.914398 0.9144,0.914398 z m 7.23052,5.029191 q 0,0.186266 0.1016,0.338666 0.11853,0.152399 0.3048,0.203199 h 0.0169 q -0.42333,0.118533 -0.42333,0.541866 v 6.316121 q -0.64347,0.06773 -1.0668,0.355599 -0.42333,0.287866 -0.67733,0.592665 -0.23707,0.321733 -0.33867,0.575733 -0.0847,0.270932 -0.0847,0.270932 -0.84666,-0.474132 -1.57479,-0.745065 -0.3048,-0.1016 -0.64347,-0.186266 -0.32173,-0.06773 -0.6096,-0.06773 -0.28786,0.01693 -0.52493,0.118533 -0.23707,0.1016 -0.38947,0.338666 0.2032,-0.507999 0.47414,-0.931332 0.22013,-0.338666 0.52493,-0.643465 0.3048,-0.287866 0.6604,-0.287866 0.44026,0 0.93133,0.1524 0.49107,0.152399 0.88053,0.338666 0.4572,0.203199 0.89747,0.474132 v -3.031061 q -0.18627,0.186267 -0.3048,0.372533 -0.1016,0.186266 -0.18627,0.338666 -0.0847,0.186266 -0.13547,0.338666 l -0.11853,-0.0508 -2.28599,-0.880532 -0.13547,-0.0508 q 0,0 -0.0847,-0.01693 -0.0677,-0.03387 -0.16933,-0.01693 -0.1016,0.01693 -0.22013,0.1016 -0.1016,0.06773 -0.1524,0.287866 -0.0169,-0.186267 0.0508,-0.3556 0.0508,-0.135466 0.16933,-0.270932 0.13547,-0.1524 0.38947,-0.2032 v -3.23426 q 0,-0.423333 -0.42334,-0.541866 h 0.0169 q 0.18626,-0.0508 0.28786,-0.203199 0.11854,-0.1524 0.11854,-0.338666 v -2.489196 q 0.64346,-0.06773 1.06679,-0.338666 0.42334,-0.287866 0.6604,-0.609598 0.28787,-0.372533 0.44027,-0.829732 l 0.11853,0.0508 2.286,0.880531 0.13546,0.0508 q 0,0 0.0677,0.03387 0.0847,0.01693 0.18626,0.01693 0.1016,-0.01693 0.2032,-0.1016 0.11854,-0.08467 0.16934,-0.304799 0.0169,0.2032 -0.0508,0.372533 -0.0508,0.135466 -0.16934,0.270932 -0.11853,0.135467 -0.37253,0.186267 z m -1.54093,4.351858 v -6.570121 l -1.64253,-0.626532 v 6.570121 z m 7.75543,-4.385725 q 0,0.186266 0.1016,0.338666 0.11854,0.1524 0.3048,0.2032 -0.18626,0.0508 -0.3048,0.203199 -0.1016,0.1524 -0.1016,0.338666 v 3.081861 q 0,0.795865 -0.37253,1.286931 -0.37253,0.507999 -0.8636,0.795865 -0.49106,0.304799 -0.98213,0.406399 -0.47413,0.118533 -0.67733,0.118533 0.37253,-0.03387 0.67733,-0.270933 0.254,-0.203199 0.4572,-0.626532 0.22013,-0.423332 0.22013,-1.185331 v -6.908786 l -1.64253,-0.626532 v 6.993452 l 0.0677,0.06773 q 0.13546,0.118533 0.3048,0.135466 0.18626,0 0.32173,-0.118533 l 0.13547,-0.118533 q 0,0.08467 -0.18627,0.270933 -0.18627,0.186266 -0.42333,0.423332 -0.23707,0.237066 -0.4572,0.491066 -0.22013,0.270933 -0.28787,0.524932 l -1.016,-0.948265 v -3.776126 q 0,-0.186266 -0.11853,-0.338666 -0.11853,-0.169333 -0.3048,-0.220132 0.42333,-0.118534 0.42333,-0.541866 v -5.943588 q -0.11853,-0.03387 -0.23706,-0.1016 -0.1016,-0.0508 -0.2032,-0.118533 -0.1016,-0.06773 -0.16933,-0.186267 l 0.89746,-1.354664 q 0.44027,0.4572 0.74507,0.660399 0.32173,0.186266 0.52493,0.220133 0.23706,0.0508 0.4064,-0.0508 -0.0508,0.1016 -0.11854,0.169333 -0.0508,0.06773 -0.13546,0.1524 -0.0847,0.06773 -0.16934,0.118533 v 3.217327 q 0.18627,-0.186266 0.28787,-0.372533 0.11853,-0.186266 0.2032,-0.338666 0.0847,-0.186266 0.13547,-0.338666 l 0.11853,0.0508 2.286,0.880532 0.11853,0.0508 q 0.13546,0.0508 0.254,0.03387 0.1016,-0.01693 0.2032,-0.08467 0.11853,-0.08467 0.18626,-0.3048 0.0169,0.2032 -0.0508,0.372533 -0.0508,0.135466 -0.18626,0.270933 -0.13547,0.135466 -0.37254,0.186266 v 2.810928 z m 3.26814,4.250258 q 0.13547,0.118533 0.3048,0.118533 0.16933,0 0.3048,-0.118533 l 0.13547,-0.1016 q 0,0.08467 -0.18627,0.270933 -0.18627,0.186267 -0.42333,0.423333 -0.23707,0.220133 -0.4572,0.474132 -0.22013,0.270933 -0.28787,0.524932 l -1.016,-0.948264 v -3.776126 q 0,-0.186267 -0.11853,-0.338666 -0.1016,-0.1524 -0.28786,-0.2032 h -0.0169 0.0169 q 0.18626,-0.0508 0.28786,-0.203199 0.11853,-0.1524 0.11853,-0.338666 v -3.471327 h -0.76199 l 0.4572,-0.795865 h 0.30479 q 0.44027,0 0.72814,-0.287866 0.28786,-0.3048 0.47413,-0.660399 0.2032,-0.423332 0.33867,-0.965198 v 1.913463 h 0.99906 l -0.64347,0.795865 h -0.35559 v 3.471327 q 0,0.423332 0.42333,0.541865 -0.42333,0.118533 -0.42333,0.541866 v 3.064927 l 0.0847,0.06773 z"
         id="text1"
         aria-label="Minneapolis by Night" />
    </g>
    <text
       xml:space="preserve"
       style="font-weight:600;font-size:8.46667px;line-height:1.25;font-family:Montserrat;-inkscape-font-specification:'Montserrat, Semi-Bold';font-variant-caps:small-caps;stroke-width:0.264583"
       x="111.68851"
       y="53.950722"
       id="text1225-1"><tspan
         id="tspan1223-4"
         style="font-style:normal;font-variant:normal;font-weight:normal;font-stretch:normal;font-size:2.82222px;font-family:Cantarell;-inkscape-font-specification:'Cantarell, Normal';font-variant-ligatures:normal;font-variant-caps:small-caps;font-variant-numeric:normal;font-variant-east-asian:normal;stroke-width:0.264583"
         x="111.68851"
         y="53.950722" /></text>
  </g>
</svg>
