<?xml version="1.0" encoding="UTF-8" standalone="no"?>
<!-- Created with Inkscape (http://www.inkscape.org/) -->

<svg
   width="286.64795mm"
   height="151.36256mm"
   viewBox="0 0 286.64795 151.36256"
   version="1.1"
   id="svg1"
   xml:space="preserve"
   inkscape:version="1.4 (e7c3feb100, 2024-10-09)"
   sodipodi:docname="manyforms.svg"
   xmlns:inkscape="http://www.inkscape.org/namespaces/inkscape"
   xmlns:sodipodi="http://sodipodi.sourceforge.net/DTD/sodipodi-0.dtd"
   xmlns="http://www.w3.org/2000/svg"
   xmlns:svg="http://www.w3.org/2000/svg"><sodipodi:namedview
     id="namedview1"
     pagecolor="#ffffff"
     bordercolor="#000000"
     borderopacity="0.25"
     inkscape:showpageshadow="2"
     inkscape:pageopacity="0.0"
     inkscape:pagecheckerboard="0"
     inkscape:deskcolor="#d1d1d1"
     inkscape:document-units="mm"
     inkscape:zoom="0.63370775"
     inkscape:cx="332.96106"
     inkscape:cy="635.93984"
     inkscape:window-width="2560"
     inkscape:window-height="1371"
     inkscape:window-x="0"
     inkscape:window-y="32"
     inkscape:window-maximized="1"
     inkscape:current-layer="layer1" /><defs
     id="defs1" /><g
     inkscape:label="Layer 1"
     inkscape:groupmode="layer"
     id="layer1"
     transform="translate(49.497283,-113.96491)"><path
       style="fill:#231300;fill-opacity:0.17142852;stroke:none"
       d="m -39.371143,259.76509 c -0.70771,-0.34157 -0.94766,-0.98088 -0.71544,-1.90614 0.14726,-0.58672 0.31583,-0.68395 1.1857,-0.68395 1.50926,0 1.46828,-0.39041 -0.0459,-0.43711 -1.56414,-0.0482 -3.07639,-1.03094 -3.07548,-1.99853 7.7e-4,-0.81719 1.61875,-2.06103 2.68787,-2.06633 0.44951,-0.002 0.98884,-0.1126 1.19852,-0.24527 0.24696,-0.15625 0.6456,-0.1045 1.13185,0.14695 0.48722,0.25196 1.07299,0.32769 1.66929,0.21582 0.91129,-0.17096 0.91867,-0.18361 0.91867,-1.57483 0,-1.86305 -1.50893,-9.04249 -1.56964,-7.46831 -0.0325,0.8431 -0.51984,0.48003 -0.71026,-0.52916 -0.10297,-0.54571 -0.23735,-0.84336 -0.29863,-0.66146 -0.23001,0.68285 -0.8312,0.29195 -1.22077,-0.79375 -0.30673,-0.85482 -0.43501,-2.77418 -0.53495,-8.00365 -0.10748,-5.62414 -0.2246,-7.24119 -0.64194,-8.86354 -0.28076,-1.09141 -0.52117,-2.19273 -0.53424,-2.4474 -0.17075,-3.32649 0.16763,-4.38414 1.34324,-4.19851 0.26109,0.0412 0.2517,-0.0601 -0.0875,-0.94364 -0.45958,-1.19713 -1.05388,-7.9645 -0.90189,-10.26982 0.16681,-2.5302 0.74634,-5.88 1.48764,-8.59896 0.29757,-1.09141 0.59586,-2.27193 0.66287,-2.62339 0.067,-0.35145 0.3371,-0.94676 0.60018,-1.32291 0.26309,-0.37615 0.42587,-0.83274 0.36173,-1.01464 -0.13469,-0.38198 0.23325,-0.44057 0.60217,-0.0959 0.13825,0.12916 0.50319,0.31068 0.81099,0.40338 0.47305,0.14246 0.58404,0.0345 0.71731,-0.69787 0.0867,-0.47652 0.23572,-1.13429 0.33112,-1.46171 0.16263,-0.55818 0.095,-0.59531 -1.08384,-0.59531 -1.00125,0 -1.38213,-0.13471 -1.87031,-0.66146 -0.33716,-0.36381 -0.49964,-0.66146 -0.36107,-0.66146 0.13857,0 0.25195,-0.1786 0.25195,-0.39688 0,-0.21828 -0.10409,-0.39687 -0.2313,-0.39687 -0.12722,0 -0.24369,-0.50602 -0.25883,-1.12448 -0.0649,-2.65047 -0.36291,-5.22011 -0.5892,-5.08025 -0.48022,0.29679 -0.23059,-0.91524 0.46439,-2.25478 0.80719,-1.55582 1.74313,-2.16469 3.36519,-2.18922 1.68246,-0.0254 2.96747,0.51693 3.80171,1.6046 1.4588,1.90194 1.66185,2.91563 0.97025,4.84368 -0.38683,1.0784 -0.92451,3.55733 -0.96845,4.46503 -0.0106,0.21828 -0.12122,0.46402 -0.24588,0.54608 -0.12466,0.0821 -0.42374,1.05738 -0.66462,2.16737 l -0.43796,2.01817 0.65809,0.87533 c 0.58085,0.77262 0.66459,1.17032 0.71353,3.38888 0.0544,2.46565 0.69259,9.68058 0.99466,11.2448 0.0843,0.43656 0.33593,1.08148 0.55918,1.43316 0.36746,0.57886 0.365,0.66933 -0.026,0.95521 -0.58631,0.42872 -0.54349,0.63398 0.0973,0.46641 0.76998,-0.20135 0.67711,0.56357 -0.27907,2.29844 -0.59799,1.085 -0.83316,1.91358 -0.93603,3.29799 -0.0756,1.01692 -0.23337,1.97218 -0.3507,2.12282 -0.11732,0.15064 -0.29235,0.60457 -0.38896,1.00875 -0.0966,0.40418 -0.45645,1.35668 -0.79967,2.11667 -1.41647,3.13644 -2.08515,6.0342 -1.4789,6.40888 0.14552,0.0899 0.26458,0.28258 0.26458,0.4281 0,0.14552 -0.12216,0.18909 -0.27147,0.0968 -0.18469,-0.11415 -0.21526,2.18573 -0.0956,7.19428 l 0.17585,7.36206 0.83065,2.38125 c 0.45686,1.30969 0.83268,2.50031 0.83515,2.64583 0.002,0.14552 0.1698,1.17914 0.37185,2.29694 0.29183,1.61452 0.47335,2.06008 0.88292,2.16718 0.40481,0.10586 0.47281,0.26608 0.31652,0.74577 -0.10948,0.33602 -0.21451,1.02374 -0.23339,1.52827 -0.032,0.85593 -0.1077,0.93186 -1.13055,1.13447 -0.80545,0.15953 -1.13882,0.37239 -1.25677,0.80246 -0.11342,0.41356 -0.22297,0.48889 -0.37329,0.2567 -0.16368,-0.25281 -0.45128,-0.20703 -1.24658,0.19843 -0.5686,0.28989 -1.217,0.53086 -1.44089,0.53549 -0.22389,0.005 -0.63819,0.18322 -0.92067,0.39687 -0.59212,0.44786 -2.12699,0.48288 -2.98631,0.0681 z m 3.56054,-4.60203 c -0.0879,-0.0879 -0.31613,-0.0973 -0.50712,-0.0209 -0.21107,0.0845 -0.14837,0.14716 0.15985,0.15985 0.27892,0.0115 0.43519,-0.051 0.34727,-0.13896 z m 1.46072,-0.54454 c -0.1819,-0.0734 -0.47956,-0.0734 -0.66146,0 -0.1819,0.0734 -0.0331,0.13345 0.33073,0.13345 0.3638,0 0.51263,-0.06 0.33073,-0.13345 z m -3.14334,-15.36904 c -0.11936,-3.54068 -0.30687,-5.29227 -0.58493,-5.46413 -0.33296,-0.20577 -0.13684,6.26787 0.22564,7.4485 0.18988,0.61846 0.37198,1.12448 0.40467,1.12448 0.0327,0 0.0123,-1.39898 -0.0454,-3.10885 z m 1.84996,-18.98386 c 0.0838,-0.21828 0.037,-0.39687 -0.10399,-0.39687 -0.14095,0 -0.25628,0.17859 -0.25628,0.39687 0,0.21828 0.0468,0.39688 0.10399,0.39688 0.0572,0 0.17251,-0.1786 0.25628,-0.39688 z m 1.72434,-4.36562 c -0.005,-0.21828 -0.16868,0.0198 -0.36482,0.52916 -0.4652,1.20801 -0.45833,1.6833 0.01,0.66146 0.1999,-0.43656 0.35976,-0.97234 0.35526,-1.19062 z m -4.31905,-2.9466 c -0.21072,-0.52922 -0.31011,-1.03524 -0.22087,-1.12448 0.0892,-0.0892 0.01,-0.16226 -0.17691,-0.16226 -0.33999,0 -0.29936,0.9461 0.18178,4.23334 l 0.17427,1.19062 0.21243,-1.5875 c 0.1578,-1.17926 0.11391,-1.83494 -0.1707,-2.54972 z m 5.82527,2.49351 c 0.40189,-0.68576 0.7307,-1.40014 0.7307,-1.5875 0,-0.18737 0.16677,-0.34066 0.37061,-0.34066 0.38481,0 0.36096,-0.1522 -0.33179,-2.11667 l -0.32656,-0.92604 -0.19173,1.32292 c -0.21755,1.50103 -0.50066,2.7829 -0.89111,4.03489 -0.1475,0.47294 -0.22827,0.8599 -0.1795,0.8599 0.0488,0 0.4175,-0.56108 0.81938,-1.24684 z m -0.58917,-2.06045 0.15903,-1.32292 -0.34367,1.05833 c -0.18902,0.58209 -0.29016,1.2123 -0.22474,1.40048 0.17345,0.49898 0.23254,0.33501 0.40938,-1.13589 z m -5.36759,-3.9503 c -0.22252,-0.26811 -0.28424,-1.04861 -0.19616,-2.48051 0.0707,-1.14911 0.0394,-2.23355 -0.0696,-2.40985 -0.10896,-0.17631 -0.27669,0.70172 -0.37273,1.95117 -0.14364,1.86862 -0.0975,2.38946 0.26011,2.93522 0.23911,0.36492 0.49511,0.60312 0.5689,0.52933 0.0738,-0.0738 -0.0119,-0.31019 -0.19052,-0.52536 z m 3.10858,-3.20046 c -0.0815,-0.0815 -0.2294,0.0654 -0.32876,0.32632 -0.14359,0.37709 -0.1132,0.40748 0.14811,0.14812 0.18082,-0.17948 0.26211,-0.39297 0.18065,-0.47444 z m 2.43235,-21.02737 c 0,-0.14552 -0.0525,-0.26458 -0.11668,-0.26458 -0.0642,0 -0.19026,0.11906 -0.28019,0.26458 -0.0899,0.14552 -0.0374,0.26459 0.11667,0.26459 0.15411,0 0.2802,-0.11907 0.2802,-0.26459 z m 0.41661,-5.78889 c -0.19769,-0.31988 -1.21036,-0.56347 -1.21036,-0.29115 0,0.12122 0.20836,0.27486 0.46302,0.34141 0.77021,0.20128 0.89751,0.19271 0.74734,-0.0503 z m -2.26869,-0.56111 c 0.48365,-0.31256 0.0659,-0.31256 -0.66146,0 -0.34892,0.14994 -0.39398,0.23235 -0.13229,0.24194 0.21828,0.008 0.57547,-0.10087 0.79375,-0.24194 z m -14.81667,76.44898 c 0,-0.15411 0.11906,-0.20662 0.26458,-0.11668 0.14553,0.0899 0.26459,0.21603 0.26459,0.2802 0,0.0642 -0.11906,0.11668 -0.26459,0.11668 -0.14552,0 -0.26458,-0.12609 -0.26458,-0.2802 z m 5.95313,0.0156 c 0.0899,-0.14552 0.21602,-0.26458 0.28019,-0.26458 0.0642,0 0.11668,0.11906 0.11668,0.26458 0,0.14552 -0.12609,0.26459 -0.2802,0.26459 -0.15411,0 -0.20661,-0.11907 -0.11667,-0.26459 z"
       id="path2"
       sodipodi:nodetypes="csssscsssssssssssssssssssssssssssssscssssscssssssssssssssscscsssssssscsccscsssssssssssssssssscscccsssscsssssscssssscssssssssssssssssssscssccssssssssssssss"
       inkscape:label="homid" /><path
       style="fill:#231300;fill-opacity:0.17142852;stroke:none;stroke-width:0.543608"
       d="m 214.64465,260.16514 c 0,-0.0838 -0.0647,-0.11232 -0.14382,-0.0634 -0.0837,0.0517 -0.14384,-0.0916 -0.14384,-0.34259 0,-0.23733 0.0658,-0.47215 0.14618,-0.52184 0.0804,-0.0497 0.1117,-0.14612 0.0696,-0.21429 -0.0421,-0.0682 -0.0108,-0.16461 0.0696,-0.2143 0.23262,-0.14376 0.16955,-0.36082 -0.10553,-0.36322 -0.18846,-0.002 -0.20453,-0.0321 -0.064,-0.12128 0.14644,-0.0929 0.17808,-0.73314 0.14383,-2.91035 -0.0399,-2.53614 -0.0125,-2.92273 0.29979,-4.22957 0.18904,-0.79106 0.52884,-1.85177 0.75511,-2.35713 0.43429,-0.96995 0.50383,-1.31053 0.26757,-1.31053 -0.0791,0 -0.14383,0.12563 -0.14383,0.27918 0,0.15354 -0.062,0.3175 -0.13785,0.36436 -0.0758,0.0469 -0.28494,0.48757 -0.46471,0.97934 -0.17977,0.49178 -0.34852,0.78344 -0.375,0.64813 -0.0265,-0.1353 0.0421,-0.45892 0.15248,-0.71914 0.37177,-0.87677 0.6639,-1.90663 0.76659,-2.7025 0.1147,-0.88901 0.42069,-1.83364 0.99171,-3.06145 0.37458,-0.80543 0.40384,-0.8311 0.91348,-0.80128 l 0.52649,0.0308 -0.0933,2.52723 c -0.0513,1.38998 -0.16732,2.81316 -0.25784,3.16261 -0.0905,0.34946 -0.12833,0.72983 -0.084,0.84526 0.0443,0.11543 0.0133,0.29087 -0.0689,0.38989 -0.0986,0.11886 -0.10261,0.30309 -0.0117,0.5423 0.0758,0.19925 0.0987,0.40129 0.0511,0.44898 -0.0477,0.0477 -0.0171,0.0867 0.0681,0.0867 0.0851,0 0.23168,0.46925 0.32565,1.04277 0.094,0.57352 0.26162,1.18611 0.37257,1.36132 0.25739,0.40648 0.25758,0.96953 4.6e-4,1.3765 -0.16922,0.26785 -0.17134,0.43293 -0.0133,1.03698 0.10339,0.39514 0.1575,0.76776 0.12024,0.82804 -0.0372,0.0603 0.0389,0.15052 0.16917,0.20053 0.17244,0.0662 0.18948,0.12023 0.0626,0.19864 -0.10324,0.0638 -0.12629,0.18545 -0.0565,0.29833 0.0648,0.10482 0.14058,0.41277 0.16844,0.68433 0.0674,0.65698 0.3005,1.06757 0.55141,0.97128 0.13648,-0.0523 0.29967,0.13326 0.49597,0.56417 0.36247,0.79567 0.63475,0.84876 0.52746,0.10285 -0.0427,-0.29665 -0.0441,-0.42054 -0.003,-0.27531 0.0557,0.19754 0.16181,0.24214 0.42115,0.17704 0.19646,-0.0493 0.34665,-0.0235 0.34665,0.0596 0,0.0806 0.10401,0.14657 0.23114,0.14657 0.14635,0 0.20076,-0.0791 0.14834,-0.21574 -0.0626,-0.16305 0.0256,-0.21575 0.36096,-0.21575 0.38999,0 0.43324,-0.0392 0.35702,-0.32361 -0.0477,-0.17799 -0.0876,-0.37216 -0.0887,-0.43149 -0.001,-0.0593 -0.0911,-0.10788 -0.20009,-0.10788 -0.10898,0 -0.27721,-0.0953 -0.37387,-0.21173 -0.14051,-0.16931 -0.12963,-0.25782 0.0543,-0.44176 0.28885,-0.28885 0.29483,-0.49714 0.0143,-0.49714 -0.11866,0 -0.21574,0.0647 -0.21574,0.14383 0,0.21914 -0.20982,0.17216 -0.48178,-0.10788 -0.58318,-0.6005 -0.92763,-1.32758 -1.01381,-2.14004 -0.16879,-1.59121 -0.0706,-7.49681 0.12999,-7.82144 0.068,-0.10999 0.13093,-0.78576 0.13988,-1.50169 0.0185,-1.47936 0.38112,-2.80604 0.79668,-2.91471 0.15542,-0.0407 0.32478,-0.31589 0.43366,-0.7048 0.0983,-0.35097 0.23451,-0.67263 0.30276,-0.71481 0.0683,-0.0422 0.12411,-0.20233 0.12411,-0.35587 0,-0.15354 0.0971,-0.27917 0.21574,-0.27917 0.15068,0 0.21574,-0.15182 0.21574,-0.5034 0,-0.27688 0.0608,-0.50341 0.13513,-0.50341 0.0743,0 0.30083,-0.53397 0.50334,-1.1866 0.20252,-0.65262 0.74041,-1.93091 1.1953,-2.84063 0.98667,-1.97319 1.17987,-2.0823 2.0561,-1.16119 0.30987,0.32574 0.52504,0.67651 0.4827,0.78687 -0.10279,0.26785 0.76525,1.2373 1.10786,1.2373 0.16949,0 0.27276,0.10073 0.27276,0.26606 0,0.23484 0.11792,0.26437 1.00528,0.2517 0.76816,-0.011 1.0261,0.0365 1.09358,0.20139 0.0916,0.22386 0.44017,-0.78622 0.5909,-1.71243 0.0669,-0.41096 0.042,-0.47541 -0.15438,-0.40005 -0.12876,0.0494 -0.2341,0.0271 -0.2341,-0.0495 0,-0.0766 -0.0819,-0.13931 -0.18191,-0.13931 -0.1073,0 -0.307,-0.48663 -0.48694,-1.1866 -0.16777,-0.65262 -0.44204,-1.65554 -0.60949,-2.2287 -0.23778,-0.81395 -0.30894,-1.47524 -0.32501,-3.02042 -0.0113,-1.08807 -0.0252,-2.43138 -0.0309,-2.98512 -0.006,-0.61203 0.12533,-1.55731 0.33573,-2.41074 0.37185,-1.5084 0.31459,-1.8647 -0.25102,-1.56199 -0.28167,0.15074 -1.47084,2.39307 -1.47084,2.77344 0,0.10736 -0.12626,0.27405 -0.28058,0.37043 -0.5014,0.31312 -0.6803,-0.0801 -0.79377,-1.74486 -0.0566,-0.83041 -0.0679,-1.56652 -0.0251,-1.6358 0.10377,-0.1679 -0.45839,-0.64079 -0.63326,-0.53271 -0.0754,0.0466 -0.13712,0.17825 -0.13712,0.29255 0,0.11429 -0.28555,0.80625 -0.63455,1.53768 -0.52357,1.09726 -0.73673,1.39277 -1.21869,1.68945 -0.32964,0.20291 -0.58581,0.47293 -0.588,0.61976 -0.002,0.15373 -0.0693,0.21975 -0.16378,0.16136 -0.088,-0.0544 -0.21739,-0.01 -0.28765,0.0994 -0.10717,0.16627 -0.15058,0.16344 -0.26938,-0.0175 -0.0947,-0.14427 -0.14236,-0.15618 -0.14383,-0.036 -0.001,0.0989 -0.0658,0.17979 -0.14351,0.17979 -0.0777,0 -0.44858,0.29442 -0.82413,0.65426 -0.50321,0.48216 -0.63312,0.68499 -0.49387,0.77105 0.14982,0.0926 0.14177,0.13489 -0.0389,0.2042 -0.16994,0.0652 -0.2278,-0.003 -0.2278,-0.26765 0,-0.266 -0.0766,-0.35506 -0.30527,-0.35506 -0.22225,0 -0.26758,0.0489 -0.16667,0.17979 0.23832,0.30914 -4e-4,0.76118 -0.94094,1.78181 -0.50021,0.5428 -1.21217,1.38445 -1.58212,1.87032 -0.49456,0.64951 -0.81379,0.92663 -1.20569,1.04665 -0.56918,0.1743 -0.56426,0.17679 -2.32735,-1.17919 -0.4958,-0.38132 -0.74118,-0.4896 -0.60306,-0.26613 0.15223,0.24632 -0.14255,0.19436 -0.35592,-0.0627 -0.42481,-0.51186 -1.95163,-0.95802 -2.1546,-0.62961 -0.0545,0.0882 -0.61213,0.17647 -1.25751,0.19905 -1.41535,0.0495 -2.0387,0.3505 -2.22645,1.07507 -0.13738,0.53016 -0.60991,1.0067 -1.00569,1.01423 -0.28285,0.005 -0.34244,0.23822 -0.0831,0.32468 0.11431,0.0381 0.0761,0.19251 -0.1187,0.47943 -0.15802,0.23278 -0.5064,0.74684 -0.77417,1.14237 -0.26778,0.39554 -0.5638,0.78388 -0.65784,0.86298 -0.21947,0.18463 -0.4023,0.79107 -0.23848,0.79107 0.0686,0 0.20242,-0.0777 0.29735,-0.1726 0.22447,-0.22448 0.21775,-0.1354 -0.0462,0.61279 -0.32118,0.91032 -0.60402,2.22761 -0.72369,3.37047 -0.10917,1.04261 -0.51048,2.38134 -1.06686,3.55892 -0.30553,0.64664 -1.14833,1.54786 -1.44755,1.54786 -0.0764,0 -0.13882,0.0971 -0.13882,0.21574 0,0.11866 0.0647,0.21574 0.14383,0.21574 0.0791,0 0.14383,-0.0647 0.14383,-0.14383 0,-0.0791 0.0782,-0.14383 0.17377,-0.14383 0.221,0 -0.97863,1.2374 -1.5042,1.55155 -0.21754,0.13004 -0.39553,0.2872 -0.39553,0.34925 0,0.23472 0.42667,0.0983 0.87657,-0.28026 l 0.46716,-0.39309 -0.51059,0.66891 c -0.62282,0.81594 -2.39883,2.39387 -3.10046,2.75467 -0.35662,0.18338 -0.45795,0.29875 -0.33121,0.37708 0.22248,0.1375 -0.66997,0.86891 -1.06021,0.86891 -0.13837,0 -0.28488,0.1273 -0.32557,0.2829 -0.0407,0.15559 -0.19644,0.32176 -0.34611,0.36926 -0.14967,0.0475 -0.27213,0.13981 -0.27213,0.20512 0,0.22328 0.37131,0.26159 0.63891,0.0659 0.19315,-0.14124 0.77275,-0.19373 2.08985,-0.18926 l 1.82257,0.006 0.85263,-0.50291 c 0.46895,-0.27661 1.14118,-0.79912 1.49385,-1.16113 0.35268,-0.36203 0.69445,-0.65822 0.75951,-0.65822 0.0651,0 0.31717,-0.22653 0.56026,-0.5034 0.24311,-0.27687 0.52699,-0.50341 0.63086,-0.50341 0.10387,0 0.25387,-0.17798 0.33332,-0.39553 0.11276,-0.30873 0.14676,-0.0483 0.15493,1.1866 0.008,1.14066 -0.0495,1.69708 -0.20439,1.99409 -0.26272,0.50375 -0.26342,0.52292 -0.0191,0.52292 0.15595,0 0.18301,0.28492 0.13322,1.40234 -0.0344,0.77129 -0.12243,1.58999 -0.1957,1.81934 -0.0733,0.22934 -0.13322,0.56914 -0.13322,0.7551 0,0.18596 -0.0647,0.33811 -0.14382,0.33811 -0.0833,0 -0.14384,0.4606 -0.14384,1.09412 0,0.91345 0.0356,1.08043 0.21575,1.01131 0.11866,-0.0455 0.21574,-0.0201 0.21574,0.0565 0,0.0766 0.12339,0.13932 0.2742,0.13932 0.20338,0 0.25477,-0.0743 0.19896,-0.28766 -0.0524,-0.20058 -0.004,-0.28766 0.15871,-0.28766 0.12866,0 0.34476,0.12945 0.48023,0.28766 0.13547,0.15821 0.28909,0.28766 0.34139,0.28766 0.0523,0 0.12894,-0.12945 0.17031,-0.28766 0.0935,-0.3576 0.61066,-0.38152 0.80337,-0.0372 0.43697,0.78081 0.21074,-0.67052 -0.27446,-1.76072 -0.35844,-0.80541 -0.58376,-2.05736 -0.61156,-3.39811 -0.0368,-1.7716 0.2721,-6.30047 0.46172,-6.77088 0.34387,-0.85307 1.01283,-3.1843 1.22987,-4.28589 0.27661,-1.40397 0.7274,-2.99299 0.93847,-3.30808 0.0979,-0.1461 0.11419,0.55669 0.0506,2.17712 -0.0517,1.31608 -0.0423,2.51346 0.0208,2.66085 0.0631,0.14739 0.13238,1.11241 0.15394,2.14449 0.0216,1.03208 0.10897,2.87669 0.19425,4.09914 0.0853,1.22245 0.13343,2.694 0.10698,3.2701 -0.0324,0.70556 0.0132,1.12807 0.13956,1.29446 0.10321,0.13586 0.1897,0.39265 0.19222,0.57063 0.003,0.17799 0.0693,0.32362 0.1484,0.32362 0.0791,0 0.14383,0.0991 0.14383,0.22026 0,0.12114 0.11326,0.262 0.25171,0.31302 0.13843,0.0511 0.45197,0.24317 0.69676,0.42698 0.56332,0.423 0.6837,0.42055 0.60096,-0.0122 -0.0516,-0.26976 -0.0155,-0.32849 0.16303,-0.26533 0.12608,0.0446 0.29992,0.13522 0.38631,0.20136 0.19488,0.14921 0.34633,0.0104 0.34633,-0.31732 0,-0.13656 0.10438,-0.28835 0.23195,-0.3373 0.17489,-0.0671 0.19288,-0.13607 0.0732,-0.28033 -0.0873,-0.10522 -0.12104,-0.22905 -0.0749,-0.27518 0.0461,-0.0462 -0.17249,-0.25351 -0.48581,-0.46085 -0.63112,-0.41766 -0.99138,-1.1014 -1.08573,-2.06059 -0.0379,-0.38544 -0.16237,-0.69235 -0.33058,-0.81523 -0.54715,-0.39967 -0.41169,-6.99672 0.16697,-8.13129 0.10086,-0.19776 0.29788,-0.89671 0.43782,-1.55321 0.13993,-0.6565 0.30784,-1.22665 0.37313,-1.267 0.0653,-0.0403 0.11869,-0.19056 0.11869,-0.33381 0,-0.14325 0.212,-0.72665 0.47111,-1.29643 l 0.47111,-1.03597 0.22957,0.54981 c 0.12627,0.3024 0.33876,1.03542 0.47222,1.62893 0.22702,1.00963 0.22723,1.19855 0.003,2.93403 -0.13156,1.02021 -0.21235,2.3145 -0.17954,2.8762 0.0418,0.71502 0.005,1.06441 -0.12291,1.16511 -0.14716,0.11593 -0.13972,0.49264 0.0383,1.9417 0.15417,1.25478 0.19084,2.27579 0.12139,3.38 -0.0547,0.87017 -0.0907,1.74393 -0.08,1.9417 0.0108,0.19777 -0.0385,0.48902 -0.10937,0.64723 -0.34255,0.76438 -0.4782,1.19697 -0.73662,2.34902 -0.28711,1.27992 -0.56821,2.03468 -0.75853,2.03667 -0.0593,5.4e-4 -0.10788,0.0658 -0.10788,0.14494 0,0.0791 0.0971,0.14384 0.21575,0.14384 0.11866,0 0.21574,0.0647 0.21574,0.14383 0,0.0791 -0.0574,0.14382 -0.1275,0.14382 -0.0701,0 -0.17089,0.30744 -0.22394,0.68319 -0.0531,0.37576 -0.12947,0.79646 -0.16985,0.9349 -0.0404,0.13844 -0.004,0.2517 0.0801,0.2517 0.0844,0 0.13734,-0.0709 0.11757,-0.15765 -0.0198,-0.0867 0.11861,-0.21738 0.30752,-0.29037 0.28931,-0.11179 0.31656,-0.10029 0.1728,0.0729 -0.24088,0.29024 0.0463,0.43043 0.41276,0.20153 0.16143,-0.10081 0.29351,-0.23245 0.29351,-0.29253 0,-0.0601 0.10145,-0.10923 0.22544,-0.10923 0.15998,0 0.19893,0.0835 0.13413,0.28766 -0.0707,0.22278 -0.0259,0.28766 0.19891,0.28766 0.15961,0 0.34985,-0.10657 0.42274,-0.23682 0.12304,-0.21987 0.15672,-0.21987 0.47063,0 0.39119,0.27399 0.56177,0.29965 0.56177,0.0845 z m -0.38591,-3.32656 c 0.0459,-0.11474 0.08,-0.0807 0.0869,0.0869 0.006,0.15162 -0.0277,0.23657 -0.0755,0.18878 -0.0478,-0.0478 -0.0529,-0.17185 -0.0114,-0.27567 z m -9.82599,-11.47941 c 0,-0.0791 0.0685,-0.14383 0.15232,-0.14383 0.0838,0 0.11231,0.0647 0.0634,0.14383 -0.0489,0.0791 -0.11743,0.14383 -0.15231,0.14383 -0.0349,0 -0.0634,-0.0647 -0.0634,-0.14383 z m 13.99705,-1.32144 c 0.0459,-0.11473 0.08,-0.0807 0.0869,0.0869 0.006,0.15161 -0.0278,0.23656 -0.0755,0.18877 -0.0478,-0.0478 -0.0529,-0.17185 -0.0114,-0.27568 z m -10.27533,-6.91521 c 0.14205,-0.14099 0.15857,-0.12447 0.0805,0.0805 -0.054,0.14184 -0.13444,0.22167 -0.17873,0.17739 -0.0443,-0.0443 -8e-5,-0.16034 0.0982,-0.25791 z m 15.55145,-5.71483 c 0,-0.0791 0.0285,-0.14383 0.0634,-0.14383 0.0349,0 0.10343,0.0647 0.15232,0.14383 0.0489,0.0791 0.0203,0.14383 -0.0634,0.14383 -0.0838,0 -0.15232,-0.0647 -0.15232,-0.14383 z m -14.48784,-1.0937 c 0.0478,-0.0478 0.17185,-0.0529 0.27568,-0.0114 0.11473,0.0459 0.0806,0.08 -0.0869,0.0869 -0.15162,0.006 -0.23657,-0.0277 -0.18878,-0.0755 z m 9.59764,-1.54953 c 0,-0.0299 0.11326,-0.14314 0.2517,-0.25171 0.22812,-0.1789 0.23321,-0.17381 0.0543,0.0543 -0.18789,0.23959 -0.306,0.31578 -0.306,0.1974 z m 0.70129,-0.7032 c 0.14205,-0.14099 0.15858,-0.12447 0.0805,0.0805 -0.054,0.14184 -0.13444,0.22167 -0.17872,0.17739 -0.0443,-0.0443 -9e-5,-0.16035 0.0982,-0.25791 z m -2.42725,17.43325 c 0,-0.0838 -0.0647,-0.11232 -0.14383,-0.0634 -0.0791,0.0489 -0.14383,0.11744 -0.14383,0.15232 0,0.0349 0.0647,0.0634 0.14383,0.0634 0.0791,0 0.14383,-0.0685 0.14383,-0.15232 z m 0.48607,-1.2078 c 0.15251,-0.23277 0.17879,-0.38241 0.0781,-0.44465 -0.0835,-0.0516 -0.16367,-0.0712 -0.17819,-0.0434 -0.0145,0.0277 -0.10596,0.19299 -0.20323,0.36731 -0.2469,0.44252 0.0223,0.54973 0.30334,0.1208 z"
       id="path3"
       sodipodi:nodetypes="cssssccssssssssscssscssssssssssssssssssscssssssssssssssssssssssssssssssssssssssssssssssssssssscssssssssssssssssssssssscsssssssssscsssscsssscssssssscsssssssssssssssssssscscssscsssscssssscscsssssscssccccsccscsssssssssssssssssccsscssssssssssssscssssssssssssssssssssssssssssssss"
       inkscape:label="lupus" /><path
       style="fill:#231300;fill-opacity:0.17142852;stroke:none;stroke-width:1.2195"
       d="m 61.557062,264.8435 c -0.109879,-0.28617 -0.561466,-0.52032 -1.003666,-0.52032 -0.47648,0 -1.170688,-0.39255 -1.704179,-0.96364 -0.776998,-0.83179 -0.954642,-0.89802 -1.298258,-0.484 -0.598648,0.72134 -1.727323,0.57816 -2.577662,-0.32697 -0.416797,-0.44366 -0.936691,-0.80665 -1.155334,-0.80665 -0.231972,0 -0.33064,-0.2558 -0.236923,-0.61421 0.110855,-0.42363 -0.04853,-0.68058 -0.513442,-0.82814 -1.019946,-0.32372 -1.099481,-1.35585 -0.349543,-4.53587 1.163004,-4.93149 1.583631,-7.34348 1.602058,-9.18666 0.0098,-0.97604 0.160716,-1.9924 0.335469,-2.2586 0.57321,-0.87318 0.98913,0.30769 0.767109,2.17794 -0.2483,2.09161 0.332519,2.31169 0.85151,0.32265 0.44787,-1.71641 1.973844,-6.86508 3.227517,-10.88968 0.525162,-1.68587 1.263296,-4.51718 1.640302,-6.2918 0.791242,-3.72442 1.265587,-4.46259 2.75583,-4.28862 0.567906,0.0664 0.961569,0.006 0.874814,-0.13468 -0.0867,-0.14038 -0.0037,-0.25524 0.183961,-0.25524 0.187935,0 0.341701,0.26324 0.341701,0.58496 0,0.32172 0.399286,0.96773 0.887302,1.43556 l 0.887301,0.85063 -0.111831,-1.59689 -0.111831,-1.59691 h -1.377306 c -0.888728,0 -1.668313,-0.22891 -2.197681,-0.64531 -0.451212,-0.35492 -1.031995,-0.64532 -1.290625,-0.64532 -0.583465,0 -2.17056,-1.21931 -2.17056,-1.66755 0,-0.18155 -0.326688,-0.7881 -0.725975,-1.34788 -0.675318,-0.94675 -0.733402,-1.41515 -0.83229,-6.71155 -0.104516,-5.59835 -0.09232,-5.71997 0.725975,-7.25722 0.45776,-0.8599 0.83229,-1.7315 0.83229,-1.9369 0,-0.20542 0.510431,-1.13197 1.134298,-2.05902 0.623855,-0.92706 1.108762,-1.84912 1.077554,-2.04903 -0.172826,-1.10711 3.494892,-6.56278 4.043297,-6.01438 0.184496,0.18451 0.140693,0.4913 -0.114024,0.79815 -0.22752,0.27415 -0.587209,1.33297 -0.799303,2.35295 -0.306739,1.47505 -0.299788,2.18457 0.0339,3.46777 0.230765,0.88731 0.422371,2.07834 0.425798,2.64674 0.0037,0.5684 0.181973,1.41918 0.396774,1.89062 0.333568,0.73212 0.306995,0.91827 -0.182192,1.27597 -1.179577,0.86253 -0.618173,4.63773 0.890509,5.98835 0.942751,0.84397 1.032494,0.86369 1.610216,0.35388 0.965569,-0.85206 2.826474,-3.90787 2.601491,-4.2719 -0.260678,-0.4218 0.359579,-1.32213 2.406238,-3.49279 1.143688,-1.21296 1.633375,-1.99439 1.617558,-2.58125 -0.02585,-0.96087 -0.562222,-2.42996 -0.601758,-1.64829 -0.05109,1.01082 -0.709658,2.90391 -1.010166,2.90391 -0.299006,0 -0.102678,-1.40356 0.292642,-2.0916 0.100118,-0.17434 0.200143,-0.53732 0.222179,-0.80664 0.02207,-0.26931 0.220204,-1.43451 0.44037,-2.58933 0.314337,-1.64886 0.316397,-2.30699 0.0098,-3.06525 l -0.3907,-0.96556 -0.243862,0.96797 c -0.134132,0.53239 -0.480736,2.41992 -0.770231,4.19454 -0.289495,1.77462 -0.583417,3.44437 -0.653147,3.71056 -0.06975,0.26619 -0.137887,0.59288 -0.15146,0.72597 -0.01354,0.1331 -0.186815,0.242 -0.384958,0.242 -0.227594,0 -0.284812,-0.32677 -0.155363,-0.88731 0.275873,-1.1946 0.471467,-2.30735 0.992227,-5.64488 0.651392,-4.17484 0.424298,-4.7195 -2.578308,-6.18363 -1.474792,-0.71915 -2.415483,-1.37448 -2.415483,-1.68278 0,-0.40459 0.297739,-0.33046 1.498158,0.37302 l 1.498143,0.87799 -1.868844,-2.37994 c -2.427288,-3.09109 -4.378682,-5.12253 -4.920672,-5.12253 -0.635684,0 -1.992612,-1.66606 -2.004417,-2.46108 -0.0061,-0.37755 -0.227983,-0.86722 -0.494186,-1.08814 -0.402712,-0.33424 -0.48398,-0.29352 -0.48398,0.24251 0,0.67822 1.557705,3.71409 2.000185,3.89825 0.367653,0.15303 0.321227,1.02175 -0.05463,1.02175 -0.172168,0 -0.64405,-0.57966 -1.048641,-1.28813 -1.219137,-2.13485 -1.542254,-1.71695 -1.542254,1.9947 0,3.89243 -0.380786,6.18487 -1.673385,10.0742 -0.52565,1.5816 -0.885949,3.14247 -0.80067,3.46856 0.08525,0.3261 0.02342,0.59289 -0.1374,0.59289 -0.16085,0 -0.292458,0.41745 -0.292458,0.92765 0,1.60247 -0.385982,2.94424 -0.846973,2.94424 -0.244008,0 -0.443651,0.2526 -0.443651,0.56134 0,0.9628 -1.333575,6.93215 -1.972393,8.82885 -0.334872,0.99425 -0.608868,2.27918 -0.608868,2.85541 0,0.5762 -0.362981,2.41189 -0.806644,4.07928 -0.443651,1.66742 -0.806632,3.90348 -0.806632,4.96904 0,1.72229 -0.07171,1.93739 -0.645319,1.93739 -0.43637,0 -0.645318,-0.2151 -0.645318,-0.66436 0,-0.39393 -0.141973,-0.57662 -0.348798,-0.44879 -0.191839,0.11854 -0.261667,0.56273 -0.155181,0.98703 0.243057,0.96839 -0.340165,1.02455 -0.645611,0.0621 l -0.225118,-0.70927 -0.563222,0.69556 c -0.596709,0.73689 -0.965984,0.64324 -0.965984,-0.245 0,-0.81903 -2.064061,-3.06222 -2.54448,-2.7653 -0.221887,0.13713 -0.321835,0.46193 -0.22213,0.72177 0.133156,0.347 0.01769,0.42052 -0.434835,0.2769 -0.348603,-0.11059 -0.728938,-0.0148 -0.875935,0.22089 -0.381604,0.61166 -0.478212,1.54575 -0.159876,1.54575 0.151742,0 0.217484,0.39928 0.146108,0.88731 -0.370836,2.53538 -0.880241,4.80407 -1.159163,5.16251 -0.220228,0.28299 -0.169119,0.40332 0.171314,0.40332 0.507028,0 1.207114,-2.14732 1.207114,-3.70251 0,-0.56995 0.230739,-0.92277 0.725986,-1.11013 0.399286,-0.15106 0.763561,-0.24189 0.809512,-0.20183 0.124497,0.10852 -0.54904,6.3764 -0.755549,7.03107 -0.104872,0.33261 -0.498162,0.56466 -0.956874,0.56466 -0.587002,0 -0.826937,-0.21848 -0.974446,-0.88732 -0.321568,-1.45798 -0.408006,-1.56708 -0.63916,-0.80663 -0.252434,0.83045 -0.790718,0.9783 -0.790718,0.21717 0,-0.27985 -0.438383,-0.94717 -0.974166,-1.48297 l -0.974166,-0.97416 0.974166,-1.10953 c 0.535783,-0.61021 0.974166,-1.36709 0.974166,-1.68192 0,-0.31484 0.213167,-0.85426 0.473724,-1.19874 0.260544,-0.34447 0.478332,-0.94264 0.483979,-1.32924 0.0061,-0.38662 0.229166,-0.92185 0.496723,-1.1894 0.272289,-0.27229 0.35314,-0.56886 0.183618,-0.67363 -0.166558,-0.1029 -0.394029,-0.0396 -0.505503,0.14077 -0.379237,0.61363 -1.190442,0.37333 -0.979836,-0.29026 0.107927,-0.33997 0.05195,-0.70727 -0.124242,-0.8162 -0.327543,-0.20241 -1.319099,2.64977 -1.319099,3.79435 0,0.64916 -1.204784,1.9257 -1.591729,1.68656 -0.350665,-0.21672 -0.129327,-4.11129 0.299116,-5.26331 0.215888,-0.58049 0.667879,-1.20281 1.004435,-1.38294 0.336543,-0.18011 0.826485,-0.84104 1.088749,-1.46873 0.262264,-0.6277 0.757817,-1.38474 1.101237,-1.68231 0.741085,-0.64219 1.647424,-3.66041 1.647424,-5.48616 0,-0.7131 0.567599,-2.86869 1.261331,-4.7902 0.706768,-1.95761 1.35627,-4.44971 1.47728,-5.66817 0.118778,-1.196 0.340543,-2.25157 0.492844,-2.34569 0.428652,-0.26491 1.285747,-2.12418 1.285747,-2.78913 0,-0.32767 0.129303,-0.59574 0.287349,-0.59574 0.274165,0 0.571758,-1.29347 0.779449,-3.38789 0.0528,-0.5324 0.255801,-1.25837 0.451114,-1.6133 0.464566,-0.84416 1.13659,-3.14373 1.038068,-3.55203 -0.04243,-0.17592 0.0098,-0.53765 0.116096,-0.80384 0.106216,-0.26619 0.258288,-1.57296 0.337811,-2.90392 0.07952,-1.33096 0.254678,-2.76315 0.389225,-3.18263 0.222106,-0.6925 0.17368,-0.7402 -0.526052,-0.5181 -0.651184,0.20667 -0.710183,0.17168 -0.380444,-0.22562 0.478931,-0.57707 0.784888,-2.77614 0.405163,-2.91207 -0.151631,-0.0543 -0.375944,-1.69751 -0.498467,-3.65161 -0.210423,-3.3559 -0.175765,-3.67041 0.624916,-5.67181 0.466236,-1.16541 0.847705,-2.50638 0.847705,-2.97997 0,-0.53087 0.433041,-1.3404 1.129297,-2.11107 0.621112,-0.6875 1.129298,-1.40178 1.129298,-1.5873 0,-0.1855 0.385226,-0.61791 0.856059,-0.96089 l 0.856058,-0.6236 -1.017385,0.14932 c -0.782743,0.11488 -1.017385,0.0293 -1.017385,-0.37129 0,-0.4013 0.330141,-0.52061 1.440719,-0.52061 1.143737,0 1.670167,-0.20143 2.553663,-0.97716 0.612124,-0.53744 1.298223,-0.93673 1.524694,-0.8873 0.22646,0.0494 0.469711,-0.20054 0.540564,-0.55546 0.07086,-0.35492 0.441407,-0.89031 0.823462,-1.18978 0.675024,-0.52905 0.653683,-0.53983 -0.754963,-0.38163 -1.356587,0.15235 -1.409427,0.13035 -0.823304,-0.34286 0.344483,-0.27812 0.797011,-0.50566 1.005618,-0.50566 0.208605,0 1.160931,-0.31676 2.116268,-0.70394 1.761872,-0.71402 2.988119,-1.64791 2.631736,-2.00429 -0.107559,-0.10761 -0.02622,-0.19569 0.180765,-0.19569 0.207032,0 0.376432,0.15377 0.376432,0.3417 0,0.18794 0.152387,0.24751 0.338664,0.1324 0.209449,-0.12946 0.08634,-0.42812 -0.322664,-0.78287 -1.067762,-0.92606 -0.848779,-1.7915 0.560124,-2.21363 0.671782,-0.20127 1.508364,-0.63326 1.859054,-0.95998 0.350689,-0.32672 0.926312,-0.76139 1.279148,-0.96594 0.558295,-0.32366 0.463614,-0.37318 -0.729755,-0.38171 -1.819018,-0.0131 -1.797726,-0.64363 0.06804,-2.0162 1.406804,-1.0349 1.829663,-2.01635 1.15826,-2.68827 -0.168461,-0.1686 -0.977446,-1.61329 -1.797761,-3.21044 -0.820328,-1.59716 -1.798579,-3.23254 -2.173915,-3.63417 -0.796681,-0.85251 -0.542075,-1.25806 0.981081,-1.56268 0.98691,-0.19739 1.070921,-0.13524 1.680862,1.24364 0.484808,1.096 0.860034,1.4954 1.532338,1.63107 0.489676,0.0988 1.144407,0.27797 1.454962,0.39812 0.501614,0.19406 0.564649,-0.0115 0.564649,-1.84164 0,-1.6647 0.124558,-2.16673 0.649001,-2.61577 0.800401,-0.68533 0.964288,-0.69429 0.964288,-0.0527 0,0.27667 0.14895,0.41097 0.331006,0.29846 0.182047,-0.11255 0.492382,0.25836 0.689623,0.82418 l 0.358628,1.02875 1.193687,-1.89185 c 0.656525,-1.04052 1.634533,-2.69045 2.173352,-3.66648 0.538833,-0.97603 1.572766,-2.77822 2.297656,-4.00486 0.72489,-1.22663 1.54623,-3.04158 1.825213,-4.03321 0.738816,-2.62614 1.77864,-5.8419 2.278388,-7.04614 0.370091,-0.8918 0.599062,-1.04864 1.530924,-1.04864 0.643501,0 1.296172,0.23306 1.581327,0.56464 0.564819,0.65682 1.547777,4.56673 1.561497,6.21115 0.0048,0.62113 0.217935,1.40478 0.472809,1.74148 0.254862,0.3367 0.377249,0.75155 0.271983,0.92188 -0.110487,0.1787 0.0683,0.22727 0.422627,0.11487 1.044373,-0.33147 0.808132,2.17086 -0.40786,4.32029 -0.985458,1.74192 -2.468627,6.33309 -3.074909,9.51838 -0.168876,0.88731 -0.436249,3.32486 -0.594148,5.41678 l -0.287093,3.8035 1.620801,1.74144 c 0.982288,1.0554 1.800421,1.67252 2.076732,1.56649 0.260021,-0.0998 0.455919,0.0207 0.455919,0.28026 0,0.25037 0.486809,0.92705 1.081799,1.50372 0.794779,0.77034 1.446206,1.08187 2.455348,1.17425 1.578839,0.14452 1.969856,0.39253 1.293367,0.82035 -0.64533,0.40811 -1.827554,0.38577 -2.641686,-0.05 -0.658854,-0.3526 -0.657976,-0.33936 0.04317,0.64532 0.522625,0.73394 0.971203,1.00531 1.66185,1.00531 0.656099,0 0.945996,0.15983 0.945996,0.5216 0,0.52731 -0.121218,0.52538 -2.258596,-0.0361 l -0.806644,-0.21188 0.764376,0.67198 c 0.420409,0.36959 1.546157,0.89925 2.501665,1.17701 1.037775,0.30169 1.875968,0.76418 2.08172,1.14864 0.189436,0.35397 0.923143,1.16642 1.63046,1.80544 1.542634,1.39368 2.114394,2.66178 2.571434,5.70319 0.21017,1.3986 0.64828,2.75707 1.12726,3.49537 1.02223,1.57561 2.3907,4.68263 2.3907,5.42793 0,0.32236 0.12644,0.66427 0.28098,0.75978 0.15454,0.0954 0.36767,0.60708 0.47361,1.13681 0.10597,0.52975 0.63289,1.57092 1.17098,2.31374 0.53809,0.74279 0.97835,1.54657 0.97835,1.78613 0,0.23956 0.15497,0.43557 0.34439,0.43557 0.18943,0 0.26352,0.25484 0.16467,0.5663 -0.0989,0.31147 -0.0704,1.20693 0.0633,1.98995 l 0.24303,1.42364 1.44759,-1.98666 c 0.79617,-1.09267 1.63418,-1.98813 1.86224,-1.98993 0.32262,-0.002 0.33338,0.14861 0.0485,0.68095 -0.25736,0.48092 -0.26074,0.61908 -0.0115,0.46495 0.61001,-0.377 0.40414,0.15682 -1.26542,3.28153 l -1.62028,3.03244 0.7035,1.02761 c 0.38693,0.56519 1.09912,1.4632 1.58266,1.99557 0.48353,0.53239 1.10805,1.40357 1.38784,1.93595 0.43581,0.8293 0.73124,0.68939 0.56431,-0.26728 -0.0256,-0.14699 0.21125,-0.21507 0.52643,-0.15125 0.39744,0.0805 0.54394,0.36014 0.47803,0.91259 -0.5299,4.44057 0.75455,11.09372 2.98806,15.47745 1.08799,2.13541 1.56533,2.76508 2.15609,2.84417 0.81423,0.10898 2.3654,2.3026 2.7351,3.86784 0.11301,0.47874 0.4623,1.16084 0.77605,1.51575 0.66633,0.75377 1.51063,3.12911 1.6056,4.51721 0.17484,2.55538 -0.2663,2.76984 -1.32734,0.64531 -0.69728,-1.39618 -0.93731,-1.59075 -1.82073,-1.47604 -0.23067,0.03 -0.40331,-0.29896 -0.40331,-0.76842 0,-0.45142 -0.16419,-0.82078 -0.36487,-0.82078 -0.23555,0 -0.30108,0.39319 -0.18487,1.10932 0.18086,1.1145 -0.35958,2.04238 -0.90265,1.5498 -0.14504,-0.13156 -0.16799,0.0269 -0.051,0.35184 0.11708,0.32508 0.21274,0.92522 0.21274,1.33367 0,0.44652 0.23393,0.80379 0.5867,0.89604 0.56821,0.14858 0.83724,-0.24107 1.48348,-2.14871 0.12159,-0.3588 0.323,-0.49432 0.47963,-0.32267 0.4159,0.45578 0.67214,2.68064 0.33286,2.89034 -0.16578,0.10244 -0.30142,0.58711 -0.30142,1.07701 0,0.54872 -0.31067,1.16089 -0.8091,1.59425 -1.06545,0.92641 -1.38548,0.88742 -1.50872,-0.1838 -0.11842,-1.02897 -0.67325,-1.07821 -0.90874,-0.0806 -0.0888,0.37587 -0.30652,0.68718 -0.48398,0.6918 -0.17746,0.005 -0.50416,0.15902 -0.726,0.34311 -0.29447,0.24439 -0.40331,0.19345 -0.40331,-0.18876 0,-0.28792 -0.1452,-0.52349 -0.32266,-0.52349 -0.17746,0 -0.32265,0.13315 -0.32265,0.29588 0,0.45023 -2.25403,0.17416 -2.7245,-0.33369 -0.62314,-0.67267 -1.92939,-3.15962 -1.75248,-3.33653 0.0852,-0.0852 0.69185,-0.068 1.348,0.0387 0.89618,0.14543 1.19304,0.34839 1.19304,0.81573 0,0.35555 0.14636,0.53169 0.34153,0.41105 0.20054,-0.12393 0.2529,-0.6147 0.12683,-1.1887 -0.14863,-0.6768 -0.10473,-0.9097 0.14244,-0.75688 0.22669,0.1401 0.35716,-0.0907 0.35716,-0.63184 0,-1.3254 0.78124,-0.78058 0.97277,0.67838 0.1434,1.09229 0.19594,1.16037 0.38408,0.49752 0.14277,-0.50301 0.38232,-0.7048 0.69448,-0.58501 0.91766,0.35214 1.18,-1.68966 0.3082,-2.39881 -0.47674,-0.3878 -0.5181,-0.37265 -0.33279,0.12182 0.16492,0.44008 0.0401,0.56465 -0.56587,0.56465 -0.4276,0 -0.8672,-0.14519 -0.97689,-0.32266 -0.34303,-0.55506 -0.8104,-0.35477 -1.12929,0.48399 -0.22723,0.59765 -0.54281,0.80664 -1.21811,0.80664 -1.10476,0 -1.6858,-0.52269 -1.6858,-1.51649 0,-0.40816 -0.13057,-0.74212 -0.29016,-0.74212 -0.1596,0 -0.37902,-0.68967 -0.48761,-1.53261 -0.3179,-2.4677 -0.4706,-3.30956 -1.14014,-6.28569 -0.99557,-4.4254 -1.32287,-5.33069 -1.91172,-5.28772 -0.39383,0.0288 -0.55074,-0.29729 -0.62365,-1.29589 -0.0856,-1.17224 -0.20748,-1.35633 -1.00358,-1.51554 -1.65635,-0.33128 -2.85318,-1.66832 -3.26378,-3.64619 -0.20491,-0.98704 -0.29732,-2.08233 -0.20537,-2.43397 0.11877,-0.45431 0.037,-0.58936 -0.28292,-0.46662 -0.57858,0.22202 -0.94158,-0.35536 -0.54185,-0.86186 0.42597,-0.53978 0.6879,-2.1638 0.34898,-2.1638 -0.15285,0 -0.27791,-0.2178 -0.27791,-0.48399 0,-0.26621 -0.14519,-0.48399 -0.32265,-0.48399 -0.17746,0 -0.32266,-0.21779 -0.32266,-0.48398 0,-0.2662 0.1452,-0.48399 0.32266,-0.48399 0.67829,0 0.26474,-1.4145 -1.2988,-4.4424 -0.8918,-1.72702 -2.043723,-3.86602 -2.559835,-4.75332 -0.516113,-0.88732 -1.117773,-2.51025 -1.337014,-3.60653 -0.286897,-1.43456 -0.561063,-2.03571 -0.978166,-2.1448 -0.602624,-0.15758 -0.697769,0.0185 -1.102469,2.04078 -0.124303,0.62111 -0.861119,2.39685 -1.637374,3.94609 -0.776254,1.54925 -1.411378,3.02712 -1.411378,3.28419 0,0.25706 -0.228581,0.69597 -0.507955,0.97534 -0.462174,0.46217 -0.458102,0.5271 0.04525,0.72025 0.519369,0.19931 0.518443,0.23773 -0.01512,0.6279 -0.769462,0.56265 -0.413163,2.97614 0.699573,4.73884 0.446968,0.70805 1.454293,2.60564 2.238486,4.21686 0.784206,1.61122 1.640423,3.04959 1.902723,3.19638 0.262288,0.14679 0.476894,0.54322 0.476894,0.88098 0,1.04217 0.635612,2.07905 1.62118,2.6447 1.590595,0.91287 3.807685,4.97063 4.812975,8.80878 0.18592,0.70984 0.34104,3.46856 0.3447,6.13048 0.005,3.38713 0.14622,5.22725 0.47163,6.13048 0.25572,0.70985 0.47133,2.32419 0.47912,3.58741 l 0.0142,2.29677 -1.25516,0.16837 c -0.69035,0.0926 -1.55823,0.47141 -1.92862,0.8418 -0.37597,0.37597 -0.89049,0.59017 -1.16477,0.48492 -0.27021,-0.1037 -0.491301,-0.0339 -0.491301,0.15504 0,0.34589 -1.263857,0.28871 -3.003973,-0.13592 -0.752011,-0.1835 -0.93735,-0.10416 -1.086274,0.46539 -0.09877,0.37765 -0.307811,0.68663 -0.464577,0.68663 -1.148615,0 1.696824,6.49519 4.479459,10.22516 0.505026,0.67696 0.953216,0.97035 1.308976,0.85688 0.43043,-0.1373 0.44911,-0.10715 0.0915,0.1475 -0.35563,0.25317 0.049,0.83815 1.93594,2.79892 2.56987,2.67041 3.0806,2.97421 5.73533,3.41161 1.47165,0.24246 1.96377,0.5197 3.22657,1.81766 0.81953,0.84236 1.59895,1.50025 1.73205,1.46195 0.13309,-0.0382 0.24421,0.25707 0.24693,0.65635 0.002,0.39929 0.138,0.93632 0.30063,1.19337 0.31074,0.49116 -0.77824,1.76994 -2.08018,2.44273 -0.38319,0.19802 -0.71084,0.77517 -0.80665,1.42086 -0.1623,1.09394 -1.04627,1.99008 -1.5078,1.52855 -0.13646,-0.13645 -0.0346,-0.3832 0.22652,-0.54829 0.31533,-0.19941 -0.41888,-0.30182 -2.18728,-0.30511 -2.15324,-0.003 -2.66192,0.0876 -2.66192,0.47904 0,0.26619 0.1452,0.48399 0.32266,0.48399 0.17746,0 0.32266,0.1452 0.32266,0.32266 0,0.66845 -0.99665,0.28924 -1.29378,-0.49226 -0.31556,-0.83001 -0.46154,-0.92177 -2.00207,-1.2587 -0.60319,-0.13191 -0.81871,-0.34066 -0.69216,-0.6704 0.10109,-0.26338 0.32821,-0.38957 0.50478,-0.28044 0.67918,0.41976 -0.3775,-1.04746 -1.62462,-2.25577 -0.70788,-0.68585 -1.446372,-1.14853 -1.641101,-1.02818 -0.194728,0.12036 -0.441163,-0.008 -0.547637,-0.28562 -0.106456,-0.27743 -0.401955,-0.50444 -0.656646,-0.50444 -0.514699,0 -0.959265,-0.3166 -2.605212,-1.85528 -0.616952,-0.57674 -1.235479,-1.04863 -1.374501,-1.04863 -0.346445,0 -0.646013,-1.24999 -0.43276,-1.80573 0.210118,-0.54754 0.750059,-0.60256 0.750059,-0.0765 0,0.20703 0.08244,0.29394 0.183278,0.19314 0.634672,-0.63468 -2.342423,-7.23507 -4.207512,-9.32831 -0.462078,-0.51861 -0.75283,-1.0842 -0.646111,-1.25689 0.106709,-0.17268 -0.03293,-0.40108 -0.310398,-0.50753 -0.277433,-0.10646 -0.504431,-0.43213 -0.504431,-0.72371 0,-0.29158 -0.615721,-1.39808 -1.368256,-2.45887 -1.078726,-1.52061 -1.392598,-1.79371 -1.483279,-1.29063 -0.148973,0.82649 -0.697695,1.42286 -0.697695,0.75827 0,-0.27109 -0.371543,-1.40726 -0.825658,-2.52485 -0.454113,-1.11758 -0.754669,-2.21697 -0.667903,-2.44309 0.0867,-0.22609 0.677441,-0.58261 1.312612,-0.79223 0.635173,-0.20963 1.085884,-0.49276 1.001581,-0.62917 -0.257801,-0.41713 1.218308,-1.02013 2.739892,-1.11927 0.792364,-0.0516 1.767347,-0.11633 2.166645,-0.14392 0.399286,-0.0276 0.725976,-0.2054 0.725976,-0.39525 0,-0.47818 -1.688386,-2.90429 -4.046345,-5.81433 -1.091384,-1.34694 -2.187439,-2.90778 -2.435666,-3.46857 -0.498138,-1.12536 -0.775486,-1.26606 -1.055787,-0.53561 -0.102196,0.26618 -0.344848,0.48399 -0.539331,0.48399 -0.77339,0 -4.829149,5.5749 -4.829149,6.63796 0,0.38727 -0.205338,0.87454 -0.456285,1.08281 -0.392652,0.32587 -0.392921,0.50013 -0.0024,1.24948 0.571721,1.09588 0.573551,1.51604 0.0085,2.08052 -0.247057,0.24705 -0.50115,0.70068 -0.564661,1.00806 -0.06354,0.30738 -0.22274,0.55269 -0.353859,0.54515 -0.450274,-0.026 -2.826842,2.79452 -2.826842,3.35483 0,0.73705 -1.89054,2.48853 -2.549883,2.36233 -0.283447,-0.0542 -0.805742,-0.64984 -1.160676,-1.32354 -0.441138,-0.83735 -0.928153,-1.28319 -1.539325,-1.40915 -0.491711,-0.10129 -0.972166,-0.3107 -1.067677,-0.46525 -0.327543,-0.52997 -1.117457,-0.28079 -1.410695,0.44499 -1.744031,4.3167 -3.887397,12.62606 -3.887397,15.07062 0,1.25143 -0.413541,1.74536 -0.754279,0.90091 -0.108167,-0.268 -0.17129,-0.23554 -0.188217,0.0968 -0.04378,0.85985 0.692866,1.27449 2.26423,1.27449 1.332477,0 1.636935,0.13851 2.523078,1.14777 0.992666,1.13058 1.007153,1.19614 0.968337,4.38151 l -0.03939,3.23374 -1.383353,0.59298 c -0.760841,0.32613 -1.47361,0.73901 -1.583925,0.9175 -0.110361,0.1785 -0.670792,0.42508 -1.245503,0.54796 -0.574709,0.12288 -1.22471,0.36819 -1.444438,0.54514 -0.280739,0.22609 -0.45887,0.16705 -0.599172,-0.19859 z m 3.013471,-1.55374 c 0.222826,-0.18493 0.400713,-0.57253 0.395323,-0.86137 -0.0085,-0.46051 -0.05024,-0.45566 -0.33869,0.0395 -0.180886,0.31057 -0.503161,0.56927 -0.71617,0.57492 -0.213008,0.006 -0.677683,0.24067 -1.032604,0.52229 -0.618965,0.49113 -0.605867,0.50282 0.320848,0.28646 0.531393,-0.12408 1.148481,-0.37688 1.371293,-0.56181 z m -2.821438,0.24581 c 0,-0.0783 -0.145193,-0.23202 -0.322653,-0.34169 -0.177473,-0.10967 -0.322666,-0.0456 -0.322666,0.14229 0,0.18793 0.145193,0.34169 0.322666,0.34169 0.17746,0 0.322653,-0.064 0.322653,-0.14229 z m -2.040941,-2.03565 c 0.03439,-1.4904 0.02768,-1.50151 -0.241471,-0.40332 -0.243533,0.9935 -0.192485,1.93594 0.104872,1.93594 0.05573,0 0.117193,-0.68967 0.136631,-1.53262 z m -2.660722,0.64532 c -0.160607,-0.1331 -0.382396,-0.36306 -0.492857,-0.51104 -0.110488,-0.14797 -0.289094,-0.039 -0.396957,0.242 -0.141193,0.36795 -0.0037,0.51104 0.492869,0.51104 0.378921,0 0.557552,-0.10886 0.396945,-0.242 z m 51.432928,0.0805 c -0.24973,-0.24971 -2.82458,-0.29399 -3.06586,-0.0527 -0.1178,0.11781 0.56011,0.21426 1.50658,0.21426 0.94646,0 1.64813,-0.0727 1.55928,-0.16156 z m 2.15981,-0.42145 c -0.0993,-0.0993 -0.35969,-2e-4 -0.57857,0.22031 -0.31629,0.31866 -0.27922,0.35572 0.18063,0.18063 0.3182,-0.12122 0.49728,-0.30159 0.39794,-0.40094 z m -50.603424,-3.20208 c -0.08182,-0.31392 -0.154119,-0.1352 -0.160692,0.39719 -0.0061,0.53238 0.06036,0.78924 0.148741,0.57079 0.08842,-0.21845 0.09378,-0.65404 0.0122,-0.96798 z m 39.360978,-2.40589 c -0.103045,-0.25739 -0.17946,-0.18094 -0.194947,0.19494 -0.01402,0.34012 0.06231,0.5307 0.169473,0.42348 0.107191,-0.10714 0.118657,-0.3855 0.02548,-0.61842 z M 64.550766,255.551 c -0.103046,-0.25739 -0.179461,-0.18093 -0.194948,0.19494 -0.01402,0.34014 0.06231,0.53071 0.169473,0.42349 0.107191,-0.10714 0.118656,-0.38551 0.02548,-0.61843 z m 1.540412,-0.23986 c 0.102069,-0.16521 0.03805,-0.39157 -0.142278,-0.50303 -0.180363,-0.11151 -0.327921,0.0237 -0.327921,0.30036 0,0.56676 0.193607,0.65021 0.470199,0.20267 z m 2.808061,-27.84818 c -0.176789,-0.17677 -0.241739,-0.81247 -0.144338,-1.41265 0.157436,-0.97017 0.09621,-1.09123 -0.552015,-1.09123 -0.692903,0 -0.717952,0.0841 -0.504589,1.69242 0.123473,0.93084 0.46887,1.96442 0.767536,2.29683 0.524697,0.58401 0.546624,0.57456 0.648928,-0.27976 0.05829,-0.4863 -0.03878,-1.02883 -0.215522,-1.20561 z m -20.280186,-2.42321 c 0.09573,-0.48803 0.04012,-1.02525 -0.123717,-1.19383 -0.185595,-0.19102 -0.297838,-0.11002 -0.297838,0.2151 0,0.2869 -0.153508,0.57279 -0.341127,0.63533 -0.372433,0.12416 -0.06854,1.2307 0.33803,1.2307 0.137791,0 0.328884,-0.39929 0.424652,-0.8873 z m 41.201203,0.14102 c 0,-0.0555 -0.471882,-0.5274 -1.048641,-1.04863 l -1.048627,-0.94768 0.947665,1.04864 c 0.883364,0.97747 1.149603,1.19694 1.149603,0.94767 z m 28.716464,-4.41623 c 0,-0.17746 -0.14519,-0.32266 -0.32266,-0.32266 -0.17746,0 -0.32265,0.1452 -0.32265,0.32266 0,0.17747 0.14519,0.32266 0.32265,0.32266 0.17747,0 0.32266,-0.14519 0.32266,-0.32266 z m -36.312687,-0.62303 c 0.102069,-0.16519 0.03805,-0.39155 -0.14229,-0.50302 -0.180351,-0.11151 -0.32791,0.0237 -0.32791,0.30036 0,0.56675 0.193607,0.65021 0.4702,0.20266 z m 20.716197,-3.00686 c -0.0895,-0.22184 -0.16275,-0.0403 -0.16275,0.40332 0,0.44366 0.0733,0.62514 0.16275,0.40332 0.0895,-0.22183 0.0895,-0.58482 0,-0.80664 z m -0.84621,-3.55426 c -0.37497,-1.10638 -0.90426,-2.37456 -1.17621,-2.81823 -0.56394,-0.92 -0.46474,-0.57072 0.71228,2.50798 0.42559,1.11316 0.79063,2.34733 0.81122,2.74257 0.0289,0.55393 0.0715,0.58805 0.18596,0.14892 0.0817,-0.31332 -0.15827,-1.47488 -0.53325,-2.58124 z m -3.986932,-3.52404 c -0.103046,-0.25739 -0.179448,-0.18093 -0.194935,0.19495 -0.01402,0.34014 0.0622,0.53071 0.16946,0.42349 0.107192,-0.10714 0.118657,-0.38552 0.02548,-0.61844 z m 15.487542,-0.32266 c -0.10301,-0.25738 -0.17945,-0.18093 -0.19494,0.19495 -0.014,0.34013 0.0624,0.5307 0.16946,0.42349 0.10726,-0.10715 0.11866,-0.38551 0.0255,-0.61844 z m -13.43974,-0.56685 c -0.184651,-0.34504 -0.495218,-0.7259 -0.69013,-0.84636 -0.194911,-0.12049 -0.104872,0.16183 0.20018,0.62734 0.64583,0.98567 0.98026,1.13518 0.48995,0.21902 z m -53.027604,-2.65973 c -0.103046,-0.25739 -0.17946,-0.18093 -0.194948,0.19494 -0.01402,0.34015 0.0622,0.53071 0.169473,0.4235 0.107191,-0.10715 0.118656,-0.38551 0.02548,-0.61844 z m 7.003781,-0.42347 c 0.15812,-0.70692 0.128194,-0.83746 -0.11097,-0.48399 -0.180143,0.26619 -0.329738,0.76227 -0.332458,1.1024 -0.0061,0.82551 0.178082,0.56797 0.443456,-0.61841 z m -6.681128,-0.86714 c -0.103046,-0.25741 -0.17946,-0.18095 -0.194936,0.19493 -0.01402,0.34014 0.0622,0.53069 0.16946,0.42349 0.107191,-0.10715 0.118657,-0.38552 0.02548,-0.61842 z m 60.116451,-0.90748 c 0,-0.17746 -0.13483,-0.32267 -0.29961,-0.32267 -0.62731,0 -1.31425,-1.05485 -1.32825,-2.03964 -0.008,-0.56408 -0.36445,-1.67898 -0.79206,-2.47755 l -0.77749,-1.45195 -0.0146,2.03263 c -0.0154,2.1357 0.53065,3.65822 1.51804,4.23333 0.72981,0.42508 1.69395,0.43979 1.69395,0.0258 z m -3.75521,-6.29181 c 0.1022,-0.2662 0.0451,-0.48399 -0.1268,-0.48399 -0.1719,0 -0.31253,0.21779 -0.31253,0.48399 0,0.26618 0.0571,0.48399 0.1268,0.48399 0.0698,0 0.21039,-0.21781 0.31253,-0.48399 z m 2.36553,-1.0425 c -0.0818,-0.31394 -0.15412,-0.13521 -0.1607,0.39719 -0.006,0.53237 0.0604,0.78922 0.14874,0.57077 0.0884,-0.21844 0.0938,-0.65403 0.0122,-0.96796 z m -28.679741,-2.51528 c -0.09939,-0.0993 -0.279753,0.0797 -0.40092,0.39794 -0.175107,0.45987 -0.138047,0.49693 0.180618,0.18064 0.220508,-0.21888 0.319653,-0.47922 0.220302,-0.57858 z m 29.006501,-1.20142 c -0.077,-0.39927 -0.13983,-0.0726 -0.13983,0.72598 0,0.79858 0.0629,1.12527 0.13983,0.72598 0.077,-0.39929 0.077,-1.05267 0,-1.45196 z m -16.14015,-1.59312 c -0.103046,-0.25739 -0.179449,-0.18093 -0.194936,0.19494 -0.01402,0.34014 0.06231,0.5307 0.169461,0.4235 0.107192,-0.10715 0.118656,-0.38552 0.02548,-0.61844 z m -31.297728,-0.64532 c -0.103046,-0.25739 -0.179461,-0.18093 -0.194935,0.19494 -0.01402,0.34015 0.0622,0.53071 0.16946,0.4235 0.107191,-0.10715 0.118656,-0.38551 0.02548,-0.61844 z m 43.983608,-0.74613 c 0,-0.71843 -0.15446,-1.1293 -0.42454,-1.1293 -0.23349,0 -1.35599,-1.80562 -2.49443,-4.01249 -1.13845,-2.20688 -2.105031,-3.97735 -2.147981,-3.9344 -0.278812,0.27881 0.817706,2.77563 2.451521,5.58217 1.05075,1.80499 2.00627,3.58363 2.12336,3.95255 0.3131,0.98649 0.49207,0.81973 0.49207,-0.45853 z m 3.76963,-0.22183 c -0.10305,-0.2574 -0.17945,-0.18094 -0.19494,0.19493 -0.014,0.34015 0.0623,0.53071 0.16946,0.4235 0.10719,-0.10715 0.11866,-0.38551 0.0255,-0.61843 z m -26.387046,-0.7238 c -0.08488,-0.0849 -0.346567,0.16576 -0.581502,0.55699 -0.40814,0.67961 -0.401262,0.68649 0.154338,0.15432 0.319824,-0.30633 0.51204,-0.62642 0.427164,-0.71131 z m 29.521856,-3.51543 c 0.64885,-1.21136 1.03826,-2.11504 0.86537,-2.00817 -0.63474,0.39228 -2.28465,3.13408 -2.28465,3.7966 0,0.86004 0.002,0.8575 1.41928,-1.78843 z m -20.414891,-0.78212 c 0.401346,-0.51175 0.389932,-0.52316 -0.121828,-0.12183 -0.310555,0.24356 -0.564648,0.49764 -0.564648,0.56465 0,0.26556 0.264958,0.0946 0.686463,-0.44283 z m -31.356118,-2.45421 c -0.310664,-0.28633 -0.353603,-0.23659 -0.191581,0.222 0.114875,0.32506 0.225654,0.76066 0.246239,0.96797 0.02061,0.20731 0.106825,0.10738 0.191595,-0.222 0.08475,-0.32939 -0.02598,-0.76498 -0.246253,-0.96797 z m 29.701683,-0.20771 c 0.189947,-0.35492 0.272763,-0.64532 0.184033,-0.64532 -0.08878,0 -0.316739,0.2904 -0.506687,0.64532 -0.18996,0.35492 -0.272763,0.64532 -0.184033,0.64532 0.08878,0 0.316739,-0.2904 0.506687,-0.64532 z m -20.287357,-1.05402 c -0.318666,-0.31628 -0.355725,-0.27923 -0.180619,0.18063 0.121217,0.3182 0.30158,0.49729 0.40092,0.39794 0.09939,-0.0993 2.08e-4,-0.3597 -0.220301,-0.57857 z m 21.87339,-1.20458 0.731732,-1.12929 -0.83623,0.90528 c -0.459919,0.49792 -0.836217,1.06661 -0.836217,1.26375 0,0.41737 -0.0122,0.43074 0.940715,-1.03974 z m 2.546188,-0.16987 c -0.09939,-0.0993 -0.279752,0.0798 -0.40092,0.39794 -0.175107,0.45986 -0.138046,0.49692 0.180619,0.18063 0.220508,-0.21887 0.319653,-0.47923 0.220301,-0.57857 z m -34.570952,-4.75065 c -0.08951,-0.22183 -0.162741,-0.0404 -0.162741,0.40332 0,0.44365 0.07316,0.62515 0.162741,0.40332 0.08951,-0.22182 0.08951,-0.58482 0,-0.80664 z m 45.965657,-2.71838 c -0.38037,-0.65411 -0.47221,-0.44474 -0.16086,0.36664 0.11061,0.28836 0.26916,0.45631 0.35224,0.37325 0.0831,-0.083 -0.002,-0.41603 -0.19138,-0.73989 z m -22.800497,-5.56775 c 0.10207,-0.1652 0.03805,-0.39156 -0.142277,-0.50303 -0.180363,-0.1114 -0.327922,0.0237 -0.327922,0.30036 0,0.56676 0.193608,0.65021 0.470199,0.20267 z M 62.555739,156.23312 c 0.109638,-0.17746 0.04561,-0.32265 -0.14229,-0.32265 -0.187936,0 -0.341701,0.14519 -0.341701,0.32265 0,0.17746 0.06402,0.32266 0.14229,0.32266 0.07829,0 0.23202,-0.1452 0.341701,-0.32266 z m 13.237478,-3.48692 c -0.09939,-0.0993 -0.359701,-2e-4 -0.578575,0.22031 -0.316288,0.31866 -0.279227,0.35572 0.18063,0.18062 0.318202,-0.12121 0.497284,-0.30159 0.397945,-0.40093 z m -8.302015,-16.82581 c -0.216605,-0.34684 -0.456321,-0.56815 -0.532697,-0.49178 -0.13829,0.13829 0.564893,1.12243 0.801985,1.12243 0.06854,0 -0.05268,-0.28379 -0.269288,-0.63065 z m 22.329054,-11.00405 c 0,-0.16698 -0.145192,-0.30362 -0.322653,-0.30362 -0.177473,0 -0.322666,0.22636 -0.322666,0.50303 0,0.27667 0.145193,0.4133 0.322666,0.30362 0.177461,-0.10967 0.322653,-0.33604 0.322653,-0.50303 z m -1.399598,-4.90147 c -0.08951,-0.22183 -0.162742,-0.0404 -0.162742,0.40332 0,0.44364 0.07329,0.62515 0.162742,0.40331 0.08951,-0.22182 0.08951,-0.58481 0,-0.80663 z M 44.800863,236.23793 c -0.114507,-0.18523 -0.06878,-0.51193 0.101461,-0.72597 0.170301,-0.21406 0.404079,-1.18778 0.519516,-2.16381 0.567697,-4.79988 0.585246,-4.87424 1.124236,-4.76381 0.435517,0.0892 0.505515,0.50204 0.422029,2.48895 -0.055,1.31009 -0.321629,2.81043 -0.592416,3.33407 -0.270801,0.52367 -0.420846,1.22555 -0.333458,1.55974 0.11329,0.43313 -0.01232,0.60763 -0.437163,0.60763 -0.327836,0 -0.689732,-0.15157 -0.804218,-0.3368 z m 3.008094,-0.34486 c -0.202521,-0.60755 0.387578,-5.81212 0.731926,-6.45554 0.178546,-0.33362 0.539028,-0.60657 0.801059,-0.60657 0.363433,0 0.449139,0.32519 0.361373,1.37129 -0.06329,0.7542 -0.197387,1.58907 -0.298032,1.85527 -0.544051,1.43903 -0.885132,2.76308 -0.885132,3.43605 0,0.77307 -0.494149,1.05065 -0.711194,0.3995 z m 7.486992,-23.0146 c 0,-0.27667 0.145193,-0.50303 0.322666,-0.50303 0.177461,0 0.322653,0.13664 0.322653,0.30362 0,0.16699 -0.145192,0.39335 -0.322653,0.50303 -0.177473,0.10967 -0.322666,-0.027 -0.322666,-0.30362 z m 15.598877,-6.80876 c -0.300153,-0.7822 0.118656,-0.92342 0.519186,-0.17505 0.249727,0.46663 0.254642,0.67295 0.01597,0.67295 -0.189264,0 -0.430115,-0.22405 -0.535198,-0.4979 z m -27.63801,-3.2597 c -0.410957,-0.41096 -0.226058,-1.65689 0.274373,-1.84893 0.548089,-0.21033 0.909533,0.4168 0.741048,1.28575 -0.118291,0.60982 -0.665342,0.91326 -1.015421,0.56318 z"
       id="path5"
       sodipodi:nodetypes="cssssscssssssssscssscccsssssssssssssscssssssssssssccsssssssssscsscssssssssssssssssssssscssssssssssssssssssscssscsssscssssssssssssssscssssssssssscssssssssssssssscssssssssssssssscscssssssscsscssscssssssssssscsssssssssssssscscscscssssscssssssssssssssssssssscsssssscsssssssssssssssssssssssssssssssssssssssssssssscssccssssssssssssscssssscssssssssscssssscssssssssssssssssssssccsssssssssssssscssssccssscssssssssssssssssssssssssssssccsccssssssssssssssssssssssssssssscssssssssssssssssssssssssssssssssscsssssssscssssssssscscsssssssssccsccsssssssssssssssssssssssssssssssssscsscsssssssssssssssssssccsscsssssscscsscssssssssssscsssssssssssscssssssssssssssssssssssssssssssss"
       inkscape:label="crinos" /><path
       style="fill:#231300;fill-opacity:0.17142852;stroke-width:0.675864"
       d="m 156.80815,259.38015 0.37314,-0.94992 -0.72645,-0.61127 c -0.39956,-0.3362 -1.11448,-0.81444 -1.58873,-1.06275 -0.47426,-0.24832 -1.51747,-1.07471 -2.31827,-1.83644 -1.84607,-1.75601 -2.29573,-2.1246 -3.92733,-3.2193 -1.27262,-0.85385 -1.40779,-1.04958 -3.13249,-4.53603 -2.78969,-5.63928 -2.96259,-6.61683 -1.6129,-9.11911 0.35618,-0.66033 0.71454,-1.4839 0.79636,-1.83013 0.0818,-0.34624 0.29521,-0.61448 0.47421,-0.59608 0.179,0.0184 1.14409,-1.05301 2.14465,-2.3809 1.00055,-1.3279 2.06206,-2.5739 2.3589,-2.76888 0.99412,-0.65302 3.45048,-3.14744 4.50368,-4.57347 l 1.04258,-1.41166 0.19357,1.17323 c 0.10646,0.64527 0.20492,1.30734 0.21881,1.47127 0.0138,0.16391 0.11464,0.29803 0.22392,0.29803 0.10928,0 0.19869,0.1624 0.19869,0.36088 0,0.19849 0.10395,0.54719 0.23101,0.7749 0.4991,0.89445 1.43118,4.41233 1.66666,6.2903 0.33779,2.69388 0.34799,2.62211 -0.34788,2.44746 -0.34654,-0.087 -0.59607,-0.0469 -0.59607,0.0957 0,0.13492 0.31059,0.31354 0.6902,0.39692 0.81031,0.17797 1.05119,1.07034 0.68179,2.52569 -0.22559,0.88875 -0.22719,0.88971 -0.69971,0.4172 -0.60667,-0.60669 -0.89065,-0.35506 -0.31596,0.27997 0.56699,0.62652 1.03539,0.60585 1.31774,-0.0581 0.16658,-0.39171 0.21392,-0.0268 0.17545,1.35239 l -0.0526,1.88885 2.14157,1.63003 c 1.17786,0.89651 2.59756,2.07964 3.15489,2.62918 0.55733,0.54953 1.01333,0.89195 1.01333,0.76094 0,-0.13102 -0.13412,-0.38434 -0.29804,-0.56292 -0.74125,-0.80757 1.51812,0.9659 2.94312,2.31017 1.00863,0.95149 1.63792,1.74997 1.72592,2.18993 0.10655,0.53277 0.33716,0.75802 1.00002,0.97678 0.47385,0.15639 0.91867,0.43321 0.98849,0.61516 0.0698,0.18195 0.8662,0.55098 1.76974,0.82007 1.4979,0.44609 1.73232,0.45911 2.65791,0.14759 0.70824,-0.23838 1.03815,-0.49355 1.09131,-0.84408 0.0419,-0.27632 -0.05,-0.50241 -0.20433,-0.50241 -0.1621,0 -0.21714,-0.16515 -0.13039,-0.39123 0.21815,-0.56851 -0.50632,-1.57044 -1.01811,-1.40801 -0.24111,0.0765 -0.91125,-0.18273 -1.59613,-0.61748 -0.6493,-0.41217 -1.81615,-1.07268 -2.593,-1.46781 -0.77686,-0.39512 -2.389,-1.53355 -3.58255,-2.52985 -1.19354,-0.99629 -2.85312,-2.29426 -3.68793,-2.88438 -0.83481,-0.59011 -1.89743,-1.44447 -2.36138,-1.89857 -0.7855,-0.76882 -0.84234,-0.92364 -0.82606,-2.24978 0.0116,-0.94854 0.13245,-1.50888 0.36175,-1.67788 0.18935,-0.13955 0.29638,-0.39601 0.23783,-0.56989 -0.19792,-0.58789 0.5026,-2.53152 2.00655,-5.56721 0.8235,-1.66222 1.5666,-3.29844 1.65134,-3.63606 0.51578,-2.05505 1.05566,1.1596 0.66878,3.98221 -0.10758,0.78494 -0.27289,1.11859 -0.59607,1.2031 -0.56476,0.14769 -0.58911,0.59673 -0.0299,0.55235 0.32694,-0.0259 0.43312,0.18621 0.49057,0.98022 0.0798,1.10305 0.44528,1.37377 0.56653,0.41963 0.0731,-0.57528 0.11424,-0.55735 1.32752,0.57899 0.68865,0.64497 1.65281,1.50299 2.14259,1.9067 0.79367,0.65421 0.85782,0.78635 0.58999,1.21523 -0.27276,0.43676 -0.25045,0.46977 0.24171,0.35745 0.60256,-0.13753 0.48182,-0.28164 4.06956,4.85738 1.15322,1.65185 2.18883,3.22414 2.30136,3.49398 0.18082,0.43358 2.9686,4.54021 3.58039,5.27418 0.12878,0.15451 0.60039,0.95781 1.04803,1.78513 0.52218,0.96509 0.99958,1.54805 1.33203,1.62652 0.28498,0.0673 0.51443,0.22961 0.50989,0.36075 -0.012,0.34721 2.14544,0.14222 2.78166,-0.26429 0.56188,-0.35901 0.66895,-1.04034 0.38591,-2.45554 -0.10477,-0.52385 -0.46736,-0.9803 -1.19223,-1.50087 -0.59437,-0.42683 -1.34967,-1.2938 -1.7589,-2.01891 -0.39447,-0.69896 -1.06501,-1.5632 -1.4901,-1.92054 -1.91997,-1.61395 -3.72994,-3.6961 -4.71227,-5.42088 -0.58721,-1.03102 -1.0385,-1.97157 -1.00286,-2.0901 0.0356,-0.11854 -0.13806,-0.50359 -0.38597,-0.85567 -0.24792,-0.35209 -0.53294,-0.90838 -0.63339,-1.23622 -0.10045,-0.32785 -0.2612,-0.64973 -0.35723,-0.7153 -0.096,-0.0656 -0.58278,-0.76298 -1.08167,-1.54979 -0.49889,-0.78682 -1.3715,-2.00371 -1.93913,-2.70419 -1.12546,-1.38886 -1.27915,-2.12454 -0.57665,-2.76029 0.25047,-0.22668 0.52707,-0.69931 0.61465,-1.05028 0.18971,-0.76027 0.78566,-1.47264 1.23197,-1.47264 0.17638,0 0.32069,-0.1486 0.32069,-0.33023 0,-0.39754 1.013,-1.10035 1.58601,-1.10035 0.33389,0 0.2909,0.12499 -0.23003,0.66873 -0.35239,0.3678 -0.64069,0.85197 -0.64069,1.07593 0,0.35232 0.12698,0.32703 0.94227,-0.18764 1.06141,-0.67004 0.91527,-0.77588 2.09128,1.51446 0.53956,1.05083 0.78133,1.85167 0.78133,2.58814 0,0.77817 0.18381,1.33883 0.67993,2.07394 0.48474,0.71826 0.65003,1.21119 0.57577,1.71715 -0.0712,0.4852 0.0295,0.81852 0.31843,1.05376 0.37863,0.30829 0.40583,0.2994 0.26147,-0.0855 -0.0962,-0.25641 -0.0668,-0.37132 0.0729,-0.285 0.12871,0.0795 0.86157,1.39947 1.62857,2.93315 0.76701,1.53368 2.26987,4.11954 3.3397,5.74635 1.06982,1.62681 1.94513,3.1679 1.94513,3.42465 0,0.59097 0.88707,4.37048 1.23007,5.24097 0.1421,0.36063 0.35265,0.65568 0.46787,0.65568 0.11523,0 0.43676,0.22726 0.71451,0.50501 0.30858,0.30859 0.56429,0.40907 0.65744,0.25835 0.10275,-0.16626 0.57681,-0.13657 1.4544,0.0911 2.01536,0.52278 2.48473,0.45217 3.19639,-0.48087 0.34341,-0.45023 0.62437,-1.07736 0.62437,-1.39362 0,-0.57637 -0.65007,-1.36424 -1.12563,-1.36424 -0.3501,0 -2.72915,-2.61161 -3.16175,-3.47082 -0.19431,-0.38594 -0.81119,-1.18452 -1.37084,-1.77463 -0.55966,-0.59011 -1.01762,-1.21565 -1.01768,-1.39007 -1.6e-4,-0.37381 -2.77144,-5.95719 -3.21539,-6.47812 -0.16763,-0.1967 -0.37528,-0.58936 -0.46144,-0.87258 -0.20197,-0.66391 -0.85121,-1.24327 -0.85841,-0.76602 -0.003,0.17998 -0.42967,-0.42382 -0.94878,-1.34178 -1.18201,-2.09015 -1.25552,-3.68294 -0.29159,-6.31838 0.072,-0.1967 0.15854,-0.89958 0.19243,-1.56193 0.0339,-0.66236 0.28449,-2.37906 0.55688,-3.81488 0.54707,-2.88368 0.59451,-3.4451 0.2911,-3.4451 -0.11269,0 -0.31319,0.56329 -0.44553,1.25176 l -0.24064,1.25176 -0.0105,-1.19215 c -0.006,-0.65569 0.1287,-2.10415 0.2988,-3.21881 l 0.30927,-2.02665 0.0275,1.84783 c 0.0151,1.01633 0.13163,1.84783 0.25888,1.84783 0.32798,0 0.13275,-6.4073 -0.20555,-6.7456 -0.14533,-0.14533 -0.26424,-0.40177 -0.26424,-0.56986 0,-0.16809 -0.35452,-0.67069 -0.78783,-1.11688 l -0.78784,-0.81125 0.3356,-2.23307 c 0.22367,-1.4882 0.64394,-2.94883 1.25999,-4.37893 0.5084,-1.18023 0.9265,-1.91759 0.92909,-1.63859 0.005,0.60856 0.59998,1.19118 0.83206,0.81567 0.085,-0.13751 0.0543,-0.25001 -0.0682,-0.25001 -0.12248,0 -0.29028,-0.33791 -0.37289,-0.75092 -0.19389,-0.96947 0.78795,-3.19518 1.56706,-3.55232 0.30259,-0.13871 0.80023,-0.59522 1.10584,-1.01446 l 0.55565,-0.76226 -0.16803,1.31136 c -0.0924,0.72125 -0.25934,1.55278 -0.37093,1.84783 -0.11981,0.31677 -0.11227,0.53647 0.0185,0.53647 0.28438,0 0.68323,-1.42604 0.86691,-3.09959 0.0792,-0.72125 0.39368,-2.02304 0.69892,-2.89288 0.81078,-2.3105 1.42174,-7.53868 0.96695,-8.27455 -0.0862,-0.13947 0.0681,-0.73197 0.34297,-1.31665 0.44274,-0.94188 0.46639,-1.17425 0.20747,-2.03846 -0.32646,-1.08962 -0.69362,-1.29041 -0.69362,-0.37933 0,0.4921 -0.11437,0.59551 -0.65569,0.59282 -1.10337,-0.005 -1.67793,-0.25524 -1.82578,-0.79369 -0.11045,-0.40227 -0.18742,-0.44278 -0.35303,-0.18583 -0.11648,0.18072 -0.32334,0.25963 -0.4597,0.17536 -0.27775,-0.17166 -0.36641,0.0723 -0.7699,2.11878 -0.15514,0.78682 -0.43515,1.72879 -0.62224,2.09327 -0.1871,0.36447 -0.28853,0.74624 -0.22541,0.84838 0.0631,0.10214 -0.15418,0.50134 -0.4829,0.88711 l -0.59768,0.70141 0.11948,-1.38744 c 0.0657,-0.76309 0.22252,-1.51415 0.34847,-1.66901 0.12594,-0.15486 0.41254,-1.18788 0.63688,-2.29559 0.42665,-2.10666 0.91516,-3.15495 1.38865,-2.97994 0.15403,0.0569 0.51274,-0.25663 0.79716,-0.6968 0.28441,-0.44017 0.73056,-0.85614 0.99144,-0.92436 0.81437,-0.21296 1.17972,2.16839 0.47208,3.07705 -0.13296,0.17074 -0.11368,0.33978 0.0503,0.44113 0.37879,0.2341 0.49557,0.045 0.64074,-1.03732 0.0778,-0.57993 0.2352,-0.91372 0.40091,-0.85014 0.18412,0.0707 0.28355,-0.36175 0.3058,-1.32994 0.0181,-0.78905 -0.0707,-1.43463 -0.1975,-1.43463 -0.12677,0 -0.19842,-0.18929 -0.15923,-0.42063 0.0392,-0.23135 -0.16865,-0.75756 -0.46187,-1.16935 -0.29323,-0.4118 -0.53314,-0.9314 -0.53314,-1.15468 0,-0.29327 -0.11581,-0.35815 -0.41725,-0.23374 -0.22949,0.0947 -0.7533,0.25297 -1.16403,0.3517 -0.41072,0.0987 -0.86672,0.25363 -1.01332,0.34423 -0.18156,0.11222 -0.26655,-0.18185 -0.26655,-0.92227 0,-0.59785 -0.1073,-1.087 -0.23844,-1.087 -0.13113,0 -0.23842,0.31294 -0.23842,0.69542 0,0.38248 -0.10162,0.73119 -0.22583,0.7749 -0.12421,0.0437 -0.2911,0.45501 -0.37087,0.91398 -0.0798,0.45898 -0.24639,0.93644 -0.37025,1.06101 -0.12386,0.12458 -0.22684,0.50011 -0.22886,0.83451 -0.004,0.72094 -0.34238,1.32328 -0.74268,1.32328 -0.15777,0 -0.33727,0.15122 -0.39887,0.33603 -0.0754,0.22621 0.01,0.28927 0.26084,0.19296 0.31873,-0.12231 0.33799,-0.0326 0.13273,0.61769 -0.13207,0.41842 -0.45137,1.16018 -0.70956,1.64836 -0.25819,0.48818 -0.46204,0.9453 -0.453,1.01582 0.0245,0.19143 -0.74862,1.65469 -0.94696,1.79225 -0.0945,0.0656 -0.337,0.44109 -0.5388,0.8345 -0.20181,0.39341 -0.61913,0.99119 -0.92739,1.32839 -0.68,0.74386 -2.34869,3.16809 -2.34869,3.41212 0,0.0965 0.10729,0.10913 0.23843,0.0281 0.57803,-0.35725 0.15907,0.33708 -0.65518,1.08577 l -0.89362,0.82167 0.69741,-0.77241 c 0.38358,-0.42483 0.62363,-0.8462 0.53345,-0.93637 -0.17994,-0.17994 -0.62925,0.26834 -1.68711,1.68328 -0.64843,0.8673 -0.71454,0.89932 -1.01333,0.49071 -0.2979,-0.40741 -0.31964,-0.39572 -0.31964,0.17188 0,0.70291 -1.68778,2.40761 -3.28985,3.32282 -0.54902,0.31364 -0.99904,0.68913 -1.00005,0.8344 -0.002,0.27281 -2.63482,2.00094 -3.04856,2.00094 -0.1281,0 -0.37932,0.17641 -0.55827,0.39204 -0.29115,0.35082 -0.26289,0.37327 0.26884,0.2136 0.32681,-0.0981 0.83184,-0.3282 1.12229,-0.51125 0.68123,-0.42935 1.02171,-0.4221 1.02171,0.0218 0,0.37318 0.62729,0.15429 3.39763,-1.1856 0.62289,-0.30126 1.13254,-0.44505 1.13254,-0.31953 0,0.61291 -0.61343,1.19997 -1.85406,1.77438 -1.42224,0.65851 -3.15297,2.10951 -3.15297,2.6434 0,0.47502 0.1608,0.38689 1.21202,-0.66434 0.53548,-0.53547 1.03468,-0.9125 1.10934,-0.83784 0.0746,0.0747 -0.15134,0.36157 -0.50222,0.63757 -0.35088,0.276 -0.61531,0.6262 -0.58763,0.77823 0.0475,0.2611 -3.05532,3.53911 -3.43698,3.631 -0.0983,0.0237 -0.33977,0.0564 -0.53647,0.0729 -0.1967,0.0163 -0.36106,0.21756 -0.36523,0.44705 -0.007,0.39002 -0.029,0.38898 -0.33593,-0.0159 -0.18059,-0.23822 -0.39473,-0.41824 -0.47585,-0.40004 -0.30369,0.0681 -2.43001,-0.84092 -3.23394,-1.38257 -0.68394,-0.46081 -1.01828,-0.53472 -1.85308,-0.40962 -0.66463,0.0996 -1.49313,0.0143 -2.3843,-0.24551 -0.84948,-0.24764 -1.77801,-0.34971 -2.4564,-0.27001 -1.52644,0.17932 -4.42841,1.23197 -5.36436,1.94586 -0.43189,0.32942 -0.98548,0.59895 -1.2302,0.59895 -0.3975,0 -2.44076,1.99933 -8.16293,7.9874 -0.87719,0.91795 -1.724,1.97672 -1.88179,2.35281 -0.1578,0.37608 -0.74825,1.28808 -1.31213,2.02665 -1.47687,1.93445 -3.7829,5.40443 -4.69524,7.06518 -0.89997,1.63822 -3.12311,3.93409 -3.80945,3.93409 -0.53202,0 -1.45455,0.70891 -1.28324,0.9861 0.17753,0.28724 -1.22198,0.92159 -2.34705,1.06384 -0.55604,0.0703 -1.38651,0.2483 -1.84548,0.39554 -1.09663,0.35178 -4.60441,0.32036 -5.95856,-0.0534 -0.58891,-0.16254 -1.38645,-0.52032 -1.77229,-0.79506 -0.5851,-0.41663 -0.67592,-0.43277 -0.54716,-0.0972 0.13185,0.3436 0.033,0.38304 -0.67721,0.27017 -0.45739,-0.0727 -1.4192,-0.39203 -2.13737,-0.70964 -0.71817,-0.31761 -1.30577,-0.46772 -1.30577,-0.33357 0,0.28099 1.77947,1.0845 3.30588,1.49275 0.57393,0.15351 1.11102,0.46073 1.19351,0.68272 0.0825,0.22198 0.50302,0.65226 0.93449,0.95616 4.08165,2.87486 3.9606,2.81135 5.79688,3.04159 0.97002,0.12163 2.51473,0.24525 3.43269,0.27473 1.75171,0.0562 5.31262,-0.40567 5.72521,-0.74268 0.13273,-0.10842 0.83075,-0.41765 1.55116,-0.68719 0.72041,-0.26954 1.65594,-0.80619 2.07896,-1.19256 0.42302,-0.38636 0.98569,-0.77121 1.25039,-0.85523 0.2647,-0.084 0.48126,-0.30646 0.48126,-0.49432 0,-0.18787 0.20766,-0.34158 0.46147,-0.34158 0.46492,0 3.0903,-2.75126 3.38949,-3.55201 0.0854,-0.22859 0.43124,-0.59643 0.76851,-0.81742 0.60986,-0.39959 1.14698,-1.40529 2.69631,-5.04855 0.44614,-1.04909 0.76169,-1.63921 0.70122,-1.31137 -0.5294,2.8702 -1.40617,6.68964 -1.66935,7.27212 -0.17775,0.39341 -0.57123,1.27858 -0.8744,1.96704 -0.30318,0.68847 -0.63939,1.25176 -0.74715,1.25176 -0.10776,0 -0.19593,0.24444 -0.19593,0.54319 0,0.52127 -0.33667,1.08213 -1.69759,2.82799 -0.34357,0.44074 -0.69036,1.23743 -0.77064,1.77043 -0.135,0.8962 -0.0757,1.03774 0.78856,1.88166 0.514,0.50191 1.06157,1.21922 1.21682,1.59403 0.15525,0.37481 0.36932,0.68147 0.47571,0.68147 0.10639,0 0.26083,0.21233 0.3432,0.47186 0.20123,0.63401 2.5323,4.73552 3.49302,6.14594 0.42377,0.62214 1.34152,1.80907 2.03944,2.63762 0.69793,0.82855 1.4249,1.80801 1.6155,2.17658 0.19059,0.36857 0.51144,0.73341 0.713,0.81076 0.20155,0.0773 0.36646,0.29382 0.36646,0.48105 0,0.36441 1.53224,1.82041 1.91574,1.82041 0.12657,0 0.46477,0.23464 0.75155,0.52142 0.51901,0.51901 1.90378,0.86759 3.55533,0.89495 0.78369,0.013 0.89024,-0.068 1.23108,-0.93571 z m -0.89688,-1.19595 c -0.0811,-0.13114 -0.0401,-0.23843 0.0911,-0.23843 0.13114,0 0.30474,0.10729 0.38579,0.23843 0.0811,0.13114 0.0401,0.23843 -0.0911,0.23843 -0.13114,0 -0.30474,-0.10729 -0.38579,-0.23843 z m 37.31428,-0.95372 c 0,-0.13114 0.0473,-0.23843 0.10515,-0.23843 0.0579,0 0.17146,0.10729 0.2525,0.23843 0.0811,0.13114 0.0337,0.23843 -0.10515,0.23843 -0.13887,0 -0.2525,-0.10729 -0.2525,-0.23843 z m -10.20644,-5.60941 c 0.0734,-0.0734 0.20674,0.0589 0.29628,0.29406 0.12938,0.33981 0.102,0.3672 -0.13348,0.13347 -0.16294,-0.16173 -0.2362,-0.35412 -0.1628,-0.42753 z m -0.79174,-1.00702 c -0.29658,-0.37816 -0.28815,-0.3866 0.09,-0.09 0.22949,0.17997 0.41726,0.36774 0.41726,0.41725 0,0.19624 -0.1958,0.0699 -0.50727,-0.32723 z m -42.81143,-11.78738 c 0.0761,-0.1902 0.13262,-0.13371 0.14406,0.14405 0.0103,0.25135 -0.046,0.39217 -0.12523,0.31294 -0.0792,-0.0792 -0.0877,-0.28488 -0.0188,-0.45699 z m -20.46131,-0.90901 c -0.081,-0.13114 0.0262,-0.23843 0.23843,-0.23843 0.21218,0 0.31948,0.10729 0.23844,0.23843 -0.0811,0.13114 -0.18835,0.23843 -0.23844,0.23843 -0.0501,0 -0.15738,-0.10729 -0.23843,-0.23843 z m 12.34372,-1.09778 c 0.0792,-0.0792 0.28487,-0.0877 0.45699,-0.0188 0.1902,0.0761 0.13371,0.13261 -0.14405,0.14405 -0.25134,0.0103 -0.39217,-0.046 -0.31294,-0.12523 z m -3.57645,-0.23843 c 0.0792,-0.0792 0.28487,-0.0877 0.45699,-0.0189 0.19021,0.0761 0.13371,0.13261 -0.14405,0.14405 -0.25134,0.0103 -0.39217,-0.046 -0.31294,-0.12523 z m 40.37754,-0.4644 c -0.0814,-0.21218 -0.0414,-0.30789 0.0937,-0.22436 0.12963,0.0801 0.23569,0.24663 0.23569,0.37003 0,0.34296 -0.17089,0.26739 -0.3294,-0.14567 z m -1.65296,-2.72956 c 0.15108,-1.40356 0.31155,-1.87749 0.31618,-0.93385 10e-4,0.31691 0.15203,1.13661 0.33437,1.82153 l 0.33154,1.24533 -0.56163,-0.41082 c -0.50808,-0.37166 -0.54817,-0.53585 -0.42046,-1.72219 z m -36.81714,1.52496 c 0.0792,-0.0792 0.28487,-0.0877 0.45699,-0.0189 0.19021,0.0761 0.13371,0.13261 -0.14405,0.14405 -0.25135,0.0103 -0.39217,-0.046 -0.31294,-0.12523 z m 51.99367,-0.86928 c 0.0662,-0.16392 0.12026,-0.0298 0.12026,0.29804 0,0.32784 -0.0541,0.46196 -0.12026,0.29803 -0.0662,-0.16391 -0.0662,-0.43215 0,-0.59607 z m -54.74512,0.6185 c 0.16142,-0.0653 0.48331,-0.0693 0.71529,-0.009 0.23199,0.0604 0.0999,0.11388 -0.2935,0.11874 -0.39341,0.005 -0.58321,-0.0446 -0.42179,-0.10991 z m 54.50669,-1.81065 c 0.0662,-0.16392 0.12026,-0.0298 0.12026,0.29804 0,0.32784 -0.0541,0.46196 -0.12026,0.29804 -0.0662,-0.16393 -0.0662,-0.43216 0,-0.59608 z m -4.54977,-3.65724 c 0.13081,-0.1308 1.04569,1.57022 1.22964,2.28627 0.0842,0.32784 -0.17884,-0.0316 -0.5846,-0.79875 -0.40575,-0.76715 -0.69602,-1.43654 -0.64504,-1.48752 z m -7.21382,1.70427 c 0,-0.0579 0.10729,-0.17145 0.23843,-0.2525 0.13114,-0.0811 0.23843,-0.0337 0.23843,0.10514 0,0.13888 -0.10729,0.2525 -0.23843,0.2525 -0.13114,0 -0.23843,-0.0473 -0.23843,-0.10514 z m 10.80342,-2.21955 c 0.06,-0.22949 0.10904,-0.0417 0.10904,0.41725 0,0.45898 -0.0491,0.64674 -0.10904,0.41726 -0.06,-0.22949 -0.06,-0.60502 0,-0.83451 z m -38.66812,-0.41725 c 0.2708,-0.45898 0.53368,-0.83451 0.58417,-0.83451 0.0505,0 -0.0873,0.37553 -0.30614,0.83451 -0.21887,0.45898 -0.48175,0.8345 -0.58418,0.8345 -0.10242,0 0.0353,-0.37552 0.30615,-0.8345 z m 26.93139,-1.07294 c 0.009,-0.23581 0.0829,-0.19521 0.21802,0.11922 0.28166,0.65546 0.28166,1.03191 0,0.59608 -0.12712,-0.19671 -0.22523,-0.51859 -0.21802,-0.7153 z m -4.47502,0.19372 c 0.0761,-0.1902 0.13261,-0.13369 0.14405,0.14406 0.0103,0.25135 -0.046,0.39217 -0.12522,0.31294 -0.0792,-0.0792 -0.0877,-0.28487 -0.0189,-0.457 z m -25.14028,-0.0189 c 0.23547,-0.23372 0.26286,-0.20634 0.13347,0.13347 -0.0895,0.23514 -0.22286,0.36748 -0.29627,0.29407 -0.0734,-0.0734 -1.5e-4,-0.2658 0.1628,-0.42754 z m 38.65523,0.10332 c 0,-0.31045 0.28344,-0.51692 0.514,-0.37442 0.24659,0.1524 0.034,0.57311 -0.28964,0.57311 -0.1234,0 -0.22436,-0.0894 -0.22436,-0.19869 z m -2.98037,-0.0397 c -0.081,-0.13113 -0.0337,-0.23843 0.10514,-0.23843 0.13887,0 0.2525,0.1073 0.2525,0.23843 0,0.13113 -0.0473,0.23843 -0.10515,0.23843 -0.0579,0 -0.17145,-0.1073 -0.25249,-0.23843 z m 8.30635,-1.01333 c 0.0662,-0.16392 0.12026,-0.0298 0.12026,0.29804 0,0.32784 -0.0541,0.46196 -0.12026,0.29803 -0.0662,-0.16391 -0.0662,-0.43215 0,-0.59607 z m -16.27335,-0.41725 c 0.009,-0.23582 0.0829,-0.19521 0.21802,0.11922 0.28166,0.65546 0.28166,1.03191 0,0.59607 -0.12712,-0.1967 -0.22523,-0.51858 -0.21802,-0.71529 z m -5.98115,0.11922 c 0,-0.19671 0.0422,-0.35765 0.0937,-0.35765 0.0516,0 0.15546,0.16094 0.23095,0.35765 0.0755,0.1967 0.0333,0.35764 -0.0937,0.35764 -0.12702,0 -0.23094,-0.16094 -0.23094,-0.35764 z m 1.50613,-1.35608 c 0.0761,-0.1902 0.13261,-0.1337 0.14405,0.14406 0.0103,0.25134 -0.046,0.39217 -0.12523,0.31294 -0.0792,-0.0792 -0.0877,-0.28488 -0.0189,-0.457 z m -17.82156,-3.39549 c 0.0877,-0.34942 0.20545,-0.58934 0.26164,-0.53313 0.0562,0.0562 0.0304,0.38807 -0.0572,0.7375 -0.0877,0.34942 -0.20544,0.58933 -0.26164,0.53312 -0.0562,-0.0562 -0.0304,-0.38807 0.0572,-0.73749 z m 0.89304,-0.65781 c 0.0761,-0.19021 0.13261,-0.13371 0.14405,0.14405 0.0103,0.25134 -0.046,0.39216 -0.12523,0.31294 -0.0792,-0.0792 -0.0877,-0.28488 -0.0189,-0.45699 z m 27.18101,-0.71529 c 0.0761,-0.1902 0.13261,-0.13371 0.14404,0.14405 0.0103,0.25134 -0.046,0.39217 -0.12522,0.31294 -0.0792,-0.0792 -0.0877,-0.28488 -0.0189,-0.45699 z m -34.17104,0.43154 c 0,-0.0495 0.18777,-0.23727 0.41725,-0.41725 0.37817,-0.29657 0.3866,-0.28814 0.09,0.09 -0.31148,0.39717 -0.50728,0.52347 -0.50728,0.32723 z m 4.38711,-0.76832 c 0.0849,-0.22113 0.20793,-0.34841 0.2735,-0.28285 0.0656,0.0656 0.0498,0.30015 -0.0351,0.52128 -0.0849,0.22113 -0.20793,0.3484 -0.2735,0.28283 -0.0656,-0.0656 -0.0498,-0.30014 0.0351,-0.52126 z m -1.52595,-1.04909 c 0.14037,-0.26228 0.30885,-0.47687 0.37443,-0.47687 0.0656,0 0.004,0.21459 -0.136,0.47687 -0.14036,0.26226 -0.30885,0.47685 -0.37442,0.47685 -0.0656,0 -0.004,-0.21459 0.13599,-0.47685 z m 8.49725,-0.83451 c 0.14511,-0.37814 0.56309,-0.49614 0.56309,-0.15895 0,0.25214 -0.26062,0.51659 -0.50912,0.51659 -0.10516,0 -0.12945,-0.16093 -0.054,-0.35764 z m -4.45105,-0.5828 c 0.13646,-0.25497 0.36595,-0.53641 0.50998,-0.62543 0.14403,-0.089 0.0775,0.1196 -0.14792,0.46359 -0.47724,0.72836 -0.72437,0.83884 -0.36206,0.16184 z m 26.54838,-0.77327 c 0.0761,-0.1902 0.13261,-0.13371 0.14406,0.14405 0.0103,0.25134 -0.046,0.39216 -0.12523,0.31294 -0.0792,-0.0792 -0.0877,-0.28488 -0.0189,-0.45699 z m -12.88619,-1.2915 c 0.0792,-0.0792 0.28487,-0.0877 0.45699,-0.0188 0.19021,0.0761 0.1337,0.13261 -0.14405,0.14405 -0.25135,0.0103 -0.39217,-0.046 -0.31294,-0.12523 z m -11.30037,-0.39639 c 0.23548,-0.23372 0.26287,-0.20634 0.13347,0.13347 -0.0895,0.23515 -0.22285,0.36748 -0.29626,0.29407 -0.0734,-0.0734 -1.5e-4,-0.2658 0.16279,-0.42754 z m 0.74488,-0.18892 c 0,-0.27001 0.10729,-0.42462 0.23843,-0.34357 0.13114,0.081 0.23843,0.30196 0.23843,0.49093 0,0.18896 -0.10729,0.34357 -0.23843,0.34357 -0.13114,0 -0.23843,-0.22092 -0.23843,-0.49093 z m -3.3676,-0.0495 c 0.23547,-0.23372 0.26286,-0.20634 0.13347,0.13348 -0.0895,0.23514 -0.22286,0.36747 -0.29627,0.29406 -0.0734,-0.0734 -1.5e-4,-0.2658 0.1628,-0.42754 z m 9.20282,-0.36723 c 0.0734,-0.0734 0.26581,-1.5e-4 0.42754,0.1628 0.23372,0.23547 0.20634,0.26286 -0.13348,0.13347 -0.23514,-0.0895 -0.36746,-0.22286 -0.29406,-0.29627 z m 26.53353,-1.52008 c 0.17019,-0.65081 0.41537,-0.70554 0.41537,-0.0927 0,0.29346 -0.1194,0.53357 -0.26533,0.53357 -0.14593,0 -0.21345,-0.19838 -0.15004,-0.44084 z m -21.69901,-1.54503 c 0.16392,-0.0662 0.43215,-0.0662 0.59607,0 0.16393,0.0662 0.0298,0.12026 -0.29803,0.12026 -0.32785,0 -0.46196,-0.0541 -0.29804,-0.12026 z m -0.41725,-0.90096 c 0,-0.25166 0.45757,-0.35738 0.59366,-0.13717 0.0824,0.13327 -0.0175,0.24232 -0.22195,0.24232 -0.20444,0 -0.37171,-0.0473 -0.37171,-0.10515 z m 22.72064,-2.09755 c 0.057,-0.29659 0.10585,-0.11008 0.1085,0.41447 0.003,0.52455 -0.044,0.76721 -0.10369,0.53925 -0.0597,-0.22796 -0.0618,-0.65714 -0.005,-0.95372 z m -21.40928,-0.1816 c -0.18649,-0.30176 0.12914,-0.30176 0.59608,0 0.30821,0.19918 0.30192,0.23163 -0.0456,0.23478 -0.22174,0.002 -0.46949,-0.10365 -0.55054,-0.23478 z m -3.39266,-0.62091 c 0.0792,-0.0792 0.28487,-0.0877 0.45699,-0.0189 0.19021,0.0761 0.13371,0.13261 -0.14405,0.14405 -0.25135,0.0103 -0.39217,-0.046 -0.31294,-0.12523 z m -3.09959,0 c 0.0792,-0.0792 0.28487,-0.0877 0.457,-0.0189 0.1902,0.0761 0.1337,0.13261 -0.14406,0.14405 -0.25134,0.0103 -0.39217,-0.046 -0.31294,-0.12523 z m 0.95372,-0.23844 c 0.0792,-0.0792 0.28487,-0.0877 0.457,-0.0188 0.1902,0.0761 0.1337,0.13261 -0.14406,0.14405 -0.25135,0.0103 -0.39217,-0.046 -0.31294,-0.12523 z m 28.99429,-0.63481 c 0.23548,-0.23373 0.26286,-0.20634 0.13347,0.13347 -0.0895,0.23514 -0.22286,0.36747 -0.29626,0.29406 -0.0734,-0.0734 -1.5e-4,-0.2658 0.16279,-0.42753 z m -1.16256,-0.17485 c 0,-0.26979 0.15895,-0.47686 0.36603,-0.47686 0.29215,0 0.31452,0.0962 0.11083,0.47686 -0.14037,0.26227 -0.30508,0.47686 -0.36604,0.47686 -0.061,0 -0.11082,-0.21459 -0.11082,-0.47686 z m 0.3125,-2.80155 c 0.06,-0.22949 0.10904,-0.0417 0.10904,0.41725 0,0.45898 -0.0491,0.64674 -0.10904,0.41725 -0.06,-0.22949 -0.06,-0.60501 0,-0.8345 z m -10.70852,0.37962 c 0.43304,-0.61826 0.51369,-0.41559 0.12421,0.31215 -0.14176,0.26489 -0.31364,0.42571 -0.38196,0.35739 -0.0683,-0.0683 0.0476,-0.36962 0.25775,-0.66954 z m 3.10634,-0.86216 c 0.41195,-0.39346 0.41834,-0.38707 0.14531,0.14531 -0.15707,0.30629 -0.35099,0.4915 -0.43091,0.41158 -0.0799,-0.0799 0.0486,-0.33053 0.2856,-0.55689 z m 4.74747,-0.35197 c 0.0662,-0.16392 0.12026,-0.0298 0.12026,0.29804 0,0.32784 -0.0541,0.46195 -0.12026,0.29804 -0.0662,-0.16392 -0.0662,-0.43216 0,-0.59608 z m -0.8649,-3.75527 c -0.0686,-0.26227 -0.0274,-0.47686 0.0914,-0.47686 0.11886,0 0.21611,0.21459 0.21611,0.47686 0,0.26227 -0.0412,0.47686 -0.0914,0.47686 -0.0503,0 -0.14752,-0.21459 -0.21611,-0.47686 z m -1.19276,-0.71293 c 0.13832,-0.52894 0.16254,-0.53729 0.31564,-0.1088 0.092,0.25737 0.0506,0.53796 -0.0928,0.62994 -0.35773,0.22945 -0.39586,0.14031 -0.22288,-0.52114 z m 4.43463,-0.89193 c 0.0604,-0.23199 0.11389,-0.0999 0.11875,0.2935 0.005,0.3934 -0.0446,0.58321 -0.10991,0.42178 -0.0653,-0.16142 -0.0693,-0.4833 -0.009,-0.71528 z m 1.06995,-0.0516 c -0.0567,-0.38649 -0.0153,-0.64839 0.0922,-0.582 0.19116,0.11814 0.28482,1.28469 0.10314,1.28469 -0.0507,0 -0.13857,-0.31621 -0.19529,-0.70269 z m -2.85586,0.17417 c 0.17109,-0.17108 0.28214,-0.18516 0.28214,-0.0358 0,0.31825 -0.28197,0.60022 -0.4411,0.4411 -0.0677,-0.0678 0.004,-0.25015 0.15896,-0.40533 z m 2.16722,-2.40565 c 0.18877,-0.18877 0.26079,-0.1269 0.26079,0.22402 0,0.63035 -0.33344,0.96494 -0.43961,0.44114 -0.0451,-0.2224 0.0354,-0.52172 0.17882,-0.66516 z m 3.31033,0.0786 c -0.0573,-0.39036 -0.0174,-0.84635 0.0885,-1.01332 0.11557,-0.1821 0.19414,0.10192 0.19633,0.70974 0.004,1.17684 -0.13489,1.32513 -0.28483,0.30358 z m 0.84586,-7.45648 c 0.0662,-0.16392 0.12026,-0.0298 0.12026,0.29804 0,0.32784 -0.0541,0.46196 -0.12026,0.29804 -0.0662,-0.16393 -0.0662,-0.43216 0,-0.59608 z m 0.30536,-1.50257 c -0.0814,-0.21219 -0.0414,-0.30789 0.0937,-0.22436 0.12964,0.0801 0.23571,0.24663 0.23571,0.37003 0,0.34297 -0.1709,0.26739 -0.32941,-0.14567 z m -1.0182,26.53771 c 0.0846,-1.47528 0.22036,-2.97739 0.30166,-3.33802 0.17757,-0.78766 -0.26285,-0.89808 -0.47547,-0.11921 -0.28566,1.04638 -0.46789,6.13957 -0.21966,6.13957 0.13724,0 0.30536,-1.14608 0.39347,-2.68234 z m 1.61483,-1.19215 c 0.15328,-0.31728 0.1037,-6.1769 -0.0531,-6.2738 -0.11497,-0.071 -0.20384,1.31848 -0.19842,3.10236 0.008,2.72084 0.0733,3.54041 0.25151,3.17144 z m -25.66241,-8.52776 c -0.0824,-0.13327 -0.24965,-0.18059 -0.37172,-0.10514 -0.33072,0.20439 -0.26905,0.34746 0.14976,0.34746 0.20445,0 0.30432,-0.10904 0.22196,-0.24232 z m 29.4575,-4.5382 c 0.005,-0.45242 0.0673,-1.22493 0.13866,-1.71669 0.0754,-0.51985 0.0306,-0.89412 -0.10703,-0.89412 -0.28955,0 -0.49831,2.89057 -0.23161,3.20689 0.10504,0.12458 0.19503,-0.14366 0.19998,-0.59608 z m 0.31883,-3.59433 c 0.22578,-1.12884 0.18274,-1.29806 -0.20104,-0.79066 -0.38378,0.50741 -0.48864,1.53575 -0.1566,1.53575 0.11475,0 0.27568,-0.33529 0.35764,-0.74509 z m -3.48703,-17.29506 c 0.16392,-0.0662 0.29804,-0.36737 0.29804,-0.6694 0,-0.421 -0.15801,-0.57233 -0.67715,-0.64853 -0.86549,-0.12702 -1.23029,-0.002 -1.23029,0.42278 0,0.21645 0.27833,0.34771 0.77489,0.36543 0.50175,0.0179 0.60681,0.0681 0.29804,0.14236 -0.76408,0.18379 -1.00301,0.54763 -0.34572,0.52645 0.32128,-0.0103 0.71827,-0.0729 0.88219,-0.13909 z"
       id="path7" /><path
       style="fill:#231300;fill-opacity:0.17142852;stroke-width:0.747474"
       d="m 13.321775,260.68987 c -0.580123,-0.28021 -1.535352,-0.51351 -2.122726,-0.51843 -1.3134409,-0.0112 -1.6992205,-0.36775 -1.7062915,-1.57792 -0.00844,-1.44368 -1.0040609,-7.15618 -1.3119008,-7.52711 -0.1506315,-0.1815 -0.2071032,-0.50403 -0.1254861,-0.71673 0.08162,-0.21269 -0.034983,-0.53891 -0.2591426,-0.72494 -0.2241456,-0.18601 -0.4117465,-0.65001 -0.4168822,-1.03108 -0.00524,-0.38108 -0.1789306,-0.98953 -0.3861975,-1.35211 -0.4182197,-0.7316 -0.5206537,-1.84585 -0.1696921,-1.84585 0.4904707,0 0.4104538,-3.97894 -0.1043702,-5.18979 -0.3043424,-0.71578 -0.4234448,-1.7695 -0.411896,-3.64391 0.01742,-2.83084 -0.6648719,-6.92464 -1.5642792,-9.38529 -0.2851916,-0.78027 -0.5251686,-1.77633 -0.5332712,-2.21347 -0.020257,-1.09248 -0.8968058,-3.16803 -1.3379283,-3.16803 -0.2470107,0 -0.4149684,0.50061 -0.530827,1.58216 -0.093218,0.87019 -0.3420521,2.36562 -0.5529598,3.3232 -0.3915948,1.77795 -0.6262123,7.03919 -0.5455746,12.23466 0.130113,8.38342 0.1258673,10.12405 -0.025862,10.6021 -0.091222,0.28742 -0.26965166,1.9133 -0.39651319,3.61306 -0.17398235,2.3311 -0.14568292,3.41262 0.11518586,4.40153 0.33204353,1.2587 0.32010633,1.33883 -0.29885558,2.00671 -0.49352054,0.53252 -0.71731456,0.62305 -0.95429412,0.38607 -0.42523884,-0.42524 -1.61545837,-0.38804 -2.74986397,0.0859 -1.3190918,0.55116 -2.7879256,0.49334 -4.0394751,-0.15901 l -1.0639196,-0.55454 0.5943406,-0.46202 c 0.3268859,-0.2541 1.062924,-0.54835 1.6356402,-0.65387 0.5727229,-0.10552 1.2814267,-0.36002 1.574907,-0.56558 0.2934814,-0.20556 0.789327,-0.37375 1.1018762,-0.37375 0.7735397,0 1.0457098,-0.40653 1.4265266,-2.13077 0.3744097,-1.69522 0.2834569,-2.67087 -0.5388027,-5.78001 -0.5602107,-2.11824 -0.57226,-2.35004 -0.2192641,-4.21909 0.3066964,-1.6239 0.3129446,-2.10283 0.03498,-2.67727 -0.2518094,-0.52036 -0.2873289,-1.39862 -0.138641,-3.42801 0.2504185,-3.41788 -0.018842,-6.51201 -0.7329523,-8.42315 -0.4538367,-1.21454 -0.5307446,-1.89114 -0.4346416,-3.82355 0.064205,-1.29134 0.2070954,-2.56563 0.3174899,-2.83177 0.1104024,-0.26615 0.065331,-1.45278 -0.1001201,-2.63694 -0.3572328,-2.55656 -0.3851886,-3.95069 -0.075366,-3.75921 0.1236467,0.0763 0.3012918,-0.89554 0.3947785,-2.1599 0.093487,-1.26436 0.3469031,-2.95149 0.56314,-3.74916 0.2162448,-0.79767 0.3945779,-2.00596 0.3962965,-2.68508 0.00304,-1.05326 -0.084083,-1.26098 -0.5901758,-1.41304 -0.3263183,-0.0981 -1.0086216,-0.56502 -1.5162315,-1.03771 -0.50761,-0.47268 -1.6942268,-1.25995 -2.6369278,-1.74947 -0.9427011,-0.48952 -2.3965628,-1.43559 -3.2308048,-2.10236 -0.834242,-0.66678 -1.992889,-1.36944 -2.574775,-1.56147 -0.581888,-0.19204 -1.177109,-0.49271 -1.322711,-0.66815 -0.369641,-0.4454 0.611069,-2.66082 1.658812,-3.74727 0.454555,-0.47135 0.729328,-0.857 0.610606,-0.857 -0.118721,0 -0.06414,-0.18286 0.121367,-0.40635 0.185479,-0.22348 0.615008,-0.96512 0.954512,-1.64807 0.339502,-0.68296 0.853608,-1.59772 1.1424623,-2.03282 0.288847,-0.43509 0.6094993,-0.96907 0.7125612,-1.18663 0.1030594,-0.21753 0.2808112,-0.51418 0.3950179,-0.65922 0.9396884,-1.19335 2.0603408,-2.8095 2.0603408,-2.97132 0,-0.44527 1.1829318,-0.88403 2.7872972,-1.03385 1.0966743,-0.10238 1.9043956,-0.33325 2.267265,-0.64796 0.310022,-0.26888 0.71190226,-0.48888 0.89306808,-0.48888 0.18117291,0 0.45966725,-0.37369 0.61888706,-0.83043 0.361621,-1.03734 0.363243,-1.01541 -0.07518104,-1.01541 -0.36263013,0 -1.744869,-2.59125 -1.744869,-3.27108 0,-0.19583 -0.1611471,-0.48979 -0.3581077,-0.65325 -0.1969516,-0.16344 -0.4331393,-1.01514 -0.5248545,-1.89264 -0.1954268,-1.86975 0.1578519,-2.9267 1.5433945,-4.61759 0.79750336,-0.97324 1.07187155,-1.12824 2.16986789,-1.22587 1.48597321,-0.13211 1.99494411,-3e-4 1.81451841,0.46987 -0.082999,0.21629 0.1547648,0.40683 0.6408629,0.5136 1.0381908,0.22802 1.7374688,1.1853 2.122426,2.90548 0.2728058,1.219 0.2514205,1.6847 -0.1475816,3.21413 -0.2566381,0.98372 -0.5288237,2.13794 -0.6048569,2.56495 -0.076041,0.42701 -0.3587208,1.01302 -0.6281856,1.30227 -0.6709786,0.7202 -0.6204941,1.05046 0.3252265,2.12757 0.8719896,0.99316 1.7563574,1.32318 4.3209676,1.6125 1.672281,0.18866 2.100218,0.50802 2.350487,1.75421 0.07919,0.3943 0.414678,0.98731 0.745533,1.31778 0.330847,0.33047 0.624223,0.8697 0.651932,1.19825 0.02773,0.32857 0.274301,0.92218 0.547982,1.31915 0.27368,0.39696 0.929963,1.50635 1.458414,2.46531 0.528442,0.95895 1.438807,2.3797 2.023019,3.15721 1.197127,1.59323 1.476959,3.26742 0.600745,3.59421 -0.481292,0.17951 -2.239973,1.64903 -5.454655,4.55781 -1.041838,0.9427 -2.4508141,2.16488 -3.1310609,2.71596 -1.2235125,0.99119 -1.232594,1.01012 -0.8446469,1.76034 0.2156907,0.41711 0.5807951,1.85141 0.8113396,3.18734 0.2305513,1.33596 0.5287186,2.7171 0.6625912,3.06924 0.1338803,0.35212 0.2434233,0.96477 0.2434233,1.36141 0,0.39664 0.1403905,0.86156 0.3119808,1.03315 0.2130449,0.21304 0.3295989,1.83954 0.3675189,5.12883 0.03058,2.64927 0.08375,4.99484 0.118228,5.21237 0.03446,0.21755 -0.01966,1.04819 -0.120284,1.84585 -0.4413093,3.49783 -0.6008576,5.96887 -0.4170312,6.45898 0.1091098,0.29088 0.2825012,1.59683 0.3853232,2.90211 0.102824,1.30528 0.368774,3.01265 0.591014,3.79416 0.314694,1.10663 0.363198,2.07504 0.219294,4.37815 -0.155303,2.4856 -0.110506,3.16316 0.280901,4.24847 0.256123,0.71018 0.533728,1.99101 0.616907,2.8463 0.114602,1.17844 0.277978,1.62547 0.674603,1.84585 0.287853,0.15992 0.680233,0.49844 0.871953,0.75225 0.191719,0.25381 0.505315,0.46146 0.696878,0.46146 0.191563,0 0.494934,0.17669 0.674156,0.39263 0.179222,0.21596 0.43897,0.32274 0.577215,0.23729 0.138253,-0.0855 0.401484,0.0499 0.584975,0.30089 0.183482,0.25094 0.753776,0.5298 1.267307,0.61972 0.836416,0.14645 0.91061,0.22529 0.712112,0.75678 -0.198045,0.53029 -0.397561,0.59235 -1.878159,0.58437 -1.081761,-0.006 -2.022579,-0.18575 -2.711347,-0.51845 z m -3.3852184,-6.39454 c -0.073176,-0.18128 -0.1329987,-0.033 -0.1329987,0.32962 0,0.36257 0.059876,0.5109 0.1329987,0.3296 0.073175,-0.18128 0.073175,-0.47794 0,-0.65922 z m -2.2841804,-7.71301 c 0,-0.21754 -0.1149311,-0.39554 -0.255412,-0.39554 -0.1404809,0 -0.1871153,0.178 -0.1036372,0.39554 0.083486,0.21755 0.1984176,0.39554 0.2554196,0.39554 0.056955,0 0.1036305,-0.17799 0.1036296,-0.39554 z m -0.8801294,-8.37224 c -0.073175,-0.1813 -0.1329978,-0.033 -0.1329978,0.32962 0,0.36258 0.059868,0.5109 0.1329978,0.32962 0.073176,-0.1813 0.073176,-0.47795 0,-0.65924 z m -3.6862041,-25.5617 c -0.084173,-0.21036 -0.146662,-0.14789 -0.1593093,0.15931 -0.011436,0.27797 0.050904,0.43372 0.1384922,0.3461 0.087626,-0.0876 0.096993,-0.31506 0.020854,-0.50541 z m -5.4596033,-11.27609 c -0.432699,-1.92916 -2.3838931,-7.39665 -2.639642,-7.39665 -0.6092448,0 -3.0791871,4.93383 -2.8148273,5.62274 0.1279307,0.33337 3.68894,3.02051 5.0330347,3.79792 0.748753,0.43306 0.8564941,-0.0844 0.4214346,-2.02401 z m 12.7550066,0.0214 c 0.601964,-0.5405 1.42909,-1.19286 1.838064,-1.44973 0.850597,-0.53423 0.880847,-0.45339 -1.246325,-3.33133 -0.589586,-0.79766 -1.0518546,-1.51568 -1.0272708,-1.59557 0.024589,-0.08 -0.1874438,-0.29025 -0.4711702,-0.46744 -0.5883306,-0.36742 -0.4900603,-0.55257 -1.1649629,2.19486 -0.249388,1.01522 -0.61799,2.3543 -0.8191131,2.97576 -0.2011164,0.62145 -0.3656728,1.72147 -0.3656728,2.44452 v 1.3146 l 1.080984,-0.55147 c 0.594542,-0.30333 1.5735023,-0.99371 2.1754668,-1.5342 z M 8.0479179,189.49287 c -0.08963,-0.14504 -0.3042968,-0.26189 -0.4770236,-0.25965 -0.1887003,0.003 -0.1561774,0.10608 0.081485,0.25965 0.5065868,0.32738 0.5978756,0.32738 0.3955417,0 z m -9.7878591,-15.17599 c 0.090052,-0.23467 0.045815,-0.34051 -0.1036339,-0.24813 -0.1433665,0.0886 -0.2606669,0.27276 -0.2606669,0.40923 0,0.3793 0.1890062,0.29573 0.3643042,-0.1611 z M -18.284931,259.8888 c 0.14871,-0.14872 1.775462,-0.32009 3.615007,-0.38084 1.839543,-0.0608 3.468195,-0.18682 3.619214,-0.28016 0.33531,-0.20722 1.6915154,0.10316 1.4604328,0.3342 -0.2576476,0.25762 -1.3271948,0.35482 -5.2881998,0.4805 -2.511802,0.0797 -3.591156,0.031 -3.406454,-0.1537 z m 43.341027,0.0505 c 0,-0.12281 -1.305278,-0.18413 -2.900622,-0.13627 -1.595336,0.0479 -2.900615,-0.008 -2.900615,-0.12429 0,-0.2435 0.03834,-0.24666 5.73531,-0.47141 3.738072,-0.14746 4.285007,-0.11773 4.285007,0.23305 0,0.22116 -0.187699,0.47413 -0.417107,0.56216 -0.634874,0.24362 -3.801973,0.19095 -3.801973,-0.0633 z m 3.16431,-0.30408 c 0,-0.14504 -0.125666,-0.2637 -0.279257,-0.2637 -0.153591,0 -0.205915,0.11866 -0.116285,0.2637 0.08963,0.14503 0.215303,0.26369 0.279257,0.26369 0.06398,0 0.116285,-0.11866 0.116285,-0.26369 z M 3.4332974,259.10777 c 0,-0.15192 0.8103603,-0.26197 1.9117725,-0.25964 1.3316797,0.003 1.7917503,0.0816 1.5162314,0.25964 -0.5233903,0.33825 -3.4280039,0.33825 -3.4280039,0 z"
       id="path6" /></g></svg>
