<?xml version="1.0" encoding="UTF-8" standalone="no"?>
<!-- Created with Inkscape (http://www.inkscape.org/) -->

<svg
   width="75.464546mm"
   height="131.67062mm"
   viewBox="0 0 75.464545 131.67062"
   version="1.1"
   id="svg1"
   xml:space="preserve"
   inkscape:version="1.4 (e7c3feb100, 2024-10-09)"
   sodipodi:docname="crinos.svg"
   xmlns:inkscape="http://www.inkscape.org/namespaces/inkscape"
   xmlns:sodipodi="http://sodipodi.sourceforge.net/DTD/sodipodi-0.dtd"
   xmlns="http://www.w3.org/2000/svg"
   xmlns:svg="http://www.w3.org/2000/svg"><sodipodi:namedview
     id="namedview1"
     pagecolor="#ffffff"
     bordercolor="#000000"
     borderopacity="0.25"
     inkscape:showpageshadow="2"
     inkscape:pageopacity="0.0"
     inkscape:pagecheckerboard="0"
     inkscape:deskcolor="#d1d1d1"
     inkscape:document-units="mm"
     inkscape:zoom="0.89619809"
     inkscape:cx="-88.150154"
     inkscape:cy="300.15685"
     inkscape:window-width="2560"
     inkscape:window-height="1371"
     inkscape:window-x="0"
     inkscape:window-y="32"
     inkscape:window-maximized="1"
     inkscape:current-layer="layer1" /><defs
     id="defs1" /><g
     inkscape:label="Layer 1"
     inkscape:groupmode="layer"
     id="layer1"
     transform="translate(-38.043019,-133.50472)"><path
       style="fill:#3a1f00;fill-opacity:0.23506;stroke:none;stroke-width:1.06191"
       d="m 58.518518,264.88638 c -0.09568,-0.24919 -0.488912,-0.45308 -0.87397,-0.45308 -0.414908,0 -1.019408,-0.34182 -1.48396,-0.83912 -0.676593,-0.7243 -0.831281,-0.78197 -1.130494,-0.42145 -0.521289,0.62812 -1.504114,0.50345 -2.24457,-0.28472 -0.362938,-0.38633 -0.81565,-0.70241 -1.006039,-0.70241 -0.201996,0 -0.287914,-0.22275 -0.206307,-0.53484 0.09653,-0.36889 -0.04226,-0.59264 -0.447094,-0.72113 -0.888146,-0.28189 -0.957403,-1.18064 -0.304374,-3.94973 1.012718,-4.29423 1.37899,-6.39454 1.395036,-7.99954 0.0085,-0.84991 0.139948,-1.73494 0.292119,-1.96674 0.499138,-0.76034 0.861312,0.26793 0.667981,1.8965 -0.216214,1.82133 0.28955,2.01297 0.741476,0.28096 0.389995,-1.49461 1.718779,-5.97796 2.810449,-9.48249 0.457299,-1.46802 1.10005,-3.93346 1.428338,-5.47876 0.688996,-3.24314 1.102045,-3.88592 2.399715,-3.73443 0.494519,0.0578 0.837312,0.005 0.761768,-0.11728 -0.0755,-0.12224 -0.0032,-0.22225 0.160189,-0.22225 0.16365,0 0.297546,0.22922 0.297546,0.50937 0,0.28014 0.347689,0.84267 0.772642,1.25005 l 0.772642,0.74071 -0.09738,-1.39054 -0.09738,-1.39055 h -1.199327 c -0.773884,0 -1.452729,-0.19933 -1.913691,-0.56192 -0.392905,-0.30906 -0.898638,-0.56193 -1.123847,-0.56193 -0.508068,0 -1.890075,-1.06175 -1.890075,-1.45207 0,-0.15809 -0.284473,-0.68626 -0.632163,-1.1737 -0.588051,-0.82441 -0.63863,-1.23228 -0.724739,-5.84427 -0.09101,-4.87491 -0.08039,-4.98082 0.632163,-6.31942 0.398607,-0.74878 0.724739,-1.50775 0.724739,-1.68661 0,-0.17887 0.444472,-0.98569 0.987721,-1.79295 0.543239,-0.80726 0.965485,-1.61017 0.93831,-1.78425 -0.150493,-0.96404 3.043273,-5.71472 3.520812,-5.23718 0.160655,0.16066 0.122512,0.42781 -0.09929,0.69501 -0.198119,0.23872 -0.511328,1.16072 -0.696015,2.04889 -0.267101,1.28444 -0.261048,1.90228 0.02952,3.01966 0.200945,0.77265 0.367791,1.80977 0.370775,2.30472 0.0032,0.49495 0.158458,1.23579 0.345502,1.64631 0.290463,0.63751 0.267324,0.79961 -0.158649,1.11109 -1.027149,0.75107 -0.538291,4.03843 0.775435,5.21452 0.820927,0.73491 0.899073,0.75208 1.40214,0.30815 0.840796,-0.74196 2.46123,-3.40289 2.26532,-3.71988 -0.226993,-0.36729 0.313113,-1.15128 2.095298,-3.04144 0.995898,-1.05622 1.422306,-1.73667 1.408533,-2.24769 -0.02251,-0.83671 -0.48957,-2.11596 -0.523997,-1.4353 -0.04449,0.8802 -0.617955,2.52866 -0.87963,2.52866 -0.260368,0 -0.08941,-1.22219 0.254826,-1.82132 0.08718,-0.15181 0.17428,-0.46788 0.193468,-0.7024 0.01922,-0.23451 0.191749,-1.24914 0.383465,-2.25473 0.273717,-1.43579 0.275511,-2.00888 0.0085,-2.66915 l -0.340213,-0.84079 -0.212349,0.84289 c -0.116799,0.46359 -0.418614,2.10721 -0.6707,3.65251 -0.252086,1.5453 -0.508026,2.99928 -0.568746,3.23107 -0.06074,0.23179 -0.120069,0.51627 -0.131888,0.63216 -0.01179,0.1159 -0.162674,0.21073 -0.335212,0.21073 -0.198184,0 -0.248008,-0.28455 -0.135287,-0.77265 0.240224,-1.04023 0.410543,-2.00919 0.864009,-4.91544 0.567217,-3.63535 0.369469,-4.10963 -2.245133,-5.38456 -1.284215,-0.62622 -2.103348,-1.19687 -2.103348,-1.46533 0,-0.35231 0.259265,-0.28776 1.304562,0.32482 l 1.30455,0.76453 -1.627348,-2.0724 c -2.113627,-2.69165 -3.812857,-4.46058 -4.28481,-4.46058 -0.553539,0 -1.735122,-1.45077 -1.745401,-2.14305 -0.0053,-0.32877 -0.198523,-0.75516 -0.430326,-0.94753 -0.350673,-0.29105 -0.421439,-0.25559 -0.421439,0.21117 0,0.59058 1.356414,3.23415 1.741716,3.39451 0.320144,0.13325 0.279717,0.88972 -0.04757,0.88972 -0.14992,0 -0.560824,-0.50476 -0.913133,-1.12168 -1.061597,-1.85898 -1.34296,-1.49508 -1.34296,1.73694 0,3.38944 -0.33158,5.38565 -1.457146,8.77239 -0.457724,1.37722 -0.771464,2.73639 -0.697205,3.02034 0.07423,0.28396 0.02039,0.51628 -0.119645,0.51628 -0.140065,0 -0.254666,0.3635 -0.254666,0.80777 0,1.3954 -0.336104,2.56378 -0.737525,2.56378 -0.212477,0 -0.386321,0.21996 -0.386321,0.4888 0,0.83839 -1.161247,6.03636 -1.717516,7.68797 -0.291599,0.86577 -0.530188,1.98466 -0.530188,2.48642 0,0.50175 -0.316076,2.10022 -0.702408,3.55215 -0.386321,1.45195 -0.702397,3.39906 -0.702397,4.32693 0,1.49973 -0.06244,1.68703 -0.561929,1.68703 -0.379981,0 -0.561928,-0.1873 -0.561928,-0.57851 0,-0.34302 -0.123627,-0.5021 -0.303726,-0.39079 -0.167049,0.10322 -0.227853,0.49001 -0.135128,0.85948 0.211649,0.84325 -0.296208,0.89216 -0.562183,0.0541 l -0.196028,-0.61761 -0.490441,0.60567 c -0.519601,0.64167 -0.841157,0.56012 -0.841157,-0.21334 0,-0.71319 -1.797338,-2.66651 -2.215676,-2.40796 -0.193214,0.11941 -0.280247,0.40224 -0.193426,0.6285 0.115949,0.30216 0.0154,0.36618 -0.378644,0.24112 -0.303556,-0.0963 -0.634743,-0.0129 -0.762745,0.19235 -0.332292,0.53262 -0.416416,1.346 -0.139216,1.346 0.132133,0 0.18938,0.34769 0.127227,0.77265 -0.322915,2.20775 -0.766494,4.18328 -1.009373,4.4954 -0.191769,0.24642 -0.147265,0.3512 0.149177,0.3512 0.441508,0 1.051127,-1.86984 1.051127,-3.22406 0,-0.4963 0.200923,-0.80353 0.632173,-0.96668 0.347689,-0.13154 0.664891,-0.21063 0.704904,-0.17575 0.10841,0.0945 -0.478091,5.55243 -0.657915,6.1225 -0.09132,0.28963 -0.433788,0.49169 -0.833224,0.49169 -0.511148,0 -0.720078,-0.19024 -0.848526,-0.77265 -0.280014,-1.26958 -0.355282,-1.36458 -0.556566,-0.7024 -0.219814,0.72314 -0.688539,0.85188 -0.688539,0.18911 0,-0.24369 -0.381734,-0.82478 -0.848282,-1.29134 l -0.848282,-0.84828 0.848282,-0.96615 c 0.466548,-0.53136 0.848282,-1.19043 0.848282,-1.46458 0,-0.27415 0.185621,-0.74387 0.412508,-1.04383 0.226876,-0.29996 0.416521,-0.82083 0.421438,-1.15748 0.0053,-0.33666 0.199553,-0.80272 0.432535,-1.0357 0.237103,-0.2371 0.307507,-0.49535 0.159891,-0.58658 -0.145035,-0.0896 -0.343112,-0.0345 -0.440181,0.12258 -0.330231,0.53433 -1.03661,0.32509 -0.853219,-0.25275 0.09398,-0.29604 0.04524,-0.61588 -0.108187,-0.71073 -0.285217,-0.17626 -1.148642,2.30736 -1.148642,3.30403 0,0.56528 -1.049099,1.67686 -1.386042,1.46862 -0.305351,-0.18871 -0.112615,-3.58002 0.260464,-4.58317 0.18799,-0.50548 0.581574,-1.04738 0.874639,-1.20423 0.293054,-0.15684 0.719685,-0.73236 0.948058,-1.27894 0.228374,-0.54659 0.65989,-1.2058 0.958933,-1.46492 0.64532,-0.5592 1.434539,-3.1874 1.434539,-4.77722 0,-0.62095 0.494253,-2.49799 1.098339,-4.1712 0.615438,-1.70464 1.181009,-3.87471 1.286382,-4.93572 0.103429,-1.04145 0.296537,-1.96061 0.429158,-2.04257 0.37326,-0.23068 1.119599,-1.84969 1.119599,-2.42871 0,-0.28533 0.112594,-0.51876 0.250217,-0.51876 0.238737,0 0.497874,-1.12632 0.678727,-2.9501 0.04598,-0.4636 0.222746,-1.09576 0.39282,-1.40482 0.404533,-0.73508 0.989717,-2.73749 0.903926,-3.09303 -0.03695,-0.15319 0.0085,-0.46817 0.101094,-0.69997 0.09249,-0.23179 0.224911,-1.36969 0.294158,-2.52866 0.06924,-1.15897 0.221768,-2.40609 0.338928,-2.77137 0.193405,-0.60301 0.151237,-0.64455 -0.458074,-0.45115 -0.567036,0.17997 -0.618411,0.1495 -0.331282,-0.19646 0.417042,-0.5025 0.683463,-2.4174 0.352807,-2.53577 -0.132037,-0.0473 -0.327364,-1.47815 -0.434054,-3.17974 -0.183232,-2.92224 -0.153052,-3.19611 0.544163,-4.93888 0.405988,-1.01481 0.738162,-2.1825 0.738162,-2.59489 0,-0.46227 0.377083,-1.16719 0.983367,-1.83827 0.54085,-0.59866 0.983367,-1.22064 0.983367,-1.38219 0,-0.16153 0.335446,-0.53806 0.745437,-0.83672 l 0.745436,-0.54302 -0.885916,0.13003 c -0.681595,0.10003 -0.885916,0.0255 -0.885916,-0.32331 0,-0.34945 0.287479,-0.45334 1.254546,-0.45334 0.99594,0 1.454343,-0.1754 2.223672,-0.85089 0.533024,-0.46799 1.130463,-0.81568 1.327669,-0.77264 0.197196,0.043 0.409014,-0.17462 0.470711,-0.48368 0.0617,-0.30906 0.384367,-0.77526 0.717052,-1.03603 0.587796,-0.46069 0.569213,-0.47008 -0.657405,-0.33232 -1.181285,0.13266 -1.227297,0.11351 -0.716914,-0.29855 0.299968,-0.24218 0.694019,-0.44032 0.875669,-0.44032 0.181649,0 1.010913,-0.27583 1.842799,-0.61298 1.534198,-0.62175 2.601987,-1.43496 2.291656,-1.74529 -0.09366,-0.0937 -0.02283,-0.1704 0.157406,-0.1704 0.180279,0 0.327789,0.1339 0.327789,0.29755 0,0.16365 0.132695,0.21552 0.294901,0.11529 0.182383,-0.11273 0.07518,-0.3728 -0.280969,-0.68171 -0.929783,-0.80639 -0.739097,-1.56 0.487744,-1.92758 0.584972,-0.17526 1.313449,-0.55143 1.618822,-0.83593 0.305372,-0.2845 0.806612,-0.663 1.113853,-0.84112 0.486151,-0.28183 0.403705,-0.32495 -0.635454,-0.33238 -1.58396,-0.0114 -1.565419,-0.56046 0.05925,-1.75566 1.225014,-0.90117 1.59323,-1.75579 1.008587,-2.34089 -0.146692,-0.14681 -0.851138,-1.40481 -1.56545,-2.79558 -0.714323,-1.39077 -1.566162,-2.81482 -1.892996,-3.16455 -0.693732,-0.74235 -0.472027,-1.09549 0.854303,-1.36075 0.859379,-0.17188 0.932534,-0.11776 1.463657,1.08294 0.42216,0.95437 0.748898,1.30216 1.334326,1.4203 0.426398,0.086 0.996523,0.24205 1.266948,0.34667 0.436794,0.16898 0.491683,-0.01 0.491683,-1.60366 0,-1.44958 0.108463,-1.88674 0.565136,-2.27775 0.696971,-0.59677 0.83968,-0.60457 0.83968,-0.0459 0,0.24092 0.129702,0.35786 0.288233,0.25989 0.158522,-0.098 0.428755,0.22498 0.600508,0.71768 l 0.312285,0.89581 1.039436,-1.64738 c 0.571687,-0.90606 1.423314,-2.34278 1.892506,-3.19269 0.469203,-0.8499 1.369529,-2.41921 2.000747,-3.48734 0.631218,-1.06812 1.346422,-2.64854 1.589354,-3.51203 0.643345,-2.28678 1.5488,-5.08699 1.983969,-6.13562 0.322267,-0.77656 0.52165,-0.91313 1.333094,-0.91313 0.560347,0 1.128678,0.20294 1.376984,0.49168 0.491832,0.57194 1.34777,3.9766 1.359717,5.40853 0.0042,0.54086 0.189773,1.22325 0.411711,1.51644 0.221928,0.29319 0.3285,0.65443 0.236837,0.80275 -0.09621,0.15561 0.05947,0.1979 0.368014,0.10003 0.909416,-0.28864 0.703703,1.89033 -0.355155,3.76201 -0.858115,1.51682 -2.149625,5.51471 -2.677562,8.28839 -0.147053,0.77265 -0.379876,2.89521 -0.517371,4.71681 l -0.249994,3.312 1.411357,1.51641 c 0.855355,0.91902 1.567766,1.45639 1.808372,1.36406 0.22642,-0.0869 0.397004,0.018 0.397004,0.24405 0,0.21801 0.423902,0.80725 0.942006,1.3094 0.692076,0.6708 1.259324,0.94207 2.138062,1.02251 1.374817,0.12585 1.715306,0.34181 1.126235,0.71434 -0.561939,0.35538 -1.591393,0.33592 -2.300321,-0.0435 -0.573715,-0.30704 -0.572951,-0.29551 0.03759,0.56193 0.45509,0.6391 0.845701,0.8754 1.447101,0.8754 0.571316,0 0.823752,0.13918 0.823752,0.4542 0,0.45917 -0.105554,0.45749 -1.966734,-0.0314 l -0.702408,-0.1845 0.665602,0.58514 c 0.366082,0.32183 1.346358,0.78305 2.178393,1.02492 0.903671,0.2627 1.633551,0.66543 1.812715,1.00021 0.164957,0.30823 0.803852,1.01569 1.419768,1.57213 1.343289,1.21359 1.841163,2.31782 2.239144,4.96621 0.183009,1.21787 0.564509,2.4008 0.981594,3.04369 0.890132,1.37201 2.08177,4.07753 2.08177,4.72652 0,0.28071 0.110098,0.57843 0.244663,0.6616 0.134575,0.0831 0.320164,0.52863 0.412412,0.98991 0.09228,0.46129 0.551108,1.36792 1.019663,2.01475 0.468555,0.64681 0.851924,1.34672 0.851924,1.55532 0,0.20861 0.134947,0.37929 0.299893,0.37929 0.164946,0 0.229467,0.22191 0.143389,0.49312 -0.08612,0.27122 -0.06127,1.05097 0.05511,1.7328 l 0.211627,1.23968 1.260524,-1.72994 c 0.69329,-0.95147 1.42301,-1.73122 1.6216,-1.73279 0.28093,-0.002 0.2903,0.12941 0.0422,0.59296 -0.22411,0.41877 -0.22705,0.53908 -0.01,0.40487 0.53118,-0.32829 0.35192,0.13655 -1.1019,2.85748 l -1.410903,2.64058 0.612593,0.89482 c 0.33693,0.49215 0.95709,1.27412 1.37814,1.7377 0.42105,0.46359 0.96487,1.22219 1.2085,1.68578 0.3795,0.72213 0.63675,0.6003 0.49139,-0.23274 -0.0223,-0.128 0.18395,-0.18728 0.45841,-0.13171 0.34608,0.0701 0.47365,0.3136 0.41625,0.79466 -0.46142,3.86675 0.65705,9.66017 2.60194,13.47742 0.9474,1.85947 1.36305,2.40777 1.87747,2.47664 0.70902,0.0949 2.05974,2.00505 2.38167,3.36803 0.0984,0.41687 0.40256,1.01083 0.67576,1.31988 0.58023,0.65636 1.31543,2.72476 1.39812,3.93348 0.15225,2.22517 -0.23188,2.41192 -1.15581,0.56192 -0.60718,-1.21576 -0.81619,-1.38519 -1.58545,-1.2853 -0.20087,0.0261 -0.3512,-0.26033 -0.3512,-0.66912 0,-0.39309 -0.14297,-0.71472 -0.31772,-0.71472 -0.20511,0 -0.26217,0.34238 -0.16098,0.96597 0.15749,0.97048 -0.31311,1.77846 -0.78601,1.34953 -0.12629,-0.11456 -0.14628,0.0234 -0.0444,0.30638 0.10195,0.28307 0.18525,0.80566 0.18525,1.16133 0,0.38882 0.2037,0.69992 0.51089,0.78025 0.49478,0.12938 0.72905,-0.20992 1.29178,-1.87105 0.10588,-0.31243 0.28126,-0.43044 0.41765,-0.28097 0.36216,0.39688 0.58528,2.33424 0.28985,2.51684 -0.14436,0.0892 -0.26247,0.51124 -0.26247,0.93784 0,0.47781 -0.27053,1.01087 -0.70455,1.38823 -0.92777,0.8067 -1.20644,0.77275 -1.31376,-0.16005 -0.10312,-0.896 -0.58625,-0.93888 -0.79131,-0.0702 -0.0773,0.3273 -0.26691,0.59838 -0.42144,0.60241 -0.15453,0.004 -0.43901,0.13847 -0.63218,0.29877 -0.25642,0.21281 -0.3512,0.16845 -0.3512,-0.16437 0,-0.25071 -0.12643,-0.45584 -0.28096,-0.45584 -0.15453,0 -0.28096,0.11594 -0.28096,0.25764 0,0.39205 -1.96276,0.15166 -2.37243,-0.29057 -0.54262,-0.58574 -1.68007,-2.75132 -1.52602,-2.90537 0.0742,-0.0742 0.60245,-0.0592 1.17381,0.0337 0.78037,0.12663 1.03887,0.30337 1.03887,0.71032 0,0.3096 0.12745,0.46298 0.2974,0.35793 0.17462,-0.10792 0.22022,-0.53527 0.11044,-1.03509 -0.12943,-0.58935 -0.0912,-0.79215 0.12403,-0.65908 0.1974,0.122 0.31101,-0.079 0.31101,-0.55019 0,-1.15413 0.68028,-0.67971 0.84706,0.59072 0.12487,0.95114 0.17062,1.01042 0.33445,0.43323 0.12432,-0.43801 0.33292,-0.61373 0.60474,-0.50942 0.79908,0.30664 1.02752,-1.47131 0.26837,-2.08883 -0.41513,-0.33768 -0.45115,-0.32449 -0.28978,0.10608 0.14361,0.38321 0.0349,0.49169 -0.49275,0.49169 -0.37234,0 -0.75514,-0.12643 -0.85065,-0.28097 -0.29871,-0.48333 -0.70568,-0.30892 -0.98336,0.42145 -0.19787,0.52042 -0.47267,0.7024 -1.06071,0.7024 -0.962,0 -1.46795,-0.45514 -1.46795,-1.32052 0,-0.35542 -0.1137,-0.64622 -0.25267,-0.64622 -0.13897,0 -0.33004,-0.60055 -0.4246,-1.33457 -0.27682,-2.14881 -0.40979,-2.88189 -0.99281,-5.47343 -0.86692,-3.85354 -1.151925,-4.64185 -1.664677,-4.60443 -0.342942,0.0251 -0.479577,-0.25887 -0.543058,-1.12843 -0.07455,-1.02076 -0.180673,-1.18106 -0.873895,-1.3197 -1.442312,-0.28847 -2.484487,-1.45274 -2.842031,-3.17502 -0.178432,-0.85949 -0.258903,-1.81325 -0.178835,-2.11945 0.103429,-0.3956 0.03218,-0.5132 -0.246352,-0.40632 -0.503821,0.19333 -0.819908,-0.30944 -0.471836,-0.75049 0.370923,-0.47003 0.59901,-1.88419 0.303885,-1.88419 -0.133099,0 -0.241997,-0.18965 -0.241997,-0.42144 0,-0.23181 -0.126431,-0.42145 -0.280959,-0.42145 -0.154529,0 -0.280959,-0.18965 -0.280959,-0.42144 0,-0.2318 0.12643,-0.42145 0.280959,-0.42145 0.590642,0 0.230529,-1.23171 -1.130962,-3.86834 -0.77656,-1.50385 -1.779626,-3.36644 -2.229045,-4.13908 -0.44942,-0.77266 -0.973332,-2.18587 -1.164242,-3.14049 -0.249823,-1.24918 -0.488561,-1.77265 -0.851765,-1.86764 -0.524751,-0.13722 -0.607601,0.0161 -0.960005,1.77706 -0.10824,0.54085 -0.749843,2.08713 -1.425788,3.43617 -0.675945,1.34905 -1.228996,2.63595 -1.228996,2.8598 0,0.22384 -0.199044,0.60603 -0.442316,0.8493 -0.402451,0.40245 -0.398905,0.45899 0.0394,0.62718 0.452255,0.17355 0.451448,0.20701 -0.01317,0.54676 -0.67003,0.48994 -0.359773,2.59156 0.609173,4.12648 0.389209,0.61655 1.266365,2.26893 1.949223,3.67194 0.682869,1.40302 1.428443,2.65552 1.656848,2.78334 0.228395,0.12782 0.415269,0.47302 0.415269,0.76714 0,0.90749 0.553476,1.81039 1.411687,2.30294 1.385054,0.79491 3.315651,4.32831 4.191033,7.67049 0.161898,0.61811 0.296972,3.02034 0.300158,5.33828 0.0042,2.94944 0.127322,4.55177 0.410681,5.33829 0.222682,0.61812 0.410427,2.02385 0.417212,3.12383 l 0.01232,1.99998 -1.092966,0.14661 c -0.601145,0.0806 -1.356871,0.41049 -1.679403,0.73302 -0.327386,0.32739 -0.775414,0.51391 -1.014248,0.42226 -0.235297,-0.0903 -0.42782,-0.0295 -0.42782,0.135 0,0.3012 -1.100538,0.25141 -2.615792,-0.11835 -0.654834,-0.15979 -0.816223,-0.0907 -0.945903,0.40525 -0.08601,0.32885 -0.268035,0.5979 -0.404543,0.5979 -1.000188,0 1.477556,5.65587 3.900612,8.90384 0.439767,0.58948 0.830039,0.84496 1.139828,0.74615 0.37481,-0.11956 0.391079,-0.0933 0.07964,0.12844 -0.309673,0.22046 0.04269,0.72984 1.685775,2.43724 2.237785,2.32533 2.682522,2.58987 4.994195,2.97075 1.281485,0.21113 1.710005,0.45254 2.809625,1.58278 0.71363,0.73351 1.39233,1.30638 1.50823,1.27303 0.11589,-0.0333 0.21265,0.22385 0.21502,0.57154 0.002,0.34769 0.12017,0.81532 0.26178,1.03916 0.27059,0.42769 -0.67767,1.54122 -1.81137,2.12707 -0.33367,0.17243 -0.61898,0.675 -0.70241,1.23725 -0.14133,0.95258 -0.91107,1.73292 -1.31296,1.33103 -0.11883,-0.11882 -0.0301,-0.33368 0.19725,-0.47744 0.27458,-0.17364 -0.36475,-0.26282 -1.904634,-0.26568 -1.874996,-0.003 -2.317938,0.0763 -2.317938,0.41714 0,0.23179 0.126431,0.42144 0.280959,0.42144 0.154529,0 0.28097,0.12644 0.28097,0.28097 0,0.58207 -0.867864,0.25186 -1.126597,-0.42865 -0.274779,-0.72275 -0.401899,-0.80266 -1.743362,-1.09605 -0.52524,-0.11486 -0.71291,-0.29664 -0.602716,-0.58377 0.08803,-0.22934 0.285801,-0.33923 0.439554,-0.2442 0.591418,0.36552 -0.328723,-0.9121 -1.414681,-1.96427 -0.616404,-0.59722 -1.259473,-1.00012 -1.429038,-0.89532 -0.169565,0.10481 -0.384155,-0.007 -0.47687,-0.24871 -0.0927,-0.24158 -0.350014,-0.43925 -0.571793,-0.43925 -0.448188,0 -0.835306,-0.27569 -2.26856,-1.61554 -0.537228,-0.50221 -1.075827,-0.91312 -1.196884,-0.91312 -0.301677,0 -0.562534,-1.08847 -0.376838,-1.57239 0.182966,-0.47679 0.653135,-0.5247 0.653135,-0.0666 0,0.18028 0.07179,0.25596 0.159594,0.16818 0.552658,-0.55266 -2.039729,-6.30013 -3.663807,-8.12288 -0.402367,-0.45159 -0.655547,-0.9441 -0.562619,-1.09447 0.09292,-0.15037 -0.02867,-0.34925 -0.270287,-0.44195 -0.241583,-0.0927 -0.439247,-0.37629 -0.439247,-0.63019 0,-0.2539 -0.536156,-1.21741 -1.191447,-2.14113 -0.93933,-1.32411 -1.212643,-1.56192 -1.291606,-1.12385 -0.129722,0.71969 -0.607537,1.239 -0.607537,0.66029 0,-0.23606 -0.323531,-1.22541 -0.718964,-2.19859 -0.395432,-0.97316 -0.657149,-1.93048 -0.581595,-2.12738 0.0755,-0.19688 0.5899,-0.50733 1.142993,-0.68986 0.553094,-0.18254 0.945563,-0.42908 0.872154,-0.54787 -0.224487,-0.36322 1.060875,-0.8883 2.385836,-0.97463 0.689973,-0.0449 1.538966,-0.1013 1.886666,-0.12532 0.347689,-0.024 0.632163,-0.17886 0.632163,-0.34418 0,-0.41639 -1.470208,-2.52899 -3.523466,-5.06299 -0.950352,-1.17288 -1.904772,-2.53203 -2.120923,-3.02035 -0.433767,-0.97994 -0.675276,-1.10246 -0.919355,-0.4664 -0.08899,0.23179 -0.300286,0.42145 -0.469638,0.42145 -0.67345,0 -4.205114,4.8545 -4.205114,5.78019 0,0.33722 -0.178804,0.76153 -0.397323,0.94288 -0.341912,0.28376 -0.342146,0.43551 -0.0021,1.08802 0.497842,0.95427 0.499435,1.32014 0.0074,1.81167 -0.215132,0.21513 -0.43639,0.61014 -0.491694,0.8778 -0.05533,0.26766 -0.193957,0.48127 -0.308133,0.4747 -0.392088,-0.0226 -2.46155,2.43341 -2.46155,2.92131 0,0.64181 -1.64624,2.16696 -2.220381,2.05707 -0.246819,-0.0472 -0.701622,-0.56587 -1.01069,-1.15251 -0.384133,-0.72915 -0.808215,-1.11737 -1.34041,-1.22706 -0.428171,-0.0882 -0.84654,-0.27055 -0.929709,-0.40513 -0.285217,-0.46148 -0.973056,-0.2445 -1.228401,0.38749 -1.518663,3.75889 -3.385058,10.99449 -3.385058,13.12316 0,1.08971 -0.360102,1.51982 -0.656809,0.78449 -0.09419,-0.23337 -0.149156,-0.2051 -0.163895,0.0843 -0.03812,0.74874 0.603332,1.1098 1.97164,1.1098 1.160291,0 1.425406,0.12061 2.19704,0.99945 0.864391,0.98448 0.877006,1.04157 0.843206,3.81532 l -0.0343,2.81587 -1.204593,0.51635 c -0.662523,0.28399 -1.283186,0.64351 -1.379246,0.79894 -0.0961,0.15543 -0.584111,0.37015 -1.084556,0.47715 -0.500444,0.107 -1.06645,0.32061 -1.257784,0.4747 -0.244461,0.19687 -0.399574,0.14546 -0.521746,-0.17293 z m 2.624063,-1.35296 c 0.194032,-0.16103 0.348932,-0.49855 0.344238,-0.75006 -0.0074,-0.401 -0.04375,-0.39678 -0.294923,0.0344 -0.157512,0.27044 -0.438142,0.49571 -0.623625,0.50063 -0.185483,0.005 -0.590111,0.20957 -0.899168,0.4548 -0.538981,0.42766 -0.527576,0.43784 0.279387,0.24944 0.462725,-0.10804 1.000071,-0.32818 1.194091,-0.48921 z m -2.456845,0.21405 c 0,-0.0682 -0.126431,-0.20204 -0.280959,-0.29754 -0.154539,-0.0955 -0.28097,-0.0397 -0.28097,0.1239 0,0.16365 0.126431,0.29754 0.28097,0.29754 0.154528,0 0.280959,-0.0557 0.280959,-0.1239 z m -1.777205,-1.7726 c 0.02995,-1.29781 0.0241,-1.30748 -0.210268,-0.3512 -0.212063,0.86511 -0.167611,1.68577 0.09132,1.68577 0.04853,0 0.102049,-0.60055 0.118976,-1.33457 z m -2.316897,0.56193 c -0.139853,-0.1159 -0.332982,-0.31615 -0.429169,-0.445 -0.09621,-0.12885 -0.251736,-0.034 -0.345661,0.21072 -0.122948,0.32041 -0.0032,0.44501 0.429179,0.44501 0.329956,0 0.485504,-0.0948 0.345651,-0.21073 z m 44.786636,0.0701 c -0.217457,-0.21745 -2.459585,-0.256 -2.669683,-0.0459 -0.10258,0.10258 0.487733,0.18657 1.311899,0.18657 0.824156,0 1.435155,-0.0633 1.357784,-0.14068 z m 1.88071,-0.36699 c -0.0865,-0.0865 -0.31321,-1.8e-4 -0.5038,0.19184 -0.27542,0.27748 -0.24314,0.30975 0.15729,0.15729 0.27708,-0.10556 0.43302,-0.26262 0.34651,-0.34913 z m -44.064319,-2.7883 c -0.07125,-0.27336 -0.134203,-0.11773 -0.139927,0.34586 -0.0053,0.46359 0.05256,0.68725 0.129521,0.49703 0.07699,-0.19022 0.08166,-0.56952 0.01062,-0.84289 z m 34.274654,-2.095 c -0.08973,-0.22413 -0.15627,-0.15756 -0.169756,0.16975 -0.01221,0.29617 0.05426,0.46212 0.147573,0.36876 0.09334,-0.0933 0.103324,-0.33569 0.02219,-0.53851 z m -30.343947,-0.56193 c -0.08973,-0.22413 -0.15627,-0.15755 -0.169756,0.16975 -0.01221,0.29619 0.05426,0.46213 0.147573,0.36877 0.09334,-0.0933 0.103323,-0.3357 0.02219,-0.53852 z m 1.341356,-0.20886 c 0.08888,-0.14386 0.03313,-0.34097 -0.123892,-0.43803 -0.157056,-0.0971 -0.285546,0.0206 -0.285546,0.26155 0,0.49352 0.168588,0.56619 0.409438,0.17648 z m 2.445197,-24.24957 c -0.153944,-0.15393 -0.210501,-0.70748 -0.125687,-1.2301 0.137092,-0.84481 0.08378,-0.95022 -0.480682,-0.95022 -0.603364,0 -0.625176,0.0732 -0.439385,1.47372 0.107518,0.81055 0.408282,1.71057 0.668353,2.00003 0.456895,0.50854 0.475988,0.50031 0.565072,-0.24361 0.05076,-0.42346 -0.03377,-0.89588 -0.187671,-1.04982 z m -17.65953,-2.11008 c 0.08336,-0.42496 0.03494,-0.89276 -0.10773,-1.03956 -0.161612,-0.16633 -0.25935,-0.0958 -0.25935,0.18731 0,0.24982 -0.133672,0.49877 -0.297046,0.55323 -0.324306,0.10811 -0.05968,1.07166 0.294349,1.07166 0.119985,0 0.286385,-0.34769 0.369777,-0.77264 z m 35.87708,0.1228 c 0,-0.0483 -0.410904,-0.45925 -0.913133,-0.91312 l -0.913121,-0.82522 0.825206,0.91313 c 0.769213,0.85116 1.001048,1.04227 1.001048,0.82521 z m 25.005649,-3.84555 c 0,-0.15453 -0.12643,-0.28097 -0.28096,-0.28097 -0.15453,0 -0.28096,0.12644 -0.28096,0.28097 0,0.15453 0.12643,0.28096 0.28096,0.28096 0.15453,0 0.28096,-0.12643 0.28096,-0.28096 z M 76.514851,225.9609 c 0.08888,-0.14385 0.03313,-0.34096 -0.123903,-0.43802 -0.157045,-0.0971 -0.285536,0.0206 -0.285536,0.26154 0,0.49352 0.168588,0.56619 0.409439,0.17648 z m 18.039194,-2.61831 c -0.07794,-0.19317 -0.141712,-0.0351 -0.141712,0.3512 0,0.38633 0.06382,0.54436 0.141712,0.3512 0.07794,-0.19316 0.07794,-0.50924 0,-0.7024 z m -0.736857,-3.09497 c -0.326514,-0.96341 -0.787413,-2.06771 -1.024218,-2.45405 -0.491068,-0.80112 -0.404682,-0.49697 0.620238,2.18389 0.370594,0.96932 0.688465,2.044 0.70639,2.38817 0.02517,0.48235 0.06223,0.51206 0.16193,0.12968 0.07115,-0.27284 -0.137814,-1.2843 -0.46434,-2.24769 z m -3.47173,-3.06865 c -0.08973,-0.22413 -0.156259,-0.15755 -0.169745,0.16975 -0.01221,0.29619 0.05416,0.46213 0.147562,0.36877 0.09334,-0.0933 0.103324,-0.3357 0.02219,-0.53852 z M 103.83166,216.898 c -0.0897,-0.22412 -0.15626,-0.15755 -0.16975,0.16976 -0.0122,0.29618 0.0543,0.46212 0.14756,0.36876 0.0934,-0.0933 0.10333,-0.33569 0.0222,-0.53852 z m -11.703018,-0.4936 c -0.160794,-0.30045 -0.431229,-0.6321 -0.600954,-0.73699 -0.169724,-0.10492 -0.09132,0.14092 0.174312,0.54627 0.562375,0.8583 0.853592,0.98849 0.426642,0.19072 z m -46.175248,-2.31603 c -0.08973,-0.22413 -0.15627,-0.15755 -0.169756,0.16975 -0.01221,0.29619 0.05416,0.46213 0.147573,0.36877 0.09334,-0.0933 0.103323,-0.33569 0.02219,-0.53852 z m 6.098735,-0.36875 c 0.137687,-0.61557 0.111628,-0.72924 -0.09663,-0.42145 -0.156865,0.23179 -0.287129,0.66377 -0.289497,0.95995 -0.0053,0.71883 0.15507,0.49457 0.386151,-0.5385 z m -5.817776,-0.75509 c -0.08973,-0.22414 -0.15627,-0.15756 -0.169746,0.16974 -0.01221,0.29619 0.05416,0.46212 0.147562,0.36877 0.09334,-0.0933 0.103324,-0.3357 0.02219,-0.53851 z m 52.348051,-0.79021 c 0,-0.15453 -0.117404,-0.28097 -0.260889,-0.28097 -0.546255,0 -1.144426,-0.91854 -1.156617,-1.77608 -0.0074,-0.49118 -0.31735,-1.46201 -0.689707,-2.15739 l -0.677018,-1.26433 -0.01274,1.76997 c -0.01338,1.85972 0.462078,3.1855 1.321871,3.68629 0.635508,0.37015 1.475061,0.38296 1.475061,0.0225 z m -3.269947,-5.47877 c 0.08899,-0.2318 0.03929,-0.42144 -0.110416,-0.42144 -0.149687,0 -0.272146,0.18964 -0.272146,0.42144 0,0.23179 0.0497,0.42145 0.110417,0.42145 0.06074,0 0.1832,-0.18966 0.272145,-0.42145 z m 2.059842,-0.90778 c -0.07125,-0.27337 -0.134203,-0.11774 -0.139927,0.34586 -0.0053,0.46358 0.05256,0.68724 0.12952,0.49702 0.07699,-0.19022 0.08166,-0.56952 0.01062,-0.84288 z M 72.39863,203.59752 c -0.08655,-0.0865 -0.243602,0.0694 -0.349112,0.34652 -0.152479,0.40044 -0.120208,0.43271 0.157278,0.15729 0.192014,-0.19059 0.278347,-0.41729 0.191834,-0.50381 z m 25.258207,-1.04617 c -0.06701,-0.34768 -0.121758,-0.0632 -0.121758,0.63217 0,0.69538 0.05479,0.97986 0.121758,0.63216 0.06701,-0.34769 0.06701,-0.91664 0,-1.26433 z M 83.602359,201.1641 c -0.08973,-0.22413 -0.15626,-0.15755 -0.169746,0.16975 -0.01221,0.29618 0.05426,0.46212 0.147563,0.36877 0.09334,-0.0933 0.103323,-0.3357 0.02219,-0.53852 z m -27.253357,-0.56193 c -0.08973,-0.22413 -0.15627,-0.15755 -0.169745,0.16975 -0.01221,0.29619 0.05416,0.46213 0.147562,0.36877 0.09334,-0.0933 0.103323,-0.33569 0.02219,-0.53852 z m 38.299934,-0.64972 c 0,-0.62559 -0.134501,-0.98337 -0.369681,-0.98337 -0.203312,0 -1.180764,-1.57229 -2.172095,-3.49398 -0.991332,-1.9217 -1.833009,-3.46339 -1.870409,-3.42599 -0.242783,0.24278 0.71204,2.41696 2.134727,4.86083 0.91497,1.57174 1.747015,3.12054 1.84898,3.44179 0.272633,0.85901 0.428478,0.7138 0.428478,-0.39928 z m 3.282509,-0.19316 c -0.08973,-0.22414 -0.156259,-0.15756 -0.169745,0.16974 -0.01221,0.29619 0.05426,0.46213 0.147562,0.36877 0.09334,-0.0933 0.103324,-0.33569 0.02219,-0.53851 z m -22.977244,-0.63027 c -0.07391,-0.0739 -0.301783,0.14434 -0.506359,0.48501 -0.355399,0.59179 -0.34941,0.59778 0.134394,0.13438 0.278496,-0.26674 0.445873,-0.54547 0.371965,-0.61939 z m 25.706969,-3.06116 c 0.565,-1.05482 0.90409,-1.84173 0.75354,-1.74867 -0.55271,0.34159 -1.989418,2.72909 -1.989418,3.306 0,0.7489 0.0021,0.74669 1.235878,-1.55733 z m -17.776829,-0.68105 c 0.349483,-0.44562 0.339544,-0.45556 -0.106085,-0.10609 -0.270424,0.21209 -0.491683,0.43334 -0.491683,0.49169 0,0.23124 0.23072,0.0824 0.597757,-0.38561 z M 55.58014,193.24974 c -0.27052,-0.24933 -0.30791,-0.20602 -0.166825,0.19331 0.100031,0.28306 0.196495,0.66237 0.21442,0.84289 0.01795,0.18052 0.09302,0.0935 0.166836,-0.19331 0.0738,-0.28683 -0.02262,-0.66613 -0.214431,-0.84289 z m 25.863556,-0.18087 c 0.165402,-0.30906 0.237516,-0.56193 0.160252,-0.56193 -0.07731,0 -0.275809,0.25287 -0.441211,0.56193 -0.165413,0.30906 -0.237516,0.56193 -0.160252,0.56193 0.07731,0 0.275809,-0.25287 0.441211,-0.56193 z m -17.665773,-0.91782 c -0.277487,-0.27541 -0.309758,-0.24314 -0.157279,0.15729 0.105553,0.27708 0.262609,0.43303 0.349112,0.34652 0.08655,-0.0865 1.81e-4,-0.31322 -0.191833,-0.50381 z m 19.046855,-1.04892 0.637176,-0.98336 -0.72817,0.7883 c -0.400487,0.43358 -0.728159,0.92878 -0.728159,1.10044 0,0.36344 -0.01062,0.37508 0.819153,-0.90538 z m 2.217163,-0.14792 c -0.08655,-0.0865 -0.243601,0.0695 -0.349112,0.34652 -0.152479,0.40044 -0.120207,0.43271 0.157279,0.15729 0.192014,-0.19059 0.278347,-0.4173 0.191833,-0.50381 z m -30.103606,-4.13676 c -0.07794,-0.19316 -0.141711,-0.0352 -0.141711,0.35121 0,0.38632 0.06371,0.54436 0.141711,0.3512 0.07794,-0.19316 0.07794,-0.50925 0,-0.70241 z m 40.02586,-2.3671 c -0.331219,-0.56958 -0.411191,-0.38727 -0.140076,0.31926 0.09632,0.2511 0.234384,0.39735 0.306721,0.32502 0.07232,-0.0723 -0.0021,-0.36227 -0.166645,-0.64428 z m -19.85416,-4.84827 c 0.08888,-0.14385 0.03313,-0.34096 -0.123892,-0.43803 -0.157056,-0.097 -0.285547,0.0206 -0.285547,0.26155 0,0.49352 0.168589,0.56619 0.409439,0.17648 z m -15.721891,-9.29117 c 0.09547,-0.15453 0.03972,-0.28096 -0.123903,-0.28096 -0.163651,0 -0.297546,0.12643 -0.297546,0.28096 0,0.15453 0.05575,0.28096 0.123903,0.28096 0.06817,0 0.202038,-0.12643 0.297546,-0.28096 z m 11.526897,-3.03633 c -0.08655,-0.0865 -0.313219,-1.8e-4 -0.50381,0.19184 -0.275416,0.27748 -0.243144,0.30975 0.157289,0.15728 0.277083,-0.10555 0.433024,-0.26262 0.346521,-0.34912 z m -7.229207,-14.65154 c -0.188615,-0.30202 -0.397354,-0.49473 -0.463861,-0.42823 -0.12042,0.12042 0.491896,0.97739 0.698351,0.97739 0.05968,0 -0.04587,-0.24712 -0.23449,-0.54916 z m 19.443637,-9.58208 c 0,-0.1454 -0.12643,-0.26438 -0.280959,-0.26438 -0.154539,0 -0.28097,0.19711 -0.28097,0.43802 0,0.24092 0.126431,0.3599 0.28097,0.26439 0.154529,-0.0955 0.280959,-0.29262 0.280959,-0.43803 z m -1.218738,-4.26809 c -0.07794,-0.19316 -0.141712,-0.0352 -0.141712,0.3512 0,0.38632 0.06382,0.54437 0.141712,0.3512 0.07794,-0.19316 0.07794,-0.50924 0,-0.7024 z M 43.927597,239.9773 c -0.09971,-0.1613 -0.05989,-0.44578 0.08835,-0.63216 0.148295,-0.1864 0.351863,-1.03429 0.452383,-1.8842 0.494338,-4.17963 0.509619,-4.24438 0.97896,-4.14822 0.379238,0.0777 0.440191,0.43717 0.367493,2.16732 -0.04789,1.1408 -0.280067,2.44726 -0.515863,2.90324 -0.235807,0.456 -0.366463,1.06718 -0.290367,1.35818 0.09865,0.37716 -0.01073,0.52911 -0.380672,0.52911 -0.285472,0 -0.600603,-0.13198 -0.700295,-0.29327 z m 2.619381,-0.3003 c -0.176351,-0.52904 0.337494,-5.06106 0.637345,-5.62134 0.155473,-0.29051 0.469373,-0.52819 0.697544,-0.52819 0.316469,0 0.3911,0.28317 0.314675,1.19409 -0.05511,0.65674 -0.17188,1.38373 -0.259519,1.61553 -0.473748,1.25307 -0.770753,2.40603 -0.770753,2.99203 0,0.67318 -0.430294,0.91489 -0.619292,0.34788 z m 6.519504,-20.0406 c 0,-0.24091 0.126431,-0.43802 0.28097,-0.43802 0.154529,0 0.280959,0.11898 0.280959,0.26438 0,0.14541 -0.12643,0.34252 -0.280959,0.43803 -0.154539,0.0955 -0.28097,-0.0235 -0.28097,-0.26439 z m 13.583151,-5.92891 c -0.261367,-0.68112 0.103323,-0.80409 0.452095,-0.15243 0.217457,0.40633 0.221737,0.58599 0.01391,0.58599 -0.164807,0 -0.374534,-0.1951 -0.466038,-0.43356 z m -24.066557,-2.83847 c -0.357852,-0.35786 -0.196846,-1.44279 0.238918,-1.61001 0.477263,-0.18315 0.792001,0.36294 0.645288,1.1196 -0.103005,0.53102 -0.579365,0.79525 -0.884206,0.49041 z"
       id="path5"
       sodipodi:nodetypes="cssssscssssssssscssscccsssssssssssssscssssssssssssccsssssssssscsscssssssssssssssssssssscssssssssssssssssssscssscsssscssssssssssssssscssssssssssscssssssssssssssscssssssssssssssscscssssssscsscssscssssssssssscsssssssssssssscscscscssssscssssssssssssssssssssscsssssscsssssssssssssssssssssssssssssssssssssssssssssscssccssssssssssssscssssscssssssssscssssscssssssssssssssssssssccsssssssssssssscssssccssscssssssssssssssssssssssssssssccsccssssssssssssssssssssssssssssscssssssssssssssssssssssssssssssssscsssssssscssssssssscscsssssssssccsccsssssssssssssssssssssssssssssssssscsscsssssssssssssssssssccsscsssssscscsscssssssssssscsssssssssssscssssssssssssssssssssssssssssssss"
       inkscape:label="crinos" /></g></svg>
