<?xml version="1.0" encoding="UTF-8" standalone="no"?>
<!-- Created with Inkscape (http://www.inkscape.org/) -->

<svg
   width="21.831593mm"
   height="98.186401mm"
   viewBox="0 0 21.831592 98.186399"
   version="1.1"
   id="svg1"
   xml:space="preserve"
   inkscape:version="1.4 (e7c3feb100, 2024-10-09)"
   sodipodi:docname="glabro.svg"
   xmlns:inkscape="http://www.inkscape.org/namespaces/inkscape"
   xmlns:sodipodi="http://sodipodi.sourceforge.net/DTD/sodipodi-0.dtd"
   xmlns="http://www.w3.org/2000/svg"
   xmlns:svg="http://www.w3.org/2000/svg"><sodipodi:namedview
     id="namedview1"
     pagecolor="#ffffff"
     bordercolor="#000000"
     borderopacity="0.25"
     inkscape:showpageshadow="2"
     inkscape:pageopacity="0.0"
     inkscape:pagecheckerboard="0"
     inkscape:deskcolor="#d1d1d1"
     inkscape:document-units="mm"
     inkscape:zoom="0.89619809"
     inkscape:cx="35.706392"
     inkscape:cy="193.03768"
     inkscape:window-width="2560"
     inkscape:window-height="1371"
     inkscape:window-x="0"
     inkscape:window-y="32"
     inkscape:window-maximized="1"
     inkscape:current-layer="layer1" /><defs
     id="defs1" /><g
     inkscape:label="Layer 1"
     inkscape:groupmode="layer"
     id="layer1"
     transform="translate(-5.489904,-161.86921)"><path
       style="fill:#3a1f00;fill-opacity:0.23506;stroke:none;stroke-width:1.031"
       d="m 24.727333,259.55903 c 0.55505,-0.42678 0.62382,-0.64777 0.46501,-1.49426 -0.17797,-0.94867 -0.23801,-0.99482 -1.33334,-1.02504 -0.63083,-0.0174 -0.90146,-0.0828 -0.6014,-0.14527 2.7862,-0.58026 3.9413,-1.30317 3.85928,-2.41532 -0.0657,-0.89115 -1.21916,-1.81851 -2.45713,-1.97556 -0.62116,-0.0788 -1.27495,-0.25794 -1.45291,-0.39812 -0.20304,-0.15995 -0.52656,-0.14622 -0.86861,0.0368 -0.2998,0.16044 -1.017,0.29171 -1.59379,0.29171 h -1.04869 l 0.10528,-3.7508 c 0.10826,-3.8576 0.67203,-6.54761 1.34382,-6.41206 0.18153,0.0366 0.4097,-0.27025 0.50706,-0.68196 0.0973,-0.4117 0.45155,-1.11805 0.7871,-1.56964 0.69798,-0.93938 1.15321,-2.58874 0.7145,-2.58874 -0.15611,0 -0.53134,0.26566 -0.83383,0.59035 l -0.55,0.59036 0.25816,-0.90018 c 0.32491,-1.1329 0.51359,-1.32284 0.82059,-0.8261 0.35631,0.57654 0.52062,0.23862 0.24214,-0.49802 -0.21831,-0.57745 -0.27842,-0.59581 -0.66966,-0.20458 -0.66509,0.66508 -0.83542,0.52261 -0.81701,-0.68341 0.0103,-0.66944 0.18545,-1.24035 0.43956,-1.43212 0.71538,-0.53986 1.06056,-3.60798 1.09469,-9.73 0.0297,-5.32991 0.17315,-7.29395 0.67737,-9.27471 0.0955,-0.37507 0.30954,-1.82537 0.47571,-3.22287 0.29231,-2.45846 0.32646,-2.54577 1.05242,-2.69096 0.89921,-0.17985 1.41467,-0.73035 1.82279,-1.94673 0.26707,-0.79599 0.2205,-1.03598 -0.38814,-2.00013 -0.44343,-0.70244 -0.83215,-1.04168 -1.08322,-0.94533 -0.22613,0.0868 -0.39158,-0.0122 -0.39158,-0.23426 0,-0.70918 -0.62434,-0.78814 -1.14525,-0.14485 -0.50616,0.62507 -0.50916,0.60829 -0.2968,-1.6615 0.39014,-4.17026 0.12839,-16.17387 -0.37517,-17.20478 -0.19531,-0.39983 -0.87904,-1.016 -1.51942,-1.36925 -0.64038,-0.35325 -1.17967,-0.79332 -1.19842,-0.97793 -0.0188,-0.18462 -0.0495,-0.39869 -0.0682,-0.47572 -0.0188,-0.077 -0.45074,0.034 -0.95995,0.24679 -0.91412,0.38195 -0.92777,0.37722 -1.07796,-0.37369 -0.0836,-0.4183 -0.23131,-1.07613 -0.32813,-1.46185 -0.17564,-0.69982 -0.17185,-0.70147 1.79891,-0.78198 l 1.97493,-0.0806 0.32889,-1.11693 c 0.3885,-1.31935 1.0373,-6.8274 0.89665,-7.61221 -0.10073,-0.56188 -0.89609,-1.90611 -1.50456,-2.54275 -0.18949,-0.19826 -0.34452,-0.44799 -0.34452,-0.55496 0,-0.48539 -1.68722,-1.13047 -2.95678,-1.13047 -1.60556,0 -2.65922,0.34981 -3.54677,1.17751 -0.8613,0.80322 -1.68002,2.55415 -1.68002,3.59292 0,0.46692 -0.13666,0.98562 -0.30369,1.15265 -0.17868,0.17868 -0.23914,0.7345 -0.14686,1.35028 0.39053,2.60612 0.53311,3.25118 0.78906,3.56987 0.38713,0.482 0.84291,0.42412 0.64855,-0.0824 -0.0932,-0.24276 -0.0474,-0.35225 0.10721,-0.25669 0.14832,0.0917 0.26966,0.38037 0.26966,0.64158 0,0.2612 0.11331,0.59153 0.2518,0.73406 0.13848,0.14253 0.34011,1.29077 0.44806,2.55163 l 0.19627,2.29248 -1.06183,-0.2025 c -1.77381,-0.33829 -2.14264,-0.31657 -2.14796,0.12651 -0.003,0.22944 -0.47697,0.88961 -1.0538,1.46705 -0.87895,0.87986 -1.02705,1.18776 -0.91459,1.90148 0.10021,0.63598 -0.082,1.197 -0.71939,2.21556 -0.46948,0.75016 -0.94787,1.40484 -1.06311,1.45485 -0.11523,0.05 -0.20952,0.26187 -0.20952,0.47079 0,0.68523 -0.94005,1.94541 -1.36393,1.8284 -0.3179,-0.0877 -0.32973,-0.057 -0.0531,0.13783 0.28735,0.20239 0.25066,0.52834 -0.19002,1.6881 -0.30036,0.7905 -0.75163,1.66436 -1.00281,1.94192 -0.43007,0.47522 -0.41502,0.55416 0.25821,1.35425 0.3932,0.46728 0.7149,1.00776 0.7149,1.20106 0,0.1933 0.2455,0.66357 0.54557,1.04505 0.30007,0.38147 0.54557,0.81322 0.54557,0.95944 0,0.14623 0.46366,0.74063 1.03037,1.3209 0.5667,0.58027 1.21821,1.35001 1.44781,1.71052 0.2296,0.36052 0.65806,0.67322 0.95213,0.69489 0.29406,0.0216 0.67942,0.12885 0.85634,0.23819 0.4859,0.3003 1.96312,2.57586 2.11816,3.2629 0.34969,1.54957 0.48116,2.32775 0.57601,3.40968 0.11582,1.32119 0.44595,2.07228 1.34473,3.05945 0.3415,0.37509 0.84366,1.39963 1.11592,2.27676 0.4644,1.4962 0.46691,1.64377 0.0404,2.38688 -0.38334,0.66792 -0.39225,0.79208 -0.0569,0.79208 0.33944,0 0.37656,0.74961 0.25335,5.11473 -0.32369,11.46705 -0.39367,12.2898 -1.11844,13.15114 -0.36161,0.42975 -0.97035,1.46476 -1.35274,2.30003 l -0.69526,1.51865 0.79353,4.23877 c 0.66094,3.53049 0.75049,4.48863 0.53592,5.73403 -0.15651,0.90848 -0.3961,1.49526 -0.61049,1.49526 -0.56122,0 -0.72068,0.81021 -0.28257,1.4357 0.29543,0.42179 0.3226,0.6679 0.10289,0.93258 -0.38197,0.46025 0.16207,1.17793 0.89293,1.17793 0.28169,0 0.78665,0.27447 1.12211,0.60995 0.33547,0.33547 0.8047,0.57695 1.04273,0.53663 0.23802,-0.0403 0.79213,0.11408 1.23135,0.34312 0.43922,0.22904 0.98271,0.42111 1.20777,0.4268 0.22504,0.006 0.64745,0.19058 0.93868,0.41086 0.73844,0.55852 2.60295,0.49676 3.39529,-0.11248 z m -3.10644,-3.5788 c -0.0927,-0.15004 -0.0386,-0.27279 0.12029,-0.27279 0.15889,0 0.28889,0.12275 0.28889,0.27279 0,0.15003 -0.0541,0.27278 -0.1203,0.27278 -0.0662,0 -0.19615,-0.12275 -0.28888,-0.27278 z m -0.88087,-0.98317 c 0.0906,-0.0906 0.32592,-0.10032 0.52283,-0.0215 0.21762,0.0871 0.15298,0.15171 -0.1648,0.16481 -0.28756,0.0119 -0.44867,-0.0527 -0.35803,-0.14328 z m -1.62684,-5.4903 c 0.0692,-0.26541 0.13029,-0.1143 0.13585,0.33579 0.005,0.45009 -0.051,0.66725 -0.12575,0.48257 -0.0747,-0.18468 -0.0793,-0.55294 -0.0103,-0.81836 z m 0.7346,-39.65948 c 0,-0.15003 0.12275,-0.19691 0.27279,-0.1042 0.15003,0.0927 0.27279,0.29135 0.27279,0.44138 0,0.15004 -0.12276,0.19693 -0.27279,0.1042 -0.15004,-0.0927 -0.27279,-0.29134 -0.27279,-0.44138 z m 5.88383,-2.4438 c 0.33122,-0.36599 0.55106,-0.45138 0.62109,-0.24124 0.0596,0.1789 -0.06,0.43194 -0.2658,0.56233 -0.68068,0.43119 -0.87619,0.2545 -0.35529,-0.32109 z m -6.97496,0.0209 c -0.1606,-0.30006 -0.23061,-0.54556 -0.15559,-0.54556 0.0751,0 0.26778,0.2455 0.42837,0.54556 0.16059,0.30008 0.2306,0.54558 0.15559,0.54558 -0.0751,0 -0.26779,-0.2455 -0.42837,-0.54558 z m -0.54558,-1.39611 c 0,-0.15004 0.12275,-0.19692 0.27278,-0.1042 0.15003,0.0927 0.2728,0.29134 0.2728,0.44137 0,0.15004 -0.12277,0.19693 -0.2728,0.1042 -0.15003,-0.0927 -0.27278,-0.29134 -0.27278,-0.44137 z m 6.06872,-1.12488 c 0.0455,-0.13627 0.19921,-0.24778 0.34174,-0.24778 0.14253,0 0.29631,0.11151 0.34174,0.24778 0.0455,0.13628 -0.10836,0.24778 -0.34174,0.24778 -0.23339,0 -0.38717,-0.1115 -0.34174,-0.24778 z m -1.3511,-1.3662 c 0.0651,-0.33757 0.11823,-0.0613 0.11823,0.61377 0,0.67515 -0.0532,0.95134 -0.11823,0.61377 -0.0651,-0.33757 -0.0651,-0.88997 0,-1.22754 z m -7.311,-0.81835 c -0.58782,-0.78767 -1.63111,-2.10726 -2.31844,-2.93245 -2.43443,-2.92272 -2.43713,-2.93542 -1.02491,-4.82437 l 0.64968,-0.86898 -0.11932,1.64962 c -0.0873,1.20768 -0.0186,1.71341 0.25665,1.88775 0.29739,0.18836 0.27619,0.239 -0.10145,0.24231 -0.63399,0.005 -0.60459,0.44617 0.0682,1.02222 0.30006,0.25693 0.54556,0.58287 0.54556,0.72432 0,0.14145 0.73653,1.0242 1.63671,1.96166 0.9002,0.93746 1.63672,1.89922 1.63672,2.13726 0,0.23803 -0.0362,0.43278 -0.0803,0.43278 -0.0442,0 -0.56129,-0.64445 -1.14911,-1.43212 z m -1.95754,-7.62094 c 0.0871,-0.21761 0.15172,-0.15298 0.16482,0.16481 0.0119,0.28755 -0.0527,0.44867 -0.14328,0.35802 -0.0906,-0.0906 -0.10032,-0.32592 -0.0215,-0.52283 z m 9.27302,-1.51737 c 0.0687,-0.26256 0.12475,-0.0477 0.12475,0.47737 0,0.52511 -0.0562,0.73993 -0.12475,0.47737 -0.0686,-0.26255 -0.0686,-0.69219 0,-0.95474 z m -14.57623,-0.9593 c 0.26941,-0.2674 0.30074,-0.23607 0.15271,0.1527 -0.10249,0.26903 -0.25497,0.42042 -0.33897,0.33644 -0.084,-0.084 -1.6e-4,-0.30411 0.18626,-0.48914 z m 2.48892,-2.9279 c 0.16059,-0.30006 0.35336,-0.54557 0.42837,-0.54557 0.0751,0 0.005,0.24551 -0.15559,0.54557 -0.16058,0.30007 -0.35335,0.54557 -0.42837,0.54557 -0.0751,0 -0.005,-0.2455 0.15559,-0.54557 z m 4.18271,-5.30732 c 0,-0.21845 0.10429,-0.33271 0.23178,-0.25393 0.12747,0.0788 0.16114,0.25751 0.0749,0.39718 -0.22057,0.3569 -0.3066,0.31671 -0.3066,-0.14325 z m 4.54643,-22.24401 c 0,-0.15004 -0.13,-0.27279 -0.28888,-0.27279 -0.15889,0 -0.21303,0.12275 -0.1203,0.27279 0.0927,0.15003 0.22273,0.27279 0.28888,0.27279 0.0662,0 0.1203,-0.12276 0.1203,-0.27279 z"
       id="path4"
       sodipodi:nodetypes="ssscssssscsssssscsssscsssssssssssssscsssccssssssssssssssscscsssssssssssssssssssssssssscssssssssscssssssssscsssccsccssssssscsssssssssssssssssssscsscsscsssssccssssscsscsssscscscsscsssssss"
       inkscape:label="glabro" /></g></svg>
