<?xml version="1.0" encoding="UTF-8" standalone="no"?>
<!-- Created with Inkscape (http://www.inkscape.org/) -->

<svg
   width="58.734089mm"
   height="58.63863mm"
   viewBox="0 0 58.734088 58.638628"
   version="1.1"
   id="svg1"
   xml:space="preserve"
   inkscape:version="1.4 (e7c3feb100, 2024-10-09)"
   sodipodi:docname="hispo.svg"
   xmlns:inkscape="http://www.inkscape.org/namespaces/inkscape"
   xmlns:sodipodi="http://sodipodi.sourceforge.net/DTD/sodipodi-0.dtd"
   xmlns="http://www.w3.org/2000/svg"
   xmlns:svg="http://www.w3.org/2000/svg"><sodipodi:namedview
     id="namedview1"
     pagecolor="#ffffff"
     bordercolor="#000000"
     borderopacity="0.25"
     inkscape:showpageshadow="2"
     inkscape:pageopacity="0.0"
     inkscape:pagecheckerboard="0"
     inkscape:deskcolor="#d1d1d1"
     inkscape:document-units="mm"
     inkscape:zoom="0.89619809"
     inkscape:cx="-384.95954"
     inkscape:cy="31.243093"
     inkscape:window-width="2560"
     inkscape:window-height="1371"
     inkscape:window-x="0"
     inkscape:window-y="32"
     inkscape:window-maximized="1"
     inkscape:current-layer="layer1" /><defs
     id="defs1" /><g
     inkscape:label="Layer 1"
     inkscape:groupmode="layer"
     id="layer1"
     transform="translate(-116.83473,-204.56321)"><path
       style="fill:#3a1f00;fill-opacity:0.23506;stroke:none;stroke-width:0.800232"
       d="m 120.49481,261.16659 c -2.04872,-2.22557 -2.4069,-2.87974 -3.19581,-5.83694 -0.46901,-1.75805 -0.52952,-2.3161 -0.41328,-3.8111 0.19521,-2.51051 0.82186,-5.49679 1.42337,-6.78299 0.28514,-0.60972 0.63263,-1.40883 0.77219,-1.7758 0.13955,-0.36696 0.48427,-0.88377 0.76603,-1.14847 l 0.5123,-0.48128 v 0.46036 c 0,0.2532 0.0877,0.46037 0.1949,0.46037 0.1072,0 0.25944,0.30964 0.33832,0.68811 0.22721,1.09019 1.19236,3.12299 1.48275,3.12299 0.14538,0 0.42857,0.26201 0.6293,0.58225 0.20073,0.32024 0.75953,0.97513 1.24178,1.45531 0.99178,0.98751 1.1905,1.23771 1.57678,1.98527 0.75578,1.4626 0.97157,1.83172 1.28664,2.20092 0.7289,0.85412 2.40217,2.0212 3.46496,2.41676 1.00113,0.37259 1.39355,0.39659 3.93542,0.24062 2.77839,-0.17048 2.85267,-0.18821 4.65801,-1.11165 1.00904,-0.51613 2.12984,-1.003 2.49067,-1.08195 0.36084,-0.079 0.97875,-0.47646 1.37315,-0.88337 0.46139,-0.47604 1.1147,-0.85543 1.83221,-1.06402 0.69343,-0.20159 1.53052,-0.67874 2.21357,-1.26179 0.60415,-0.51569 1.21304,-0.93762 1.35311,-0.93762 0.14006,0 0.3095,-0.14291 0.37653,-0.31758 0.0671,-0.17468 0.25479,-0.3176 0.41724,-0.3176 0.34805,0 1.35763,-0.96604 1.65238,-1.58111 0.11981,-0.25003 0.0165,-0.18637 -0.2466,0.15194 -0.24904,0.32025 -0.58777,0.58226 -0.75274,0.58226 -0.34238,0 -0.40712,-0.54395 -0.0882,-0.74105 0.11645,-0.0719 0.21172,-0.35548 0.21172,-0.63003 0,-0.27456 0.1191,-0.54724 0.26466,-0.60598 0.14557,-0.0587 0.16708,-0.11431 0.0479,-0.12351 -0.11928,-0.009 -0.61807,0.53424 -1.10844,1.20762 -1.4363,1.97235 -2.38002,2.7882 -3.06807,2.65236 -0.32024,-0.0632 -0.58225,-0.23026 -0.58225,-0.37119 0,-0.16123 -0.22356,-0.22343 -0.60291,-0.16775 -0.53876,0.0791 -0.65956,-0.0206 -1.13544,-0.93652 -0.29289,-0.56375 -0.78874,-2.02541 -1.10188,-3.24814 -0.31315,-1.22273 -0.70734,-2.43417 -0.87599,-2.69209 -0.16864,-0.25791 -0.30661,-0.65722 -0.30661,-0.88734 0,-0.23013 -0.10358,-0.48243 -0.23017,-0.56067 -0.1266,-0.0783 -0.18402,-0.31874 -0.12762,-0.53445 0.0635,-0.24259 -0.0305,-0.43526 -0.24621,-0.5051 -0.19183,-0.0621 -0.58132,-0.47035 -0.86554,-0.90721 -0.28422,-0.43686 -0.77204,-1.08013 -1.08404,-1.42949 -0.67559,-0.75645 -0.99453,-2.01141 -0.51118,-2.01141 0.213,0 0.3123,-0.22518 0.3123,-0.70823 0,-0.89407 0.54987,-1.40905 1.5045,-1.40905 0.99162,0 1.957,0.91603 2.73339,2.59365 l 0.61242,1.32332 0.01,-2.27141 0.01,-2.27141 -2.06435,0.14258 c -1.13538,0.0784 -2.73129,0.14777 -3.54644,0.15412 l -1.48209,0.0115 -0.0633,-0.64753 c -0.0462,-0.47251 0.10576,-0.84119 0.56226,-1.36404 0.57585,-0.65954 0.71554,-0.71363 1.75715,-0.68033 0.62236,0.0199 2.21172,-0.11831 3.53191,-0.30713 l 2.40035,-0.34331 0.94376,-1.92821 c 0.51906,-1.06051 1.21959,-2.27273 1.55672,-2.69382 0.60898,-0.76062 0.61065,-0.77055 0.25527,-1.52547 -0.26286,-0.55839 -0.45735,-0.7301 -0.73355,-0.64759 -0.23637,0.0706 -0.35423,0.0114 -0.31759,-0.15949 0.0403,-0.18827 -0.38654,-0.3236 -1.38962,-0.44051 -0.79633,-0.0928 -1.64405,-0.30617 -1.88383,-0.47412 -0.39315,-0.27536 -0.47191,-0.25966 -0.80194,0.15989 -0.20128,0.2559 -0.35397,0.54962 -0.3393,0.65273 0.0146,0.10311 -0.20153,0.27189 -0.48042,0.37506 -0.49235,0.18213 -0.50308,0.23482 -0.36956,1.81431 0.10333,1.22239 0.0772,1.56644 -0.10506,1.38417 -0.13342,-0.13341 -0.28794,-0.71476 -0.3434,-1.29188 l -0.10082,-1.0493 -0.6864,0.40499 c -0.97409,0.57473 -1.1906,0.86988 -2.46644,3.36252 -0.62584,1.22273 -1.28161,2.33151 -1.45727,2.46397 -0.17565,0.13246 -0.78638,1.20871 -1.35717,2.39165 -1.20902,2.5056 -1.873,3.14528 -2.94477,2.83698 -0.44695,-0.12857 -0.67218,-0.32638 -0.67278,-0.59088 -0.002,-0.71926 -0.4533,-0.56691 -1.05225,0.35491 -1.04673,1.61105 -1.80518,2.26625 -1.80518,1.55945 0,-0.16498 -0.0925,-0.33171 -0.20549,-0.37053 -0.11302,-0.0388 -0.23212,-0.30876 -0.26466,-0.5999 -0.0326,-0.29112 -0.18045,-0.62491 -0.32867,-0.74174 -0.14822,-0.11683 -0.33001,-0.58537 -0.40399,-1.0412 -0.11396,-0.70234 -0.083,-0.80904 0.20271,-0.69938 0.32538,0.12486 0.52538,-0.11266 1.64555,-1.95426 1.16053,-1.908 2.44308,-6.65816 1.89,-6.99998 -0.13925,-0.0861 -0.13859,-0.50845 0.002,-1.24948 0.11676,-0.6157 0.16069,-1.32509 0.0976,-1.57644 -0.0673,-0.2681 0.0942,-0.84986 0.39063,-1.40756 0.54387,-1.02312 0.93426,-3.15884 0.61522,-3.36575 -0.23399,-0.15174 -0.48929,-5.31292 -0.26281,-5.31292 0.0876,0 0.21842,-0.70052 0.29079,-1.55672 0.0723,-0.8562 0.19183,-1.7137 0.26545,-1.90555 0.18212,-0.4746 0.51201,-0.44126 0.51201,0.0518 0,1.11627 0.93016,4.85341 1.41311,5.6775 0.62507,1.0666 0.73441,1.02948 1.78365,-0.60563 0.48374,-0.75384 0.78567,-1.03074 1.04888,-0.96191 0.39271,0.1027 0.6241,-0.55895 0.6241,-1.78454 0,-0.33479 0.0778,-0.60872 0.17289,-0.60872 0.0951,0 0.29931,-0.64312 0.45384,-1.42916 0.33676,-1.71299 0.42008,-1.95848 0.6647,-1.95848 0.10311,0 0.16763,0.40493 0.14337,0.89984 -0.0877,1.78819 0.0509,5.45191 0.20609,5.44861 0.33405,-0.007 1.56491,-1.25906 1.43868,-1.46332 -0.073,-0.11809 0.13321,-0.27928 0.45822,-0.35822 0.325,-0.0789 0.92438,-0.42112 1.33195,-0.76042 2.89581,-2.41071 4.55128,-3.34303 5.93598,-3.34303 0.29859,0 0.65723,-0.11434 0.79697,-0.25408 0.13974,-0.13974 0.25407,-0.18199 0.25407,-0.0939 0,0.0881 0.28197,-0.006 0.62661,-0.20995 0.57739,-0.34108 0.65637,-0.34332 1.00571,-0.0285 0.74383,0.67039 1.39295,0.65984 2.26969,-0.0369 0.79674,-0.63318 1.3912,-0.83076 1.3912,-0.46242 0,0.10158 0.36969,0.24379 0.82154,0.31605 0.52737,0.0843 0.93635,0.30658 1.14217,0.62071 0.17635,0.26914 0.89161,1.05588 1.58947,1.74831 1.43812,1.42693 2.62881,3.43843 3.09344,5.2259 0.41066,1.57988 1.31819,2.68055 2.82801,3.42987 0.66969,0.33237 1.50346,0.81399 1.8528,1.07029 0.34936,0.2563 0.96866,0.62546 1.37624,0.82037 0.67753,0.32399 1.87418,1.38436 3.47586,3.08002 0.33965,0.35958 0.74458,0.65378 0.89985,0.65378 0.15527,0 0.2823,0.14627 0.2823,0.32504 0,0.17877 0.12827,0.53607 0.28503,0.79398 0.15677,0.25792 0.45349,1.08825 0.65939,1.84517 0.2059,0.75693 0.55708,1.82975 0.7804,2.38404 0.22332,0.5543 0.46279,1.7929 0.53215,2.75246 0.0795,1.09966 0.26576,1.97949 0.50387,2.37984 0.91672,1.54139 1.05054,4.8291 0.30143,7.40593 -0.29684,1.0211 -0.30799,1.2556 -0.0679,1.42717 0.21896,0.15642 0.19917,0.17692 -0.0832,0.0861 -0.2403,-0.0773 -0.37052,-0.008 -0.37052,0.19597 0,0.60979 -1.06425,1.99095 -2.16701,2.81231 -0.6264,0.46656 -2.04233,1.17283 -3.23205,1.61217 -2.1765,0.80373 -3.49351,1.74144 -3.49351,2.48736 0,0.27655 -0.1625,0.38192 -0.58901,0.38192 -0.42876,0 -1.09819,0.43859 -2.46045,1.61201 -1.42692,1.22912 -1.91487,1.54344 -2.05434,1.3233 -0.1006,-0.15879 -0.18437,-0.40961 -0.18616,-0.55737 -0.004,-0.2988 -1.18308,-2.58109 -1.49699,-2.89667 -0.28591,-0.28745 -0.24712,-0.90909 0.0646,-1.03487 0.14556,-0.0587 -0.004,-0.11432 -0.33151,-0.12351 -0.98886,-0.0277 -1.51706,0.3423 -3.90525,2.73575 -0.63908,0.64048 -1.51683,1.64089 -1.95059,2.22314 -1.63923,2.20043 -4.09563,4.43408 -6.99271,6.35861 -1.57209,1.04433 -2.8901,1.97024 -2.92891,2.05758 -0.0388,0.0873 -0.16456,0.1588 -0.27945,0.1588 -0.11487,0 -0.60714,0.26679 -1.09392,0.59287 -2.56846,1.72055 -5.80233,2.20875 -14.2026,2.14412 l -4.93377,-0.0379 z m 9.66124,1.48288 c -0.14335,-0.058 -0.42918,-0.0615 -0.63518,-0.008 -0.20601,0.0537 -0.0887,0.10113 0.26062,0.10544 0.34936,0.004 0.51791,-0.0396 0.37456,-0.0976 z m 2.48377,-0.0502 c 0,-0.104 -0.15639,-0.2491 -0.34754,-0.32245 -0.29058,-0.1115 -0.30368,-0.0805 -0.0799,0.18908 0.30491,0.3674 0.42748,0.40564 0.42748,0.13337 z m -6.56781,-0.34537 c -0.1473,-0.17749 -0.31142,-0.2791 -0.36472,-0.22582 -0.14683,0.14684 0.1515,0.54853 0.40739,0.54853 0.14039,0 0.12433,-0.12149 -0.0427,-0.32271 z m 9.8496,-0.31247 c -0.0719,-0.11645 -0.29197,-0.21027 -0.48889,-0.20849 -0.30854,0.003 -0.31413,0.0316 -0.0404,0.20849 0.41465,0.26795 0.69493,0.26795 0.52932,0 z m 2.54073,-0.21174 c -0.0719,-0.11645 -0.27377,-0.21172 -0.44845,-0.21172 -0.17467,0 -0.2587,0.0953 -0.18673,0.21172 0.0719,0.11646 0.27377,0.21174 0.44845,0.21174 0.17467,0 0.2587,-0.0953 0.18673,-0.21174 z m -10.69226,-0.71511 c 0,-0.0439 -0.16674,-0.21071 -0.37052,-0.37053 -0.33581,-0.26336 -0.3433,-0.25587 -0.0799,0.0799 0.2766,0.35269 0.45046,0.46485 0.45046,0.29059 z m -1.48209,-2.03735 c -0.24876,-0.34935 -0.49993,-0.63518 -0.55816,-0.63518 -0.0583,0 0.0977,0.28583 0.34643,0.63518 0.24876,0.34935 0.49993,0.63519 0.55816,0.63519 0.0583,0 -0.0977,-0.28584 -0.34643,-0.63519 z m 10.5864,0.21173 c -0.12466,-0.2329 -0.27428,-0.42345 -0.3325,-0.42345 -0.0583,0 -0.004,0.19055 0.12076,0.42345 0.12465,0.23291 0.27427,0.42346 0.3325,0.42346 0.0583,0 0.004,-0.19055 -0.12076,-0.42346 z m -1.79099,-2.31492 c -0.0767,-0.1242 -0.23297,-0.22582 -0.34714,-0.22582 -0.11417,0 -0.0847,0.13331 0.0655,0.29624 0.30397,0.32984 0.49896,0.28109 0.28172,-0.0704 z m -3.50222,-0.0141 c 0,-0.11645 -0.1009,-0.21173 -0.22422,-0.21173 -0.12332,0 -0.16534,0.0953 -0.0934,0.21173 0.0719,0.11645 0.17287,0.21172 0.22423,0.21172 0.0514,0 0.0934,-0.0953 0.0934,-0.21172 z m 1.4821,0 c 0,-0.11645 -0.1009,-0.21173 -0.22422,-0.21173 -0.12333,0 -0.16535,0.0953 -0.0934,0.21173 0.0719,0.11645 0.17287,0.21172 0.22422,0.21172 0.0514,0 0.0934,-0.0953 0.0934,-0.21172 z m 4.44629,0 c 0,-0.11645 -0.1009,-0.21173 -0.22422,-0.21173 -0.12333,0 -0.16535,0.0953 -0.0934,0.21173 0.0719,0.11645 0.17288,0.21172 0.22423,0.21172 0.0514,0 0.0934,-0.0953 0.0934,-0.21172 z m -9.71322,-0.69165 c -0.2091,-0.20755 -0.23342,-0.18323 -0.11852,0.11853 0.0795,0.2088 0.1979,0.32632 0.26309,0.26113 0.0652,-0.0652 1.4e-4,-0.23604 -0.14457,-0.37966 z m 13.52432,-0.57872 c 0.17468,-0.11288 0.22232,-0.20524 0.10587,-0.20524 -0.11645,0 -0.35465,0.0924 -0.52933,0.20524 -0.17467,0.11288 -0.22231,0.20524 -0.10586,0.20524 0.11645,0 0.35464,-0.0924 0.52932,-0.20524 z m -10.00856,-0.12792 c -0.0703,-0.0703 -0.25297,-0.0779 -0.40581,-0.0167 -0.1689,0.0676 -0.11873,0.11776 0.12792,0.12791 0.2232,0.009 0.34825,-0.0409 0.27789,-0.1112 z m 1.90555,0 c -0.0703,-0.0703 -0.25297,-0.0779 -0.40581,-0.0167 -0.1689,0.0676 -0.11873,0.11776 0.12793,0.12791 0.22319,0.009 0.34824,-0.0409 0.27788,-0.1112 z m -11.3029,-0.41053 c -0.069,-0.1797 -0.17078,-0.28132 -0.22628,-0.22582 -0.0555,0.0555 -0.0381,0.20253 0.0386,0.32673 0.20877,0.3378 0.3308,0.27218 0.18763,-0.10091 z m 27.87503,-0.67332 c 0,-0.16079 -0.7941,0.36417 -1.07606,0.71136 -0.18575,0.22872 -0.0379,0.1776 0.38794,-0.13412 0.37847,-0.27706 0.68812,-0.53682 0.68812,-0.57724 z m -10.26881,0.0407 c 0.82824,-0.6789 0.60525,-0.67429 -0.31759,0.006 -0.3946,0.29112 -0.62749,0.52588 -0.51752,0.5217 0.10996,-0.004 0.48576,-0.24191 0.83511,-0.52827 z m 4.86824,0.32658 c 0.0742,-0.12002 -0.0108,-0.15552 -0.19923,-0.0832 -0.3668,0.14075 -0.43391,0.29251 -0.12936,0.29251 0.10959,0 0.25745,-0.0942 0.32859,-0.2093 z m -22.30979,-1.39287 c -0.14019,-0.59804 -0.20038,-0.68354 -0.21357,-0.30338 -0.0222,0.63838 0.23195,1.66654 0.33528,1.35657 0.0404,-0.12127 -0.0143,-0.5952 -0.12171,-1.05319 z m 29.84644,-1.50266 c 0.22356,-0.27844 0.13413,-0.25676 -0.3552,0.0861 -0.3597,0.25202 -0.78844,0.62569 -0.95278,0.83037 -0.22355,0.27844 -0.13413,0.25676 0.35521,-0.0861 0.35969,-0.25203 0.78843,-0.62569 0.95277,-0.83037 z m -0.62698,-0.44161 c 0.26336,-0.33581 0.25587,-0.3433 -0.0799,-0.0799 -0.35269,0.2766 -0.46485,0.45047 -0.29059,0.45047 0.0439,0 0.2107,-0.16674 0.37052,-0.37052 z m 2.84054,-1.95848 1.03211,-1.16451 -1.20879,1.15727 c -0.66482,0.6365 -1.20877,1.25105 -1.20877,1.36565 0,0.1309 0.0657,0.13359 0.17667,0.007 0.0972,-0.11062 0.64112,-0.72517 1.20878,-1.36564 z m -8.16075,-3.89432 c 0,-0.0458 -0.14786,-0.13995 -0.32859,-0.2093 -0.18842,-0.0723 -0.2734,-0.0368 -0.19923,0.0832 0.12434,0.20118 0.52782,0.29757 0.52782,0.12609 z m 27.10117,-2.7211 c 0,-0.11811 -0.14042,-0.0952 -0.31758,0.0519 -0.17468,0.14497 -0.31759,0.35885 -0.31759,0.4753 0,0.11811 0.14042,0.0952 0.31759,-0.0519 0.17467,-0.14497 0.31758,-0.35886 0.31758,-0.47531 z m -25.05098,-1.8934 c -0.0676,-0.1689 -0.11776,-0.11873 -0.12792,0.12792 -0.009,0.22319 0.0408,0.34825 0.1112,0.27789 0.0703,-0.0703 0.0779,-0.25297 0.0167,-0.40581 z m 6.9256,-1.56558 c 0.19875,-0.51795 0.15566,-0.58638 -0.18907,-0.30028 -0.35198,0.29212 -0.42139,0.63519 -0.12852,0.63519 0.10399,0 0.2469,-0.15071 0.31759,-0.33491 z m 8.17418,-0.32527 c 0,-0.11645 -0.0953,-0.15283 -0.21173,-0.0809 -0.11646,0.0719 -0.21173,0.22614 -0.21173,0.34259 0,0.11645 0.0953,0.15284 0.21173,0.0809 0.11645,-0.0719 0.21173,-0.22613 0.21173,-0.34259 z m -7.83393,-1.94618 c 0,-0.11645 -0.19056,-0.0393 -0.42346,0.17149 -0.2329,0.21077 -0.42346,0.4785 -0.42346,0.59495 0,0.11645 0.19056,0.0393 0.42346,-0.1715 0.2329,-0.21077 0.42346,-0.47849 0.42346,-0.59494 z m 16.96542,-0.25196 0.2079,-0.42346 -0.34479,0.42346 c -0.18963,0.23289 -0.43834,0.614 -0.55268,0.8469 l -0.20789,0.42346 0.34478,-0.42346 c 0.18964,-0.2329 0.43834,-0.61401 0.55268,-0.8469 z m -20.98826,0.39846 c 0,-0.17468 -0.0953,-0.2587 -0.21172,-0.18674 -0.11645,0.0719 -0.21173,0.27378 -0.21173,0.44845 0,0.17467 0.0953,0.25871 0.21173,0.18673 0.11644,-0.0719 0.21172,-0.27376 0.21172,-0.44844 z m -1.48533,-0.35803 c 0.002,-0.0942 -0.092,-0.11241 -0.20849,-0.0404 -0.11646,0.0719 -0.21027,0.29196 -0.20849,0.48888 0.003,0.30855 0.0316,0.31414 0.20849,0.0404 0.11288,-0.17468 0.2067,-0.39468 0.20849,-0.48889 z m 3.60262,0.22858 c 0,-0.12392 -0.13454,-0.10335 -0.3176,0.0486 -0.17468,0.14497 -0.31759,0.29656 -0.31759,0.33688 0,0.0403 0.14291,0.0185 0.31759,-0.0486 0.17467,-0.0671 0.3176,-0.21862 0.3176,-0.33687 z m 17.14996,-0.82333 c 0,-0.11645 -0.0953,-0.15284 -0.21174,-0.0809 -0.11645,0.0719 -0.21172,0.22613 -0.21172,0.34258 0,0.11645 0.0953,0.15284 0.21172,0.0809 0.11645,-0.0719 0.21174,-0.22614 0.21174,-0.34259 z m 4.35004,-2.4195 c -0.081,-0.54008 -0.19923,-0.92999 -0.26274,-0.86647 -0.0635,0.0635 -0.0492,0.55737 0.0318,1.09744 0.081,0.54009 0.19923,0.93 0.26275,0.86648 0.0635,-0.0635 0.0492,-0.55737 -0.0318,-1.09745 z m -5.05233,0.0758 c -0.0676,-0.1689 -0.11775,-0.11873 -0.12791,0.12792 -0.009,0.22319 0.0408,0.34825 0.1112,0.27789 0.0703,-0.0703 0.0779,-0.25297 0.0167,-0.40581 z m -22.84076,-0.81984 c 0.25152,-0.40276 0.23922,-0.41837 -0.1608,-0.20428 -0.23822,0.1275 -0.43314,0.32373 -0.43314,0.43608 0,0.34651 0.3078,0.22638 0.59394,-0.2318 z m -14.72453,-0.52992 c 0.10313,-0.34208 0.26718,-0.81251 0.36455,-1.04541 0.0974,-0.23291 0.23743,-0.60867 0.31123,-0.83504 0.13155,-0.40353 0.12556,-0.4038 -0.30586,-0.0134 -0.24202,0.21902 -0.39203,0.52333 -0.33335,0.67624 0.0587,0.15291 0.0372,0.27802 -0.0476,0.27802 -0.0849,0 -0.42817,0.25393 -0.76286,0.56428 -0.57862,0.53651 -0.58935,0.57833 -0.21813,0.84977 0.52485,0.38378 0.76841,0.26728 0.99205,-0.47451 z m 11.94622,-0.13234 c -0.0676,-0.16889 -0.11776,-0.11873 -0.12792,0.12792 -0.009,0.2232 0.0408,0.34825 0.1112,0.2779 0.0703,-0.0703 0.0779,-0.25297 0.0167,-0.40582 z m 27.70776,-0.1917 c 0.18625,-0.36018 0.30105,-0.69245 0.25511,-0.73839 -0.0459,-0.0459 -0.24198,0.24874 -0.43564,0.65486 -0.43543,0.91312 -0.28457,0.98293 0.18053,0.0835 z m -43.06503,-0.38794 c 0.24064,-0.22419 0.40339,-0.49539 0.36167,-0.60267 -0.0417,-0.10728 -0.29748,0.0762 -0.56835,0.40762 -0.5625,0.68835 -0.44344,0.80072 0.20668,0.19505 z m 4.65345,-0.2805 c 0.23018,-0.43197 0.221,-0.44929 -0.0984,-0.1858 -0.19375,0.15982 -0.35226,0.3742 -0.35226,0.47639 0,0.32341 0.18815,0.2021 0.45067,-0.29059 z m 11.23789,-0.7828 c 0.0503,-0.3432 0.0135,-0.57577 -0.0818,-0.51683 -0.16975,0.10492 -0.25291,1.14083 -0.0916,1.14083 0.045,0 0.12305,-0.28079 0.17342,-0.624 z m -14.72426,-0.69923 c -0.0587,-0.14557 -0.10679,-0.0265 -0.10679,0.26466 0,0.29112 0.0481,0.41022 0.10679,0.26466 0.0587,-0.14557 0.0587,-0.38376 0,-0.52932 z m 42.98518,0.22496 c -0.0676,-0.16891 -0.11775,-0.11873 -0.12791,0.12791 -0.009,0.2232 0.0408,0.34826 0.1112,0.2779 0.0703,-0.0703 0.0779,-0.25298 0.0167,-0.40581 z m -25.85625,-0.86015 0.62186,-0.68812 -0.68812,0.62187 c -0.37846,0.34203 -0.68811,0.65168 -0.68811,0.68811 0,0.16358 0.1747,0.0195 0.75437,-0.62186 z m 21.22932,-0.90057 c -0.0651,-0.0651 -0.28566,0.14663 -0.49015,0.47051 l -0.3718,0.58886 0.49015,-0.47051 c 0.26959,-0.25878 0.43689,-0.52376 0.3718,-0.58886 z m 1.09868,0.63106 c 0.22375,-0.2696 0.21065,-0.30058 -0.0799,-0.18907 -0.19115,0.0734 -0.34754,0.21845 -0.34754,0.32244 0,0.27227 0.12256,0.23403 0.42748,-0.13337 z m -15.98948,-0.52447 c 0.21077,-0.2329 0.33558,-0.42346 0.27735,-0.42346 -0.0583,0 -0.27831,0.19056 -0.48909,0.42346 -0.21077,0.2329 -0.33557,0.42346 -0.27735,0.42346 0.0583,0 0.27831,-0.19056 0.48909,-0.42346 z m 7.55515,-0.0459 c -0.15192,-0.15193 -0.25054,-0.16443 -0.25054,-0.0318 0,0.28261 0.25039,0.533 0.39169,0.3917 0.0602,-0.0602 -0.003,-0.22214 -0.14115,-0.35994 z m 12.38604,-1.26419 c -0.0676,-0.16891 -0.11776,-0.11873 -0.12792,0.12791 -0.009,0.2232 0.0408,0.34826 0.11121,0.2779 0.0703,-0.0703 0.0779,-0.25298 0.0167,-0.40581 z m -22.13733,-0.96601 c 0.26336,-0.33582 0.25587,-0.34331 -0.0799,-0.0799 -0.35269,0.27659 -0.46485,0.45045 -0.29059,0.45045 0.0439,0 0.2107,-0.16673 0.37052,-0.37052 z m 3.55139,-0.34819 c 0.2762,-0.294 0.38763,-0.56178 0.26525,-0.63741 -0.11608,-0.0717 -0.35413,0.15641 -0.52902,0.50698 -0.384,0.76974 -0.3518,0.78567 0.26377,0.13043 z m -2.82893,-0.71045 0.37472,-0.58225 -0.45623,0.40333 c -0.25093,0.22184 -0.45623,0.48385 -0.45623,0.58226 0,0.31056 0.15137,0.19702 0.53774,-0.40334 z m 18.87414,-0.0926 c -0.0676,-0.16889 -0.11777,-0.11873 -0.12792,0.12793 -0.009,0.22319 0.0408,0.34824 0.1112,0.27789 0.0703,-0.0703 0.0779,-0.25297 0.0167,-0.40582 z m -17.27462,-0.63282 c 0.16766,-0.31327 0.16831,-0.39662 0.002,-0.29401 -0.12744,0.0788 -0.33701,0.33995 -0.4657,0.58042 -0.16766,0.31327 -0.1683,0.39662 -0.002,0.29401 0.12744,-0.0787 0.33701,-0.33995 0.4657,-0.58042 z m 2.44925,-1.07423 c -0.0587,-0.14556 -0.10679,-0.0265 -0.10679,0.26466 0,0.29112 0.0481,0.41022 0.10679,0.26466 0.0587,-0.14556 0.0587,-0.38376 0,-0.52932 z m -1.39494,-1.06452 -0.49016,-0.47051 0.3718,0.58886 c 0.20449,0.32388 0.42505,0.5356 0.49015,0.47051 0.0651,-0.0651 -0.10221,-0.33008 -0.37179,-0.58886 z m 0.905,-0.0259 c -0.21524,-0.29544 -0.46564,-0.54015 -0.55646,-0.54381 -0.0908,-0.004 0.0453,0.27801 0.30255,0.62592 0.25723,0.34793 0.50763,0.59263 0.55646,0.54381 0.0488,-0.0488 -0.0873,-0.3305 -0.30255,-0.62592 z m 13.40535,0.0318 c -0.0587,-0.14557 -0.1068,-0.0265 -0.1068,0.26466 0,0.29113 0.0481,0.41023 0.1068,0.26466 0.0587,-0.14556 0.0587,-0.38375 0,-0.52932 z m -0.63078,0.0132 c -0.0676,-0.16891 -0.11776,-0.11874 -0.12792,0.12792 -0.009,0.22319 0.0408,0.34824 0.1112,0.27788 0.0704,-0.0703 0.0779,-0.25297 0.0167,-0.4058 z m -31.88378,-1.70794 c 0.38852,-0.52262 0.39758,-0.5969 0.0874,-0.71595 -0.36343,-0.13945 -0.677,0.20148 -1.51595,1.64825 -0.94401,1.62793 -0.0324,1.03302 1.42859,-0.9323 z m 29.34783,0.21261 c -0.0505,-0.26202 -0.0917,-0.0476 -0.0917,0.47639 0,0.52402 0.0413,0.73839 0.0917,0.47638 0.0505,-0.26201 0.0505,-0.69076 0,-0.95277 z m 2.32423,0.43669 c -0.0676,-0.16891 -0.11777,-0.11873 -0.12793,0.12791 -0.009,0.2232 0.0408,0.34826 0.11121,0.2779 0.0703,-0.0703 0.0779,-0.25298 0.0167,-0.40581 z m 0.35955,-1.44241 c -0.30826,-0.46579 -0.60106,-0.8469 -0.65069,-0.8469 -0.10723,0 0.071,0.31992 0.61909,1.11156 0.63075,0.91096 0.65808,0.68203 0.0316,-0.26466 z m -1.3511,-0.29323 c 0,-0.0448 -0.23819,-0.23758 -0.52933,-0.42834 -0.29341,-0.19225 -0.52931,-0.24724 -0.52931,-0.12339 0,0.12288 0.21438,0.3096 0.47639,0.41491 0.59135,0.2377 0.58225,0.23556 0.58225,0.13682 z m -26.1484,-1.82404 c 0.0719,-0.11645 0.0299,-0.21173 -0.0934,-0.21173 -0.12333,0 -0.22422,0.0953 -0.22422,0.21173 0,0.11645 0.042,0.21172 0.0934,0.21172 0.0514,0 0.15225,-0.0953 0.22423,-0.21172 z m -2.56582,-1.81069 c 0.0723,-0.18842 0.0368,-0.2734 -0.0832,-0.19923 -0.11512,0.0711 -0.2093,0.21902 -0.2093,0.32859 0,0.30455 0.15176,0.23745 0.29251,-0.12936 z m 17.49264,0.0235 c 0,-0.0514 -0.0953,-0.15225 -0.21173,-0.22422 -0.11645,-0.072 -0.21173,-0.0299 -0.21173,0.0934 0,0.12332 0.0953,0.22422 0.21173,0.22422 0.11645,0 0.21173,-0.042 0.21173,-0.0934 z m 0.94472,-3.65386 c -0.24096,-0.36777 -0.41669,-0.48345 -0.47386,-0.31196 -0.0946,0.28382 0.58008,1.17326 0.75631,0.99704 0.0553,-0.0553 -0.0718,-0.36359 -0.28245,-0.68508 z m -2.07045,-2.64431 c -0.0676,-0.1689 -0.11777,-0.11873 -0.12793,0.12792 -0.009,0.2232 0.0409,0.34825 0.11121,0.2779 0.0703,-0.0703 0.0779,-0.25297 0.0167,-0.40582 z m -1.17743,-1.16185 c -0.18454,-0.31733 -0.22585,-0.32648 -0.23114,-0.0511 -0.007,0.35657 0.21579,0.67762 0.36585,0.52756 0.0494,-0.0495 -0.0111,-0.26386 -0.13471,-0.47639 z m -26.28011,8.61203 c 0,-0.11645 0.1009,-0.21173 0.22422,-0.21173 0.12332,0 0.16534,0.0953 0.0934,0.21173 -0.0719,0.11645 -0.17288,0.21173 -0.22423,0.21173 -0.0514,0 -0.0934,-0.0953 -0.0934,-0.21173 z"
       id="path1"
       sodipodi:nodetypes="cssssscsssssssssssssssscssssssssssssssssssssssssscccsscsssscssssssssssssscssssssssssssssscsssscssssssssssssssssscsssssssssssssssscssssssssssscsscsssssssccssssssssssssssssssssssssssssssssssscscscsscsssssssssssssssssssssssssssssssssssscsssssssssssssssssssssssssssccsscccssssssssssscssssssssssssssssscsscssssssssscsssssssssssssssssssssscsssssssssssssssssscsssssssssssssscsscsscssscssscssscscscsssssssssssssssscsssssssssssscssssscssscscssscsscsssssssssscssscsssssssscssscsssscsssssssssssscsscsssssssssssssssccsssssss"
       inkscape:label="hispo" /></g></svg>
