<?xml version="1.0" encoding="UTF-8" standalone="yes"?>
<svg
   width="10mm"
   height="40mm"
   viewBox="0 0 21 81"
   version="1.1"
   xmlns="http://www.w3.org/2000/svg"
>
<g id="layer1" transform="translate(50,-178)">
    <rect x="0" y="0" width="21" height="81" style="fill:none;stroke:#101010;stroke-width:1pt;"/>
<path style="fill:#3a1f00;fill-opacity:0.23506;stroke:none"
       d="m -39.371143,259.76509 c -0.70771,-0.34157 -0.94766,-0.98088 -0.71544,-1.90614 0.14726,-0.58672 0.31583,-0.68395 1.1857,-0.68395 1.50926,0 1.46828,-0.39041 -0.0459,-0.43711 -1.56414,-0.0482 -3.07639,-1.03094 -3.07548,-1.99853 7.7e-4,-0.81719 1.61875,-2.06103 2.68787,-2.06633 0.44951,-0.002 0.98884,-0.1126 1.19852,-0.24527 0.24696,-0.15625 0.6456,-0.1045 1.13185,0.14695 0.48722,0.25196 1.07299,0.32769 1.66929,0.21582 0.91129,-0.17096 0.91867,-0.18361 0.91867,-1.57483 0,-1.86305 -1.50893,-9.04249 -1.56964,-7.46831 -0.0325,0.8431 -0.51984,0.48003 -0.71026,-0.52916 -0.10297,-0.54571 -0.23735,-0.84336 -0.29863,-0.66146 -0.23001,0.68285 -0.8312,0.29195 -1.22077,-0.79375 -0.30673,-0.85482 -0.43501,-2.77418 -0.53495,-8.00365 -0.10748,-5.62414 -0.2246,-7.24119 -0.64194,-8.86354 -0.28076,-1.09141 -0.52117,-2.19273 -0.53424,-2.4474 -0.17075,-3.32649 0.16763,-4.38414 1.34324,-4.19851 0.26109,0.0412 0.2517,-0.0601 -0.0875,-0.94364 -0.45958,-1.19713 -1.05388,-7.9645 -0.90189,-10.26982 0.16681,-2.5302 0.74634,-5.88 1.48764,-8.59896 0.29757,-1.09141 0.59586,-2.27193 0.66287,-2.62339 0.067,-0.35145 0.3371,-0.94676 0.60018,-1.32291 0.26309,-0.37615 0.42587,-0.83274 0.36173,-1.01464 -0.13469,-0.38198 0.23325,-0.44057 0.60217,-0.0959 0.13825,0.12916 0.50319,0.31068 0.81099,0.40338 0.47305,0.14246 0.58404,0.0345 0.71731,-0.69787 0.0867,-0.47652 0.23572,-1.13429 0.33112,-1.46171 0.16263,-0.55818 0.095,-0.59531 -1.08384,-0.59531 -1.00125,0 -1.38213,-0.13471 -1.87031,-0.66146 -0.33716,-0.36381 -0.49964,-0.66146 -0.36107,-0.66146 0.13857,0 0.25195,-0.1786 0.25195,-0.39688 0,-0.21828 -0.10409,-0.39687 -0.2313,-0.39687 -0.12722,0 -0.24369,-0.50602 -0.25883,-1.12448 -0.0649,-2.65047 -0.36291,-5.22011 -0.5892,-5.08025 -0.48022,0.29679 -0.23059,-0.91524 0.46439,-2.25478 0.80719,-1.55582 1.74313,-2.16469 3.36519,-2.18922 1.68246,-0.0254 2.96747,0.51693 3.80171,1.6046 1.4588,1.90194 1.66185,2.91563 0.97025,4.84368 -0.38683,1.0784 -0.92451,3.55733 -0.96845,4.46503 -0.0106,0.21828 -0.12122,0.46402 -0.24588,0.54608 -0.12466,0.0821 -0.42374,1.05738 -0.66462,2.16737 l -0.43796,2.01817 0.65809,0.87533 c 0.58085,0.77262 0.66459,1.17032 0.71353,3.38888 0.0544,2.46565 0.69259,9.68058 0.99466,11.2448 0.0843,0.43656 0.33593,1.08148 0.55918,1.43316 0.36746,0.57886 0.365,0.66933 -0.026,0.95521 -0.58631,0.42872 -0.54349,0.63398 0.0973,0.46641 0.76998,-0.20135 0.67711,0.56357 -0.27907,2.29844 -0.59799,1.085 -0.83316,1.91358 -0.93603,3.29799 -0.0756,1.01692 -0.23337,1.97218 -0.3507,2.12282 -0.11732,0.15064 -0.29235,0.60457 -0.38896,1.00875 -0.0966,0.40418 -0.45645,1.35668 -0.79967,2.11667 -1.41647,3.13644 -2.08515,6.0342 -1.4789,6.40888 0.14552,0.0899 0.26458,0.28258 0.26458,0.4281 0,0.14552 -0.12216,0.18909 -0.27147,0.0968 -0.18469,-0.11415 -0.21526,2.18573 -0.0956,7.19428 l 0.17585,7.36206 0.83065,2.38125 c 0.45686,1.30969 0.83268,2.50031 0.83515,2.64583 0.002,0.14552 0.1698,1.17914 0.37185,2.29694 0.29183,1.61452 0.47335,2.06008 0.88292,2.16718 0.40481,0.10586 0.47281,0.26608 0.31652,0.74577 -0.10948,0.33602 -0.21451,1.02374 -0.23339,1.52827 -0.032,0.85593 -0.1077,0.93186 -1.13055,1.13447 -0.80545,0.15953 -1.13882,0.37239 -1.25677,0.80246 -0.11342,0.41356 -0.22297,0.48889 -0.37329,0.2567 -0.16368,-0.25281 -0.45128,-0.20703 -1.24658,0.19843 -0.5686,0.28989 -1.217,0.53086 -1.44089,0.53549 -0.22389,0.005 -0.63819,0.18322 -0.92067,0.39687 -0.59212,0.44786 -2.12699,0.48288 -2.98631,0.0681 z m 3.56054,-4.60203 c -0.0879,-0.0879 -0.31613,-0.0973 -0.50712,-0.0209 -0.21107,0.0845 -0.14837,0.14716 0.15985,0.15985 0.27892,0.0115 0.43519,-0.051 0.34727,-0.13896 z m 1.46072,-0.54454 c -0.1819,-0.0734 -0.47956,-0.0734 -0.66146,0 -0.1819,0.0734 -0.0331,0.13345 0.33073,0.13345 0.3638,0 0.51263,-0.06 0.33073,-0.13345 z m -3.14334,-15.36904 c -0.11936,-3.54068 -0.30687,-5.29227 -0.58493,-5.46413 -0.33296,-0.20577 -0.13684,6.26787 0.22564,7.4485 0.18988,0.61846 0.37198,1.12448 0.40467,1.12448 0.0327,0 0.0123,-1.39898 -0.0454,-3.10885 z m 1.84996,-18.98386 c 0.0838,-0.21828 0.037,-0.39687 -0.10399,-0.39687 -0.14095,0 -0.25628,0.17859 -0.25628,0.39687 0,0.21828 0.0468,0.39688 0.10399,0.39688 0.0572,0 0.17251,-0.1786 0.25628,-0.39688 z m 1.72434,-4.36562 c -0.005,-0.21828 -0.16868,0.0198 -0.36482,0.52916 -0.4652,1.20801 -0.45833,1.6833 0.01,0.66146 0.1999,-0.43656 0.35976,-0.97234 0.35526,-1.19062 z m -4.31905,-2.9466 c -0.21072,-0.52922 -0.31011,-1.03524 -0.22087,-1.12448 0.0892,-0.0892 0.01,-0.16226 -0.17691,-0.16226 -0.33999,0 -0.29936,0.9461 0.18178,4.23334 l 0.17427,1.19062 0.21243,-1.5875 c 0.1578,-1.17926 0.11391,-1.83494 -0.1707,-2.54972 z m 5.82527,2.49351 c 0.40189,-0.68576 0.7307,-1.40014 0.7307,-1.5875 0,-0.18737 0.16677,-0.34066 0.37061,-0.34066 0.38481,0 0.36096,-0.1522 -0.33179,-2.11667 l -0.32656,-0.92604 -0.19173,1.32292 c -0.21755,1.50103 -0.50066,2.7829 -0.89111,4.03489 -0.1475,0.47294 -0.22827,0.8599 -0.1795,0.8599 0.0488,0 0.4175,-0.56108 0.81938,-1.24684 z m -0.58917,-2.06045 0.15903,-1.32292 -0.34367,1.05833 c -0.18902,0.58209 -0.29016,1.2123 -0.22474,1.40048 0.17345,0.49898 0.23254,0.33501 0.40938,-1.13589 z m -5.36759,-3.9503 c -0.22252,-0.26811 -0.28424,-1.04861 -0.19616,-2.48051 0.0707,-1.14911 0.0394,-2.23355 -0.0696,-2.40985 -0.10896,-0.17631 -0.27669,0.70172 -0.37273,1.95117 -0.14364,1.86862 -0.0975,2.38946 0.26011,2.93522 0.23911,0.36492 0.49511,0.60312 0.5689,0.52933 0.0738,-0.0738 -0.0119,-0.31019 -0.19052,-0.52536 z m 3.10858,-3.20046 c -0.0815,-0.0815 -0.2294,0.0654 -0.32876,0.32632 -0.14359,0.37709 -0.1132,0.40748 0.14811,0.14812 0.18082,-0.17948 0.26211,-0.39297 0.18065,-0.47444 z m 2.43235,-21.02737 c 0,-0.14552 -0.0525,-0.26458 -0.11668,-0.26458 -0.0642,0 -0.19026,0.11906 -0.28019,0.26458 -0.0899,0.14552 -0.0374,0.26459 0.11667,0.26459 0.15411,0 0.2802,-0.11907 0.2802,-0.26459 z m 0.41661,-5.78889 c -0.19769,-0.31988 -1.21036,-0.56347 -1.21036,-0.29115 0,0.12122 0.20836,0.27486 0.46302,0.34141 0.77021,0.20128 0.89751,0.19271 0.74734,-0.0503 z m -2.26869,-0.56111 c 0.48365,-0.31256 0.0659,-0.31256 -0.66146,0 -0.34892,0.14994 -0.39398,0.23235 -0.13229,0.24194 0.21828,0.008 0.57547,-0.10087 0.79375,-0.24194 z m -14.81667,76.44898 c 0,-0.15411 0.11906,-0.20662 0.26458,-0.11668 0.14553,0.0899 0.26459,0.21603 0.26459,0.2802 0,0.0642 -0.11906,0.11668 -0.26459,0.11668 -0.14552,0 -0.26458,-0.12609 -0.26458,-0.2802 z m 5.95313,0.0156 c 0.0899,-0.14552 0.21602,-0.26458 0.28019,-0.26458 0.0642,0 0.11668,0.11906 0.11668,0.26458 0,0.14552 -0.12609,0.26459 -0.2802,0.26459 -0.15411,0 -0.20661,-0.11907 -0.11667,-0.26459 z"

/>
</g>
</svg>
