<?xml version="1.0" encoding="UTF-8" standalone="no"?>
<!-- Created with Inkscape (http://www.inkscape.org/) -->

<svg
   width="65.015984mm"
   height="208.05522mm"
   viewBox="0 0 65.015984 208.05522"
   version="1.1"
   id="svg1"
   xml:space="preserve"
   xmlns="http://www.w3.org/2000/svg"
   xmlns:svg="http://www.w3.org/2000/svg"><defs
     id="defs1" /><g
     id="layer1"
     transform="translate(-71.503626,-45.168178)"><path
       style="fill:#000000"
       d="m 112.72689,252.99573 c -0.29105,-0.0802 -0.71136,-0.53523 -0.93403,-1.01123 l -0.40486,-0.86545 0.29866,-1.3291 c 0.16427,-0.731 0.95878,-2.75785 1.76557,-4.5041 0.8068,-1.74625 1.46555,-3.25437 1.4639,-3.35139 -0.002,-0.097 0.14493,-0.4528 0.32574,-0.79065 0.18081,-0.33784 0.41142,-1.74082 0.51246,-3.11773 l 0.18371,-2.50347 -0.5175,-1.64477 c -0.28462,-0.90462 -0.61701,-3.40261 -0.73863,-5.55109 l -0.22114,-3.90633 0.35229,-0.9266 0.3523,-0.9266 1.4266,-0.38414 c 0.78462,-0.21128 1.42659,-0.43722 1.42659,-0.50209 0,-0.0649 -0.35233,-0.89219 -0.78296,-1.83849 l -0.78297,-1.72054 -0.21505,-5.82083 -0.21504,-5.82084 -0.85407,-1.5875 -0.85407,-1.5875 -0.0497,-2.82222 c -0.0273,-1.55222 -0.29609,-3.69535 -0.59724,-4.7625 -0.30116,-1.06715 -0.61398,-3.28965 -0.69516,-4.93889 -0.33473,-6.79996 -5.99969,-28.67041 -7.56113,-29.19089 l -0.40362,-0.13454 -0.41167,1.52174 c -0.40906,1.51212 -1.06234,3.39285 -3.40823,9.81203 l -1.224758,3.35138 -0.2692,2.38468 -0.2692,2.38468 -0.66894,0.73889 -0.66893,0.73889 -0.0466,4.14553 -0.0466,4.14553 -0.59509,0.90823 -0.59509,0.90823 0.51186,0.81851 c 0.66735,1.06714 1.01855,3.26362 1.13393,7.09185 0.0513,1.70409 0.45333,5.59346 0.89327,8.64305 l 0.799888,5.54471 -0.546338,2.43206 -0.54634,2.43205 1.194268,3.54629 c 0.65685,1.95046 1.19427,4.13794 1.19427,4.86106 v 1.31478 l -1.1906,1.55977 -1.190598,1.55977 0.50669,1.20128 0.506698,1.20128 0.001,3.46391 0.001,3.46391 -0.402888,0.48545 c -0.22159,0.267 -1.30351,0.67105 -2.40426,0.89788 -1.10074,0.22684 -2.39823,0.61423 -2.8833,0.86088 -0.79219,0.40281 -4.56778,1.3203 -7.16081,1.74011 -0.54296,0.0879 -2.20984,0.43718 -3.70417,0.77617 l -2.71697,0.61635 -3.88055,0.0213 -3.88056,0.0213 0.0904,-0.44754 c 0.0497,-0.24614 -0.30747,-0.62881 -0.79375,-0.85037 -1.32839,-0.60526 -1.06635,-1.27663 0.79157,-2.02811 0.63059,-0.25506 1.14652,-0.60324 1.14652,-0.77372 0,-0.17049 0.22595,-0.30998 0.5021,-0.30998 0.27616,0 0.95084,-0.35938 1.49931,-0.79861 0.54846,-0.43923 1.71158,-1.17558 2.5847,-1.63633 0.87313,-0.46075 1.91556,-1.17294 2.31652,-1.58265 0.40096,-0.4097 1.23295,-1.14179 1.84888,-1.62686 0.61593,-0.48507 1.12131,-1.08536 1.12307,-1.33399 0.002,-0.24862 0.24133,-0.54342 0.53237,-0.6551 0.29104,-0.11168 0.52916,-0.41264 0.52916,-0.6688 0,-0.25616 0.57147,-0.93679 1.26993,-1.51252 l 1.26993,-1.04679 -0.61319,-0.34316 -0.61319,-0.34316 -0.24917,-1.64185 -0.24917,-1.64185 0.43172,-0.59042 0.43172,-0.59042 -0.61941,-1.80035 -0.61941,-1.80036 -0.26316,-6.50936 c -0.14474,-3.58015 -0.41439,-6.90624 -0.59922,-7.39131 -0.18483,-0.48507 -0.3324,-1.79052 -0.32794,-2.901 0.005,-1.11048 -0.14233,-2.11203 -0.32622,-2.22568 -0.18388,-0.11365 -0.33433,-0.79807 -0.33433,-1.52095 0,-0.72288 -0.3175,-2.21767 -0.70555,-3.32176 -0.8007,-2.27812 -0.88703,-3.71024 -0.30117,-4.99606 l 0.40439,-0.88753 -0.75717,-1.82195 -0.75716,-1.82194 0.002,-2.51059 c 0.001,-1.38083 0.15821,-3.07304 0.34918,-3.76046 0.19097,-0.68742 0.41446,-5.05305 0.49664,-9.70139 l 0.14943,-8.45153 0.56409,-3.40761 c 0.31025,-1.87419 0.80025,-4.07696 1.08889,-4.89505 0.28864,-0.81809 0.5248,-1.85119 0.5248,-2.29578 0,-0.44459 0.3175,-1.54904 0.70555,-2.45434 0.38806,-0.90529 0.70556,-1.99795 0.70556,-2.42813 0,-0.43018 0.16595,-0.94809 0.36878,-1.15092 l 0.36878,-0.36878 -0.5668,-3.56512 -0.56679,-3.56511 0.4156,-0.81097 c 0.22859,-0.44603 1.0137,-1.44597 1.7447,-2.22208 1.60589,-1.70498 2.06671,-3.10093 2.09139,-6.33536 0.0174,-2.27868 0.52254,-4.71615 1.06316,-5.12991 0.31253,-0.23921 1.31524,-4.01574 1.62215,-6.1096 l 0.24917,-1.69988 -1.19021,0.22258 -1.19021,0.22257 -2.82222,-0.60598 c -1.55222,-0.33329 -4.00885,-0.70038 -5.45916,-0.81576 l -2.63694,-0.20977 -0.46865,-0.88194 -0.46865,-0.88195 0.20814,-2.82222 c 0.11447,-1.55222 0.35923,-3.38805 0.5439,-4.07962 l 0.33577,-1.25741 1.62043,-1.74121 c 0.89124,-0.95766 2.18008,-2.61433 2.8641,-3.68148 0.68401,-1.06715 1.61509,-2.337149 2.06906,-2.822223 0.45397,-0.48507 1.068,-1.462713 1.36451,-2.17254 0.29651,-0.709827 0.71868,-1.35045 0.93815,-1.423606 l 0.39903,-0.13301 -0.384,-1.390726 -0.384,-1.390727 0.96388,-1.362767 c 0.53013,-0.749522 1.28965,-1.987011 1.68782,-2.749976 1.2023,-2.303785 4.40871,-4.86889 6.15522,-4.924126 0.48506,-0.01534 2.23131,-0.536293 3.880548,-1.15767 l 2.99861,-1.129777 0.42712,-2.106844 0.42713,-2.106843 -0.37161,-2.116667 c -0.36649,-2.087449 -2.60444,-7.231944 -3.14604,-7.231944 -0.15318,0 -0.54556,-0.80402 -0.87196,-1.786711 l -0.593448,-1.786711 0.235528,-1.300095 c 0.29575,-1.632503 0.31342,-2.541697 0.13664,-7.032734 l -0.14233,-3.615972 h 0.29461 c 0.16204,0 0.20328,-0.147781 0.0917,-0.328402 -0.11163,-0.18062 -0.0486,-0.423829 0.14016,-0.540464 0.18872,-0.116635 0.24371,-0.471146 0.12219,-0.787803 l -0.22093,-0.575741 0.41273,0.255081 0.41273,0.25508 v -0.726376 c 0,-0.399506 0.15875,-0.726375 0.35278,-0.726375 0.19402,0 0.35277,-0.3175 0.35277,-0.705556 V 47.90672 h 0.48597 c 0.26729,0 0.68215,-0.236377 0.92192,-0.525283 0.23977,-0.288905 0.57671,-0.438286 0.74875,-0.331958 0.17205,0.106329 0.31281,0.02843 0.31281,-0.173103 0,-0.201535 0.59531,-0.668326 1.32291,-1.037313 l 1.32292,-0.670885 1.5875,0.09405 c 0.87313,0.05172 2.32919,0.210898 3.23571,0.353718 l 1.6482,0.259673 -0.18664,0.486386 -0.18664,0.486385 h 1.05699 1.05699 l 0.66954,0.617361 c 0.36824,0.339549 1.04165,1.046635 1.49647,1.571304 l 0.82694,0.953942 0.47583,2.926613 c 0.26171,1.609638 0.47901,4.064322 0.48289,5.454855 l 0.007,2.528241 0.42954,0.143179 0.42954,0.143179 -0.0893,2.260279 -0.0893,2.26028 -0.52479,0.800939 c -0.28864,0.440517 -0.74075,0.80094 -1.00469,0.80094 -0.63406,0 -0.90427,1.113911 -0.91014,3.752036 l -0.005,2.164537 0.46002,0.834074 c 0.25302,0.458742 0.8183,1.419179 1.25618,2.134306 l 0.79616,1.300231 2.8309,1.081019 c 1.557,0.594561 3.35772,1.08102 4.0016,1.08102 h 1.17069 l 2.23875,1.260444 c 1.23131,0.693244 2.67531,1.675445 3.20889,2.182668 l 0.97014,0.922224 v 0.786545 c 0,0.4326 0.17489,0.844842 0.38864,0.916093 l 0.38865,0.129549 0.57205,3.966579 0.57204,3.966578 -0.4214,0.674773 c -0.23177,0.371125 -0.59322,1.755784 -0.80322,3.077021 -0.21,1.321237 -0.53206,2.455166 -0.71568,2.519841 -0.18362,0.0647 -0.33386,0.32108 -0.33386,0.56979 0,0.24871 -0.29707,0.83079 -0.66014,1.29352 -0.36308,0.46273 -1.40704,2.5082 -2.31991,4.54549 -2.22324,4.96169 -2.22348,4.9623 -2.48671,6.17361 -0.12649,0.58209 -0.51509,1.37584 -0.86354,1.76389 -0.34846,0.38806 -0.73817,1.39731 -0.86603,2.2428 -0.12786,0.84548 -0.53747,2.405 -0.91024,3.46561 -0.37277,1.0606 -0.70898,2.82947 -0.74713,3.93081 l -0.0694,2.00245 1.11214,1.64163 1.11214,1.64162 -0.21037,0.65143 c -0.46081,1.42688 -1.03491,2.44859 -1.75361,3.12087 l -0.75426,0.70556 -0.22536,2.64583 -0.22535,2.64584 0.36734,1.41111 c 0.20204,0.77611 0.43837,2.57335 0.52518,3.99387 0.0868,1.42052 0.3116,2.87007 0.49953,3.22123 0.18793,0.35116 0.44499,1.72891 0.57124,3.06168 0.12625,1.33277 0.3051,3.18097 0.39743,4.1071 0.0923,0.92614 0.049,1.95802 -0.0963,2.29306 -0.41395,0.95443 -0.45673,3.03342 -0.0724,3.51636 l 0.3484,0.43774 -0.2407,1.14976 c -0.57138,2.72935 -0.78243,6.90558 -0.68499,13.55394 l 0.10426,7.11252 0.69363,1.29418 0.69364,1.29418 -0.19534,2.58286 -0.19534,2.58286 0.80695,1.66693 0.80694,1.66692 0.46974,4.98241 c 0.25836,2.74032 0.56951,8.07802 0.69146,11.86157 l 0.22171,6.87916 -0.74836,4.45915 c -0.4116,2.45253 -0.66079,4.68734 -0.55376,4.96625 0.29468,0.76794 -0.46365,2.43881 -1.19349,2.62967 l -0.64522,0.16873 0.35567,1.33252 0.35567,1.33252 -0.6408,1.72781 c -0.35243,0.95029 -0.61709,2.40249 -0.58813,3.2271 0.0881,2.50968 0.11786,4.78423 0.0801,6.13137 l -0.0359,1.28068 -0.67949,0.86383 c -0.37372,0.47511 -0.78347,1.32756 -0.91054,1.89433 -0.12708,0.56677 -0.3062,1.30778 -0.39805,1.6467 -0.21995,0.81153 -2.56822,2.14636 -5.38193,3.05925 l -2.26313,0.73426 -1.79382,-0.0409 c -0.9866,-0.0225 -2.03194,-0.10652 -2.32298,-0.1867 z"
       id="path1" /></g></svg>
