<?xml version="1.0" encoding="UTF-8" standalone="no"?>
<!-- Created with Inkscape (http://www.inkscape.org/) -->

<svg
   width="35.516373mm"
   height="39.780411mm"
   viewBox="0 0 35.516372 39.78041"
   version="1.1"
   id="svg1"
   xml:space="preserve"
   inkscape:version="1.4 (e7c3feb100, 2024-10-09)"
   sodipodi:docname="lupus.svg"
   xmlns:inkscape="http://www.inkscape.org/namespaces/inkscape"
   xmlns:sodipodi="http://sodipodi.sourceforge.net/DTD/sodipodi-0.dtd"
   xmlns="http://www.w3.org/2000/svg"
   xmlns:svg="http://www.w3.org/2000/svg"><sodipodi:namedview
     id="namedview1"
     pagecolor="#ffffff"
     bordercolor="#000000"
     borderopacity="0.25"
     inkscape:showpageshadow="2"
     inkscape:pageopacity="0.0"
     inkscape:pagecheckerboard="0"
     inkscape:deskcolor="#d1d1d1"
     inkscape:document-units="mm"
     inkscape:zoom="0.89619809"
     inkscape:cx="-644.9467"
     inkscape:cy="7.8107732"
     inkscape:window-width="2560"
     inkscape:window-height="1371"
     inkscape:window-x="0"
     inkscape:window-y="32"
     inkscape:window-maximized="1"
     inkscape:current-layer="layer1" /><defs
     id="defs1" /><g
     inkscape:label="Layer 1"
     inkscape:groupmode="layer"
     id="layer1"
     transform="translate(-185.39102,-210.96241)"><path
       style="fill:#3a1f00;fill-opacity:0.23506;stroke:none;stroke-width:0.543608"
       d="m 201.63429,250.59069 c 0,-0.0838 0.0647,-0.11232 0.14382,-0.0634 0.0837,0.0517 0.14384,-0.0916 0.14384,-0.34259 0,-0.23733 -0.0658,-0.47215 -0.14618,-0.52184 -0.0804,-0.0497 -0.1117,-0.14612 -0.0696,-0.21429 0.0421,-0.0682 0.0108,-0.16461 -0.0696,-0.2143 -0.23262,-0.14376 -0.16955,-0.36082 0.10553,-0.36322 0.18846,-0.002 0.20453,-0.0321 0.064,-0.12128 -0.14644,-0.0929 -0.17808,-0.73314 -0.14383,-2.91035 0.0399,-2.53614 0.0125,-2.92273 -0.29979,-4.22957 -0.18904,-0.79106 -0.52884,-1.85177 -0.75511,-2.35713 -0.43429,-0.96995 -0.50383,-1.31053 -0.26757,-1.31053 0.0791,0 0.14383,0.12563 0.14383,0.27918 0,0.15354 0.062,0.3175 0.13785,0.36436 0.0758,0.0469 0.28494,0.48757 0.46471,0.97934 0.17977,0.49178 0.34852,0.78344 0.375,0.64813 0.0265,-0.1353 -0.0421,-0.45892 -0.15248,-0.71914 -0.37177,-0.87677 -0.6639,-1.90663 -0.76659,-2.7025 -0.1147,-0.88901 -0.42069,-1.83364 -0.99171,-3.06145 -0.37458,-0.80543 -0.40384,-0.8311 -0.91348,-0.80128 l -0.52649,0.0308 0.0933,2.52723 c 0.0513,1.38998 0.16732,2.81316 0.25784,3.16261 0.0905,0.34946 0.12833,0.72983 0.084,0.84526 -0.0443,0.11543 -0.0133,0.29087 0.0689,0.38989 0.0986,0.11886 0.10261,0.30309 0.0117,0.5423 -0.0758,0.19925 -0.0987,0.40129 -0.0511,0.44898 0.0477,0.0477 0.0171,0.0867 -0.0681,0.0867 -0.0851,0 -0.23168,0.46925 -0.32565,1.04277 -0.094,0.57352 -0.26162,1.18611 -0.37257,1.36132 -0.25739,0.40648 -0.25758,0.96953 -4.6e-4,1.3765 0.16922,0.26785 0.17134,0.43293 0.0133,1.03698 -0.10339,0.39514 -0.1575,0.76776 -0.12024,0.82804 0.0372,0.0603 -0.0389,0.15052 -0.16917,0.20053 -0.17244,0.0662 -0.18948,0.12023 -0.0626,0.19864 0.10324,0.0638 0.12629,0.18545 0.0565,0.29833 -0.0648,0.10482 -0.14058,0.41277 -0.16844,0.68433 -0.0674,0.65698 -0.3005,1.06757 -0.55141,0.97128 -0.13648,-0.0523 -0.29967,0.13326 -0.49597,0.56417 -0.36247,0.79567 -0.63475,0.84876 -0.52746,0.10285 0.0427,-0.29665 0.0441,-0.42054 0.003,-0.27531 -0.0557,0.19754 -0.16181,0.24214 -0.42115,0.17704 -0.19646,-0.0493 -0.34665,-0.0235 -0.34665,0.0596 0,0.0806 -0.10401,0.14657 -0.23114,0.14657 -0.14635,0 -0.20076,-0.0791 -0.14834,-0.21574 0.0626,-0.16305 -0.0256,-0.21575 -0.36096,-0.21575 -0.38999,0 -0.43324,-0.0392 -0.35702,-0.32361 0.0477,-0.17799 0.0876,-0.37216 0.0887,-0.43149 0.001,-0.0593 0.0911,-0.10788 0.20009,-0.10788 0.10898,0 0.27721,-0.0953 0.37387,-0.21173 0.14051,-0.16931 0.12963,-0.25782 -0.0543,-0.44176 -0.28885,-0.28885 -0.29483,-0.49714 -0.0143,-0.49714 0.11866,0 0.21574,0.0647 0.21574,0.14383 0,0.21914 0.20982,0.17216 0.48178,-0.10788 0.58318,-0.6005 0.92763,-1.32758 1.01381,-2.14004 0.16879,-1.59121 0.0706,-7.49681 -0.12999,-7.82144 -0.068,-0.10999 -0.13093,-0.78576 -0.13988,-1.50169 -0.0185,-1.47936 -0.38112,-2.80604 -0.79668,-2.91471 -0.15542,-0.0407 -0.32478,-0.31589 -0.43366,-0.7048 -0.0983,-0.35097 -0.23451,-0.67263 -0.30276,-0.71481 -0.0683,-0.0422 -0.12411,-0.20233 -0.12411,-0.35587 0,-0.15354 -0.0971,-0.27917 -0.21574,-0.27917 -0.15068,0 -0.21574,-0.15182 -0.21574,-0.5034 0,-0.27688 -0.0608,-0.50341 -0.13513,-0.50341 -0.0743,0 -0.30083,-0.53397 -0.50334,-1.1866 -0.20252,-0.65262 -0.74041,-1.93091 -1.1953,-2.84063 -0.98667,-1.97319 -1.17987,-2.0823 -2.0561,-1.16119 -0.30987,0.32574 -0.52504,0.67651 -0.4827,0.78687 0.10279,0.26785 -0.76525,1.2373 -1.10786,1.2373 -0.16949,0 -0.27276,0.10073 -0.27276,0.26606 0,0.23484 -0.11792,0.26437 -1.00528,0.2517 -0.76816,-0.011 -1.0261,0.0365 -1.09358,0.20139 -0.0916,0.22386 -0.44017,-0.78622 -0.5909,-1.71243 -0.0669,-0.41096 -0.042,-0.47541 0.15438,-0.40005 0.12876,0.0494 0.2341,0.0271 0.2341,-0.0495 0,-0.0766 0.0819,-0.13931 0.18191,-0.13931 0.1073,0 0.307,-0.48663 0.48694,-1.1866 0.16777,-0.65262 0.44204,-1.65554 0.60949,-2.2287 0.23778,-0.81395 0.30894,-1.47524 0.32501,-3.02042 0.0113,-1.08807 0.0252,-2.43138 0.0309,-2.98512 0.006,-0.61203 -0.12533,-1.55731 -0.33573,-2.41074 -0.37185,-1.5084 -0.31459,-1.8647 0.25102,-1.56199 0.28167,0.15074 1.47084,2.39307 1.47084,2.77344 0,0.10736 0.12626,0.27405 0.28058,0.37043 0.5014,0.31312 0.6803,-0.0801 0.79377,-1.74486 0.0566,-0.83041 0.0679,-1.56652 0.0251,-1.6358 -0.10377,-0.1679 0.45839,-0.64079 0.63326,-0.53271 0.0754,0.0466 0.13712,0.17825 0.13712,0.29255 0,0.11429 0.28555,0.80625 0.63455,1.53768 0.52357,1.09726 0.73673,1.39277 1.21869,1.68945 0.32964,0.20291 0.58581,0.47293 0.588,0.61976 0.002,0.15373 0.0693,0.21975 0.16378,0.16136 0.088,-0.0544 0.21739,-0.01 0.28765,0.0994 0.10717,0.16627 0.15058,0.16344 0.26938,-0.0175 0.0947,-0.14427 0.14236,-0.15618 0.14383,-0.036 0.001,0.0989 0.0658,0.17979 0.14351,0.17979 0.0777,0 0.44858,0.29442 0.82413,0.65426 0.50321,0.48216 0.63312,0.68499 0.49387,0.77105 -0.14982,0.0926 -0.14177,0.13489 0.0389,0.2042 0.16994,0.0652 0.2278,-0.003 0.2278,-0.26765 0,-0.266 0.0766,-0.35506 0.30527,-0.35506 0.22225,0 0.26758,0.0489 0.16667,0.17979 -0.23832,0.30914 4e-4,0.76118 0.94094,1.78181 0.50021,0.5428 1.21217,1.38445 1.58212,1.87032 0.49456,0.64951 0.81379,0.92663 1.20569,1.04665 0.56918,0.1743 0.56426,0.17679 2.32735,-1.17919 0.4958,-0.38132 0.74118,-0.4896 0.60306,-0.26613 -0.15223,0.24632 0.14255,0.19436 0.35592,-0.0627 0.42481,-0.51186 1.95163,-0.95802 2.1546,-0.62961 0.0545,0.0882 0.61213,0.17647 1.25751,0.19905 1.41535,0.0495 2.0387,0.3505 2.22645,1.07507 0.13738,0.53016 0.60991,1.0067 1.00569,1.01423 0.28285,0.005 0.34244,0.23822 0.0831,0.32468 -0.11431,0.0381 -0.0761,0.19251 0.1187,0.47943 0.15802,0.23278 0.5064,0.74684 0.77417,1.14237 0.26778,0.39554 0.5638,0.78388 0.65784,0.86298 0.21947,0.18463 0.4023,0.79107 0.23848,0.79107 -0.0686,0 -0.20242,-0.0777 -0.29735,-0.1726 -0.22447,-0.22448 -0.21775,-0.1354 0.0462,0.61279 0.32118,0.91032 0.60402,2.22761 0.72369,3.37047 0.10917,1.04261 0.51048,2.38134 1.06686,3.55892 0.30553,0.64664 1.14833,1.54786 1.44755,1.54786 0.0764,0 0.13882,0.0971 0.13882,0.21574 0,0.11866 -0.0647,0.21574 -0.14383,0.21574 -0.0791,0 -0.14383,-0.0647 -0.14383,-0.14383 0,-0.0791 -0.0782,-0.14383 -0.17377,-0.14383 -0.221,0 0.97863,1.2374 1.5042,1.55155 0.21754,0.13004 0.39553,0.2872 0.39553,0.34925 0,0.23472 -0.42667,0.0983 -0.87657,-0.28026 l -0.46716,-0.39309 0.51059,0.66891 c 0.62282,0.81594 2.39883,2.39387 3.10046,2.75467 0.35662,0.18338 0.45795,0.29875 0.33121,0.37708 -0.22248,0.1375 0.66997,0.86891 1.06021,0.86891 0.13837,0 0.28488,0.1273 0.32557,0.2829 0.0407,0.15559 0.19644,0.32176 0.34611,0.36926 0.14967,0.0475 0.27213,0.13981 0.27213,0.20512 0,0.22328 -0.37131,0.26159 -0.63891,0.0659 -0.19315,-0.14124 -0.77275,-0.19373 -2.08985,-0.18926 l -1.82257,0.006 -0.85263,-0.50291 c -0.46895,-0.27661 -1.14118,-0.79912 -1.49385,-1.16113 -0.35268,-0.36203 -0.69445,-0.65822 -0.75951,-0.65822 -0.0651,0 -0.31717,-0.22653 -0.56026,-0.5034 -0.24311,-0.27687 -0.52699,-0.50341 -0.63086,-0.50341 -0.10387,0 -0.25387,-0.17798 -0.33332,-0.39553 -0.11276,-0.30873 -0.14676,-0.0483 -0.15493,1.1866 -0.008,1.14066 0.0495,1.69708 0.20439,1.99409 0.26272,0.50375 0.26342,0.52292 0.0191,0.52292 -0.15595,0 -0.18301,0.28492 -0.13322,1.40234 0.0344,0.77129 0.12243,1.58999 0.1957,1.81934 0.0733,0.22934 0.13322,0.56914 0.13322,0.7551 0,0.18596 0.0647,0.33811 0.14382,0.33811 0.0833,0 0.14384,0.4606 0.14384,1.09412 0,0.91345 -0.0356,1.08043 -0.21575,1.01131 -0.11866,-0.0455 -0.21574,-0.0201 -0.21574,0.0565 0,0.0766 -0.12339,0.13932 -0.2742,0.13932 -0.20338,0 -0.25477,-0.0743 -0.19896,-0.28766 0.0524,-0.20058 0.004,-0.28766 -0.15871,-0.28766 -0.12866,0 -0.34476,0.12945 -0.48023,0.28766 -0.13547,0.15821 -0.28909,0.28766 -0.34139,0.28766 -0.0523,0 -0.12894,-0.12945 -0.17031,-0.28766 -0.0935,-0.3576 -0.61066,-0.38152 -0.80337,-0.0372 -0.43697,0.78081 -0.21074,-0.67052 0.27446,-1.76072 0.35844,-0.80541 0.58376,-2.05736 0.61156,-3.39811 0.0368,-1.7716 -0.2721,-6.30047 -0.46172,-6.77088 -0.34387,-0.85307 -1.01283,-3.1843 -1.22987,-4.28589 -0.27661,-1.40397 -0.7274,-2.99299 -0.93847,-3.30808 -0.0979,-0.1461 -0.11419,0.55669 -0.0506,2.17712 0.0517,1.31608 0.0423,2.51346 -0.0208,2.66085 -0.0631,0.14739 -0.13238,1.11241 -0.15394,2.14449 -0.0216,1.03208 -0.10897,2.87669 -0.19425,4.09914 -0.0853,1.22245 -0.13343,2.694 -0.10698,3.2701 0.0324,0.70556 -0.0132,1.12807 -0.13956,1.29446 -0.10321,0.13586 -0.1897,0.39265 -0.19222,0.57063 -0.003,0.17799 -0.0693,0.32362 -0.1484,0.32362 -0.0791,0 -0.14383,0.0991 -0.14383,0.22026 0,0.12114 -0.11326,0.262 -0.25171,0.31302 -0.13843,0.0511 -0.45197,0.24317 -0.69676,0.42698 -0.56332,0.423 -0.6837,0.42055 -0.60096,-0.0122 0.0516,-0.26976 0.0155,-0.32849 -0.16303,-0.26533 -0.12608,0.0446 -0.29992,0.13522 -0.38631,0.20136 -0.19488,0.14921 -0.34633,0.0104 -0.34633,-0.31732 0,-0.13656 -0.10438,-0.28835 -0.23195,-0.3373 -0.17489,-0.0671 -0.19288,-0.13607 -0.0732,-0.28033 0.0873,-0.10522 0.12104,-0.22905 0.0749,-0.27518 -0.0461,-0.0462 0.17249,-0.25351 0.48581,-0.46085 0.63112,-0.41766 0.99138,-1.1014 1.08573,-2.06059 0.0379,-0.38544 0.16237,-0.69235 0.33058,-0.81523 0.54715,-0.39967 0.41169,-6.99672 -0.16697,-8.13129 -0.10086,-0.19776 -0.29788,-0.89671 -0.43782,-1.55321 -0.13993,-0.6565 -0.30784,-1.22665 -0.37313,-1.267 -0.0653,-0.0403 -0.11869,-0.19056 -0.11869,-0.33381 0,-0.14325 -0.212,-0.72665 -0.47111,-1.29643 l -0.47111,-1.03597 -0.22957,0.54981 c -0.12627,0.3024 -0.33876,1.03542 -0.47222,1.62893 -0.22702,1.00963 -0.22723,1.19855 -0.003,2.93403 0.13156,1.02021 0.21235,2.3145 0.17954,2.8762 -0.0418,0.71502 -0.005,1.06441 0.12291,1.16511 0.14716,0.11593 0.13972,0.49264 -0.0383,1.9417 -0.15417,1.25478 -0.19084,2.27579 -0.12139,3.38 0.0547,0.87017 0.0907,1.74393 0.08,1.9417 -0.0108,0.19777 0.0385,0.48902 0.10937,0.64723 0.34255,0.76438 0.4782,1.19697 0.73662,2.34902 0.28711,1.27992 0.56821,2.03468 0.75853,2.03667 0.0593,5.4e-4 0.10788,0.0658 0.10788,0.14494 0,0.0791 -0.0971,0.14384 -0.21575,0.14384 -0.11866,0 -0.21574,0.0647 -0.21574,0.14383 0,0.0791 0.0574,0.14382 0.1275,0.14382 0.0701,0 0.17089,0.30744 0.22394,0.68319 0.0531,0.37576 0.12947,0.79646 0.16985,0.9349 0.0404,0.13844 0.004,0.2517 -0.0801,0.2517 -0.0844,0 -0.13734,-0.0709 -0.11757,-0.15765 0.0198,-0.0867 -0.11861,-0.21738 -0.30752,-0.29037 -0.28931,-0.11179 -0.31656,-0.10029 -0.1728,0.0729 0.24088,0.29024 -0.0463,0.43043 -0.41276,0.20153 -0.16143,-0.10081 -0.29351,-0.23245 -0.29351,-0.29253 0,-0.0601 -0.10145,-0.10923 -0.22544,-0.10923 -0.15998,0 -0.19893,0.0835 -0.13413,0.28766 0.0707,0.22278 0.0259,0.28766 -0.19891,0.28766 -0.15961,0 -0.34985,-0.10657 -0.42274,-0.23682 -0.12304,-0.21987 -0.15672,-0.21987 -0.47063,0 -0.39119,0.27399 -0.56177,0.29965 -0.56177,0.0845 z m 0.38591,-3.32656 c -0.0459,-0.11474 -0.08,-0.0807 -0.0869,0.0869 -0.006,0.15162 0.0277,0.23657 0.0755,0.18878 0.0478,-0.0478 0.0529,-0.17185 0.0114,-0.27567 z m 9.82599,-11.47941 c 0,-0.0791 -0.0685,-0.14383 -0.15232,-0.14383 -0.0838,0 -0.11231,0.0647 -0.0634,0.14383 0.0489,0.0791 0.11743,0.14383 0.15231,0.14383 0.0349,0 0.0634,-0.0647 0.0634,-0.14383 z m -13.99705,-1.32144 c -0.0459,-0.11473 -0.08,-0.0807 -0.0869,0.0869 -0.006,0.15161 0.0278,0.23656 0.0755,0.18877 0.0478,-0.0478 0.0529,-0.17185 0.0114,-0.27568 z m 10.27533,-6.91521 c -0.14205,-0.14099 -0.15857,-0.12447 -0.0805,0.0805 0.054,0.14184 0.13444,0.22167 0.17873,0.17739 0.0443,-0.0443 8e-5,-0.16034 -0.0982,-0.25791 z m -15.55145,-5.71483 c 0,-0.0791 -0.0285,-0.14383 -0.0634,-0.14383 -0.0349,0 -0.10343,0.0647 -0.15232,0.14383 -0.0489,0.0791 -0.0203,0.14383 0.0634,0.14383 0.0838,0 0.15232,-0.0647 0.15232,-0.14383 z m 14.48784,-1.0937 c -0.0478,-0.0478 -0.17185,-0.0529 -0.27568,-0.0114 -0.11473,0.0459 -0.0806,0.08 0.0869,0.0869 0.15162,0.006 0.23657,-0.0277 0.18878,-0.0755 z m -9.59764,-1.54953 c 0,-0.0299 -0.11326,-0.14314 -0.2517,-0.25171 -0.22812,-0.1789 -0.23321,-0.17381 -0.0543,0.0543 0.18789,0.23959 0.306,0.31578 0.306,0.1974 z m -0.70129,-0.7032 c -0.14205,-0.14099 -0.15858,-0.12447 -0.0805,0.0805 0.054,0.14184 0.13444,0.22167 0.17872,0.17739 0.0443,-0.0443 9e-5,-0.16035 -0.0982,-0.25791 z m 2.42725,17.43325 c 0,-0.0838 0.0647,-0.11232 0.14383,-0.0634 0.0791,0.0489 0.14383,0.11744 0.14383,0.15232 0,0.0349 -0.0647,0.0634 -0.14383,0.0634 -0.0791,0 -0.14383,-0.0685 -0.14383,-0.15232 z m -0.48607,-1.2078 c -0.15251,-0.23277 -0.17879,-0.38241 -0.0781,-0.44465 0.0835,-0.0516 0.16367,-0.0712 0.17819,-0.0434 0.0145,0.0277 0.10596,0.19299 0.20323,0.36731 0.2469,0.44252 -0.0223,0.54973 -0.30334,0.1208 z"
       id="path3"
       sodipodi:nodetypes="cssssccssssssssscssscssssssssssssssssssscssssssssssssssssssssssssssssssssssssssssssssssssssssscssssssssssssssssssssssscsssssssssscsssscsssscssssssscsssssssssssssssssssscscssscsssscssssscscsssssscssccccsccscsssssssssssssssssccsscssssssssssssscssssssssssssssssssssssssssssssss"
       inkscape:label="lupus" /></g></svg>
